<svg width="531" height="285" viewBox="0 0 531 285" fill="none" xmlns="https://www.w3.org/2000/svg">
<g clip-path="url(#clip0_481_3819)">
<path d="M176.265 214.94H53.8989V283.974H176.265V214.94Z" fill="#4741BB"/>
<path opacity="0.5" d="M97.7426 214.94H53.8989V283.974H97.7426V214.94Z" fill="#FBE1FF"/>
<path opacity="0.3" d="M120.947 214.94V231.757H132.361V214.94H120.947Z" fill="white"/>
<path d="M354.226 139.73H152.095V283.975H354.226V139.73Z" fill="#102048"/>
<path d="M373.907 88.732H336.513V54.523C336.513 47.6216 342.096 42.0266 348.982 42.0266C352.424 42.0266 355.544 43.4272 357.797 45.6875C360.023 47.9176 361.42 51.0054 361.45 54.408V54.523L361.441 76.2357C361.441 76.3412 361.441 76.4543 361.45 76.5599V77.2178L361.488 77.1989C361.973 83.6517 367.347 88.732 373.907 88.732Z" fill="#86A7FF"/>
<path d="M386.366 68.6877V76.247C386.366 79.6968 384.978 82.8242 382.714 85.0731C380.47 87.3409 377.349 88.734 373.907 88.734C367.345 88.734 361.971 83.6536 361.488 77.2009L386.366 68.6896V68.6877Z" fill="#D3DFFF"/>
<path d="M348.982 42.0286C348.715 42.0286 348.459 42.038 348.201 42.0568C348.03 42.0663 347.868 42.0757 347.707 42.0945C347.526 42.1134 347.355 42.1322 347.174 42.1605C347.069 42.1699 346.966 42.1888 346.86 42.2076C346.727 42.2265 346.593 42.2548 346.471 42.2831C346.281 42.3208 346.1 42.3585 345.91 42.4075C345.643 42.4735 345.378 42.5507 345.111 42.645C344.977 42.6827 344.844 42.7317 344.722 42.7788C344.598 42.8165 344.464 42.875 344.342 42.9221C344.161 42.9881 343.99 43.0654 343.819 43.1502C343.666 43.2162 343.514 43.284 343.362 43.3689C343.324 43.3877 343.275 43.4066 343.228 43.4349C343.095 43.5008 342.961 43.5781 342.829 43.6535C342.307 43.9495 341.803 44.2832 341.336 44.6545C341.203 44.7601 341.06 44.8732 340.937 44.9788C340.785 45.1032 340.651 45.2257 340.508 45.3595C340.366 45.4934 340.232 45.6272 340.1 45.7592C339.73 46.14 339.378 46.5415 339.055 46.9694C338.912 47.1598 338.778 47.3408 338.646 47.5312C338.229 48.1702 337.866 48.8376 337.554 49.5426C337.478 49.7141 337.411 49.8951 337.335 50.0761C337.136 50.619 336.965 51.1826 336.831 51.7538C336.794 51.9537 336.756 52.144 336.717 52.3344C336.651 52.7247 336.592 53.1262 336.564 53.5258V228.813H169.877V61.5111C169.877 50.7491 178.578 42.0286 189.316 42.0286H348.984H348.982Z" fill="#C0B7FC"/>
<path d="M316.066 59.8899H189.579V66.5613H316.066V59.8899Z" fill="white"/>
<path d="M306.265 79.429H189.579V86.1003H306.265V79.429Z" fill="white"/>
<path d="M300.114 98.97H189.579V105.641H300.114V98.97Z" fill="white"/>
<path d="M316.066 118.509H189.579V125.181H316.066V118.509Z" fill="white"/>
<path d="M307.032 138.288H238.458V144.959H307.032V138.288Z" fill="#DFDBFD"/>
<path d="M252.26 175.753C251.504 175.753 250.806 175.494 250.329 174.834C249.742 174.02 249.783 172.906 249.811 172.169L250.456 154.928L251.406 154.964L250.761 172.205C250.731 173.008 250.735 173.771 251.1 174.276C251.909 175.394 253.852 174.427 254.233 174.222C256.148 173.193 257.523 171.255 258.853 169.381C260.331 167.298 261.86 165.145 264.172 164.133C265.543 163.531 266.553 164.414 267.364 165.117C267.825 165.516 268.259 165.893 268.718 166.031C269.928 166.389 271.131 166.076 272.405 165.741C273.529 165.445 274.698 165.137 275.896 165.324C276.992 165.492 277.876 165.929 278.732 166.353C279.996 166.979 281.089 167.52 282.669 167.136C284.847 166.61 286.871 165.367 288.827 164.165C289.395 163.816 289.959 163.469 290.531 163.135C292.73 161.856 296.036 160.24 299.324 160.996L299.112 161.925C296.145 161.247 293.066 162.76 291.007 163.961C290.443 164.289 289.884 164.634 289.321 164.977C287.301 166.218 285.214 167.501 282.889 168.061C280.972 168.523 279.616 167.856 278.309 167.207C277.519 166.817 276.701 166.412 275.751 166.267C274.746 166.114 273.725 166.382 272.644 166.663C271.299 167.015 269.914 167.379 268.445 166.945C267.789 166.749 267.253 166.286 266.738 165.837C265.889 165.1 265.331 164.666 264.548 165.006C262.477 165.912 261.091 167.865 259.624 169.933C258.23 171.896 256.791 173.926 254.679 175.061C253.929 175.464 253.058 175.754 252.257 175.754L252.26 175.753Z" fill="#102048"/>
<path opacity="0.3" d="M336.56 145.77V228.818H169.873V138.535L221.942 181.951C224.814 184.352 228.58 185.268 232.289 184.742C233.363 184.59 234.467 184.533 235.569 184.561L271.062 185.562C272.288 185.6 273.505 185.753 274.694 186.011C278.375 186.812 282.227 186.077 285.259 183.828L336.557 145.768L336.56 145.77Z" fill="#86A7FF"/>
<path d="M228.097 199.527L226.708 201.071L163.979 270.786L152.099 283.978V139.726L228.097 199.527Z" fill="url(#paint0_linear_481_3819)"/>
<path d="M354.226 139.73L278.226 199.527L354.226 283.975V139.73Z" fill="url(#paint1_linear_481_3819)"/>
<path d="M226.708 201.071L163.978 270.784L152.101 273.404V247.775C183.455 225.251 218.635 199.135 226.671 198.573L226.708 201.071Z" fill="#5B4DAD"/>
<path d="M279.618 201.071L342.348 270.784L354.226 273.404V247.775C322.871 225.251 287.691 199.135 279.656 198.573L279.618 201.071Z" fill="#5B4DAD"/>
<path d="M354.226 283.974H152.095L152.133 264.999L221.782 201.673C225.437 198.349 230.195 196.509 235.129 196.509H270.637C275.497 196.509 280.19 198.296 283.826 201.529L354.423 264.345L354.226 283.976V283.974Z" fill="url(#paint2_linear_481_3819)"/>
<path opacity="0.4" d="M365.337 273.783C378.893 260.197 378.893 238.169 365.337 224.583C351.781 210.997 329.803 210.997 316.247 224.583C302.691 238.169 302.691 260.197 316.247 273.783C329.803 287.369 351.781 287.369 365.337 273.783Z" fill="#5B4DAD"/>
<path d="M375.798 273.783C389.354 260.197 389.354 238.169 375.798 224.583C362.242 210.997 340.264 210.997 326.708 224.583C313.152 238.169 313.152 260.197 326.708 273.783C340.264 287.369 362.242 287.369 375.798 273.783Z" fill="#F22293"/>
<path d="M350.511 268.036C348.863 268.036 347.285 267.344 346.155 266.094L333.874 252.502C332.817 251.332 332.906 249.524 334.074 248.465C335.243 247.405 337.047 247.494 338.102 248.664L350.383 262.254C350.407 262.28 350.454 262.326 350.548 262.313C350.646 262.297 350.671 262.239 350.686 262.205L363.905 232.043C364.538 230.597 366.218 229.941 367.665 230.575C369.107 231.21 369.764 232.897 369.13 234.343L355.911 264.505C355.104 266.345 353.443 267.636 351.464 267.957C351.146 268.009 350.827 268.034 350.509 268.034L350.511 268.036Z" fill="white"/>
<path d="M110.328 195.715L111.437 214.938H140.919L127.604 203.976L126.812 195.715L121.581 190.631L110.328 195.715Z" fill="#102048"/>
<path d="M74.98 187.137L70.2251 204.293L94.4774 214.938L87.3431 198.734L89.0867 191.425L83.0641 183.483L74.98 187.137Z" fill="#102048"/>
<path d="M84.3317 101.988C84.3317 101.988 81.4784 113.902 82.4301 140.115C82.4301 140.115 74.0301 169.503 74.9799 187.137L89.0866 191.425C96.4767 174.966 102.556 159.131 105.787 144.652C107.399 139.532 107.369 134.033 105.701 128.932L98.9143 108.183L84.3317 101.986V101.988Z" fill="url(#paint3_linear_481_3819)"/>
<path d="M129.046 140.661L126.812 195.716H110.332C106.034 177.786 104.435 162.479 103.874 152.222C103.408 143.577 103.675 138.525 103.675 138.525C93.0799 125.991 86.7846 116.937 83.1225 110.235C77.6829 100.293 78.0158 95.509 78.6234 92.1346C79.4415 87.6462 82.3513 81.8306 84.3206 78.2565C85.4247 76.2733 86.2316 74.9783 86.2316 74.9783L113.811 83.8816L110.521 95.8049L110.465 96.0048C109.97 97.7975 110.219 99.7222 111.14 101.332L125.606 126.581C128.05 130.851 129.25 135.732 129.048 140.659L129.046 140.661Z" fill="#5D46D1"/>
<path d="M120.471 196.072C120.471 196.072 120.456 196.072 120.449 196.072C120.251 196.061 120.103 195.889 120.116 195.693C120.15 195.141 123.55 140.399 119.514 131.686C118.805 130.155 117.603 128.202 116.211 125.94C110.386 116.477 100.633 100.637 102.682 77.8079C102.699 77.6118 102.868 77.4629 103.069 77.4836C103.265 77.5006 103.41 77.674 103.393 77.872C101.367 100.463 111.04 116.175 116.819 125.563C118.224 127.844 119.435 129.814 120.163 131.383C124.274 140.26 120.972 193.474 120.829 195.735C120.817 195.925 120.659 196.07 120.473 196.07L120.471 196.072Z" fill="#1F3C88"/>
<path opacity="0.6" d="M113.811 83.8816L110.521 95.8049C97.8348 90.5719 88.6955 82.613 84.3206 78.2565C85.4246 76.2733 86.2315 74.9783 86.2315 74.9783L113.811 83.8816Z" fill="#1F3C88"/>
<path d="M118.472 204.745L118.192 199.97L127.28 199.806C127.515 199.81 127.639 199.959 127.643 200.157C127.647 200.355 127.491 200.517 127.293 200.521L118.948 200.671L119.143 203.999L127.589 203.618C127.779 203.61 127.954 203.763 127.961 203.959C127.97 204.157 127.818 204.323 127.621 204.332L118.472 204.745Z" fill="white"/>
<path d="M87.343 199.092C87.3073 199.092 87.2697 199.086 87.234 199.075L79.4094 196.572L81.3618 192.008L88.2572 194.506C88.4434 194.573 88.5374 194.777 88.4716 194.964C88.4039 195.148 88.2007 195.248 88.0145 195.179L81.753 192.911L80.3762 196.132L87.4521 198.395C87.6402 198.455 87.7437 198.657 87.6835 198.843C87.6346 198.994 87.4954 199.092 87.343 199.092Z" fill="white"/>
<path d="M123.56 31.1325L123.046 33.0591L120.99 40.8464L119.602 46.0701L107.239 41.6174L113.202 29.3888L116.113 25.1755L123.56 31.1325Z" fill="#F9B384"/>
<path d="M123.046 33.0592L120.992 40.8466C117.349 36.8822 118.092 31.9338 118.092 31.9338L123.046 33.0592Z" fill="#102048"/>
<path d="M132.834 20.1744C132.834 20.1744 132.043 37.8077 123.165 36.2977C114.287 34.7877 114.447 19.6183 114.447 19.6183L126.018 15.8857L132.834 20.1744Z" fill="#F9B384"/>
<path d="M120.511 22.8362C120.511 22.8362 125.603 17.5749 132.835 20.1745C132.835 20.1745 136.025 21.5242 137.274 18.9039C137.274 18.9039 127.051 5.32169 119.025 11.8743C119.025 11.8743 104.64 15.0319 113.2 29.3889L120.511 22.8362Z" fill="#102048"/>
<path d="M121.161 26.3317C122.65 26.0937 123.637 24.5138 123.365 22.803C123.093 21.0922 121.665 19.8983 120.175 20.1364C118.686 20.3744 117.699 21.9543 117.971 23.6651C118.243 25.3759 119.671 26.5698 121.161 26.3317Z" fill="#F9B384"/>
<path d="M133.125 29.3219C133.265 28.4555 132.678 27.6395 131.813 27.4994C130.949 27.3592 130.135 27.9479 129.995 28.8143C129.855 29.6807 130.442 30.4967 131.307 30.6369C132.171 30.777 132.986 30.1883 133.125 29.3219Z" fill="#F9B384"/>
<path opacity="0.4" d="M125.424 30.1843C126.934 30.1843 128.159 28.9571 128.159 27.4433C128.159 25.9296 126.934 24.7024 125.424 24.7024C123.913 24.7024 122.689 25.9296 122.689 27.4433C122.689 28.9571 123.913 30.1843 125.424 30.1843Z" fill="#EB5D60"/>
<path d="M176.74 55.9632C176.74 55.9632 178.377 58.2122 175.038 60.463C175.038 60.463 177.692 62.284 168.543 65.2851C167.526 65.6188 166.365 65.9619 165.034 66.3238L161.362 52.9603C161.362 52.9603 177.692 47.4312 178.1 49.2051C178.508 50.9771 175.181 53.3712 175.181 53.3712C175.181 53.3712 181.031 51.9329 176.74 55.9632Z" fill="#F9B384"/>
<path d="M161.364 52.9584L142.028 55.4411C142.028 55.4411 114.21 35.5834 108.505 37.4893C102.8 39.3951 83.5399 70.3731 83.5399 70.3731C83.5399 70.3731 78.3092 72.0414 78.5461 74.1848C78.7831 76.33 112.545 93.8841 117.063 89.4353C119.903 86.6378 123.165 64.3351 123.165 64.3351L135.468 69.4645C139.115 70.9857 143.146 71.3288 146.998 70.4485L165.037 66.3239L161.362 52.9547L161.364 52.9584Z" fill="#4741BB"/>
<g opacity="0.8">
<path d="M160.139 64.8968C159.476 62.2953 158.827 59.7561 158.238 57.313C158.074 56.6324 157.924 55.9387 157.773 55.2412C157.645 54.6512 157.514 54.0593 157.375 53.4692L156.664 53.5597C156.807 54.1686 156.944 54.7813 157.075 55.392C157.228 56.0952 157.378 56.7946 157.546 57.4807C158.136 59.9257 158.785 62.4669 159.449 65.0721C159.652 65.8657 159.855 66.665 160.059 67.4643L160.755 67.3059C160.55 66.501 160.344 65.696 160.141 64.8968H160.139Z" fill="white"/>
<path d="M127.04 45.5272C126.746 45.5894 126.453 45.6554 126.157 45.7176C120.799 46.8373 115.068 47.7422 109.461 46.7921C106.619 46.3095 104.004 45.3236 101.775 43.9531C101.625 44.1379 101.476 44.3207 101.324 44.513C103.649 45.957 106.378 46.9938 109.342 47.4971C115.064 48.468 120.876 47.5518 126.302 46.4188C126.84 46.3057 127.378 46.187 127.916 46.0701C127.625 45.8891 127.333 45.7082 127.038 45.5291L127.04 45.5272Z" fill="white"/>
<path d="M119.633 79.8625C118.022 79.9963 116.358 80.134 114.74 79.9831C109.991 79.5401 105.778 76.5786 103.02 74.3881C102.044 73.6115 101.087 72.8065 100.129 71.9997C97.6956 69.9487 95.179 67.8299 92.3463 66.2482C90.7118 65.3377 89.0529 64.6911 87.4221 64.2915C87.2811 64.5083 87.1494 64.71 87.0159 64.9192C88.6598 65.2963 90.3413 65.9504 92.0002 66.8741C94.7727 68.4218 97.263 70.518 99.6724 72.5483C100.634 73.3589 101.597 74.1695 102.578 74.9499C105.405 77.1951 109.735 80.2339 114.674 80.6957C116.354 80.8503 118.051 80.7108 119.691 80.5751C119.853 80.5619 120.016 80.5543 120.178 80.5411C120.234 80.2998 120.289 80.0567 120.343 79.8135C120.107 79.8323 119.87 79.8436 119.631 79.8625H119.633Z" fill="white"/>
</g>
<path d="M123.167 64.3388L118.158 62.137C118.158 62.137 119.437 70.111 121.852 71.2515L123.167 64.3388Z" fill="#E49B31"/>
<path d="M168.543 65.285C167.526 65.6187 166.365 65.9618 165.034 66.3237L161.362 52.9602L168.541 65.285H168.543Z" fill="#E28B6D"/>
<path d="M388.582 145.913L400.232 151.155L408.915 122.513L397.543 119.518C394.537 126.251 391.473 134.868 388.582 145.913Z" fill="#E28B6D"/>
<path d="M397.543 119.518L408.915 122.513L418.62 95.7937C418.62 95.7937 406.891 94.2046 397.545 119.518H397.543Z" fill="#102048"/>
<path d="M383.748 135.984L375.348 159.177L406.731 171.251L413.071 147.105L383.748 135.984Z" fill="#102048"/>
<path d="M394.072 166.89C393.843 167.546 391.966 168.331 390.76 167.258C388.411 166.841 386.825 166.544 385.36 164.92C384.044 164.413 383.453 162.979 384.055 161.769C385.208 159.452 386.993 156.187 387.843 156.317C388.909 156.479 388.138 159.776 388.138 159.776C388.138 159.776 389.916 155.591 391.601 156.145C392.353 156.392 390.544 160.377 390.361 160.796C390.645 160.415 392.901 157.374 393.764 158.013C394.627 158.662 392.524 162.255 392.303 162.636C392.547 162.33 394.526 159.938 395.491 160.73C395.908 161.081 395.252 163.51 394.074 166.89H394.072Z" fill="#E28B6D"/>
<path d="M453.014 246.709C453.014 246.709 468.231 245.041 474.65 230.982L457.769 231.936L453.014 246.709Z" fill="#102048"/>
<path d="M469.816 231.14L455.234 240.196L461.794 249.854L475.856 240.251L469.816 231.14Z" fill="#E28B6D"/>
<path d="M484.875 253.858L475.856 240.251L461.794 249.854L464.189 253.381L462.763 272.205L484.875 253.858Z" fill="#102048"/>
<path d="M471.298 252.558L464.158 252.921L464.206 253.872L471.346 253.508L471.298 252.558Z" fill="white"/>
<path d="M428.288 256.876L412.28 255.922V268.914L429.501 267.819L428.288 256.876Z" fill="#E28B6D"/>
<path d="M412.28 268.914V271.968L400.232 284.04H431.299L429.501 267.819L412.28 268.914Z" fill="#102048"/>
<path d="M412.144 271.776L411.667 272.601L418.488 276.57L418.966 275.745L412.144 271.776Z" fill="white"/>
<path d="M427.479 173.935C427.233 179.845 427.184 186.079 427.289 192.36C427.385 197.812 427.584 203.303 427.869 208.668C429.238 235.327 432.405 258.938 432.405 258.938L407.679 262.122C395.953 180.15 403.562 145.513 403.562 145.513L414.337 143.311L423.905 141.356L434.632 139.164C434.499 139.364 434.365 139.573 434.243 139.794C432.606 142.472 431.314 146.037 430.316 150.269C428.747 156.856 427.872 165.033 427.481 173.937L427.479 173.935Z" fill="url(#paint4_linear_481_3819)"/>
<path d="M427.87 208.668C417.505 186.584 421.394 169.026 421.394 169.026L427.481 173.935C427.235 179.845 427.186 186.079 427.291 192.36C427.387 197.811 427.586 203.303 427.87 208.668Z" fill="#1F3C88"/>
<path d="M474.65 230.982C462.763 235.51 453.014 246.709 453.014 246.709C442.752 228.533 433.993 210.28 427.289 192.36C421.707 177.452 417.55 162.773 415.144 148.573C414.849 146.81 414.574 145.055 414.336 143.311C414.307 143.149 414.279 142.978 414.26 142.816L423.904 141.356L434.241 139.794L439.462 139.002C440.023 142.339 440.775 145.826 441.678 149.419C450.674 185.296 474.65 230.98 474.65 230.98V230.982Z" fill="#5D46D1"/>
<g opacity="0.8">
<path d="M453.731 185.281C453.58 184.904 453.428 184.529 453.279 184.15C451.331 182.901 449.467 181.528 447.863 179.877C443.38 175.268 441.112 168.442 441.947 162.061C442.205 160.095 442.758 158.166 443.559 156.339C443.457 155.993 443.36 155.646 443.26 155.299C442.24 157.406 441.539 159.663 441.238 161.966C440.377 168.561 442.72 175.615 447.351 180.375C449.236 182.311 451.446 183.868 453.731 185.28V185.281Z" fill="white"/>
<path d="M466.173 213.748C466.073 213.537 465.974 213.326 465.874 213.111C463.25 214.186 460.107 214.371 456.844 214.555C453.55 214.742 450.146 214.936 447.159 216.103C444.125 217.289 441.772 219.404 440.064 221.998C440.186 222.25 440.311 222.503 440.433 222.756C442.082 220.115 444.394 217.952 447.419 216.77C450.3 215.645 453.646 215.455 456.883 215.27C460.101 215.087 463.387 214.893 466.171 213.748H466.173Z" fill="white"/>
<path d="M409.204 211.032C417.114 215.057 423.522 221.803 429.185 228.132C429.153 227.742 429.121 227.349 429.089 226.955C423.537 220.785 417.257 214.327 409.526 210.395C407.058 209.139 404.519 208.217 401.984 207.627C401.999 207.876 402.014 208.125 402.029 208.376C404.438 208.955 406.853 209.837 409.203 211.032H409.204Z" fill="white"/>
<path d="M431.081 247.803C429.102 248.276 426.938 248.157 425.151 247.737C423.29 247.299 421.468 246.577 419.704 245.88C417.826 245.135 415.883 244.368 413.867 243.927C411.057 243.312 408.114 243.388 405.309 244.065C405.337 244.3 405.367 244.542 405.396 244.779C408.119 244.11 410.984 244.027 413.715 244.625C415.675 245.054 417.591 245.812 419.442 246.545C421.231 247.252 423.078 247.984 424.987 248.432C426.842 248.868 429.084 248.992 431.16 248.515C431.134 248.284 431.107 248.04 431.081 247.803Z" fill="white"/>
<path d="M407.062 180.699C407.322 185.69 405.063 190.601 401.346 193.847C401.355 194.149 401.367 194.46 401.378 194.765C405.516 191.387 408.055 186.066 407.773 180.661C407.523 175.856 405.053 171.354 401.369 168.355C401.357 168.651 401.346 168.953 401.335 169.254C404.636 172.12 406.829 176.274 407.06 180.697L407.062 180.699Z" fill="white"/>
</g>
<path opacity="0.4" d="M441.678 149.421C437.894 150.107 434.042 150.326 430.314 150.269C424.769 150.173 419.51 149.44 415.144 148.573C408.239 147.21 403.56 145.513 403.56 145.513L414.335 143.311C414.307 143.149 414.279 142.978 414.26 142.816L423.904 141.356L434.63 139.164C434.497 139.364 434.363 139.573 434.241 139.794L439.462 139.002C440.023 142.339 440.775 145.826 441.678 149.419V149.421Z" fill="#1F3C88"/>
<path d="M427.289 192.837C427.094 192.837 426.911 192.714 426.842 192.52L419.972 173.158L411.715 168.163C411.491 168.027 411.418 167.733 411.555 167.509C411.693 167.284 411.986 167.213 412.208 167.348L420.755 172.519L427.739 192.2C427.827 192.449 427.697 192.722 427.451 192.809C427.398 192.828 427.344 192.837 427.291 192.837H427.289Z" fill="#1F3C88"/>
<path d="M443.504 142.701C427.575 148.773 400.232 145.361 400.232 145.361C401.346 133.762 401.421 99.4471 419.254 95.1584L427.223 95.9973C431.399 97.6374 434.66 103.89 437.115 111.314C438.59 115.736 439.769 120.579 440.7 125.115C442.66 134.599 443.506 142.701 443.506 142.701H443.504Z" fill="#4741BB"/>
<path d="M440.698 125.115C433.195 120.739 431.615 110.884 431.615 110.884L437.113 111.314C438.588 115.736 439.767 120.579 440.698 125.115Z" fill="#102048"/>
<path d="M427.218 95.9915L426.147 111.361L442.515 120.121L445.829 104.197C431.438 95.6767 427.218 95.9915 427.218 95.9915Z" fill="#1F3C88"/>
<path d="M458.397 117.118C458.008 117.708 457.57 118.262 457.075 118.767C456.182 119.702 455.125 120.464 453.945 121.035C452.205 121.884 450.302 122.245 448.419 122.13C446.841 122.034 445.291 121.597 443.854 120.834L442.513 120.119L445.833 104.192C446.717 104.725 447.641 105.278 448.619 105.879C448.619 105.879 461.572 87.5312 462.522 87.8931C463.378 88.208 461.922 91.0488 461.629 91.6106C462.189 90.7811 466.393 84.6055 467.516 85.0334C468.409 85.3671 467.279 88.1118 467.136 88.4455C467.394 88.0741 469.647 84.7469 471.007 85.5481C471.635 85.9194 469.209 89.5219 468.972 89.8857C469.267 89.5992 471.959 86.9883 472.624 87.7706C473.309 88.5624 470.695 91.6784 470.399 92.031C470.666 91.7934 472.967 89.782 473.7 90.7529C474.661 92.0008 462.887 110.254 458.397 117.118Z" fill="#E28B6D"/>
<path opacity="0.4" d="M457.075 118.768C456.182 119.703 455.124 120.464 453.945 121.035C452.205 121.884 450.302 122.246 448.419 122.131C448.334 121.788 448.295 121.435 448.295 121.073C448.295 118.481 450.396 116.374 452.984 116.374C454.733 116.374 456.264 117.337 457.073 118.766L457.075 118.768Z" fill="#EB5D60"/>
<path d="M417.371 142.132C410.342 142.132 404.043 141.681 400.955 141.415C400.744 141.396 400.616 141.385 400.582 141.385C400.389 141.376 400.233 141.214 400.238 141.019C400.242 140.825 400.396 140.671 400.592 140.671C400.616 140.671 400.761 140.682 401.017 140.705C408.057 141.31 431.864 142.887 442.643 137.845C442.818 137.762 443.034 137.839 443.117 138.018C443.2 138.197 443.123 138.41 442.944 138.493C436.775 141.378 426.464 142.133 417.373 142.133L417.371 142.132Z" fill="#86A7FF"/>
<path d="M421.105 105.994C417.322 105.994 415.65 103.49 415.626 103.453C415.52 103.287 415.567 103.066 415.731 102.961C415.897 102.853 416.115 102.9 416.224 103.066C416.348 103.255 419.333 107.651 426.851 103.581C427.024 103.49 427.238 103.553 427.334 103.726C427.428 103.899 427.363 104.116 427.19 104.211C424.748 105.532 422.73 105.996 421.105 105.996V105.994Z" fill="#86A7FF"/>
<path d="M433.622 66.1126C435.62 64.9872 438.315 64.8854 440.085 66.3426C441.008 67.1023 441.601 68.1919 442.458 69.027C444.296 70.816 447.153 71.2646 448.914 73.1309C450.274 74.5711 450.759 76.673 450.623 78.6505C450.486 80.628 449.794 82.5225 449.057 84.3624C448.005 86.9902 446.792 89.6595 444.691 91.5522C443.888 92.276 442.948 92.8793 441.896 93.1206C440.845 93.3637 439.669 93.2073 438.815 92.5494C437.912 91.8538 437.467 90.6888 437.389 89.5483C437.31 88.4097 437.553 87.2748 437.794 86.1589C438.368 86.5133 439.142 86.5057 439.711 86.1419C440.279 85.7781 440.61 85.0749 440.529 84.4057C440.393 83.269 439.274 82.5545 438.272 82.0041C436.611 81.0917 434.95 80.1793 433.287 79.2669C432.315 78.7334 431.322 78.183 430.59 77.3479C429.367 75.9529 428.388 72.8839 429.196 71.1232C430.093 69.1684 431.745 67.1702 433.62 66.1126H433.622Z" fill="#FF98D0"/>
<path d="M413.903 75.3798C413.903 75.3798 413.801 64.0861 427.795 67.0627C430.163 67.566 432.234 68.846 433.756 70.733C436.034 73.5569 437.491 85.4293 430.981 88.7245C422.818 92.8547 413.903 75.3798 413.903 75.3798Z" fill="#FBC343"/>
<path d="M428.403 84.9109L428.079 96.2536C427.993 99.1321 425.721 101.468 422.848 101.62C422.752 101.63 422.658 101.63 422.563 101.63C419.348 101.63 416.79 98.8663 417.065 95.6164L417.083 95.4354L417.824 86.8186L418.767 86.6471L428.401 84.9128L428.403 84.9109Z" fill="#E28B6D"/>
<path d="M423.608 88.9621C423.608 88.9621 421.859 93.328 417.083 95.4336L417.824 86.8168L418.767 86.6453L423.608 88.9621Z" fill="#102048"/>
<path d="M413.903 75.3798C413.903 75.3798 410.337 90.2722 417.826 90.9885C425.316 91.703 428.406 84.9128 428.406 84.9128L429.358 76.4544L424.722 69.783L417.35 72.047L413.903 75.3836V75.3798Z" fill="#E28B6D"/>
<path d="M413.903 75.3798C413.903 75.3798 420.793 71.5059 423.294 76.6899C425.038 80.3037 427.694 82.2906 430.308 81.0992C432.922 79.9078 430.784 71.3287 430.784 71.3287L421.035 68.8271L415.21 72.1638L413.903 75.3798Z" fill="#FF98D0"/>
<path d="M430.645 82.7754C431.544 81.2147 431.229 79.3456 429.942 78.6007C428.654 77.8558 426.882 78.5171 425.983 80.0779C425.084 81.6386 425.399 83.5077 426.686 84.2526C427.973 84.9975 429.746 84.3362 430.645 82.7754Z" fill="#E28B6D"/>
<path d="M427.575 82.7261C427.575 82.7261 427.564 82.7261 427.558 82.7261C427.428 82.7167 427.331 82.6036 427.338 82.4716C427.398 81.6252 427.932 80.0266 429.516 80.0266C429.648 80.0266 429.753 80.1341 429.753 80.2641C429.753 80.3942 429.646 80.5017 429.516 80.5017C427.978 80.5017 427.818 82.4226 427.81 82.5055C427.801 82.6299 427.697 82.7261 427.573 82.7261H427.575Z" fill="#102048"/>
<path d="M415.039 80.7278C415.039 81.0633 414.768 81.3367 414.431 81.3367C414.094 81.3367 413.823 81.0652 413.823 80.7278C413.823 80.3903 414.094 80.1189 414.431 80.1189C414.768 80.1189 415.039 80.3903 415.039 80.7278Z" fill="#102048"/>
<path d="M419.075 81.3556C419.447 81.3556 419.748 81.0534 419.748 80.6807C419.748 80.308 419.447 80.0059 419.075 80.0059C418.703 80.0059 418.402 80.308 418.402 80.6807C418.402 81.0534 418.703 81.3556 419.075 81.3556Z" fill="#102048"/>
<path d="M416.308 84.4377C415.782 84.4377 415.424 84.2718 415.246 83.9438C414.775 83.0841 415.864 81.4724 416.088 81.1576C416.163 81.0501 416.312 81.0256 416.421 81.101C416.528 81.1764 416.553 81.3253 416.478 81.4328C415.898 82.2472 415.432 83.2915 415.663 83.7119C415.763 83.8947 416.024 83.9739 416.429 83.9551C416.432 83.9551 416.438 83.9551 416.442 83.9551C416.568 83.9551 416.671 84.0531 416.679 84.1813C416.684 84.3132 416.585 84.4245 416.455 84.432C416.404 84.4339 416.357 84.4358 416.31 84.4358L416.308 84.4377Z" fill="#102048"/>
<path opacity="0.4" d="M423.261 85.374C424.346 84.9238 424.861 83.6777 424.412 82.5908C423.962 81.5039 422.719 80.9878 421.635 81.438C420.55 81.8882 420.035 83.1343 420.484 84.2212C420.933 85.3081 422.177 85.8242 423.261 85.374Z" fill="#EB5D60"/>
<path d="M416.603 86.4981C415.962 86.4981 415.518 86.2737 415.482 86.2568C415.366 86.1964 415.321 86.0532 415.381 85.9363C415.441 85.8194 415.584 85.7723 415.701 85.8326C415.755 85.8609 417.038 86.4924 418.366 85.2671C418.464 85.1785 418.612 85.186 418.703 85.2822C418.791 85.3783 418.783 85.5291 418.688 85.6196C417.935 86.3133 417.187 86.4981 416.602 86.4981H416.603Z" fill="#102048"/>
<path d="M415.763 79.3838C415.315 79.2876 414.909 79.1595 414.533 79.1651C414.345 79.1519 414.17 79.1764 413.991 79.2254C413.803 79.2556 413.634 79.3574 413.412 79.4441L413.389 79.4535C413.314 79.4818 413.229 79.446 413.201 79.3706C413.186 79.3329 413.188 79.2933 413.203 79.2594C413.308 79.02 413.487 78.7937 413.739 78.6542C413.985 78.5185 414.279 78.4469 414.557 78.4582C415.112 78.5091 415.603 78.7391 415.926 79.1595C415.975 79.2235 415.964 79.314 415.9 79.363C415.866 79.3894 415.823 79.3989 415.782 79.3894L415.761 79.3857L415.763 79.3838Z" fill="#102048"/>
<path d="M417.525 79.1763C417.854 78.6051 418.456 78.2055 419.171 78.1301C419.525 78.1056 419.893 78.1848 420.192 78.3582C420.497 78.526 420.728 78.7748 420.896 79.0519C420.937 79.1198 420.915 79.2084 420.847 79.2498C420.805 79.2744 420.757 79.2762 420.715 79.2593L420.7 79.2517C420.424 79.1311 420.188 78.9916 419.938 78.9294C419.699 78.8408 419.459 78.8182 419.218 78.837C418.733 78.8464 418.236 79.0953 417.73 79.3648L417.713 79.3743C417.644 79.412 417.559 79.3856 417.521 79.3158C417.497 79.2706 417.501 79.2197 417.523 79.1782L417.525 79.1763Z" fill="#102048"/>
<path d="M530.998 283.565H3.17676V284.519H530.998V283.565Z" fill="#102048"/>
</g>
<defs>
<linearGradient id="paint0_linear_481_3819" x1="152.099" y1="211.387" x2="228.097" y2="211.387" gradientUnits="userSpaceOnUse">
<stop stop-color="#6D53FF"/>
<stop offset="1" stop-color="#8A49F7"/>
</linearGradient>
<linearGradient id="paint1_linear_481_3819" x1="278.226" y1="211.387" x2="354.226" y2="211.387" gradientUnits="userSpaceOnUse">
<stop stop-color="#6D53FF"/>
<stop offset="1" stop-color="#8A49F7"/>
</linearGradient>
<linearGradient id="paint2_linear_481_3819" x1="354.423" y1="240.243" x2="152.095" y2="240.243" gradientUnits="userSpaceOnUse">
<stop stop-color="#C757FF"/>
<stop offset="1" stop-color="#6D53FF"/>
</linearGradient>
<linearGradient id="paint3_linear_481_3819" x1="106.974" y1="146.706" x2="74.905" y2="146.706" gradientUnits="userSpaceOnUse">
<stop stop-color="#C757FF"/>
<stop offset="1" stop-color="#6D53FF"/>
</linearGradient>
<linearGradient id="paint4_linear_481_3819" x1="434.632" y1="200.643" x2="401.135" y2="200.643" gradientUnits="userSpaceOnUse">
<stop stop-color="#C757FF"/>
<stop offset="1" stop-color="#6D53FF"/>
</linearGradient>
<clipPath id="clip0_481_3819">
<rect width="531" height="285" fill="white"/>
</clipPath>
</defs>
</svg>
