<svg width="493" height="304" viewBox="0 0 493 304" fill="none" xmlns="http://www.w3.org/2000/svg">
<path opacity="0.2" d="M341.382 152.942H337.926V178.142H341.382V152.942ZM306.466 158.99C304.282 158.99 302.566 159.65 301.318 160.97C300.07 162.29 299.446 164.09 299.446 166.37V178.142H302.83V167.27C302.83 165.662 303.274 164.402 304.162 163.49C305.026 162.578 306.226 162.122 307.762 162.122C309.562 162.17 310.978 162.806 312.01 164.03C313.042 165.254 313.558 166.826 313.558 168.746V178.142H316.942V167.27C316.942 165.662 317.374 164.402 318.238 163.49C319.102 162.578 320.314 162.122 321.874 162.122C323.674 162.17 325.102 162.806 326.158 164.03C327.19 165.254 327.706 166.826 327.706 168.746V178.142H331.054V159.098H327.706V163.094C326.458 160.406 324.094 159.038 320.614 158.99C318.862 158.99 317.41 159.41 316.258 160.25C315.082 161.09 314.29 162.266 313.882 163.778C312.706 160.634 310.234 159.038 306.466 158.99ZM281.844 178.142V175.478C283.26 177.35 285.48 178.286 288.504 178.286C289.824 178.286 290.988 178.034 291.996 177.53C292.98 177.026 293.748 176.33 294.3 175.442C294.828 174.554 295.092 173.558 295.092 172.454C295.092 170.75 294.468 169.406 293.22 168.422C291.948 167.414 290.184 166.898 287.928 166.874H281.88V165.974C281.88 164.63 282.3 163.598 283.14 162.878C283.956 162.134 285.156 161.762 286.74 161.762C288.66 161.762 290.616 162.446 292.608 163.814L294.012 161.51C292.644 160.622 291.384 159.986 290.232 159.602C289.056 159.194 287.664 158.99 286.056 158.99C283.68 158.99 281.844 159.578 280.548 160.754C279.252 161.906 278.592 163.526 278.568 165.614L278.532 178.142H281.844ZM287.82 175.514C286.26 175.514 284.94 175.142 283.86 174.398C282.756 173.63 282.096 172.622 281.88 171.374V169.466H287.46C288.972 169.466 290.1 169.694 290.844 170.15C291.564 170.606 291.924 171.326 291.924 172.31C291.924 173.294 291.552 174.074 290.808 174.65C290.064 175.226 289.068 175.514 287.82 175.514ZM255.706 159.098V176.198C255.706 178.022 256.114 179.618 256.93 180.986C257.722 182.354 258.85 183.398 260.314 184.118C261.778 184.862 263.482 185.234 265.426 185.234C268.234 185.234 270.85 184.346 273.274 182.57L271.798 180.122C270.862 180.89 269.89 181.454 268.882 181.814C267.874 182.198 266.77 182.39 265.57 182.39C263.602 182.39 262.03 181.838 260.854 180.734C259.678 179.63 259.09 178.154 259.09 176.306V173.642C259.762 174.794 260.674 175.694 261.826 176.342C262.978 176.966 264.298 177.278 265.786 177.278C267.49 177.278 269.002 176.894 270.322 176.126C271.618 175.334 272.626 174.242 273.346 172.85C274.066 171.458 274.426 169.862 274.426 168.062C274.426 166.286 274.066 164.714 273.346 163.346C272.626 161.978 271.618 160.91 270.322 160.142C269.002 159.374 267.49 158.99 265.786 158.99C264.274 158.99 262.954 159.302 261.826 159.926C260.674 160.55 259.762 161.438 259.09 162.59V159.098H255.706ZM265.138 174.578C263.962 174.578 262.918 174.302 262.006 173.75C261.094 173.198 260.386 172.442 259.882 171.482C259.354 170.498 259.09 169.394 259.09 168.17C259.09 166.922 259.354 165.818 259.882 164.858C260.386 163.874 261.094 163.106 262.006 162.554C262.918 162.002 263.962 161.726 265.138 161.726C266.314 161.726 267.37 162.002 268.306 162.554C269.218 163.106 269.938 163.874 270.466 164.858C270.994 165.818 271.258 166.922 271.258 168.17C271.234 170.042 270.658 171.578 269.53 172.778C268.402 173.978 266.938 174.578 265.138 174.578ZM241.965 158.99C239.013 158.99 236.781 159.866 235.269 161.618C233.757 163.346 233.001 165.758 233.001 168.854C233.001 169.334 233.013 169.694 233.037 169.934H248.085C247.821 171.638 247.113 172.994 245.961 174.002C244.785 175.01 243.345 175.514 241.641 175.514C240.513 175.514 239.469 175.31 238.509 174.902C237.525 174.494 236.673 173.918 235.953 173.174L234.117 175.082C235.053 176.09 236.181 176.87 237.501 177.422C238.821 177.974 240.285 178.25 241.893 178.25C243.765 178.25 245.433 177.854 246.897 177.062C248.337 176.246 249.465 175.106 250.281 173.642C251.073 172.178 251.469 170.51 251.469 168.638C251.469 166.766 251.073 165.11 250.281 163.67C249.465 162.206 248.337 161.066 246.897 160.25C245.457 159.41 243.813 158.99 241.965 158.99ZM236.025 167.342C236.121 165.614 236.697 164.258 237.753 163.274C238.809 162.266 240.201 161.762 241.929 161.762C243.609 161.762 245.013 162.266 246.141 163.274C247.245 164.282 247.905 165.638 248.121 167.342H236.025ZM220.945 148.658H218.029L229.369 182.462H232.249L220.945 148.658ZM203.44 164.174C204.952 162.71 206.764 161.978 208.876 161.978C210.124 161.978 211.24 162.254 212.224 162.806C213.184 163.358 213.94 164.138 214.492 165.146C215.044 166.154 215.32 167.318 215.32 168.638C215.32 169.958 215.056 171.122 214.528 172.13C213.976 173.138 213.232 173.93 212.296 174.506C211.336 175.058 210.244 175.334 209.02 175.334C207.796 175.334 206.692 175.13 205.708 174.722C204.724 174.314 203.908 173.726 203.26 172.958L201.352 174.902C202.216 175.982 203.32 176.81 204.664 177.386C205.984 177.962 207.484 178.25 209.164 178.25C211.012 178.25 212.656 177.842 214.096 177.026C215.536 176.21 216.664 175.082 217.48 173.642C218.272 172.178 218.668 170.51 218.668 168.638C218.668 166.766 218.272 165.098 217.48 163.634C216.664 162.17 215.536 161.03 214.096 160.214C212.656 159.398 211.012 158.99 209.164 158.99C207.556 158.99 206.116 159.242 204.844 159.746C203.548 160.226 202.468 160.934 201.604 161.87L203.44 164.174ZM196.401 151.43H193.053V178.142H196.401V151.43ZM186.316 159.098H182.968V178.142H186.316V159.098ZM184.66 151.502C184.06 151.502 183.568 151.706 183.184 152.114C182.776 152.522 182.572 153.038 182.572 153.662C182.572 154.286 182.776 154.802 183.184 155.21C183.568 155.618 184.06 155.822 184.66 155.822C185.26 155.822 185.764 155.618 186.172 155.21C186.556 154.802 186.748 154.286 186.748 153.662C186.748 153.038 186.556 152.522 186.172 152.114C185.764 151.706 185.26 151.502 184.66 151.502ZM165.853 158.99C164.077 158.99 162.493 159.398 161.101 160.214C159.709 161.03 158.629 162.17 157.861 163.634C157.093 165.098 156.709 166.778 156.709 168.674C156.709 170.546 157.093 172.214 157.861 173.678C158.605 175.118 159.673 176.246 161.065 177.062C162.433 177.854 164.005 178.25 165.781 178.25C167.389 178.25 168.805 177.914 170.029 177.242C171.253 176.57 172.213 175.61 172.909 174.362V185.126H176.257V159.098H172.909V162.878C172.213 161.63 171.265 160.67 170.065 159.998C168.841 159.326 167.437 158.99 165.853 158.99ZM166.501 175.334C165.277 175.334 164.185 175.046 163.225 174.47C162.241 173.894 161.485 173.09 160.957 172.058C160.405 171.026 160.129 169.862 160.129 168.566C160.129 167.294 160.405 166.142 160.957 165.11C161.509 164.078 162.265 163.274 163.225 162.698C164.185 162.122 165.277 161.834 166.501 161.834C167.725 161.834 168.829 162.122 169.813 162.698C170.773 163.274 171.529 164.078 172.081 165.11C172.633 166.142 172.909 167.294 172.909 168.566C172.909 169.886 172.633 171.062 172.081 172.094C171.529 173.102 170.773 173.894 169.813 174.47C168.829 175.046 167.725 175.334 166.501 175.334ZM140.41 178.142V175.478C141.826 177.35 144.046 178.286 147.07 178.286C148.39 178.286 149.554 178.034 150.562 177.53C151.546 177.026 152.314 176.33 152.866 175.442C153.394 174.554 153.658 173.558 153.658 172.454C153.658 170.75 153.034 169.406 151.786 168.422C150.514 167.414 148.75 166.898 146.494 166.874H140.446V165.974C140.446 164.63 140.866 163.598 141.706 162.878C142.522 162.134 143.722 161.762 145.306 161.762C147.226 161.762 149.182 162.446 151.174 163.814L152.578 161.51C151.21 160.622 149.95 159.986 148.798 159.602C147.622 159.194 146.23 158.99 144.622 158.99C142.246 158.99 140.41 159.578 139.114 160.754C137.818 161.906 137.158 163.526 137.134 165.614L137.098 178.142H140.41ZM146.386 175.514C144.826 175.514 143.506 175.142 142.426 174.398C141.322 173.63 140.662 172.622 140.446 171.374V169.466H146.026C147.538 169.466 148.666 169.694 149.41 170.15C150.13 170.606 150.49 171.326 150.49 172.31C150.49 173.294 150.118 174.074 149.374 174.65C148.63 175.226 147.634 175.514 146.386 175.514ZM127.772 163.202C127.148 161.834 126.26 160.802 125.108 160.106C123.956 159.386 122.588 159.014 121.004 158.99V162.23C122.948 162.158 124.52 162.662 125.72 163.742C126.92 164.822 127.604 166.274 127.772 168.098V178.142H131.12V159.098H127.772V163.202ZM107.15 176.882C108.614 177.818 110.102 178.286 111.614 178.286C113.126 178.286 114.35 177.842 115.286 176.954C116.222 176.042 116.69 174.674 116.69 172.85V162.302H119.39V159.746H116.69V154.634H113.306V159.746H107.474V162.302H113.306V172.238C113.306 173.294 113.114 174.05 112.73 174.506C112.346 174.962 111.77 175.19 111.002 175.19C110.09 175.19 109.106 174.89 108.05 174.29L107.15 176.882Z" fill="#B7B7B7"/>
<path d="M63.5379 128.502L129.065 143.46L118.974 187.592L53.4462 172.633L63.5379 128.502Z" fill="#C0B7FC"/>
<path d="M63.2 128.964C63.2 128.964 63.3474 129.229 63.679 129.693C64.0475 130.201 64.5338 130.871 65.1381 131.71C66.4646 133.5 68.3217 135.996 70.5988 139.059C75.2931 145.273 81.7192 153.785 88.8453 163.21L88.9927 163.409L89.2212 163.298C89.3907 163.217 89.5823 163.129 89.7665 163.033C100.526 157.813 110.261 153.093 117.38 149.64C120.858 147.924 123.688 146.518 125.714 145.516C126.65 145.038 127.402 144.655 127.969 144.368C128.478 144.103 128.743 143.948 128.736 143.933C128.728 143.911 128.441 144.029 127.918 144.257C127.336 144.522 126.569 144.868 125.618 145.303C123.57 146.26 120.71 147.607 117.195 149.249C110.054 152.658 100.297 157.327 89.5086 162.481C89.3243 162.569 89.1328 162.658 88.9633 162.746L89.3391 162.834C82.1613 153.454 75.6837 144.979 70.9525 138.794C68.6091 135.782 66.7004 133.323 65.3371 131.563C64.696 130.753 64.1801 130.105 63.7895 129.619C63.4284 129.178 63.2368 128.957 63.2147 128.964H63.2Z" fill="#E0E0E0"/>
<path d="M118.64 188.053C118.787 187.98 115.242 180.801 110.725 172.031C106.2 163.254 102.42 156.208 102.265 156.289C102.118 156.362 105.662 163.541 110.18 172.311C114.697 181.08 118.485 188.134 118.64 188.053Z" fill="#E0E0E0"/>
<path d="M80.6066 150.759C80.5034 150.626 74.2542 155.523 66.6638 161.686C59.066 167.856 53.001 172.959 53.1042 173.091C53.2073 173.224 59.4492 168.327 67.047 162.164C74.6375 156.002 80.7098 150.892 80.6066 150.766V150.759Z" fill="#E0E0E0"/>
<path d="M355.445 8.50802L361.455 34.5151L322.838 43.4229L316.829 17.4158L355.445 8.50802Z" fill="#FBE1FF"/>
<path d="M316.765 17.7671C316.765 17.7671 316.912 17.8701 317.207 18.0321C317.531 18.2088 317.966 18.4371 318.497 18.7243C319.661 19.328 321.29 20.1748 323.287 21.213C327.377 23.3041 332.978 26.1683 339.183 29.3345L339.315 29.4007L339.404 29.2829C339.47 29.1946 339.551 29.0989 339.625 29.0031C343.987 23.4661 347.937 18.4592 350.826 14.7997C352.226 12.9958 353.369 11.5232 354.187 10.4702C354.562 9.9769 354.857 9.5793 355.086 9.28477C355.285 9.01234 355.388 8.86508 355.38 8.85771C355.373 8.85035 355.248 8.98289 355.027 9.24059C354.784 9.52775 354.467 9.91063 354.076 10.3892C353.236 11.4274 352.064 12.8706 350.627 14.6451C347.716 18.2898 343.744 23.2746 339.345 28.7822C339.271 28.878 339.19 28.9737 339.124 29.062L339.345 29.0105C333.125 25.8812 327.502 23.0464 323.397 20.9847C321.378 19.9907 319.735 19.1734 318.556 18.5917C318.003 18.3266 317.568 18.1205 317.229 17.9585C316.927 17.8186 316.765 17.745 316.758 17.7597L316.765 17.7671Z" fill="#E0E0E0"/>
<path d="M361.394 34.8571C361.453 34.7761 357.724 31.8824 353.066 28.3923C348.409 24.9022 344.584 22.1336 344.525 22.2146C344.466 22.2956 348.195 25.1893 352.853 28.6794C357.51 32.1695 361.335 34.938 361.394 34.8571Z" fill="#E0E0E0"/>
<path d="M331.614 24.8504C331.526 24.8063 329.47 29.0106 327.03 34.231C324.591 39.4588 322.682 43.722 322.771 43.7662C322.859 43.8104 324.915 39.6061 327.355 34.3856C329.794 29.1652 331.702 24.8946 331.607 24.8504H331.614Z" fill="#E0E0E0"/>
<path d="M110.643 15.0306L138.857 27.1421L130.686 46.1454L102.471 34.0339L110.643 15.0306Z" fill="#FBE1FF"/>
<path d="M110.467 15.1899C110.467 15.1899 110.511 15.3225 110.622 15.5581C110.747 15.8158 110.909 16.1545 111.108 16.5816C111.558 17.4946 112.184 18.7684 112.958 20.3294C114.557 23.5102 116.746 27.8618 119.163 32.6846L119.215 32.7877L119.325 32.7583C119.406 32.7362 119.502 32.7067 119.59 32.6846C124.852 31.2268 129.62 29.9014 133.106 28.9368C134.808 28.4509 136.201 28.0533 137.188 27.7735C137.645 27.6336 138.014 27.5231 138.294 27.4421C138.544 27.3611 138.677 27.317 138.677 27.3096C138.677 27.3022 138.537 27.3317 138.279 27.3906C137.999 27.4642 137.623 27.5526 137.159 27.6704C136.157 27.9355 134.764 28.3036 133.047 28.7528C129.561 29.6952 124.786 30.9911 119.517 32.4196C119.428 32.4417 119.332 32.4711 119.251 32.4932L119.413 32.5668C116.959 27.7587 114.749 23.4219 113.135 20.2484C112.332 18.7021 111.676 17.443 111.204 16.5374C110.983 16.1177 110.806 15.7864 110.666 15.536C110.541 15.3078 110.474 15.1899 110.46 15.1973L110.467 15.1899Z" fill="#E0E0E0"/>
<path d="M130.512 46.3062C130.586 46.2841 129.583 42.7645 128.279 38.4571C126.967 34.1424 125.847 30.667 125.773 30.6891C125.7 30.7112 126.702 34.2234 128.014 38.5381C129.325 42.8529 130.446 46.3283 130.519 46.3062H130.512Z" fill="#E0E0E0"/>
<path d="M116.496 26.4184C116.459 26.3521 113.253 28.0383 109.333 30.1809C105.412 32.331 102.265 34.1202 102.302 34.1865C102.339 34.2527 105.545 32.5666 109.465 30.4239C113.386 28.2813 116.532 26.4847 116.496 26.4184Z" fill="#E0E0E0"/>
<path d="M120.224 80.9863H382.116C388.046 80.9863 392.853 85.7894 392.853 91.7144V257.487C392.853 263.412 388.046 268.215 382.116 268.215H120.224C114.294 268.215 109.487 263.412 109.487 257.487V91.7144C109.487 85.7894 114.294 80.9863 120.224 80.9863Z" fill="#455A64"/>
<path d="M403.929 256.118H96.9293V259.394C96.9293 266.625 102.803 272.501 110.047 272.501H390.812C398.049 272.501 403.929 266.632 403.929 259.394V256.118Z" fill="#455A64"/>
<path d="M117.888 88.4229H385.248V246.531H117.888V88.4229Z" fill="#263238"/>
<path d="M279.107 254.365L275.297 260.418H221.685L218.148 254.365H279.107Z" fill="#263238"/>
<path d="M377.326 93.7759H125.257C123.923 93.7759 122.847 94.8583 122.847 96.1836V243.615C122.847 244.948 123.931 246.023 125.257 246.023H377.326C378.66 246.023 379.736 244.94 379.736 243.615V96.1836C379.736 94.8509 378.653 93.7759 377.326 93.7759Z" fill="#C0B7FC"/>
<path d="M358.667 99.6592C358.667 100.793 359.588 101.706 360.716 101.706C361.843 101.706 362.764 100.786 362.764 99.6592C362.764 98.5327 361.843 97.6123 360.716 97.6123C359.588 97.6123 358.667 98.5327 358.667 99.6592Z" fill="#263238"/>
<path d="M371.106 99.6592C371.106 100.793 372.028 101.706 373.155 101.706C374.283 101.706 375.204 100.786 375.204 99.6592C375.204 98.5327 374.283 97.6123 373.155 97.6123C372.028 97.6123 371.106 98.5327 371.106 99.6592Z" fill="#263238"/>
<path d="M365.137 99.6592C365.137 100.793 366.058 101.706 367.186 101.706C368.313 101.706 369.235 100.786 369.235 99.6592C369.235 98.5327 368.313 97.6123 367.186 97.6123C366.058 97.6123 365.137 98.5327 365.137 99.6592Z" fill="#263238"/>
<path d="M111.926 254.365C111.926 254.468 174.816 254.549 252.386 254.549C329.956 254.549 392.861 254.468 392.861 254.365C392.861 254.262 329.978 254.181 252.386 254.181C174.794 254.181 111.926 254.262 111.926 254.365Z" fill="#263238"/>
<path d="M297.479 160.272L192.96 159.3L189.901 230.287L298.128 229.514L297.479 160.272Z" fill="url(#paint0_linear_481_5195)"/>
<path d="M297.479 160.272L248.097 120.18C246.004 118.479 243.012 118.487 240.919 120.188L192.96 159.3" fill="#E8505B"/>
<g opacity="0.3">
<path d="M297.479 160.272L248.097 120.18C246.004 118.479 243.012 118.487 240.919 120.188L192.96 159.3" fill="#F00786"/>
</g>
<path d="M298.128 229.515C298.26 229.39 289.911 220.245 279.483 209.09C269.055 197.927 260.492 188.981 260.367 189.106C260.234 189.231 268.584 198.369 279.011 209.532C289.439 220.687 297.995 229.633 298.128 229.515Z" fill="#263238"/>
<path d="M189.901 230.287C190.034 230.405 198.199 221.481 208.14 210.348C218.082 199.215 226.033 190.099 225.9 189.982C225.768 189.864 217.603 198.788 207.661 209.921C197.72 221.047 189.769 230.169 189.901 230.287Z" fill="#263238"/>
<g opacity="0.5">
<path d="M192.96 159.3L245.356 201.299L297.479 160.272" fill="black"/>
</g>
<path d="M292.203 164.138L292.438 131.527L200.918 130.253L199.813 164.572L245.363 200.747L292.203 164.138Z" fill="#FBE1FF"/>
<path d="M292.202 164.138C292.202 164.138 291.9 164.358 291.333 164.785C290.765 165.227 289.925 165.868 288.835 166.707C286.646 168.401 283.448 170.882 279.365 174.056C271.192 180.417 259.482 189.54 245.26 200.614H245.451C232.334 190.181 216.77 177.803 199.923 164.41L199.997 164.565C200.211 158.019 200.432 151.149 200.653 144.161C200.8 139.456 200.955 134.81 201.102 130.253L200.911 130.437C237.787 130.923 270.315 131.35 292.431 131.637L292.313 131.512C292.269 141.768 292.232 149.912 292.202 155.501C292.202 158.291 292.195 160.441 292.188 161.906C292.188 162.628 292.188 163.18 292.188 163.563C292.188 163.939 292.202 164.13 292.202 164.13C292.202 164.13 292.217 163.946 292.225 163.578C292.225 163.202 292.239 162.65 292.254 161.936C292.269 160.478 292.298 158.328 292.328 155.545C292.379 149.941 292.46 141.783 292.556 131.512V131.386H292.438C270.33 131.062 237.802 130.584 200.926 130.046H200.741V130.23C200.594 134.788 200.447 139.434 200.292 144.139C200.071 151.127 199.85 157.997 199.636 164.542V164.638L199.71 164.697C216.563 178.068 232.142 190.431 245.274 200.85L245.37 200.931L245.466 200.857C259.667 189.724 271.369 180.542 279.527 174.144C283.588 170.948 286.764 168.445 288.93 166.737C289.999 165.89 290.824 165.235 291.384 164.793C291.937 164.351 292.21 164.123 292.21 164.123L292.202 164.138Z" fill="#263238"/>
<path d="M215.348 146.709C215.348 146.813 229.342 147.019 246.601 147.159C263.867 147.298 277.862 147.328 277.862 147.225C277.862 147.122 263.867 146.916 246.601 146.776C229.342 146.636 215.34 146.606 215.34 146.709H215.348Z" fill="#263238"/>
<path d="M215.333 155.921C215.333 156.024 229.327 156.23 246.586 156.37C263.853 156.51 277.847 156.539 277.847 156.436C277.847 156.333 263.853 156.127 246.586 155.987C229.327 155.847 215.326 155.818 215.326 155.921H215.333Z" fill="#263238"/>
<path d="M215.311 166.538C215.311 166.641 229.305 166.847 246.564 166.987C263.831 167.127 277.825 167.156 277.825 167.053C277.825 166.95 263.831 166.744 246.564 166.604C229.305 166.464 215.303 166.434 215.303 166.538H215.311Z" fill="#263238"/>
<path d="M215.289 177.156C215.289 177.259 228.642 177.457 245.105 177.59C261.576 177.723 274.929 177.745 274.929 177.642C274.929 177.538 261.583 177.34 245.105 177.207C228.635 177.075 215.281 177.052 215.281 177.156H215.289Z" fill="#263238"/>
<path d="M226.969 186.5C226.969 186.5 227.094 186.529 227.338 186.544C227.625 186.559 227.971 186.573 228.391 186.588C229.364 186.61 230.668 186.647 232.26 186.684C235.576 186.743 240.064 186.824 245.017 186.912C249.998 187.008 254.508 187.037 257.78 187.03C259.372 187.022 260.676 187.008 261.649 187.008C262.069 187 262.416 186.986 262.703 186.978C262.946 186.971 263.072 186.956 263.072 186.941C263.072 186.927 262.946 186.912 262.703 186.897C262.416 186.882 262.069 186.868 261.649 186.853C260.676 186.831 259.372 186.794 257.78 186.757C254.464 186.698 249.976 186.617 245.024 186.529C240.042 186.433 235.532 186.404 232.268 186.411C230.676 186.419 229.371 186.433 228.399 186.433C227.979 186.441 227.632 186.455 227.345 186.463C227.102 186.47 226.976 186.485 226.976 186.5H226.969Z" fill="#263238"/>
<path d="M238.738 195.482C238.738 195.585 241.723 195.681 245.4 195.689C249.085 195.696 252.062 195.615 252.062 195.512C252.062 195.409 249.077 195.313 245.4 195.306C241.723 195.298 238.738 195.379 238.738 195.482Z" fill="#263238"/>
<path d="M-9.15527e-05 271.875C-9.15527e-05 271.978 110.201 272.066 246.107 272.066C382.013 272.066 492.244 271.978 492.244 271.875C492.244 271.771 382.064 271.683 246.107 271.683C110.15 271.683 -9.15527e-05 271.771 -9.15527e-05 271.875Z" fill="#263238"/>
<path d="M226.401 129.966C226.298 129.981 226.254 130.393 226.298 130.902C226.35 131.41 226.475 131.807 226.578 131.8C226.681 131.792 226.726 131.373 226.681 130.865C226.63 130.357 226.505 129.959 226.401 129.966Z" fill="#263238"/>
<path d="M225.421 122.795C225.318 122.809 225.355 123.627 225.502 124.613C225.649 125.6 225.863 126.388 225.966 126.373C226.069 126.358 226.033 125.548 225.885 124.554C225.738 123.568 225.524 122.78 225.421 122.795Z" fill="#263238"/>
<path d="M223.977 115.704C223.874 115.726 223.962 116.536 224.183 117.515C224.397 118.487 224.662 119.26 224.765 119.238C224.868 119.216 224.78 118.406 224.559 117.427C224.345 116.448 224.08 115.674 223.977 115.704Z" fill="#263238"/>
<path d="M222.009 108.739C221.906 108.768 222.061 109.571 222.348 110.528C222.635 111.485 222.952 112.236 223.055 112.207C223.159 112.177 223.004 111.375 222.716 110.417C222.429 109.46 222.112 108.709 222.009 108.739Z" fill="#263238"/>
<path d="M219.481 101.957C219.385 102.001 219.606 102.782 219.975 103.709C220.343 104.637 220.727 105.359 220.822 105.322C220.918 105.285 220.704 104.497 220.329 103.569C219.96 102.634 219.577 101.92 219.481 101.957Z" fill="#263238"/>
<path d="M216.342 95.4407C216.246 95.4923 216.541 96.2507 216.998 97.1342C217.455 98.0178 217.897 98.7026 217.993 98.6584C218.088 98.6142 217.794 97.8558 217.337 96.9649C216.88 96.0739 216.438 95.3892 216.342 95.4407Z" fill="#263238"/>
<path d="M212.554 89.2704C212.466 89.3293 212.849 90.0509 213.401 90.8756C213.932 91.7224 214.44 92.3556 214.529 92.304C214.617 92.2525 214.256 91.5162 213.718 90.6694C213.158 89.8374 212.635 89.2115 212.547 89.2704H212.554Z" fill="#263238"/>
<path d="M208.088 83.5714C208.007 83.645 208.464 84.3224 209.098 85.0882C209.732 85.8539 210.321 86.4209 210.402 86.3546C210.483 86.2884 210.034 85.611 209.393 84.8378C208.752 84.0647 208.17 83.4977 208.088 83.5714Z" fill="#263238"/>
<path d="M202.989 78.4394C202.922 78.5204 203.445 79.1389 204.175 79.8236C204.897 80.5084 205.546 81.0017 205.619 80.9281C205.693 80.8545 205.162 80.236 204.433 79.5438C203.703 78.8517 203.055 78.3584 202.989 78.4394Z" fill="#263238"/>
<path d="M197.285 73.9774C197.226 74.0658 197.83 74.6107 198.634 75.1997C199.437 75.7887 200.144 76.2011 200.211 76.1127C200.277 76.0317 199.673 75.4795 198.862 74.8904C198.051 74.294 197.344 73.8891 197.285 73.9774Z" fill="#263238"/>
<path d="M191.036 70.3108C190.991 70.4066 191.662 70.8704 192.539 71.3417C193.416 71.8129 194.168 72.1295 194.226 72.0338C194.278 71.9454 193.607 71.4816 192.723 71.003C191.839 70.5244 191.087 70.2151 191.036 70.3108Z" fill="#263238"/>
<path d="M184.33 67.5865C184.3 67.6895 185.03 68.043 185.966 68.3817C186.901 68.7204 187.69 68.9192 187.734 68.8161C187.778 68.7204 187.041 68.3596 186.098 68.0209C185.155 67.6748 184.359 67.4834 184.33 67.5865Z" fill="#263238"/>
<path d="M177.284 65.9516C177.269 66.0547 178.051 66.2682 179.031 66.4376C180.003 66.6437 180.814 66.7247 180.836 66.6216C180.858 66.5186 180.085 66.2682 179.097 66.062C178.11 65.8927 177.292 65.8485 177.277 65.9516H177.284Z" fill="#263238"/>
<path d="M170.055 65.5466C170.055 65.6497 170.866 65.7454 171.861 65.7601C172.856 65.7748 173.666 65.6938 173.674 65.5908C173.674 65.4877 172.87 65.3919 171.868 65.3772C170.866 65.3625 170.048 65.4435 170.055 65.5466Z" fill="#263238"/>
<path d="M162.862 66.3933C162.884 66.4964 163.702 66.4522 164.683 66.2976C165.663 66.1356 166.451 65.9221 166.444 65.819C166.429 65.7159 165.618 65.7601 164.624 65.9147C163.629 66.0767 162.848 66.2902 162.87 66.3933H162.862Z" fill="#263238"/>
<path d="M155.928 68.4626C155.965 68.5583 156.761 68.3743 157.704 68.0503C158.647 67.7263 159.384 67.3802 159.355 67.2772C159.325 67.1741 158.529 67.3581 157.579 67.6895C156.628 68.0208 155.891 68.3669 155.928 68.4626Z" fill="#263238"/>
<path d="M149.48 71.7461C149.539 71.8345 150.283 71.5105 151.145 71.0172C152.008 70.5239 152.671 70.0453 152.627 69.9569C152.582 69.8685 151.831 70.1925 150.961 70.6858C150.084 71.1865 149.428 71.6578 149.48 71.7461Z" fill="#263238"/>
<path d="M143.805 76.2308C143.879 76.3044 144.55 75.8332 145.294 75.1779C146.038 74.5226 146.591 73.9261 146.532 73.8378C146.466 73.7568 145.802 74.2207 145.043 74.8907C144.284 75.5534 143.732 76.1498 143.805 76.2308Z" fill="#263238"/>
<path d="M140.224 80.3536C140.312 80.4125 140.629 80.14 140.939 79.7424C141.248 79.3448 141.432 78.9619 141.351 78.8957C141.27 78.8294 140.946 79.1018 140.636 79.5068C140.32 79.9118 140.135 80.2873 140.224 80.3536Z" fill="#263238"/>
<path d="M106.148 124.717C106.192 124.813 106.973 124.547 107.902 124.113C108.83 123.686 109.538 123.259 109.494 123.163C109.449 123.067 108.661 123.34 107.74 123.767C106.819 124.194 106.111 124.621 106.148 124.717Z" fill="#263238"/>
<path d="M99.1913 127.132C99.2134 127.235 100.031 127.073 101.011 126.778C101.992 126.476 102.751 126.16 102.714 126.057C102.677 125.953 101.866 126.115 100.894 126.41C99.9282 126.704 99.1618 127.028 99.1913 127.132Z" fill="#263238"/>
<path d="M91.9176 128.288C91.9176 128.391 92.7503 128.391 93.7673 128.281C94.7843 128.17 95.5949 127.993 95.5801 127.89C95.5654 127.787 94.7326 127.787 93.7304 127.898C92.7282 128.008 91.9176 128.185 91.9176 128.288Z" fill="#263238"/>
<path d="M84.5632 128.059C84.5484 128.162 85.3665 128.31 86.3834 128.391C87.4004 128.464 88.2332 128.442 88.2332 128.339C88.2332 128.236 87.4225 128.089 86.4129 128.008C85.4033 127.934 84.5779 127.956 84.5632 128.059Z" fill="#263238"/>
<path d="M77.3262 126.705C77.2967 126.808 78.0779 127.087 79.0727 127.33C80.075 127.544 80.9003 127.61 80.9224 127.507C80.9445 127.397 80.1487 127.168 79.1612 126.955C78.181 126.712 77.363 126.601 77.3335 126.705H77.3262Z" fill="#263238"/>
<path d="M70.4874 123.995C70.4359 124.091 71.1507 124.51 72.0792 124.937C73.0077 125.365 73.7963 125.63 73.8331 125.534C73.87 125.438 73.1551 125.011 72.2413 124.591C71.3202 124.172 70.539 123.907 70.4874 123.995Z" fill="#263238"/>
<path d="M64.3783 119.893C64.312 119.974 64.8868 120.578 65.7048 121.197C66.5228 121.815 67.2671 122.198 67.3187 122.11C67.3777 122.021 66.7439 121.499 65.9333 120.887C65.1226 120.276 64.452 119.812 64.3783 119.893Z" fill="#263238"/>
<path d="M59.3672 114.519C59.2788 114.578 59.6915 115.307 60.3474 116.095C61.0032 116.883 61.637 117.427 61.7107 117.354C61.7918 117.28 61.2833 116.625 60.6422 115.852C60.001 115.071 59.4557 114.453 59.3672 114.519Z" fill="#263238"/>
<path d="M55.9184 108.039C55.8226 108.076 56.0142 108.886 56.4343 109.821C56.8543 110.756 57.326 111.449 57.4218 111.397C57.5176 111.345 57.1933 110.587 56.788 109.667C56.3753 108.746 56.029 108.003 55.9258 108.039H55.9184Z" fill="#263238"/>
<path d="M54.5549 100.838C54.4517 100.838 54.3633 101.67 54.4738 102.693C54.577 103.717 54.8349 104.519 54.9307 104.497C55.0339 104.475 54.9528 103.658 54.857 102.657C54.7538 101.655 54.6654 100.838 54.5623 100.838H54.5549Z" fill="#263238"/>
<path d="M55.616 93.578C55.5202 93.5485 55.1812 94.3143 54.9527 95.3157C54.7243 96.317 54.6948 97.1564 54.798 97.1638C54.9012 97.1785 55.1001 96.3759 55.3286 95.3967C55.5497 94.4174 55.7192 93.6074 55.616 93.578Z" fill="#263238"/>
<path d="M58.822 86.9731C58.7409 86.9142 58.1809 87.54 57.665 88.431C57.1491 89.3145 56.8691 90.1097 56.9649 90.1539C57.0607 90.1981 57.4881 89.4986 57.9966 88.6224C58.5051 87.7536 58.9031 87.032 58.822 86.9731Z" fill="#263238"/>
<path d="M63.9361 81.7233C63.8771 81.6349 63.1402 82.0473 62.3664 82.7173C61.5852 83.3874 61.0768 84.0574 61.1578 84.131C61.2389 84.2047 61.8579 83.6671 62.617 83.0118C63.376 82.3492 63.995 81.819 63.9361 81.7233Z" fill="#263238"/>
<path d="M70.6201 78.734C70.598 78.6309 69.7579 78.7119 68.7778 79.0359C67.7977 79.3598 67.0755 79.7943 67.1197 79.8826C67.1639 79.9783 67.9377 79.7133 68.8957 79.3967C69.8537 79.08 70.6348 78.8371 70.6127 78.734H70.6201Z" fill="#263238"/>
<path d="M77.923 78.8517C77.9525 78.7486 77.164 78.4467 76.1396 78.3216C75.1153 78.189 74.2752 78.27 74.2752 78.3731C74.2752 78.4835 75.0932 78.5645 76.088 78.6971C77.0829 78.8222 77.8936 78.9548 77.923 78.8517Z" fill="#263238"/>
<path d="M84.2758 82.4084C84.3495 82.3421 83.8484 81.6574 83.0156 81.0315C82.1903 80.4057 81.4017 80.0964 81.3501 80.1848C81.2986 80.2805 81.9839 80.7296 82.7798 81.3334C83.5831 81.9372 84.1874 82.4747 84.2684 82.4011L84.2758 82.4084Z" fill="#263238"/>
<path d="M87.1939 89.0124C87.2971 89.0124 87.3339 88.1583 87.0907 87.1495C86.8476 86.1408 86.4128 85.4045 86.317 85.4487C86.2138 85.4928 86.4865 86.266 86.7149 87.2379C86.9508 88.2098 87.0834 89.0124 87.1939 89.005V89.0124Z" fill="#263238"/>
<path d="M85.7568 96.155C85.8452 96.2066 86.3169 95.4997 86.6559 94.5204C86.9949 93.5411 87.0612 92.7017 86.9654 92.6797C86.8549 92.6576 86.6264 93.4454 86.2948 94.3952C85.9706 95.3451 85.661 96.1035 85.7642 96.155H85.7568Z" fill="#263238"/>
<path d="M80.9373 101.634C80.9962 101.722 81.7405 101.324 82.507 100.64C83.2807 99.9548 83.7671 99.2627 83.686 99.1964C83.605 99.1228 83.0081 99.6897 82.249 100.352C81.4974 101.015 80.8709 101.545 80.9299 101.634H80.9373Z" fill="#263238"/>
<path d="M74.246 104.623C74.2681 104.726 75.1009 104.615 76.0737 104.284C77.0464 103.953 77.7686 103.526 77.7244 103.43C77.6802 103.334 76.899 103.592 75.9484 103.916C74.9977 104.24 74.2166 104.512 74.246 104.615V104.623Z" fill="#263238"/>
<path d="M66.9358 105.322C66.9358 105.425 67.7538 105.565 68.7781 105.535C69.8025 105.513 70.6278 105.344 70.6131 105.241C70.6057 105.13 69.7803 105.13 68.7707 105.152C67.7611 105.174 66.9358 105.211 66.9358 105.322Z" fill="#263238"/>
<path d="M59.7136 103.982C59.6767 104.078 60.4431 104.424 61.438 104.682C62.4328 104.939 63.2656 104.998 63.2803 104.895C63.3024 104.792 62.5066 104.564 61.5264 104.313C60.5463 104.063 59.743 103.886 59.7136 103.989V103.982Z" fill="#263238"/>
<path d="M53.0293 100.926C52.9704 101.015 53.6631 101.478 54.5695 101.957C55.476 102.436 56.2424 102.745 56.2866 102.649C56.3308 102.553 55.6381 102.09 54.7464 101.618C53.8547 101.147 53.0809 100.838 53.0293 100.926Z" fill="#263238"/>
<path d="M47.1266 96.5381C47.0529 96.6191 47.6351 97.2082 48.431 97.8561C49.2195 98.5041 49.9122 98.9606 49.9786 98.8722C50.0375 98.7839 49.4554 98.1948 48.6742 97.5542C47.8931 96.9136 47.2003 96.4571 47.1266 96.5381Z" fill="#263238"/>
<path d="M42.1007 91.1551C42.0196 91.2214 42.4839 91.8988 43.1545 92.6793C43.8177 93.4598 44.422 94.0267 44.4957 93.9531C44.5694 93.8794 44.1052 93.1947 43.4419 92.4289C42.786 91.6632 42.1818 91.0888 42.1007 91.1551Z" fill="#263238"/>
<path d="M38.0549 85.0145C37.9591 85.0661 38.3128 85.8171 38.8361 86.6933C39.3667 87.5695 39.8604 88.2322 39.9488 88.1733C40.0373 88.1144 39.6835 87.3634 39.1677 86.4945C38.6445 85.6257 38.1507 84.963 38.0549 85.0145Z" fill="#263238"/>
<path d="M35.0631 78.285C34.96 78.3218 35.181 79.117 35.5569 80.0669C35.9253 81.0241 36.3233 81.753 36.4264 81.7015C36.5149 81.6647 36.2791 80.8695 35.918 79.927C35.5495 78.9845 35.1663 78.2482 35.0705 78.285H35.0631Z" fill="#263238"/>
<path d="M33.007 71.224C32.9038 71.246 33.0291 72.0633 33.287 73.0574C33.545 74.044 33.8324 74.8245 33.9355 74.7877C34.0387 74.7582 33.9134 73.9409 33.6555 72.9543C33.3976 71.975 33.1102 71.1945 33.007 71.224Z" fill="#263238"/>
<path d="M31.7175 63.9709C31.6143 63.9856 31.6511 64.8103 31.8059 65.819C31.9606 66.8278 32.167 67.6304 32.2775 67.6083C32.3807 67.5862 32.3438 66.7615 32.1891 65.7601C32.0343 64.7588 31.828 63.9562 31.7175 63.9709Z" fill="#263238"/>
<path d="M31.0395 56.6446C30.9363 56.6446 30.9069 57.4766 30.988 58.4927C31.0617 59.5088 31.209 60.3261 31.3195 60.3114C31.4227 60.304 31.4522 59.472 31.3711 58.4633C31.2974 57.4545 31.15 56.6372 31.0395 56.6446Z" fill="#263238"/>
<path d="M30.8038 49.2891C30.7006 49.2891 30.6269 50.1138 30.649 51.1299C30.6711 52.146 30.7669 52.9707 30.8774 52.9633C30.9806 52.9633 31.0543 52.1313 31.0322 51.1225C31.0101 50.1064 30.9143 49.2817 30.8038 49.2891Z" fill="#263238"/>
<path d="M30.8553 41.9258C30.7521 41.9258 30.6489 42.7431 30.6342 43.7666C30.6194 44.7827 30.6932 45.6073 30.7963 45.6073C30.8995 45.6073 31.0027 44.7827 31.0174 43.7666C31.0321 42.7504 30.9584 41.9258 30.8553 41.9258Z" fill="#263238"/>
<path d="M30.9657 37.3975C30.8625 37.3975 30.7668 37.5815 30.7594 37.8172C30.7594 38.0528 30.8331 38.2442 30.9363 38.2442C31.0394 38.2442 31.1352 38.0601 31.1426 37.8245C31.1426 37.5889 31.0689 37.3975 30.9657 37.3975Z" fill="#263238"/>
<path d="M14.8191 15.5348L64.9087 20.9717L61.2405 54.7097L11.1508 49.2728L14.8191 15.5348Z" fill="url(#paint1_linear_481_5195)"/>
<path d="M61.2609 54.7446V54.7299L64.9309 20.9775H64.9162L14.8045 15.5361V15.5509L11.1346 49.3033H11.1493L61.2609 54.7446ZM64.894 21.0069L61.2315 54.7078L11.1788 49.2738L14.8413 15.5729L64.894 21.0069Z" fill="#263238"/>
<path d="M14.6135 15.9414C14.6135 15.9414 14.7461 16.1255 15.0335 16.4421C15.3504 16.7882 15.7705 17.2447 16.2937 17.8116C17.436 19.0265 19.0351 20.7201 21.0027 22.8038C25.0411 27.0229 30.5682 32.8029 36.6921 39.2014L36.8247 39.334L36.9795 39.2309C37.0974 39.1572 37.23 39.0689 37.3627 38.9879C44.9163 34.1651 51.755 29.7987 56.7515 26.6105C59.1907 25.0275 61.1731 23.7389 62.5954 22.8185C63.2512 22.3841 63.7745 22.0307 64.1724 21.7656C64.5335 21.5226 64.7178 21.3827 64.703 21.3754C64.6957 21.3606 64.4967 21.4711 64.1208 21.692C63.7155 21.935 63.1702 22.2663 62.4996 22.6713C61.0552 23.5622 59.0433 24.8139 56.5746 26.3455C51.5561 29.5042 44.6952 33.8337 37.1122 38.6124C36.9795 38.6934 36.8468 38.7817 36.7289 38.8554L37.0163 38.8922C30.8556 32.5305 25.2917 26.7872 21.2311 22.5903C19.2267 20.5507 17.5907 18.8866 16.419 17.6938C15.8663 17.149 15.4315 16.7145 15.0925 16.3832C14.783 16.0887 14.6208 15.934 14.6061 15.9488L14.6135 15.9414Z" fill="#263238"/>
<path d="M61.0401 55.1128C61.1433 55.0392 57.8786 50.0102 53.7518 43.8694C49.6176 37.7285 46.1835 32.81 46.0803 32.8836C45.9771 32.9573 49.2418 37.9863 53.3686 44.1271C57.5028 50.2605 60.9369 55.1864 61.0401 55.1128Z" fill="#263238"/>
<path d="M29.4769 30.6601C29.3884 30.5717 25.1658 34.7613 20.0515 40.0112C14.9371 45.2611 10.8619 49.5906 10.9503 49.6789C11.0388 49.7673 15.2614 45.5777 20.3757 40.3278C25.4901 35.0779 29.5653 30.7484 29.4769 30.6601Z" fill="#263238"/>
<path d="M243.565 117.831C243.461 117.817 243.307 118.207 243.218 118.708C243.13 119.208 243.152 119.628 243.255 119.65C243.358 119.672 243.513 119.275 243.601 118.774C243.69 118.273 243.668 117.854 243.565 117.831Z" fill="#263238"/>
<path d="M244.744 110.653C244.64 110.638 244.427 111.426 244.265 112.42C244.102 113.414 244.058 114.231 244.161 114.246C244.265 114.26 244.478 113.473 244.64 112.479C244.803 111.485 244.847 110.667 244.744 110.653Z" fill="#263238"/>
<path d="M245.798 103.451C245.694 103.436 245.495 104.231 245.355 105.225C245.215 106.219 245.186 107.037 245.296 107.051C245.407 107.066 245.599 106.271 245.739 105.277C245.879 104.283 245.908 103.458 245.798 103.451Z" fill="#263238"/>
<path d="M246.623 96.2134C246.52 96.2061 246.35 97.0086 246.24 98.0027C246.137 99.004 246.137 99.8213 246.24 99.8361C246.343 99.8508 246.513 99.0482 246.623 98.0468C246.726 97.0455 246.726 96.2282 246.623 96.2134Z" fill="#263238"/>
<path d="M247.131 88.9531C247.028 88.9531 246.895 89.7557 246.836 90.7571C246.778 91.7585 246.822 92.5758 246.925 92.5831C247.028 92.5905 247.161 91.7806 247.22 90.7792C247.279 89.7778 247.234 88.9531 247.131 88.9531Z" fill="#263238"/>
<path d="M247.205 81.6714C247.102 81.6714 247.021 82.4887 247.021 83.4975C247.021 84.4989 247.117 85.3162 247.22 85.3162C247.323 85.3162 247.404 84.4989 247.404 83.4901C247.404 82.4814 247.308 81.6641 247.205 81.6714Z" fill="#263238"/>
<path d="M246.748 74.4113C246.645 74.4261 246.623 75.2434 246.712 76.2374C246.793 77.2388 246.947 78.0413 247.051 78.034C247.154 78.034 247.176 77.2093 247.087 76.2079C247.006 75.2065 246.852 74.3966 246.748 74.4113Z" fill="#263238"/>
<path d="M245.657 67.2177C245.554 67.2398 245.613 68.0571 245.783 69.0438C245.96 70.0304 246.181 70.8183 246.291 70.8036C246.394 70.7888 246.335 69.9715 246.166 68.9775C245.989 67.9835 245.761 67.1956 245.657 67.2177Z" fill="#263238"/>
<path d="M243.793 60.1785C243.69 60.2153 243.845 61.0179 244.125 61.9751C244.412 62.9323 244.729 63.6907 244.825 63.6613C244.928 63.6318 244.781 62.8292 244.486 61.8647C244.198 60.9001 243.882 60.1417 243.786 60.1785H243.793Z" fill="#263238"/>
<path d="M241.074 53.4341C240.978 53.4783 241.229 54.2587 241.634 55.1791C242.039 56.0922 242.445 56.8064 242.54 56.7696C242.636 56.7327 242.386 55.9523 241.98 55.0245C241.575 54.1041 241.17 53.3899 241.074 53.4341Z" fill="#263238"/>
<path d="M237.522 47.0794C237.433 47.1383 237.78 47.8819 238.295 48.7361C238.811 49.5902 239.305 50.2455 239.401 50.194C239.497 50.1424 239.15 49.3987 238.627 48.5373C238.104 47.6758 237.61 47.0205 237.522 47.0794Z" fill="#263238"/>
<path d="M233.152 41.2626C233.071 41.3289 233.52 42.021 234.147 42.8015C234.773 43.582 235.355 44.1637 235.436 44.0974C235.525 44.0312 235.075 43.3464 234.441 42.5585C233.808 41.7707 233.225 41.189 233.152 41.2626Z" fill="#263238"/>
<path d="M227.971 36.1455C227.905 36.2265 228.45 36.8377 229.187 37.5151C229.924 38.1925 230.587 38.6784 230.661 38.6048C230.735 38.5312 230.189 37.92 229.445 37.2353C228.701 36.5505 228.038 36.0645 227.971 36.1455Z" fill="#263238"/>
<path d="M222.017 31.9634C221.965 32.0591 222.606 32.5672 223.446 33.1047C224.287 33.6422 225.023 34.0103 225.082 33.922C225.141 33.8336 224.5 33.3256 223.653 32.7807C222.798 32.2358 222.068 31.8677 222.017 31.9634Z" fill="#263238"/>
<path d="M215.384 28.9813C215.355 29.0844 216.077 29.4599 217.013 29.8207C217.941 30.1815 218.737 30.4024 218.782 30.3067C218.826 30.211 218.096 29.8354 217.153 29.4673C216.21 29.0991 215.421 28.8856 215.384 28.9813Z" fill="#263238"/>
<path d="M210.063 27.6705C210.049 27.7736 210.432 27.9356 210.933 28.0313C211.427 28.127 211.847 28.1197 211.869 28.0166C211.891 27.9135 211.5 27.7515 210.999 27.6558C210.498 27.5601 210.078 27.5674 210.063 27.6705Z" fill="#263238"/>
<path d="M249.262 0.022629L262.58 34.436L211.483 54.1769L198.165 19.7635L249.262 0.022629Z" fill="url(#paint2_linear_481_5195)"/>
<path d="M211.471 54.2071H211.486L262.6 34.4519V34.4372L249.268 0H249.254L198.14 19.7552V19.7699L211.471 54.1997V54.2071ZM262.555 34.4298L211.493 54.1555L198.191 19.7773L249.254 0.0441785L262.555 34.4225V34.4298Z" fill="#263238"/>
<path d="M198.162 20.2412C198.162 20.2412 198.383 20.3517 198.818 20.5136C199.297 20.6904 199.931 20.9186 200.719 21.2058C202.429 21.8095 204.824 22.6489 207.757 23.6798C213.763 25.7414 221.995 28.5615 231.103 31.6835L231.295 31.7497L231.398 31.573C231.479 31.4405 231.56 31.2932 231.648 31.1459C236.534 22.7226 240.956 15.0944 244.191 9.52055C245.753 6.77411 247.028 4.53573 247.942 2.93794C248.355 2.1869 248.686 1.59049 248.937 1.13398C249.158 0.721649 249.269 0.500757 249.254 0.48603C249.239 0.478667 249.099 0.684834 248.849 1.08244C248.576 1.52423 248.215 2.10591 247.773 2.83486C246.829 4.41792 245.503 6.62685 243.882 9.33647C240.617 14.8956 236.151 22.4943 231.214 30.8882C231.125 31.0355 231.044 31.1828 230.963 31.3153L231.258 31.2049C222.127 28.1344 213.888 25.3659 207.86 23.3411C204.905 22.3691 202.495 21.5813 200.771 21.0143C199.968 20.764 199.326 20.5578 198.833 20.4032C198.391 20.2707 198.155 20.2044 198.147 20.2265L198.162 20.2412Z" fill="#263238"/>
<path d="M262.577 34.916C262.644 34.7982 256.977 31.5658 249.917 27.6929C242.857 23.8272 237.087 20.7863 237.02 20.9114C236.954 21.0293 242.621 24.2617 249.681 28.1346C256.741 32.0003 262.511 35.0412 262.577 34.916Z" fill="#263238"/>
<path d="M219.865 27.0446C219.732 27.0078 217.75 33.156 215.436 40.7768C213.122 48.4049 211.346 54.6194 211.479 54.6562C211.611 54.693 213.594 48.5448 215.907 40.924C218.221 33.3032 219.998 27.0888 219.865 27.0446Z" fill="#263238"/>
<path d="M265.024 125.894C264.921 125.894 264.869 126.321 264.906 126.829C264.95 127.337 265.068 127.742 265.171 127.735C265.275 127.728 265.326 127.308 265.289 126.8C265.245 126.292 265.127 125.887 265.024 125.894Z" fill="#263238"/>
<path d="M264.84 118.406C264.737 118.406 264.648 119.245 264.656 120.276C264.656 121.314 264.744 122.154 264.855 122.146C264.958 122.146 265.046 121.307 265.039 120.276C265.039 119.245 264.95 118.406 264.84 118.406Z" fill="#263238"/>
<path d="M265.349 110.932C265.245 110.918 265.083 111.75 264.988 112.78C264.892 113.811 264.899 114.658 265.01 114.665C265.113 114.665 265.275 113.848 265.371 112.817C265.467 111.794 265.459 110.947 265.349 110.932Z" fill="#263238"/>
<path d="M266.594 103.547C266.491 103.525 266.248 104.327 266.049 105.351C265.85 106.367 265.769 107.206 265.879 107.228C265.982 107.243 266.233 106.441 266.424 105.424C266.623 104.416 266.697 103.576 266.594 103.547Z" fill="#263238"/>
<path d="M268.635 96.3382C268.532 96.3014 268.2 97.0745 267.891 98.0685C267.581 99.0625 267.412 99.8872 267.515 99.9166C267.618 99.9461 267.95 99.173 268.259 98.1863C268.569 97.1997 268.738 96.375 268.635 96.3382Z" fill="#263238"/>
<path d="M271.502 89.4243C271.406 89.3801 270.986 90.109 270.559 91.0515C270.131 92.0014 269.866 92.7966 269.962 92.8407C270.058 92.8776 270.485 92.1486 270.905 91.2135C271.325 90.271 271.598 89.4758 271.502 89.4243Z" fill="#263238"/>
<path d="M275.224 82.9231C275.135 82.8642 274.605 83.5268 274.052 84.4031C273.521 85.294 273.168 86.0598 273.256 86.1187C273.352 86.1702 273.853 85.4928 274.376 84.6092C274.929 83.7404 275.312 82.9893 275.224 82.9304V82.9231Z" fill="#263238"/>
<path d="M279.815 77.0028C279.734 76.9292 279.129 77.5182 278.466 78.3208C277.803 79.116 277.331 79.8155 277.412 79.8818C277.493 79.948 278.098 79.359 278.761 78.5638C279.424 77.7759 279.896 77.0764 279.815 77.0028Z" fill="#263238"/>
<path d="M285.194 71.7972C285.128 71.7162 284.443 72.2169 283.676 72.909C282.902 73.6085 282.335 74.227 282.416 74.308C282.49 74.3816 283.168 73.8883 283.934 73.1962C284.7 72.504 285.268 71.8782 285.194 71.7972Z" fill="#263238"/>
<path d="M291.274 67.4163C291.222 67.3279 290.47 67.7182 289.608 68.2925C288.746 68.8668 288.09 69.4043 288.156 69.4927C288.215 69.581 288.967 69.1834 289.822 68.6165C290.677 68.0422 291.333 67.512 291.274 67.4163Z" fill="#263238"/>
<path d="M297.951 64.0216C297.914 63.9259 297.111 64.1983 296.167 64.6327C295.224 65.0671 294.495 65.4942 294.546 65.5899C294.598 65.6856 295.394 65.4132 296.329 64.9788C297.265 64.5444 297.995 64.1173 297.951 64.0216Z" fill="#263238"/>
<path d="M305.099 61.7615C305.077 61.6584 304.244 61.7909 303.242 62.0634C302.24 62.3358 301.451 62.6377 301.481 62.7334C301.51 62.8365 302.343 62.6966 303.338 62.4315C304.333 62.1664 305.121 61.8645 305.099 61.7615Z" fill="#263238"/>
<path d="M312.527 60.8115C312.527 60.7084 311.68 60.6643 310.641 60.7232C309.601 60.8336 308.776 61.003 308.791 61.106C308.806 61.2091 309.646 61.2091 310.67 61.106C311.694 61.0471 312.527 60.9146 312.527 60.8115Z" fill="#263238"/>
<path d="M320 61.3267C320.014 61.2236 319.196 61.0395 318.157 60.9144C317.126 60.7892 316.278 60.7818 316.271 60.8849C316.271 60.988 317.089 61.1721 318.113 61.2972C319.137 61.415 319.977 61.4298 320 61.3267Z" fill="#263238"/>
<path d="M327.237 63.2486C327.273 63.1528 326.5 62.8141 325.505 62.4975C324.51 62.1809 323.685 62.0116 323.662 62.1146C323.633 62.2177 324.407 62.5491 325.394 62.8657C326.374 63.1749 327.2 63.3516 327.237 63.2486Z" fill="#263238"/>
<path d="M333.987 66.4959C334.046 66.4075 333.346 65.9289 332.432 65.4356C331.518 64.9423 330.737 64.6183 330.693 64.714C330.648 64.8098 331.341 65.281 332.248 65.7743C333.154 66.2603 333.935 66.5843 333.987 66.4959Z" fill="#263238"/>
<path d="M339.971 70.9945C340.044 70.9209 339.455 70.3171 338.651 69.6471C337.848 68.977 337.148 68.5058 337.089 68.5941C337.023 68.6825 337.612 69.2789 338.408 69.9416C339.197 70.5969 339.897 71.0681 339.971 70.9945Z" fill="#263238"/>
<path d="M344.871 76.642C344.96 76.5831 344.555 75.832 343.921 75.0074C343.28 74.1827 342.661 73.6084 342.58 73.6746C342.499 73.7483 342.985 74.4257 343.619 75.243C344.245 76.0529 344.783 76.7009 344.871 76.642Z" fill="#263238"/>
<path d="M347.605 81.5091C347.701 81.465 347.605 81.06 347.377 80.5961C347.156 80.1322 346.898 79.8009 346.802 79.8525C346.706 79.904 346.809 80.309 347.03 80.7655C347.251 81.222 347.509 81.5533 347.605 81.5091Z" fill="#263238"/>
<path d="M394.43 124.959C394.43 124.856 394.04 124.716 393.538 124.657C393.037 124.598 392.617 124.635 392.603 124.738C392.58 124.841 392.986 124.974 393.494 125.04C394.003 125.099 394.423 125.069 394.43 124.959Z" fill="#263238"/>
<path d="M401.726 124.135C401.696 124.032 400.886 124.201 399.898 124.407C398.911 124.613 398.1 124.783 398.115 124.893C398.122 124.996 398.97 124.996 399.979 124.783C400.989 124.569 401.763 124.23 401.726 124.135Z" fill="#263238"/>
<path d="M408.321 120.872C408.262 120.784 407.54 121.189 406.671 121.711C405.801 122.234 405.101 122.669 405.153 122.764C405.197 122.86 405.985 122.573 406.87 122.043C407.754 121.52 408.38 120.96 408.321 120.879V120.872Z" fill="#263238"/>
<path d="M413.812 115.954C413.731 115.88 413.126 116.447 412.412 117.169C411.697 117.89 411.144 118.501 411.21 118.582C411.277 118.663 411.962 118.17 412.684 117.441C413.406 116.712 413.893 116.027 413.812 115.961V115.954Z" fill="#263238"/>
<path d="M418.145 109.99C418.056 109.938 417.526 110.579 416.973 111.426C416.42 112.272 416.037 113.009 416.118 113.075C416.207 113.141 416.73 112.493 417.29 111.639C417.85 110.785 418.233 110.041 418.145 109.99Z" fill="#263238"/>
<path d="M421.328 103.341C421.233 103.304 420.827 104.033 420.429 104.961C420.031 105.896 419.788 106.684 419.884 106.735C419.98 106.779 420.385 106.058 420.783 105.115C421.188 104.173 421.432 103.378 421.328 103.341Z" fill="#263238"/>
<path d="M423.443 96.2724C423.34 96.2503 423.045 97.0235 422.787 98.0101C422.529 98.9894 422.404 99.8141 422.507 99.8435C422.61 99.873 422.905 99.0999 423.163 98.1058C423.421 97.1192 423.546 96.2945 423.443 96.2724Z" fill="#263238"/>
<path d="M424.726 89.0051C424.622 88.9904 424.409 89.7929 424.261 90.8017C424.106 91.8104 424.07 92.6351 424.173 92.6572C424.276 92.6793 424.482 91.8693 424.637 90.8606C424.792 89.8518 424.829 89.0198 424.726 89.0051Z" fill="#263238"/>
<path d="M425.433 81.6567C425.33 81.6567 425.175 82.4667 425.094 83.4828C425.013 84.4989 425.028 85.3309 425.138 85.3383C425.242 85.3456 425.396 84.5357 425.477 83.5122C425.558 82.4961 425.544 81.6641 425.433 81.6567Z" fill="#263238"/>
<path d="M425.742 76.1343C425.639 76.1343 425.529 76.5392 425.507 77.0473C425.484 77.5554 425.551 77.9677 425.654 77.9751C425.757 77.9751 425.868 77.5701 425.89 77.062C425.912 76.554 425.846 76.1416 425.742 76.1343Z" fill="#263238"/>
<path d="M397.995 31.4927L459.27 34.3799L457.322 75.6483L396.048 72.7612L397.995 31.4927Z" fill="url(#paint3_linear_481_5195)"/>
<path d="M457.342 75.663V75.6409L459.288 34.3561H459.266L397.967 31.4697V31.4918L396.022 72.7767H396.044L457.342 75.663ZM459.251 34.3929L457.305 75.6262L396.066 72.7399L398.012 31.5065L459.251 34.3929Z" fill="#263238"/>
<path d="M397.776 31.978C397.776 31.978 397.953 32.1916 398.321 32.5523C398.734 32.95 399.279 33.4727 399.957 34.128C401.438 35.5197 403.509 37.4635 406.044 39.8492C411.269 44.6794 418.41 51.2841 426.332 58.6103L426.502 58.765L426.686 58.6324C426.826 58.5293 426.981 58.4189 427.135 58.3084C435.956 51.8878 443.937 46.0783 449.774 41.8298C452.619 39.724 454.94 38.0084 456.598 36.7861C457.364 36.2044 457.976 35.7406 458.433 35.3945C458.853 35.0705 459.067 34.8938 459.052 34.8791C459.037 34.8644 458.809 35.0116 458.367 35.3061C457.888 35.6375 457.254 36.0719 456.465 36.6168C454.778 37.8096 452.427 39.4737 449.538 41.5206C443.68 45.7323 435.662 51.4976 426.804 57.8667C426.649 57.9771 426.494 58.0875 426.354 58.1906L426.708 58.2127C418.749 50.938 411.564 44.3775 406.31 39.5767C403.723 37.2426 401.608 35.3503 400.097 33.9882C399.39 33.3697 398.822 32.869 398.395 32.4934C398.004 32.1547 397.791 31.9854 397.776 32.0001V31.978Z" fill="#263238"/>
<path d="M457.106 76.127C457.232 76.0313 452.884 70.1629 447.408 63.006C441.933 55.8564 437.393 50.1353 437.268 50.2237C437.143 50.3194 441.483 56.1878 446.966 63.3447C452.442 70.4943 456.981 76.2154 457.106 76.127Z" fill="#263238"/>
<path d="M416.929 48.7583C416.811 48.6552 411.991 54.0597 406.17 60.819C400.341 67.5857 395.713 73.1448 395.83 73.2479C395.948 73.351 400.761 67.9465 406.59 61.1872C412.412 54.4279 417.047 48.8614 416.929 48.7657V48.7583Z" fill="#263238"/>
<path d="M349.602 178.076C349.47 177.23 350.015 176.427 350.877 176.213L352.521 176.324L358.394 174.284C359.492 174.004 360.598 174.785 360.62 175.882C360.649 177.568 361.327 182.163 362.698 180.72C362.727 180.683 362.764 180.661 362.794 180.624C364.732 178.467 366.972 177.421 367.842 177.546C368.689 177.664 368.895 178.724 368.262 179.284C368.166 179.38 368.055 179.468 367.915 179.527C367.856 179.549 367.783 179.6 367.716 179.63C367.002 180.094 366.125 180.948 365.469 181.633C364.85 182.288 364.349 183.046 363.987 183.864C363.59 184.777 363.287 185.572 363.044 186.257L362.956 191.654L365.299 216.887C365.299 216.887 380.841 200.57 380.487 200.409L379.596 225.804L370.178 233.594C366.176 236.9 360.48 237.217 356.139 234.374C352.742 232.151 350.723 228.337 350.789 224.28L351.334 191.654L350.951 187.376L349.61 178.076H349.602Z" fill="#FFBE9D"/>
<path d="M436.907 213.949L453.915 252.863L467.379 280.931L477.379 284.289C477.379 284.289 485.294 286.586 485.294 288.221C485.294 289.855 483.209 289.487 483.209 289.487C482.825 291.932 479.436 290.547 477.07 289.45C474.697 288.353 469.435 288.132 469.435 288.132C470.887 289.252 470.423 290.975 469.583 291.564C468.743 292.153 467.283 291.438 466.289 290.385C465.301 289.333 462.751 288.839 459.921 287.83C457.084 286.822 456.62 283.015 456.62 283.015L422.551 225.679L436.914 213.957L436.907 213.949Z" fill="#FFBE9D"/>
<path d="M380.428 228.071L376.147 233.726L366.869 213.161C366.869 213.161 375.874 202.183 379.168 197.581C382.433 193.016 384.879 192.22 384.879 192.22C384.879 192.22 390.863 190.446 393.848 190.505L408.631 191.388L423.642 197.934C427.327 199.539 430.466 202.183 432.677 205.54L446.812 228.226L426.796 236.775L420.083 275.114C418.793 280.865 417.673 286.291 412.36 288.942L375.24 253.297L379.588 246.457L380.421 228.079L380.428 228.071Z" fill="url(#paint4_linear_481_5195)"/>
<path d="M415.92 221.04C415.831 221.099 418.116 224.655 421.027 228.977C423.937 233.299 426.369 236.76 426.458 236.701C426.546 236.642 424.262 233.093 421.351 228.764C418.44 224.442 416.008 220.981 415.927 221.04H415.92Z" fill="#263238"/>
<path d="M384.798 257.443C384.798 257.443 385.137 257.671 385.786 258.032C386.434 258.393 387.378 258.893 388.549 259.497C390.893 260.712 394.158 262.339 397.805 264.055C401.453 265.771 404.784 267.251 407.216 268.281C408.432 268.797 409.419 269.209 410.105 269.474C410.79 269.747 411.173 269.887 411.188 269.857C411.195 269.835 410.834 269.651 410.164 269.334C409.434 268.996 408.476 268.561 407.327 268.031C404.924 266.934 401.615 265.417 397.967 263.702C394.327 261.986 391.048 260.396 388.675 259.247C387.532 258.695 386.589 258.238 385.86 257.892C385.189 257.575 384.821 257.413 384.806 257.436L384.798 257.443Z" fill="#263238"/>
<path d="M417.106 212.734C417.15 212.764 417.636 212.123 418.41 211.1C419.191 210.076 420.26 208.648 421.704 207.345C423.149 206.041 424.733 205.209 425.956 204.841C427.172 204.466 427.983 204.473 427.983 204.407C427.983 204.385 427.784 204.355 427.415 204.362C427.047 204.362 426.516 204.421 425.883 204.583C424.608 204.885 422.935 205.717 421.454 207.057C419.972 208.397 418.919 209.877 418.189 210.938C417.467 212.013 417.069 212.705 417.106 212.734Z" fill="#263238"/>
<path d="M386.568 231.422C386.568 231.422 386.545 231.562 386.553 231.827C386.553 232.092 386.553 232.49 386.59 232.99C386.641 233.999 386.803 235.464 387.179 237.239C387.909 240.78 389.722 245.611 393.215 249.955C396.708 254.306 401.034 257.126 404.335 258.606C405.986 259.357 407.386 259.836 408.359 260.109C408.845 260.256 409.228 260.329 409.486 260.396C409.744 260.455 409.884 260.477 409.884 260.469C409.892 260.44 409.354 260.285 408.396 259.969C407.438 259.652 406.067 259.144 404.446 258.363C401.203 256.832 396.958 254.012 393.509 249.719C390.061 245.427 388.233 240.677 387.437 237.18C387.032 235.427 386.825 233.977 386.73 232.976C386.627 231.974 386.597 231.415 386.56 231.415L386.568 231.422Z" fill="#263238"/>
<g opacity="0.3">
<path d="M424.21 251.596C424.276 251.228 419.449 226.304 419.449 226.304L426.723 237.216" fill="black"/>
</g>
<path d="M381.379 204.149C381.379 204.149 381.35 204.296 381.328 204.576C381.306 204.9 381.283 205.305 381.247 205.806C381.188 206.925 381.114 208.464 381.018 210.334C380.834 214.207 380.576 219.472 380.296 225.281C380.016 231.12 379.795 236.414 379.684 240.243C379.625 242.157 379.589 243.711 379.581 244.778C379.581 245.279 379.581 245.691 379.581 246.015C379.581 246.295 379.589 246.443 379.603 246.45C379.618 246.45 379.633 246.303 379.655 246.023C379.677 245.699 379.699 245.294 379.736 244.793C379.795 243.674 379.869 242.135 379.964 240.265C380.149 236.392 380.407 231.127 380.687 225.31C380.967 219.472 381.188 214.185 381.298 210.356C381.357 208.442 381.394 206.888 381.401 205.82C381.401 205.32 381.401 204.907 381.401 204.583C381.401 204.304 381.394 204.156 381.379 204.149Z" fill="#263238"/>
<g opacity="0.2">
<path d="M411.004 269.843C412.19 268.856 411.918 266.839 410.871 265.705C409.825 264.571 408.27 264.085 406.796 263.606C399.744 261.324 392.654 258.099 387.997 252.326C387.356 251.531 386.751 250.677 385.911 250.087C385.071 249.498 383.929 249.219 383.015 249.69C381.593 250.434 381.534 252.495 382.131 253.983C382.86 255.801 384.268 257.34 386.022 258.224" fill="black"/>
</g>
<g opacity="0.2">
<path d="M381.224 208.574L377.105 232.452L380.318 228.226L381.224 208.574Z" fill="black"/>
</g>
<path d="M342.034 271.315L348.998 295.187L319.322 304C318.651 301.114 332.314 290.872 332.314 290.872L327.222 275.763L342.034 271.323V271.315Z" fill="#E8505B"/>
<g opacity="0.6">
<path d="M341.105 286.851C341.724 286.836 342.314 287.366 342.351 287.985C342.388 288.603 341.857 289.207 341.238 289.229C340.619 289.251 339.889 288.64 339.919 288.022C339.948 287.403 340.612 286.726 341.223 286.851" fill="white"/>
</g>
<g opacity="0.6">
<path d="M348.998 295.179L348.202 292.801L320.044 302.137C320.044 302.137 318.894 303.102 319.322 303.993L348.998 295.179Z" fill="white"/>
</g>
<path d="M331.79 290.857C331.835 290.996 332.579 290.856 333.434 291.107C334.289 291.335 334.849 291.858 334.959 291.762C335.085 291.696 334.613 290.893 333.574 290.606C332.542 290.304 331.717 290.739 331.783 290.864L331.79 290.857Z" fill="#263238"/>
<path d="M329.057 293.066C329.064 293.213 329.764 293.279 330.442 293.743C331.127 294.192 331.452 294.818 331.592 294.767C331.732 294.752 331.584 293.868 330.737 293.309C329.889 292.734 329.02 292.933 329.057 293.066Z" fill="#263238"/>
<path d="M328.393 297.315C328.533 297.307 328.518 296.52 327.914 295.842C327.31 295.157 326.536 295.047 326.507 295.187C326.462 295.327 327.03 295.629 327.516 296.196C328.017 296.755 328.246 297.352 328.393 297.322V297.315Z" fill="#263238"/>
<path d="M331.009 287.286C331.113 287.396 331.717 287.006 332.55 286.814C333.382 286.608 334.097 286.696 334.141 286.549C334.193 286.417 333.412 286.071 332.432 286.306C331.452 286.534 330.906 287.197 331.009 287.286Z" fill="#263238"/>
<path d="M330.67 283.553C330.685 283.612 331.289 283.531 332.152 283.104C332.586 282.89 333.073 282.581 333.567 282.161C333.81 281.955 334.053 281.719 334.289 281.454C334.399 281.329 334.532 281.189 334.635 280.968C334.753 280.77 334.731 280.357 334.473 280.18C334.252 279.996 333.957 279.982 333.736 280.041C333.515 280.099 333.353 280.195 333.198 280.284C332.889 280.46 332.616 280.666 332.365 280.873C331.872 281.3 331.51 281.764 331.26 282.176C330.759 283.015 330.685 283.626 330.744 283.641C330.825 283.671 331.024 283.118 331.569 282.382C331.842 282.014 332.211 281.616 332.675 281.241C332.911 281.057 333.169 280.88 333.449 280.725C333.736 280.549 334.009 280.468 334.127 280.585C334.171 280.63 334.178 280.652 334.141 280.762C334.097 280.865 333.994 280.99 333.891 281.116C333.677 281.366 333.456 281.594 333.242 281.8C332.8 282.213 332.358 282.529 331.967 282.78C331.186 283.266 330.641 283.472 330.663 283.553H330.67Z" fill="#263238"/>
<path d="M330.921 283.707C330.98 283.707 331.112 283.111 330.884 282.153C330.773 281.682 330.552 281.13 330.199 280.585C330.022 280.313 329.801 280.048 329.55 279.797C329.292 279.554 328.961 279.223 328.378 279.326C328.084 279.4 327.907 279.702 327.877 279.922C327.84 280.151 327.877 280.327 327.885 280.511C327.936 280.872 328.039 281.211 328.179 281.513C328.459 282.117 328.872 282.566 329.27 282.86C330.081 283.457 330.737 283.449 330.729 283.398C330.759 283.309 330.169 283.184 329.506 282.573C329.182 282.271 328.843 281.852 328.622 281.314C328.511 281.049 328.43 280.754 328.393 280.445C328.349 280.114 328.393 279.827 328.518 279.827C328.666 279.782 328.99 279.944 329.182 280.158C329.41 280.379 329.616 280.615 329.786 280.85C330.132 281.329 330.368 281.822 330.515 282.249C330.818 283.111 330.818 283.692 330.906 283.692L330.921 283.707Z" fill="#263238"/>
<path d="M311.561 235.773C310.81 241.281 312.696 247.488 314.686 252.679L327.7 283.251L342.107 281.042C342.107 281.042 345.114 284.385 348.954 285.658C350.671 286.233 356.323 287.337 360.973 283.994C360.973 283.994 367.554 293.154 377.908 295.923C388.262 298.691 403.936 300.223 411.527 288.118L375.395 253.334C374.651 253.511 344.274 233.049 327.87 228.388C327.87 228.388 312.94 225.642 311.561 235.773Z" fill="#263238"/>
<path d="M343.184 280.924C343.184 280.924 343.117 280.88 342.992 280.806C342.837 280.725 342.646 280.622 342.402 280.497C341.887 280.225 341.113 279.827 340.14 279.29C339.167 278.752 337.988 278.075 336.698 277.169C335.416 276.263 334.016 275.115 332.8 273.554C331.569 272.015 330.634 270.005 330.272 267.708C329.897 265.425 330.022 262.899 330.582 260.352C331.142 257.826 332.321 255.19 334.554 253.438C336.772 251.685 339.698 250.772 342.69 250.544C344.193 250.419 345.689 250.441 347.148 250.581C348.607 250.736 350.037 251.001 351.422 251.332C354.193 252.017 356.78 252.989 359.197 254.02C364.017 256.118 368.195 258.393 371.865 259.954C375.52 261.559 378.63 262.502 380.819 262.944C381.364 263.069 381.851 263.142 382.278 263.209C382.698 263.282 383.059 263.326 383.354 263.356C383.627 263.385 383.848 263.4 384.017 263.422C384.165 263.437 384.246 263.437 384.246 263.43C384.246 263.43 384.172 263.407 384.025 263.385C383.855 263.356 383.641 263.326 383.369 263.282C383.081 263.245 382.72 263.187 382.3 263.106C381.88 263.025 381.394 262.944 380.856 262.804C378.689 262.325 375.609 261.346 371.983 259.711C368.335 258.121 364.179 255.823 359.345 253.696C356.92 252.65 354.319 251.663 351.518 250.971C350.118 250.633 348.674 250.367 347.192 250.205C345.711 250.066 344.186 250.043 342.66 250.169C339.617 250.404 336.625 251.332 334.326 253.151C333.183 254.064 332.27 255.205 331.614 256.442C330.95 257.679 330.53 258.99 330.236 260.278C329.676 262.87 329.558 265.432 329.956 267.766C330.339 270.101 331.312 272.17 332.586 273.723C333.839 275.299 335.269 276.448 336.581 277.346C337.892 278.244 339.094 278.899 340.074 279.422C341.061 279.945 341.842 280.313 342.373 280.563C342.623 280.681 342.822 280.77 342.977 280.843C343.117 280.902 343.184 280.932 343.191 280.924H343.184Z" fill="#455A64"/>
<path d="M334.149 240.802C334.06 240.861 335.409 243.063 337.17 245.721C338.924 248.379 340.42 250.492 340.509 250.433C340.597 250.374 339.248 248.173 337.487 245.515C335.733 242.857 334.237 240.744 334.149 240.802Z" fill="#455A64"/>
<path d="M344.54 278.495C344.532 278.554 345.542 278.767 347.156 279.172C348.77 279.57 350.995 280.188 353.39 281.02C355.785 281.86 357.908 282.765 359.418 283.457C360.936 284.15 361.858 284.613 361.887 284.562C361.902 284.54 361.681 284.393 361.283 284.157C360.877 283.914 360.288 283.59 359.544 283.214C358.055 282.456 355.94 281.506 353.523 280.659C351.106 279.82 348.865 279.238 347.222 278.907C346.404 278.738 345.733 278.62 345.269 278.561C344.805 278.495 344.547 278.473 344.54 278.502V278.495Z" fill="#455A64"/>
<path d="M327.966 281.249C328.032 281.271 328.201 280.593 328.813 279.695C329.41 278.804 330.53 277.707 332.1 277.191C333.67 276.683 335.224 276.919 336.234 277.287C337.258 277.655 337.796 278.104 337.833 278.046C337.848 278.031 337.73 277.898 337.487 277.7C337.244 277.501 336.853 277.258 336.337 277.029C335.313 276.573 333.67 276.278 331.989 276.816C330.309 277.361 329.152 278.568 328.592 279.54C328.305 280.026 328.135 280.453 328.054 280.755C327.966 281.057 327.951 281.234 327.973 281.234L327.966 281.249Z" fill="#455A64"/>
<path d="M390.296 269.842C390.296 269.842 390.2 270.078 390.112 270.527C390.031 270.976 389.95 271.639 389.942 272.464C389.942 274.098 390.303 276.44 391.645 278.612C392.971 280.799 395.012 282.124 396.582 282.617C397.371 282.882 398.041 282.963 398.498 282.985C398.955 283.008 399.213 282.971 399.213 282.949C399.22 282.868 398.181 282.927 396.67 282.36C395.174 281.815 393.251 280.511 391.969 278.406C390.679 276.315 390.281 274.047 390.215 272.449C390.149 270.836 390.37 269.842 390.296 269.828V269.842Z" fill="#455A64"/>
<path d="M406.545 286.358C406.626 286.424 407.01 286.093 407.363 285.592C407.724 285.092 407.916 284.62 407.82 284.561C407.732 284.51 407.4 284.878 407.046 285.364C406.693 285.857 406.457 286.292 406.538 286.358H406.545Z" fill="#455A64"/>
<path d="M403.509 289.554C403.575 289.635 403.995 289.355 404.438 288.928C404.88 288.501 405.174 288.096 405.101 288.023C405.027 287.949 404.607 288.229 404.172 288.648C403.737 289.068 403.443 289.473 403.509 289.554Z" fill="#455A64"/>
<path d="M399.935 292.139C399.987 292.234 400.451 292.036 400.967 291.697C401.483 291.358 401.851 291.02 401.792 290.931C401.726 290.843 401.269 291.042 400.76 291.373C400.252 291.704 399.883 292.043 399.935 292.139Z" fill="#455A64"/>
<path d="M395.882 293.883C395.911 293.987 396.405 293.898 396.987 293.692C397.569 293.486 398.004 293.236 397.96 293.14C397.916 293.044 397.422 293.132 396.854 293.331C396.287 293.537 395.852 293.788 395.882 293.883Z" fill="#455A64"/>
<path d="M391.526 294.568C391.526 294.671 392.028 294.715 392.647 294.656C393.266 294.597 393.745 294.472 393.73 294.362C393.715 294.259 393.214 294.215 392.61 294.273C392.013 294.325 391.526 294.458 391.526 294.568Z" fill="#455A64"/>
<path d="M387.12 294.326C387.105 294.429 387.599 294.546 388.21 294.591C388.542 294.613 388.837 294.605 389.036 294.583H389.021C389.205 294.568 389.316 294.532 389.316 294.487C389.316 294.443 389.22 294.384 389.05 294.333H389.036C388.837 294.281 388.549 294.237 388.225 294.215C387.628 294.171 387.127 294.23 387.112 294.333L387.12 294.326Z" fill="#455A64"/>
<path d="M382.779 293.545C382.757 293.648 383.221 293.832 383.818 293.965C384.415 294.09 384.916 294.112 384.938 294.009C384.953 293.906 384.489 293.715 383.899 293.589C383.31 293.464 382.809 293.442 382.779 293.545Z" fill="#455A64"/>
<path d="M378.549 292.257C378.512 292.352 378.954 292.595 379.537 292.787C380.119 292.978 380.612 293.059 380.642 292.956C380.671 292.853 380.229 292.617 379.654 292.426C379.08 292.235 378.586 292.161 378.549 292.257Z" fill="#455A64"/>
<path d="M374.488 290.534C374.444 290.629 374.857 290.909 375.417 291.167C375.977 291.417 376.463 291.55 376.5 291.447C376.544 291.351 376.124 291.064 375.572 290.813C375.019 290.563 374.533 290.438 374.488 290.534Z" fill="#455A64"/>
<path d="M370.612 288.412C370.553 288.501 370.944 288.825 371.467 289.134C371.998 289.443 372.469 289.613 372.521 289.524C372.573 289.429 372.189 289.112 371.666 288.803C371.143 288.501 370.671 288.324 370.612 288.412Z" fill="#455A64"/>
<path d="M366.964 285.924C366.898 286.005 367.252 286.366 367.753 286.727C368.254 287.088 368.704 287.301 368.763 287.213C368.822 287.124 368.468 286.764 367.974 286.41C367.48 286.057 367.031 285.836 366.964 285.924Z" fill="#455A64"/>
<path d="M363.56 283.111C363.486 283.192 363.803 283.575 364.267 283.98C364.731 284.378 365.159 284.643 365.225 284.554C365.291 284.473 364.975 284.083 364.518 283.685C364.061 283.288 363.626 283.03 363.56 283.111Z" fill="#455A64"/>
<path d="M360.347 280.077C360.281 280.158 360.583 280.556 361.025 280.976C361.467 281.395 361.887 281.668 361.961 281.594C362.042 281.513 361.733 281.116 361.29 280.696C360.841 280.276 360.421 279.996 360.354 280.077H360.347Z" fill="#455A64"/>
<path d="M356.854 277.361C356.795 277.449 357.149 277.81 357.635 278.163C358.129 278.517 358.578 278.738 358.645 278.657C358.711 278.576 358.357 278.215 357.863 277.854C357.362 277.493 356.913 277.272 356.854 277.361Z" fill="#455A64"/>
<path d="M352.977 275.233C352.933 275.328 353.338 275.63 353.884 275.895C354.429 276.16 354.908 276.308 354.96 276.212C355.011 276.116 354.606 275.822 354.053 275.549C353.501 275.277 353.014 275.13 352.977 275.233Z" fill="#455A64"/>
<path d="M348.762 273.914C348.747 274.018 349.204 274.224 349.786 274.371C350.369 274.518 350.87 274.555 350.907 274.452C350.936 274.349 350.479 274.15 349.882 273.995C349.285 273.848 348.784 273.811 348.762 273.914Z" fill="#455A64"/>
<path d="M344.355 273.694C344.363 273.797 344.864 273.834 345.461 273.827C346.065 273.812 346.559 273.76 346.566 273.657C346.566 273.554 346.08 273.436 345.461 273.444C344.842 273.451 344.348 273.591 344.363 273.694H344.355Z" fill="#455A64"/>
<path d="M340.096 274.813C340.147 274.909 340.619 274.769 341.179 274.57C341.746 274.371 342.196 274.172 342.174 274.069C342.152 273.966 341.636 274.003 341.054 274.209C340.464 274.415 340.044 274.725 340.096 274.813Z" fill="#455A64"/>
<path d="M341.032 278.016C341.098 277.928 340.766 277.567 340.376 277.125C339.985 276.683 339.668 276.315 339.573 276.367C339.484 276.418 339.668 276.904 340.089 277.375C340.509 277.847 340.965 278.09 341.032 278.009V278.016Z" fill="#455A64"/>
<path d="M344.93 280.041C344.959 279.938 344.539 279.673 343.979 279.444C343.427 279.216 342.933 279.106 342.881 279.202C342.83 279.297 343.257 279.562 343.832 279.798C344.407 280.034 344.893 280.144 344.93 280.041Z" fill="#455A64"/>
<path d="M349.145 281.388C349.182 281.285 348.74 281.049 348.158 280.858C347.576 280.667 347.082 280.586 347.052 280.689C347.023 280.792 347.465 281.027 348.04 281.219C348.615 281.41 349.116 281.491 349.145 281.388Z" fill="#455A64"/>
<path d="M353.272 282.964C353.309 282.868 352.882 282.603 352.314 282.382C351.747 282.161 351.253 282.058 351.216 282.154C351.179 282.25 351.607 282.515 352.174 282.736C352.742 282.957 353.235 283.06 353.272 282.964Z" fill="#455A64"/>
<path d="M357.348 284.687C357.392 284.591 356.972 284.319 356.404 284.076C355.844 283.833 355.351 283.715 355.314 283.811C355.269 283.906 355.697 284.186 356.257 284.422C356.817 284.665 357.303 284.783 357.348 284.687Z" fill="#455A64"/>
<path d="M365.587 158.424C365.587 158.424 360.767 156.974 354.363 149.839C347.959 142.704 345.373 133.662 344.525 133.64C343.678 133.618 340.118 131.637 331.975 146.349C323.832 161.06 326.33 164.808 327.73 164.882C329.13 164.955 338.792 163.026 344.658 164.138C350.524 165.25 357.9 168.895 357.9 168.895L365.587 158.424Z" fill="#455A64"/>
<path d="M375.38 167.503L373.472 170.552L372.617 171.921C371.445 173.799 369.006 174.425 367.075 173.357L356.846 168.917L364.002 155.42L374.076 161.789C376.007 163.012 376.596 165.567 375.38 167.503Z" fill="#263238"/>
<path d="M368.947 172.135L365.115 178.438L363.479 177.849L351.887 185.919L349.278 179.719C349.278 179.719 355.947 177.422 357.311 175.205C358.674 172.996 357.333 172.371 357.333 172.371L360.627 169.146L368.947 172.135Z" fill="#263238"/>
<path d="M332.528 146.673C328.18 154.647 326.087 161.885 327.841 162.843C329.595 163.8 334.539 158.101 338.88 150.126C343.221 142.152 345.321 134.914 343.567 133.957C341.813 133 336.868 138.692 332.528 146.673Z" fill="#263238"/>
<path d="M375.941 172.157L373.155 171.053L375.167 167.835L377.201 169.322L375.941 172.157Z" fill="#455A64"/>
<path d="M359.492 170.25L366.78 175.698L367.871 173.902L359.492 170.25Z" fill="#455A64"/>
<path d="M375.167 167.835L373.155 171.053L373.73 171.281L375.41 168.019L375.167 167.835Z" fill="#455A64"/>
<path d="M373.148 168.461C373.096 168.549 371.718 167.894 370.067 166.995C368.417 166.097 367.112 165.295 367.164 165.206C367.215 165.118 368.593 165.773 370.244 166.671C371.895 167.57 373.199 168.372 373.148 168.461Z" fill="#455A64"/>
<path d="M374.172 166.538C374.121 166.627 372.875 165.986 371.394 165.117C369.905 164.241 368.748 163.468 368.8 163.38C368.852 163.291 370.097 163.932 371.578 164.801C373.059 165.677 374.224 166.45 374.172 166.538Z" fill="#455A64"/>
<path d="M371.888 170.47C371.866 170.515 371.534 170.412 371.011 170.205C370.745 170.102 370.436 169.97 370.09 169.823C369.751 169.668 369.397 169.462 369.021 169.256C367.518 168.416 366.383 167.621 366.427 167.54C366.479 167.444 367.709 168.107 369.198 168.932C369.574 169.138 369.913 169.359 370.244 169.521C370.576 169.683 370.871 169.837 371.114 169.962C371.608 170.228 371.902 170.412 371.888 170.463V170.47Z" fill="#455A64"/>
<path d="M340.273 145.406C340.273 145.406 336.212 142.454 333.456 148.028C330.7 153.601 335.107 154.883 335.107 154.883C337.156 152.18 338.888 149.029 340.273 145.406Z" fill="#455A64"/>
<path d="M345.306 138.89C345.306 138.89 345.24 139.281 345.055 139.973C344.871 140.665 344.598 141.674 344.237 142.903C344.009 143.507 343.766 144.162 343.5 144.869C343.368 145.223 343.228 145.591 343.088 145.966C343.014 146.158 342.94 146.349 342.867 146.541C342.786 146.732 342.69 146.916 342.601 147.115C342.233 147.881 341.85 148.691 341.452 149.523C341.349 149.729 341.253 149.942 341.15 150.156C341.054 150.369 340.921 150.568 340.803 150.774C340.56 151.187 340.317 151.606 340.074 152.033C339.823 152.46 339.58 152.88 339.344 153.292C339.219 153.499 339.116 153.712 338.976 153.904C338.843 154.095 338.71 154.287 338.578 154.478C338.047 155.236 337.539 155.965 337.052 156.665C336.927 156.834 336.816 157.011 336.684 157.18C336.551 157.342 336.418 157.497 336.293 157.651C336.035 157.961 335.785 158.263 335.542 158.557C335.055 159.139 334.606 159.676 334.193 160.177C333.309 161.105 332.564 161.826 332.056 162.334C331.547 162.835 331.253 163.108 331.23 163.085C331.216 163.071 331.466 162.769 331.953 162.231C332.446 161.686 333.146 160.928 334.009 159.993C334.407 159.492 334.841 158.947 335.313 158.358C335.549 158.064 335.792 157.762 336.043 157.453C336.168 157.298 336.293 157.136 336.426 156.981C336.551 156.819 336.662 156.643 336.78 156.466C337.259 155.766 337.76 155.038 338.283 154.279C338.416 154.088 338.548 153.896 338.681 153.705C338.813 153.513 338.924 153.3 339.042 153.101C339.278 152.689 339.521 152.276 339.764 151.849C340.007 151.43 340.251 151.01 340.494 150.605C340.612 150.399 340.744 150.2 340.84 149.986C340.943 149.773 341.039 149.567 341.142 149.361C341.54 148.536 341.931 147.733 342.299 146.975C342.388 146.784 342.491 146.599 342.572 146.408C342.646 146.217 342.719 146.025 342.793 145.841C342.94 145.473 343.08 145.105 343.22 144.759C343.5 144.059 343.758 143.411 343.994 142.815C344.385 141.607 344.694 140.628 344.923 139.928C345.151 139.251 345.284 138.876 345.306 138.883V138.89Z" fill="#263238"/>
<path d="M356.264 172.392C355.616 172.583 355.233 173.246 355.402 173.901C355.719 175.153 356.235 177.119 356.655 178.319C356.788 178.709 356.935 179.1 357.208 179.409C357.48 179.718 357.9 179.924 358.298 179.821C358.718 179.718 359.006 179.299 359.079 178.871C359.153 178.444 359.065 178.01 358.976 177.59C358.718 176.427 358.239 174.667 357.827 173.239C357.635 172.569 356.935 172.186 356.264 172.385V172.392Z" fill="#FFBE9D"/>
<path d="M354.267 174.425C353.619 174.616 353.236 175.279 353.405 175.934C353.722 177.186 354.238 179.152 354.658 180.352C354.791 180.742 354.938 181.132 355.211 181.442C355.483 181.751 355.903 181.957 356.301 181.854C356.721 181.751 357.009 181.331 357.082 180.904C357.156 180.477 357.068 180.043 356.979 179.623C356.721 178.46 356.242 176.7 355.83 175.271C355.638 174.601 354.938 174.218 354.267 174.417V174.425Z" fill="#FFBE9D"/>
<path d="M352.344 175.647C351.784 175.809 351.452 176.391 351.599 176.958C351.872 178.04 352.322 179.741 352.683 180.786C352.801 181.125 352.926 181.464 353.162 181.729C353.397 181.994 353.766 182.171 354.112 182.09C354.473 182.001 354.724 181.64 354.79 181.272C354.857 180.904 354.776 180.529 354.694 180.16C354.466 179.152 354.061 177.635 353.7 176.391C353.53 175.809 352.926 175.485 352.351 175.654L352.344 175.647Z" fill="#FFBE9D"/>
<path d="M350.155 175.89C349.595 176.052 349.263 176.633 349.403 177.2C349.676 178.29 350.133 179.998 350.494 181.044C350.612 181.382 350.737 181.721 350.973 181.994C351.209 182.259 351.577 182.443 351.924 182.354C352.292 182.266 352.535 181.898 352.602 181.53C352.668 181.161 352.587 180.779 352.506 180.41C352.277 179.394 351.865 177.87 351.504 176.626C351.334 176.044 350.73 175.713 350.148 175.882L350.155 175.89Z" fill="#FFBE9D"/>
<path d="M356.957 179.431C357.06 179.402 356.817 178.342 356.412 177.075C356.014 175.809 355.601 174.8 355.505 174.837C355.402 174.866 355.645 175.927 356.051 177.193C356.449 178.46 356.861 179.468 356.957 179.431Z" fill="#EB996E"/>
<path d="M352.808 181.103C352.911 181.066 352.587 180.035 352.211 178.761C351.828 177.487 351.533 176.457 351.43 176.471C351.327 176.493 351.459 177.576 351.843 178.864C352.226 180.153 352.712 181.14 352.808 181.095V181.103Z" fill="#EB996E"/>
<path d="M354.864 180.838C354.967 180.801 354.643 179.77 354.267 178.496C353.884 177.222 353.589 176.191 353.486 176.206C353.383 176.228 353.516 177.311 353.899 178.599C354.282 179.888 354.768 180.874 354.864 180.83V180.838Z" fill="#EB996E"/>
<path d="M317.42 118.568C317.339 118.634 320.361 122.736 324.171 127.728C327.98 132.72 331.142 136.718 331.223 136.652C331.304 136.586 328.283 132.492 324.473 127.492C320.663 122.5 317.501 118.502 317.42 118.568Z" fill="#263238"/>
<path d="M297.649 130.253C297.604 130.349 303.957 133.39 311.842 137.042C319.727 140.701 326.153 143.58 326.198 143.484C326.242 143.389 319.889 140.348 312.004 136.688C304.126 133.036 297.693 130.15 297.649 130.245V130.253Z" fill="#263238"/>
<path d="M300.596 154.573C300.604 154.676 305.136 154.33 310.714 153.793C316.293 153.255 320.803 152.733 320.796 152.629C320.788 152.526 316.256 152.872 310.678 153.41C305.099 153.947 300.589 154.47 300.596 154.573Z" fill="#263238"/>
<path d="M416.781 168.21L411.778 196.631C410.915 201.542 406.251 204.893 401.232 204.201C396.015 203.479 392.426 198.678 393.273 193.568L394.084 188.679C394.084 188.679 387.083 186.779 387.812 179.762C388.166 176.375 389.463 169.469 390.716 163.225C392.116 156.237 398.903 151.599 406.044 152.747C413.406 154.014 418.263 161.009 416.774 168.217L416.781 168.21Z" fill="#FFBE9D"/>
<path d="M394.076 188.687C394.076 188.687 398.535 189.556 403.671 187.141C403.671 187.141 400.886 191.942 393.848 190.506L394.076 188.687Z" fill="#EB996E"/>
<path d="M392.249 167.961C392.168 168.491 392.559 168.992 393.111 169.08C393.664 169.176 394.187 168.822 394.268 168.292C394.349 167.762 393.966 167.261 393.406 167.173C392.846 167.077 392.33 167.431 392.249 167.961Z" fill="#263238"/>
<path d="M392.013 166.259C392.123 166.406 392.964 165.928 394.054 166.053C395.152 166.163 395.889 166.811 396.022 166.694C396.088 166.642 395.985 166.392 395.668 166.105C395.351 165.817 394.791 165.508 394.113 165.434C393.428 165.361 392.831 165.545 392.47 165.758C392.101 165.972 391.961 166.2 392.02 166.267L392.013 166.259Z" fill="#263238"/>
<path d="M402.544 169.198C402.463 169.728 402.853 170.228 403.406 170.317C403.966 170.412 404.482 170.059 404.563 169.529C404.644 168.999 404.253 168.498 403.701 168.41C403.141 168.314 402.625 168.667 402.544 169.198Z" fill="#263238"/>
<path d="M402.595 167.673C402.706 167.82 403.546 167.342 404.637 167.467C405.735 167.577 406.471 168.225 406.604 168.108C406.67 168.056 406.567 167.806 406.25 167.519C405.934 167.231 405.373 166.922 404.695 166.849C404.01 166.775 403.413 166.959 403.052 167.173C402.684 167.386 402.544 167.614 402.603 167.681L402.595 167.673Z" fill="#263238"/>
<path d="M397.687 175.868C397.702 175.809 397.031 175.617 395.948 175.352C395.675 175.293 395.41 175.205 395.388 175.013C395.344 174.807 395.499 174.52 395.668 174.218C396.007 173.585 396.368 172.915 396.737 172.215C398.233 169.359 399.353 167.002 399.235 166.944C399.117 166.885 397.813 169.152 396.309 172.002C395.948 172.709 395.602 173.379 395.27 174.019C395.13 174.321 394.902 174.653 394.998 175.08C395.049 175.293 395.233 175.463 395.41 175.536C395.58 175.61 395.742 175.632 395.874 175.654C396.98 175.838 397.665 175.919 397.68 175.86L397.687 175.868Z" fill="#263238"/>
<path d="M400.82 176.973C400.643 176.943 400.503 178.114 399.39 178.828C398.277 179.55 397.024 179.27 396.995 179.432C396.973 179.506 397.253 179.69 397.783 179.763C398.307 179.837 399.088 179.763 399.773 179.322C400.451 178.88 400.797 178.232 400.893 177.761C400.996 177.275 400.893 176.973 400.812 176.973H400.82Z" fill="#263238"/>
<path d="M402.802 164.064C402.875 164.366 403.988 164.352 405.248 164.653C406.523 164.926 407.511 165.412 407.717 165.169C407.806 165.051 407.658 164.757 407.275 164.425C406.892 164.094 406.265 163.748 405.499 163.578C404.74 163.409 404.018 163.446 403.524 163.578C403.03 163.711 402.765 163.917 402.794 164.057L402.802 164.064Z" fill="#263238"/>
<path d="M392.617 163.829C392.779 164.094 393.568 163.925 394.474 164.021C395.388 164.08 396.132 164.374 396.339 164.139C396.427 164.021 396.339 163.763 396.029 163.498C395.727 163.233 395.196 162.975 394.57 162.924C393.944 162.872 393.376 163.034 393.037 163.248C392.691 163.461 392.551 163.704 392.624 163.829H392.617Z" fill="#263238"/>
<path d="M390.687 151.209C391.63 150.494 393.141 150.531 393.922 151.415C393.281 150.509 393.656 149.147 394.548 148.47C395.44 147.792 396.685 147.719 397.776 148.006C398.867 148.293 399.832 148.889 400.783 149.486C400.672 149.059 400.923 148.602 401.284 148.344C401.645 148.087 402.102 147.991 402.551 147.947C404.386 147.763 406.236 148.293 407.865 149.14C409.493 149.986 411.35 151.334 412.78 152.475C414.276 153.638 415.765 155.207 417.275 157.276C417.297 157.291 417.312 157.305 417.334 157.327C418.373 158.255 419.25 161.053 419.095 162.423C418.513 167.474 416.84 170.397 415.897 175.19C415.831 175.507 415.765 175.846 415.536 176.081C414.954 176.685 413.907 176.177 413.355 175.536C412.014 173.99 411.549 171.877 411.483 169.845C411.417 167.812 411.704 165.788 411.66 163.755C411.66 163.711 411.66 163.66 411.66 163.608C411.645 163.115 411.601 162.585 411.512 162.054C411.424 161.723 410.562 158.822 407.769 158.351C404.806 157.85 398.962 160.722 396.066 160.265C393.17 159.809 393.023 157.769 393.023 157.769L391.32 161.23C391.32 161.23 390.672 159.198 391.048 156.908C390.34 156.208 389.795 155.347 389.611 154.382C389.397 153.234 389.773 151.938 390.716 151.223L390.687 151.209Z" fill="#263238"/>
<path d="M414.003 171.229C414.128 171.192 419.066 170.36 418.351 175.131C417.636 179.902 412.912 178.216 412.92 178.076C412.934 177.936 414.003 171.221 414.003 171.221V171.229Z" fill="#FFBE9D"/>
<path d="M414.674 176.486C414.674 176.486 414.748 176.559 414.88 176.64C415.013 176.721 415.242 176.802 415.507 176.743C416.045 176.633 416.598 175.897 416.752 175.035C416.833 174.601 416.796 174.174 416.693 173.813C416.598 173.445 416.406 173.165 416.155 173.084C415.905 172.988 415.698 173.113 415.625 173.239C415.536 173.364 415.558 173.459 415.529 173.467C415.514 173.474 415.433 173.371 415.507 173.18C415.544 173.091 415.617 172.981 415.743 172.907C415.875 172.834 416.052 172.811 416.229 172.856C416.598 172.937 416.885 173.32 417.003 173.725C417.135 174.129 417.187 174.615 417.099 175.101C416.922 176.059 416.288 176.891 415.558 176.986C415.205 177.023 414.932 176.883 414.807 176.751C414.674 176.611 414.667 176.5 414.681 176.493L414.674 176.486Z" fill="#EB996E"/>
<path d="M424.903 205.828C424.903 205.828 424.77 205.754 424.483 205.762C424.203 205.762 423.775 205.909 423.392 206.299C423.001 206.675 422.714 207.345 422.758 208.111C422.773 208.876 423.068 209.701 423.318 210.592C423.569 211.468 423.738 212.528 423.149 213.427C422.626 214.34 421.557 215.039 421.115 216.313C420.695 217.543 421.041 219.118 422.183 220.009C422.736 220.458 423.436 220.746 424.173 220.782C424.917 220.812 425.625 220.606 426.303 220.436C426.981 220.267 427.674 220.127 428.285 220.311C428.904 220.481 429.361 220.981 429.752 221.504C430.15 222.034 430.496 222.616 431.012 223.072C431.513 223.544 432.213 223.809 432.876 223.757C434.203 223.669 435.279 222.8 435.817 221.806C436.362 220.797 436.502 219.737 436.568 218.802C436.627 217.859 436.59 217.013 436.613 216.276C436.627 215.54 436.679 214.907 436.775 214.399C436.959 213.375 437.261 212.867 437.224 212.852C437.217 212.852 437.128 212.97 437.011 213.221C436.893 213.471 436.745 213.854 436.627 214.369C436.509 214.885 436.436 215.525 436.399 216.269C436.362 217.013 436.369 217.859 436.303 218.78C436.229 219.693 436.067 220.716 435.544 221.651C435.043 222.557 434.033 223.337 432.862 223.404C432.279 223.441 431.705 223.22 431.262 222.8C430.806 222.388 430.467 221.821 430.061 221.276C429.663 220.738 429.147 220.149 428.396 219.943C427.659 219.73 426.9 219.892 426.214 220.061C425.522 220.238 424.851 220.429 424.195 220.4C423.547 220.37 422.913 220.112 422.419 219.715C421.402 218.927 421.085 217.521 421.446 216.416C421.808 215.29 422.839 214.575 423.414 213.589C423.709 213.095 423.856 212.521 423.834 211.991C423.819 211.461 423.701 210.967 423.569 210.518C423.289 209.62 422.994 208.832 422.965 208.103C422.906 207.382 423.149 206.77 423.495 206.402C423.834 206.019 424.217 205.865 424.483 205.835C424.748 205.806 424.895 205.843 424.895 205.828H424.903Z" fill="#FAFAFA"/>
<path d="M422.876 257.362C422.876 257.362 422.832 257.538 422.655 257.818C422.485 258.091 422.117 258.452 421.512 258.613C420.923 258.783 420.09 258.746 419.412 258.172C418.719 257.627 418.226 256.692 418.005 255.602C417.769 254.505 417.813 253.253 417.599 251.906C417.489 251.236 417.29 250.536 416.921 249.896C416.56 249.255 415.978 248.666 415.226 248.379C414.482 248.077 413.649 248.07 412.861 248.165C412.065 248.254 411.276 248.43 410.473 248.533C409.67 248.644 408.859 248.651 408.071 248.416C407.282 248.195 406.538 247.782 405.919 247.223C405.3 246.656 404.828 245.942 404.592 245.168C404.364 244.395 404.386 243.571 404.637 242.82C405.116 241.332 406.398 240.125 407.842 239.97C409.287 239.808 410.643 240.522 412.035 240.552C412.735 240.581 413.413 240.397 413.981 240.117C414.556 239.838 415.049 239.477 415.506 239.138C416.413 238.446 417.238 237.835 418.086 237.562C418.926 237.268 419.722 237.4 420.26 237.702C420.812 237.997 421.1 238.424 421.203 238.726C421.313 239.035 421.299 239.219 421.321 239.219C421.321 239.219 421.365 239.035 421.277 238.704C421.188 238.372 420.901 237.908 420.333 237.57C420.053 237.408 419.707 237.268 419.302 237.216C418.896 237.165 418.461 237.216 418.012 237.356C417.113 237.621 416.243 238.247 415.337 238.917C414.43 239.565 413.347 240.309 412.035 240.235C411.387 240.213 410.724 240.029 410.024 239.867C409.331 239.705 408.579 239.528 407.783 239.624C406.177 239.793 404.791 241.097 404.261 242.709C403.988 243.519 403.959 244.432 404.209 245.286C404.467 246.133 404.976 246.906 405.639 247.51C406.309 248.114 407.105 248.556 407.953 248.791C408.8 249.041 409.692 249.034 410.51 248.909C411.335 248.798 412.124 248.622 412.89 248.533C413.657 248.445 414.423 248.445 415.086 248.717C415.757 248.968 416.273 249.483 416.619 250.072C416.966 250.669 417.164 251.324 417.275 251.965C417.496 253.261 417.467 254.534 417.725 255.668C417.975 256.802 418.513 257.781 419.265 258.356C420.009 258.96 420.93 258.982 421.542 258.775C422.176 258.584 422.551 258.179 422.714 257.877C422.876 257.568 422.868 257.384 422.868 257.384L422.876 257.362Z" fill="#FAFAFA"/>
<path d="M397.842 212.749C397.842 212.749 397.724 212.469 397.334 212.064C396.943 211.666 396.236 211.136 395.152 210.959C394.099 210.768 392.625 211.143 391.63 212.358C391.129 212.947 390.812 213.772 390.746 214.634C390.635 215.48 390.672 216.43 390.185 217.196C389.95 217.571 389.552 217.844 389.11 217.991C388.66 218.146 388.159 218.19 387.65 218.219C387.135 218.249 386.604 218.241 386.059 218.3C385.521 218.359 384.924 218.477 384.445 218.867C384.202 219.051 384.025 219.309 383.885 219.582C383.759 219.869 383.715 220.185 383.737 220.502C383.796 221.128 384.106 221.695 384.504 222.166C384.902 222.637 385.403 223.035 385.97 223.322C386.523 223.602 387.105 223.83 387.673 224.095C388.24 224.353 388.793 224.647 389.242 225.06C389.699 225.472 390.009 226.017 390.163 226.628C390.466 227.872 390.185 229.205 390.252 230.611C390.311 231.311 390.458 232.025 390.812 232.673C391.151 233.314 391.785 233.888 392.566 233.991C393.347 234.116 394.113 233.77 394.681 233.292C395.256 232.813 395.713 232.217 396.088 231.576C396.457 230.95 396.803 230.317 397.223 229.765C397.643 229.212 398.159 228.741 398.793 228.542C399.419 228.329 400.105 228.425 400.724 228.668C401.35 228.911 401.932 229.271 402.514 229.625C403.104 229.978 403.686 230.346 404.349 230.582C405.005 230.825 405.691 230.928 406.376 230.913C407.739 230.891 409.036 230.398 410.068 229.617C411.1 228.844 411.851 227.718 412.087 226.503C412.33 225.31 412.102 223.963 411.21 223.145C410.775 222.733 410.23 222.497 409.692 222.365C409.154 222.225 408.624 222.159 408.108 222.092C407.091 221.967 406.103 221.768 405.396 221.172C404.688 220.583 404.268 219.766 403.951 218.985C403.642 218.197 403.428 217.417 403.163 216.703C402.898 215.988 402.581 215.34 402.168 214.825C401.748 214.31 401.298 213.919 400.878 213.588C400.031 212.933 399.257 212.557 398.675 212.52C398.085 212.461 397.85 212.771 397.857 212.749C397.864 212.793 398.108 212.513 398.668 212.594C399.213 212.646 399.972 213.036 400.783 213.698C401.188 214.037 401.63 214.435 402.021 214.928C402.411 215.429 402.706 216.062 402.957 216.769C403.215 217.476 403.413 218.256 403.723 219.066C404.04 219.861 404.46 220.723 405.219 221.371C405.985 222.026 407.047 222.24 408.064 222.372C409.073 222.519 410.201 222.63 410.982 223.366C411.763 224.088 411.984 225.317 411.748 226.429C411.52 227.556 410.82 228.601 409.84 229.33C408.867 230.059 407.636 230.523 406.354 230.538C405.72 230.545 405.072 230.449 404.467 230.221C403.856 230 403.288 229.647 402.699 229.293C402.116 228.94 401.52 228.564 400.849 228.299C400.186 228.034 399.39 227.924 398.668 228.167C397.938 228.395 397.356 228.94 396.914 229.514C396.464 230.096 396.11 230.744 395.749 231.362C395.388 231.974 394.953 232.541 394.43 232.975C393.907 233.409 393.259 233.697 392.617 233.593C391.976 233.505 391.446 233.049 391.136 232.474C390.819 231.9 390.672 231.23 390.62 230.567C390.547 229.249 390.834 227.872 390.51 226.525C390.348 225.855 389.987 225.229 389.478 224.78C388.977 224.323 388.387 224.021 387.813 223.756C387.238 223.491 386.656 223.27 386.118 222.998C385.587 222.733 385.123 222.365 384.754 221.93C384.386 221.496 384.106 220.988 384.054 220.458C384.032 220.193 384.076 219.935 384.172 219.699C384.29 219.471 384.437 219.25 384.636 219.096C385.034 218.772 385.565 218.646 386.081 218.588C386.604 218.529 387.135 218.529 387.658 218.499C388.181 218.47 388.704 218.418 389.198 218.241C389.684 218.072 390.141 217.755 390.407 217.321C390.945 216.437 390.878 215.466 390.981 214.641C391.04 213.794 391.328 213.043 391.792 212.469C392.721 211.298 394.106 210.915 395.13 211.077C396.169 211.224 396.877 211.718 397.275 212.093C397.68 212.476 397.82 212.741 397.842 212.726V212.749Z" fill="#FAFAFA"/>
<path d="M410.245 200.321C410.245 200.321 410.709 200.851 411.77 201.072C412.293 201.182 412.942 201.219 413.649 201.087C414.335 200.939 415.138 200.638 415.661 199.931C416.162 199.231 416.324 198.436 416.383 197.737C416.442 197.03 416.369 196.396 416.251 195.874C416.015 194.821 415.484 194.327 415.47 194.364C415.418 194.401 415.831 194.916 415.985 195.925C416.066 196.426 416.111 197.037 416.03 197.7C415.956 198.355 415.779 199.099 415.352 199.695C414.917 200.292 414.209 200.579 413.576 200.733C412.927 200.873 412.315 200.866 411.822 200.8C410.812 200.66 410.281 200.255 410.245 200.314V200.321Z" fill="#FAFAFA"/>
<path d="M378.52 198.442C378.52 198.442 378.52 198.516 378.572 198.649C378.616 198.781 378.704 198.965 378.859 199.179C379.154 199.606 379.758 200.151 380.694 200.401C381.151 200.519 381.696 200.556 382.249 200.438C382.816 200.32 383.34 199.967 383.819 199.598C384.305 199.238 384.791 198.811 385.373 198.649C385.948 198.472 386.582 198.722 386.943 199.267C387.326 199.805 387.54 200.46 387.85 201.056C388.144 201.675 388.616 202.198 389.154 202.536C390.23 203.243 391.505 203.258 392.382 202.89C393.273 202.529 393.804 201.918 394.077 201.476C394.349 201.027 394.394 200.732 394.379 200.725C394.349 200.71 394.254 200.983 393.951 201.388C393.657 201.785 393.126 202.323 392.286 202.632C391.468 202.941 390.318 202.897 389.353 202.242C388.867 201.918 388.469 201.461 388.196 200.887C387.901 200.313 387.695 199.65 387.267 199.039C387.054 198.737 386.759 198.457 386.39 198.325C386.029 198.185 385.631 198.177 385.285 198.281C384.585 198.494 384.099 198.951 383.62 199.311C383.148 199.687 382.691 200.003 382.19 200.121C381.696 200.246 381.202 200.224 380.775 200.129C379.905 199.93 379.316 199.459 378.999 199.076C378.675 198.693 378.572 198.42 378.542 198.435L378.52 198.442Z" fill="#FAFAFA"/>
<path d="M373.265 227.35C373.265 227.35 373.575 227.188 374.083 226.82C374.584 226.444 375.307 225.877 376.095 225.075C376.486 224.67 376.898 224.199 377.267 223.632C377.628 223.057 377.908 222.365 378.004 221.607C378.1 220.848 378.033 220.002 377.628 219.243C377.429 218.868 377.142 218.522 376.795 218.249C376.449 217.977 376.073 217.771 375.705 217.557C375.343 217.344 374.99 217.13 374.724 216.85C374.452 216.578 374.267 216.239 374.157 215.878C373.943 215.149 374.002 214.376 374.083 213.655C374.172 212.926 374.275 212.211 374.238 211.534C374.186 210.871 374.024 210.187 373.553 209.774C372.661 209.001 371.71 208.788 371.069 208.78C370.399 208.78 370.133 209.126 370.155 209.119C370.177 209.148 370.443 208.876 371.062 208.928C371.651 208.972 372.573 209.237 373.361 209.966C373.744 210.319 373.884 210.923 373.914 211.549C373.943 212.182 373.833 212.874 373.73 213.61C373.634 214.347 373.56 215.164 373.796 215.989C373.914 216.401 374.135 216.799 374.444 217.123C374.754 217.447 375.137 217.675 375.506 217.896C376.257 218.315 376.943 218.735 377.289 219.427C377.65 220.097 377.724 220.87 377.643 221.57C377.495 223.013 376.626 224.081 375.896 224.898C374.371 226.518 373.214 227.306 373.265 227.365V227.35Z" fill="#FAFAFA"/>
<path d="M388.675 241.959C388.675 241.959 388.557 241.937 388.328 241.937C388.1 241.937 387.768 241.944 387.341 241.995C386.493 242.091 385.233 242.29 383.848 243.012C382.484 243.711 381.003 245.125 380.546 247.186C380.325 248.195 380.414 249.381 381.003 250.375C381.578 251.361 382.558 252.186 383.774 252.444C384.378 252.569 385.02 252.495 385.565 252.348C386.11 252.208 386.626 252.127 387.098 252.318C387.569 252.495 387.967 252.841 388.284 253.232C388.608 253.622 388.859 254.064 389.11 254.505C389.589 255.382 390.163 256.265 391.033 256.7C391.873 257.134 392.794 257.193 393.561 257.001C394.342 256.81 394.939 256.346 395.322 255.853C395.712 255.359 395.904 254.844 396 254.424C396.096 253.997 396.081 253.651 396.051 253.43C396.022 253.202 395.985 253.092 395.978 253.092C395.934 253.092 396.066 253.57 395.853 254.388C395.742 254.785 395.536 255.264 395.152 255.72C394.777 256.169 394.217 256.582 393.494 256.736C392.787 256.898 391.932 256.825 391.18 256.42C390.414 256.022 389.891 255.22 389.419 254.336C388.94 253.475 388.365 252.429 387.23 251.965C386.663 251.729 386.014 251.833 385.476 251.972C384.924 252.12 384.401 252.171 383.855 252.068C382.772 251.84 381.858 251.089 381.335 250.183C380.79 249.278 380.701 248.203 380.9 247.253C381.313 245.316 382.691 243.947 383.988 243.24C385.307 242.511 386.538 242.275 387.37 242.135C388.21 242.003 388.682 241.988 388.682 241.951L388.675 241.959Z" fill="#FAFAFA"/>
<path d="M402.478 266.278C402.559 266.293 402.544 265.594 403.17 264.762C403.472 264.349 403.944 263.937 404.548 263.65C405.153 263.363 405.912 263.23 406.649 263.422C407.378 263.628 407.975 264.121 408.351 264.673C408.734 265.225 408.926 265.822 408.985 266.323C409.11 267.353 408.749 267.957 408.823 267.979C408.845 267.987 408.948 267.854 409.066 267.574C409.184 267.295 409.287 266.845 409.257 266.293C409.228 265.741 409.051 265.086 408.646 264.467C408.248 263.849 407.592 263.282 406.752 263.046C405.904 262.825 405.049 262.994 404.401 263.326C403.745 263.657 403.251 264.136 402.957 264.6C402.654 265.063 402.514 265.498 402.485 265.8C402.448 266.102 402.47 266.271 402.485 266.271L402.478 266.278Z" fill="#FAFAFA"/>
<path d="M400.112 276.992C400.149 276.992 400.178 276.646 400.444 276.087C400.702 275.542 401.232 274.761 402.212 274.275C403.163 273.782 404.615 273.76 405.809 274.548C406.413 274.923 406.826 275.556 407.297 276.226C407.54 276.558 407.791 276.904 408.137 277.184C408.476 277.471 408.941 277.67 409.42 277.662C410.407 277.618 411.107 276.948 411.63 276.337C412.154 275.711 412.596 275.07 413.193 274.71C413.782 274.334 414.482 274.268 415.101 274.364C415.728 274.459 416.273 274.717 416.715 275.034C417.6 275.682 418.086 276.462 418.418 276.985C418.734 277.522 418.897 277.832 418.919 277.817C418.941 277.809 418.83 277.478 418.543 276.911C418.248 276.359 417.791 275.527 416.87 274.813C416.413 274.459 415.824 274.165 415.146 274.047C414.475 273.929 413.679 273.981 413.001 274.4C412.316 274.813 411.851 275.49 411.336 276.087C410.842 276.668 410.179 277.25 409.405 277.272C408.616 277.294 408.041 276.639 407.592 275.998C407.135 275.358 406.671 274.658 405.993 274.246C404.674 273.399 403.097 273.458 402.08 274.032C401.041 274.592 400.525 275.439 400.296 276.028C400.178 276.322 400.134 276.572 400.105 276.734C400.09 276.904 400.083 276.985 400.105 276.992H400.112Z" fill="#FAFAFA"/>
<path d="M394.46 250.279C394.504 250.345 395.182 249.69 396.582 249.344C397.275 249.174 398.129 249.086 399.065 249.211C399.994 249.329 401.004 249.66 401.866 250.301C402.735 250.934 403.318 251.825 403.634 252.694C403.944 253.57 403.995 254.439 403.9 255.138C403.701 256.559 403.037 257.259 403.119 257.303C403.133 257.318 403.303 257.156 403.531 256.81C403.767 256.471 404.025 255.911 404.165 255.175C404.298 254.439 404.276 253.518 403.966 252.576C403.649 251.641 403.03 250.669 402.094 249.992C401.166 249.299 400.09 248.968 399.11 248.858C398.122 248.747 397.23 248.865 396.516 249.079C395.801 249.292 395.27 249.587 394.939 249.837C394.607 250.087 394.452 250.257 394.467 250.271L394.46 250.279Z" fill="#FAFAFA"/>
<defs>
<linearGradient id="paint0_linear_481_5195" x1="298.128" y1="194.565" x2="189.901" y2="194.565" gradientUnits="userSpaceOnUse">
<stop stop-color="#6D53FF"/>
<stop offset="1" stop-color="#8A49F7"/>
</linearGradient>
<linearGradient id="paint1_linear_481_5195" x1="63.0864" y1="37.7318" x2="12.9978" y2="32.2858" gradientUnits="userSpaceOnUse">
<stop stop-color="#6D53FF"/>
<stop offset="1" stop-color="#8A49F7"/>
</linearGradient>
<linearGradient id="paint2_linear_481_5195" x1="237.197" y1="44.2428" x2="223.898" y2="9.82177" gradientUnits="userSpaceOnUse">
<stop stop-color="#6D53FF"/>
<stop offset="1" stop-color="#8A49F7"/>
</linearGradient>
<linearGradient id="paint3_linear_481_5195" x1="458.302" y1="54.881" x2="397.028" y2="51.9889" gradientUnits="userSpaceOnUse">
<stop stop-color="#6D53FF"/>
<stop offset="1" stop-color="#8A49F7"/>
</linearGradient>
<linearGradient id="paint4_linear_481_5195" x1="446.812" y1="239.405" x2="366.869" y2="239.405" gradientUnits="userSpaceOnUse">
<stop stop-color="#6D53FF"/>
<stop offset="1" stop-color="#8A49F7"/>
</linearGradient>
</defs>
</svg>
