<svg width="456" height="330" viewBox="0 0 456 330" fill="none" xmlns="https://www.w3.org/2000/svg">
<path d="M368.121 281.375L368.15 323.624C368.15 325.134 367.53 326.496 366.527 327.472C365.943 328.047 365.229 328.484 364.432 328.743C363.91 328.911 363.356 329.003 362.777 329.003L291.414 329.053C290.836 329.053 290.281 328.964 289.759 328.796C288.963 328.54 288.246 328.103 287.661 327.528C286.658 326.555 286.036 325.193 286.033 323.683L286.003 281.434C286.003 279.85 286.685 278.429 287.776 277.441C288.726 276.58 289.992 276.055 291.376 276.052L362.739 276.002C364.126 276.002 365.391 276.524 366.341 277.385C367.433 278.37 368.118 279.791 368.121 281.375Z" fill="#5D46D1"/>
<path opacity="0.34" d="M366.527 327.472C365.943 328.047 365.229 328.483 364.432 328.743L289.759 328.796C288.962 328.539 288.245 328.103 287.661 327.528L319.821 302.403L327.07 296.738L334.329 302.394L366.524 327.472H366.527Z" fill="#FBE1FF"/>
<path d="M366.344 277.385L334.335 302.395L327.085 308.057L319.827 302.404L287.782 277.441C288.732 276.58 289.998 276.055 291.382 276.052L362.745 276.002C364.131 276.002 365.397 276.524 366.347 277.385H366.344Z" fill="#E9EFFF"/>
<path d="M246.505 0.472515L150.431 1.10938L151.388 145.37L247.462 144.733L246.505 0.472515Z" fill="#C0B7FC"/>
<path d="M238.108 13.7539L159.001 14.2783L159.037 19.5627L238.143 19.0383L238.108 13.7539Z" fill="white"/>
<path d="M238.212 29.5323L159.106 30.0566L159.141 35.341L238.247 34.8166L238.212 29.5323Z" fill="white"/>
<path d="M238.32 45.314L159.214 45.8384L159.249 51.1227L238.355 50.5983L238.32 45.314Z" fill="white"/>
<path d="M238.425 61.0957L159.319 61.6201L159.354 66.9045L238.46 66.3801L238.425 61.0957Z" fill="white"/>
<path d="M238.527 76.8745L159.42 77.3989L159.455 82.6833L238.562 82.1589L238.527 76.8745Z" fill="white"/>
<path d="M238.631 92.6587L159.525 93.1831L159.56 98.4674L238.666 97.9431L238.631 92.6587Z" fill="white"/>
<path d="M238.739 108.437L159.633 108.961L159.668 114.246L238.774 113.721L238.739 108.437Z" fill="white"/>
<path d="M238.844 124.219L159.738 124.743L159.773 130.028L238.879 129.503L238.844 124.219Z" fill="white"/>
<path d="M250.657 31.1709C249.294 30.475 247.886 29.7289 246.476 28.9504L246.904 28.1748C248.308 28.9474 249.707 29.6905 251.061 30.3806L250.657 31.168V31.1709Z" fill="#4741BB"/>
<path d="M287.316 41.4831C284.032 41.3681 280.908 41.0643 277.759 40.5542L277.901 39.6813C281.011 40.1855 284.103 40.4863 287.349 40.6013L287.316 41.486V41.4831ZM296.908 41.2943L296.846 40.4126C299.844 40.2032 302.939 39.8582 306.302 39.3599L306.432 40.2357C303.042 40.737 299.926 41.085 296.908 41.2973V41.2943ZM315.862 38.5725L315.688 37.7055C318.576 37.1246 321.624 36.4581 325.005 35.6649L325.209 36.5259C321.819 37.3222 318.762 37.9916 315.865 38.5725H315.862ZM268.395 38.4192C265.415 37.5433 262.458 36.4935 259.352 35.2078L259.691 34.3909C262.765 35.6619 265.695 36.7029 268.646 37.5699L268.395 38.4192ZM334.491 34.2435L334.273 33.3854C337.028 32.6835 340.05 31.8932 343.511 30.9731L343.738 31.8283C340.274 32.7484 337.25 33.5387 334.491 34.2405V34.2435Z" fill="#4741BB"/>
<path d="M352.991 29.3427L352.758 28.4875C354.251 28.0835 355.767 27.6707 357.313 27.252L357.546 28.1042C356 28.5229 354.481 28.9358 352.991 29.3398V29.3427Z" fill="#4741BB"/>
<path d="M448.122 162.502L447.402 161.989C447.402 161.989 448.441 160.52 449.739 157.969L450.527 158.37C449.196 160.986 448.166 162.443 448.122 162.502Z" fill="#4741BB"/>
<path d="M454.094 149.391L453.244 149.14C454.153 146.07 454.773 142.938 455.091 139.824L455.971 139.913C455.649 143.08 455.018 146.268 454.091 149.391H454.094ZM455.121 130.335C454.817 127.209 454.197 124.077 453.271 121.031L454.118 120.774C455.059 123.877 455.693 127.064 456 130.249L455.118 130.335H455.121ZM449.68 112.243C448.27 109.516 446.573 106.803 444.641 104.178L445.355 103.653C447.314 106.313 449.034 109.067 450.468 111.836L449.683 112.243H449.68ZM438.492 96.906C436.377 94.7002 434.031 92.5091 431.526 90.3918L432.098 89.7165C434.63 91.8545 436.996 94.0662 439.132 96.2955L438.492 96.9089V96.906ZM177.19 89.457C174.983 89.457 172.835 89.4098 170.802 89.3155L170.844 88.4308C173.824 88.5694 177.034 88.6048 180.409 88.5399L180.427 89.4246C179.329 89.4452 178.24 89.457 177.19 89.457ZM190.039 88.9999L189.98 88.1182C192.996 87.9177 196.209 87.6464 199.534 87.3102L199.623 88.189C196.288 88.5251 193.064 88.7994 190.039 88.9999ZM161.207 88.4367C157.788 87.9442 154.613 87.2601 151.772 86.4049L152.029 85.5585C154.829 86.4019 157.962 87.0772 161.334 87.5608L161.207 88.4367ZM209.173 87.0979L209.061 86.2191C212.065 85.8387 215.263 85.4022 218.567 84.9216L218.694 85.7974C215.384 86.281 212.18 86.7175 209.17 87.0979H209.173ZM423.964 84.5618C421.456 82.7866 418.765 81.0261 415.965 79.3275L416.426 78.5726C419.243 80.2829 421.952 82.0552 424.477 83.8393L423.967 84.5618H423.964ZM228.195 84.3436L228.056 83.4707C231.042 82.993 234.137 82.4828 237.527 81.9078L237.675 82.7807C234.285 83.3557 231.184 83.8688 228.195 84.3465V84.3436ZM142.87 82.6155C139.932 80.8904 137.433 78.7967 135.444 76.3933L136.126 75.8301C138.049 78.1538 140.469 80.1797 143.319 81.8518L142.87 82.6155ZM247.14 81.1381L246.986 80.2682C250.12 79.7167 253.271 79.1535 256.44 78.5844L256.596 79.4543C253.427 80.0234 250.273 80.5867 247.14 81.1381ZM266.046 77.7528L265.89 76.8828C269.035 76.3166 272.192 75.7505 275.349 75.1872L275.506 76.0571C272.349 76.6174 269.194 77.1866 266.049 77.7528H266.046ZM407.645 74.6151C404.963 73.2203 402.013 71.9758 398.873 70.9201L399.156 70.0826C402.337 71.1531 405.329 72.4152 408.052 73.8307L407.645 74.6151ZM284.959 74.3969L284.808 73.524C288.19 72.9401 291.285 72.4152 294.273 71.9198L294.418 72.7927C291.432 73.2881 288.337 73.813 284.959 74.3969ZM303.895 71.271L303.759 70.3982C307.049 69.888 310.247 69.4132 313.263 68.9856L313.387 69.8615C310.374 70.2861 307.179 70.7609 303.895 71.271ZM322.899 68.5964L322.79 67.7176C326.074 67.3107 329.287 66.945 332.34 66.6324L332.432 67.5112C329.384 67.8238 326.177 68.1865 322.899 68.5934V68.5964ZM389.665 68.4342C386.703 67.809 383.531 67.293 380.235 66.9008L380.341 66.022C383.664 66.4201 386.862 66.9391 389.848 67.5702L389.665 68.4371V68.4342ZM130.794 67.8945C130.239 66.2137 129.812 64.406 129.528 62.5187C129.39 61.5957 129.319 60.6579 129.319 59.7349C129.319 59.2572 129.337 58.7736 129.375 58.2988L130.257 58.3666C130.222 58.8207 130.204 59.2808 130.204 59.7349C130.204 60.6137 130.272 61.5072 130.405 62.386C130.682 64.2231 131.095 65.9836 131.635 67.6144L130.794 67.8916V67.8945ZM341.982 66.656L341.915 65.7743C345.21 65.5236 348.441 65.3319 351.512 65.1992L351.551 66.0839C348.488 66.2137 345.269 66.4053 341.982 66.656ZM370.702 66.0987C367.725 65.9453 364.583 65.8686 361.358 65.8686H361.134V64.984H361.361C364.601 64.984 367.761 65.0606 370.752 65.2169L370.708 66.1016L370.702 66.0987ZM133.19 49.5376L132.429 49.0864C133.951 46.5149 136.022 43.9995 138.583 41.605L139.188 42.2508C136.686 44.5863 134.668 47.0398 133.19 49.5376Z" fill="#4741BB"/>
<path d="M146.744 36.512L146.278 35.7601C147.706 34.8783 149.152 34.0851 150.459 33.4688L150.837 34.2679C149.559 34.8695 148.146 35.645 146.744 36.512Z" fill="#4741BB"/>
<path d="M320.063 21.7817L378.447 26.6474L337.754 49.9232L320.063 21.7817Z" fill="#4741BB"/>
<path d="M325.448 30.3454L378.447 26.6475L329.526 36.833L325.448 30.3454Z" fill="#2B1A82"/>
<path d="M325.448 30.3457L322.999 41.1505L331.157 39.4284L325.448 30.3457Z" fill="#2B1A82"/>
<path d="M329.525 36.833L322.999 41.1502L331.157 39.4281L329.525 36.833Z" fill="#D5E0F7"/>
<path d="M249.025 269.646H181.215V329.265H249.025V269.646Z" fill="#C0B7FC"/>
<path d="M249.022 329.265H273.523V269.646H249.022V329.265Z" fill="#5D46D1"/>
<path d="M238.277 284.501H170.466L181.215 269.647H249.025L238.277 284.501Z" fill="#DCE4F9"/>
<path d="M260.225 284.5H284.726L273.523 269.646H249.025L260.225 284.5Z" fill="#C1CEE5"/>
<path d="M176.211 258.966H96.2532V329.265H176.211V258.966Z" fill="#C0B7FC"/>
<path d="M176.214 329.269H205.102V258.969H176.214V329.269Z" fill="#5D46D1"/>
<path d="M163.535 276.483H83.5779L96.2531 258.966H176.211L163.535 276.483Z" fill="#DCE4F9"/>
<path d="M189.42 276.483H218.311L205.102 258.966H176.211L189.42 276.483Z" fill="#C1CEE5"/>
<path d="M117.765 309.601L119.736 294.188L136.751 294.966L132.172 310.893C132.172 310.893 122.028 312.686 117.762 309.601H117.765Z" fill="#F9D5CE"/>
<path d="M152.309 328.99L138.282 328.297L114.26 327.112L117.688 308.746C126.607 311.338 133.414 309.592 133.414 309.592C133.414 309.592 129.564 316.516 141.422 314.868C142.95 314.659 144.263 314.732 145.393 315.03C150.188 316.278 151.686 321.444 152.141 325.127C152.409 327.327 152.309 328.996 152.309 328.996V328.99Z" fill="url(#paint0_linear_481_5196)"/>
<path d="M152.309 328.99L138.282 328.297C137.403 318.997 142.661 315.965 145.39 315.027C150.184 316.275 151.683 321.441 152.138 325.124C152.406 327.324 152.306 328.993 152.306 328.993L152.309 328.99Z" fill="#9393D8"/>
<path d="M152.306 328.994L114.257 327.109L114.968 323.302L152.138 325.125C152.409 327.322 152.306 328.994 152.306 328.994Z" fill="#9393D8"/>
<path d="M138.171 314.042L135.2 319.073L136.133 319.623L139.104 314.592L138.171 314.042Z" fill="#9393D8"/>
<path d="M134.601 312.7L130.956 318.785L131.885 319.341L135.53 313.256L134.601 312.7Z" fill="#9393D8"/>
<path d="M131.066 311.704L127.988 316.625L128.906 317.198L131.985 312.278L131.066 311.704Z" fill="#9393D8"/>
<path d="M138.781 300.796C136.955 304.181 135.774 306.266 135.774 306.266C135.774 306.266 123.406 302.639 114.608 297.242C114.891 296.237 115.189 295.208 115.499 294.158C115.699 293.483 115.906 292.804 116.118 292.117C121.131 275.807 128.926 251.472 128.926 251.472C128.926 251.472 117.552 239.703 109.816 226.569V226.563C109.816 226.563 109.816 226.563 109.816 226.56C105.789 219.733 102.75 212.529 102.803 206.416C108.698 192.547 108.937 192.656 108.937 192.656L134.671 201.807C134.671 201.807 159.065 234.08 159.051 247.09C159.039 257.173 145.054 289.165 138.775 300.796H138.781Z" fill="#5D46D1"/>
<path d="M36.2761 304.284L42.6875 288.761L59.9123 296.655L51.6598 309.946C51.6598 309.946 39.6397 308.33 36.2761 304.281V304.284Z" fill="#F9D5CE"/>
<path d="M72.602 329.274L31.3103 321.509L36.5415 302.536C45.9092 306.809 53.1054 307.835 53.1054 307.835C53.1054 307.835 48.8685 314.326 62.1338 314.013C63.8451 313.975 65.2849 314.196 66.5005 314.618C71.652 316.396 72.7407 321.698 72.8381 325.411C72.8971 327.625 72.5991 329.277 72.5991 329.277L72.602 329.274Z" fill="url(#paint1_linear_481_5196)"/>
<path d="M72.6022 329.274L57.2302 328.315C56.6962 317.888 63.2462 315.272 66.5035 314.615C71.6551 316.393 72.7438 321.695 72.8411 325.408C72.9002 327.622 72.6022 329.274 72.6022 329.274Z" fill="#9393D8"/>
<path d="M72.6021 329.274C57.7789 329.2 43.9619 326.738 31.3103 321.509L32.5997 317.858C44.8293 323.255 58.4723 325.21 72.841 325.408C72.9 327.622 72.6021 329.274 72.6021 329.274Z" fill="#9393D8"/>
<path d="M58.6821 312.818L54.8491 317.487L55.7295 318.209L59.5625 313.541L58.6821 312.818Z" fill="#9393D8"/>
<path d="M55.8247 311.749L50.7346 316.323L51.4961 317.17L56.5862 312.595L55.8247 311.749Z" fill="#9393D8"/>
<path d="M53.5703 309.781L48.5361 313.079L49.1604 314.031L54.1945 310.733L53.5703 309.781Z" fill="#9393D8"/>
<path d="M61.8417 299.109C60.8651 300.651 59.9504 302.123 59.1095 303.512C45.6377 301.268 37.4856 290.982 37.4856 290.982L40.6485 285.117L46.1954 274.819L91.7623 190.259L92.4527 188.976C92.4527 188.976 107.131 194.355 120.783 205.935C113.888 224.46 78.6239 272.536 61.8387 299.109H61.8417Z" fill="#5D46D1"/>
<path d="M169.643 142.245C169.643 142.245 187.617 137.963 189.721 135.365C191.825 132.767 212.847 106.77 212.847 106.77L222.259 112.546C222.259 112.546 205.695 140.207 197.498 147.019C189.302 153.828 176.37 157.458 176.37 157.458L169.643 142.248V142.245Z" fill="#F9D5CE"/>
<path d="M140.605 209.252C140.605 209.252 120.279 216.044 91.6091 190.087C91.6121 190.07 91.618 190.049 91.6239 190.034C98.6224 160.194 105.255 146.674 109.867 140.549C113.782 135.35 116.246 135.477 116.246 135.477C116.246 135.477 119.641 134.011 125.534 133.796C130.175 133.619 136.374 134.232 143.673 136.96C144.638 137.317 145.614 137.709 146.618 138.148C164.819 146.087 140.605 209.252 140.605 209.252Z" fill="url(#paint2_linear_481_5196)"/>
<path d="M187.322 155.344C177.824 160.935 164.199 164.981 152.884 162.763C149.532 162.108 146.381 160.902 143.602 159.024C131.434 150.808 148.411 139.26 148.411 139.26C148.411 139.26 162.19 144.813 179.173 137.904C179.173 137.904 186.065 146.927 187.174 153.648C187.272 154.235 187.325 154.798 187.325 155.344H187.322Z" fill="#5D46D1"/>
<path d="M211.534 109.756C211.534 109.756 211.321 104.236 216.582 98.922C221.843 93.6051 233.727 96.728 232.476 99.845C231.225 102.962 224.976 102.113 224.631 106.185C224.218 111.083 222.934 113.599 220.335 114.147C217.736 114.696 211.534 109.756 211.534 109.756Z" fill="#F9D5CE"/>
<path d="M224.905 106.064C224.743 105.941 220.901 103.003 220.297 100.945L220.701 100.827C221.267 102.753 225.121 105.699 225.159 105.728L224.905 106.061V106.064Z" fill="#EABDB7"/>
<path d="M211.749 107.48C211.749 107.48 210.858 99.0755 212.085 98.1908C213.313 97.3061 214.351 101.729 215.284 101.629C216.216 101.529 211.746 107.48 211.746 107.48H211.749Z" fill="#F9D5CE"/>
<path d="M138.781 300.796C136.955 304.181 135.775 306.266 135.775 306.266C135.775 306.266 123.406 302.639 114.608 297.242C115.071 295.585 115.579 293.869 116.119 292.117L138.781 300.796Z" fill="#9393D8"/>
<path d="M61.8417 299.109C60.8651 300.652 59.9504 302.123 59.1095 303.512C45.6377 301.268 37.4856 290.982 37.4856 290.982L40.6485 285.117C43.9501 288.175 52.2615 295.287 61.8417 299.109Z" fill="#9393D8"/>
<path d="M48.1989 291.23L47.4407 290.867C47.7947 290.13 82.9997 216.902 101.585 198.026L102.184 198.616C83.693 217.395 48.5501 290.495 48.196 291.233L48.1989 291.23Z" fill="#9393D8"/>
<path d="M130.921 262.478C125.849 268.839 119.11 286.836 115.499 294.161C115.699 293.486 115.906 292.808 116.118 292.121C121.131 275.81 128.926 251.476 128.926 251.476C128.926 251.476 117.552 239.707 109.816 226.572V226.566C109.816 226.566 109.816 226.566 109.816 226.563C109.84 226.316 110.802 217.366 121.394 234.328C132.128 251.523 138.226 253.322 130.921 262.481V262.478Z" fill="#3838A3"/>
<path d="M97.1115 194.759C97.1115 194.759 82.1615 215.012 73.0534 234.404C67.0551 247.173 54.2471 264.489 46.1953 274.822L91.7623 190.262L97.1115 194.759Z" fill="#3838A3"/>
<path d="M129.006 172.884C129.006 172.884 115.009 175.384 109.807 172.609C109.807 172.609 105.848 163.949 107.825 149.198C108.102 147.137 98.7489 185.655 91.6206 190.035C98.6191 160.195 105.252 146.674 109.863 140.549C113.829 137.918 118.791 135.887 123.244 140.163C129.118 145.81 134.571 154.214 129.006 172.887V172.884Z" fill="#3A5DCC"/>
<path d="M187.322 155.343C177.825 160.935 164.199 164.98 152.884 162.763C152.884 162.763 153.87 149.876 151.973 144.462C157.08 151.849 156.454 159.82 160.039 160.038C163.158 160.227 182.244 155.016 187.175 153.651C187.272 154.238 187.325 154.801 187.325 155.346L187.322 155.343Z" fill="#5D46D1"/>
<path d="M142.897 139.989C140.82 144.651 135.353 146.745 130.691 144.666C126.466 142.784 124.348 138.122 125.534 133.793C130.175 133.616 136.374 134.23 143.673 136.957C143.59 137.978 143.337 139.001 142.897 139.986V139.989Z" fill="#ABBBFF"/>
<path d="M146.499 123.009L140.616 138.724C139.312 142.209 135.426 143.979 131.939 142.672C128.451 141.369 126.681 137.485 127.988 133.999L133.871 118.285L146.499 123.006V123.009Z" fill="#F9D5CE"/>
<path d="M146.499 123.009L141.537 136.268C134.928 132.287 132.732 126.743 132.01 123.263L133.871 118.288L146.499 123.009Z" fill="#EABDB7"/>
<path d="M157.744 111.567C157.744 111.567 153.999 134.347 142.929 131.744C131.859 129.137 127.926 118.013 129.136 112.319C130.346 106.628 135.94 91.426 148.278 95.4542C160.617 99.4824 157.744 111.567 157.744 111.567Z" fill="#F9D5CE"/>
<path d="M137.976 106.698C137.976 106.698 142.437 109.497 157.142 107.586L153.84 110.824C153.84 110.824 166.545 109.019 161.863 96.8017C160.237 92.5553 141.369 87.377 137.365 90.1578C125.253 89.4649 119.842 120.732 131.659 123.622C135.645 113.557 137.976 106.698 137.976 106.698Z" fill="#0F094F"/>
<path d="M135.922 113.537C135.922 113.537 135.376 110.39 131.405 109.904C127.434 109.417 125.1 118.388 133.299 119.417C136.226 115.516 135.922 113.537 135.922 113.537Z" fill="#F9D5CE"/>
<path d="M129.416 115.377L129.387 114.584C131.806 114.495 132.417 112.313 132.443 112.219L133.211 112.419C133.202 112.449 132.435 115.262 129.416 115.374V115.377Z" fill="#EABDB7"/>
<path d="M132.015 113.917L131.336 114.328L132.387 116.06L133.065 115.649L132.015 113.917Z" fill="#EABDB7"/>
<path d="M327.041 113.221L327.056 197.115C327.056 200.111 325.823 202.818 323.831 204.753C322.672 205.891 321.249 206.761 319.668 207.271C318.629 207.607 317.529 207.787 316.381 207.787L174.679 207.811C173.532 207.811 172.428 207.631 171.392 207.298C169.811 206.788 168.389 205.918 167.229 204.779C165.235 202.845 164.002 200.138 164.002 197.142L163.987 113.248C163.987 110.104 165.347 107.279 167.51 105.324C169.395 103.614 171.909 102.573 174.662 102.57L316.364 102.546C319.116 102.546 321.63 103.587 323.515 105.298C325.681 107.253 327.041 110.078 327.041 113.221Z" fill="url(#paint3_linear_481_5196)"/>
<g opacity="0.3">
<path d="M323.831 204.756C322.672 205.894 321.25 206.764 319.668 207.274L171.39 207.301C169.808 206.79 168.386 205.92 167.227 204.782L231.113 154.928H231.116L245.517 143.687L259.921 154.922H259.924L323.828 204.753L323.831 204.756Z" fill="#FF748F"/>
</g>
<path d="M323.516 105.298L259.927 154.922H259.924L245.523 166.16L231.119 154.928H231.116L167.51 105.324C169.395 103.614 171.909 102.573 174.662 102.57L316.364 102.546C319.116 102.546 321.63 103.587 323.516 105.298Z" fill="#5D46D1"/>
<path d="M110.403 172.221C110.403 172.221 110.209 185.252 115.475 188.561C120.745 191.869 159.939 206.313 159.939 206.313L163.984 195.131C163.984 195.131 127.814 179.201 126.117 176.901C124.418 174.6 126.43 166.992 126.43 166.992L110.403 172.224V172.221Z" fill="#F9D5CE"/>
<path d="M128.316 171.176C122.064 174.444 109.474 172.264 109.474 172.264C109.474 172.264 108.964 147.272 111.979 141.027C112.032 140.914 112.091 140.799 112.156 140.684C114.242 136.898 119.5 136.261 122.509 139.363C124.288 141.198 125.917 143.507 127.038 146.385C131.187 157.045 130.251 159.746 128.316 171.176Z" fill="#5D46D1"/>
<path d="M162.137 195.275C162.137 195.275 165.931 194.443 170.366 195.608C174.8 196.773 181.675 202.939 177.665 207.846C173.653 212.75 167.817 214.596 161.016 207.979C154.212 201.361 162.14 195.278 162.14 195.278L162.137 195.275Z" fill="#F9D5CE"/>
<path d="M170.02 199.424L169.607 199.347C169.696 198.867 169.956 198.498 170.378 198.256C172.042 197.298 175.774 198.613 175.93 198.669L175.789 199.064C175.753 199.053 172.08 197.758 170.587 198.619C170.271 198.802 170.085 199.064 170.02 199.424Z" fill="#EABDB7"/>
<path d="M171.693 209.866C169.333 209.866 167.722 209.256 167.696 209.244L167.849 208.852C167.893 208.869 172.189 210.491 177.019 208.3L177.193 208.684C175.193 209.592 173.275 209.866 171.696 209.866H171.693Z" fill="#EABDB7"/>
<path d="M173.738 206.782C171.162 206.782 168.834 206.212 168.672 206.171L168.775 205.764C168.843 205.782 175.511 207.41 178.701 205.166L178.943 205.511C177.547 206.493 175.579 206.782 173.741 206.782H173.738Z" fill="#EABDB7"/>
<path d="M174.033 203.859C171.947 203.859 169.941 203.222 169.79 203.175L169.92 202.773C169.982 202.794 176.258 204.779 177.951 201.724L178.32 201.927C177.485 203.437 175.733 203.859 174.033 203.859Z" fill="#EABDB7"/>
<path d="M100.189 95.0652L114.21 116.076L88.2277 102.034C79.276 105.941 68.5865 108.209 57.1033 108.209C34.8037 108.209 15.487 99.6478 6.08681 87.168C2.19219 81.9986 0 76.1568 0 69.9729C0 48.8558 25.5658 31.7373 57.1033 31.7373C69.3005 31.7373 80.6037 34.297 89.88 38.6614C104.594 45.5766 114.21 57.0213 114.21 69.9729C114.21 79.5746 108.922 88.3535 100.189 95.0652Z" fill="url(#paint4_linear_481_5196)"/>
<path opacity="0.75" d="M83.5778 77.0532C87.6108 77.0532 90.8802 73.7855 90.8802 69.7546C90.8802 65.7237 87.6108 62.4561 83.5778 62.4561C79.5448 62.4561 76.2754 65.7237 76.2754 69.7546C76.2754 73.7855 79.5448 77.0532 83.5778 77.0532Z" fill="white"/>
<path opacity="0.75" d="M57.1032 77.0532C61.1362 77.0532 64.4056 73.7855 64.4056 69.7546C64.4056 65.7237 61.1362 62.4561 57.1032 62.4561C53.0702 62.4561 49.8008 65.7237 49.8008 69.7546C49.8008 73.7855 53.0702 77.0532 57.1032 77.0532Z" fill="white"/>
<path opacity="0.75" d="M30.6288 77.0532C34.6618 77.0532 37.9312 73.7855 37.9312 69.7546C37.9312 65.7237 34.6618 62.4561 30.6288 62.4561C26.5958 62.4561 23.3264 65.7237 23.3264 69.7546C23.3264 73.7855 26.5958 77.0532 30.6288 77.0532Z" fill="white"/>
<path opacity="0.11" d="M89.88 38.6614C82.4242 46.2135 72.4664 54.6032 59.3604 62.813C56.3834 64.6767 53.2441 66.5315 49.9337 68.3658C37.7512 75.1217 23.2615 81.5857 6.08681 87.168C2.19219 81.9986 0 76.1568 0 69.9729C0 48.8558 25.5658 31.7373 57.1033 31.7373C69.3005 31.7373 80.6037 34.297 89.88 38.6614Z" fill="white"/>
<defs>
<linearGradient id="paint0_linear_481_5196" x1="152.327" y1="318.871" x2="114.26" y2="318.871" gradientUnits="userSpaceOnUse">
<stop stop-color="#C757FF"/>
<stop offset="1" stop-color="#6D53FF"/>
</linearGradient>
<linearGradient id="paint1_linear_481_5196" x1="72.8458" y1="315.906" x2="31.3103" y2="315.906" gradientUnits="userSpaceOnUse">
<stop stop-color="#C757FF"/>
<stop offset="1" stop-color="#6D53FF"/>
</linearGradient>
<linearGradient id="paint2_linear_481_5196" x1="153.397" y1="171.911" x2="91.6091" y2="171.911" gradientUnits="userSpaceOnUse">
<stop stop-color="#C757FF"/>
<stop offset="1" stop-color="#6D53FF"/>
</linearGradient>
<linearGradient id="paint3_linear_481_5196" x1="163.987" y1="154.839" x2="327.056" y2="154.839" gradientUnits="userSpaceOnUse">
<stop stop-color="#6D53FF"/>
<stop offset="1" stop-color="#8A49F7"/>
</linearGradient>
<linearGradient id="paint4_linear_481_5196" x1="7.40245e-07" y1="73.6347" x2="114.21" y2="73.6347" gradientUnits="userSpaceOnUse">
<stop stop-color="#6D53FF"/>
<stop offset="1" stop-color="#8A49F7"/>
</linearGradient>
</defs>
</svg>
