<svg width="500" height="500" viewBox="0 0 500 500" fill="none" xmlns="http://www.w3.org/2000/svg">
<path d="M449.9 398.49H416.78V398.74H449.9V398.49Z" fill="#EBEBEB"/>
<path d="M331.22 401.21H322.53V401.46H331.22V401.21Z" fill="#EBEBEB"/>
<path d="M415.78 389.21H396.59V389.46H415.78V389.21Z" fill="#EBEBEB"/>
<path d="M95.65 390.89H52.46V391.14H95.65V390.89Z" fill="#EBEBEB"/>
<path d="M110.89 390.89H104.56V391.14H110.89V390.89Z" fill="#EBEBEB"/>
<path d="M225.15 395.11H131.47V395.36H225.15V395.11Z" fill="#EBEBEB"/>
<path d="M237 337.8H43.92C42.4056 337.8 40.9532 337.198 39.8824 336.128C38.8115 335.057 38.21 333.604 38.21 332.09V60.66C38.2231 59.1543 38.8305 57.7147 39.9 56.6547C40.9694 55.5947 42.4142 54.9999 43.92 55H237C238.514 55 239.967 55.6016 241.038 56.6724C242.108 57.7433 242.71 59.1956 242.71 60.71V332.09C242.71 333.604 242.108 335.057 241.038 336.128C239.967 337.198 238.514 337.8 237 337.8ZM43.92 55.2C42.4727 55.2026 41.0855 55.7787 40.0621 56.8021C39.0387 57.8255 38.4626 59.2127 38.46 60.66V332.09C38.4626 333.537 39.0387 334.924 40.0621 335.948C41.0855 336.971 42.4727 337.547 43.92 337.55H237C238.447 337.547 239.834 336.971 240.858 335.948C241.881 334.924 242.457 333.537 242.46 332.09V60.66C242.457 59.2127 241.881 57.8255 240.858 56.8021C239.834 55.7787 238.447 55.2026 237 55.2H43.92Z" fill="#EBEBEB"/>
<path d="M453.31 337.8H260.21C258.696 337.797 257.246 337.195 256.175 336.125C255.105 335.054 254.503 333.604 254.5 332.09V60.66C254.516 59.1551 255.124 57.7171 256.193 56.6576C257.262 55.5981 258.705 55.0025 260.21 55H453.31C454.812 55.0052 456.252 55.6022 457.317 56.6617C458.382 57.7212 458.987 59.1578 459 60.66V332.09C459 333.601 458.401 335.05 457.335 336.121C456.268 337.191 454.821 337.795 453.31 337.8ZM260.21 55.2C258.763 55.2026 257.375 55.7787 256.352 56.8021C255.329 57.8255 254.753 59.2127 254.75 60.66V332.09C254.753 333.537 255.329 334.924 256.352 335.948C257.375 336.971 258.763 337.547 260.21 337.55H453.31C454.757 337.547 456.145 336.971 457.168 335.948C458.191 334.924 458.767 333.537 458.77 332.09V60.66C458.767 59.2127 458.191 57.8255 457.168 56.8021C456.145 55.7787 454.757 55.2026 453.31 55.2H260.21Z" fill="#EBEBEB"/>
<path d="M500 382.4H0V382.65H500V382.4Z" fill="#EBEBEB"/>
<path d="M81.4499 164.24H82.5099C82.86 164.24 83.1957 164.379 83.4433 164.627C83.6908 164.874 83.8299 165.21 83.8299 165.56V365.49H80.1299V165.56C80.1299 165.21 80.269 164.874 80.5165 164.627C80.7641 164.379 81.0998 164.24 81.4499 164.24Z" fill="#EBEBEB"/>
<path d="M91.9311 211.463C103.355 206.731 108.781 193.633 104.048 182.209C99.3164 170.785 86.2189 165.359 74.7945 170.092C63.3702 174.824 57.945 187.921 62.6772 199.346C67.4093 210.77 80.5067 216.195 91.9311 211.463Z" fill="#E0E0E0"/>
<path d="M90.5481 210.086C101.972 205.354 107.398 192.256 102.665 180.832C97.9333 169.408 84.8359 163.983 73.4115 168.715C61.9871 173.447 56.562 186.544 61.2941 197.969C66.0262 209.393 79.1237 214.818 90.5481 210.086Z" fill="#F0F0F0"/>
<path d="M92.66 195C92.662 195.432 92.5356 195.855 92.2968 196.215C92.058 196.575 91.7177 196.856 91.3189 197.022C90.9202 197.188 90.481 197.232 90.0572 197.149C89.6334 197.065 89.244 196.857 88.9386 196.552C88.6331 196.246 88.4252 195.857 88.3415 195.433C88.2577 195.009 88.3017 194.57 88.4679 194.171C88.6341 193.772 88.9151 193.432 89.2751 193.193C89.6352 192.955 90.058 192.828 90.49 192.83C91.0647 192.833 91.6152 193.062 92.0215 193.469C92.4279 193.875 92.6574 194.425 92.66 195Z" fill="#E0E0E0"/>
<path d="M75.0001 195C75.0021 195.432 74.8759 195.854 74.6376 196.214C74.3993 196.574 74.0595 196.855 73.6613 197.021C73.2632 197.188 72.8245 197.232 72.401 197.149C71.9774 197.066 71.5881 196.86 71.2822 196.555C70.9763 196.251 70.7677 195.862 70.6828 195.439C70.5978 195.016 70.6404 194.577 70.8051 194.178C70.9698 193.779 71.2492 193.438 71.6079 193.198C71.9667 192.958 72.3885 192.83 72.8201 192.83C73.3958 192.833 73.9472 193.062 74.3552 193.468C74.7632 193.874 74.9949 194.424 75.0001 195Z" fill="#E0E0E0"/>
<path d="M94.6301 181.37H67.4801C67.1105 181.37 66.7559 181.516 66.4936 181.777C66.2314 182.037 66.0827 182.39 66.0801 182.76V195H69.3101C69.3101 194.072 69.6788 193.182 70.3352 192.525C70.9916 191.869 71.8818 191.5 72.8101 191.5C73.7383 191.5 74.6286 191.869 75.285 192.525C75.9413 193.182 76.3101 194.072 76.3101 195H87.0001C87.0001 194.072 87.3688 193.182 88.0252 192.525C88.6816 191.869 89.5718 191.5 90.5001 191.5C91.4283 191.5 92.3186 191.869 92.975 192.525C93.6313 193.182 94.0001 194.072 94.0001 195H97.5501V184.25C97.5488 183.869 97.4721 183.492 97.3244 183.14C97.1767 182.789 96.9609 182.47 96.6895 182.202C96.4181 181.935 96.0964 181.723 95.7429 181.58C95.3895 181.438 95.0113 181.366 94.6301 181.37Z" fill="#E0E0E0"/>
<path d="M70.9999 184.18H67.6799V190.57H70.9999V184.18Z" fill="#F5F5F5"/>
<path d="M76.1 184.18H72.78V187.5H76.1V184.18Z" fill="#F5F5F5"/>
<path d="M81.2099 184.18H77.8899V187.5H81.2099V184.18Z" fill="#F5F5F5"/>
<path d="M86.31 184.18H82.99V187.5H86.31V184.18Z" fill="#F5F5F5"/>
<path d="M97.5099 184.18H94.1899V187.5H97.5099V184.18Z" fill="#F5F5F5"/>
<path d="M91.4201 184.18H88.1001V190.57H91.4201V184.18Z" fill="#F5F5F5"/>
<path d="M293.36 261.63H263.02V365.77H293.36V261.63Z" fill="#F5F5F5"/>
<path d="M329.18 264.88H291.61V365.78H329.18V264.88Z" fill="#E6E6E6"/>
<path d="M313 270.26H307.79V275.47H313V270.26Z" fill="#FEFEFE"/>
<path d="M301.79 279.74H296.58V284.95H301.79V279.74Z" fill="#FEFEFE"/>
<path d="M313 289.22H307.79V294.43H313V289.22Z" fill="#FEFEFE"/>
<path d="M324.21 289.22H319V294.43H324.21V289.22Z" fill="#FEFEFE"/>
<path d="M301.79 298.7H296.58V303.91H301.79V298.7Z" fill="#FEFEFE"/>
<path d="M324.21 298.7H319V303.91H324.21V298.7Z" fill="#FEFEFE"/>
<path d="M313 308.18H307.79V313.39H313V308.18Z" fill="#FEFEFE"/>
<path d="M313 327.14H307.79V332.35H313V327.14Z" fill="#FEFEFE"/>
<path d="M324.21 327.14H319V332.35H324.21V327.14Z" fill="#FEFEFE"/>
<path d="M301.79 336.62H296.58V341.83H301.79V336.62Z" fill="#FEFEFE"/>
<path d="M324.21 336.62H319V341.83H324.21V336.62Z" fill="#FEFEFE"/>
<path d="M267.99 365.77H226.56V292.81L267.99 277.13V365.77Z" fill="#EBEBEB"/>
<path d="M250.33 292.27H244.22V298.38H250.33V292.27Z" fill="white"/>
<path d="M263.48 292.27H257.37V298.38H263.48V292.27Z" fill="white"/>
<path d="M237.19 303.39H231.08V309.5H237.19V303.39Z" fill="white"/>
<path d="M250.33 314.51H244.22V320.62H250.33V314.51Z" fill="white"/>
<path d="M263.48 314.51H257.37V320.62H263.48V314.51Z" fill="white"/>
<path d="M237.19 325.62H231.08V331.73H237.19V325.62Z" fill="white"/>
<path d="M244.23 345.34H250.34V339.23H244.23V345.34Z" fill="white"/>
<path d="M231.07 345.34H237.18V339.23H231.07V345.34Z" fill="white"/>
<path d="M257.37 356.45H263.48V350.34H257.37V356.45Z" fill="white"/>
<path d="M375.09 247.45V227.21H370.24V204.61H366.16V194.4H349.78V204.61H345.7V227.21H340.85V247.45H335.94V365.77H380V247.45H375.09Z" fill="#F0F0F0"/>
<path d="M361.03 253.76H354.92V259.87H361.03V253.76Z" fill="#FEFEFE"/>
<path d="M374.17 253.76H368.06V259.87H374.17V253.76Z" fill="#FEFEFE"/>
<path d="M347.88 276H341.77V282.11H347.88V276Z" fill="#FEFEFE"/>
<path d="M374.17 276H368.06V282.11H374.17V276Z" fill="#FEFEFE"/>
<path d="M361.03 287.11H354.92V293.22H361.03V287.11Z" fill="#FEFEFE"/>
<path d="M347.88 298.23H341.77V304.34H347.88V298.23Z" fill="#FEFEFE"/>
<path d="M361.03 298.23H354.92V304.34H361.03V298.23Z" fill="#FEFEFE"/>
<path d="M374.17 309.35H368.06V315.46H374.17V309.35Z" fill="#FEFEFE"/>
<path d="M347.88 320.47H341.77V326.58H347.88V320.47Z" fill="#FEFEFE"/>
<path d="M361.03 331.59H354.92V337.7H361.03V331.59Z" fill="#FEFEFE"/>
<path d="M374.17 331.59H368.06V337.7H374.17V331.59Z" fill="#FEFEFE"/>
<path d="M419.51 365.77H386.76V256.83L419.51 272.42V365.77Z" fill="#F5F5F5"/>
<path d="M398.58 273.49H392.47V279.6H398.58V273.49Z" fill="white"/>
<path d="M411.72 284.61H405.61V290.72H411.72V284.61Z" fill="white"/>
<path d="M398.58 295.73H392.47V301.84H398.58V295.73Z" fill="white"/>
<path d="M411.72 306.85H405.61V312.96H411.72V306.85Z" fill="white"/>
<path d="M411.72 317.97H405.61V324.08H411.72V317.97Z" fill="white"/>
<path d="M398.58 329.08H392.47V335.19H398.58V329.08Z" fill="white"/>
<path d="M411.72 351.32H405.61V357.43H411.72V351.32Z" fill="white"/>
<path d="M128.61 316.38H92.8999V331.97H128.61V316.38Z" fill="#F0F0F0"/>
<path d="M90 321.68H92.9V326.68H90C89.4484 326.68 88.9193 326.461 88.5292 326.071C88.1392 325.681 87.92 325.152 87.92 324.6V323.78C87.9174 323.505 87.9692 323.232 88.0726 322.978C88.1759 322.723 88.3287 322.491 88.5221 322.296C88.7155 322.101 88.9457 321.946 89.1994 321.84C89.4531 321.734 89.7252 321.68 90 321.68Z" fill="#F0F0F0"/>
<path d="M131.5 326.66H128.6V321.66H131.5C132.052 321.66 132.581 321.879 132.971 322.269C133.361 322.659 133.58 323.188 133.58 323.74V324.56C133.583 324.835 133.531 325.107 133.427 325.362C133.324 325.617 133.171 325.848 132.978 326.044C132.784 326.239 132.554 326.394 132.301 326.5C132.047 326.605 131.775 326.66 131.5 326.66Z" fill="#F0F0F0"/>
<path d="M95.3799 314.22H90.4099V334.12H95.3799V314.22Z" fill="#E0E0E0"/>
<path d="M131.09 314.22H126.12V334.12H131.09V314.22Z" fill="#E0E0E0"/>
<path d="M120.35 360.37H101.16V306.52C101.16 305.26 101.408 304.012 101.891 302.848C102.373 301.684 103.081 300.626 103.972 299.735C104.864 298.845 105.922 298.138 107.087 297.657C108.252 297.176 109.5 296.929 110.76 296.93C113.303 296.93 115.743 297.94 117.541 299.739C119.34 301.537 120.35 303.977 120.35 306.52V360.37Z" fill="#E6E6E6"/>
<path d="M103.85 357.16H117.67C119.301 357.16 120.865 357.808 122.019 358.961C123.172 360.115 123.82 361.679 123.82 363.31V367H97.7V363.3C97.7026 361.671 98.3517 360.109 99.5048 358.958C100.658 357.806 102.221 357.16 103.85 357.16Z" fill="#E0E0E0"/>
<path d="M118.745 326.006C119.787 321.593 117.054 317.171 112.641 316.13C108.228 315.088 103.806 317.821 102.764 322.234C101.723 326.647 104.456 331.069 108.869 332.111C113.282 333.152 117.704 330.419 118.745 326.006Z" fill="#FAFAFA"/>
<path d="M112.71 324.14C112.72 324.54 112.61 324.933 112.394 325.27C112.178 325.606 111.866 325.87 111.499 326.028C111.131 326.185 110.725 326.229 110.333 326.153C109.94 326.078 109.579 325.886 109.296 325.604C109.014 325.321 108.822 324.96 108.747 324.568C108.671 324.175 108.715 323.769 108.873 323.401C109.03 323.034 109.294 322.722 109.631 322.506C109.967 322.29 110.36 322.18 110.76 322.19C111.273 322.203 111.762 322.412 112.125 322.775C112.488 323.138 112.697 323.627 112.71 324.14Z" fill="#EBEBEB"/>
<path d="M97.7 309.25C97.6986 308.923 97.7622 308.598 97.8868 308.296C98.0115 307.993 98.1948 307.718 98.4263 307.486C98.6578 307.255 98.9328 307.072 99.2355 306.947C99.5382 306.822 99.8626 306.759 100.19 306.76H121.33C121.656 306.76 121.98 306.825 122.281 306.95C122.583 307.075 122.857 307.259 123.087 307.49C123.318 307.721 123.5 307.996 123.624 308.298C123.748 308.6 123.811 308.924 123.81 309.25C123.81 309.909 123.549 310.541 123.084 311.007C122.619 311.474 121.989 311.737 121.33 311.74H100.19C99.5296 311.74 98.8962 311.478 98.4293 311.011C97.9623 310.544 97.7 309.91 97.7 309.25Z" fill="#E0E0E0"/>
<path d="M106.58 336.81C107.24 336.81 107.874 337.072 108.341 337.539C108.808 338.006 109.07 338.64 109.07 339.3V352.15C109.067 352.81 108.804 353.441 108.338 353.908C107.871 354.374 107.24 354.637 106.58 354.64C105.921 354.637 105.289 354.374 104.822 353.908C104.356 353.441 104.093 352.81 104.09 352.15V339.3C104.09 338.64 104.352 338.006 104.819 337.539C105.286 337.072 105.92 336.81 106.58 336.81Z" fill="#F5F5F5"/>
<path d="M114.93 336.81C115.59 336.813 116.221 337.076 116.688 337.542C117.154 338.009 117.417 338.64 117.42 339.3V352.15C117.417 352.81 117.154 353.441 116.688 353.908C116.221 354.374 115.59 354.637 114.93 354.64C114.27 354.637 113.639 354.374 113.172 353.908C112.706 353.441 112.443 352.81 112.44 352.15V339.3C112.44 338.64 112.702 338.006 113.169 337.539C113.636 337.072 114.27 336.81 114.93 336.81Z" fill="#F5F5F5"/>
<path d="M89.4601 365.7H48.0801V382.4H89.4601V365.7Z" fill="#E6E6E6"/>
<path d="M129.65 365.7H88.27V382.4H129.65V365.7Z" fill="#F5F5F5"/>
<path d="M170.03 365.7H128.65V382.4H170.03V365.7Z" fill="#E6E6E6"/>
<path d="M210.21 365.7H168.83V382.4H210.21V365.7Z" fill="#F5F5F5"/>
<path d="M250.6 365.7H209.22V382.4H250.6V365.7Z" fill="#E6E6E6"/>
<path d="M290.78 365.7H249.4V382.4H290.78V365.7Z" fill="#F5F5F5"/>
<path d="M331.17 365.7H289.79V382.4H331.17V365.7Z" fill="#E6E6E6"/>
<path d="M371.35 365.7H329.97V382.4H371.35V365.7Z" fill="#F5F5F5"/>
<path d="M411.74 365.7H370.36V382.4H411.74V365.7Z" fill="#E6E6E6"/>
<path d="M451.92 365.7H410.54V382.4H451.92V365.7Z" fill="#F5F5F5"/>
<path d="M245.18 423.71C352.263 423.71 439.07 418.642 439.07 412.39C439.07 406.138 352.263 401.07 245.18 401.07C138.098 401.07 51.29 406.138 51.29 412.39C51.29 418.642 138.098 423.71 245.18 423.71Z" fill="#F5F5F5"/>
<path d="M335 125.63H310.56C309.626 125.647 308.7 125.465 307.842 125.096C306.985 124.726 306.216 124.179 305.587 123.489C304.957 122.799 304.482 121.983 304.193 121.095C303.904 120.207 303.808 119.268 303.91 118.34L306 93.8999C306.206 91.9156 307.136 90.0767 308.611 88.734C310.087 87.3913 312.005 86.6387 314 86.6199H338.4C339.333 86.6015 340.259 86.7823 341.117 87.1504C341.975 87.5185 342.744 88.0653 343.373 88.7543C344.003 89.4434 344.478 90.2588 344.767 91.1462C345.056 92.0335 345.153 92.9723 345.05 93.8999L342.92 118.34C342.716 120.312 341.798 122.141 340.339 123.483C338.881 124.826 336.982 125.589 335 125.63Z" fill="url(#paint0_linear_2204_1384)"/>
<path d="M336.34 124.39H311.9C310.967 124.407 310.04 124.225 309.183 123.856C308.325 123.486 307.556 122.939 306.927 122.249C306.297 121.559 305.822 120.743 305.533 119.855C305.244 118.967 305.148 118.028 305.25 117.1L307.39 92.66C307.593 90.6867 308.512 88.8561 309.973 87.5146C311.434 86.173 313.337 85.4136 315.32 85.38H339.75C340.683 85.3631 341.608 85.5451 342.465 85.9137C343.322 86.2823 344.09 86.8292 344.72 87.5179C345.349 88.2065 345.824 89.0213 346.114 89.9079C346.403 90.7945 346.501 91.7327 346.4 92.66L344.26 117.1C344.06 119.073 343.143 120.905 341.684 122.248C340.225 123.592 338.323 124.354 336.34 124.39Z" fill="url(#paint1_linear_2204_1384)"/>
<path opacity="0.5" d="M336.34 124.39H311.9C310.967 124.407 310.04 124.225 309.183 123.856C308.325 123.486 307.556 122.939 306.927 122.249C306.297 121.559 305.822 120.743 305.533 119.855C305.244 118.967 305.148 118.028 305.25 117.1L307.39 92.66C307.593 90.6867 308.512 88.8561 309.973 87.5146C311.434 86.173 313.337 85.4136 315.32 85.38H339.75C340.683 85.3631 341.608 85.5451 342.465 85.9137C343.322 86.2823 344.09 86.8292 344.72 87.5179C345.349 88.2065 345.824 89.0213 346.114 89.9079C346.403 90.7945 346.501 91.7327 346.4 92.66L344.26 117.1C344.06 119.073 343.143 120.905 341.684 122.248C340.225 123.592 338.323 124.354 336.34 124.39Z" fill="white"/>
<path d="M326.79 93.8601C319.16 93.8601 312.54 98.7801 312.01 104.86C311.898 106.596 312.272 108.328 313.09 109.863C313.908 111.398 315.137 112.675 316.64 113.55C315.696 115.301 314.492 116.899 313.07 118.29C315.115 118.282 317.136 117.842 319 117C319.909 116.592 320.777 116.096 321.59 115.52C322.666 115.739 323.762 115.849 324.86 115.85C332.49 115.85 339.11 110.93 339.64 104.85C340.17 98.7701 334.43 93.8601 326.79 93.8601Z" fill="white"/>
<path d="M340.33 96.19C339.247 96.2094 338.172 95.9977 337.178 95.569C336.183 95.1404 335.291 94.5045 334.561 93.704C333.832 92.9034 333.281 91.9565 332.947 90.9263C332.612 89.8962 332.5 88.8066 332.62 87.73C332.854 85.4417 333.919 83.3185 335.612 81.7615C337.305 80.2046 339.51 79.3218 341.81 79.28H343.43C344.512 79.2608 345.586 79.4722 346.58 79.9003C347.574 80.3284 348.465 80.9633 349.195 81.7628C349.924 82.5622 350.475 83.5079 350.81 84.5368C351.146 85.5657 351.258 86.6543 351.14 87.73C350.909 90.0117 349.853 92.1306 348.17 93.6884C346.487 95.2463 344.293 96.1359 342 96.19H340.33Z" fill="url(#paint2_linear_2204_1384)"/>
<path d="M344.05 87.7101C344.191 87.8856 344.295 88.0874 344.357 88.3038C344.419 88.5201 344.437 88.7467 344.41 88.9701C344.369 89.3441 344.227 89.6999 344 90.0001C343.746 90.3483 343.4 90.6185 343 90.7801C342.511 90.9917 341.982 91.094 341.45 91.0801C340.99 91.0823 340.532 91.0183 340.09 90.8901C339.694 90.7885 339.32 90.612 338.99 90.3701L339.69 89.1901C339.936 89.3891 340.217 89.5386 340.52 89.6301C340.842 89.7372 341.18 89.7912 341.52 89.7901C341.844 89.8004 342.165 89.7245 342.45 89.5701C342.559 89.5025 342.652 89.4104 342.719 89.301C342.787 89.1917 342.828 89.0681 342.84 88.9401C342.84 88.3901 342.49 88.1201 341.67 88.1201H341L341.09 87.1201L342.59 85.5701H339.77L339.88 84.3401H344.52L344.43 85.3401L342.79 87.0401C343.278 87.1009 343.727 87.3394 344.05 87.7101Z" fill="white"/>
<path d="M373.63 161.42H356.71C355.776 161.439 354.849 161.258 353.99 160.889C353.132 160.52 352.362 159.973 351.733 159.282C351.103 158.592 350.628 157.775 350.34 156.887C350.051 155.998 349.956 155.058 350.06 154.13L351.54 137.21C351.74 135.237 352.657 133.405 354.116 132.062C355.576 130.718 357.477 129.956 359.46 129.92H376.39C377.324 129.903 378.25 130.085 379.108 130.454C379.965 130.824 380.734 131.371 381.363 132.061C381.993 132.751 382.468 133.567 382.757 134.455C383.046 135.343 383.142 136.282 383.04 137.21L381.56 154.13C381.357 156.104 380.439 157.936 378.978 159.279C377.517 160.622 375.614 161.384 373.63 161.42Z" fill="url(#paint3_linear_2204_1384)"/>
<path d="M374.72 160.42H357.79C356.856 160.437 355.93 160.255 355.072 159.886C354.215 159.516 353.446 158.969 352.816 158.279C352.187 157.589 351.712 156.773 351.423 155.885C351.134 154.997 351.038 154.058 351.14 153.13L352.62 136.21C352.823 134.236 353.741 132.404 355.202 131.061C356.663 129.718 358.566 128.956 360.55 128.92H377.47C378.404 128.901 379.331 129.082 380.19 129.451C381.048 129.82 381.818 130.368 382.447 131.058C383.077 131.748 383.552 132.565 383.84 133.453C384.129 134.342 384.224 135.282 384.12 136.21L382.64 153.13C382.44 155.103 381.523 156.935 380.064 158.278C378.604 159.622 376.703 160.384 374.72 160.42Z" fill="url(#paint4_linear_2204_1384)"/>
<path opacity="0.5" d="M374.72 160.42H357.79C356.856 160.437 355.93 160.255 355.072 159.886C354.215 159.516 353.446 158.969 352.816 158.279C352.187 157.589 351.712 156.773 351.423 155.885C351.134 154.997 351.038 154.058 351.14 153.13L352.62 136.21C352.823 134.236 353.741 132.404 355.202 131.061C356.663 129.718 358.566 128.956 360.55 128.92H377.47C378.404 128.901 379.331 129.082 380.19 129.451C381.048 129.82 381.818 130.368 382.447 131.058C383.077 131.748 383.552 132.565 383.84 133.453C384.129 134.342 384.224 135.282 384.12 136.21L382.64 153.13C382.44 155.103 381.523 156.935 380.064 158.278C378.604 159.622 376.703 160.384 374.72 160.42Z" fill="white"/>
<path d="M379.37 136.5C378.399 136.517 377.436 136.327 376.544 135.943C375.653 135.559 374.853 134.99 374.198 134.273C373.544 133.556 373.049 132.708 372.748 131.785C372.446 130.862 372.345 129.885 372.45 128.92C372.66 126.866 373.616 124.961 375.136 123.564C376.656 122.167 378.636 121.376 380.7 121.34H382.15C383.121 121.321 384.085 121.51 384.978 121.894C385.87 122.277 386.671 122.847 387.326 123.564C387.981 124.281 388.475 125.13 388.776 126.054C389.077 126.977 389.177 127.955 389.07 128.92C388.86 130.974 387.905 132.88 386.384 134.276C384.864 135.673 382.884 136.464 380.82 136.5H379.37Z" fill="url(#paint5_linear_2204_1384)"/>
<path d="M383.19 128.63C383.373 128.797 383.513 129.007 383.597 129.24C383.68 129.474 383.706 129.724 383.67 129.97C383.647 130.33 383.522 130.677 383.31 130.97C383.081 131.284 382.775 131.532 382.42 131.69C381.978 131.88 381.501 131.972 381.02 131.96C380.608 131.96 380.197 131.902 379.8 131.79C379.439 131.7 379.1 131.54 378.8 131.32L379.43 130.26C379.65 130.443 379.905 130.58 380.18 130.66C380.471 130.752 380.775 130.799 381.08 130.8C381.37 130.811 381.657 130.742 381.91 130.6C382.009 130.539 382.092 130.456 382.153 130.357C382.214 130.258 382.251 130.146 382.26 130.03C382.275 129.919 382.259 129.805 382.213 129.703C382.167 129.6 382.093 129.513 382 129.45C381.671 129.29 381.305 129.221 380.94 129.25H379.42L380.02 125.9H383.65L383.55 127.01H381.07L380.88 128.14H381.36C382.009 128.08 382.658 128.253 383.19 128.63Z" fill="white"/>
<path d="M372.9 137.06H363.7C362.169 137.084 360.699 137.67 359.571 138.706C358.443 139.742 357.734 141.156 357.58 142.68L357.23 146.68C357.152 147.396 357.227 148.12 357.45 148.804C357.674 149.488 358.04 150.117 358.526 150.649C359.011 151.181 359.604 151.603 360.265 151.888C360.926 152.172 361.64 152.313 362.36 152.3H371.57C373.101 152.274 374.569 151.687 375.697 150.652C376.825 149.616 377.534 148.203 377.69 146.68L378.03 142.68C378.11 141.964 378.036 141.239 377.813 140.554C377.591 139.869 377.224 139.24 376.739 138.708C376.253 138.176 375.659 137.754 374.997 137.469C374.335 137.185 373.62 137.046 372.9 137.06ZM365.21 148.91L365.96 140.43L372.28 144.67L365.21 148.91Z" fill="white"/>
<path d="M269.49 89.22H243.49L217.34 388.53H243.34C249.272 388.421 254.959 386.143 259.326 382.127C263.693 378.11 266.437 372.633 267.04 366.73L289.38 111C289.683 108.226 289.391 105.419 288.525 102.767C287.659 100.114 286.238 97.6765 284.356 95.616C282.474 93.5555 280.175 91.9193 277.612 90.8165C275.049 89.7137 272.28 89.1695 269.49 89.22Z" fill="url(#paint6_linear_2204_1384)"/>
<path d="M238.6 388.53H131.6C128.809 388.58 126.039 388.034 123.476 386.929C120.912 385.825 118.613 384.186 116.732 382.124C114.851 380.061 113.431 377.621 112.567 374.967C111.703 372.313 111.414 369.505 111.72 366.73L134.09 111C134.693 105.098 137.437 99.6224 141.805 95.6073C146.172 91.5921 151.858 89.3163 157.79 89.2101H264.79C267.58 89.1608 270.349 89.7063 272.911 90.8104C275.474 91.9144 277.773 93.5517 279.653 95.6132C281.534 97.6747 282.954 100.113 283.819 102.766C284.684 105.419 284.974 108.226 284.67 111L262.3 366.73C261.697 372.633 258.953 378.11 254.586 382.127C250.219 386.143 244.532 388.421 238.6 388.53Z" fill="#263238"/>
<path opacity="0.2" d="M124.44 387.28C126.735 388.115 129.158 388.538 131.6 388.53H238.6C244.532 388.422 250.219 386.144 254.586 382.127C258.953 378.11 261.697 372.633 262.3 366.73L284.67 111C285.119 106.861 284.242 102.687 282.166 99.0784C280.091 95.4698 276.923 92.6132 273.12 90.9202L124.44 387.28Z" fill="white"/>
<path d="M222.31 97.7201C221.605 97.7334 220.929 98.0041 220.409 98.4811C219.89 98.9582 219.563 99.6087 219.49 100.31L219.15 104.19C218.952 106.087 218.067 107.847 216.662 109.136C215.256 110.426 213.427 111.156 211.52 111.19H207.21C206.312 111.207 205.422 111.032 204.597 110.678C203.772 110.324 203.032 109.798 202.426 109.136C201.82 108.474 201.361 107.691 201.081 106.838C200.801 105.985 200.705 105.083 200.8 104.19L201.14 100.31C201.177 99.9805 201.143 99.6468 201.041 99.3312C200.939 99.0157 200.77 98.7256 200.547 98.4804C200.323 98.2352 200.05 98.0406 199.745 97.9094C199.441 97.7783 199.112 97.7138 198.78 97.7201H157.05C153.433 97.7842 149.965 99.1705 147.301 101.617C144.637 104.064 142.961 107.402 142.59 111L120.22 366.73C120.04 368.42 120.221 370.13 120.751 371.745C121.281 373.36 122.148 374.843 123.295 376.098C124.442 377.353 125.842 378.349 127.403 379.022C128.964 379.695 130.65 380.028 132.35 380H239.35C242.969 379.933 246.439 378.544 249.103 376.093C251.767 373.643 253.441 370.301 253.81 366.7L276.17 111C276.352 109.306 276.171 107.592 275.639 105.973C275.108 104.354 274.237 102.867 273.086 101.61C271.934 100.354 270.528 99.3572 268.962 98.6864C267.395 98.0156 265.704 97.6862 264 97.7201H222.31Z" fill="url(#paint7_linear_2204_1384)"/>
<path opacity="0.6" d="M222.31 97.7201C221.605 97.7334 220.929 98.0041 220.409 98.4811C219.89 98.9582 219.563 99.6087 219.49 100.31L219.15 104.19C218.952 106.087 218.067 107.847 216.662 109.136C215.256 110.426 213.427 111.156 211.52 111.19H207.21C206.312 111.207 205.422 111.032 204.597 110.678C203.772 110.324 203.032 109.798 202.426 109.136C201.82 108.474 201.361 107.691 201.081 106.838C200.801 105.985 200.705 105.083 200.8 104.19L201.14 100.31C201.177 99.9805 201.143 99.6468 201.041 99.3312C200.939 99.0157 200.77 98.7256 200.547 98.4804C200.323 98.2352 200.05 98.0406 199.745 97.9094C199.441 97.7783 199.112 97.7138 198.78 97.7201H157.05C153.433 97.7842 149.965 99.1705 147.301 101.617C144.637 104.064 142.961 107.402 142.59 111L120.22 366.73C120.04 368.42 120.221 370.13 120.751 371.745C121.281 373.36 122.148 374.843 123.295 376.098C124.442 377.353 125.842 378.349 127.403 379.022C128.964 379.695 130.65 380.028 132.35 380H239.35C242.969 379.933 246.439 378.544 249.103 376.093C251.767 373.643 253.441 370.301 253.81 366.7L276.17 111C276.352 109.306 276.171 107.592 275.639 105.973C275.108 104.354 274.237 102.867 273.086 101.61C271.934 100.354 270.528 99.3572 268.962 98.6864C267.395 98.0156 265.704 97.6862 264 97.7201H222.31Z" fill="white"/>
<path opacity="0.3" d="M215.12 102C214.992 103.35 214.372 104.606 213.378 105.528C212.384 106.45 211.086 106.974 209.73 107C209.091 107.012 208.458 106.886 207.872 106.632C207.285 106.379 206.761 106.002 206.332 105.528C205.904 105.055 205.582 104.494 205.389 103.886C205.195 103.277 205.134 102.634 205.21 102C205.337 100.65 205.957 99.3943 206.951 98.4721C207.945 97.55 209.244 97.0259 210.6 97C211.238 96.9884 211.872 97.1137 212.458 97.3675C213.044 97.6214 213.569 97.9979 213.997 98.4717C214.426 98.9455 214.747 99.5055 214.941 100.114C215.135 100.723 215.196 101.366 215.12 102Z" fill="black"/>
<path opacity="0.7" d="M212.67 102C212.601 102.678 212.287 103.307 211.785 103.767C211.284 104.228 210.631 104.489 209.95 104.5C209.63 104.506 209.312 104.444 209.018 104.318C208.723 104.191 208.459 104.003 208.244 103.767C208.028 103.53 207.865 103.25 207.766 102.945C207.667 102.641 207.634 102.319 207.67 102C207.738 101.323 208.053 100.694 208.555 100.233C209.056 99.7722 209.709 99.5114 210.39 99.5002C210.71 99.4939 211.028 99.5561 211.322 99.6826C211.617 99.8091 211.881 99.9969 212.096 100.234C212.312 100.47 212.475 100.75 212.574 101.055C212.673 101.36 212.706 101.682 212.67 102Z" fill="black"/>
<path d="M188.54 371.63H184.62C184.109 371.639 183.602 371.539 183.133 371.336C182.664 371.133 182.244 370.832 181.901 370.453C181.558 370.074 181.3 369.626 181.145 369.139C180.989 368.652 180.94 368.138 181 367.63L181.34 363.7C181.443 362.621 181.939 361.617 182.733 360.879C183.528 360.142 184.566 359.722 185.65 359.7H189.58C190.091 359.691 190.598 359.791 191.067 359.994C191.536 360.197 191.956 360.498 192.299 360.877C192.642 361.256 192.9 361.704 193.055 362.191C193.211 362.678 193.26 363.192 193.2 363.7L192.85 367.63C192.749 368.71 192.254 369.715 191.459 370.453C190.664 371.191 189.624 371.61 188.54 371.63ZM185.48 361.78C184.939 361.79 184.421 362 184.026 362.37C183.631 362.739 183.387 363.241 183.34 363.78L183 367.71C182.967 367.963 182.989 368.22 183.064 368.463C183.139 368.707 183.266 368.931 183.436 369.121C183.606 369.311 183.815 369.462 184.049 369.563C184.282 369.665 184.535 369.715 184.79 369.71H188.72C189.26 369.699 189.776 369.489 190.17 369.12C190.563 368.75 190.805 368.248 190.85 367.71L191.2 363.78C191.231 363.527 191.208 363.27 191.132 363.026C191.055 362.783 190.927 362.559 190.757 362.369C190.586 362.179 190.376 362.029 190.142 361.927C189.908 361.825 189.655 361.775 189.4 361.78H185.48Z" fill="url(#paint8_linear_2204_1384)"/>
<path d="M140.6 370.63C140.472 370.632 140.345 370.607 140.228 370.557C140.11 370.506 140.005 370.431 139.919 370.336C139.833 370.241 139.768 370.129 139.728 370.008C139.689 369.886 139.676 369.757 139.69 369.63L140.38 361.78C140.405 361.509 140.529 361.258 140.728 361.073C140.927 360.888 141.188 360.784 141.46 360.78C141.588 360.778 141.716 360.803 141.833 360.854C141.951 360.904 142.057 360.979 142.144 361.074C142.231 361.168 142.297 361.28 142.338 361.402C142.378 361.524 142.393 361.652 142.38 361.78L141.69 369.63C141.661 369.901 141.534 370.152 141.333 370.336C141.133 370.52 140.872 370.624 140.6 370.63Z" fill="url(#paint9_linear_2204_1384)"/>
<path d="M145.53 370.63C145.402 370.632 145.275 370.607 145.158 370.557C145.04 370.506 144.935 370.431 144.849 370.336C144.763 370.241 144.698 370.129 144.658 370.008C144.619 369.886 144.606 369.757 144.62 369.63L145.3 361.78C145.329 361.509 145.456 361.259 145.656 361.075C145.857 360.891 146.118 360.786 146.39 360.78C146.518 360.778 146.645 360.803 146.762 360.854C146.88 360.904 146.985 360.98 147.071 361.074C147.157 361.169 147.222 361.281 147.262 361.403C147.301 361.524 147.314 361.653 147.3 361.78L146.62 369.63C146.591 369.901 146.464 370.152 146.263 370.336C146.063 370.52 145.802 370.624 145.53 370.63Z" fill="url(#paint10_linear_2204_1384)"/>
<path d="M150.45 370.63C150.322 370.632 150.195 370.607 150.077 370.557C149.96 370.506 149.855 370.431 149.769 370.336C149.682 370.241 149.617 370.129 149.578 370.008C149.539 369.886 149.526 369.757 149.54 369.63L150.23 361.78C150.257 361.509 150.383 361.257 150.584 361.072C150.785 360.888 151.047 360.784 151.32 360.78C151.448 360.778 151.575 360.803 151.692 360.854C151.81 360.904 151.915 360.98 152.001 361.074C152.087 361.169 152.152 361.281 152.192 361.403C152.231 361.524 152.244 361.653 152.23 361.78L151.54 369.63C151.513 369.902 151.387 370.154 151.186 370.338C150.985 370.523 150.723 370.627 150.45 370.63Z" fill="url(#paint11_linear_2204_1384)"/>
<path d="M232 370.93L227.23 365.7L232.91 360.48C233.003 360.386 233.114 360.312 233.235 360.261C233.357 360.21 233.488 360.184 233.62 360.184C233.752 360.184 233.883 360.21 234.005 360.261C234.126 360.312 234.237 360.386 234.33 360.48C234.414 360.581 234.478 360.698 234.517 360.823C234.556 360.949 234.57 361.081 234.558 361.212C234.545 361.343 234.508 361.47 234.446 361.587C234.385 361.703 234.301 361.806 234.2 361.89L230.06 365.7L233.54 369.52C233.624 369.621 233.688 369.738 233.727 369.863C233.766 369.989 233.78 370.121 233.768 370.252C233.755 370.383 233.718 370.51 233.656 370.627C233.595 370.743 233.511 370.846 233.41 370.93C233.223 371.116 232.969 371.221 232.705 371.221C232.441 371.221 232.187 371.116 232 370.93Z" fill="url(#paint12_linear_2204_1384)"/>
<path d="M148.68 238.07C147.356 238.095 146.043 237.838 144.827 237.315C143.611 236.792 142.52 236.016 141.628 235.039C140.735 234.061 140.062 232.904 139.652 231.646C139.242 230.387 139.105 229.056 139.25 227.74C139.537 224.944 140.838 222.35 142.907 220.447C144.976 218.544 147.669 217.464 150.48 217.41H249.66C250.982 217.387 252.295 217.645 253.51 218.168C254.725 218.692 255.814 219.468 256.705 220.445C257.597 221.423 258.269 222.579 258.679 223.837C259.088 225.095 259.225 226.425 259.08 227.74C258.796 230.538 257.497 233.135 255.427 235.038C253.357 236.942 250.661 238.021 247.85 238.07H148.68Z" fill="white"/>
<path d="M285.57 119.24C285.629 118.673 285.893 118.147 286.313 117.762C286.733 117.377 287.28 117.159 287.85 117.15C288.117 117.146 288.382 117.198 288.628 117.304C288.873 117.41 289.093 117.567 289.273 117.765C289.453 117.963 289.588 118.197 289.67 118.451C289.753 118.706 289.78 118.975 289.75 119.24L288 139.24C287.942 139.805 287.679 140.33 287.26 140.715C286.842 141.1 286.298 141.319 285.73 141.33C285.462 141.335 285.197 141.282 284.951 141.176C284.705 141.07 284.485 140.913 284.304 140.715C284.124 140.518 283.987 140.284 283.904 140.03C283.82 139.775 283.792 139.506 283.82 139.24L285.57 119.24Z" fill="url(#paint13_linear_2204_1384)"/>
<path opacity="0.3" d="M285.57 119.24C285.629 118.673 285.893 118.147 286.313 117.762C286.733 117.377 287.28 117.159 287.85 117.15C288.117 117.146 288.382 117.198 288.628 117.304C288.873 117.41 289.093 117.567 289.273 117.765C289.453 117.963 289.588 118.197 289.67 118.451C289.753 118.706 289.78 118.975 289.75 119.24L288 139.24C287.942 139.805 287.679 140.33 287.26 140.715C286.842 141.1 286.298 141.319 285.73 141.33C285.462 141.335 285.197 141.282 284.951 141.176C284.705 141.07 284.485 140.913 284.304 140.715C284.124 140.518 283.987 140.284 283.904 140.03C283.82 139.775 283.792 139.506 283.82 139.24L285.57 119.24Z" fill="white"/>
<path d="M150.79 109.02H153.79L154.05 106.02H151.05L150.79 109.02Z" fill="url(#paint14_linear_2204_1384)"/>
<path d="M157.05 106.02L156.79 109.02H159.79L160.05 106.02L160.31 103.02H157.31L157.05 106.02Z" fill="url(#paint15_linear_2204_1384)"/>
<path d="M163.58 100.02L163.31 103.02L163.05 106.02L162.79 109.02H165.79L166.05 106.02L166.31 103.02L166.58 100.02H163.58Z" fill="url(#paint16_linear_2204_1384)"/>
<path d="M259 102.42L258.85 104.07H257.75L257.46 107.37H258.56L258.42 109.02H268.32L268.9 102.42H259ZM263 107.42H259.7L259.99 104.12H263.29L263 107.42Z" fill="url(#paint17_linear_2204_1384)"/>
<path d="M259.65 119H157.72C155.738 119.036 153.838 119.797 152.379 121.138C150.92 122.479 150.002 124.308 149.8 126.28L144.28 189.28C144.179 190.207 144.277 191.146 144.566 192.032C144.856 192.919 145.331 193.734 145.96 194.422C146.589 195.111 147.358 195.658 148.215 196.026C149.072 196.395 149.997 196.577 150.93 196.56H252.86C254.841 196.524 256.741 195.764 258.201 194.422C259.66 193.081 260.577 191.252 260.78 189.28L266.3 126.28C266.401 125.353 266.303 124.415 266.013 123.528C265.724 122.641 265.248 121.827 264.619 121.138C263.99 120.449 263.222 119.902 262.365 119.534C261.508 119.165 260.582 118.983 259.65 119Z" fill="white"/>
<path d="M165.37 131.33C165.415 131.211 165.445 131.087 165.46 130.96L165.83 126.76C165.847 126.569 165.816 126.377 165.74 126.2L162.26 128.74L165.37 131.33Z" fill="url(#paint18_linear_2204_1384)"/>
<path d="M159.93 129.12C160.054 129.213 160.205 129.263 160.36 129.263C160.515 129.263 160.666 129.213 160.79 129.12L165.41 125.75C165.2 125.581 164.939 125.489 164.67 125.49H156.67C156.386 125.493 156.11 125.584 155.88 125.75L159.93 129.12Z" fill="url(#paint19_linear_2204_1384)"/>
<path d="M155.49 126.2C155.387 126.371 155.322 126.562 155.3 126.76L154.94 130.96C154.92 131.083 154.92 131.208 154.94 131.33L158.5 128.74L155.49 126.2Z" fill="url(#paint20_linear_2204_1384)"/>
<path d="M161.76 129.11L161.11 129.58C160.875 129.753 160.592 129.848 160.3 129.85C160.02 129.852 159.748 129.757 159.53 129.58L158.97 129.11L155.21 131.84C155.32 131.968 155.457 132.07 155.61 132.139C155.764 132.208 155.931 132.243 156.1 132.24H164.1C164.457 132.238 164.799 132.094 165.05 131.84L161.76 129.11Z" fill="url(#paint21_linear_2204_1384)"/>
<path d="M155.4 139.88C155.069 139.885 154.74 139.819 154.436 139.688C154.132 139.556 153.86 139.361 153.637 139.116C153.414 138.872 153.245 138.582 153.142 138.267C153.039 137.953 153.004 137.619 153.04 137.29C153.115 136.592 153.442 135.945 153.959 135.471C154.476 134.996 155.148 134.726 155.85 134.71H241.14C241.471 134.704 241.799 134.768 242.103 134.899C242.407 135.029 242.679 135.223 242.903 135.467C243.126 135.711 243.295 136 243.397 136.314C243.5 136.629 243.535 136.961 243.5 137.29C243.429 137.991 243.104 138.641 242.586 139.118C242.068 139.596 241.394 139.867 240.69 139.88H155.4Z" fill="#263238"/>
<path opacity="0.5" d="M155.4 139.88C155.069 139.885 154.74 139.819 154.436 139.688C154.132 139.556 153.86 139.361 153.637 139.116C153.414 138.872 153.245 138.582 153.142 138.267C153.039 137.953 153.004 137.619 153.04 137.29C153.115 136.592 153.442 135.945 153.959 135.471C154.476 134.996 155.148 134.726 155.85 134.71H241.14C241.471 134.704 241.799 134.768 242.103 134.899C242.407 135.029 242.679 135.223 242.903 135.467C243.126 135.711 243.295 136 243.397 136.314C243.5 136.629 243.535 136.961 243.5 137.29C243.429 137.991 243.104 138.641 242.586 139.118C242.068 139.596 241.394 139.867 240.69 139.88H155.4Z" fill="white"/>
<path d="M154.5 150.21C154.168 150.217 153.839 150.152 153.534 150.021C153.23 149.89 152.956 149.695 152.733 149.45C152.51 149.205 152.341 148.915 152.239 148.599C152.137 148.284 152.103 147.95 152.14 147.62C152.202 146.905 152.531 146.239 153.06 145.754C153.59 145.269 154.282 145 155 145H232.62C232.951 144.994 233.279 145.058 233.583 145.189C233.887 145.319 234.159 145.513 234.383 145.757C234.606 146.001 234.775 146.29 234.878 146.604C234.981 146.919 235.015 147.251 234.98 147.58C234.907 148.28 234.581 148.929 234.064 149.406C233.547 149.883 232.873 150.154 232.17 150.17L154.5 150.21Z" fill="#263238"/>
<path opacity="0.5" d="M154.5 150.21C154.168 150.217 153.839 150.152 153.534 150.021C153.23 149.89 152.956 149.695 152.733 149.45C152.51 149.205 152.341 148.915 152.239 148.599C152.137 148.284 152.103 147.95 152.14 147.62C152.202 146.905 152.531 146.239 153.06 145.754C153.59 145.269 154.282 145 155 145H232.62C232.951 144.994 233.279 145.058 233.583 145.189C233.887 145.319 234.159 145.513 234.383 145.757C234.606 146.001 234.775 146.29 234.878 146.604C234.981 146.919 235.015 147.251 234.98 147.58C234.907 148.28 234.581 148.929 234.064 149.406C233.547 149.883 232.873 150.154 232.17 150.17L154.5 150.21Z" fill="white"/>
<path d="M153.59 160.54C153.259 160.545 152.931 160.479 152.628 160.348C152.324 160.216 152.052 160.021 151.83 159.776C151.607 159.531 151.44 159.241 151.338 158.927C151.236 158.612 151.203 158.279 151.24 157.95C151.311 157.252 151.635 156.604 152.15 156.129C152.666 155.654 153.339 155.384 154.04 155.37H236.17C236.5 155.365 236.827 155.431 237.13 155.562C237.432 155.693 237.704 155.887 237.926 156.131C238.148 156.375 238.316 156.663 238.418 156.977C238.521 157.29 238.555 157.622 238.52 157.95C238.451 158.652 238.127 159.303 237.609 159.781C237.09 160.258 236.415 160.529 235.71 160.54H153.59Z" fill="#263238"/>
<path opacity="0.5" d="M153.59 160.54C153.259 160.545 152.931 160.479 152.628 160.348C152.324 160.216 152.052 160.021 151.83 159.776C151.607 159.531 151.44 159.241 151.338 158.927C151.236 158.612 151.203 158.279 151.24 157.95C151.311 157.252 151.635 156.604 152.15 156.129C152.666 155.654 153.339 155.384 154.04 155.37H236.17C236.5 155.365 236.827 155.431 237.13 155.562C237.432 155.693 237.704 155.887 237.926 156.131C238.148 156.375 238.316 156.663 238.418 156.977C238.521 157.29 238.555 157.622 238.52 157.95C238.451 158.652 238.127 159.303 237.609 159.781C237.09 160.258 236.415 160.529 235.71 160.54H153.59Z" fill="white"/>
<path d="M151.78 181.2C151.45 181.205 151.123 181.139 150.82 181.008C150.518 180.877 150.246 180.683 150.024 180.439C149.802 180.195 149.634 179.907 149.532 179.593C149.429 179.28 149.395 178.948 149.43 178.62C149.499 177.919 149.823 177.267 150.341 176.789C150.859 176.312 151.535 176.041 152.24 176.03H244.11C244.441 176.025 244.769 176.091 245.072 176.222C245.376 176.354 245.648 176.549 245.87 176.794C246.092 177.039 246.26 177.329 246.362 177.644C246.463 177.958 246.497 178.291 246.46 178.62C246.389 179.318 246.065 179.966 245.549 180.441C245.034 180.917 244.361 181.187 243.66 181.2H151.78Z" fill="#263238"/>
<path opacity="0.5" d="M151.78 181.2C151.45 181.205 151.123 181.139 150.82 181.008C150.518 180.877 150.246 180.683 150.024 180.439C149.802 180.195 149.634 179.907 149.532 179.593C149.429 179.28 149.395 178.948 149.43 178.62C149.499 177.919 149.823 177.267 150.341 176.789C150.859 176.312 151.535 176.041 152.24 176.03H244.11C244.441 176.025 244.769 176.091 245.072 176.222C245.376 176.354 245.648 176.549 245.87 176.794C246.092 177.039 246.26 177.329 246.362 177.644C246.463 177.958 246.497 178.291 246.46 178.62C246.389 179.318 246.065 179.966 245.549 180.441C245.034 180.917 244.361 181.187 243.66 181.2H151.78Z" fill="white"/>
<path d="M150.88 191.53C150.549 191.536 150.221 191.472 149.917 191.341C149.613 191.211 149.34 191.017 149.117 190.773C148.894 190.529 148.725 190.24 148.622 189.926C148.519 189.612 148.484 189.279 148.52 188.95C148.593 188.25 148.918 187.601 149.436 187.124C149.953 186.648 150.626 186.376 151.33 186.36H204C204.331 186.355 204.659 186.421 204.962 186.553C205.266 186.684 205.538 186.879 205.76 187.124C205.982 187.369 206.15 187.659 206.252 187.974C206.353 188.288 206.387 188.621 206.35 188.95C206.279 189.65 205.954 190.299 205.436 190.775C204.918 191.25 204.243 191.519 203.54 191.53H150.88Z" fill="#263238"/>
<path opacity="0.5" d="M150.88 191.53C150.549 191.536 150.221 191.472 149.917 191.341C149.613 191.211 149.34 191.017 149.117 190.773C148.894 190.529 148.725 190.24 148.622 189.926C148.519 189.612 148.484 189.279 148.52 188.95C148.593 188.25 148.918 187.601 149.436 187.124C149.953 186.648 150.626 186.376 151.33 186.36H204C204.331 186.355 204.659 186.421 204.962 186.553C205.266 186.684 205.538 186.879 205.76 187.124C205.982 187.369 206.15 187.659 206.252 187.974C206.353 188.288 206.387 188.621 206.35 188.95C206.279 189.65 205.954 190.299 205.436 190.775C204.918 191.25 204.243 191.519 203.54 191.53H150.88Z" fill="white"/>
<path d="M160.66 166C160.16 165.457 159.532 165.05 158.832 164.815C158.133 164.581 157.386 164.528 156.66 164.66C155.682 164.821 154.769 165.253 154.025 165.907C153.28 166.561 152.735 167.411 152.45 168.36C152.168 169.289 152.189 170.284 152.51 171.2L151.96 172.65C151.924 172.749 151.911 172.854 151.923 172.958C151.936 173.063 151.972 173.163 152.03 173.25C152.093 173.334 152.177 173.4 152.273 173.442C152.37 173.484 152.475 173.501 152.58 173.49L154.25 173.38C154.946 173.803 155.746 174.024 156.56 174.02C156.801 174.023 157.042 174.007 157.28 173.97C158.292 173.805 159.234 173.352 159.994 172.663C160.753 171.975 161.297 171.081 161.56 170.09C161.757 169.387 161.778 168.646 161.621 167.933C161.464 167.219 161.134 166.556 160.66 166ZM160.87 170C160.648 170.83 160.191 171.578 159.554 172.155C158.918 172.731 158.128 173.112 157.28 173.25C156.362 173.398 155.422 173.203 154.64 172.7L154.55 172.63L152.75 172.76L153.35 171.16V171.03C153.043 170.229 153.015 169.349 153.27 168.53C153.512 167.735 153.97 167.024 154.594 166.474C155.217 165.925 155.981 165.56 156.8 165.42C157.405 165.316 158.027 165.364 158.609 165.562C159.19 165.759 159.713 166.099 160.13 166.55C160.529 167.019 160.806 167.58 160.935 168.182C161.064 168.784 161.042 169.409 160.87 170Z" fill="url(#paint22_linear_2204_1384)"/>
<path d="M157.8 169.91C157.611 170.158 157.491 170.451 157.45 170.76C156.986 170.61 156.571 170.337 156.25 169.97C155.897 169.606 155.658 169.147 155.56 168.65C155.86 168.635 156.151 168.539 156.4 168.37C156.64 168.15 156.52 167.61 156.12 167.17C155.72 166.73 155.19 166.56 154.95 166.78C154.782 166.985 154.667 167.228 154.617 167.488C154.566 167.749 154.581 168.017 154.66 168.27C154.62 168.703 154.678 169.139 154.83 169.546C154.983 169.953 155.225 170.32 155.54 170.62C155.812 170.97 156.164 171.251 156.565 171.44C156.966 171.63 157.406 171.722 157.85 171.71C158.085 171.783 158.333 171.804 158.577 171.769C158.821 171.734 159.054 171.646 159.26 171.51C159.5 171.28 159.38 170.74 158.98 170.3C158.58 169.86 158.05 169.69 157.8 169.91Z" fill="url(#paint23_linear_2204_1384)"/>
<path d="M252.65 126.54L252.2 131.54H251L251.36 127.42H250.36L250.44 126.49L252.65 126.54Z" fill="url(#paint24_linear_2204_1384)"/>
<path d="M256.75 128.86C256.904 129.004 257.021 129.182 257.092 129.381C257.163 129.579 257.187 129.791 257.16 130C257.133 130.316 257.02 130.618 256.833 130.873C256.646 131.129 256.392 131.328 256.1 131.45C255.724 131.611 255.318 131.689 254.91 131.68C254.572 131.676 254.236 131.629 253.91 131.54C253.608 131.458 253.324 131.322 253.07 131.14L253.61 130.24C253.797 130.392 254.01 130.507 254.24 130.58C254.489 130.66 254.748 130.701 255.01 130.7C255.259 130.711 255.506 130.648 255.72 130.52C255.806 130.463 255.877 130.386 255.926 130.295C255.975 130.205 256 130.103 256 130C256.016 129.906 256.004 129.809 255.965 129.721C255.926 129.634 255.861 129.56 255.78 129.51C255.5 129.374 255.19 129.316 254.88 129.34H253.59L254.1 126.5H257.18L257.1 127.43H255L254.84 128.43H255.25C255.785 128.393 256.316 128.545 256.75 128.86Z" fill="url(#paint25_linear_2204_1384)"/>
<path d="M250.4 169.27C250.506 169.402 250.585 169.555 250.631 169.718C250.677 169.881 250.691 170.052 250.67 170.22C250.642 170.516 250.535 170.8 250.36 171.04C250.17 171.303 249.91 171.507 249.61 171.63C249.238 171.791 248.835 171.869 248.43 171.86C248.092 171.856 247.756 171.809 247.43 171.72C247.128 171.64 246.843 171.504 246.59 171.32L247.12 170.42C247.311 170.571 247.528 170.686 247.76 170.76C248.006 170.837 248.262 170.874 248.52 170.87C248.767 170.884 249.013 170.829 249.23 170.71C249.315 170.658 249.387 170.587 249.439 170.501C249.491 170.416 249.522 170.32 249.53 170.22C249.53 169.81 249.27 169.6 248.64 169.6H248.1L248.17 168.83L249.31 167.65H247.16L247.24 166.71H250.78L250.72 167.47L249.46 168.77C249.823 168.82 250.156 168.997 250.4 169.27Z" fill="url(#paint26_linear_2204_1384)"/>
<path d="M254.73 169C254.887 169.142 255.007 169.32 255.078 169.519C255.15 169.718 255.171 169.931 255.14 170.14C255.113 170.441 255.01 170.73 254.84 170.98C254.648 171.25 254.385 171.461 254.08 171.59C253.704 171.751 253.298 171.829 252.89 171.82C252.552 171.816 252.216 171.769 251.89 171.68C251.589 171.596 251.305 171.461 251.05 171.28L251.59 170.38C251.781 170.531 251.998 170.646 252.23 170.72C252.475 170.798 252.732 170.835 252.99 170.83C253.238 170.844 253.485 170.785 253.7 170.66C253.783 170.609 253.853 170.539 253.903 170.455C253.954 170.372 253.983 170.278 253.99 170.18C254.006 170.086 253.994 169.989 253.955 169.902C253.916 169.814 253.851 169.741 253.77 169.69C253.491 169.552 253.18 169.493 252.87 169.52H251.58L252.09 166.67H255.17L255.09 167.61H252.98L252.82 168.61H253.23C253.76 168.561 254.291 168.699 254.73 169Z" fill="url(#paint27_linear_2204_1384)"/>
<path d="M196.42 342.73H179.49C178.557 342.745 177.631 342.562 176.774 342.192C175.917 341.823 175.149 341.275 174.52 340.585C173.891 339.896 173.416 339.081 173.126 338.194C172.837 337.306 172.739 336.368 172.84 335.44L174.32 318.51C174.523 316.537 175.441 314.706 176.903 313.365C178.364 312.023 180.266 311.264 182.25 311.23H199.17C200.102 311.213 201.028 311.395 201.885 311.764C202.742 312.132 203.51 312.679 204.139 313.368C204.768 314.057 205.244 314.871 205.533 315.758C205.823 316.645 205.921 317.583 205.82 318.51L204.34 335.44C204.137 337.413 203.22 339.243 201.761 340.586C200.302 341.929 198.402 342.692 196.42 342.73Z" fill="url(#paint28_linear_2204_1384)"/>
<path d="M194.12 321.78C193.91 324.18 191.71 327.12 189.32 327.12C186.93 327.12 185.24 324.18 185.45 321.78C185.57 320.607 186.115 319.519 186.983 318.721C187.851 317.923 188.981 317.471 190.16 317.45C190.715 317.44 191.266 317.548 191.776 317.767C192.286 317.986 192.743 318.311 193.118 318.721C193.493 319.13 193.776 319.615 193.948 320.142C194.121 320.67 194.18 321.228 194.12 321.78Z" fill="white"/>
<path d="M197.64 335.5C197.532 333.693 196.728 331.998 195.396 330.771C194.065 329.544 192.31 328.881 190.5 328.92H187.82C185.909 328.957 184.063 329.62 182.567 330.81C181.071 331.999 180.007 333.647 179.54 335.5C179.506 335.617 179.499 335.741 179.521 335.861C179.543 335.982 179.593 336.095 179.667 336.192C179.741 336.289 179.837 336.368 179.947 336.422C180.057 336.475 180.178 336.502 180.3 336.5H196.69C196.946 336.487 197.188 336.376 197.365 336.19C197.542 336.004 197.64 335.757 197.64 335.5Z" fill="white"/>
<path d="M238.92 342.73H222C221.067 342.745 220.141 342.562 219.284 342.192C218.427 341.823 217.659 341.275 217.03 340.585C216.401 339.896 215.926 339.081 215.636 338.194C215.347 337.306 215.249 336.368 215.35 335.44L216.83 318.51C217.033 316.537 217.951 314.706 219.413 313.365C220.874 312.023 222.776 311.264 224.76 311.23H241.68C242.612 311.213 243.538 311.395 244.395 311.764C245.252 312.132 246.02 312.679 246.649 313.368C247.278 314.057 247.754 314.871 248.043 315.758C248.333 316.645 248.431 317.583 248.33 318.51L246.85 335.44C246.647 337.414 245.729 339.246 244.268 340.589C242.807 341.932 240.904 342.694 238.92 342.73Z" fill="url(#paint29_linear_2204_1384)"/>
<path d="M241.79 332.05C241.885 331.816 241.949 331.571 241.98 331.32L242.71 322.92C242.748 322.538 242.69 322.153 242.54 321.8L235.54 326.87L241.79 332.05Z" fill="white"/>
<path d="M230.91 327.62C231.156 327.814 231.461 327.919 231.775 327.919C232.089 327.919 232.393 327.814 232.64 327.62L241.87 320.89C241.45 320.553 240.928 320.37 240.39 320.37H224.39C223.822 320.377 223.27 320.558 222.81 320.89L230.91 327.62Z" fill="white"/>
<path d="M222 321.8C221.794 322.141 221.667 322.524 221.63 322.92L220.9 331.32C220.859 331.562 220.859 331.808 220.9 332.05L228.02 326.86L222 321.8Z" fill="white"/>
<path d="M234.56 327.61L233.27 328.55C232.801 328.897 232.233 329.086 231.65 329.09C231.089 329.095 230.545 328.904 230.11 328.55L228.99 327.61L221.48 333.08C221.701 333.331 221.974 333.531 222.279 333.667C222.585 333.803 222.916 333.873 223.25 333.87H239.2C239.915 333.862 240.599 333.579 241.11 333.08L234.56 327.61Z" fill="white"/>
<path d="M243.4 320.71C242.429 320.727 241.466 320.537 240.574 320.153C239.683 319.769 238.883 319.2 238.228 318.483C237.574 317.766 237.079 316.918 236.778 315.995C236.476 315.072 236.375 314.095 236.48 313.13C236.69 311.076 237.646 309.171 239.166 307.774C240.686 306.377 242.666 305.586 244.73 305.55H246.18C247.151 305.531 248.115 305.72 249.008 306.104C249.9 306.487 250.701 307.057 251.356 307.774C252.01 308.491 252.505 309.34 252.806 310.264C253.106 311.187 253.207 312.165 253.1 313.13C252.89 315.184 251.934 317.09 250.414 318.486C248.894 319.883 246.914 320.674 244.85 320.71H243.4Z" fill="#263238"/>
<path d="M243.51 310.1L242.99 316.05H241.61L242.03 311.21H240.84L240.94 310.1H243.51Z" fill="white"/>
<path d="M248.34 312.84C248.524 313.007 248.664 313.216 248.748 313.45C248.832 313.684 248.856 313.935 248.82 314.18C248.796 314.541 248.672 314.887 248.46 315.18C248.231 315.494 247.925 315.742 247.57 315.9C247.129 316.091 246.651 316.183 246.17 316.17C245.774 316.165 245.381 316.108 245 316C244.639 315.91 244.299 315.751 244 315.53L244.63 314.47C244.853 314.648 245.108 314.784 245.38 314.87C245.671 314.962 245.975 315.01 246.28 315.01C246.57 315.021 246.857 314.952 247.11 314.81C247.209 314.749 247.292 314.666 247.353 314.567C247.414 314.468 247.451 314.356 247.46 314.24C247.478 314.129 247.463 314.014 247.417 313.911C247.37 313.808 247.295 313.721 247.2 313.66C246.871 313.5 246.505 313.431 246.14 313.46H244.62L245.22 310.11H248.85L248.75 311.22H246.27L246.08 312.35H246.56C247.192 312.3 247.822 312.473 248.34 312.84Z" fill="white"/>
<path d="M158.49 290.4H141.57C140.636 290.417 139.71 290.235 138.852 289.866C137.995 289.496 137.226 288.949 136.596 288.259C135.967 287.569 135.492 286.753 135.203 285.865C134.914 284.977 134.817 284.038 134.92 283.11L136.4 266.19C136.6 264.217 137.517 262.385 138.976 261.042C140.435 259.698 142.337 258.936 144.32 258.9H161.25C162.183 258.883 163.11 259.065 163.967 259.434C164.825 259.804 165.594 260.351 166.223 261.041C166.853 261.731 167.328 262.547 167.617 263.435C167.906 264.323 168.002 265.262 167.9 266.19L166.42 283.11C166.219 285.085 165.301 286.918 163.84 288.262C162.378 289.605 160.475 290.366 158.49 290.4Z" fill="url(#paint30_linear_2204_1384)"/>
<path d="M158.9 268C157.913 266.925 156.671 266.115 155.289 265.645C153.906 265.175 152.428 265.06 150.99 265.31C149.035 265.629 147.209 266.491 145.72 267.798C144.232 269.104 143.14 270.803 142.57 272.7C142.009 274.561 142.048 276.552 142.68 278.39L141.6 281.28C141.519 281.475 141.489 281.688 141.514 281.898C141.538 282.108 141.616 282.309 141.74 282.48C141.863 282.648 142.027 282.781 142.216 282.866C142.405 282.952 142.613 282.988 142.82 282.97L146.17 282.74C147.557 283.599 149.158 284.05 150.79 284.04C151.272 284.038 151.753 284.001 152.23 283.93C154.252 283.603 156.136 282.697 157.653 281.322C159.171 279.946 160.257 278.16 160.78 276.18C161.173 274.768 161.206 273.28 160.878 271.851C160.55 270.423 159.87 269.099 158.9 268ZM159.32 275.94C158.881 277.602 157.969 279.101 156.694 280.255C155.42 281.409 153.838 282.168 152.14 282.44C150.308 282.743 148.428 282.351 146.87 281.34L146.68 281.21L143.09 281.46L144.29 278.27L144.19 278.01C143.581 276.408 143.521 274.649 144.02 273.01C144.51 271.425 145.429 270.006 146.675 268.91C147.92 267.814 149.445 267.084 151.08 266.8C152.294 266.577 153.545 266.67 154.714 267.068C155.883 267.465 156.93 268.156 157.756 269.073C158.582 269.991 159.159 271.104 159.433 272.308C159.707 273.512 159.668 274.766 159.32 275.95V275.94Z" fill="white"/>
<path d="M153.2 275.91C152.807 276.394 152.56 276.98 152.49 277.6C151.556 277.271 150.72 276.712 150.059 275.974C149.399 275.237 148.935 274.345 148.71 273.38C149.308 273.354 149.887 273.16 150.38 272.82C150.88 272.37 150.62 271.29 149.82 270.41C149.02 269.53 147.97 269.19 147.48 269.64C147.146 270.055 146.919 270.545 146.819 271.069C146.72 271.592 146.751 272.132 146.91 272.64C146.83 273.507 146.946 274.381 147.251 275.197C147.556 276.012 148.041 276.748 148.67 277.35C149.217 278.045 149.918 278.603 150.719 278.98C151.519 279.357 152.396 279.542 153.28 279.52C153.751 279.663 154.248 279.701 154.736 279.63C155.223 279.559 155.689 279.382 156.1 279.11C156.59 278.66 156.34 277.58 155.54 276.7C154.74 275.82 153.69 275.45 153.2 275.91Z" fill="white"/>
<path d="M163.15 266.48C162.179 266.499 161.215 266.31 160.322 265.927C159.43 265.543 158.629 264.974 157.974 264.256C157.319 263.539 156.825 262.69 156.524 261.766C156.223 260.843 156.123 259.866 156.23 258.9C156.44 256.848 157.394 254.944 158.912 253.547C160.43 252.151 162.407 251.358 164.47 251.32H165.93C166.901 251.303 167.864 251.493 168.756 251.877C169.647 252.261 170.447 252.83 171.102 253.547C171.756 254.264 172.251 255.113 172.552 256.036C172.854 256.958 172.955 257.935 172.85 258.9C172.64 260.954 171.684 262.86 170.164 264.256C168.644 265.653 166.664 266.444 164.6 266.48H163.15Z" fill="#263238"/>
<path d="M163.86 258.88C163.986 259.035 164.08 259.215 164.135 259.407C164.19 259.6 164.205 259.802 164.18 260C164.158 260.361 164.034 260.708 163.82 261C163.592 261.31 163.285 261.552 162.93 261.7C162.491 261.887 162.017 261.975 161.54 261.96C161.128 261.962 160.717 261.909 160.32 261.8C159.96 261.707 159.621 261.547 159.32 261.33L159.95 260.27C160.174 260.446 160.428 260.582 160.7 260.67C160.991 260.762 161.294 260.81 161.6 260.81C161.89 260.823 162.178 260.754 162.43 260.61C162.53 260.551 162.615 260.468 162.676 260.369C162.737 260.27 162.773 260.157 162.78 260.04C162.78 259.56 162.47 259.31 161.78 259.31H161.15L161.23 258.4L162.58 257.02H160L160.1 255.91H164.27L164.19 256.8L162.71 258.34C163.148 258.369 163.558 258.562 163.86 258.88Z" fill="white"/>
<path d="M169 258.61C169.184 258.777 169.324 258.986 169.408 259.22C169.491 259.454 169.516 259.705 169.48 259.95C169.456 260.311 169.332 260.657 169.12 260.95C168.896 261.268 168.588 261.518 168.23 261.67C167.791 261.857 167.317 261.946 166.84 261.93C166.425 261.932 166.011 261.879 165.61 261.77C165.25 261.677 164.911 261.517 164.61 261.3L165.25 260.24C165.475 260.416 165.728 260.552 166 260.64C166.287 260.733 166.588 260.78 166.89 260.78C167.184 260.795 167.477 260.722 167.73 260.57C167.817 260.503 167.887 260.417 167.934 260.318C167.981 260.219 168.003 260.11 168 260C168.02 259.888 168.007 259.773 167.96 259.67C167.914 259.566 167.837 259.479 167.74 259.42C167.414 259.259 167.052 259.19 166.69 259.22H165.17L165.76 255.87H169.39L169.3 256.98H166.82L166.62 258.11H167.11C167.78 258.033 168.455 258.211 169 258.61Z" fill="white"/>
<path d="M201 290.4H184.07C183.136 290.417 182.21 290.235 181.352 289.866C180.495 289.496 179.726 288.949 179.096 288.259C178.467 287.569 177.992 286.753 177.703 285.865C177.414 284.977 177.317 284.038 177.42 283.11L178.9 266.19C179.1 264.217 180.017 262.385 181.476 261.042C182.935 259.698 184.837 258.936 186.82 258.9H203.75C204.683 258.883 205.61 259.065 206.467 259.434C207.325 259.804 208.094 260.351 208.723 261.041C209.353 261.731 209.828 262.547 210.117 263.435C210.406 264.323 210.502 265.262 210.4 266.19L208.92 283.11C208.72 285.083 207.803 286.915 206.344 288.258C204.884 289.602 202.983 290.364 201 290.4Z" fill="url(#paint31_linear_2204_1384)"/>
<path d="M197.69 265.23H191.78C190.122 265.262 188.534 265.899 187.313 267.021C186.092 268.142 185.323 269.671 185.15 271.32L184.64 277.23C184.555 278.005 184.635 278.789 184.877 279.53C185.118 280.271 185.514 280.953 186.039 281.529C186.564 282.105 187.206 282.563 187.922 282.871C188.637 283.18 189.411 283.333 190.19 283.32H196.11C197.766 283.287 199.354 282.65 200.573 281.528C201.792 280.407 202.559 278.878 202.73 277.23L203.25 271.32C203.334 270.545 203.252 269.76 203.009 269.019C202.767 268.278 202.369 267.597 201.844 267.021C201.318 266.445 200.675 265.987 199.959 265.679C199.243 265.37 198.47 265.217 197.69 265.23ZM201.13 277.23C201.006 278.445 200.44 279.573 199.541 280.4C198.642 281.228 197.471 281.697 196.25 281.72H190.33C189.753 281.737 189.18 281.63 188.648 281.405C188.117 281.179 187.641 280.842 187.252 280.415C186.864 279.989 186.572 279.483 186.398 278.934C186.223 278.384 186.169 277.803 186.24 277.23L186.75 271.32C186.875 270.103 187.441 268.974 188.342 268.146C189.243 267.319 190.417 266.851 191.64 266.83H197.55C198.125 266.819 198.696 266.932 199.224 267.159C199.753 267.386 200.227 267.724 200.615 268.148C201.003 268.573 201.296 269.076 201.474 269.623C201.653 270.17 201.712 270.748 201.65 271.32L201.13 277.23Z" fill="white"/>
<path d="M194.3 270.14C193.175 270.163 192.098 270.597 191.271 271.36C190.444 272.122 189.924 273.161 189.81 274.28C189.753 274.806 189.809 275.338 189.973 275.84C190.138 276.343 190.407 276.805 190.763 277.195C191.12 277.586 191.555 277.896 192.041 278.105C192.527 278.315 193.051 278.419 193.58 278.41C194.705 278.389 195.783 277.958 196.612 277.197C197.441 276.436 197.963 275.399 198.08 274.28C198.135 273.753 198.078 273.221 197.912 272.718C197.747 272.215 197.477 271.752 197.12 271.361C196.762 270.97 196.327 270.659 195.841 270.448C195.355 270.238 194.829 270.133 194.3 270.14ZM193.72 276.81C193.396 276.815 193.075 276.751 192.778 276.622C192.481 276.493 192.214 276.303 191.996 276.064C191.778 275.825 191.613 275.543 191.512 275.235C191.411 274.927 191.376 274.602 191.41 274.28C191.48 273.594 191.799 272.958 192.305 272.49C192.811 272.023 193.471 271.756 194.16 271.74C194.485 271.734 194.808 271.797 195.106 271.925C195.405 272.054 195.673 272.245 195.892 272.486C196.11 272.726 196.275 273.011 196.375 273.32C196.475 273.63 196.507 273.957 196.47 274.28C196.399 274.965 196.081 275.6 195.574 276.066C195.068 276.532 194.408 276.797 193.72 276.81Z" fill="white"/>
<path d="M198.8 268.28C198.437 268.283 198.087 268.421 197.82 268.667C197.552 268.912 197.384 269.248 197.35 269.61C197.331 269.78 197.349 269.952 197.402 270.114C197.456 270.277 197.543 270.426 197.658 270.552C197.774 270.677 197.915 270.777 198.072 270.844C198.229 270.911 198.399 270.944 198.57 270.94C198.932 270.932 199.279 270.793 199.546 270.548C199.812 270.304 199.981 269.97 200.02 269.61C200.038 269.44 200.02 269.268 199.967 269.106C199.914 268.944 199.827 268.795 199.711 268.669C199.596 268.543 199.455 268.443 199.298 268.376C199.14 268.309 198.971 268.276 198.8 268.28Z" fill="white"/>
<path d="M205.65 266.48C204.679 266.499 203.715 266.31 202.822 265.927C201.93 265.543 201.129 264.974 200.474 264.256C199.819 263.539 199.325 262.69 199.024 261.766C198.723 260.843 198.623 259.866 198.73 258.9C198.94 256.848 199.894 254.944 201.412 253.547C202.93 252.151 204.907 251.358 206.97 251.32H208.43C209.401 251.303 210.364 251.493 211.256 251.877C212.147 252.261 212.947 252.83 213.602 253.547C214.256 254.264 214.751 255.113 215.052 256.036C215.354 256.958 215.455 257.935 215.35 258.9C215.14 260.954 214.184 262.86 212.664 264.256C211.144 265.653 209.164 266.444 207.1 266.48H205.65Z" fill="#263238"/>
<path d="M209.68 255.92L209.6 256.82L207 261.87H205.5L208.06 257.05H206.06L205.97 258.05H204.75L204.93 255.96L209.68 255.92Z" fill="white"/>
<path d="M243.49 290.4H226.57C225.636 290.417 224.71 290.235 223.852 289.866C222.995 289.496 222.226 288.949 221.596 288.259C220.967 287.569 220.492 286.753 220.203 285.865C219.914 284.977 219.817 284.038 219.92 283.11L221.4 266.19C221.6 264.217 222.517 262.385 223.976 261.042C225.435 259.698 227.337 258.936 229.32 258.9H246.25C247.183 258.883 248.11 259.065 248.967 259.434C249.825 259.804 250.594 260.351 251.223 261.041C251.853 261.731 252.328 262.547 252.617 263.435C252.906 264.323 253.002 265.262 252.9 266.19L251.42 283.11C251.219 285.085 250.301 286.918 248.84 288.262C247.378 289.605 245.475 290.366 243.49 290.4Z" fill="url(#paint32_linear_2204_1384)"/>
<path d="M240.67 273.62H245.07L244.73 277.45H240.46L239.33 290.4H234.33L235.47 277.45H232.82L233.15 273.62H235.8L235.87 272.86C235.949 271.089 236.713 269.419 238 268.2C239.403 267.005 241.209 266.39 243.05 266.48C243.757 266.476 244.462 266.557 245.15 266.72C245.725 266.847 246.271 267.081 246.76 267.41L245.14 271.01C244.56 270.589 243.856 270.374 243.14 270.4C241.63 270.4 240.81 271.23 240.66 272.89L240.67 273.62Z" fill="white"/>
<path d="M248.15 266.48C247.179 266.499 246.215 266.31 245.322 265.927C244.43 265.543 243.629 264.974 242.974 264.256C242.319 263.539 241.825 262.69 241.524 261.766C241.223 260.843 241.123 259.866 241.23 258.9C241.44 256.848 242.394 254.944 243.912 253.547C245.43 252.151 247.407 251.358 249.47 251.32H250.93C251.901 251.303 252.864 251.493 253.756 251.877C254.647 252.261 255.447 252.83 256.102 253.547C256.756 254.264 257.251 255.113 257.552 256.036C257.854 256.958 257.955 257.935 257.85 258.9C257.64 260.954 256.684 262.86 255.164 264.256C253.644 265.653 251.664 266.444 249.6 266.48H248.15Z" fill="#263238"/>
<path d="M249.39 255.92L249.31 256.82L246.65 261.87H245.16L247.71 257.05H245.71L245.63 258.05H244.4L244.59 255.96L249.39 255.92Z" fill="white"/>
<path d="M250.61 261.61C250.236 261.35 249.953 260.979 249.8 260.55C249.612 260.022 249.55 259.457 249.62 258.9C249.653 258.322 249.814 257.759 250.09 257.25C250.32 256.812 250.666 256.445 251.09 256.19C251.495 255.94 251.964 255.812 252.44 255.82C252.895 255.808 253.342 255.937 253.72 256.19C254.101 256.445 254.389 256.817 254.54 257.25C254.718 257.781 254.78 258.344 254.72 258.9C254.677 259.476 254.517 260.038 254.25 260.55C254.014 260.984 253.67 261.35 253.25 261.61C252.842 261.853 252.375 261.981 251.9 261.98C251.443 261.987 250.994 261.858 250.61 261.61ZM252.9 260.34C253.172 259.909 253.321 259.41 253.33 258.9C253.413 258.41 253.35 257.906 253.15 257.45C253.072 257.305 252.955 257.184 252.812 257.103C252.668 257.021 252.505 256.982 252.34 256.99C252.165 256.988 251.992 257.028 251.837 257.108C251.682 257.189 251.549 257.306 251.45 257.45C251.176 257.885 251.024 258.386 251.01 258.9C250.928 259.388 250.994 259.89 251.2 260.34C251.273 260.488 251.388 260.611 251.53 260.694C251.672 260.777 251.835 260.818 252 260.81C252.177 260.812 252.352 260.769 252.509 260.688C252.666 260.606 252.8 260.486 252.9 260.34Z" fill="white"/>
<path d="M153.92 342.73H137C136.067 342.745 135.141 342.562 134.284 342.192C133.427 341.823 132.659 341.275 132.03 340.585C131.401 339.896 130.926 339.081 130.636 338.194C130.347 337.306 130.249 336.368 130.35 335.44L131.83 318.51C132.033 316.537 132.951 314.706 134.413 313.365C135.874 312.023 137.776 311.264 139.76 311.23H156.68C157.612 311.213 158.538 311.395 159.395 311.764C160.252 312.132 161.02 312.679 161.649 313.368C162.278 314.057 162.754 314.871 163.043 315.758C163.333 316.645 163.431 317.583 163.33 318.51L161.85 335.44C161.647 337.414 160.729 339.246 159.268 340.589C157.807 341.932 155.904 342.694 153.92 342.73Z" fill="url(#paint33_linear_2204_1384)"/>
<path d="M147.61 318.08C141.44 318.08 136.1 322.08 135.67 326.95C135.585 328.349 135.89 329.743 136.55 330.979C137.211 332.214 138.2 333.243 139.41 333.95C138.646 335.363 137.675 336.654 136.53 337.78C138.182 337.768 139.814 337.411 141.32 336.73C142.056 336.401 142.759 336.003 143.42 335.54C144.29 335.71 145.174 335.797 146.06 335.8C152.22 335.8 157.57 331.8 158 326.92C158.43 322.04 153.77 318.08 147.61 318.08Z" fill="white"/>
<path d="M158.4 320.71C157.429 320.727 156.466 320.537 155.574 320.153C154.683 319.769 153.883 319.2 153.228 318.483C152.574 317.766 152.079 316.918 151.778 315.995C151.476 315.072 151.375 314.095 151.48 313.13C151.69 311.076 152.646 309.171 154.166 307.774C155.686 306.377 157.666 305.586 159.73 305.55H161.18C162.151 305.531 163.115 305.72 164.008 306.104C164.9 306.487 165.701 307.057 166.356 307.774C167.01 308.491 167.505 309.34 167.806 310.264C168.106 311.187 168.207 312.165 168.1 313.13C167.89 315.184 166.934 317.09 165.414 318.486C163.894 319.883 161.914 320.674 159.85 320.71H158.4Z" fill="#263238"/>
<path d="M161.74 313.11C161.868 313.264 161.963 313.443 162.018 313.636C162.073 313.829 162.088 314.031 162.06 314.23C162.035 314.589 161.914 314.934 161.71 315.23C161.48 315.538 161.173 315.779 160.82 315.93C160.382 316.12 159.907 316.212 159.43 316.2C159.017 316.2 158.607 316.143 158.21 316.03C157.849 315.94 157.509 315.781 157.21 315.56L157.83 314.5C158.057 314.678 158.315 314.814 158.59 314.9C158.881 314.992 159.185 315.04 159.49 315.04C159.78 315.051 160.067 314.982 160.32 314.84C160.421 314.781 160.505 314.698 160.566 314.599C160.627 314.499 160.663 314.387 160.67 314.27C160.67 313.79 160.36 313.54 159.62 313.54H159L159.08 312.63L160.42 311.25H157.89L157.99 310.14H162.15L162.07 311.04L160.6 312.57C161.034 312.601 161.441 312.794 161.74 313.11Z" fill="white"/>
<path opacity="0.2" d="M132.31 380H239.31C242.93 379.936 246.4 378.546 249.065 376.095C251.73 373.645 253.404 370.302 253.77 366.7L276.13 111C276.385 108.608 275.915 106.194 274.781 104.072C273.647 101.95 271.901 100.217 269.77 99.1001L129 379.6C130.082 379.875 131.194 380.009 132.31 380Z" fill="white"/>
<path d="M256.78 386.59L249.24 402.06L255.3 407L266.41 390.26L256.78 386.59Z" fill="#B97964"/>
<path d="M258.62 405.54C258.58 405.52 258.547 405.488 258.526 405.449C258.504 405.409 258.495 405.364 258.5 405.32C258.503 405.275 258.52 405.233 258.549 405.199C258.578 405.165 258.617 405.14 258.66 405.13C258.82 405.13 262.44 404.24 263.81 405.13C264.062 405.282 264.245 405.526 264.32 405.81C264.379 405.97 264.387 406.145 264.342 406.31C264.298 406.475 264.202 406.622 264.07 406.73C263.56 407.1 262.36 406.96 261.26 406.64C260.35 406.351 259.466 405.983 258.62 405.54ZM259.38 405.46C260.97 406.16 263.22 406.8 263.8 406.35C263.88 406.29 263.97 406.18 263.89 405.87C263.874 405.781 263.836 405.697 263.781 405.626C263.725 405.554 263.653 405.497 263.57 405.46C263.45 405.383 263.318 405.326 263.18 405.29C261.914 405.111 260.625 405.169 259.38 405.46Z" fill="url(#paint34_linear_2204_1384)"/>
<path d="M258.51 405.5C258.491 405.466 258.48 405.428 258.48 405.39C258.48 405.351 258.491 405.313 258.51 405.28C258.51 405.17 259.51 402.85 260.91 402.28C261.11 402.193 261.327 402.148 261.545 402.148C261.763 402.148 261.979 402.193 262.18 402.28C262.75 402.51 262.84 402.85 262.79 403.1C262.68 404.16 259.98 405.45 258.79 405.61C258.761 405.619 258.729 405.619 258.7 405.61C258.662 405.608 258.625 405.597 258.592 405.578C258.559 405.559 258.531 405.532 258.51 405.5ZM261.88 402.6C261.624 402.495 261.336 402.495 261.08 402.6C260.179 403.158 259.479 403.988 259.08 404.97C260.37 404.64 262.21 403.55 262.34 402.97C262.34 402.91 262.34 402.75 261.99 402.61H261.86L261.88 402.6Z" fill="url(#paint35_linear_2204_1384)"/>
<path d="M258.08 404L248.38 401.14C248.203 401.087 248.014 401.096 247.843 401.165C247.672 401.234 247.53 401.359 247.44 401.52L243.36 408.89C243.183 409.203 243.137 409.574 243.233 409.92C243.329 410.267 243.558 410.562 243.87 410.74L244.13 410.85C247.65 411.85 250.81 412.55 255.13 413.85C260.27 415.37 258.78 415.6 264.79 417.47C268.42 418.59 270.3 414.65 268.79 413.99C261.99 410.99 261.89 408.67 259.92 405.34C259.485 404.689 258.833 404.214 258.08 404Z" fill="#263238"/>
<path opacity="0.1" d="M251.58 397.26L258.91 401.56L266.41 390.26L256.78 386.59L251.58 397.26Z" fill="black"/>
<path d="M340.07 392.86L348.14 408.05L355.46 404.49L348.7 387.23L340.07 392.86Z" fill="#B97964"/>
<path d="M357.07 404C357.027 404.01 356.981 404.008 356.939 403.994C356.896 403.98 356.859 403.954 356.83 403.92C356.801 403.883 356.785 403.837 356.785 403.79C356.785 403.743 356.801 403.697 356.83 403.66C356.92 403.53 359.06 400.49 360.64 400.22C360.786 400.19 360.936 400.189 361.082 400.219C361.228 400.248 361.367 400.306 361.49 400.39C361.638 400.472 361.758 400.597 361.833 400.749C361.908 400.901 361.935 401.072 361.91 401.24C361.77 401.85 360.78 402.55 359.74 403.04C358.88 403.438 357.987 403.759 357.07 404ZM357.58 403.44C359.23 402.9 361.34 401.89 361.48 401.16C361.48 401.07 361.48 400.93 361.23 400.75C361.157 400.695 361.072 400.657 360.982 400.64C360.891 400.622 360.799 400.626 360.71 400.65C360.572 400.678 360.438 400.722 360.31 400.78C359.241 401.495 358.315 402.404 357.58 403.46V403.44Z" fill="url(#paint36_linear_2204_1384)"/>
<path d="M357 404.06C356.962 404.054 356.926 404.037 356.896 404.013C356.866 403.988 356.844 403.956 356.83 403.92C356.83 403.81 355.96 401.45 356.61 400.07C356.701 399.869 356.832 399.689 356.996 399.541C357.159 399.394 357.351 399.281 357.56 399.21C358.13 399.01 358.43 399.21 358.56 399.42C359.18 400.28 358.02 403.04 357.22 403.96C357.199 403.984 357.171 404.002 357.14 404.01C357.102 404.044 357.051 404.062 357 404.06ZM357.6 399.65C357.349 399.767 357.147 399.969 357.03 400.22C356.747 401.236 356.782 402.314 357.13 403.31C357.88 402.21 358.53 400.17 358.21 399.62C358.21 399.62 358.08 399.45 357.71 399.62L357.6 399.68V399.65Z" fill="url(#paint37_linear_2204_1384)"/>
<path d="M355.66 403.25L346.5 407.54C346.334 407.619 346.199 407.752 346.117 407.917C346.036 408.082 346.012 408.27 346.05 408.45L347.89 416.68C347.973 417.025 348.189 417.323 348.49 417.51C348.791 417.697 349.154 417.758 349.5 417.68C349.593 417.659 349.683 417.629 349.77 417.59C353.04 415.99 355.89 414.43 360 412.51C364.85 410.24 363.89 411.4 369.63 408.81C373.09 407.25 371.89 403.05 370.34 403.54C363.28 405.82 361.65 404.13 357.96 402.95C357.182 402.766 356.364 402.873 355.66 403.25Z" fill="#263238"/>
<path opacity="0.1" d="M353.65 399.87L349.59 389.5L344.69 389.85L340.07 392.86L345.99 403.99L353.65 399.87Z" fill="black"/>
<path d="M329.87 190.19L332.65 183.54L335.93 173.23C336.068 172.79 336.306 172.388 336.626 172.055C336.945 171.722 337.336 171.467 337.77 171.31L341.63 169.91C342.297 169.666 343.029 169.667 343.696 169.912C344.362 170.158 344.92 170.632 345.27 171.25L347.53 175.25C347.906 175.918 348.012 176.705 347.826 177.449C347.64 178.193 347.176 178.837 346.53 179.25L338.23 184.68L337.12 192.43L329.87 190.19Z" fill="#B97964"/>
<path d="M297.56 243.8H312.94C312.94 243.8 318.51 263.8 294.94 346.6C294.659 347.592 294.231 348.536 293.67 349.4L261.88 398.4L252.88 393.15C252.88 393.15 261.75 369.74 271.11 352.08C273.29 347.95 275.37 344.61 276.52 341C277.23 338.77 277.72 337.24 277.88 331.63C278.23 318.97 279 296.88 280.29 286.99C280.29 286.99 267.89 264.46 273.14 243.83L297.56 243.8Z" fill="url(#paint38_linear_2204_1384)"/>
<path opacity="0.2" d="M297.56 243.8H312.94C312.94 243.8 318.51 263.8 294.94 346.6C294.659 347.592 294.231 348.536 293.67 349.4L261.88 398.4L252.88 393.15C252.88 393.15 261.75 369.74 271.11 352.08C273.29 347.95 275.37 344.61 276.52 341C277.23 338.77 277.72 337.24 277.88 331.63C278.23 318.97 279 296.88 280.29 286.99C280.29 286.99 267.89 264.46 273.14 243.83L297.56 243.8Z" fill="black"/>
<path d="M308.11 176.34C310.76 178.18 315.78 184.57 322.67 201.04C322.798 201.349 323.017 201.611 323.299 201.791C323.581 201.971 323.911 202.06 324.245 202.046C324.579 202.031 324.901 201.915 325.167 201.712C325.432 201.509 325.629 201.229 325.73 200.91L330.41 186L338.55 187.51C338.55 187.51 335.66 221.18 325.68 221.44C315.7 221.7 303.11 191.52 303.11 191.52C303.11 191.52 301.34 181.68 304.16 177.13C304.363 176.814 304.628 176.541 304.938 176.329C305.249 176.118 305.599 175.97 305.967 175.897C306.336 175.823 306.716 175.824 307.084 175.9C307.452 175.977 307.801 176.126 308.11 176.34Z" fill="url(#paint39_linear_2204_1384)"/>
<path opacity="0.2" d="M308.11 176.34C310.76 178.18 315.78 184.57 322.67 201.04C322.798 201.349 323.017 201.611 323.299 201.791C323.581 201.971 323.911 202.06 324.245 202.046C324.579 202.031 324.901 201.915 325.167 201.712C325.432 201.509 325.629 201.229 325.73 200.91L330.41 186L338.55 187.51C338.55 187.51 335.66 221.18 325.68 221.44C315.7 221.7 303.11 191.52 303.11 191.52C303.11 191.52 301.34 181.68 304.16 177.13C304.363 176.814 304.628 176.541 304.938 176.329C305.249 176.118 305.599 175.97 305.967 175.897C306.336 175.823 306.716 175.824 307.084 175.9C307.452 175.977 307.801 176.126 308.11 176.34Z" fill="black"/>
<path d="M270.55 243.8H301.31L304.12 258.06L353.44 396.82L343.68 402.07C343.68 402.07 322.68 367.32 312.74 343.94C311.13 340.15 310.37 336.49 308.99 333.82C307.84 331.59 306.58 330.77 302.99 325.82C297.13 317.66 289.11 306.24 282.54 292.7C281.61 290.79 281.06 288.7 279.92 286.97C278.686 285.496 277.54 283.95 276.49 282.34C272.36 275.71 266.43 262.31 270.55 243.8Z" fill="url(#paint40_linear_2204_1384)"/>
<path d="M340.07 399.23L353.19 392.22L354.71 396.98L343.07 403.36L340.07 399.23Z" fill="url(#paint41_linear_2204_1384)"/>
<path opacity="0.5" d="M340.07 399.23L353.19 392.22L354.71 396.98L343.07 403.36L340.07 399.23Z" fill="white"/>
<path d="M252.55 389.52L265.18 397.38L261.81 401.08L250.47 394.19L252.55 389.52Z" fill="url(#paint42_linear_2204_1384)"/>
<path opacity="0.5" d="M252.55 389.52L265.18 397.38L261.81 401.08L250.47 394.19L252.55 389.52Z" fill="white"/>
<path d="M259.12 179.56C258.173 180.323 257.48 181.357 257.133 182.523C256.787 183.689 256.803 184.933 257.18 186.09C259.92 194.38 266.32 214.22 267.46 222.01C268.18 226.94 265.57 237.35 267.46 242.01C268.477 243.825 270.046 245.269 271.94 246.13C281.61 249.13 312.48 246.13 312.48 246.13C312.48 246.13 315.15 244.74 315.48 243.85C316.3 241.32 312.48 233.61 312.48 233.61C312.48 233.61 312.8 214.5 312.48 208.15C312.21 202.8 311.34 191.49 310.76 184.15C310.589 181.898 309.779 179.741 308.426 177.933C307.073 176.125 305.232 174.74 303.12 173.94C293.43 170.24 275.36 166.47 259.12 179.56Z" fill="url(#paint43_linear_2204_1384)"/>
<path opacity="0.5" d="M259.11 179.57C258.166 180.334 257.477 181.366 257.132 182.53C256.788 183.694 256.804 184.936 257.18 186.09C259.92 194.37 266.32 214.22 267.46 222.01C268.18 226.94 265.57 237.35 267.46 242.01C268.477 243.825 270.046 245.269 271.94 246.13C280.19 248.72 303.87 246.89 310.65 246.3C312.142 246.189 313.564 245.627 314.73 244.69C315.033 244.471 315.28 244.183 315.45 243.85C316.27 241.32 312.45 233.61 312.45 233.61C312.45 233.61 312.77 214.5 312.45 208.15C312.18 202.8 311.31 191.49 310.73 184.15C310.559 181.9 309.75 179.746 308.399 177.94C307.048 176.133 305.21 174.749 303.1 173.95C293.44 170.24 275.36 166.47 259.11 179.57Z" fill="white"/>
<path d="M293.57 189.19C293.57 189.19 273.62 186.19 270.29 174.49C266.96 162.79 292.52 163.99 297.42 173.62C302.32 183.25 293.57 189.19 293.57 189.19Z" fill="url(#paint44_linear_2204_1384)"/>
<path opacity="0.2" d="M293.57 189.19C293.57 189.19 273.62 186.19 270.29 174.49C266.96 162.79 292.52 163.99 297.42 173.62C302.32 183.25 293.57 189.19 293.57 189.19Z" fill="black"/>
<path d="M292.69 185.87C292.69 185.87 279.39 183.59 277.29 175.87C275.19 168.15 290.85 169.22 294.62 175.87C297.55 181.07 292.69 185.87 292.69 185.87Z" fill="#B97964"/>
<path d="M273.43 245.11L279.98 250.27C282.087 250.164 284.199 250.21 286.3 250.41C287.56 250.823 288.79 251.324 289.98 251.91L282.79 261C281.89 260.518 281.016 259.991 280.17 259.42C278.674 258.043 277.249 256.591 275.9 255.07L269.49 251.46L273.43 245.11Z" fill="#B97964"/>
<path d="M302.1 135.71C302.1 135.71 305.92 141.02 299.79 140.71C293.66 140.4 302.1 135.71 302.1 135.71Z" fill="#263238"/>
<path d="M278.07 173.85L278.87 176.05C282.97 178.17 287.16 180.12 291.44 181.85C293.66 180.67 292.83 179.4 293.57 178.33L293.98 175.86C290.6 174.13 289.72 170.08 290.06 166.96C290.156 166.001 290.313 165.049 290.53 164.11L283.53 158.25L278.37 154C279.64 159.66 281 169.07 278.07 173.85Z" fill="#B97964"/>
<path opacity="0.2" d="M290.53 164.11C290.313 165.049 290.156 166.001 290.06 166.96C287.42 166.44 283.48 164.09 283.11 161.12C283.131 160.15 283.269 159.187 283.52 158.25L290.53 164.11Z" fill="black"/>
<path d="M278.9 141.38C277.83 149.8 276.76 154.66 280.18 159.82C285.24 167.58 296.11 165.96 299.62 158.08C302.83 151.01 303.96 138.42 296.52 133.39C294.923 132.258 293.057 131.564 291.107 131.377C289.158 131.191 287.195 131.519 285.412 132.329C283.629 133.138 282.09 134.401 280.947 135.991C279.804 137.581 279.099 139.442 278.9 141.39V141.38Z" fill="#B97964"/>
<path d="M291.06 146.51C290.94 147.2 291.19 147.82 291.63 147.91C292.07 148 292.53 147.54 292.7 146.84C292.87 146.14 292.57 145.54 292.13 145.45C291.69 145.36 291.19 145.84 291.06 146.51Z" fill="#2E353A"/>
<path d="M299 148C298.87 148.67 299.13 149.3 299.57 149.39C300.01 149.48 300.46 149.01 300.63 148.32C300.8 147.63 300.51 147.02 300.07 146.92C299.63 146.82 299.09 147.34 299 148Z" fill="#2E353A"/>
<path d="M295.87 147.92C296.24 149.84 296.827 151.712 297.62 153.5C297.156 153.708 296.653 153.815 296.145 153.815C295.637 153.815 295.134 153.708 294.67 153.5L295.87 147.92Z" fill="#A24E3F"/>
<path d="M293.51 158.11C292.721 158.071 291.948 157.873 291.237 157.53C290.526 157.186 289.891 156.704 289.37 156.11C289.337 156.069 289.318 156.018 289.318 155.965C289.318 155.912 289.337 155.861 289.37 155.82C289.407 155.786 289.455 155.768 289.505 155.768C289.555 155.768 289.603 155.786 289.64 155.82C290.208 156.47 290.919 156.981 291.717 157.31C292.515 157.64 293.378 157.78 294.24 157.72C294.29 157.717 294.339 157.733 294.378 157.764C294.417 157.796 294.442 157.841 294.45 157.89C294.45 157.942 294.431 157.993 294.396 158.032C294.36 158.071 294.312 158.095 294.26 158.1L293.51 158.11Z" fill="#2E353A"/>
<path d="M289.31 143.67C289.245 143.671 289.181 143.65 289.13 143.61C289.045 143.549 288.987 143.458 288.968 143.355C288.949 143.252 288.971 143.146 289.03 143.06C289.389 142.544 289.868 142.123 290.425 141.832C290.982 141.542 291.601 141.39 292.23 141.39C292.282 141.392 292.333 141.405 292.38 141.428C292.427 141.451 292.469 141.482 292.504 141.522C292.538 141.561 292.565 141.607 292.581 141.656C292.598 141.706 292.604 141.758 292.6 141.81C292.59 141.915 292.539 142.012 292.459 142.081C292.379 142.15 292.275 142.186 292.17 142.18C291.669 142.172 291.174 142.29 290.731 142.522C290.287 142.754 289.909 143.094 289.63 143.51C289.595 143.562 289.547 143.604 289.491 143.632C289.435 143.661 289.373 143.673 289.31 143.67Z" fill="#2E353A"/>
<path d="M302.64 145.41C302.575 145.403 302.512 145.382 302.457 145.347C302.401 145.312 302.355 145.265 302.32 145.21C302.079 144.756 301.736 144.364 301.318 144.065C300.9 143.767 300.418 143.57 299.91 143.49C299.857 143.486 299.806 143.472 299.759 143.448C299.712 143.425 299.67 143.392 299.636 143.352C299.601 143.312 299.575 143.265 299.559 143.215C299.542 143.165 299.536 143.112 299.54 143.06C299.55 142.956 299.599 142.861 299.677 142.792C299.755 142.723 299.856 142.687 299.96 142.69C300.595 142.78 301.199 143.021 301.721 143.394C302.243 143.766 302.668 144.259 302.96 144.83C302.989 144.874 303.008 144.924 303.018 144.976C303.027 145.028 303.025 145.081 303.013 145.133C303.001 145.184 302.978 145.233 302.947 145.275C302.915 145.318 302.876 145.353 302.83 145.38C302.77 145.403 302.705 145.414 302.64 145.41Z" fill="#2E353A"/>
<path d="M277.86 147.63C277.86 147.63 285.53 151.33 282.54 138.63C282.54 138.63 291.17 141.94 294.79 137.95C294.79 137.95 306.92 139.39 305.28 134.2C305.28 134.2 306.08 130.99 301.28 132.2C301.28 132.2 301.57 128.37 296.67 128.84C296.67 128.84 295.49 126.13 291.01 127.34C291.01 127.34 290.55 123.82 284.57 127.03C284.57 127.03 277.01 126.97 278.22 132.03C278.22 132.03 268.14 132.13 272.28 138.3C272.28 138.3 269.16 141 272.86 142.91C272.88 142.87 271 150.07 277.86 147.63Z" fill="#263238"/>
<path d="M274.25 148.47C274.719 150.512 275.882 152.329 277.54 153.61C279.68 155.18 281.29 153.28 281.17 150.61C281.06 148.2 279.83 144.47 277.47 143.98C275.11 143.49 273.68 145.89 274.25 148.47Z" fill="#B97964"/>
<path d="M258.16 180.11C256.819 181.006 255.703 182.201 254.9 183.6C251.72 189.22 243.4 205.66 244.46 222.27C245.78 242.75 273.85 254.27 273.85 254.27L278.03 247.43C278.03 247.43 250.56 225.71 263.03 203.35C263.06 203.36 277.78 167 258.16 180.11Z" fill="url(#paint45_linear_2204_1384)"/>
<path opacity="0.2" d="M258.16 180.11C256.819 181.006 255.703 182.201 254.9 183.6C251.72 189.22 243.4 205.66 244.46 222.27C245.78 242.75 273.85 254.27 273.85 254.27L278.03 247.43C278.03 247.43 250.56 225.71 263.03 203.35C263.06 203.36 277.78 167 258.16 180.11Z" fill="black"/>
<path d="M291.67 188.04L292.92 188.23L291.61 200.31L289.96 200.47L291.67 188.04Z" fill="url(#paint46_linear_2204_1384)"/>
<path d="M294.18 187.42L295.18 186.5C296.791 188.098 298.069 190 298.937 192.096C299.806 194.193 300.249 196.441 300.24 198.71L298.87 199.3C298.87 199.3 298.12 190.31 294.18 187.42Z" fill="url(#paint47_linear_2204_1384)"/>
<path d="M289.06 250.1L278.92 263.58L283.21 266.03L293.48 252.2L289.06 250.1Z" fill="url(#paint48_linear_2204_1384)"/>
<path opacity="0.2" d="M289.06 250.1L278.92 263.58L283.21 266.03L293.48 252.2L289.06 250.1Z" fill="black"/>
<path opacity="0.1" d="M310.07 234.09C300.524 235.676 290.834 236.223 281.17 235.72C281.17 235.72 304.58 241.62 310.07 234.09Z" fill="black"/>
<path d="M337.18 183H332.81C332.654 182.998 332.5 182.957 332.364 182.881C332.228 182.804 332.113 182.695 332.03 182.562C331.948 182.43 331.9 182.279 331.891 182.123C331.882 181.967 331.913 181.811 331.98 181.67L340.21 164.8C340.393 164.427 340.678 164.114 341.032 163.896C341.386 163.678 341.794 163.565 342.21 163.57H346.59C346.746 163.569 346.9 163.607 347.036 163.683C347.173 163.758 347.288 163.867 347.37 164C347.453 164.132 347.5 164.284 347.507 164.44C347.513 164.596 347.48 164.751 347.41 164.89L339.18 181.76C339 182.136 338.716 182.453 338.362 182.673C338.007 182.893 337.597 183.006 337.18 183Z" fill="url(#paint49_linear_2204_1384)"/>
<path opacity="0.2" d="M347.39 164.09C347.319 163.929 347.202 163.793 347.055 163.697C346.908 163.601 346.736 163.55 346.56 163.55H342.18C341.764 163.545 341.356 163.658 341.002 163.876C340.648 164.094 340.363 164.407 340.18 164.78L334 177.45L347.39 164.09Z" fill="white"/>
<path d="M346.56 163.55H346.41C346.402 163.644 346.375 163.736 346.33 163.82L338.1 180.69C337.92 181.066 337.636 181.383 337.282 181.603C336.927 181.823 336.517 181.936 336.1 181.93H331.9C331.889 182.056 331.904 182.184 331.945 182.304C331.985 182.425 332.051 182.535 332.136 182.629C332.222 182.723 332.326 182.798 332.442 182.85C332.558 182.902 332.683 182.929 332.81 182.93H337.18C337.597 182.936 338.007 182.823 338.362 182.603C338.716 182.383 339 182.066 339.18 181.69L347.41 164.82C347.47 164.68 347.494 164.528 347.48 164.377C347.467 164.225 347.415 164.08 347.331 163.954C347.246 163.827 347.131 163.724 346.997 163.654C346.862 163.583 346.712 163.548 346.56 163.55Z" fill="url(#paint50_linear_2204_1384)"/>
<path opacity="0.2" d="M346.56 163.55H346.41C346.402 163.644 346.375 163.736 346.33 163.82L338.1 180.69C337.92 181.066 337.636 181.383 337.282 181.603C336.927 181.823 336.517 181.936 336.1 181.93H331.9C331.889 182.056 331.904 182.184 331.945 182.304C331.985 182.425 332.051 182.535 332.136 182.629C332.222 182.723 332.326 182.798 332.442 182.85C332.558 182.902 332.683 182.929 332.81 182.93H337.18C337.597 182.936 338.007 182.823 338.362 182.603C338.716 182.383 339 182.066 339.18 181.69L347.41 164.82C347.47 164.68 347.494 164.528 347.48 164.377C347.467 164.225 347.415 164.08 347.331 163.954C347.246 163.827 347.131 163.724 346.997 163.654C346.862 163.583 346.712 163.548 346.56 163.55Z" fill="black"/>
<path d="M344.93 171.26L343.64 170.49C343.33 170.302 342.977 170.196 342.615 170.182C342.253 170.167 341.893 170.245 341.569 170.408C341.245 170.571 340.968 170.814 340.763 171.113C340.559 171.413 340.434 171.759 340.4 172.12L339.73 179C339.674 179.565 339.843 180.129 340.2 180.57L340.83 181.33C340.916 181.438 341.029 181.52 341.158 181.569C341.287 181.618 341.427 181.632 341.563 181.608C341.699 181.585 341.826 181.525 341.931 181.436C342.036 181.346 342.115 181.23 342.16 181.1L345.26 172.18C345.318 172.012 345.317 171.829 345.257 171.662C345.197 171.495 345.081 171.353 344.93 171.26Z" fill="#B97964"/>
<defs>
<linearGradient id="paint0_linear_2204_1384" x1="303.87" y1="105.999" x2="345.09" y2="105.999" gradientUnits="userSpaceOnUse">
<stop stop-color="#6D53FF"/>
<stop offset="1" stop-color="#8A49F7"/>
</linearGradient>
<linearGradient id="paint1_linear_2204_1384" x1="305.21" y1="104.759" x2="346.439" y2="104.759" gradientUnits="userSpaceOnUse">
<stop stop-color="#6D53FF"/>
<stop offset="1" stop-color="#8A49F7"/>
</linearGradient>
<linearGradient id="paint2_linear_2204_1384" x1="332.573" y1="87.6805" x2="351.186" y2="87.6805" gradientUnits="userSpaceOnUse">
<stop stop-color="#6D53FF"/>
<stop offset="1" stop-color="#8A49F7"/>
</linearGradient>
<linearGradient id="paint3_linear_2204_1384" x1="350.019" y1="145.569" x2="383.08" y2="145.569" gradientUnits="userSpaceOnUse">
<stop stop-color="#6D53FF"/>
<stop offset="1" stop-color="#8A49F7"/>
</linearGradient>
<linearGradient id="paint4_linear_2204_1384" x1="351.1" y1="144.568" x2="384.161" y2="144.568" gradientUnits="userSpaceOnUse">
<stop stop-color="#6D53FF"/>
<stop offset="1" stop-color="#8A49F7"/>
</linearGradient>
<linearGradient id="paint5_linear_2204_1384" x1="372.41" y1="128.871" x2="389.112" y2="128.871" gradientUnits="userSpaceOnUse">
<stop stop-color="#6D53FF"/>
<stop offset="1" stop-color="#8A49F7"/>
</linearGradient>
<linearGradient id="paint6_linear_2204_1384" x1="217.34" y1="237.908" x2="289.496" y2="237.908" gradientUnits="userSpaceOnUse">
<stop stop-color="#6D53FF"/>
<stop offset="1" stop-color="#8A49F7"/>
</linearGradient>
<linearGradient id="paint7_linear_2204_1384" x1="120.152" y1="237.949" x2="276.239" y2="237.949" gradientUnits="userSpaceOnUse">
<stop stop-color="#6D53FF"/>
<stop offset="1" stop-color="#8A49F7"/>
</linearGradient>
<linearGradient id="paint8_linear_2204_1384" x1="180.975" y1="365.627" x2="193.225" y2="365.627" gradientUnits="userSpaceOnUse">
<stop stop-color="#6D53FF"/>
<stop offset="1" stop-color="#8A49F7"/>
</linearGradient>
<linearGradient id="paint9_linear_2204_1384" x1="139.684" y1="365.673" x2="142.384" y2="365.673" gradientUnits="userSpaceOnUse">
<stop stop-color="#6D53FF"/>
<stop offset="1" stop-color="#8A49F7"/>
</linearGradient>
<linearGradient id="paint10_linear_2204_1384" x1="144.614" y1="365.673" x2="147.305" y2="365.673" gradientUnits="userSpaceOnUse">
<stop stop-color="#6D53FF"/>
<stop offset="1" stop-color="#8A49F7"/>
</linearGradient>
<linearGradient id="paint11_linear_2204_1384" x1="149.534" y1="365.673" x2="152.235" y2="365.673" gradientUnits="userSpaceOnUse">
<stop stop-color="#6D53FF"/>
<stop offset="1" stop-color="#8A49F7"/>
</linearGradient>
<linearGradient id="paint12_linear_2204_1384" x1="227.23" y1="365.667" x2="234.562" y2="365.667" gradientUnits="userSpaceOnUse">
<stop stop-color="#6D53FF"/>
<stop offset="1" stop-color="#8A49F7"/>
</linearGradient>
<linearGradient id="paint13_linear_2204_1384" x1="283.809" y1="129.162" x2="289.762" y2="129.162" gradientUnits="userSpaceOnUse">
<stop stop-color="#6D53FF"/>
<stop offset="1" stop-color="#8A49F7"/>
</linearGradient>
<linearGradient id="paint14_linear_2204_1384" x1="150.79" y1="107.51" x2="154.05" y2="107.51" gradientUnits="userSpaceOnUse">
<stop stop-color="#6D53FF"/>
<stop offset="1" stop-color="#8A49F7"/>
</linearGradient>
<linearGradient id="paint15_linear_2204_1384" x1="156.79" y1="106.001" x2="160.31" y2="106.001" gradientUnits="userSpaceOnUse">
<stop stop-color="#6D53FF"/>
<stop offset="1" stop-color="#8A49F7"/>
</linearGradient>
<linearGradient id="paint16_linear_2204_1384" x1="162.79" y1="104.491" x2="166.58" y2="104.491" gradientUnits="userSpaceOnUse">
<stop stop-color="#6D53FF"/>
<stop offset="1" stop-color="#8A49F7"/>
</linearGradient>
<linearGradient id="paint17_linear_2204_1384" x1="257.46" y1="105.699" x2="268.9" y2="105.699" gradientUnits="userSpaceOnUse">
<stop stop-color="#6D53FF"/>
<stop offset="1" stop-color="#8A49F7"/>
</linearGradient>
<linearGradient id="paint18_linear_2204_1384" x1="162.26" y1="128.749" x2="165.834" y2="128.749" gradientUnits="userSpaceOnUse">
<stop stop-color="#6D53FF"/>
<stop offset="1" stop-color="#8A49F7"/>
</linearGradient>
<linearGradient id="paint19_linear_2204_1384" x1="155.88" y1="127.364" x2="165.41" y2="127.364" gradientUnits="userSpaceOnUse">
<stop stop-color="#6D53FF"/>
<stop offset="1" stop-color="#8A49F7"/>
</linearGradient>
<linearGradient id="paint20_linear_2204_1384" x1="154.925" y1="128.749" x2="158.5" y2="128.749" gradientUnits="userSpaceOnUse">
<stop stop-color="#6D53FF"/>
<stop offset="1" stop-color="#8A49F7"/>
</linearGradient>
<linearGradient id="paint21_linear_2204_1384" x1="155.21" y1="130.665" x2="165.05" y2="130.665" gradientUnits="userSpaceOnUse">
<stop stop-color="#6D53FF"/>
<stop offset="1" stop-color="#8A49F7"/>
</linearGradient>
<linearGradient id="paint22_linear_2204_1384" x1="151.919" y1="169.274" x2="161.725" y2="169.274" gradientUnits="userSpaceOnUse">
<stop stop-color="#6D53FF"/>
<stop offset="1" stop-color="#8A49F7"/>
</linearGradient>
<linearGradient id="paint23_linear_2204_1384" x1="154.587" y1="169.218" x2="159.383" y2="169.218" gradientUnits="userSpaceOnUse">
<stop stop-color="#6D53FF"/>
<stop offset="1" stop-color="#8A49F7"/>
</linearGradient>
<linearGradient id="paint24_linear_2204_1384" x1="250.36" y1="128.999" x2="252.65" y2="128.999" gradientUnits="userSpaceOnUse">
<stop stop-color="#6D53FF"/>
<stop offset="1" stop-color="#8A49F7"/>
</linearGradient>
<linearGradient id="paint25_linear_2204_1384" x1="253.07" y1="129.074" x2="257.18" y2="129.074" gradientUnits="userSpaceOnUse">
<stop stop-color="#6D53FF"/>
<stop offset="1" stop-color="#8A49F7"/>
</linearGradient>
<linearGradient id="paint26_linear_2204_1384" x1="246.59" y1="169.269" x2="250.78" y2="169.269" gradientUnits="userSpaceOnUse">
<stop stop-color="#6D53FF"/>
<stop offset="1" stop-color="#8A49F7"/>
</linearGradient>
<linearGradient id="paint27_linear_2204_1384" x1="251.05" y1="169.229" x2="255.17" y2="169.229" gradientUnits="userSpaceOnUse">
<stop stop-color="#6D53FF"/>
<stop offset="1" stop-color="#8A49F7"/>
</linearGradient>
<linearGradient id="paint28_linear_2204_1384" x1="172.801" y1="326.878" x2="205.858" y2="326.878" gradientUnits="userSpaceOnUse">
<stop stop-color="#6D53FF"/>
<stop offset="1" stop-color="#8A49F7"/>
</linearGradient>
<linearGradient id="paint29_linear_2204_1384" x1="215.311" y1="326.878" x2="248.368" y2="326.878" gradientUnits="userSpaceOnUse">
<stop stop-color="#6D53FF"/>
<stop offset="1" stop-color="#8A49F7"/>
</linearGradient>
<linearGradient id="paint30_linear_2204_1384" x1="134.88" y1="274.548" x2="167.94" y2="274.548" gradientUnits="userSpaceOnUse">
<stop stop-color="#6D53FF"/>
<stop offset="1" stop-color="#8A49F7"/>
</linearGradient>
<linearGradient id="paint31_linear_2204_1384" x1="177.38" y1="274.548" x2="210.44" y2="274.548" gradientUnits="userSpaceOnUse">
<stop stop-color="#6D53FF"/>
<stop offset="1" stop-color="#8A49F7"/>
</linearGradient>
<linearGradient id="paint32_linear_2204_1384" x1="219.88" y1="274.548" x2="252.94" y2="274.548" gradientUnits="userSpaceOnUse">
<stop stop-color="#6D53FF"/>
<stop offset="1" stop-color="#8A49F7"/>
</linearGradient>
<linearGradient id="paint33_linear_2204_1384" x1="130.311" y1="326.878" x2="163.368" y2="326.878" gradientUnits="userSpaceOnUse">
<stop stop-color="#6D53FF"/>
<stop offset="1" stop-color="#8A49F7"/>
</linearGradient>
<linearGradient id="paint34_linear_2204_1384" x1="258.499" y1="405.835" x2="264.371" y2="405.835" gradientUnits="userSpaceOnUse">
<stop stop-color="#6D53FF"/>
<stop offset="1" stop-color="#8A49F7"/>
</linearGradient>
<linearGradient id="paint35_linear_2204_1384" x1="258.48" y1="403.871" x2="262.802" y2="403.871" gradientUnits="userSpaceOnUse">
<stop stop-color="#6D53FF"/>
<stop offset="1" stop-color="#8A49F7"/>
</linearGradient>
<linearGradient id="paint36_linear_2204_1384" x1="356.785" y1="402.089" x2="361.919" y2="402.089" gradientUnits="userSpaceOnUse">
<stop stop-color="#6D53FF"/>
<stop offset="1" stop-color="#8A49F7"/>
</linearGradient>
<linearGradient id="paint37_linear_2204_1384" x1="356.369" y1="401.578" x2="358.736" y2="401.578" gradientUnits="userSpaceOnUse">
<stop stop-color="#6D53FF"/>
<stop offset="1" stop-color="#8A49F7"/>
</linearGradient>
<linearGradient id="paint38_linear_2204_1384" x1="252.88" y1="320.601" x2="313.514" y2="320.601" gradientUnits="userSpaceOnUse">
<stop stop-color="#6D53FF"/>
<stop offset="1" stop-color="#8A49F7"/>
</linearGradient>
<linearGradient id="paint39_linear_2204_1384" x1="302.562" y1="198.495" x2="338.55" y2="198.495" gradientUnits="userSpaceOnUse">
<stop stop-color="#6D53FF"/>
<stop offset="1" stop-color="#8A49F7"/>
</linearGradient>
<linearGradient id="paint40_linear_2204_1384" x1="269.156" y1="322.425" x2="353.44" y2="322.425" gradientUnits="userSpaceOnUse">
<stop stop-color="#6D53FF"/>
<stop offset="1" stop-color="#8A49F7"/>
</linearGradient>
<linearGradient id="paint41_linear_2204_1384" x1="340.07" y1="397.754" x2="354.71" y2="397.754" gradientUnits="userSpaceOnUse">
<stop stop-color="#6D53FF"/>
<stop offset="1" stop-color="#8A49F7"/>
</linearGradient>
<linearGradient id="paint42_linear_2204_1384" x1="250.47" y1="395.263" x2="265.18" y2="395.263" gradientUnits="userSpaceOnUse">
<stop stop-color="#6D53FF"/>
<stop offset="1" stop-color="#8A49F7"/>
</linearGradient>
<linearGradient id="paint43_linear_2204_1384" x1="256.885" y1="208.7" x2="315.595" y2="208.7" gradientUnits="userSpaceOnUse">
<stop stop-color="#6D53FF"/>
<stop offset="1" stop-color="#8A49F7"/>
</linearGradient>
<linearGradient id="paint44_linear_2204_1384" x1="269.992" y1="177.548" x2="298.91" y2="177.548" gradientUnits="userSpaceOnUse">
<stop stop-color="#6D53FF"/>
<stop offset="1" stop-color="#8A49F7"/>
</linearGradient>
<linearGradient id="paint45_linear_2204_1384" x1="244.367" y1="215.516" x2="278.03" y2="215.516" gradientUnits="userSpaceOnUse">
<stop stop-color="#6D53FF"/>
<stop offset="1" stop-color="#8A49F7"/>
</linearGradient>
<linearGradient id="paint46_linear_2204_1384" x1="289.96" y1="194.215" x2="292.92" y2="194.215" gradientUnits="userSpaceOnUse">
<stop stop-color="#6D53FF"/>
<stop offset="1" stop-color="#8A49F7"/>
</linearGradient>
<linearGradient id="paint47_linear_2204_1384" x1="294.18" y1="192.859" x2="300.24" y2="192.859" gradientUnits="userSpaceOnUse">
<stop stop-color="#6D53FF"/>
<stop offset="1" stop-color="#8A49F7"/>
</linearGradient>
<linearGradient id="paint48_linear_2204_1384" x1="278.92" y1="258.013" x2="293.48" y2="258.013" gradientUnits="userSpaceOnUse">
<stop stop-color="#6D53FF"/>
<stop offset="1" stop-color="#8A49F7"/>
</linearGradient>
<linearGradient id="paint49_linear_2204_1384" x1="331.889" y1="173.222" x2="347.507" y2="173.222" gradientUnits="userSpaceOnUse">
<stop stop-color="#6D53FF"/>
<stop offset="1" stop-color="#8A49F7"/>
</linearGradient>
<linearGradient id="paint50_linear_2204_1384" x1="331.896" y1="173.177" x2="347.484" y2="173.177" gradientUnits="userSpaceOnUse">
<stop stop-color="#6D53FF"/>
<stop offset="1" stop-color="#8A49F7"/>
</linearGradient>
</defs>
</svg>
