<svg width="500" height="500" viewBox="0 0 500 500" fill="none" xmlns="http://www.w3.org/2000/svg">
<path d="M220.75 467.65C219.17 466.29 215.64 461.99 218.36 456.99C219.36 455.15 221.48 454.24 223.36 453.44C225.34 452.773 227.205 451.805 228.89 450.57C231.89 448.03 232.71 443.79 234.7 440.39C236.98 436.49 241.24 433.57 245.7 433.77C250.85 434.01 255.15 438.22 257.1 443.02C259.05 447.82 259.1 453.15 259.16 458.33C259.16 461.2 259.05 464.43 256.95 466.33C255.01 468.12 252.09 468.14 249.46 468.06L221.29 467.19" fill="#F5F5F5"/>
<path d="M274.63 390.19H200.55L213.9 469.76C214.175 471.417 214.915 472.963 216.033 474.216C217.152 475.47 218.604 476.38 220.22 476.84L220.48 476.91C220.7 476.97 220.91 477.04 221.14 477.08C221.634 477.18 222.136 477.241 222.64 477.26V477.33L223 477.27H256C256.608 477.271 257.214 477.211 257.81 477.09C259.737 476.794 261.514 475.874 262.867 474.47C264.22 473.066 265.075 471.257 265.3 469.32L271.74 414.5L272.03 412.32L274.58 390.6L274.63 390.19ZM260.63 440.95H253.03L253.8 417.85H262.61L260.63 440.95ZM263.34 417.85H270.62L267.93 441H261.39L263.34 417.85ZM241.63 466.54L241.16 446.48H252.11L251.44 466.54H241.63ZM229.79 446.48H240.43L240.89 466.54H231.35L229.79 446.48ZM230.61 466.54H221.69C220.85 461.13 219.69 454.09 218.55 446.48H229.05L230.61 466.54ZM229.38 441L227.59 417.9H239.79L240.32 441H229.38ZM241.06 441L240.52 417.9H253.08L252.32 441H241.06ZM240.4 412.37L239.9 390.98H254L253.29 412.37H240.4ZM239.66 412.37H227.16L225.49 390.98H239.17L239.66 412.37ZM226.42 412.37H213.19C212.72 409.37 212.27 406.62 211.87 404.1C210.49 395.46 209.97 392.2 209.69 390.98H224.76L226.42 412.37ZM226.85 417.9L228.64 441H217.7C217.33 438.65 216.96 436.28 216.59 433.91C215.73 428.46 214.87 423.01 214.06 417.91L226.85 417.9ZM217 441H209.85L205.98 417.9H213.36C214.45 425 215.7 432.93 217 441ZM217.87 446.53C218.96 453.47 220.03 460.32 221.01 466.59H214.1L210.74 446.53H217.87ZM252.24 466.59L252.91 446.53H260.22L258.51 466.59H252.24ZM254.04 412.37L254.75 390.98H264.97L263.14 412.37H254.04ZM209.04 390.98C209.33 392.53 210.68 400.98 212.49 412.37H205L201.41 390.98H209.04ZM264.98 466.59H259.2L260.92 446.53H267.28L264.98 466.59ZM271.34 412.37H263.89L265.71 390.98H273.85L271.34 412.37Z" fill="#E0E0E0"/>
<path d="M339.07 92.8599H300.47V169.38H339.07V92.8599Z" fill="#F5F5F5"/>
<path d="M382.27 92.8599H340.56V169.38H382.27V92.8599Z" fill="#F5F5F5"/>
<path d="M382.27 174.73H340.56V248.67H382.27V174.73Z" fill="#F5F5F5"/>
<path d="M387.62 91.5399H431.54V23.6599H433.03V91.5399H468.77V22.1499H387.62V91.5399Z" fill="#F5F5F5"/>
<path d="M468.78 92.8599H433.03V169.38H468.78V92.8599Z" fill="#F5F5F5"/>
<path d="M468.78 174.73H433.03V248.67H468.78V174.73Z" fill="#F5F5F5"/>
<path d="M339.07 174.73H300.47V248.67H339.07V174.73Z" fill="#F5F5F5"/>
<path d="M431.55 174.73H387.62V248.67H431.55V174.73Z" fill="#F5F5F5"/>
<path d="M339.07 249.99H300.47V316.62H339.07V249.99Z" fill="#F5F5F5"/>
<path d="M468.78 249.99H433.03V316.62H468.78V249.99Z" fill="#F5F5F5"/>
<path d="M339.07 91.5399V23.6599H340.56V91.5399H382.27V22.1499H300.47V91.5399H339.07Z" fill="#F5F5F5"/>
<path d="M431.55 249.99H387.62V316.62H431.55V249.99Z" fill="#F5F5F5"/>
<path d="M382.27 249.99H340.56V316.62H382.27V249.99Z" fill="#F5F5F5"/>
<path d="M431.55 92.8599H387.62V169.38H431.55V92.8599Z" fill="#F5F5F5"/>
<path d="M30.17 209.73C29.1703 210 28.1042 209.865 27.2035 209.354C26.3028 208.843 25.6403 207.997 25.36 207L16.53 174C16.3377 173.162 16.4841 172.282 16.9374 171.552C17.3906 170.821 18.1139 170.3 18.95 170.1L22.05 169.27C22.6582 169.117 23.2116 168.797 23.648 168.346C24.0844 167.896 24.3864 167.333 24.52 166.72L24.82 165.19C24.9547 164.578 25.2571 164.015 25.6933 163.564C26.1295 163.114 26.6823 162.794 27.29 162.64L42 158.71C42.552 158.558 43.1333 158.547 43.6907 158.678C44.248 158.809 44.7636 159.078 45.19 159.46L46.19 160.41C46.6174 160.79 47.1334 161.057 47.6907 161.187C48.248 161.316 48.8288 161.303 49.38 161.15L68.12 156.15C68.9381 155.916 69.8153 156.012 70.5632 156.418C71.3111 156.824 71.87 157.507 72.12 158.32L81.12 192C81.3888 193.004 81.2481 194.073 80.7287 194.973C80.2092 195.873 79.3537 196.53 78.35 196.8L30.17 209.73Z" fill="#E0E0E0"/>
<path d="M47.55 161.64L35.62 164.82L34 163.11C33.4654 162.566 32.7943 162.176 32.0571 161.981C31.3199 161.785 30.5437 161.792 29.81 162L18.16 165.13C17.1889 165.358 16.3479 165.962 15.8212 166.809C15.2945 167.657 15.125 168.678 15.35 169.65L15.71 171.01L25.31 206.77C25.4735 207.308 25.7413 207.808 26.0981 208.242C26.455 208.676 26.8938 209.036 27.3897 209.301C27.8856 209.565 28.4287 209.73 28.9881 209.785C29.5475 209.839 30.1122 209.783 30.65 209.62L78 196.9C78.5474 196.773 79.0644 196.539 79.5212 196.211C79.9781 195.884 80.3658 195.47 80.6622 194.992C80.9585 194.515 81.1577 193.983 81.2483 193.429C81.3389 192.874 81.319 192.307 81.19 191.76L72.11 158C72.0148 157.641 71.8497 157.304 71.6241 157.009C71.3985 156.714 71.1169 156.467 70.7954 156.281C70.4739 156.095 70.1189 155.975 69.7507 155.927C69.3826 155.878 69.0085 155.903 68.65 156L47.55 161.64Z" fill="#EBEBEB"/>
<path d="M190.05 157.37C188.826 157.074 187.77 156.304 187.114 155.229C186.458 154.155 186.255 152.864 186.55 151.64L196.23 111.57C196.508 110.567 197.173 109.715 198.078 109.201C198.984 108.687 200.056 108.554 201.06 108.83L204.83 109.74C205.566 109.928 206.339 109.907 207.064 109.679C207.788 109.451 208.434 109.025 208.93 108.45L210.14 107.01C210.636 106.438 211.281 106.016 212.003 105.79C212.726 105.564 213.497 105.543 214.23 105.73L232.12 110.05C232.802 110.198 233.436 110.516 233.96 110.977C234.485 111.437 234.884 112.023 235.12 112.68L235.66 114.29C235.897 114.946 236.297 115.531 236.821 115.991C237.346 116.451 237.978 116.771 238.66 116.92L261.46 122.43C262.479 122.642 263.373 123.249 263.945 124.119C264.516 124.989 264.72 126.05 264.51 127.07L254.61 168.07C254.464 168.676 254.201 169.246 253.835 169.75C253.468 170.254 253.006 170.68 252.475 171.005C251.944 171.33 251.354 171.547 250.739 171.644C250.124 171.741 249.495 171.716 248.89 171.57L190.05 157.37Z" fill="#E0E0E0"/>
<path d="M236.33 116.38L221.83 112.84L221.12 110.1C220.869 109.207 220.382 108.398 219.709 107.759C219.037 107.12 218.205 106.675 217.3 106.47L203.12 103C201.956 102.681 200.712 102.836 199.663 103.432C198.613 104.028 197.842 105.017 197.52 106.18L197.12 107.83L186.61 151.35C186.332 152.692 186.596 154.089 187.346 155.236C188.096 156.383 189.269 157.186 190.61 157.47L248.21 171.38C249.532 171.742 250.944 171.566 252.136 170.889C253.328 170.212 254.203 169.091 254.57 167.77L264.5 126.66C264.606 126.224 264.624 125.771 264.555 125.328C264.485 124.885 264.329 124.46 264.095 124.077C263.861 123.694 263.554 123.361 263.191 123.098C262.828 122.834 262.416 122.644 261.98 122.54L236.33 116.38Z" fill="#EBEBEB"/>
<path d="M78.37 104.5C76.9658 104.654 75.5578 104.245 74.4552 103.362C73.3527 102.479 72.6458 101.194 72.49 99.79L67.49 53.79C67.4449 53.2121 67.5142 52.631 67.6939 52.0799C67.8736 51.5288 68.1602 51.0186 68.5373 50.5783C68.9144 50.1381 69.3746 49.7765 69.8915 49.5143C70.4084 49.252 70.972 49.0943 71.55 49.05L75.87 48.57C76.7179 48.4919 77.527 48.1779 78.2057 47.6636C78.8844 47.1493 79.4054 46.4552 79.71 45.66L80.43 43.66C80.7375 42.8667 81.2594 42.1745 81.9375 41.6607C82.6155 41.1468 83.4231 40.8315 84.27 40.75L104.81 38.49C105.58 38.3952 106.362 38.4968 107.082 38.7853C107.802 39.0738 108.438 39.5398 108.93 40.14L110.12 41.63C110.613 42.2299 111.248 42.6963 111.968 42.9863C112.688 43.2764 113.469 43.3808 114.24 43.29L140.42 40.41C140.994 40.3266 141.579 40.3572 142.141 40.5001C142.703 40.643 143.231 40.8954 143.696 41.2428C144.16 41.5902 144.552 42.0258 144.847 42.5247C145.143 43.0235 145.338 43.5759 145.42 44.15L150.59 91.2C150.668 91.8955 150.608 92.5996 150.413 93.2718C150.218 93.944 149.893 94.5712 149.455 95.1174C149.018 95.6636 148.477 96.1181 147.863 96.4549C147.25 96.7917 146.576 97.0041 145.88 97.08L78.37 104.5Z" fill="#E0E0E0"/>
<path d="M111.61 43.5798L95 45.3698L93.2099 42.7598C92.6062 41.9095 91.7836 41.2385 90.8294 40.8177C89.8752 40.397 88.825 40.2422 87.79 40.3698L71.47 42.1598C70.1179 42.2646 68.8626 42.9015 67.9795 43.9307C67.0965 44.96 66.6579 46.2975 66.76 47.6498L66.97 49.5498L72.4599 99.5498C72.69 101.059 73.5051 102.418 74.7291 103.331C75.953 104.244 77.4873 104.639 78.9999 104.43L145.12 97.1598C145.881 97.1016 146.623 96.894 147.304 96.5489C147.985 96.2038 148.591 95.7279 149.088 95.1484C149.585 94.5689 149.963 93.8972 150.2 93.1716C150.437 92.446 150.529 91.6809 150.47 90.9198L145.28 43.7298C145.225 43.2293 145.072 42.7445 144.83 42.3032C144.588 41.8618 144.261 41.4726 143.868 41.1577C143.475 40.8429 143.024 40.6086 142.54 40.4682C142.057 40.3279 141.55 40.2842 141.05 40.3398L111.61 43.5798Z" fill="#F5F5F5"/>
<path d="M114.55 73.15C115.642 72.5158 116.525 71.5754 117.088 70.445C117.651 69.3147 117.871 68.0439 117.72 66.79C117.724 65.9368 117.547 65.0924 117.203 64.312C116.858 63.5315 116.353 62.8324 115.72 62.2604C115.087 61.6884 114.34 61.2562 113.529 60.9922C112.718 60.7281 111.86 60.638 111.011 60.7278C110.163 60.8176 109.343 61.0852 108.605 61.5133C107.867 61.9413 107.227 62.5202 106.728 63.212C106.229 63.9039 105.881 64.6932 105.707 65.5286C105.533 66.3639 105.538 67.2265 105.72 68.06C105.835 69.3279 106.323 70.5334 107.122 71.5246C107.921 72.5158 108.995 73.2483 110.21 73.63C101.11 76.04 102.63 86.06 102.63 86.06L124.54 83.76C124.54 83.76 123.88 73.53 114.55 73.15Z" fill="#E0E0E0"/>
<path d="M35 97.4399C35.9178 97.0252 36.886 96.7327 37.88 96.5699L38.76 93.9199L43.36 94.3799L43.7 97.1499C44.6439 97.5046 45.5354 97.9856 46.35 98.5799L48.85 97.3299L51.77 100.9L50.06 103.1C50.4747 104.018 50.7672 104.986 50.93 105.98L53.57 106.87L53.11 111.46L50.34 111.81C49.9867 112.753 49.5091 113.644 48.92 114.46L50.17 117L46.6 119.93L44.4 118.21C43.4792 118.626 42.5075 118.919 41.51 119.08L40.63 121.73L36 121.22L35.65 118.45C34.7076 118.083 33.8169 117.596 33 117L30.5 118.24L27.58 114.67L29.3 112.47C28.8807 111.554 28.588 110.585 28.43 109.59L25.78 108.7L26.24 104.11L29.01 103.77C29.361 102.823 29.8387 101.928 30.43 101.11L29.19 98.6199L32.76 95.6899L35 97.4399ZM36.72 103.83C35.9497 104.454 35.3822 105.292 35.0895 106.239C34.7967 107.186 34.792 108.198 35.0758 109.148C35.3597 110.097 35.9194 110.941 36.6837 111.572C37.4481 112.203 38.3827 112.592 39.3689 112.691C40.355 112.79 41.3482 112.593 42.2224 112.126C43.0966 111.659 43.8122 110.943 44.2785 110.068C44.7447 109.194 44.9406 108.2 44.8411 107.214C44.7417 106.228 44.3515 105.294 43.72 104.53C42.8806 103.515 41.6746 102.872 40.3639 102.741C39.0532 102.61 37.7437 103.001 36.72 103.83Z" fill="#E0E0E0"/>
<path d="M58.29 284.27C58.6988 284.276 59.1054 284.209 59.49 284.07C59.9462 283.886 60.3365 283.569 60.61 283.16C60.7824 282.903 60.9014 282.614 60.96 282.31C61.02 281.98 61.05 281.61 61.1 281.23C61.49 278.13 62.04 273.7 62.73 268.23L63.28 263.93C63.37 263.18 63.47 262.42 63.57 261.64L63.72 260.47C63.7874 260.09 63.8175 259.705 63.81 259.32C63.771 258.944 63.6391 258.583 63.4261 258.271C63.2132 257.958 62.9258 257.704 62.59 257.53C62.2298 257.358 61.8388 257.259 61.44 257.24L60.16 257.07L54.87 256.39L31.3 253.32C30.833 253.263 30.36 253.354 29.9474 253.58C29.5349 253.806 29.2035 254.156 29 254.58C28.9033 254.793 28.836 255.019 28.8 255.25L28.7 256.02C28.63 256.53 28.57 257.02 28.5 257.55C28.2333 259.59 27.97 261.59 27.71 263.55C27.18 267.49 26.71 271.29 26.2 274.92C26.08 275.82 25.96 276.71 25.85 277.59C25.8269 277.982 25.9071 278.373 26.0826 278.724C26.2581 279.075 26.5227 279.373 26.85 279.59C27.1795 279.815 27.5622 279.949 27.96 279.98L29.21 280.15L31.67 280.48L40.67 281.69L53.67 283.48L57.19 283.99L58.1 284.14C58.2064 284.147 58.311 284.17 58.41 284.21H58.1L57.18 284.12L53.64 283.7L40.64 282.08L31.64 280.93L29.18 280.61L27.93 280.45C27.2124 280.389 26.548 280.046 26.0816 279.498C25.6152 278.949 25.3846 278.238 25.44 277.52C25.55 276.63 25.66 275.73 25.78 274.82C26.25 271.2 26.78 267.4 27.26 263.46C27.52 261.46 27.78 259.46 28.05 257.46C28.11 256.95 28.18 256.46 28.25 255.93L28.35 255.16C28.3904 254.877 28.4713 254.6 28.59 254.34C28.8405 253.814 29.2512 253.38 29.7632 253.102C30.2752 252.824 30.8621 252.714 31.44 252.79L55 255.9L60.29 256.61L61.57 256.78C62.0172 256.813 62.4546 256.928 62.86 257.12C63.2602 257.328 63.6023 257.633 63.8554 258.007C64.1086 258.38 64.2648 258.811 64.31 259.26C64.3248 259.679 64.2912 260.099 64.21 260.51C64.21 260.91 64.11 261.3 64.05 261.69C63.95 262.47 63.85 263.23 63.74 263.98C63.54 265.47 63.35 266.9 63.16 268.27C62.41 273.72 61.8 278.14 61.37 281.27C61.31 281.65 61.28 282 61.21 282.35C61.1359 282.673 61.0001 282.979 60.81 283.25C60.512 283.677 60.0894 284.002 59.6 284.18C59.307 284.293 58.9932 284.34 58.68 284.32C58.5484 284.319 58.4175 284.302 58.29 284.27Z" fill="#E0E0E0"/>
<path d="M59 280.26C58.8862 280.145 58.7856 280.017 58.7 279.88L57.93 278.73C57.24 277.65 56.31 276.21 55.18 274.47L53.3 271.47L52.79 270.67C52.7173 270.564 52.6182 270.479 52.5024 270.422C52.3867 270.366 52.2583 270.341 52.13 270.35C51.86 270.35 51.68 270.53 51.4 270.77L50.6 271.46L48.95 272.87C48.7973 273.007 48.6334 273.131 48.46 273.24C48.2487 273.353 48.0079 273.398 47.77 273.37C47.5287 273.349 47.3007 273.251 47.12 273.09C47.0274 273.016 46.9465 272.928 46.88 272.83L46.72 272.59C45.87 271.3 45 269.96 44.1 268.59L42.77 266.59L42.12 265.59C42.0454 265.465 41.9348 265.366 41.8027 265.305C41.6706 265.245 41.5232 265.225 41.38 265.25C41.2394 265.272 41.1096 265.338 41.01 265.44L40.61 265.84L39.81 266.63L38.26 268.16L32.9 273.44L29.24 277L28.24 277.94C28.1259 278.055 27.9983 278.156 27.86 278.24C27.9442 278.102 28.045 277.974 28.16 277.86L29.16 276.86L32.69 273.22C34.21 271.68 36 269.87 37.97 267.86L39.51 266.32L40.3 265.52L40.71 265.12C40.8807 264.947 41.1008 264.832 41.34 264.79C41.5819 264.747 41.8313 264.777 42.0558 264.877C42.2804 264.977 42.4699 265.141 42.6 265.35L43.25 266.35L44.58 268.35L47.2 272.35C47.2477 272.5 47.3373 272.632 47.4583 272.732C47.5792 272.833 47.7264 272.896 47.8822 272.915C48.0381 272.934 48.1961 272.908 48.3375 272.839C48.479 272.771 48.5978 272.664 48.68 272.53L50.34 271.13L51.15 270.46C51.2824 270.337 51.4227 270.224 51.57 270.12C51.7456 270.004 51.9496 269.938 52.16 269.93C52.3579 269.926 52.5534 269.973 52.7283 270.066C52.9032 270.159 53.0517 270.294 53.16 270.46C53.34 270.74 53.51 271.01 53.67 271.28L55.5 274.28L58.11 278.63L58.8 279.83C58.93 280.1 59 280.25 59 280.26Z" fill="#E0E0E0"/>
<path d="M52 263.73C52 263.73 52 263.46 51.9 263.01C51.7852 262.382 51.4734 261.808 51.01 261.37C50.6746 261.057 50.2676 260.832 49.8247 260.713C49.3819 260.595 48.9166 260.587 48.47 260.69C47.928 260.815 47.4371 261.102 47.063 261.514C46.6889 261.925 46.4494 262.441 46.3765 262.992C46.3036 263.544 46.4009 264.104 46.6553 264.599C46.9097 265.093 47.309 265.498 47.8 265.76C48.2058 265.978 48.6593 266.092 49.12 266.092C49.5806 266.092 50.0341 265.978 50.44 265.76C51.0019 265.461 51.4513 264.987 51.72 264.41C51.91 263.99 51.95 263.73 52 263.74C52.0358 263.991 52.0012 264.247 51.9 264.48C51.6814 265.151 51.2265 265.719 50.62 266.08C50.1697 266.349 49.6593 266.501 49.1352 266.522C48.6112 266.543 48.0902 266.432 47.62 266.2C47.0182 265.907 46.5238 265.432 46.2068 264.843C45.8898 264.253 45.7662 263.579 45.8536 262.915C45.941 262.252 46.2348 261.632 46.6936 261.145C47.1524 260.658 47.7528 260.327 48.41 260.2C48.9291 260.089 49.4679 260.113 49.9754 260.269C50.4829 260.424 50.9422 260.707 51.31 261.09C51.7966 261.609 52.0774 262.288 52.1 263C52.135 263.248 52.1003 263.5 52 263.73Z" fill="#E0E0E0"/>
<path d="M214 86.5399C214.369 86.7208 214.77 86.8294 215.18 86.8599C215.671 86.8736 216.154 86.7414 216.57 86.4799C216.835 86.319 217.063 86.1044 217.24 85.8499C217.43 85.5799 217.61 85.2499 217.81 84.9299L224.62 73.7499L226.88 70.05C227.28 69.41 227.68 68.75 228.09 68.05L228.71 67.05C228.929 66.7373 229.113 66.402 229.26 66.05C229.38 65.6898 229.408 65.3055 229.341 64.9318C229.275 64.5581 229.116 64.2068 228.88 63.9099C228.619 63.6099 228.303 63.3622 227.95 63.1799L226.85 62.5099L222.31 59.7099L202.05 47.2499C201.8 47.0988 201.524 46.9983 201.235 46.9542C200.947 46.9101 200.653 46.9233 200.37 46.9929C200.086 47.0626 199.82 47.1873 199.585 47.3601C199.35 47.5329 199.151 47.7503 199 47.9999L198.59 48.6599L197.76 49.9999C196.68 51.7399 195.61 53.4599 194.57 55.1499C192.47 58.5299 190.45 61.79 188.57 64.9L187.16 67.19C186.87 67.7181 186.801 68.3396 186.967 68.9186C187.134 69.4976 187.523 69.987 188.05 70.2799L189.13 70.9499L191.23 72.2499L198.86 76.9999L209.96 83.9999L212.96 85.91L213.73 86.41L213.98 86.5999L213.7 86.4599L212.9 85.9999L209.85 84.1699L198.67 77.3L191 72.58L188.88 71.2899L187.8 70.62C187.387 70.3773 187.043 70.0331 186.8 69.62C186.544 69.2114 186.402 68.7416 186.39 68.2595C186.377 67.7775 186.495 67.301 186.73 66.8799C187.19 66.1099 187.66 65.3399 188.14 64.5599L194.14 54.7999L197.33 49.6299L198.14 48.3199L198.54 47.6599C198.696 47.4188 198.885 47.2001 199.1 47.0099C199.546 46.6337 200.098 46.4071 200.68 46.3622C201.261 46.3174 201.842 46.4565 202.34 46.7599L222.55 59.2599L227.08 62.0799L228.18 62.7599C228.566 62.9705 228.906 63.2561 229.18 63.5999C229.46 63.9526 229.647 64.37 229.724 64.8138C229.801 65.2576 229.765 65.7136 229.62 66.1399C229.467 66.5303 229.265 66.8999 229.02 67.2399L228.39 68.2399C227.98 68.9099 227.57 69.5599 227.17 70.2399C226.38 71.5199 225.61 72.7499 224.88 73.9199L218 84.9999C217.78 85.3299 217.61 85.6399 217.4 85.9299C217.201 86.1958 216.949 86.4173 216.66 86.5799C216.215 86.8475 215.698 86.9698 215.18 86.9299C214.866 86.9099 214.559 86.8248 214.28 86.6799C214.181 86.6444 214.087 86.5974 214 86.5399Z" fill="#E0E0E0"/>
<path d="M211.26 65.26L213.11 68.96C213.209 69.1223 213.26 69.3094 213.256 69.4994C213.253 69.6894 213.195 69.8745 213.09 70.0329C212.985 70.1914 212.837 70.3167 212.664 70.3941C212.49 70.4715 212.298 70.4978 212.11 70.47L207.9 70.34L203.81 70.22C203.627 70.2078 203.451 70.148 203.299 70.0466C203.146 69.9452 203.023 69.8057 202.941 69.6419C202.859 69.4782 202.822 69.2959 202.832 69.1132C202.842 68.9304 202.9 68.7535 203 68.6L205.31 65.07L207.64 61.51C207.731 61.3425 207.867 61.2044 208.034 61.1119C208.2 61.0194 208.39 60.9764 208.58 60.9879C208.77 60.9995 208.953 61.0651 209.107 61.1771C209.261 61.2891 209.38 61.4427 209.45 61.62L211.26 65.26Z" fill="#E0E0E0"/>
<path d="M466 477.64C466 477.79 369.3 477.9 250 477.9C130.7 477.9 34 477.79 34 477.64C34 477.49 130.68 477.38 250 477.38C369.32 477.38 466 477.5 466 477.64Z" fill="#263238"/>
<path d="M441.28 297C431.88 301.87 424.67 310.26 419.49 319.49C414.31 328.72 410.96 338.85 407.65 348.91L404.76 400.78C415.7 382.17 424.48 360.29 426.85 338.83L419.57 338.19C424.45 337.44 428.57 333.9 431.15 329.71C433.73 325.52 435.15 320.71 436.41 315.92L427.53 317.24C434.544 312.511 439.468 305.263 441.28 297Z" fill="#455A64"/>
<g opacity="0.3">
<path d="M441.28 297C431.88 301.87 424.67 310.26 419.49 319.49C414.31 328.72 410.96 338.85 407.65 348.91L404.76 400.78C415.7 382.17 424.48 360.29 426.85 338.83L419.57 338.19C424.45 337.44 428.57 333.9 431.15 329.71C433.73 325.52 435.15 320.71 436.41 315.92L427.53 317.24C434.544 312.511 439.468 305.263 441.28 297Z" fill="black"/>
</g>
<path d="M403.14 412.89C403.14 412.89 379.4 384.47 379.67 357.34H389.26C389.26 357.34 378.84 350.49 379.67 346.65C380.5 342.81 380.77 328.29 380.77 328.29L389.53 330.49C389.53 330.49 382.96 327.2 382.14 321.99C381.32 316.78 384.05 292.67 384.05 292.67C384.05 292.67 394.74 303.91 398.05 315.41C401.36 326.91 409.97 340.35 407.43 375.41C404.89 410.47 403.14 412.89 403.14 412.89Z" fill="#455A64"/>
<path d="M415.18 415.57C415.18 415.57 440.9 398.43 446.61 376.57L438.9 374.48C438.9 374.48 448.78 371.25 448.95 367.98C449.12 364.71 452.09 352.98 452.09 352.98L444.56 352.83C444.56 352.83 450.56 351.62 452.36 347.61C454.16 343.6 457.24 323.61 457.24 323.61C457.24 323.61 446.19 330.31 441.03 338.84C435.87 347.37 426 356.28 420.35 385C414.7 413.72 415.18 415.57 415.18 415.57Z" fill="#455A64"/>
<path d="M390.54 317.45C390.581 317.543 390.611 317.64 390.63 317.74L390.84 318.62C391.02 319.42 391.28 320.55 391.6 321.99C391.92 323.43 392.32 325.25 392.73 327.34C393.14 329.43 393.65 331.8 394.14 334.44C395.14 339.71 396.23 346.01 397.34 353.02C398.45 360.03 399.48 367.76 400.43 375.89C401.38 384.02 402.08 391.8 402.64 398.89C403.2 405.98 403.55 412.35 403.76 417.71C403.89 420.39 403.95 422.82 404.02 424.95C404.09 427.08 404.12 428.95 404.13 430.42C404.14 431.89 404.13 433.04 404.13 433.87V434.77C404.13 434.97 404.13 435.08 404.13 435.08C404.12 434.977 404.12 434.873 404.13 434.77C404.13 434.54 404.13 434.24 404.13 433.87C404.13 433.05 404.05 431.87 404 430.42C403.95 428.97 403.89 427.09 403.79 424.96C403.69 422.83 403.62 420.41 403.46 417.73C403.21 412.37 402.78 406 402.23 398.93C401.68 391.86 400.91 384.1 399.98 375.93C399.05 367.76 397.98 360.08 396.93 353.07C395.88 346.06 394.82 339.76 393.84 334.49C393.38 331.85 392.91 329.49 392.52 327.37C392.13 325.25 391.77 323.48 391.47 322.01C391.17 320.54 390.97 319.43 390.81 318.62C390.74 318.25 390.69 317.96 390.65 317.73C390.599 317.643 390.562 317.548 390.54 317.45Z" fill="#263238"/>
<path d="M399.85 430.29C399.85 430.29 378.12 405.64 371.37 390.73L376.46 388.56C372.77 389.17 368.99 387.56 366.13 385.17C363.27 382.78 361.13 379.59 359.13 376.47L365.84 375.34C359.67 373.585 354.41 369.525 351.15 364C359.07 365.3 366.23 369.65 372.15 375.09C376.839 379.594 381.097 384.525 384.87 389.82C386.768 392.366 388.422 395.084 389.81 397.94C393.44 405.47 399.86 421.24 399.85 430.29Z" fill="#455A64"/>
<path d="M447 338C446.983 338.088 446.953 338.172 446.91 338.25L446.58 338.97L445.26 341.71C444.1 344.08 442.45 347.52 440.46 351.8C436.46 360.34 431.21 372.27 426.01 385.69C420.81 399.11 416.7 411.48 413.9 420.49C412.5 424.99 411.4 428.65 410.67 431.18L409.8 434.09L409.56 434.84C409.535 434.93 409.502 435.017 409.46 435.1C409.448 435.01 409.448 434.92 409.46 434.83C409.51 434.63 409.57 434.37 409.65 434.06C409.84 433.35 410.09 432.37 410.42 431.12C411.1 428.57 412.14 424.9 413.5 420.38C416.21 411.38 420.29 398.94 425.5 385.5C430.71 372.06 436.02 360.15 440.1 351.64C442.1 347.38 443.83 343.96 445.05 341.64C445.65 340.5 446.11 339.64 446.45 338.94C446.61 338.66 446.73 338.43 446.83 338.25C446.93 338.07 447 338 447 338Z" fill="#263238"/>
<path d="M401.69 440.85C401.532 440.273 401.422 439.685 401.36 439.09C401.19 437.96 400.9 436.32 400.5 434.3C398.42 423.779 394.605 413.678 389.21 404.41C388.21 402.64 387.32 401.22 386.69 400.25C386.349 399.76 386.045 399.245 385.78 398.71C386.175 399.159 386.536 399.637 386.86 400.14C387.54 401.07 388.46 402.47 389.53 404.23C395.12 413.448 398.961 423.618 400.86 434.23C401.22 436.23 401.45 437.92 401.56 439.07C401.646 439.659 401.69 440.254 401.69 440.85Z" fill="#263238"/>
<path d="M430.35 435.06H382.8V444.76H430.35V435.06Z" fill="url(#paint0_linear_2202_6192)"/>
<path d="M387.34 444.76L392.48 477.38H421.21L426.01 444.76H387.34Z" fill="url(#paint1_linear_2202_6192)"/>
<path d="M427.44 444.76C427.44 444.9 418.44 445.02 407.35 445.02C396.26 445.02 387.26 444.9 387.26 444.76C387.26 444.62 396.26 444.5 407.35 444.5C418.44 444.5 427.44 444.61 427.44 444.76Z" fill="#263238"/>
<path d="M208.08 122.47H56.1V477.64H208.08V122.47Z" fill="#4D4D4D"/>
<g opacity="0.3">
<path d="M97.65 122.47H56.1V477.64H97.65V122.47Z" fill="black"/>
</g>
<path d="M139.55 137.47V134.62L138.17 136.94H137.5L136.12 134.7V137.47H134.72V132.1H136L137.89 135.2L139.72 132.1H140.97V137.47H139.55Z" fill="white"/>
<path d="M144.89 135.54V137.47H143.37V135.52L141.37 132.1H142.97L144.24 134.23L145.51 132.1H146.98L144.89 135.54Z" fill="white"/>
<path d="M151.07 133.28V134.46H153.44V135.63H151.07V137.47H149.55V132.1H153.76V133.28H151.07Z" fill="white"/>
<path d="M154.47 132.1H156V137.47H154.48L154.47 132.1Z" fill="white"/>
<path d="M157.07 132.1H158.58V136.26H161.14V137.47H157.07V132.1Z" fill="white"/>
<path d="M166 136.29V137.47H161.7V132.1H165.9V133.28H163.2V134.18H165.58V135.31H163.2V136.31L166 136.29Z" fill="white"/>
<path d="M166.51 137L167.01 135.89C167.541 136.223 168.153 136.403 168.78 136.41C169.4 136.41 169.65 136.24 169.65 135.98C169.65 135.13 166.6 135.75 166.6 133.76C166.6 132.76 167.38 132.02 168.98 132.02C169.655 132.011 170.321 132.169 170.92 132.48L170.45 133.61C169.999 133.35 169.49 133.209 168.97 133.2C168.33 133.2 168.1 133.41 168.1 133.68C168.1 134.5 171.1 133.89 171.1 135.86C171.1 136.8 170.32 137.59 168.73 137.59C167.949 137.606 167.18 137.402 166.51 137Z" fill="white"/>
<path d="M202.62 217C202.62 217 202.62 216.55 202.62 215.7C202.62 214.85 202.62 213.6 202.62 211.97C202.62 208.68 202.62 203.89 202.62 197.75C202.62 185.49 202.55 167.91 202.51 146.54L202.72 146.75L103.58 146.8L103.84 146.54C103.84 171.76 103.84 195.7 103.84 217L103.61 216.76L175.08 216.88L195.46 216.94H200.87H202.27H202.76H202.3H200.93H195.56L175.24 217.01L103.61 217.13H103.37V217C103.37 195.7 103.37 171.76 103.37 146.54V146.28H103.64L202.78 146.33H202.99V146.54C202.94 167.96 202.9 185.54 202.88 197.89C202.88 204 202.88 208.78 202.82 212.05C202.82 213.66 202.82 214.9 202.82 215.75C202.82 216.6 202.62 217 202.62 217Z" fill="#0B0B0B"/>
<g opacity="0.3">
<path d="M174.15 189.89H133.79V196.72H174.15V189.89Z" fill="black"/>
</g>
<path d="M166.74 159.5H145.93C144.555 159.5 143.44 160.615 143.44 161.99V176.77C143.44 178.145 144.555 179.26 145.93 179.26H166.74C168.115 179.26 169.23 178.145 169.23 176.77V161.99C169.23 160.615 168.115 159.5 166.74 159.5Z" fill="white"/>
<path d="M167.55 176.33C167.201 176.035 166.889 175.699 166.62 175.33L164.23 172.56L162.6 170.63L162.16 170.11C162.106 170.049 162.037 170.003 161.96 169.977C161.883 169.95 161.8 169.945 161.72 169.96C161.56 169.96 161.46 170.11 161.28 170.32L160.77 170.88L159.77 172.05C159.673 172.189 159.547 172.305 159.4 172.39C159.253 172.475 159.089 172.526 158.92 172.54C158.733 172.541 158.549 172.489 158.39 172.39C158.311 172.341 158.24 172.28 158.18 172.21L158.04 172.05L155.79 169.45L154.66 168.13L154.1 167.48C154.044 167.407 153.967 167.353 153.879 167.326C153.791 167.299 153.697 167.301 153.61 167.33C153.529 167.357 153.457 167.406 153.4 167.47L153.15 167.8L152.65 168.44C152.33 168.86 151.997 169.27 151.65 169.67L148.3 174L146 176.82C145.734 177.182 145.432 177.517 145.1 177.82C145.305 177.421 145.553 177.045 145.84 176.7L148 173.75L151.26 169.41L152.21 168.16C152.37 167.95 152.54 167.74 152.7 167.52L152.95 167.19C153.072 167.044 153.231 166.934 153.41 166.87C153.588 166.823 153.776 166.826 153.952 166.879C154.129 166.932 154.287 167.033 154.41 167.17L154.97 167.82C155.34 168.25 155.72 168.7 156.11 169.14C156.88 170.03 157.62 170.91 158.35 171.75C158.65 172.18 159 172.17 159.35 171.75L160.41 170.6L160.92 170.04C161.09 169.796 161.342 169.622 161.63 169.55C161.787 169.521 161.949 169.533 162.1 169.586C162.25 169.639 162.385 169.73 162.49 169.85L162.93 170.4L164.51 172.4L166.76 175.27C167.057 175.596 167.322 175.952 167.55 176.33Z" fill="#0B0B0B"/>
<path d="M161 165.18C161 165.18 160.94 164.99 160.83 164.69C160.689 164.26 160.412 163.888 160.04 163.63C159.777 163.449 159.475 163.334 159.158 163.294C158.841 163.254 158.52 163.29 158.22 163.4C157.963 163.497 157.73 163.648 157.537 163.842C157.343 164.037 157.194 164.271 157.099 164.528C157.003 164.785 156.964 165.06 156.984 165.334C157.003 165.607 157.081 165.874 157.213 166.115C157.344 166.356 157.525 166.566 157.745 166.73C157.964 166.895 158.216 167.011 158.484 167.071C158.752 167.13 159.029 167.131 159.298 167.074C159.566 167.017 159.819 166.903 160.04 166.74C160.408 166.478 160.684 166.107 160.83 165.68C160.94 165.37 160.96 165.18 161 165.18C161.04 165.18 161.08 165.38 161 165.73C160.912 166.241 160.642 166.703 160.24 167.03C159.933 167.277 159.569 167.443 159.18 167.511C158.792 167.579 158.393 167.548 158.02 167.42C157.558 167.257 157.157 166.954 156.874 166.554C156.591 166.154 156.438 165.675 156.438 165.185C156.438 164.694 156.591 164.216 156.874 163.816C157.157 163.416 157.558 163.113 158.02 162.95C158.392 162.819 158.792 162.786 159.181 162.854C159.57 162.923 159.934 163.09 160.24 163.34C160.644 163.666 160.914 164.128 161 164.64C161.08 165 161 165.19 161 165.18Z" fill="#0B0B0B"/>
<g opacity="0.4">
<path d="M188.74 222.34H102.31V289.49H188.74V222.34Z" fill="black"/>
</g>
<path d="M153 224.89H136.53L135.53 223.24C135.211 222.698 134.757 222.249 134.211 221.937C133.666 221.625 133.048 221.46 132.42 221.46H120.33C119.403 221.459 118.511 221.814 117.839 222.453C117.167 223.091 116.766 223.964 116.72 224.89H112.41C111.514 224.89 110.654 225.246 110.02 225.88C109.386 226.514 109.03 227.374 109.03 228.27V236.65H156.33V228.27C156.33 227.382 155.981 226.53 155.358 225.897C154.735 225.265 153.888 224.903 153 224.89Z" fill="#E0E0E0"/>
<path d="M161.62 224.89H145.2L144.2 223.24C143.882 222.698 143.428 222.248 142.882 221.936C142.337 221.623 141.719 221.459 141.09 221.46H129C128.074 221.459 127.183 221.815 126.513 222.454C125.842 223.092 125.444 223.965 125.4 224.89H121.08C120.185 224.893 119.328 225.25 118.696 225.883C118.065 226.517 117.71 227.375 117.71 228.27V236.65H165V228.27C165 227.374 164.644 226.514 164.01 225.88C163.376 225.246 162.516 224.89 161.62 224.89Z" fill="#EBEBEB"/>
<path d="M172.9 224.89H156.47L155.47 223.24C155.149 222.698 154.693 222.249 154.146 221.937C153.599 221.625 152.98 221.461 152.35 221.46H140.27C139.344 221.459 138.453 221.815 137.783 222.454C137.112 223.092 136.714 223.965 136.67 224.89H132.36C131.464 224.89 130.604 225.246 129.97 225.88C129.336 226.514 128.98 227.374 128.98 228.27V236.65H176.27V228.27C176.27 227.375 175.915 226.517 175.284 225.883C174.652 225.25 173.795 224.893 172.9 224.89Z" fill="#F5F5F5"/>
<path d="M134.79 268.58V228.31C134.831 227.388 135.237 226.521 135.918 225.899C136.598 225.276 137.498 224.949 138.42 224.99H141.89C142.564 225.001 143.228 224.825 143.808 224.483C144.389 224.141 144.863 223.645 145.18 223.05L145.93 221.57C146.249 220.978 146.724 220.484 147.305 220.144C147.885 219.804 148.547 219.629 149.22 219.64H165.69C166.307 219.63 166.917 219.776 167.463 220.062C168.01 220.349 168.476 220.767 168.82 221.28L169.63 222.53C169.973 223.041 170.438 223.458 170.983 223.744C171.527 224.03 172.135 224.177 172.75 224.17H193.75C194.672 224.129 195.571 224.456 196.252 225.079C196.933 225.701 197.338 226.568 197.38 227.49V268.58H134.79Z" fill="url(#paint2_linear_2202_6192)"/>
<path d="M147.94 235.78V204C147.939 203.376 148.061 202.758 148.299 202.181C148.537 201.604 148.887 201.08 149.328 200.638C149.77 200.197 150.294 199.847 150.871 199.609C151.448 199.371 152.066 199.249 152.69 199.25H203.34C204.6 199.25 205.808 199.75 206.699 200.641C207.59 201.532 208.09 202.74 208.09 204V234.9L147.94 235.78Z" fill="white"/>
<path d="M149 244.94V204.68C149.042 203.758 149.447 202.89 150.127 202.266C150.808 201.642 151.708 201.312 152.63 201.35H156.08C156.754 201.363 157.419 201.19 158.001 200.849C158.583 200.509 159.06 200.014 159.38 199.42L160.12 197.94C160.439 197.345 160.916 196.85 161.498 196.508C162.08 196.165 162.745 195.99 163.42 196H179.89C180.505 195.994 181.113 196.14 181.657 196.426C182.202 196.713 182.667 197.13 183.01 197.64L183.82 198.89C184.163 199.404 184.629 199.823 185.176 200.109C185.723 200.396 186.333 200.541 186.95 200.53H207.95C208.872 200.49 209.771 200.817 210.452 201.439C211.133 202.062 211.538 202.929 211.58 203.85V244.94H149Z" fill="url(#paint3_linear_2202_6192)"/>
<path d="M149.92 245.06H150.23H151.12H154.55L167.42 245L212.51 244.88L212.27 245.12C212.27 238.38 212.27 231.23 212.27 223.76C212.27 220.03 212.27 216.22 212.27 212.35V205C212.301 204.521 212.301 204.04 212.27 203.56C212.188 203.106 212.004 202.677 211.732 202.305C211.46 201.932 211.107 201.626 210.7 201.41C210.324 201.203 209.914 201.064 209.49 201C209.044 200.969 208.596 200.969 208.15 201H188C187.538 201.009 187.078 200.938 186.64 200.79C185.755 200.512 185.002 199.922 184.52 199.13L183.83 198.05C183.618 197.715 183.347 197.42 183.03 197.18C182.393 196.704 181.615 196.455 180.82 196.47H166.22C165.45 196.47 164.63 196.47 163.93 196.47C163.211 196.557 162.537 196.865 162 197.35C160.94 198.26 160.83 200.1 159.45 201.01C158.818 201.465 158.068 201.726 157.29 201.76H155.12C154.427 201.719 153.733 201.719 153.04 201.76C152.387 201.849 151.772 202.123 151.27 202.55C150.778 202.962 150.428 203.518 150.27 204.14C150.179 204.786 150.149 205.439 150.18 206.09C150.18 208.717 150.18 211.243 150.18 213.67C150.18 223.34 150.11 231.17 150.08 236.61C150.08 239.31 150.08 241.42 150.08 242.88C150.08 243.58 150.08 244.13 150.08 244.52C150.08 244.91 150.08 245.09 150.08 245.09C150.08 245.09 150.08 244.91 150.08 244.55C150.08 244.19 150.08 243.64 150.08 242.95C150.08 241.5 150.08 239.41 150.08 236.73C150.08 231.28 150.02 223.43 149.98 213.73C149.98 211.3 149.98 208.73 149.98 206.1C149.941 205.412 149.971 204.722 150.07 204.04C150.185 203.346 150.51 202.704 151 202.2C151.571 201.723 152.264 201.415 153 201.31C153.715 201.251 154.433 201.23 155.15 201.25H157.3C157.992 201.219 158.659 200.986 159.22 200.58C160.44 199.81 160.49 198.1 161.72 196.94C162.327 196.392 163.088 196.043 163.9 195.94C164.72 195.87 165.46 195.94 166.25 195.94H180.85C181.753 195.916 182.638 196.198 183.36 196.74C183.727 197.013 184.039 197.352 184.28 197.74L184.98 198.82C185.401 199.511 186.058 200.026 186.83 200.27C187.216 200.401 187.622 200.462 188.03 200.45H208.17C208.644 200.428 209.119 200.444 209.59 200.5C210.078 200.572 210.549 200.731 210.98 200.97C211.453 201.227 211.862 201.587 212.177 202.023C212.492 202.459 212.705 202.96 212.8 203.49C212.851 203.995 212.868 204.503 212.85 205.01V223.7C212.85 231.17 212.85 238.32 212.85 245.06V245.3H212.61L167.37 245.18L154.55 245.12H151.17H150.3L149.92 245.06Z" fill="#0B0B0B"/>
<path d="M178.54 199.76C176.333 200.017 174.11 200.104 171.89 200.02C169.67 200.104 167.447 200.017 165.24 199.76C167.446 199.497 169.67 199.41 171.89 199.5C174.11 199.409 176.334 199.496 178.54 199.76Z" fill="white"/>
<path d="M169.4 262V221.71C169.4 219.88 171.24 218.39 173.51 218.39H177.43C178.164 218.416 178.892 218.252 179.544 217.914C180.196 217.576 180.749 217.075 181.15 216.46L182 215C182.401 214.385 182.954 213.884 183.606 213.546C184.258 213.208 184.986 213.044 185.72 213.07H204.33C205.007 213.049 205.68 213.186 206.294 213.471C206.909 213.756 207.448 214.18 207.87 214.71L208.78 215.96C209.202 216.487 209.74 216.909 210.353 217.194C210.965 217.478 211.635 217.617 212.31 217.6H236C238.27 217.6 240.1 219.09 240.1 220.92V262H169.4Z" fill="url(#paint4_linear_2202_6192)"/>
<path d="M169.4 262H169.76H170.76H174.66L189.26 261.93L240.13 261.82L239.89 262.06C239.89 255.24 239.89 248.06 239.89 240.67C239.89 236.97 239.89 233.203 239.89 229.37V223.5C239.89 222.55 239.89 221.5 239.89 220.61C239.819 220.164 239.648 219.74 239.39 219.37C239.132 218.999 238.793 218.692 238.4 218.47C237.583 217.987 236.637 217.764 235.69 217.83H212.69C211.719 217.887 210.752 217.669 209.9 217.2C209.468 216.968 209.084 216.656 208.77 216.28C208.46 215.89 208.22 215.54 207.94 215.16C207.475 214.419 206.769 213.861 205.94 213.58C205.109 213.324 204.237 213.228 203.37 213.3H185.44C184.669 213.337 183.921 213.575 183.27 213.99C182.949 214.195 182.665 214.451 182.43 214.75C182.209 215.07 182.008 215.404 181.83 215.75C181.63 216.1 181.45 216.43 181.23 216.75C181 217.096 180.713 217.401 180.38 217.65C179.73 218.137 178.965 218.447 178.16 218.55C176.57 218.65 175.16 218.55 173.62 218.55C172.927 218.51 172.235 218.644 171.608 218.941C170.98 219.238 170.438 219.688 170.03 220.25C169.677 220.821 169.526 221.493 169.6 222.16V224.22C169.6 225.58 169.6 226.91 169.6 228.22C169.6 238.61 169.52 247.01 169.5 252.85C169.5 255.75 169.5 258.02 169.45 259.57C169.45 260.33 169.45 260.92 169.45 261.33C169.45 261.74 169.45 261.95 169.45 261.95C169.45 261.95 169.45 261.76 169.45 261.37C169.45 260.98 169.45 260.37 169.45 259.65C169.45 258.1 169.45 255.85 169.4 252.96C169.4 247.11 169.34 238.68 169.3 228.27C169.3 226.96 169.3 225.62 169.3 224.27V222.19C169.228 221.447 169.396 220.7 169.78 220.06C170.225 219.441 170.817 218.942 171.503 218.611C172.19 218.279 172.948 218.124 173.71 218.16C175.17 218.16 176.71 218.16 178.19 218.1C178.916 218.004 179.605 217.722 180.19 217.28C180.765 216.785 181.22 216.166 181.52 215.47C181.715 215.125 181.929 214.791 182.16 214.47C182.421 214.134 182.739 213.846 183.1 213.62C183.814 213.154 184.639 212.885 185.49 212.84H195.57H203.45C204.375 212.761 205.306 212.866 206.19 213.15C207.099 213.469 207.875 214.086 208.39 214.9C208.66 215.26 208.93 215.65 209.19 215.99C209.474 216.313 209.812 216.584 210.19 216.79C210.971 217.212 211.854 217.406 212.74 217.35H235.74C236.789 217.279 237.834 217.527 238.74 218.06C239.201 218.324 239.596 218.691 239.894 219.131C240.192 219.571 240.386 220.074 240.46 220.6C240.46 221.6 240.46 222.6 240.46 223.54V240.63C240.46 248.05 240.46 255.2 240.46 262.02V262.26H240.22L189.22 262.14L174.56 262H170.71H169.71H169.4Z" fill="#0B0B0B"/>
<path d="M203.52 217.22C200.601 217.478 197.669 217.564 194.74 217.48C191.811 217.564 188.879 217.478 185.96 217.22C188.879 216.957 191.811 216.87 194.74 216.96C197.669 216.87 200.601 216.957 203.52 217.22Z" fill="white"/>
<path d="M165.21 235.76H102.31V289.98H165.21V235.76Z" fill="#4D4D4D"/>
<g opacity="0.3">
<path d="M165.21 235.76H102.31V289.98H165.21V235.76Z" fill="black"/>
</g>
<path d="M264.36 221.46H165.21V291.92H264.36V221.46Z" fill="#4D4D4D"/>
<path d="M264.36 291.91C264.36 291.91 264.36 291.47 264.36 290.62C264.36 289.77 264.36 288.51 264.36 286.88C264.36 283.6 264.36 278.8 264.31 272.67C264.31 260.41 264.24 242.82 264.2 221.46L264.41 221.67L165.27 221.72L165.53 221.46C165.53 246.68 165.53 270.61 165.53 291.91L165.29 291.68L236.76 291.79L257.14 291.86H262.55H264.44H263.98H262.61H257.24L236.92 291.92L165.29 292.04H165V291.8C165 270.5 165 246.57 165 221.35V221.09H165.27H264.41H264.62V221.31C264.57 242.73 264.53 260.31 264.51 272.65C264.51 278.76 264.51 283.54 264.45 286.81C264.45 288.43 264.45 289.66 264.45 290.51C264.45 291.36 264.36 291.91 264.36 291.91Z" fill="#0B0B0B"/>
<g opacity="0.3">
<path d="M243.14 267.87H197.14V274.7H243.14V267.87Z" fill="black"/>
</g>
<path d="M229.04 241.44H208.23C206.855 241.44 205.74 242.555 205.74 243.93V258.71C205.74 260.085 206.855 261.2 208.23 261.2H229.04C230.415 261.2 231.53 260.085 231.53 258.71V243.93C231.53 242.555 230.415 241.44 229.04 241.44Z" fill="white"/>
<path d="M211.21 247.29H216.48V249.06H216.23C216.223 248.805 216.155 248.556 216.031 248.333C215.907 248.111 215.732 247.921 215.52 247.78C215.207 247.636 214.864 247.568 214.52 247.58V252.19C214.49 252.416 214.548 252.645 214.68 252.83C214.891 252.964 215.142 253.02 215.39 252.99V253.22H212.3V253C212.538 253.03 212.78 252.973 212.98 252.84C213.115 252.656 213.176 252.427 213.15 252.2V247.59C212.806 247.581 212.464 247.649 212.15 247.79C211.931 247.924 211.751 248.113 211.627 248.337C211.503 248.561 211.438 248.814 211.44 249.07H211.19L211.21 247.29Z" fill="#0B0B0B"/>
<path d="M226.29 247.76C223.544 248.107 220.766 248.107 218.02 247.76C220.766 247.413 223.544 247.413 226.29 247.76Z" fill="#0B0B0B"/>
<path d="M226.46 251.46C223.711 251.807 220.929 251.807 218.18 251.46C220.929 251.113 223.711 251.113 226.46 251.46Z" fill="#0B0B0B"/>
<path d="M227.56 255.16C224.999 255.417 222.423 255.504 219.85 255.42C217.277 255.504 214.701 255.417 212.14 255.16C214.701 254.897 217.277 254.81 219.85 254.9C222.423 254.81 224.999 254.897 227.56 255.16Z" fill="#0B0B0B"/>
<path d="M202.62 370.39C202.62 370.39 202.62 369.94 202.62 369.09C202.62 368.24 202.62 366.98 202.62 365.35C202.62 362.07 202.62 357.27 202.62 351.14C202.62 338.88 202.55 321.29 202.51 299.93L202.72 300.14L103.58 300.19L103.84 299.93C103.84 325.15 103.84 349.09 103.84 370.39L103.61 370.15L175.08 370.27L195.46 370.33H200.87H202.27H202.76H200.93H195.56L175.24 370.39L103.61 370.51H103.37V370.28C103.37 348.98 103.37 325.04 103.37 299.82V299.56H103.64L202.78 299.61H202.99V299.82C202.94 321.24 202.9 338.87 202.88 351.16C202.88 357.28 202.88 362.06 202.82 365.33C202.82 366.94 202.82 368.18 202.82 369.03C202.82 369.88 202.62 370.39 202.62 370.39Z" fill="#0B0B0B"/>
<g opacity="0.3">
<path d="M175.73 343.24H133.79V350.07H175.73V343.24Z" fill="black"/>
</g>
<path d="M165.89 316.69H145.08C143.705 316.69 142.59 317.805 142.59 319.18V333.96C142.59 335.335 143.705 336.45 145.08 336.45H165.89C167.265 336.45 168.38 335.335 168.38 333.96V319.18C168.38 317.805 167.265 316.69 165.89 316.69Z" fill="white"/>
<path d="M153.69 329.52C153.558 329.793 153.347 330.021 153.085 330.173C152.823 330.326 152.521 330.396 152.218 330.376C151.915 330.355 151.626 330.245 151.387 330.058C151.147 329.872 150.969 329.618 150.876 329.329C150.782 329.041 150.776 328.731 150.86 328.439C150.944 328.147 151.114 327.888 151.346 327.693C151.579 327.499 151.865 327.378 152.167 327.347C152.468 327.316 152.773 327.377 153.04 327.52C153.387 327.704 153.649 328.015 153.77 328.388C153.892 328.762 153.863 329.168 153.69 329.52Z" fill="#0B0B0B"/>
<path d="M153.73 329C153.314 327.876 153.14 326.676 153.22 325.48C153.13 324.297 153.191 323.108 153.4 321.94C153.715 323.088 153.834 324.282 153.75 325.47C153.846 326.645 153.839 327.826 153.73 329Z" fill="#0B0B0B"/>
<path d="M158.25 322.8C157.573 323.196 156.799 323.396 156.014 323.376C155.23 323.357 154.467 323.119 153.81 322.69C153.4 322.38 153.29 322.06 153.35 322.03C153.41 322 153.61 322.19 154.02 322.38C154.545 322.629 155.111 322.778 155.69 322.82C157.07 323 158.2 322.64 158.25 322.8Z" fill="#0B0B0B"/>
<path d="M158.54 330.41C158.401 330.677 158.187 330.897 157.924 331.041C157.66 331.186 157.36 331.25 157.061 331.224C156.761 331.198 156.476 331.084 156.241 330.897C156.007 330.709 155.833 330.456 155.742 330.169C155.651 329.883 155.647 329.576 155.731 329.287C155.815 328.998 155.982 328.741 156.212 328.547C156.442 328.353 156.724 328.232 157.022 328.199C157.321 328.166 157.623 328.222 157.89 328.36C158.068 328.451 158.227 328.576 158.356 328.729C158.486 328.881 158.583 329.058 158.644 329.249C158.704 329.44 158.726 329.641 158.708 329.84C158.691 330.039 158.633 330.233 158.54 330.41Z" fill="#0B0B0B"/>
<path d="M158.58 329.86C158.171 328.734 158.001 327.535 158.08 326.34C157.99 325.158 158.047 323.969 158.25 322.8C158.565 323.948 158.684 325.142 158.6 326.33C158.696 327.505 158.689 328.686 158.58 329.86Z" fill="#0B0B0B"/>
<path d="M158.31 323.84C157.975 324.112 157.586 324.311 157.169 324.425C156.753 324.538 156.317 324.564 155.89 324.5C155.46 324.522 155.03 324.451 154.63 324.293C154.229 324.134 153.868 323.891 153.57 323.58C153.64 323.45 154.63 323.91 155.92 323.97C157.21 324.03 158.25 323.69 158.31 323.84Z" fill="#0B0B0B"/>
<path d="M202.62 447.07C202.62 447.07 202.62 446.62 202.62 445.77C202.62 444.92 202.62 443.67 202.62 442.04C202.62 438.76 202.62 433.96 202.62 427.82C202.62 415.56 202.55 397.98 202.51 376.61L202.72 376.82L103.58 376.87L103.84 376.61C103.84 401.83 103.84 425.77 103.84 447.07L103.61 446.83L175.08 446.95L195.46 447.01H200.87H202.27H200.9H195.53L175.21 447.07L103.58 447.19H103.34V446.95C103.34 425.65 103.34 401.71 103.34 376.49V376.23H103.61H202.75H202.96V376.44C202.91 397.86 202.87 415.49 202.85 427.79C202.85 433.9 202.85 438.68 202.79 441.95C202.79 443.56 202.79 444.8 202.79 445.65C202.79 446.5 202.62 447.07 202.62 447.07Z" fill="#0B0B0B"/>
<g opacity="0.3">
<path d="M175.73 419.92H133.79V426.75H175.73V419.92Z" fill="black"/>
</g>
<path d="M165.89 393.12H145.08C143.705 393.12 142.59 394.235 142.59 395.61V410.39C142.59 411.765 143.705 412.88 145.08 412.88H165.89C167.265 412.88 168.38 411.765 168.38 410.39V395.61C168.38 394.235 167.265 393.12 165.89 393.12Z" fill="white"/>
<path d="M156.87 400.83L158.87 402.01C158.955 402.063 159.025 402.137 159.073 402.224C159.121 402.312 159.147 402.41 159.147 402.51C159.147 402.61 159.121 402.708 159.073 402.796C159.025 402.883 158.955 402.957 158.87 403.01L156.87 404.27L154.87 405.49C154.78 405.546 154.677 405.576 154.571 405.578C154.465 405.58 154.361 405.554 154.269 405.501C154.177 405.449 154.101 405.373 154.048 405.282C153.996 405.19 153.969 405.086 153.97 404.98V400.16C153.97 400.056 153.997 399.953 154.049 399.863C154.101 399.773 154.176 399.698 154.267 399.646C154.357 399.594 154.46 399.567 154.564 399.568C154.668 399.569 154.77 399.597 154.86 399.65L156.87 400.83Z" fill="#0B0B0B"/>
<path d="M348.22 111.12C348.22 111.777 348.025 112.419 347.661 112.965C347.296 113.511 346.777 113.936 346.171 114.187C345.564 114.439 344.896 114.504 344.252 114.376C343.608 114.248 343.017 113.932 342.552 113.468C342.088 113.003 341.772 112.412 341.644 111.768C341.516 111.124 341.581 110.456 341.833 109.85C342.084 109.243 342.51 108.724 343.056 108.36C343.601 107.995 344.243 107.8 344.9 107.8C345.781 107.8 346.625 108.15 347.248 108.772C347.87 109.395 348.22 110.24 348.22 111.12Z" fill="white"/>
<path d="M348.22 111.12C348.22 111.12 348.17 110.83 348.02 110.34C347.807 109.654 347.379 109.054 346.8 108.63C346.379 108.325 345.89 108.129 345.375 108.059C344.861 107.99 344.337 108.048 343.85 108.23C343.26 108.45 342.751 108.845 342.392 109.363C342.033 109.88 341.84 110.495 341.84 111.125C341.84 111.755 342.033 112.37 342.392 112.887C342.751 113.404 343.26 113.8 343.85 114.02C344.337 114.202 344.861 114.26 345.375 114.19C345.89 114.121 346.379 113.925 346.8 113.62C347.379 113.195 347.807 112.596 348.02 111.91C348.17 111.42 348.18 111.12 348.22 111.12C348.298 111.394 348.298 111.685 348.22 111.96C348.077 112.75 347.65 113.461 347.02 113.96C346.559 114.329 346.01 114.574 345.428 114.672C344.845 114.77 344.247 114.718 343.69 114.52C342.999 114.274 342.401 113.821 341.979 113.222C341.556 112.623 341.329 111.908 341.329 111.175C341.329 110.442 341.556 109.727 341.979 109.128C342.401 108.529 342.999 108.075 343.69 107.83C344.246 107.629 344.845 107.575 345.428 107.673C346.012 107.771 346.56 108.018 347.02 108.39C347.65 108.888 348.077 109.599 348.22 110.39C348.31 110.83 348.25 111.13 348.22 111.12Z" fill="#263238"/>
<path d="M377.01 115.69C392.181 115.69 404.48 103.391 404.48 88.22C404.48 73.0487 392.181 60.75 377.01 60.75C361.839 60.75 349.54 73.0487 349.54 88.22C349.54 103.391 361.839 115.69 377.01 115.69Z" fill="white"/>
<path d="M404.49 88.2199C404.459 88.0753 404.442 87.9279 404.44 87.7799L404.34 86.4699C404.34 86.1833 404.32 85.8499 404.28 85.4699C404.28 85.1199 404.17 84.74 404.11 84.33C403.983 83.3743 403.789 82.4286 403.53 81.4999C402.898 78.9407 401.887 76.4903 400.53 74.23C397.274 68.7864 392.224 64.6474 386.247 62.5249C380.27 60.4023 373.74 60.4289 367.78 62.5999C366.563 63.0408 365.378 63.5619 364.23 64.16C363.66 64.48 363.11 64.84 362.54 65.16C361.963 65.4962 361.412 65.8738 360.89 66.29C359.786 67.1211 358.741 68.0265 357.76 68.9999C356.799 69.9874 355.907 71.0399 355.09 72.15C353.4 74.4255 352.087 76.9577 351.2 79.65C349.333 85.2245 349.333 91.2554 351.2 96.83C352.083 99.5239 353.396 102.057 355.09 104.33C355.907 105.44 356.799 106.493 357.76 107.48C358.727 108.424 359.756 109.303 360.84 110.11C361.362 110.526 361.913 110.904 362.49 111.24C363.06 111.58 363.61 111.95 364.18 112.24C365.327 112.838 366.513 113.359 367.73 113.8C372.297 115.454 377.221 115.868 382 115C385.802 114.28 389.41 112.766 392.588 110.557C395.765 108.348 398.441 105.494 400.44 102.18C401.795 99.9153 402.806 97.4619 403.44 94.9C403.699 93.9713 403.893 93.0256 404.02 92.0699C404.08 91.6599 404.16 91.2799 404.19 90.9299C404.22 90.5799 404.24 90.2599 404.25 89.9299L404.35 88.6299C404.351 88.4786 404.368 88.3279 404.4 88.1799C404.4 88.1799 404.4 88.3299 404.4 88.6299C404.4 88.9299 404.4 89.38 404.4 89.94C404.4 90.23 404.4 90.55 404.4 90.94C404.4 91.33 404.3 91.6799 404.25 92.0999C404.142 93.0622 403.962 94.0149 403.71 94.9499C403.095 97.5464 402.084 100.032 400.71 102.32C397.446 107.868 392.343 112.098 386.286 114.278C380.229 116.457 373.6 116.447 367.55 114.25C366.309 113.807 365.099 113.279 363.93 112.67C363.34 112.35 362.78 111.98 362.2 111.67C361.617 111.326 361.059 110.942 360.53 110.52C359.421 109.702 358.368 108.81 357.38 107.85C356.399 106.845 355.49 105.772 354.66 104.64C352.92 102.328 351.568 99.7474 350.66 97C348.754 91.3224 348.754 85.1775 350.66 79.4999C351.573 76.7542 352.923 74.1742 354.66 71.86C355.496 70.7322 356.405 69.66 357.38 68.65C358.376 67.6959 359.435 66.8106 360.55 65.9999C361.079 65.5783 361.637 65.194 362.22 64.8499C362.8 64.5099 363.37 64.1399 363.95 63.8499C365.121 63.2451 366.33 62.7173 367.57 62.2699C372.22 60.555 377.244 60.1165 382.12 60.9999C385.974 61.7386 389.626 63.2887 392.835 65.5473C396.043 67.8059 398.735 70.7213 400.73 74.0999C402.104 76.3875 403.115 78.8735 403.73 81.4699C403.983 82.4081 404.163 83.3643 404.27 84.33C404.32 84.74 404.39 85.13 404.42 85.48C404.45 85.83 404.42 86.16 404.42 86.48C404.42 87.03 404.42 87.4799 404.42 87.7899C404.42 88.0999 404.49 88.2199 404.49 88.2199Z" fill="#263238"/>
<path d="M375.53 93.91C373.884 93.91 372.276 93.4221 370.908 92.5079C369.539 91.5936 368.473 90.2942 367.843 88.774C367.214 87.2537 367.049 85.5808 367.37 83.9669C367.691 82.353 368.483 80.8705 369.647 79.7069C370.81 78.5433 372.293 77.7509 373.907 77.4299C375.521 77.1089 377.194 77.2736 378.714 77.9033C380.234 78.5331 381.534 79.5995 382.448 80.9677C383.362 82.3359 383.85 83.9445 383.85 85.59C383.85 87.7966 382.973 89.9129 381.413 91.4732C379.853 93.0335 377.737 93.91 375.53 93.91ZM375.53 78.28C374.082 78.28 372.666 78.7096 371.462 79.5144C370.258 80.3191 369.32 81.463 368.766 82.8011C368.212 84.1392 368.068 85.6116 368.351 87.0318C368.635 88.452 369.333 89.7563 370.358 90.7796C371.382 91.8029 372.687 92.4993 374.108 92.7806C375.529 93.0619 377.001 92.9155 378.338 92.36C379.676 91.8044 380.818 90.8646 381.621 89.6595C382.424 88.4544 382.852 87.0382 382.85 85.59C382.847 83.6504 382.075 81.7911 380.702 80.4205C379.33 79.0499 377.47 78.28 375.53 78.28Z" fill="#263238"/>
<path d="M380.268 91.8253L379.459 92.4128L384.224 98.9756L385.033 98.3881L380.268 91.8253Z" fill="#263238"/>
<path d="M371.57 82.52C371.144 83.064 370.841 83.6937 370.682 84.3658C370.522 85.0379 370.51 85.7365 370.646 86.4138C370.782 87.091 371.062 87.7309 371.469 88.2895C371.875 88.8481 372.397 89.3122 373 89.65" fill="white"/>
<path d="M373 89.65C373 89.65 372.51 89.56 371.91 89.06C371.127 88.3908 370.59 87.4803 370.382 86.4718C370.173 85.4634 370.306 84.4144 370.76 83.49C371.11 82.79 371.49 82.49 371.54 82.49C371.59 82.49 371.34 82.93 371.1 83.61C370.785 84.4845 370.713 85.4277 370.89 86.34C371.089 87.2487 371.528 88.0876 372.16 88.77C372.68 89.32 373.07 89.57 373 89.65Z" fill="#263238"/>
<path d="M347.05 178.72C345.56 151.94 333.59 139.49 330.05 118.56C328.29 108.05 328.74 97.2901 321.29 89.6801C318.61 86.9401 313.61 84.1201 309.8 83.6801C307.72 83.4201 304.48 83.5001 302.59 84.3901C299.06 83.8701 297.48 83.7001 294.99 84.3901C292.06 85.2201 287.99 87.4801 286.04 89.8401C280.73 96.3201 279.64 105.23 279.55 113.61C279.459 127.164 281.342 140.659 285.14 153.67C285.364 154.95 286.025 156.113 287.01 156.96C288.15 157.74 289.67 157.59 291.01 157.37C296.167 156.554 301.231 155.234 306.13 153.43C306.835 153.239 307.489 152.898 308.05 152.43C309.4 151.05 308.83 148.77 308.21 146.94L321.78 135.33C320.88 143.41 318.28 151.2 317.13 159.24C315.788 168.873 316.539 178.683 319.33 188C324.596 186.897 330.02 186.775 335.33 187.64C336.6 187.84 338.67 197.91 339.8 197.28C341.76 196.17 347.18 181 347.05 178.72Z" fill="#263238"/>
<path d="M298.89 90.1102L302.74 89.6802L317.44 95.6002C318.471 95.6576 319.443 96.101 320.161 96.8422C320.88 97.5833 321.294 98.568 321.32 99.6002L321.19 147.51C321.352 150.606 320.437 153.663 318.6 156.16L316.53 158.89C311.82 165.1 302.14 164.59 298.41 157.74C298.185 157.35 298.01 156.934 297.89 156.5C297.793 156.149 297.719 155.791 297.67 155.43C297.262 153.057 297.108 150.646 297.21 148.24C296.95 144 296.86 142.24 296.86 142.31C296.86 142.38 287.86 141.31 285.42 129.71C284.21 123.96 284.02 114.44 284.12 106.65C284.21 99.6202 290.23 90.1002 298.89 90.1102Z" fill="#FFBE9D"/>
<path d="M286.91 115.74C286.931 116.129 287.1 116.496 287.383 116.764C287.665 117.032 288.04 117.181 288.43 117.18C288.621 117.185 288.811 117.152 288.99 117.083C289.168 117.014 289.33 116.909 289.467 116.776C289.604 116.642 289.713 116.483 289.787 116.307C289.862 116.131 289.9 115.941 289.9 115.75C289.884 115.361 289.718 114.993 289.436 114.725C289.155 114.456 288.779 114.307 288.39 114.31C288.198 114.305 288.008 114.338 287.829 114.407C287.65 114.476 287.487 114.581 287.349 114.714C287.212 114.847 287.102 115.007 287.026 115.183C286.951 115.359 286.911 115.548 286.91 115.74Z" fill="#263238"/>
<path d="M301.87 114.8C301.883 115.192 302.05 115.562 302.334 115.832C302.619 116.102 302.998 116.248 303.39 116.24C303.58 116.245 303.77 116.213 303.947 116.144C304.125 116.075 304.287 115.971 304.424 115.839C304.56 115.707 304.67 115.549 304.745 115.374C304.819 115.199 304.859 115.01 304.86 114.82C304.847 114.43 304.681 114.061 304.399 113.792C304.117 113.522 303.74 113.375 303.35 113.38C303.159 113.373 302.968 113.405 302.79 113.473C302.611 113.542 302.448 113.645 302.31 113.777C302.172 113.91 302.062 114.068 301.986 114.244C301.911 114.42 301.871 114.609 301.87 114.8Z" fill="#263238"/>
<path d="M286.36 111.44C286.55 111.63 287.64 110.73 289.25 110.66C290.86 110.59 292.08 111.32 292.25 111.12C292.42 110.92 292.13 110.68 291.6 110.34C290.879 109.891 290.038 109.675 289.19 109.72C288.354 109.763 287.554 110.068 286.9 110.59C286.41 111 286.26 111.36 286.36 111.44Z" fill="#263238"/>
<path d="M301.62 110.61C301.82 110.79 302.88 109.87 304.49 109.74C306.1 109.61 307.33 110.33 307.49 110.12C307.65 109.91 307.36 109.69 306.81 109.36C306.082 108.925 305.235 108.732 304.39 108.81C303.553 108.878 302.759 109.206 302.12 109.75C301.66 110.17 301.52 110.53 301.62 110.61Z" fill="#263238"/>
<path d="M297.06 123.15C296.197 122.932 295.31 122.817 294.42 122.81C294.01 122.81 293.62 122.73 293.54 122.45C293.477 122.028 293.551 121.597 293.75 121.22C294.09 120.22 294.44 119.15 294.81 118.03C296.27 113.5 297.31 109.78 297.12 109.72C296.93 109.66 295.61 113.29 294.12 117.83L293.12 121.03C292.88 121.539 292.831 122.117 292.98 122.66C293.046 122.803 293.145 122.928 293.268 123.025C293.391 123.122 293.536 123.189 293.69 123.22C293.92 123.272 294.155 123.292 294.39 123.28C295.282 123.359 296.18 123.316 297.06 123.15Z" fill="#263238"/>
<path d="M296.9 142.24C302.391 142.048 307.722 140.338 312.3 137.3C312.3 137.3 308.78 145.56 297.06 145.05L296.9 142.24Z" fill="#EB996E"/>
<path d="M297.93 127C298.217 126.598 298.602 126.276 299.048 126.064C299.494 125.852 299.987 125.758 300.48 125.79C300.836 125.804 301.185 125.889 301.507 126.042C301.828 126.196 302.115 126.412 302.35 126.68C302.582 126.935 302.729 127.256 302.77 127.598C302.811 127.941 302.745 128.287 302.58 128.59C302.332 128.886 302.004 129.104 301.635 129.218C301.266 129.331 300.871 129.336 300.5 129.23C299.724 129 299.003 128.616 298.38 128.1C298.19 127.985 298.027 127.832 297.9 127.65C297.839 127.562 297.807 127.457 297.807 127.35C297.807 127.243 297.839 127.138 297.9 127.05" fill="#EB996E"/>
<path d="M301.85 124C301.59 124 301.67 125.74 300.24 127.06C298.81 128.38 296.94 128.27 296.94 128.52C296.94 128.77 297.37 128.84 298.16 128.82C299.183 128.781 300.16 128.385 300.92 127.7C301.646 127.038 302.087 126.121 302.15 125.14C302.18 124.44 302 124 301.85 124Z" fill="#263238"/>
<path d="M301.62 104.78C301.86 105.17 303.2 104.63 304.88 104.45C306.56 104.27 308.01 104.45 308.13 104.01C308.18 103.81 307.86 103.46 307.22 103.18C306.409 102.839 305.523 102.719 304.65 102.83C303.785 102.921 302.959 103.242 302.26 103.76C301.73 104.18 301.51 104.59 301.62 104.78Z" fill="#263238"/>
<path d="M286 105.34C286.3 105.7 287.39 105.26 288.72 105.18C290.05 105.1 291.19 105.3 291.44 104.9C291.54 104.71 291.34 104.36 290.83 104.03C290.152 103.638 289.369 103.47 288.59 103.55C287.806 103.6 287.058 103.894 286.45 104.39C286 104.79 285.88 105.17 286 105.34Z" fill="#263238"/>
<path d="M319 119.22C319 118.36 319.86 116.22 320.71 116.08C322.98 115.61 327.12 115.59 327.45 121.4C327.9 129.34 319.83 128.15 319.8 127.93C319.77 127.71 319.18 122.22 319 119.22Z" fill="#FFBE9D"/>
<path d="M322.1 124.78C322.1 124.78 322.24 124.87 322.48 124.96C322.801 125.089 323.159 125.089 323.48 124.96C324.3 124.6 324.93 123.23 324.89 121.79C324.88 121.094 324.709 120.409 324.39 119.79C324.3 119.548 324.153 119.33 323.961 119.156C323.77 118.982 323.54 118.857 323.29 118.79C323.128 118.759 322.959 118.785 322.814 118.863C322.668 118.941 322.554 119.067 322.49 119.22C322.4 119.45 322.49 119.6 322.42 119.62C322.35 119.64 322.24 119.49 322.28 119.16C322.317 118.962 322.419 118.783 322.57 118.65C322.671 118.56 322.79 118.491 322.919 118.448C323.048 118.405 323.185 118.389 323.32 118.4C323.649 118.45 323.96 118.582 324.226 118.782C324.491 118.983 324.702 119.247 324.84 119.55C325.216 120.22 325.422 120.972 325.44 121.74C325.44 123.34 324.75 124.89 323.62 125.28C323.41 125.356 323.186 125.383 322.964 125.359C322.742 125.335 322.528 125.26 322.34 125.14C322.12 125 322.07 124.8 322.1 124.78Z" fill="#EB996E"/>
<path d="M323.27 107.32C323.83 104.15 322.64 99.7102 321.82 96.6202C321.007 94.0474 319.324 91.8377 317.06 90.3702C313.572 87.8669 309.351 86.5936 305.06 86.7502L303.47 87.2702C301.12 87.0802 298.61 87.5802 297.32 89.4802V87.3502C293.04 87.8802 289.32 90.7102 286.83 94.2302C284.34 97.7502 282.97 101.91 281.83 106.07C287.08 101.37 292.77 96.1802 297.15 90.6402C301.74 96.6402 308.54 100.5 314.74 104.99C315.804 107.907 316.27 111.009 316.11 114.11C316.11 121.91 317.76 128.96 318.37 136.75C318.72 141.24 318.69 145.08 323.28 144.69C323.87 130.31 320.8 121.45 323.27 107.32Z" fill="#263238"/>
<path d="M328.49 106.71C327.778 106.954 327.033 107.089 326.28 107.11C324.478 107.268 322.664 107.198 320.88 106.9C319.102 106.585 317.362 106.082 315.69 105.4C314.98 105.162 314.307 104.825 313.69 104.4C313.76 104.23 316.87 105.68 320.97 106.4C325.07 107.12 328.47 106.53 328.49 106.71Z" fill="#455A64"/>
<path d="M327.28 102.45C326.855 102.462 326.43 102.435 326.01 102.37C325.19 102.29 324.01 102.12 322.58 101.85C315.059 100.406 307.894 97.5008 301.49 93.3002C300.28 92.4902 299.31 91.7902 298.67 91.3002C298.305 91.0643 297.969 90.7856 297.67 90.4702C298.051 90.6572 298.413 90.8817 298.75 91.1402C299.43 91.6002 300.42 92.2402 301.65 93.0102C304.876 94.9989 308.261 96.718 311.77 98.1502C315.285 99.5648 318.911 100.689 322.61 101.51C324.03 101.82 325.19 102.05 326 102.19C326.436 102.224 326.866 102.311 327.28 102.45Z" fill="#455A64"/>
<path d="M284.07 103.37C283.595 104.186 282.975 104.907 282.24 105.5C281.622 106.217 280.88 106.817 280.05 107.27C279.95 107.16 280.77 106.21 281.88 105.13C282.496 104.414 283.238 103.818 284.07 103.37Z" fill="#455A64"/>
<path d="M297 156.11C297.89 154.56 297.22 148.22 297.22 148.22L295.16 151.93C290.81 153.62 284.83 156.03 283.16 157.21C280.65 158.97 277.25 166.39 277.25 166.39L256.25 192.97L217 186.09L213.31 205.8L226.57 208.55L249.89 211.55C256.44 212.96 262.81 213.48 267.89 209.18L268.24 208.5C266.39 235 268.94 264.22 269.81 290.76C269.734 292.843 270.113 294.918 270.92 296.84C272.26 299.46 277.22 300.84 280.13 300.45C283.04 300.06 282.13 298.2 282.74 295.33C283.08 293.76 281.61 291.58 281.42 289.99C278.56 266.924 275.703 243.86 272.85 220.8C272.76 219.38 272.66 218.06 272.56 216.89C271.56 204.7 271.41 201.41 271.95 195.83C272.79 187.22 291 166.58 297 156.11Z" fill="url(#paint5_linear_2202_6192)"/>
<path d="M275 173.33C274.845 173.751 274.643 174.153 274.4 174.53C273.98 175.27 273.4 176.37 272.75 177.75C269.27 184.955 267.422 192.839 267.34 200.84C267.34 202.37 267.34 203.61 267.39 204.46C267.442 204.905 267.442 205.355 267.39 205.8C267.285 205.367 267.218 204.925 267.19 204.48C267.055 203.271 266.982 202.056 266.97 200.84C266.907 196.802 267.34 192.772 268.26 188.84C269.185 184.922 270.582 181.132 272.42 177.55C272.969 176.463 273.573 175.405 274.23 174.38C274.452 174.006 274.71 173.654 275 173.33Z" fill="#263238"/>
<g opacity="0.3">
<path d="M272.26 177.92C269.2 182.35 266.37 187.11 265.02 192.35C263.67 197.59 264.52 200.56 264.4 206.06L267.55 206.77C266.85 196.91 267.18 190.4 272.26 177.92Z" fill="black"/>
</g>
<path d="M271.11 192.35C271.087 192.178 271.087 192.003 271.11 191.83C271.17 191.5 271.2 190.99 271.35 190.36C271.773 188.584 272.311 186.837 272.96 185.13C275.124 179.522 277.615 174.046 280.42 168.73C281.34 166.95 282.25 165.23 283.15 163.59L283.22 163.46H283.37L286.68 163.4L286.46 163.74C286.185 163.139 285.735 162.634 285.17 162.29L284.94 162.14L285.12 161.94C287.315 159.295 289.687 156.803 292.22 154.48C293.14 153.64 293.89 153 294.41 152.57C294.664 152.332 294.942 152.121 295.24 151.94C295.022 152.211 294.778 152.459 294.51 152.68L292.41 154.68C289.959 157.061 287.646 159.578 285.48 162.22L285.42 161.88C286.07 162.267 286.586 162.843 286.9 163.53L287.06 163.86H286.69L283.38 163.95L283.59 163.82C282.71 165.45 281.8 167.17 280.88 168.95C277.67 175.2 274.96 180.95 273.3 185.24C272.622 186.923 272.038 188.643 271.55 190.39C271.28 191.65 271.16 192.35 271.11 192.35Z" fill="#263238"/>
<path d="M311 430.42L323.89 451.17C323.89 451.17 307.13 471.25 309.14 475.31L350.28 451.76L331.47 418.6L311 430.42Z" fill="url(#paint6_linear_2202_6192)"/>
<path d="M335.55 442.11C336.015 442.002 336.503 442.071 336.92 442.301C337.337 442.532 337.654 442.909 337.81 443.36C337.933 443.82 337.875 444.31 337.649 444.728C337.422 445.147 337.043 445.463 336.59 445.61C336.097 445.73 335.577 445.658 335.136 445.41C334.694 445.161 334.363 444.754 334.21 444.27C334.128 443.776 334.242 443.27 334.528 442.859C334.814 442.448 335.248 442.165 335.74 442.07" fill="#E0E0E0"/>
<g opacity="0.6">
<path d="M350.24 451.76L348.24 448.49L309.53 472.3C309.53 472.3 308.15 474.14 309.1 475.3L350.24 451.76Z" fill="white"/>
</g>
<path d="M323.07 451.34C323.19 451.54 324.25 451.06 325.6 451.14C326.95 451.22 327.97 451.76 328.11 451.57C328.25 451.38 327.29 450.4 325.64 450.33C323.99 450.26 322.92 451.18 323.07 451.34Z" fill="#263238"/>
<path d="M319.77 455.6C319.84 455.82 320.9 455.66 322.07 456.12C323.24 456.58 323.95 457.37 324.15 457.24C324.35 457.11 323.82 455.91 322.36 455.37C320.9 454.83 319.67 455.4 319.77 455.6Z" fill="#263238"/>
<path d="M320.28 462.17C320.49 462.1 320.19 460.94 319.05 460.17C317.91 459.4 316.71 459.46 316.72 459.68C316.73 459.9 317.65 460.15 318.58 460.82C319.51 461.49 320.07 462.26 320.28 462.17Z" fill="#263238"/>
<path d="M320.65 446.29C320.84 446.42 321.65 445.62 322.78 445.05C323.91 444.48 325.05 444.32 325.06 444.05C325.07 443.78 323.81 443.59 322.43 444.28C321.05 444.97 320.46 446.19 320.65 446.29Z" fill="#263238"/>
<path d="M312.75 438.94L314.14 463.34C314.14 463.34 289.81 472.94 289.63 477.47L337.02 476.47L336.42 438.37L312.75 438.94Z" fill="url(#paint7_linear_2202_6192)"/>
<path d="M328.75 461C329.204 461.14 329.593 461.438 329.848 461.839C330.103 462.24 330.206 462.719 330.14 463.19C330.026 463.652 329.74 464.052 329.34 464.311C328.941 464.569 328.458 464.665 327.99 464.58C327.504 464.44 327.087 464.126 326.818 463.698C326.549 463.27 326.446 462.759 326.53 462.26C326.698 461.789 327.042 461.402 327.489 461.178C327.936 460.955 328.452 460.912 328.93 461.06" fill="#E0E0E0"/>
<g opacity="0.6">
<path d="M337 476.48L336.79 472.64L291.45 475C291.45 475 289.36 476 289.63 477.44L337 476.48Z" fill="white"/>
</g>
<path d="M313.37 463.11C313.37 463.34 314.54 463.42 315.69 464.11C316.84 464.8 317.47 465.79 317.69 465.7C317.91 465.61 317.53 464.27 316.12 463.42C314.71 462.57 313.31 462.9 313.37 463.11Z" fill="#263238"/>
<path d="M308.44 465.27C308.39 465.5 309.44 465.87 310.21 466.83C310.98 467.79 311.26 468.83 311.49 468.83C311.72 468.83 311.84 467.5 310.82 466.33C309.8 465.16 308.44 465.05 308.44 465.27Z" fill="#263238"/>
<path d="M305.74 471.28C305.95 471.33 306.25 470.16 305.63 468.91C305.01 467.66 303.91 467.17 303.82 467.37C303.73 467.57 304.41 468.22 304.9 469.26C305.39 470.3 305.51 471.26 305.74 471.28Z" fill="#263238"/>
<path d="M313.67 457.52C313.77 457.73 314.82 457.38 316.13 457.45C317.44 457.52 318.47 457.9 318.59 457.7C318.71 457.5 317.71 456.7 316.16 456.64C314.61 456.58 313.55 457.34 313.67 457.52Z" fill="#263238"/>
<path d="M277.41 256.71C277.41 256.71 275.23 360.52 277.19 367.71C279.15 374.9 319.27 448.37 319.27 448.37L343.48 436.48L311.38 358.9L318.46 259.15L277.41 256.71Z" fill="#263238"/>
<path d="M330.5 250.91C330.5 250.91 344.42 273.64 341.96 287.27C340.96 292.86 333.33 305.27 333.33 305.27V371.8L339.21 460.64H311L298.87 382.3C298.87 382.3 294.62 375.11 292.99 368.91C291.36 362.71 286.05 289.35 286.05 289.35L277.61 259.52L330.5 250.91Z" fill="#263238"/>
<path d="M336.44 413.72C336.392 414.343 336.392 414.968 336.44 415.59C336.44 416.79 336.56 418.53 336.68 420.68C336.92 424.97 337.35 430.89 337.85 437.43C338.35 443.97 338.77 449.89 339.05 454.18C339.18 456.25 339.3 457.96 339.38 459.26C339.397 459.884 339.46 460.506 339.57 461.12C339.626 460.498 339.626 459.872 339.57 459.25C339.57 458.05 339.51 456.31 339.42 454.16C339.25 449.86 338.89 443.93 338.42 437.39C337.95 430.85 337.42 425.03 337.09 420.65C336.91 418.58 336.77 416.87 336.65 415.57C336.63 414.949 336.56 414.33 336.44 413.72Z" fill="#455A64"/>
<path d="M327.49 262.53C327.281 262.853 327.024 263.143 326.73 263.39C325.987 264.13 325.177 264.8 324.31 265.39C321.438 267.332 318.095 268.465 314.634 268.669C311.173 268.873 307.721 268.141 304.64 266.55C303.711 266.076 302.827 265.517 302 264.88C301.684 264.666 301.398 264.411 301.15 264.12C301.21 264.04 302.46 265.12 304.8 266.21C307.856 267.669 311.233 268.323 314.612 268.111C317.991 267.899 321.26 266.829 324.11 265C326.31 263.66 327.42 262.46 327.49 262.53Z" fill="#455A64"/>
<path d="M286.29 283.42C286.304 283.543 286.304 283.667 286.29 283.79C286.29 284.06 286.34 284.41 286.38 284.86C286.45 285.86 286.56 287.23 286.69 289.01C286.93 292.64 287.29 297.84 287.69 304.25C288.59 317.11 289.69 334.9 291.44 354.49C291.68 357.16 291.95 359.8 292.25 362.37C292.42 363.66 292.56 364.95 292.84 366.16C293.158 367.377 293.552 368.573 294.02 369.74C295.76 374.43 297.62 378.86 299.4 383V383.06C301.28 395.12 302.87 405.33 304 412.55L305.36 420.92C305.53 421.87 305.66 422.6 305.76 423.13C305.86 423.66 305.93 423.88 305.92 423.89C305.821 423.65 305.741 423.403 305.68 423.15C305.57 422.65 305.4 421.92 305.21 420.95C304.83 419.02 304.33 416.19 303.71 412.6C302.48 405.42 300.83 395.22 298.93 383.13V383.19C297.13 379.05 295.26 374.62 293.5 369.92C293.027 368.74 292.63 367.531 292.31 366.3C292.01 365.01 291.87 363.73 291.7 362.44C291.39 359.85 291.12 357.21 290.89 354.54C289.17 334.93 288.1 317.14 287.29 304.27L286.53 289C286.44 287.22 286.37 285.83 286.33 284.85C286.33 284.4 286.33 284.04 286.33 283.77C286.305 283.655 286.292 283.538 286.29 283.42Z" fill="#455A64"/>
<path d="M297.31 152.67C297.31 152.67 297.01 157.22 300.71 157.22C305.91 157.22 316.81 147.22 316.81 147.22L295.81 197.34V258L278 259.82C278 259.82 275.91 259.52 275.49 256.52C274.66 250.65 274.78 239.95 274.1 235.52C271.98 221.82 267.82 214.36 268.41 203.52C269.28 187.39 291.98 159.52 291.98 159.52L297.31 152.67Z" fill="white"/>
<path d="M319.25 140.91C316.614 145.821 313.682 150.566 310.47 155.12C305.93 161.43 277.17 205.49 277.17 205.49L288.66 294.87L289.94 302.44C290.023 302.945 290.208 303.427 290.483 303.858C290.759 304.289 291.118 304.66 291.541 304.947C291.963 305.235 292.44 305.435 292.942 305.533C293.443 305.631 293.96 305.627 294.46 305.52L345.26 296.59C345.903 296.477 346.515 296.229 347.055 295.861C347.595 295.494 348.051 295.016 348.392 294.459C348.734 293.902 348.953 293.279 349.035 292.631C349.118 291.983 349.061 291.325 348.87 290.7L326.19 227L340.84 170.43C340.84 170.43 340.3 162.19 331.38 153.83C329.68 152.24 322.67 146.43 321.51 144.83L319.25 140.91Z" fill="url(#paint8_linear_2202_6192)"/>
<g opacity="0.3">
<path d="M280.78 233.58C280.78 233.58 304.17 252.13 315.55 252.3C326.93 252.47 332.85 242.83 332.85 242.83L309.96 243.46L279.96 226.97L280.78 233.58Z" fill="black"/>
</g>
<path d="M263.42 216C263.42 216 284.52 229.94 288.42 232.59C292.32 235.24 310.73 245.92 313.13 246.69C315.53 247.46 330.42 247.56 333.13 242.5C335.84 237.44 337.71 226.64 337.71 226.64L341.3 176.09C341.653 171.395 340.366 166.723 337.66 162.87C335.48 159.79 332.6 157.01 329.48 157.48C322.83 158.48 308.53 174.55 309.22 182.81C309.91 191.07 309.93 214.07 309.93 214.07L272.26 201.6L263.42 216Z" fill="url(#paint9_linear_2202_6192)"/>
<path d="M337.69 162.87C337.938 163.191 338.168 163.524 338.38 163.87C339.009 164.841 339.545 165.868 339.98 166.94C340.69 168.667 341.154 170.485 341.36 172.34C341.532 174.85 341.475 177.371 341.19 179.87C340.41 191.13 339.29 207.16 337.96 226.34C337.58 228.5 337.12 230.683 336.58 232.89C336.05 235.146 335.382 237.366 334.58 239.54C334.191 240.686 333.654 241.775 332.98 242.78C332.213 243.759 331.226 244.543 330.1 245.07C327.858 246.169 325.448 246.885 322.97 247.19C320.445 247.572 317.882 247.64 315.34 247.39C314.025 247.3 312.738 246.961 311.55 246.39C310.38 245.81 309.24 245.17 308.1 244.54C303.52 241.98 298.9 239.313 294.24 236.54C288.65 233.3 283.46 229.64 278.3 226.27L263.3 216.27L263.1 216.14L263.23 215.94L272.1 201.3L272.2 201.14L272.38 201.2L310 213.94L309.78 214.09C310.55 204.7 311.16 197.22 311.58 192.09C311.8 189.54 311.97 187.57 312.09 186.22C312.15 185.57 312.19 185.06 312.23 184.71C312.27 184.36 312.29 184.19 312.29 184.19C312.29 184.19 312.29 184.37 312.29 184.71C312.29 185.05 312.23 185.57 312.19 186.23C312.09 187.58 311.95 189.56 311.77 192.11C311.39 197.26 310.83 204.73 310.12 214.11V214.33L309.91 214.26L272.22 201.61L272.5 201.51L263.64 216.16L263.57 215.83L278.57 225.78C283.75 229.16 288.91 232.78 294.48 236.03C299.147 238.81 303.763 241.477 308.33 244.03C309.47 244.66 310.61 245.29 311.76 245.87C312.893 246.429 314.121 246.768 315.38 246.87C317.878 247.118 320.397 247.054 322.88 246.68C325.311 246.389 327.676 245.696 329.88 244.63C330.94 244.132 331.87 243.396 332.6 242.48C333.249 241.513 333.767 240.464 334.14 239.36C334.941 237.203 335.609 234.999 336.14 232.76C336.69 230.57 337.14 228.39 337.53 226.26C338.94 207.09 340.11 191.06 340.94 179.8C341.242 177.316 341.319 174.809 341.17 172.31C340.989 170.468 340.552 168.661 339.87 166.94C339.448 165.872 338.936 164.841 338.34 163.86C338.14 163.52 337.97 163.28 337.87 163.11L337.69 162.87Z" fill="#263238"/>
<path d="M283.58 195.58C283.716 195.389 283.87 195.212 284.04 195.05C284.38 194.67 284.84 194.18 285.4 193.57L290.4 188.14L297.91 180.14C300.78 177.14 303.85 173.8 307.48 170.62V171L307.18 170.66L304.64 167.85L304.22 167.38H304.85L309.55 167.62L309.32 167.75L318.78 151.28L321.58 146.5L322.35 145.23C322.53 144.94 322.63 144.79 322.65 144.8C322.59 144.962 322.516 145.12 322.43 145.27C322.25 145.61 322.02 146.05 321.73 146.58L319.06 151.44L309.75 168L309.67 168.13H309.51L304.81 167.89L305.02 167.46L307.55 170.27L307.86 170.61L308.03 170.8L307.83 170.98C304.26 174.11 301.16 177.47 298.27 180.43L290.69 188.37C288.53 190.63 286.77 192.45 285.54 193.69C284.93 194.31 284.45 194.79 284.11 195.1C283.953 195.281 283.775 195.442 283.58 195.58Z" fill="#263238"/>
<g opacity="0.3">
<path d="M281.89 198.38L310.5 171.41L308.06 168.74H310.5L311.14 165.06L309.53 167.9L304.82 167.66L307.6 170.2L283.83 195.33L281.89 198.38Z" fill="black"/>
</g>
<path d="M300 268.66L300.48 268.54L301.94 268.23L307.46 267.07L326.74 263.15H326.91L327 263.3L332.31 271.95L332.51 272.27L332.14 272.34L331.51 272.46L303.39 277.74H303.25L303.2 277.6L300.8 270.99C300.55 270.27 300.34 269.7 300.19 269.26C300.112 269.069 300.048 268.871 300 268.67C300.106 268.875 300.199 269.085 300.28 269.3C300.45 269.74 300.69 270.3 300.98 271.05L303.52 277.48L303.33 277.37L331.41 271.92L332.04 271.8L331.87 272.19L326.57 263.53L326.83 263.65L307.69 267.29L302.08 268.29L300.56 268.55C300.376 268.601 300.189 268.638 300 268.66Z" fill="#263238"/>
<g opacity="0.3">
<path d="M300.27 269.51L302.3 280L331.42 274.75L330.61 272.32L303.31 277.53L300.27 269.51Z" fill="black"/>
</g>
<path d="M317.31 222.92C317.16 222.99 315.95 220.59 313.78 218.14C311.61 215.69 309.39 214.14 309.48 214.03C313.04 215.998 315.807 219.14 317.31 222.92Z" fill="#263238"/>
<path d="M212.46 190.38C212.46 190.38 205.16 186.01 202.24 183.21C202.24 183.21 197.99 181.87 196.04 184.55C196.04 184.55 191.54 185.79 190.94 186.63C190.34 187.47 186.56 193.3 186.56 193.3C186.56 193.3 188.56 200.25 188.75 200.6C189.11 201.36 189.93 202.16 190.62 201.32C190.847 201.038 190.961 200.681 190.94 200.32V199.86L192.03 199.09C192.03 199.09 192.52 201.79 193.98 201.37C195.659 200.595 197.249 199.64 198.72 198.52C198.72 198.52 203.34 201.15 205.77 201.42C208.467 201.873 211.137 202.47 213.77 203.21L216.23 190L212.46 190.38Z" fill="#FFBE9D"/>
<path d="M190.73 200.45C190.73 200.45 190.56 200.64 190.16 200.56C189.899 200.472 189.667 200.313 189.49 200.102C189.314 199.89 189.199 199.633 189.16 199.36C188.96 197.673 188.96 195.967 189.16 194.28C189.335 192.6 189.603 190.931 189.96 189.28C190.059 188.594 190.24 187.922 190.5 187.28C190.68 187.28 190.11 190.45 189.68 194.28C189.479 195.939 189.419 197.611 189.5 199.28C189.514 199.509 189.591 199.729 189.721 199.918C189.852 200.106 190.031 200.256 190.24 200.35C190.52 200.49 190.72 200.41 190.73 200.45Z" fill="#EB996E"/>
<path d="M199.29 189.05C198.351 189.953 197.136 190.517 195.84 190.65L196.05 190.46L195.99 190.72C195.751 192.051 195.348 193.348 194.79 194.58C194.848 193.223 195.08 191.878 195.48 190.58L195.55 190.33V190.16H195.72C196.935 189.877 198.129 189.506 199.29 189.05Z" fill="#EB996E"/>
<path d="M205.21 190C204.706 189.473 204.053 189.112 203.338 188.966C202.623 188.819 201.881 188.894 201.21 189.18L200.45 190.18L194.69 194.98C193.625 195.747 192.744 196.741 192.11 197.89C191.805 198.47 191.699 199.135 191.807 199.781C191.915 200.428 192.233 201.021 192.71 201.47C193.89 202.37 195.64 201.86 196.79 200.93C197.94 200 198.79 198.7 199.97 197.83C201.83 196.46 204.53 196.09 205.67 194.09C206.022 193.443 206.167 192.704 206.084 191.973C206.002 191.241 205.697 190.552 205.21 190Z" fill="#FFBE9D"/>
<path d="M200.77 188.15C200.847 188.885 200.667 189.624 200.26 190.24C199.875 190.934 199.386 191.565 198.81 192.11C198.105 192.749 197.353 193.334 196.56 193.86C195.103 194.712 193.813 195.819 192.75 197.13C192.366 197.714 192.031 198.33 191.75 198.97C191.743 198.232 191.978 197.512 192.42 196.92C192.85 196.259 193.368 195.66 193.96 195.14C194.686 194.526 195.447 193.955 196.24 193.43C197.018 192.922 197.76 192.361 198.46 191.75C199.023 191.257 199.514 190.689 199.92 190.06C200.267 189.454 200.552 188.814 200.77 188.15Z" fill="#EB996E"/>
<path d="M229.74 211.25C229.74 211.25 229.95 204.09 231.74 201.96C233.53 199.83 244.16 197.12 244.16 197.12L270.8 203.3L264.61 213.3L262.74 211.54C262.74 211.54 254.36 214.06 250.22 213.15C247.76 212.628 245.345 211.909 243 211L238.66 211.3C238.66 211.3 235.53 214.54 234.52 214.54C233.51 214.54 232.4 213.63 232.9 212.62L232 211.1C232 211.1 230.15 212.16 229.74 211.25Z" fill="#FFBE9D"/>
<path d="M243.73 206.26C243.154 206.617 242.504 206.84 241.83 206.91C240.26 207.1 238.706 207.404 237.18 207.82C235.735 208.406 234.55 209.492 233.84 210.88C233.558 211.478 233.223 212.051 232.84 212.59C232.951 211.927 233.181 211.29 233.52 210.71C233.836 210.04 234.243 209.418 234.73 208.86C235.347 208.169 236.128 207.643 237 207.33C238.556 206.894 240.156 206.629 241.77 206.54C243 206.41 243.7 206.19 243.73 206.26Z" fill="#EB996E"/>
<path d="M241.62 201C241.62 201.07 240.77 201.21 239.45 201.68C238.68 201.941 237.926 202.245 237.19 202.59C236.287 202.975 235.439 203.48 234.67 204.09C234.333 204.455 234.044 204.862 233.81 205.3C233.56 205.73 233.33 206.15 233.13 206.56C232.765 207.282 232.474 208.04 232.26 208.82C231.91 210.16 231.97 211.03 231.88 211.04C231.685 210.286 231.685 209.494 231.88 208.74C232.047 207.915 232.312 207.112 232.67 206.35C232.87 205.92 233.1 205.48 233.35 205.04C233.602 204.551 233.922 204.1 234.3 203.7C235.117 203.037 236.026 202.498 237 202.1C237.767 201.771 238.556 201.494 239.36 201.27C240.086 201.023 240.856 200.931 241.62 201Z" fill="#EB996E"/>
<defs>
<linearGradient id="paint0_linear_2202_6192" x1="382.8" y1="439.879" x2="430.35" y2="439.879" gradientUnits="userSpaceOnUse">
<stop stop-color="#6D53FF"/>
<stop offset="1" stop-color="#8A49F7"/>
</linearGradient>
<linearGradient id="paint1_linear_2202_6192" x1="387.34" y1="460.965" x2="426.01" y2="460.965" gradientUnits="userSpaceOnUse">
<stop stop-color="#6D53FF"/>
<stop offset="1" stop-color="#8A49F7"/>
</linearGradient>
<linearGradient id="paint2_linear_2202_6192" x1="197.38" y1="244.11" x2="134.79" y2="244.11" gradientUnits="userSpaceOnUse">
<stop stop-color="#C757FF"/>
<stop offset="1" stop-color="#6D53FF"/>
</linearGradient>
<linearGradient id="paint3_linear_2202_6192" x1="149" y1="220.312" x2="211.58" y2="220.312" gradientUnits="userSpaceOnUse">
<stop stop-color="#6D53FF"/>
<stop offset="1" stop-color="#8A49F7"/>
</linearGradient>
<linearGradient id="paint4_linear_2202_6192" x1="169.4" y1="237.376" x2="240.1" y2="237.376" gradientUnits="userSpaceOnUse">
<stop stop-color="#6D53FF"/>
<stop offset="1" stop-color="#8A49F7"/>
</linearGradient>
<linearGradient id="paint5_linear_2202_6192" x1="213.31" y1="223.877" x2="297.462" y2="223.877" gradientUnits="userSpaceOnUse">
<stop stop-color="#6D53FF"/>
<stop offset="1" stop-color="#8A49F7"/>
</linearGradient>
<linearGradient id="paint6_linear_2202_6192" x1="350.28" y1="446.955" x2="308.973" y2="446.955" gradientUnits="userSpaceOnUse">
<stop stop-color="#C757FF"/>
<stop offset="1" stop-color="#6D53FF"/>
</linearGradient>
<linearGradient id="paint7_linear_2202_6192" x1="337.02" y1="457.92" x2="289.63" y2="457.92" gradientUnits="userSpaceOnUse">
<stop stop-color="#C757FF"/>
<stop offset="1" stop-color="#6D53FF"/>
</linearGradient>
<linearGradient id="paint8_linear_2202_6192" x1="277.17" y1="222.726" x2="349.072" y2="222.726" gradientUnits="userSpaceOnUse">
<stop stop-color="#6D53FF"/>
<stop offset="1" stop-color="#8A49F7"/>
</linearGradient>
<linearGradient id="paint9_linear_2202_6192" x1="263.42" y1="201.966" x2="341.357" y2="201.966" gradientUnits="userSpaceOnUse">
<stop stop-color="#6D53FF"/>
<stop offset="1" stop-color="#8A49F7"/>
</linearGradient>
</defs>
</svg>
