<svg width="800" height="800" viewBox="0 0 800 800" fill="none" xmlns="http://www.w3.org/2000/svg">

<g fill="currentColor">
<path d="M321.2 178.4C309.6 229.6 343.2 316.8 400 316.8C456.4 316.8 490 229.6 478.4 178.4C469.6 139.2 435.2 113.2 400 113.2C364.4 113.2 330.4 139.2 321.2 178.4ZM156 214.4C146 257.6 174.8 331.6 222.8 331.6C270.8 331.6 299.6 257.6 289.6 214.4C282 181.2 252.8 158.8 222.8 158.8C192.8 158.8 163.6 181.2 156 214.4ZM510.4 214.4C500.4 257.6 529.2 331.6 576.8 331.6C624.8 331.6 653.6 257.6 643.6 214.4C636 181.2 606.8 158.8 576.8 158.8C547.2 158.8 518 181.2 510.4 214.4ZM486.8 671.6L536.8 499.6C568 400 508.4 338.8 400 338.8C291.2 338.8 231.6 400 262.4 499.6L312.8 671.6C322 700.4 360 720 400 720C439.2 720 477.6 700.4 486.8 671.6ZM242.8 366.4C223.2 393.2 204.4 439.6 226 510L270.8 661.6C257.2 669.6 240 674 222.8 674C188.8 674 156.8 657.6 148.8 632.8L106 486.8C79.9998 402.4 130.4 350.8 222.8 350.8C233.6 350.8 244.4 351.6 254.4 353.2C250.4 357.2 246.4 362 242.8 366.4ZM576.8 350.8C669.2 350.8 720 402.4 693.6 486.8L650.8 632.8C642.8 657.6 610.8 674 576.8 674C559.6 674 542.4 669.6 528.8 661.6L573.2 510.8C595.2 439.6 576.4 393.2 556.4 366.4C553.2 362 549.2 357.2 545.2 353.2C555.2 351.6 565.6 350.8 576.8 350.8Z" fill="#5f5f5f"/>
</g>
</svg>
