<svg width="500" height="500" viewBox="0 0 500 500" fill="none" xmlns="http://www.w3.org/2000/svg">
<path d="M191.37 458.34C189.97 457.14 186.86 453.34 189.26 448.95C190.14 447.34 192.01 446.54 193.7 445.83C195.439 445.243 197.078 444.393 198.56 443.31C201.2 441.06 201.92 437.31 203.68 434.31C205.68 430.88 209.43 428.31 213.4 428.49C217.93 428.69 221.72 432.4 223.4 436.62C225.08 440.84 225.18 445.54 225.22 450.1C225.22 452.63 225.12 455.47 223.27 457.18C221.42 458.89 218.99 458.77 216.68 458.7L191.88 457.93" fill="#F5F5F5"/>
<path d="M238.79 390.15H173.58L185.33 460.2C185.575 461.658 186.229 463.018 187.214 464.12C188.2 465.223 189.478 466.024 190.9 466.43L191.12 466.49C191.32 466.54 191.51 466.61 191.71 466.64C192.145 466.729 192.586 466.782 193.03 466.8V466.86L193.35 466.81H222.42C222.954 466.813 223.487 466.759 224.01 466.65C225.707 466.39 227.272 465.58 228.465 464.344C229.657 463.108 230.411 461.515 230.61 459.81L236.27 411.55L236.53 409.63L238.77 390.51L238.79 390.15ZM226.49 434.83H219.8L220.47 414.5H228.23L226.49 434.83ZM228.88 414.5H235.29L232.9 434.83H227.14L228.88 414.5ZM209.76 457.37L209.35 439.71H219L218.41 457.37H209.76ZM199.34 439.71H208.7L209.11 457.37H200.71L199.34 439.71ZM200.06 457.37H192.21C191.47 452.6 190.5 446.37 189.44 439.71H198.69L200.06 457.37ZM199 434.83L197.42 414.5H208.16L208.63 434.83H199ZM209.28 434.83L208.81 414.5H219.87L219.19 434.83H209.28ZM208.7 409.63L208.27 390.8H220.65L220 409.63H208.7ZM208.05 409.63H197L195.54 390.8H207.54L208.05 409.63ZM196.39 409.63H184.71C184.29 407.03 183.9 404.57 183.55 402.35C182.33 394.74 181.88 391.88 181.62 390.8H194.89L196.39 409.63ZM196.77 414.5L198.35 434.83H188.72C188.4 432.77 188.07 430.68 187.72 428.59C186.96 423.79 186.21 419 185.5 414.5H196.77ZM188 434.83H181.71L178.3 414.5H184.8C185.81 420.78 186.92 427.78 188 434.83ZM188.77 439.71C189.77 445.82 190.67 451.84 191.54 457.37H185.49L182.49 439.71H188.77ZM219.03 457.37L219.62 439.71H226.06L224.55 457.37H219.03ZM220.62 409.63L221.24 390.8H230.24L228.64 409.63H220.62ZM181 390.8C181.25 392.16 182.44 399.57 184 409.63H177.5L174.35 390.8H181ZM230.25 457.37H225.25L226.75 439.71H232.36L230.25 457.37ZM235.85 409.63H229.28L230.89 390.8H238.06L235.85 409.63Z" fill="#E0E0E0"/>
<path d="M407.39 74.6267L307.553 91.5486L318.961 158.849L418.797 141.927L407.39 74.6267Z" fill="#EBEBEB"/>
<path d="M407.4 74.6499C407.171 75.0249 406.91 75.3796 406.62 75.7099L404.25 78.6099L395.41 89.1999L365.9 124L365.66 124.29L365.33 124.11L364.53 123.66L324.15 101.14L312 94.2199L308.71 92.2999C308.315 92.0917 307.94 91.8473 307.59 91.5699C308.01 91.7193 308.415 91.9068 308.8 92.1299L312.17 93.8999L324.5 100.57L365 122.86L365.79 123.3L365.22 123.41L394.94 88.7799L404 78.3799L406.5 75.5899C406.771 75.25 407.072 74.9354 407.4 74.6499Z" fill="#FAFAFA"/>
<path d="M319 158.87C318.78 158.74 324.72 148.24 332.27 135.43C339.82 122.62 346.12 112.32 346.34 112.43C346.56 112.54 340.62 123.05 333.07 135.87C325.52 148.69 319.17 159 319 158.87Z" fill="#FAFAFA"/>
<path d="M379.35 106C379.52 105.81 388.49 113.72 399.35 123.65C410.21 133.58 419 141.76 418.8 142C418.6 142.24 409.66 134.29 398.8 124.36C387.94 114.43 379.18 106.17 379.35 106Z" fill="#FAFAFA"/>
<path d="M103.466 254.827L52.7954 259.331L55.8317 293.487L106.502 288.982L103.466 254.827Z" fill="#F5F5F5"/>
<path d="M103.45 254.84C103.329 255.021 103.184 255.186 103.02 255.33L101.72 256.7L96.87 261.65L80.71 277.9L80.58 278.03L80.42 277.93L80.04 277.67L60.72 264.79L54.89 260.79L53.32 259.7C53.132 259.579 52.9547 259.442 52.79 259.29C52.9929 259.383 53.187 259.493 53.37 259.62L54.99 260.62L60.9 264.45L80.3 277.22L80.68 277.47H80.39L96.64 261.32L101.64 256.47L103 255.17C103.142 255.05 103.292 254.939 103.45 254.84Z" fill="#E0E0E0"/>
<path d="M55.82 293.49C55.72 293.42 59.11 288.4 63.4 282.28C67.69 276.16 71.26 271.28 71.4 271.33C71.54 271.38 68.11 276.42 63.82 282.54C59.53 288.66 55.92 293.56 55.82 293.49Z" fill="#E0E0E0"/>
<path d="M88.1599 269.41C88.2599 269.32 92.4399 273.64 97.4899 279.04C102.54 284.44 106.58 288.9 106.49 288.99C106.4 289.08 102.22 284.76 97.1599 279.36C92.0999 273.96 88.0699 269.5 88.1599 269.41Z" fill="#E0E0E0"/>
<path d="M463.42 218C463.42 218 463.42 217.73 463.54 217.23C463.66 216.73 463.75 215.98 463.91 215.03C464.24 213.09 464.73 210.28 465.35 206.68C466.62 199.48 468.43 189.17 470.64 176.62L470.8 176.85L410.6 166.11L410.89 165.91C408.23 180.67 405.71 194.69 403.45 207.25L403.27 206.99L446.59 214.87L459 217.15L462.3 217.77L463.15 217.94L463.45 218.01H463.17L462.34 217.88L459.08 217.32L446.73 215.17L403.22 207.48H402.99V207.25C405.24 194.69 407.74 180.66 410.38 165.9L410.43 165.66H410.68L470.86 176.5H471.06V176.7L465.55 206.85C464.89 210.42 464.37 213.21 464.01 215.13C463.83 216.06 463.7 216.78 463.6 217.29C463.5 217.8 463.42 218 463.42 218Z" fill="#E0E0E0"/>
<path d="M470.83 176.66C470.622 176.85 470.394 177.018 470.15 177.16L468.15 178.5L460.68 183.36L435.9 199.22C435.22 199.1 435.71 199.22 435.55 199.15V199.1L435.47 198.99L435.31 198.78L434.98 198.35L434.34 197.5C433.91 196.93 433.49 196.37 433.06 195.82L430.57 192.52L425.87 186.29L417.93 175.72L412.61 168.57L411.18 166.57C411.008 166.348 410.851 166.114 410.71 165.87C410.911 166.068 411.095 166.282 411.26 166.51L412.76 168.41L418.21 175.47L426.21 185.97L430.94 192.18L433.43 195.47L434.71 197.16L435.35 198.01L435.68 198.43L435.84 198.65L435.92 198.75V198.81C435.78 198.81 436.26 198.88 435.6 198.81L460.44 183.07L468 178.35L470.06 177.08C470.57 176.79 470.83 176.65 470.83 176.66Z" fill="#E0E0E0"/>
<path d="M427.37 187.94C427.46 188.05 422.1 192.49 415.37 197.85C408.64 203.21 403.16 207.47 403.08 207.36C403 207.25 408.35 202.82 415.08 197.46C421.81 192.1 427.28 187.83 427.37 187.94Z" fill="#E0E0E0"/>
<path d="M463.72 218.56C463.6 218.63 460.11 212.47 455.93 204.82C451.75 197.17 448.46 190.91 448.58 190.82C448.7 190.73 452.19 196.91 456.37 204.56C460.55 212.21 463.84 218.49 463.72 218.56Z" fill="#E0E0E0"/>
<path d="M196.26 295.92V307.54H146.26C144.719 307.54 143.241 306.928 142.152 305.838C141.062 304.749 140.45 303.271 140.45 301.73C140.45 300.189 141.062 298.711 142.152 297.622C143.241 296.532 144.719 295.92 146.26 295.92" fill="#E0E0E0"/>
<path d="M179.71 298.35H196.26V305.1H179.71C178.84 305.1 178.006 304.755 177.391 304.139C176.776 303.524 176.43 302.69 176.43 301.82V301.62C176.433 300.752 176.779 299.92 177.394 299.307C178.009 298.694 178.842 298.35 179.71 298.35Z" fill="#FAFAFA"/>
<path d="M196.26 284.29V295.92H146.26C144.719 295.92 143.241 295.308 142.152 294.218C141.062 293.129 140.45 291.651 140.45 290.11C140.45 288.568 141.062 287.089 142.151 285.998C143.24 284.907 144.718 284.293 146.26 284.29H196.26Z" fill="#F5F5F5"/>
<path d="M179.71 286.73H196.26V293.48H179.71C178.84 293.48 178.006 293.134 177.391 292.519C176.776 291.904 176.43 291.07 176.43 290.2V290C176.433 289.132 176.779 288.3 177.394 287.687C178.009 287.074 178.842 286.73 179.71 286.73Z" fill="#E0E0E0"/>
<path d="M160.17 265.65L152.24 284.29H157.34L160.87 274.34L160.17 265.65Z" fill="#E0E0E0"/>
<path d="M184.54 248.78L187.61 284.29H161.67L158.82 248.78H184.54Z" fill="#EBEBEB"/>
<path d="M182.01 251.6L184.69 281.35L165.22 281.6L162.59 251.43L182.01 251.6Z" fill="#FAFAFA"/>
<path d="M177.88 255.72L179.4 276.19H169.02L167.19 255.72H177.88Z" fill="#E0E0E0"/>
<path d="M477.11 466.86C477.11 467.01 375.87 467.12 251.01 467.12C126.15 467.12 24.8899 467 24.8899 466.86C24.8899 466.72 126.11 466.6 251.01 466.6C375.91 466.6 477.11 466.72 477.11 466.86Z" fill="#263238"/>
<path d="M316.76 45.6299H46.99V228.63H316.76V45.6299Z" fill="#FAFAFA"/>
<path d="M318 228.77H47.8101V45.49H318V228.77ZM317.8 45.63H48.0001V228.63H317.79" fill="#FAFAFA"/>
<path d="M318 228.77H47.8101V45.49H318V228.77ZM317.8 45.63H48.0001V228.63H317.79" fill="#FAFAFA"/>
<path d="M317.89 45.5999H47.9199V63.7399H317.89V45.5999Z" fill="url(#paint0_linear_2204_1148)"/>
<g style="mix-blend-mode:multiply">
<path d="M317.89 200.63H47.9199V228.77H317.89V200.63Z" fill="#EBEBEB"/>
</g>
<path d="M99.16 214.25H101.39L102.09 215.71H102.57L100.34 211.05H100.21L98 215.71H98.48L99.16 214.25ZM100.27 211.93L101.18 213.81H99.37L100.27 211.93Z" fill="#263238"/>
<path d="M102.9 216.7H97.6199V217.07H102.9V216.7Z" fill="#263238"/>
<path d="M66.3599 210.79H65.9999C65.4959 210.828 65.0249 211.055 64.6817 211.426C64.3385 211.797 64.1485 212.284 64.1499 212.79C64.3977 214.265 65.0366 215.646 65.9999 216.79C65.9999 216.79 66.1399 217.03 66.3599 216.79C67.3275 215.649 67.9669 214.266 68.2099 212.79C68.2113 212.284 68.0213 211.797 67.6781 211.426C67.3349 211.055 66.8639 210.828 66.3599 210.79ZM66.1799 214C65.9623 214 65.7497 213.935 65.5688 213.814C65.3879 213.694 65.2469 213.522 65.1636 213.321C65.0804 213.12 65.0586 212.899 65.101 212.685C65.1435 212.472 65.2483 212.276 65.4021 212.122C65.5559 211.968 65.7519 211.863 65.9653 211.821C66.1787 211.778 66.3999 211.8 66.6009 211.884C66.8019 211.967 66.9737 212.108 67.0945 212.289C67.2154 212.47 67.2799 212.682 67.2799 212.9C67.2812 213.045 67.2537 213.188 67.1989 213.322C67.1441 213.456 67.0631 213.578 66.9607 213.681C66.8583 213.783 66.7365 213.864 66.6024 213.919C66.4684 213.974 66.3247 214.001 66.1799 214Z" fill="#263238"/>
<path d="M91.08 215.44C91.08 215.739 90.961 216.027 90.7491 216.239C90.5372 216.451 90.2497 216.57 89.95 216.57C89.6503 216.57 89.3629 216.451 89.151 216.239C88.9391 216.027 88.82 215.739 88.82 215.44V211.79C88.82 211.596 88.897 211.411 89.0339 211.274C89.1708 211.137 89.3564 211.06 89.55 211.06C89.7436 211.06 89.9293 211.137 90.0662 211.274C90.2031 211.411 90.28 211.596 90.28 211.79V214.89C90.2648 214.986 90.2157 215.074 90.1414 215.138C90.0672 215.201 89.9727 215.236 89.875 215.236C89.7774 215.236 89.6829 215.201 89.6087 215.138C89.5344 215.074 89.4852 214.986 89.47 214.89V212.5H89.2V214.78V214.89C89.2239 215.051 89.3047 215.198 89.4276 215.304C89.5505 215.41 89.7075 215.469 89.87 215.47C90.032 215.467 90.188 215.408 90.3105 215.302C90.433 215.196 90.5142 215.05 90.54 214.89V214.83C90.5391 214.813 90.5391 214.796 90.54 214.78V211.78C90.54 211.515 90.4347 211.26 90.2471 211.073C90.0596 210.885 89.8053 210.78 89.54 210.78C89.2748 210.78 89.0205 210.885 88.8329 211.073C88.6454 211.26 88.54 211.515 88.54 211.78V215.59C88.5697 215.939 88.7295 216.265 88.9878 216.502C89.2462 216.74 89.5842 216.872 89.935 216.872C90.2859 216.872 90.6239 216.74 90.8823 216.502C91.1406 216.265 91.3004 215.939 91.33 215.59V212.5H91.06L91.08 215.44Z" fill="#263238"/>
<path d="M79.06 212.68L78.06 210.56L77.06 212.68L74.72 213.02L76.41 214.67L75.93 217L78 215.9L80.09 217L79.69 214.67L81.4 213L79.06 212.68ZM79.65 216.38L78 215.51L76.36 216.38L76.66 214.64V214.55L75.34 213.26L77.2 213L78.02 211.34L78.84 213L80.67 213.27L79.41 214.5L79.34 214.56L79.65 216.38Z" fill="#263238"/>
<path d="M120.21 208H119.87V218.85H120.21V208Z" fill="#263238"/>
<path d="M113.57 211.8H109.25V216.4H113.57V211.8Z" fill="#263238"/>
<path d="M110.62 210.72V211.08H112.21V210.72H113.57V211.43H109.25V210.72H110.62Z" fill="#263238"/>
<path d="M112.21 210.37H110.62V210.72H112.21V210.37Z" fill="#263238"/>
<path d="M112.21 210.72H110.62V211.07H112.21V210.72Z" fill="#263238"/>
<path d="M129.99 214.27L131.31 212.94L131.47 213.1L129.99 214.59L128.5 213.1L128.66 212.94L129.99 214.27Z" fill="#263238"/>
<path d="M292.71 54.87H296.45V54.67H292.71H296.45V54.47H292.71V54.87Z" fill="#263238"/>
<path d="M311.38 52.9399L311.1 52.6599L309.37 54.3899L307.64 52.6599L307.36 52.9399L309.09 54.6699L307.36 56.3999L307.64 56.6799L309.37 54.9499L311.1 56.6799L311.38 56.3999L309.65 54.6699L311.38 52.9399Z" fill="#263238"/>
<path d="M299.81 56.7399H304V52.5999H299.86L299.81 56.7399ZM300.21 52.9899H303.55V56.3399H300.21V52.9899Z" fill="#263238"/>
<path d="M311.79 105.13C311.788 104.749 311.639 104.384 311.374 104.11C311.11 103.837 310.75 103.675 310.37 103.66H304.79C304.249 103.66 303.73 103.875 303.348 104.257C302.965 104.64 302.75 105.159 302.75 105.7C302.75 106.241 302.965 106.76 303.348 107.142C303.73 107.525 304.249 107.74 304.79 107.74H309.28V107.34H305C304.783 107.34 304.569 107.297 304.369 107.214C304.168 107.131 303.986 107.01 303.833 106.857C303.68 106.703 303.559 106.522 303.476 106.321C303.393 106.121 303.35 105.907 303.35 105.69C303.35 105.473 303.393 105.259 303.476 105.058C303.559 104.858 303.68 104.676 303.833 104.523C303.986 104.37 304.168 104.248 304.369 104.166C304.569 104.083 304.783 104.04 305 104.04H310.34C310.624 104.04 310.896 104.153 311.097 104.353C311.297 104.554 311.41 104.826 311.41 105.11C311.41 105.394 311.297 105.666 311.097 105.867C310.896 106.067 310.624 106.18 310.34 106.18H305.81C305.677 106.147 305.558 106.072 305.471 105.966C305.384 105.859 305.335 105.727 305.33 105.59C305.332 105.45 305.381 105.316 305.471 105.208C305.56 105.101 305.683 105.027 305.82 105H309.3V104.6H305.81C305.545 104.6 305.29 104.705 305.103 104.893C304.915 105.08 304.81 105.335 304.81 105.6C304.81 105.865 304.915 106.119 305.103 106.307C305.29 106.495 305.545 106.6 305.81 106.6H310.39C310.768 106.582 311.124 106.419 311.384 106.145C311.645 105.872 311.79 105.508 311.79 105.13Z" fill="#263238"/>
<path d="M60.1899 51.5898V56.5898H59.6099L56.6099 52.8898V56.5898H55.8999V51.5898H56.4799L59.4799 55.2898V51.5898H60.1899Z" fill="white"/>
<path d="M64.9999 54.8998H61.9999C62.0433 55.2055 62.1958 55.4852 62.4292 55.6874C62.6625 55.8895 62.9611 56.0005 63.2699 55.9998C63.4731 56.0066 63.6755 55.97 63.8634 55.8924C64.0514 55.8148 64.2207 55.698 64.3599 55.5498L64.7399 55.9898C64.5501 56.1928 64.3187 56.3524 64.0615 56.4576C63.8044 56.5629 63.5275 56.6114 63.2499 56.5998C62.9892 56.6151 62.7282 56.5762 62.4833 56.4855C62.2384 56.3949 62.0149 56.2544 61.827 56.0731C61.6391 55.8918 61.4908 55.6734 61.3914 55.4319C61.2921 55.1904 61.2439 54.9309 61.2499 54.6698C61.2402 54.4181 61.2823 54.1671 61.3736 53.9323C61.4649 53.6975 61.6034 53.484 61.7806 53.3049C61.9578 53.1259 62.1699 52.9851 62.4037 52.8913C62.6375 52.7976 62.8881 52.7528 63.1399 52.7598C63.3922 52.7523 63.6433 52.7976 63.8771 52.8929C64.1108 52.9882 64.322 53.1313 64.4972 53.313C64.6724 53.4948 64.8076 53.7112 64.8942 53.9483C64.9807 54.1854 65.0167 54.438 64.9999 54.6898C65.0048 54.7598 65.0048 54.8299 64.9999 54.8998ZM61.9999 54.4098H64.4099C64.3825 54.1092 64.2437 53.8297 64.0207 53.6261C63.7978 53.4226 63.5068 53.3097 63.2049 53.3097C62.903 53.3097 62.612 53.4226 62.3891 53.6261C62.1661 53.8297 62.0273 54.1092 61.9999 54.4098Z" fill="white"/>
<path d="M71.53 52.7898L70.13 56.5498H69.48L68.39 53.6998L67.29 56.5498H66.64L65.24 52.7898H65.89L66.98 55.7898L68.11 52.7898H68.69L69.8 55.7898L70.92 52.7898H71.53Z" fill="white"/>
<path d="M77.83 55.9398V56.5498H74.22V51.5498H77.73V52.1598H74.93V53.6898H77.42V54.2898H74.93V55.8998L77.83 55.9398Z" fill="white"/>
<path d="M85.1201 54.3898V56.5498H84.4301V54.4698C84.4301 53.7298 84.0801 53.3698 83.4301 53.3698C83.2691 53.3621 83.1084 53.3902 82.9596 53.4521C82.8108 53.514 82.6776 53.6081 82.5695 53.7276C82.4614 53.8472 82.3812 53.9892 82.3346 54.1435C82.288 54.2978 82.2762 54.4604 82.3001 54.6198V56.5498H81.6201V54.4698C81.6201 53.7298 81.2701 53.3698 80.6201 53.3698C80.4591 53.3621 80.2984 53.3902 80.1496 53.4521C80.0008 53.514 79.8676 53.6081 79.7595 53.7276C79.6514 53.8472 79.5712 53.9892 79.5246 54.1435C79.478 54.2978 79.4662 54.4604 79.4901 54.6198V56.5498H78.8101V52.7898H79.4601V53.3498C79.613 53.1539 79.8112 52.9978 80.0376 52.8951C80.264 52.7923 80.5118 52.7459 80.7601 52.7598C81.0212 52.7397 81.2828 52.7938 81.5146 52.9159C81.7464 53.038 81.9389 53.2231 82.0701 53.4498C82.2362 53.2242 82.4555 53.0432 82.7085 52.9228C82.9614 52.8024 83.2402 52.7465 83.5201 52.7598C83.7392 52.7331 83.9616 52.7572 84.1699 52.8302C84.3783 52.9031 84.5671 53.023 84.7217 53.1805C84.8764 53.3381 84.9927 53.5291 85.0618 53.7388C85.1309 53.9485 85.1508 54.1712 85.1201 54.3898Z" fill="white"/>
<path d="M89.3401 54.2798V56.5498H88.7001V56.0598C88.5552 56.2466 88.3657 56.3939 88.149 56.4882C87.9324 56.5826 87.6955 56.621 87.4601 56.5998C86.6101 56.5998 86.0701 56.1398 86.0701 55.4898C86.0701 54.8398 86.4601 54.3898 87.5801 54.3898H88.6601V54.2498C88.6601 53.6798 88.3301 53.3498 87.6601 53.3498C87.2295 53.3445 86.81 53.4855 86.4701 53.7498L86.1901 53.2398C86.6393 52.9126 87.1845 52.7438 87.7401 52.7598C88.7601 52.7598 89.3401 53.2498 89.3401 54.2798ZM88.6601 55.3998V54.8798H87.6601C86.9901 54.8798 86.8001 55.1398 86.8001 55.4598C86.8001 55.7798 87.1101 56.0698 87.6301 56.0698C87.8495 56.0761 88.0656 56.0153 88.2496 55.8956C88.4336 55.7759 88.5768 55.603 88.6601 55.3998Z" fill="white"/>
<path d="M90.48 51.6299C90.48 51.57 90.4919 51.5106 90.5152 51.4554C90.5384 51.4001 90.5724 51.35 90.6153 51.3081C90.6581 51.2662 90.7089 51.2333 90.7647 51.2112C90.8205 51.1892 90.88 51.1786 90.94 51.1799C90.9986 51.1772 91.0571 51.1863 91.1122 51.2066C91.1673 51.2269 91.2177 51.2579 91.2606 51.298C91.3034 51.3381 91.3378 51.3863 91.3618 51.4399C91.3857 51.4934 91.3987 51.5512 91.4 51.6099C91.4 51.7319 91.3515 51.8489 91.2652 51.9352C91.179 52.0214 91.062 52.0699 90.94 52.0699C90.818 52.0699 90.701 52.0214 90.6147 51.9352C90.5284 51.8489 90.48 51.7319 90.48 51.6099V51.6299ZM90.6 52.7899H91.28V56.5499H90.6V52.7899Z" fill="white"/>
<path d="M92.5801 51.2898H93.2601V56.5498H92.5801V51.2898Z" fill="white"/>
<path d="M56.21 69.9198H54.51V69.3098H58.61V69.9198H56.91V74.2698H56.21V69.9198Z" fill="#263238"/>
<path d="M58.5499 72.3898C58.534 71.9912 58.6376 71.597 58.8474 71.2577C59.0573 70.9185 59.3638 70.6497 59.7275 70.486C60.0913 70.3223 60.4957 70.2711 60.8888 70.339C61.2818 70.4069 61.6456 70.5908 61.9334 70.867C62.2212 71.1433 62.4197 71.4993 62.5036 71.8893C62.5875 72.2793 62.5529 72.6854 62.4041 73.0555C62.2554 73.4257 61.9994 73.7429 61.6689 73.9664C61.3385 74.1899 60.9488 74.3095 60.5499 74.3098C60.289 74.3297 60.0269 74.2943 59.7806 74.2059C59.5343 74.1175 59.3094 73.9782 59.1207 73.797C58.9319 73.6157 58.7835 73.3968 58.6852 73.1543C58.5868 72.9118 58.5407 72.6513 58.5499 72.3898ZM61.7699 72.3898C61.7699 72.223 61.7371 72.0579 61.6733 71.9038C61.6094 71.7497 61.5159 71.6097 61.398 71.4918C61.28 71.3739 61.14 71.2803 60.9859 71.2165C60.8319 71.1527 60.6667 71.1198 60.4999 71.1198C60.3332 71.1198 60.168 71.1527 60.0139 71.2165C59.8599 71.2803 59.7198 71.3739 59.6019 71.4918C59.484 71.6097 59.3904 71.7497 59.3266 71.9038C59.2628 72.0579 59.2299 72.223 59.2299 72.3898C59.2299 72.5566 59.2628 72.7217 59.3266 72.8758C59.3904 73.0299 59.484 73.1699 59.6019 73.2878C59.7198 73.4058 59.8599 73.4993 60.0139 73.5631C60.168 73.627 60.3332 73.6598 60.4999 73.6598C60.6667 73.6598 60.8319 73.627 60.9859 73.5631C61.14 73.4993 61.28 73.4058 61.398 73.2878C61.5159 73.1699 61.6094 73.0299 61.6733 72.8758C61.7371 72.7217 61.7699 72.5566 61.7699 72.3898Z" fill="#263238"/>
<path d="M65.0001 70.9999C64.9987 70.9365 65.0102 70.8735 65.0338 70.8146C65.0575 70.7558 65.0928 70.7023 65.1376 70.6575C65.1825 70.6126 65.2359 70.5773 65.2948 70.5537C65.3536 70.53 65.4167 70.5185 65.4801 70.5199C65.543 70.5185 65.6056 70.53 65.664 70.5537C65.7223 70.5775 65.7751 70.6129 65.8192 70.6579C65.8633 70.7029 65.8976 70.7565 65.9201 70.8153C65.9426 70.8742 65.9528 70.937 65.9501 70.9999C65.9528 71.0633 65.9426 71.1266 65.9202 71.1859C65.8978 71.2453 65.8636 71.2995 65.8197 71.3452C65.7758 71.391 65.723 71.4274 65.6647 71.4523C65.6063 71.4772 65.5435 71.49 65.4801 71.4899C65.4162 71.4899 65.3529 71.4772 65.2941 71.4524C65.2352 71.4277 65.1818 71.3914 65.1371 71.3458C65.0924 71.3002 65.0572 71.2461 65.0337 71.1867C65.0102 71.1273 64.9987 71.0638 65.0001 70.9999ZM65.0001 73.8699C64.9987 73.806 65.0102 73.7425 65.0337 73.6831C65.0572 73.6237 65.0924 73.5696 65.1371 73.524C65.1818 73.4784 65.2352 73.4421 65.2941 73.4174C65.3529 73.3926 65.4162 73.3799 65.4801 73.3799C65.6127 73.3799 65.7399 73.4326 65.8336 73.5263C65.9274 73.6201 65.9801 73.7473 65.9801 73.8799C65.9801 74.0125 65.9274 74.1397 65.8336 74.2334C65.7399 74.3272 65.6127 74.3799 65.4801 74.3799C65.4102 74.3824 65.3406 74.3693 65.2764 74.3415C65.2122 74.3137 65.155 74.2719 65.1091 74.2192C65.0631 74.1665 65.0294 74.1042 65.0106 74.0369C64.9917 73.9695 64.9881 73.8988 65.0001 73.8299V73.8699Z" fill="#263238"/>
<path d="M55.5201 88.4999C55.5211 88.1608 55.5907 87.8254 55.7249 87.514C55.8591 87.2025 56.055 86.9215 56.3008 86.6878C56.5466 86.4542 56.8372 86.2728 57.155 86.1546C57.4728 86.0363 57.8114 85.9837 58.1501 85.9999C58.5019 85.9856 58.8526 86.0469 59.1787 86.1797C59.5048 86.3125 59.7985 86.5138 60.0401 86.7699L59.5801 87.2199C59.4018 87.0281 59.1848 86.8763 58.9434 86.7746C58.7021 86.6729 58.4419 86.6236 58.1801 86.6299C57.864 86.6316 57.5533 86.7117 57.2758 86.863C56.9983 87.0143 56.7627 87.2321 56.5901 87.4969C56.4175 87.7616 56.3133 88.0651 56.2869 88.3801C56.2604 88.695 56.3125 89.0116 56.4385 89.3015C56.5646 89.5913 56.7606 89.8454 57.0089 90.0409C57.2573 90.2363 57.5503 90.3671 57.8617 90.4215C58.173 90.4758 58.493 90.4521 58.7929 90.3523C59.0928 90.2526 59.3633 90.0799 59.5801 89.8499L60.0401 90.2999C59.7975 90.5581 59.5024 90.7613 59.1746 90.8959C58.8469 91.0304 58.4941 91.0932 58.1401 91.0799C57.7954 91.0952 57.4512 91.0392 57.1291 90.9155C56.8069 90.7918 56.5138 90.603 56.2679 90.3608C56.022 90.1187 55.8287 89.8285 55.7001 89.5083C55.5714 89.1881 55.5101 88.8449 55.5201 88.4999Z" fill="#263238"/>
<path d="M60.4399 89.0999C60.4338 88.8392 60.482 88.5802 60.5814 88.3391C60.6809 88.0981 60.8293 87.8804 61.0174 87.6998C61.2055 87.5193 61.4291 87.3798 61.674 87.2903C61.9189 87.2008 62.1797 87.1632 62.4399 87.1799C62.7502 87.1598 63.06 87.2258 63.3352 87.3704C63.6105 87.5151 63.8405 87.7329 63.9999 87.9999L63.4799 88.3399C63.3728 88.1723 63.2248 88.0348 63.0499 87.9403C62.8749 87.8458 62.6787 87.7975 62.4799 87.7999C62.1483 87.8287 61.8397 87.9808 61.6148 88.2261C61.3899 88.4714 61.2651 88.7921 61.2651 89.1249C61.2651 89.4577 61.3899 89.7784 61.6148 90.0237C61.8397 90.269 62.1483 90.4211 62.4799 90.4499C62.6787 90.4523 62.8749 90.4039 63.0499 90.3095C63.2248 90.215 63.3728 90.0775 63.4799 89.9099L63.9999 90.2299C63.8424 90.4911 63.6168 90.7044 63.3473 90.8471C63.0777 90.9898 62.7744 91.0565 62.4699 91.0399C62.2056 91.0612 61.9397 91.0264 61.6898 90.9377C61.4399 90.8489 61.2116 90.7084 61.0198 90.5251C60.8281 90.3419 60.6773 90.1202 60.5774 89.8746C60.4774 89.6289 60.4306 89.3649 60.4399 89.0999Z" fill="#263238"/>
<path d="M66.4299 87.67C66.4318 87.5755 66.4617 87.4837 66.5156 87.4061C66.5695 87.3284 66.6451 87.2685 66.733 87.2337C66.8209 87.1989 66.9171 87.1908 67.0095 87.2104C67.1019 87.2301 67.1865 87.2766 67.2527 87.3441C67.3188 87.4116 67.3635 87.4971 67.3813 87.5899C67.399 87.6828 67.3889 87.7787 67.3523 87.8659C67.3157 87.953 67.2542 88.0274 67.1755 88.0797C67.0968 88.132 67.0044 88.1599 66.9099 88.16C66.846 88.16 66.7827 88.1472 66.7238 88.1225C66.665 88.0977 66.6116 88.0615 66.5669 88.0158C66.5222 87.9702 66.487 87.9161 66.4635 87.8567C66.44 87.7973 66.4285 87.7338 66.4299 87.67ZM66.4299 90.53C66.4318 90.4355 66.4617 90.3437 66.5156 90.2661C66.5695 90.1884 66.6451 90.1285 66.733 90.0937C66.8209 90.0589 66.9171 90.0508 67.0095 90.0704C67.1019 90.0901 67.1865 90.1366 67.2527 90.2041C67.3188 90.2716 67.3635 90.3571 67.3813 90.4499C67.399 90.5428 67.3889 90.6387 67.3523 90.7259C67.3157 90.813 67.2542 90.8874 67.1755 90.9397C67.0968 90.992 67.0044 91.0199 66.9099 91.0199C66.8456 91.0214 66.7817 91.0096 66.7222 90.9853C66.6626 90.9611 66.6087 90.9249 66.5637 90.879C66.5187 90.833 66.4836 90.7784 66.4606 90.7183C66.4376 90.6583 66.4271 90.5942 66.4299 90.53Z" fill="#263238"/>
<path d="M54.77 107.34L55.03 106.78C55.4909 107.161 56.072 107.366 56.67 107.36C57.53 107.36 57.9 107.02 57.9 106.59C57.9 105.38 54.9 106.14 54.9 104.3C54.9 103.53 55.49 102.88 56.8 102.88C57.3641 102.873 57.9187 103.026 58.4 103.32L58.16 103.89C57.7551 103.626 57.2832 103.484 56.8 103.48C55.96 103.48 55.59 103.84 55.59 104.27C55.59 105.48 58.59 104.72 58.59 106.55C58.59 107.31 57.98 107.96 56.67 107.96C55.9844 107.976 55.3139 107.758 54.77 107.34Z" fill="#263238"/>
<path d="M63 104.14V107.9H62.35V107.34C62.2038 107.537 62.0118 107.696 61.7905 107.802C61.5692 107.908 61.3253 107.959 61.08 107.95C60.86 107.972 60.6378 107.945 60.4297 107.87C60.2216 107.795 60.0329 107.675 59.8775 107.517C59.7221 107.36 59.604 107.17 59.5317 106.961C59.4594 106.752 59.4349 106.53 59.46 106.31V104.14H60.14V106.23C60.14 106.97 60.51 107.34 61.14 107.34C61.3024 107.349 61.4648 107.321 61.6156 107.26C61.7664 107.199 61.902 107.106 62.0127 106.986C62.1233 106.867 62.2064 106.725 62.2561 106.57C62.3057 106.415 62.3207 106.251 62.3 106.09V104.09L63 104.14Z" fill="#263238"/>
<path d="M68.2201 106C68.2327 106.254 68.1924 106.508 68.1017 106.746C68.0111 106.984 67.8721 107.2 67.6936 107.382C67.515 107.563 67.3007 107.706 67.0643 107.8C66.8279 107.894 66.5745 107.938 66.3201 107.93C66.0615 107.94 65.8043 107.887 65.5708 107.776C65.3372 107.664 65.1345 107.498 64.9801 107.29V107.88H64.3201V102.62H65.0001V104.69C65.1584 104.494 65.3601 104.338 65.5892 104.234C65.8183 104.13 66.0686 104.08 66.3201 104.09C66.5735 104.078 66.8265 104.12 67.0629 104.212C67.2993 104.304 67.5138 104.445 67.6927 104.624C67.8716 104.804 68.0109 105.02 68.1018 105.256C68.1926 105.493 68.2329 105.747 68.2201 106ZM67.5301 106C67.5183 105.752 67.434 105.512 67.2875 105.311C67.141 105.111 66.9388 104.957 66.7059 104.87C66.4731 104.783 66.2198 104.766 65.9776 104.822C65.7353 104.878 65.5146 105.003 65.343 105.183C65.1713 105.363 65.0562 105.589 65.0118 105.833C64.9675 106.078 64.9959 106.33 65.0936 106.559C65.1912 106.787 65.3538 106.982 65.5611 107.119C65.7685 107.256 66.0115 107.33 66.2601 107.33C66.4333 107.335 66.6055 107.303 66.7657 107.237C66.9259 107.171 67.0705 107.072 67.1902 106.947C67.3098 106.821 67.4019 106.672 67.4604 106.509C67.519 106.346 67.5427 106.173 67.5301 106Z" fill="#263238"/>
<path d="M67.8601 109.1L68.0801 108.57C68.2371 108.692 68.4315 108.755 68.6301 108.75C68.9901 108.75 69.1901 108.52 69.1901 108.09V104.09H69.8701V108.02C69.8899 108.184 69.8728 108.351 69.8203 108.509C69.7677 108.666 69.6808 108.809 69.566 108.929C69.4512 109.049 69.3113 109.141 69.1564 109.2C69.0015 109.259 68.8354 109.283 68.6701 109.27C68.389 109.299 68.1059 109.239 67.8601 109.1ZM69.0701 103C69.0701 102.94 69.0821 102.881 69.1053 102.825C69.1285 102.77 69.1626 102.72 69.2054 102.678C69.2483 102.636 69.2991 102.603 69.3548 102.581C69.4106 102.559 69.4702 102.549 69.5301 102.55C69.5912 102.546 69.6525 102.554 69.7101 102.575C69.7677 102.596 69.8203 102.629 69.8645 102.671C69.9088 102.713 69.9437 102.764 69.967 102.821C69.9904 102.878 70.0016 102.939 70.0001 103C70.0001 103.122 69.9516 103.239 69.8654 103.325C69.7791 103.411 69.6621 103.46 69.5401 103.46C69.4181 103.46 69.3011 103.411 69.2148 103.325C69.1286 103.239 69.0801 103.122 69.0801 103H69.0701Z" fill="#263238"/>
<path d="M74.55 106.25H71.55C71.5949 106.573 71.7618 106.868 72.0165 107.072C72.2712 107.277 72.5944 107.376 72.92 107.35C73.1218 107.357 73.3226 107.32 73.5089 107.242C73.6952 107.165 73.8627 107.048 74 106.9L74.38 107.34C74.1906 107.543 73.9593 107.703 73.7021 107.809C73.4448 107.914 73.1677 107.962 72.89 107.95C72.6293 107.965 72.3683 107.926 72.1234 107.836C71.8785 107.745 71.655 107.604 71.4671 107.423C71.2792 107.242 71.1309 107.023 71.0316 106.782C70.9323 106.54 70.8841 106.281 70.89 106.02C70.8803 105.768 70.9225 105.517 71.0138 105.282C71.1051 105.048 71.2436 104.834 71.4208 104.655C71.598 104.476 71.81 104.335 72.0438 104.241C72.2776 104.148 72.5282 104.103 72.78 104.11C73.0229 104.112 73.2628 104.164 73.4855 104.261C73.7081 104.358 73.9089 104.499 74.076 104.675C74.243 104.851 74.3728 105.06 74.4577 105.287C74.5426 105.515 74.5808 105.757 74.57 106C74.5704 106.084 74.5637 106.167 74.55 106.25ZM71.55 105.76H73.97C73.9321 105.466 73.7884 105.195 73.5657 105C73.343 104.804 73.0566 104.696 72.76 104.696C72.4635 104.696 72.1771 104.804 71.9544 105C71.7317 105.195 71.5879 105.466 71.55 105.76Z" fill="#263238"/>
<path d="M75.1599 106C75.1552 105.74 75.2045 105.482 75.3045 105.242C75.4046 105.002 75.5533 104.786 75.7412 104.606C75.9291 104.427 76.1522 104.288 76.3964 104.199C76.6406 104.11 76.9006 104.073 77.1599 104.09C77.4636 104.071 77.7667 104.136 78.0363 104.277C78.306 104.418 78.532 104.63 78.6899 104.89L78.1699 105.22C78.0629 105.052 77.9149 104.915 77.7399 104.82C77.5649 104.726 77.3687 104.677 77.1699 104.68C76.8384 104.709 76.5297 104.861 76.3048 105.106C76.0799 105.351 75.9551 105.672 75.9551 106.005C75.9551 106.338 76.0799 106.658 76.3048 106.904C76.5297 107.149 76.8384 107.301 77.1699 107.33C77.3687 107.332 77.5649 107.284 77.7399 107.189C77.9149 107.095 78.0629 106.957 78.1699 106.79L78.6899 107.12C78.5308 107.379 78.3049 107.592 78.0357 107.734C77.7666 107.877 77.4641 107.944 77.1599 107.93C76.8992 107.945 76.6382 107.906 76.3933 107.815C76.1484 107.725 75.9249 107.584 75.737 107.403C75.5491 107.222 75.4008 107.003 75.3015 106.762C75.2021 106.52 75.1539 106.261 75.1599 106Z" fill="#263238"/>
<path d="M81.7201 107.68C81.4863 107.862 81.1964 107.957 80.9001 107.95C80.7397 107.969 80.5772 107.951 80.4244 107.899C80.2717 107.846 80.1326 107.76 80.0175 107.647C79.9024 107.534 79.8141 107.396 79.7591 107.245C79.7042 107.093 79.684 106.93 79.7001 106.77V104.7H79.0701V104.14H79.7001V103.32H80.3801V104.14H81.4601V104.7H80.3801V106.7C80.3696 106.782 80.3773 106.865 80.4027 106.943C80.4281 107.022 80.4704 107.093 80.5268 107.154C80.5832 107.214 80.6521 107.261 80.7287 107.291C80.8054 107.322 80.8878 107.335 80.9701 107.33C81.1653 107.333 81.3557 107.269 81.5101 107.15L81.7201 107.68Z" fill="#263238"/>
<path d="M84.13 104.59C84.13 104.457 84.1827 104.33 84.2764 104.236C84.3702 104.143 84.4974 104.09 84.63 104.09C84.7626 104.09 84.8898 104.143 84.9835 104.236C85.0773 104.33 85.13 104.457 85.13 104.59C85.13 104.722 85.0773 104.85 84.9835 104.943C84.8898 105.037 84.7626 105.09 84.63 105.09C84.4974 105.09 84.3702 105.037 84.2764 104.943C84.1827 104.85 84.13 104.722 84.13 104.59ZM84.13 107.46C84.132 107.365 84.1618 107.274 84.2157 107.196C84.2696 107.118 84.3453 107.058 84.4331 107.024C84.521 106.989 84.6172 106.981 84.7096 107C84.8021 107.02 84.8866 107.066 84.9528 107.134C85.0189 107.201 85.0636 107.287 85.0814 107.38C85.0991 107.473 85.089 107.569 85.0524 107.656C85.0158 107.743 84.9543 107.817 84.8756 107.87C84.7969 107.922 84.7045 107.95 84.61 107.95C84.5461 107.95 84.4829 107.937 84.424 107.912C84.3651 107.888 84.3117 107.851 84.267 107.806C84.2223 107.76 84.1871 107.706 84.1636 107.647C84.1401 107.587 84.1287 107.524 84.13 107.46Z" fill="#263238"/>
<path d="M146.39 73.3799C146.39 73.5199 130.47 73.6399 110.83 73.6399C91.19 73.6399 75.26 73.5199 75.26 73.3799C75.26 73.2399 91.18 73.1199 110.83 73.1199C130.48 73.1199 146.39 73.2399 146.39 73.3799Z" fill="#263238"/>
<path d="M178.15 89.6099C178.15 89.7499 155.15 89.8699 126.71 89.8699C98.27 89.8699 75.26 89.7499 75.26 89.6099C75.26 89.4699 98.26 89.3499 126.71 89.3499C155.16 89.3499 178.15 89.4599 178.15 89.6099Z" fill="#263238"/>
<path d="M140.11 105.71C139.957 105.753 139.798 105.77 139.64 105.76H138.28L133.28 105.84C129.07 105.84 123.28 105.92 116.86 105.92C110.44 105.92 104.64 105.92 100.43 105.84L95.4301 105.76H94.0701C93.9117 105.771 93.7526 105.754 93.6001 105.71C93.7555 105.682 93.9147 105.682 94.0701 105.71H95.4301L100.43 105.63C104.64 105.63 110.43 105.55 116.86 105.55C123.29 105.55 129.07 105.55 133.28 105.63L138.28 105.71H139.64C139.796 105.683 139.955 105.683 140.11 105.71Z" fill="#263238"/>
<path d="M315 114.47C315 114.61 255.23 114.73 181.52 114.73C107.81 114.73 48 114.61 48 114.47C48 114.33 107.75 114.21 181.48 114.21C255.21 114.21 315 114.33 315 114.47Z" fill="#E0E0E0"/>
<path d="M315 96.9099C315 97.0499 255.21 97.1699 181.47 97.1699C107.73 97.1699 47.9399 97.0499 47.9399 96.9099C47.9399 96.7699 107.71 96.6499 181.47 96.6499C255.23 96.6499 315 96.7599 315 96.9099Z" fill="#E0E0E0"/>
<path d="M315 81.49C315 81.64 255.23 81.75 181.52 81.75C107.81 81.75 48 81.64 48 81.49C48 81.34 107.75 81.23 181.48 81.23C255.21 81.23 315 81.35 315 81.49Z" fill="#E0E0E0"/>
<path d="M81.0999 135.9C78.2844 136.157 75.4559 136.244 72.6299 136.16C69.8006 136.244 66.9687 136.158 64.1499 135.9C66.9679 135.63 69.8004 135.539 72.6299 135.63C75.4561 135.54 78.2852 135.63 81.0999 135.9Z" fill="#263238"/>
<path d="M136.85 148.59C136.85 148.73 120.58 148.85 100.5 148.85C80.4199 148.85 64.1499 148.73 64.1499 148.59C64.1499 148.45 80.4199 148.33 100.5 148.33C120.58 148.33 136.85 148.45 136.85 148.59Z" fill="#263238"/>
<path d="M48 45.6299L317.77 45.3899H318V45.6299C318 101.33 318 163.36 318 228.63V228.91H317.74L48 228.84H47.79V228.63C47.92 117.21 48 47.3399 48 45.6299C48 47.3399 48.08 117.21 48.21 228.63L48 228.42H317.77L317.51 228.68C317.51 163.43 317.51 101.4 317.51 45.6799L317.75 45.9199L48 45.6299Z" fill="#263238"/>
<path d="M201.31 192.1H332.71C333.845 192.1 334.934 192.551 335.736 193.353C336.539 194.156 336.99 195.245 336.99 196.38V278.15C336.99 280.653 335.995 283.055 334.225 284.825C332.455 286.595 330.054 287.59 327.55 287.59H206.47C203.966 287.59 201.565 286.595 199.795 284.825C198.025 283.055 197.03 280.653 197.03 278.15V196.38C197.03 195.245 197.481 194.156 198.284 193.353C199.086 192.551 200.175 192.1 201.31 192.1Z" fill="url(#paint1_linear_2204_1148)"/>
<path d="M327.55 287.59H327.85C328.05 287.59 328.34 287.59 328.73 287.51C329.875 287.352 330.983 286.99 332 286.44C333.658 285.523 335.002 284.129 335.86 282.44C336.409 281.378 336.749 280.22 336.86 279.03C336.94 277.76 336.86 276.38 336.86 274.93C336.86 263.3 336.81 246.5 336.78 225.73C336.78 220.543 336.78 215.11 336.78 209.43C336.78 206.597 336.78 203.707 336.78 200.76V196.31C336.765 195.585 336.558 194.878 336.18 194.26C335.802 193.642 335.267 193.134 334.63 192.79C333.979 192.454 333.253 192.289 332.52 192.31H315.89H295.83H206.49H202C201.523 192.284 201.044 192.304 200.57 192.37C199.653 192.53 198.821 193.006 198.216 193.714C197.612 194.422 197.274 195.319 197.26 196.25C197.26 200.16 197.26 204.05 197.26 207.91V230.7C197.26 245.65 197.26 260.06 197.26 273.8C197.26 275.5 197.26 277.24 197.26 278.89C197.406 280.524 197.984 282.09 198.934 283.428C199.885 284.765 201.174 285.825 202.67 286.5C204.152 287.134 205.762 287.411 207.37 287.31H226.3H260.3L309.49 287.39H322.87L309.49 287.44L260.3 287.52H226.3H207.42C205.747 287.624 204.072 287.337 202.53 286.68C200.954 285.975 199.596 284.861 198.596 283.455C197.595 282.048 196.989 280.4 196.84 278.68C196.75 276.95 196.84 275.27 196.79 273.55C196.79 259.81 196.79 245.4 196.79 230.45C196.79 222.983 196.79 215.387 196.79 207.66C196.79 203.8 196.79 199.91 196.79 195.99C196.807 194.939 197.189 193.926 197.872 193.127C198.555 192.328 199.495 191.791 200.53 191.61C201.033 191.538 201.542 191.514 202.05 191.54H206.5H295.84H332.53C333.336 191.515 334.135 191.698 334.85 192.07C335.551 192.453 336.138 193.015 336.553 193.698C336.967 194.381 337.194 195.161 337.21 195.96V200.42C337.21 203.373 337.21 206.263 337.21 209.09C337.21 214.757 337.21 220.19 337.21 225.39C337.21 246.16 337.14 262.96 337.12 274.59C337.12 276.05 337.12 277.41 337.12 278.71C337.014 279.917 336.674 281.092 336.12 282.17C335.234 283.869 333.858 285.263 332.17 286.17C331.14 286.709 330.017 287.048 328.86 287.17C328.432 287.335 327.994 287.475 327.55 287.59Z" fill="#263238"/>
<path d="M279.13 287.59H254.82C254.82 287.59 247.35 300.06 254.82 307.59H280C280 307.59 267.57 299.42 279.13 287.59Z" fill="url(#paint2_linear_2204_1148)"/>
<g opacity="0.3">
<path d="M254.82 287.59L253.59 290.06L275.87 291.8C276.885 290.342 277.973 288.937 279.13 287.59H254.82Z" fill="black"/>
</g>
<path d="M269.99 281.08C271.514 281.08 272.75 279.844 272.75 278.32C272.75 276.796 271.514 275.56 269.99 275.56C268.466 275.56 267.23 276.796 267.23 278.32C267.23 279.844 268.466 281.08 269.99 281.08Z" fill="#FAFAFA"/>
<path d="M330.28 197.36H203.74V270.19H330.28V197.36Z" fill="#FAFAFA"/>
<path d="M330.28 270.18C330.28 270.18 330.28 269.73 330.28 268.87C330.28 268.01 330.28 266.72 330.28 265.05C330.28 261.7 330.28 256.79 330.23 250.48C330.23 237.86 330.17 219.68 330.12 197.36L330.32 197.56L203.79 197.62L204.05 197.36C204.05 223.13 204.05 247.75 204.05 270.18L203.8 269.94L294.8 270.06L320.94 270.12H327.94H329.74H330.36H329.77H328H321.08L294.99 270.19L203.82 270.3H203.58V270.05C203.58 247.62 203.58 223 203.58 197.23V196.97H203.85L330.38 197.03H330.58V197.23C330.58 219.6 330.5 237.83 330.48 250.47C330.48 256.76 330.48 261.66 330.43 265C330.43 266.647 330.43 267.907 330.43 268.78C330.3 269.76 330.28 270.18 330.28 270.18Z" fill="#263238"/>
<path d="M234.94 203.52H205.16V268.4H234.94V203.52Z" fill="url(#paint3_linear_2204_1148)"/>
<g opacity="0.4">
<path d="M234.93 228.08H205.16V233.89H234.93V228.08Z" fill="black"/>
</g>
<g opacity="0.4">
<path d="M234.93 239.93H205.16V245.74H234.93V239.93Z" fill="black"/>
</g>
<g opacity="0.4">
<path d="M234.93 254.1H205.16V260.52H234.93V254.1Z" fill="black"/>
</g>
<path d="M229.76 236.93C226.577 237.188 223.382 237.274 220.19 237.19C216.994 237.274 213.797 237.187 210.61 236.93C213.797 236.672 216.994 236.586 220.19 236.67C223.382 236.585 226.577 236.672 229.76 236.93Z" fill="#263238"/>
<path d="M229.76 230.87C226.577 231.128 223.382 231.214 220.19 231.13C216.994 231.214 213.797 231.127 210.61 230.87C213.797 230.612 216.994 230.526 220.19 230.61C223.382 230.525 226.577 230.612 229.76 230.87Z" fill="#263238"/>
<path d="M234.94 260.52C234.94 260.66 228.34 260.78 220.19 260.78C212.04 260.78 205.43 260.66 205.43 260.52C205.43 260.38 212.04 260.26 220.19 260.26C228.34 260.26 234.94 260.38 234.94 260.52Z" fill="#263238"/>
<path d="M225.23 243.05C222.803 243.307 220.36 243.394 217.92 243.31C215.48 243.394 213.038 243.307 210.61 243.05C213.038 242.793 215.48 242.706 217.92 242.79C220.36 242.706 222.803 242.793 225.23 243.05Z" fill="#263238"/>
<path d="M227.29 256.61C224.863 256.873 222.42 256.96 219.98 256.87C217.54 256.96 215.097 256.873 212.67 256.61C215.098 256.353 217.54 256.266 219.98 256.35C222.42 256.266 224.863 256.353 227.29 256.61Z" fill="#263238"/>
<path d="M229.76 249.76C226.577 250.018 223.382 250.104 220.19 250.02C216.994 250.104 213.797 250.017 210.61 249.76C213.796 249.496 216.994 249.41 220.19 249.5C223.382 249.409 226.577 249.496 229.76 249.76Z" fill="#263238"/>
<path d="M229.76 264.32C226.577 264.583 223.382 264.67 220.19 264.58C216.994 264.67 213.796 264.583 210.61 264.32C213.797 264.062 216.994 263.976 220.19 264.06C223.382 263.975 226.577 264.062 229.76 264.32Z" fill="#263238"/>
<path d="M219.65 207.9C218.058 207.903 216.514 208.442 215.265 209.429C214.017 210.417 213.137 211.796 212.767 213.344C212.398 214.893 212.56 216.52 213.228 217.965C213.896 219.41 215.031 220.588 216.45 221.31V219.14C216.45 218.254 216.802 217.405 217.428 216.778C218.055 216.152 218.904 215.8 219.79 215.8C220.676 215.8 221.526 216.152 222.152 216.778C222.778 217.405 223.13 218.254 223.13 219.14V221.14C224.497 220.371 225.57 219.171 226.183 217.728C226.795 216.284 226.911 214.678 226.513 213.161C226.115 211.645 225.226 210.302 223.984 209.345C222.742 208.388 221.218 207.869 219.65 207.87V207.9ZM219.79 215.3C219.296 215.3 218.812 215.153 218.401 214.879C217.99 214.604 217.67 214.213 217.48 213.757C217.291 213.3 217.242 212.797 217.338 212.312C217.435 211.827 217.673 211.382 218.022 211.032C218.372 210.682 218.817 210.444 219.302 210.348C219.787 210.251 220.29 210.301 220.747 210.49C221.204 210.679 221.594 211 221.869 211.411C222.144 211.822 222.29 212.305 222.29 212.8C222.29 213.463 222.027 214.099 221.558 214.568C221.089 215.036 220.453 215.3 219.79 215.3Z" fill="#FAFAFA"/>
<path d="M219.79 215.8C218.904 215.8 218.055 216.152 217.428 216.778C216.802 217.404 216.45 218.254 216.45 219.14V221.31C217.489 221.839 218.642 222.103 219.808 222.079C220.973 222.054 222.114 221.742 223.13 221.17V219.17C223.133 218.729 223.048 218.292 222.882 217.884C222.715 217.476 222.47 217.105 222.159 216.792C221.849 216.479 221.48 216.23 221.074 216.06C220.667 215.889 220.231 215.801 219.79 215.8Z" fill="url(#paint4_linear_2204_1148)"/>
<path d="M219.79 210.3C219.296 210.3 218.812 210.446 218.401 210.721C217.99 210.996 217.67 211.386 217.48 211.843C217.291 212.3 217.242 212.803 217.338 213.288C217.435 213.772 217.673 214.218 218.022 214.568C218.372 214.917 218.817 215.155 219.302 215.252C219.787 215.348 220.29 215.299 220.747 215.109C221.204 214.92 221.594 214.6 221.869 214.189C222.143 213.778 222.29 213.294 222.29 212.8C222.29 212.137 222.027 211.501 221.558 211.032C221.089 210.563 220.453 210.3 219.79 210.3Z" fill="url(#paint5_linear_2204_1148)"/>
<path d="M226.79 215C226.73 215 226.79 214.37 226.47 213.29C226.044 211.778 225.13 210.449 223.87 209.51C223.014 208.865 222.016 208.434 220.96 208.25C219.754 208.033 218.511 208.14 217.36 208.56C216.086 209.023 214.981 209.859 214.19 210.96C213.326 212.13 212.86 213.546 212.86 215C212.86 216.454 213.326 217.87 214.19 219.04C214.981 220.14 216.086 220.977 217.36 221.44C218.511 221.86 219.753 221.97 220.96 221.76C222.016 221.568 223.012 221.133 223.87 220.49C225.13 219.551 226.044 218.222 226.47 216.71C226.76 215.63 226.73 215 226.79 215C226.803 215.153 226.803 215.307 226.79 215.46C226.786 215.898 226.732 216.334 226.63 216.76C226.269 218.351 225.363 219.766 224.07 220.76C222.988 221.601 221.692 222.121 220.329 222.261C218.967 222.402 217.592 222.157 216.361 221.555C215.13 220.953 214.094 220.017 213.368 218.855C212.643 217.693 212.259 216.35 212.259 214.98C212.259 213.61 212.643 212.267 213.368 211.105C214.094 209.943 215.13 209.007 216.361 208.405C217.592 207.803 218.967 207.558 220.329 207.699C221.692 207.839 222.988 208.359 224.07 209.2C225.363 210.194 226.269 211.609 226.63 213.2C226.733 213.629 226.787 214.069 226.79 214.51C226.805 214.673 226.805 214.837 226.79 215Z" fill="#FAFAFA"/>
<path d="M328.19 225.23H234.94V233.96H328.19V225.23Z" fill="#EBEBEB"/>
<path d="M328.19 203.52H234.94V207.9H328.19V203.52Z" fill="#F5F5F5"/>
<path d="M301.21 204.83H238.24C237.842 204.83 237.52 205.152 237.52 205.55V205.82C237.52 206.217 237.842 206.54 238.24 206.54H301.21C301.608 206.54 301.93 206.217 301.93 205.82V205.55C301.93 205.152 301.608 204.83 301.21 204.83Z" fill="#E0E0E0"/>
<path d="M310.21 204.83H306.02C305.622 204.83 305.3 205.152 305.3 205.55V205.82C305.3 206.217 305.622 206.54 306.02 206.54H310.21C310.608 206.54 310.93 206.217 310.93 205.82V205.55C310.93 205.152 310.608 204.83 310.21 204.83Z" fill="#E0E0E0"/>
<path d="M314.62 204.71H313.91V205.42H314.62V204.71Z" fill="#E0E0E0"/>
<path d="M314.62 205.64H313.91V206.35H314.62V205.64Z" fill="#E0E0E0"/>
<path d="M315.72 204.71H315.01V205.42H315.72V204.71Z" fill="#E0E0E0"/>
<path d="M315.72 205.64H315.01V206.35H315.72V205.64Z" fill="#E0E0E0"/>
<path d="M328.19 207.9H234.94V216.63H328.19V207.9Z" fill="#E0E0E0"/>
<path d="M240.16 210.75H237.52V213.39H240.16V210.75Z" fill="url(#paint6_linear_2204_1148)"/>
<path d="M281 212.06C281 212.2 272.44 212.32 261.88 212.32C251.32 212.32 242.77 212.2 242.77 212.06C242.77 211.92 251.33 211.8 261.88 211.8C272.43 211.8 281 211.91 281 212.06Z" fill="#263238"/>
<path d="M317 212C316.309 212.252 315.57 212.34 314.84 212.26C314.113 212.341 313.377 212.252 312.69 212C313.375 211.742 314.113 211.653 314.84 211.74C315.57 211.653 316.311 211.743 317 212Z" fill="#263238"/>
<path d="M328.19 233.88H234.94V242.61H328.19V233.88Z" fill="#FAFAFA"/>
<path d="M239.84 236.73H237.17V239.37H239.84V236.73Z" fill="url(#paint7_linear_2204_1148)"/>
<path d="M281 238C281 238.15 272.36 238.26 261.7 238.26C251.04 238.26 242.4 238.15 242.4 238C242.4 237.85 251.04 237.74 261.7 237.74C272.36 237.74 281 237.9 281 238Z" fill="#263238"/>
<path d="M317.38 238C316.688 238.258 315.944 238.347 315.21 238.26C314.463 238.351 313.705 238.262 313 238C313.697 237.748 314.443 237.659 315.18 237.74C315.924 237.654 316.677 237.743 317.38 238Z" fill="#263238"/>
<path d="M328.19 242.48H234.94V251.21H328.19V242.48Z" fill="#E0E0E0"/>
<path d="M239.84 245.33H237.17V247.97H239.84V245.33Z" fill="url(#paint8_linear_2204_1148)"/>
<path d="M281 246.64C281 246.79 272.36 246.9 261.7 246.9C251.04 246.9 242.4 246.79 242.4 246.64C242.4 246.49 251.04 246.38 261.7 246.38C272.36 246.38 281 246.5 281 246.64Z" fill="#263238"/>
<path d="M317.38 246.57C316.686 246.822 315.944 246.911 315.21 246.83C314.473 246.91 313.727 246.821 313.03 246.57C313.727 246.318 314.473 246.229 315.21 246.31C315.944 246.229 316.686 246.318 317.38 246.57Z" fill="#263238"/>
<path d="M328.19 251.08H234.94V259.81H328.19V251.08Z" fill="#FAFAFA"/>
<path d="M239.84 253.93H237.17V256.57H239.84V253.93Z" fill="url(#paint9_linear_2204_1148)"/>
<path d="M281 255.24C281 255.38 272.36 255.5 261.7 255.5C251.04 255.5 242.4 255.38 242.4 255.24C242.4 255.1 251.04 254.98 261.7 254.98C272.36 254.98 281 255.09 281 255.24Z" fill="#263238"/>
<path d="M317.38 255.17C316.686 255.422 315.944 255.511 315.21 255.43C314.473 255.51 313.727 255.421 313.03 255.17C313.726 254.913 314.473 254.823 315.21 254.91C315.944 254.823 316.688 254.912 317.38 255.17Z" fill="#263238"/>
<path d="M328.19 259.68H234.94V268.41H328.19V259.68Z" fill="#EBEBEB"/>
<path d="M239.84 262.52H237.17V265.16H239.84V262.52Z" fill="url(#paint10_linear_2204_1148)"/>
<path d="M281 263.84C281 263.98 272.36 264.1 261.7 264.1C251.04 264.1 242.4 263.98 242.4 263.84C242.4 263.7 251.04 263.58 261.7 263.58C272.36 263.58 281 263.69 281 263.84Z" fill="#263238"/>
<path d="M317.38 263.76C316.688 264.018 315.944 264.107 315.21 264.02C314.473 264.106 313.726 264.017 313.03 263.76C313.727 263.508 314.473 263.419 315.21 263.5C315.944 263.419 316.686 263.508 317.38 263.76Z" fill="#263238"/>
<path d="M328.19 216.51H234.93V225.24H328.19V216.51Z" fill="#FAFAFA"/>
<path d="M240.16 219.36H237.52V222H240.16V219.36Z" fill="url(#paint11_linear_2204_1148)"/>
<path d="M264.6 220.67C264.6 220.82 259.7 220.93 253.66 220.93C247.62 220.93 242.72 220.82 242.72 220.67C242.72 220.52 247.62 220.41 253.66 220.41C259.7 220.41 264.6 220.53 264.6 220.67Z" fill="#263238"/>
<path d="M317 220.93C316.309 221.181 315.57 221.27 314.84 221.19C314.113 221.271 313.377 221.182 312.69 220.93C313.375 220.672 314.113 220.583 314.84 220.67C315.57 220.583 316.311 220.673 317 220.93Z" fill="#263238"/>
<path d="M317 229.4C316.309 229.651 315.57 229.74 314.84 229.66C314.113 229.741 313.377 229.652 312.69 229.4C313.375 229.142 314.113 229.053 314.84 229.14C315.57 229.053 316.311 229.143 317 229.4Z" fill="#263238"/>
<path d="M240.16 228.08H237.52V230.72H240.16V228.08Z" fill="url(#paint12_linear_2204_1148)"/>
<path d="M295.43 229.39C295.43 229.53 283.63 229.65 269.08 229.65C254.53 229.65 242.72 229.53 242.72 229.39C242.72 229.25 254.52 229.13 269.08 229.13C283.64 229.13 295.43 229.24 295.43 229.39Z" fill="#263238"/>
<path d="M209.31 201.38C209.31 201.589 209.227 201.79 209.079 201.938C208.93 202.087 208.729 202.17 208.52 202.17C208.415 202.171 208.312 202.152 208.215 202.113C208.118 202.073 208.029 202.016 207.955 201.942C207.88 201.869 207.821 201.781 207.781 201.684C207.741 201.588 207.72 201.484 207.72 201.38C207.72 201.275 207.741 201.171 207.781 201.074C207.821 200.977 207.88 200.888 207.954 200.814C208.029 200.74 208.117 200.681 208.214 200.641C208.311 200.601 208.415 200.58 208.52 200.58C208.625 200.58 208.728 200.601 208.825 200.641C208.921 200.681 209.009 200.74 209.082 200.815C209.156 200.889 209.214 200.977 209.253 201.074C209.292 201.171 209.311 201.275 209.31 201.38Z" fill="#263238"/>
<path d="M212.42 201.38C212.42 201.592 212.336 201.795 212.186 201.946C212.036 202.096 211.832 202.18 211.62 202.18C211.408 202.18 211.204 202.096 211.054 201.946C210.904 201.795 210.82 201.592 210.82 201.38C210.82 201.168 210.904 200.964 211.054 200.814C211.204 200.664 211.408 200.58 211.62 200.58C211.832 200.58 212.036 200.664 212.186 200.814C212.336 200.964 212.42 201.168 212.42 201.38Z" fill="#263238"/>
<path d="M215.52 201.38C215.52 201.484 215.499 201.588 215.459 201.684C215.419 201.781 215.36 201.869 215.285 201.942C215.211 202.016 215.122 202.073 215.025 202.113C214.928 202.152 214.825 202.171 214.72 202.17C214.51 202.17 214.31 202.087 214.161 201.938C214.013 201.79 213.93 201.589 213.93 201.38C213.929 201.275 213.948 201.171 213.987 201.074C214.026 200.977 214.084 200.889 214.158 200.815C214.231 200.74 214.319 200.681 214.415 200.641C214.512 200.601 214.615 200.58 214.72 200.58C214.825 200.58 214.929 200.601 215.026 200.641C215.123 200.681 215.211 200.74 215.286 200.814C215.36 200.888 215.419 200.977 215.459 201.074C215.499 201.171 215.52 201.275 215.52 201.38Z" fill="#263238"/>
<path d="M328.19 268.4C328.19 266.8 328.19 241.56 328.08 199.14L328.19 199.26H205.19L205.35 199.11C205.35 223.6 205.35 247.03 205.35 268.37L205.2 268.22L328.2 268.37L205.2 268.52H205V268.37C205 247.03 205 223.6 205 199.11V199H205.16H328.16H328.28V199.12C328.24 241.56 328.2 266.81 328.19 268.4Z" fill="#263238"/>
<path d="M388.34 466.86H380.82L364.05 316.24H373.91L388.34 466.86Z" fill="#455A64"/>
<path d="M340.79 466.86H333.27L316.37 316.24H326.24L340.79 466.86Z" fill="#455A64"/>
<path d="M390.65 316.24H186.51H125.57V307.54H390.65V316.24Z" fill="#455A64"/>
<path d="M180.59 466.86H188.11L204.24 316.24H194.37L180.59 466.86Z" fill="#263238"/>
<path d="M116.07 466.86H123.59L140.48 316.24H130.61L116.07 466.86Z" fill="#263238"/>
<path d="M207.24 307.54H125.57V316.24H207.24V307.54Z" fill="#263238"/>
<path d="M301.04 304.94H244.64V307.54H301.04V304.94Z" fill="#263238"/>
<path d="M365.07 432.59L370.4 461.9L334 468.72C333.56 465.2 351.09 454.72 351.09 454.72L346.91 436.09L365.07 432.59Z" fill="url(#paint13_linear_2204_1148)"/>
<g opacity="0.6">
<path d="M362 451C362.37 451.039 362.713 451.214 362.962 451.491C363.212 451.768 363.35 452.127 363.35 452.5C363.322 452.871 363.153 453.218 362.878 453.469C362.603 453.72 362.242 453.856 361.87 453.85C361.478 453.803 361.118 453.615 360.856 453.32C360.594 453.025 360.45 452.644 360.45 452.25C360.516 451.863 360.731 451.518 361.049 451.288C361.367 451.058 361.762 450.962 362.15 451.02" fill="white"/>
</g>
<g opacity="0.6">
<path d="M370.4 461.9L369.75 458.96L335.07 466.6C335.07 466.6 333.58 467.6 333.98 468.72L370.4 461.9Z" fill="white"/>
</g>
<path d="M350.45 454.61C350.45 454.79 351.39 454.7 352.38 455.11C353.37 455.52 353.96 456.18 354.11 456.11C354.26 456.04 353.81 455.04 352.61 454.56C351.41 454.08 350.38 454.45 350.45 454.61Z" fill="#263238"/>
<path d="M346.92 456.9C346.92 457.08 347.74 457.24 348.49 457.9C349.24 458.56 349.56 459.3 349.73 459.26C349.9 459.22 349.83 458.2 348.89 457.42C347.95 456.64 346.9 456.73 346.92 456.9Z" fill="#263238"/>
<path d="M345.61 461.88C345.78 461.88 345.86 460.96 345.22 460.07C344.58 459.18 343.68 458.95 343.63 459.07C343.58 459.19 344.2 459.66 344.71 460.39C345.22 461.12 345.43 461.9 345.61 461.88Z" fill="#263238"/>
<path d="M350 450.26C350.1 450.4 350.87 450.01 351.89 449.89C352.91 449.77 353.75 449.94 353.81 449.77C353.87 449.6 353.01 449.1 351.81 449.26C350.61 449.42 349.85 450.13 350 450.26Z" fill="#263238"/>
<path d="M350 445.77C350.631 445.823 351.264 445.702 351.83 445.42C352.465 445.178 353.069 444.863 353.63 444.48C353.96 444.248 354.274 443.994 354.57 443.72C354.753 443.569 354.912 443.39 355.04 443.19C355.144 443.038 355.191 442.855 355.173 442.672C355.154 442.489 355.072 442.318 354.94 442.19C354.828 442.084 354.693 442.006 354.545 441.96C354.398 441.915 354.242 441.905 354.09 441.93C353.858 441.973 353.632 442.047 353.42 442.15C353.05 442.32 352.696 442.52 352.36 442.75C351.797 443.145 351.298 443.624 350.88 444.17C350.19 445.11 350.02 445.83 350.09 445.86C350.16 445.89 350.49 445.27 351.23 444.46C351.659 443.992 352.146 443.582 352.68 443.24C352.998 443.039 353.332 442.865 353.68 442.72C354.05 442.54 354.37 442.48 354.51 442.63C354.65 442.78 354.56 442.72 354.51 442.84C354.418 442.987 354.303 443.119 354.17 443.23C353.88 443.5 353.59 443.75 353.31 443.97C352.795 444.352 352.246 444.687 351.67 444.97C351.097 445.202 350.539 445.469 350 445.77Z" fill="#263238"/>
<path d="M350.3 446C350.55 445.416 350.602 444.767 350.45 444.15C350.361 443.468 350.151 442.808 349.83 442.2C349.64 441.846 349.415 441.511 349.16 441.2C349.016 440.977 348.817 440.796 348.582 440.673C348.347 440.55 348.085 440.491 347.82 440.5C347.659 440.533 347.511 440.612 347.393 440.727C347.276 440.843 347.195 440.99 347.16 441.15C347.104 441.379 347.081 441.615 347.09 441.85C347.107 442.269 347.184 442.684 347.32 443.08C347.55 443.746 347.942 444.343 348.46 444.82C349.34 445.63 350.13 445.7 350.13 445.64C350.13 445.58 349.49 445.31 348.77 444.51C348.358 444.046 348.054 443.496 347.88 442.9C347.771 442.557 347.714 442.2 347.71 441.84C347.71 441.44 347.78 441.1 347.93 441.12C348.08 441.14 348.48 441.31 348.68 441.59C348.919 441.875 349.133 442.179 349.32 442.5C349.632 443.049 349.867 443.638 350.02 444.25C350.27 445.27 350.2 446 350.3 446Z" fill="#263238"/>
<path d="M322.61 437.31L328.34 466.55L292 473.85C291.52 470.34 308.91 459.59 308.91 459.59L304.48 441L322.61 437.31Z" fill="url(#paint14_linear_2204_1148)"/>
<g opacity="0.6">
<path d="M319.83 455.76C320.201 455.795 320.545 455.965 320.798 456.238C321.051 456.511 321.194 456.868 321.2 457.24C321.179 457.612 321.016 457.963 320.744 458.218C320.473 458.473 320.113 458.613 319.74 458.61C319.34 458.575 318.969 458.389 318.702 458.09C318.434 457.791 318.291 457.401 318.3 457C318.359 456.615 318.568 456.268 318.88 456.034C319.192 455.801 319.583 455.699 319.97 455.75" fill="white"/>
</g>
<g opacity="0.6">
<path d="M328.34 466.55L327.64 463.62L293.07 471.72C293.07 471.72 291.59 472.72 292 473.85L328.34 466.55Z" fill="white"/>
</g>
<path d="M308.29 459.52C308.29 459.7 309.23 459.6 310.22 460C311.21 460.4 311.82 461 311.97 460.94C312.12 460.88 311.65 459.87 310.44 459.41C309.23 458.95 308.22 459.37 308.29 459.52Z" fill="#263238"/>
<path d="M304.79 461.87C304.79 462.05 305.62 462.19 306.37 462.82C307.12 463.45 307.46 464.21 307.63 464.17C307.8 464.13 307.72 463.1 306.77 462.33C305.82 461.56 304.76 461.7 304.79 461.87Z" fill="#263238"/>
<path d="M303.55 466.86C303.71 466.86 303.78 465.93 303.13 465.05C302.48 464.17 301.57 463.95 301.53 464.12C301.49 464.29 302.1 464.69 302.62 465.43C303.14 466.17 303.37 466.88 303.55 466.86Z" fill="#263238"/>
<path d="M307.75 455.18C307.85 455.32 308.62 454.92 309.63 454.78C310.64 454.64 311.5 454.78 311.56 454.64C311.62 454.5 310.74 453.99 309.56 454.16C308.38 454.33 307.63 455.06 307.75 455.18Z" fill="#263238"/>
<path d="M307.74 450.69C308.369 450.742 309.001 450.614 309.56 450.32C310.194 450.059 310.795 449.723 311.35 449.32C311.676 449.087 311.987 448.834 312.28 448.56C312.46 448.405 312.615 448.223 312.74 448.02C312.842 447.868 312.888 447.685 312.87 447.502C312.851 447.32 312.77 447.149 312.64 447.02C312.526 446.914 312.389 446.837 312.24 446.793C312.09 446.75 311.933 446.742 311.78 446.77C311.546 446.812 311.32 446.889 311.11 447C310.744 447.175 310.393 447.379 310.06 447.61C309.504 448.014 309.012 448.5 308.6 449.05C307.92 450 307.76 450.72 307.83 450.75C307.9 450.78 308.22 450.15 308.95 449.33C309.377 448.859 309.861 448.442 310.39 448.09C310.711 447.891 311.045 447.714 311.39 447.56C311.75 447.38 312.08 447.31 312.21 447.47C312.34 447.63 312.27 447.55 312.21 447.68C312.118 447.827 312.003 447.959 311.87 448.07C311.604 448.336 311.32 448.583 311.02 448.81C310.514 449.196 309.971 449.53 309.4 449.81C308.829 450.068 308.274 450.362 307.74 450.69Z" fill="#263238"/>
<path d="M308 450.9C308.234 450.312 308.276 449.664 308.12 449.05C308.019 448.367 307.799 447.707 307.47 447.1C307.276 446.745 307.049 446.41 306.79 446.1C306.642 445.881 306.44 445.703 306.203 445.584C305.967 445.465 305.704 445.409 305.44 445.42C305.279 445.458 305.133 445.54 305.016 445.657C304.9 445.773 304.818 445.92 304.78 446.08C304.73 446.31 304.713 446.546 304.73 446.78C304.755 447.198 304.846 447.61 305 448C305.234 448.66 305.63 449.251 306.15 449.72C307.05 450.52 307.83 450.58 307.84 450.52C307.85 450.46 307.19 450.2 306.47 449.41C306.05 448.95 305.736 448.404 305.55 447.81C305.438 447.467 305.378 447.11 305.37 446.75C305.37 446.36 305.43 446.02 305.58 446.03C305.73 446.04 306.13 446.22 306.34 446.49C306.581 446.771 306.799 447.072 306.99 447.39C307.307 447.935 307.549 448.52 307.71 449.13C308 450.19 307.92 450.89 308 450.9Z" fill="#263238"/>
<path d="M343.81 443.16L329.69 364.5C328.997 360.616 329.342 356.618 330.69 352.91C332.25 348.553 335.116 344.783 338.898 342.114C342.679 339.446 347.192 338.009 351.82 338H401.66L434.22 352.43C434.222 355.214 433.647 357.969 432.533 360.52C431.418 363.071 429.788 365.365 427.744 367.255C425.7 369.146 423.287 370.593 420.657 371.506C418.026 372.419 415.236 372.778 412.46 372.56L359.28 368.39L366.94 439.64L343.81 443.16Z" fill="#263238"/>
<path d="M302.59 447.32L286.47 364.5C285.782 360.616 286.127 356.619 287.47 352.91C289.03 348.553 291.896 344.783 295.678 342.114C299.459 339.446 303.972 338.009 308.6 338H358.44L391 352.46V374.3L316.05 368.42L325.86 442.02L302.59 447.32Z" fill="#263238"/>
<path d="M325.87 442C325.87 442 325.8 441.7 325.7 441.12C325.6 440.54 325.48 439.64 325.32 438.57C324.99 436.32 324.54 433.13 323.98 429.21C322.9 421.21 321.42 410.35 319.78 398.3C318.27 386.73 316.89 376.21 315.87 368.42L315.95 368.56C312.38 366.1 309.67 363.9 307.72 362.47L305.49 360.81C305.214 360.635 304.953 360.438 304.71 360.22L304.93 360.34L305.55 360.72C306.08 361.07 306.86 361.6 307.84 362.3C309.84 363.68 312.59 365.84 316.16 368.24L316.23 368.29V368.37C317.28 376.16 318.71 386.67 320.28 398.24C321.86 410.29 323.28 421.24 324.33 429.17C324.82 433.09 325.22 436.28 325.5 438.55C325.62 439.62 325.72 440.47 325.79 441.1C325.843 441.397 325.87 441.698 325.87 442Z" fill="#455A64"/>
<path d="M278.69 305.12L282.22 298.5C282.424 298.195 282.703 297.948 283.031 297.783C283.359 297.618 283.724 297.541 284.09 297.56L285.67 297.63L288.36 295.12H291.5L293.92 293.51L303.24 295.3L310.92 297.36L306.55 306L302.17 305.08L294.81 304.95C292.683 304.912 290.652 304.056 289.14 302.56C287.829 301.275 286.066 300.557 284.23 300.56C284.23 300.56 281.92 305.75 278.69 305.12Z" fill="#FFBE9D"/>
<path d="M385 205.38L385.15 253.27L364.6 254.27L364 242.6C364 242.6 356.7 244.05 354.82 237.27C353.62 232.94 353.92 199.49 353.92 199.49L385 205.38Z" fill="#FFBE9D"/>
<path d="M385.31 242.88C387.5 240.61 388.51 237.45 389.02 234.34C389.53 231.23 389.61 228.05 390.3 224.97C391.01 221.73 392.38 218.67 393.07 215.43C393.76 212.19 393.71 208.57 391.79 205.87C391.79 205.87 390.52 202.16 385.1 201.87C385.1 201.87 380.49 194.41 373.68 195.06C364.43 195.94 364.18 193.22 357.8 192.22C357.049 192.039 356.269 192.009 355.506 192.131C354.743 192.253 354.011 192.525 353.354 192.931C352.696 193.338 352.126 193.87 351.676 194.498C351.225 195.126 350.904 195.837 350.73 196.59C350.73 196.59 347.46 199.02 347.31 202.53V202.62C347.261 204.355 347.772 206.06 348.768 207.481C349.764 208.902 351.192 209.965 352.84 210.51L354.07 210.92C355.265 211.204 356.378 211.762 357.32 212.55C358.61 213.84 358.82 215.84 358.75 217.66C358.68 219.48 358.43 221.36 359.04 223.07C359.25 223.65 359.75 224.29 360.35 224.13C360.95 223.97 361.03 222.95 361.1 222.21C361.31 220.07 364.1 218.44 366 220.01C366.599 220.462 367.025 221.105 367.207 221.833C367.389 222.561 367.316 223.33 367 224.01C366.28 225.51 364.71 226.69 364.41 228.37C363.9 231.18 367.2 233.64 368.46 235.17C368.89 235.722 369.372 236.231 369.9 236.69C372.63 238.98 375.3 242.16 378.9 243.4C381.3 244.23 384.23 244.02 386.05 242.25" fill="#263238"/>
<path d="M361 251.93C356.47 255.17 358.33 263.85 358.27 268.4C358.14 278.56 359.1 288.1 359.63 289.69C360.41 292.03 363.23 311.89 363.23 311.89L358.44 338C358.44 338 364.56 353.61 391.01 353.46L404.19 350.31C407.377 349.548 410.186 347.668 412.103 345.01C414.021 342.353 414.921 339.095 414.64 335.83L411.64 300.72L407.64 272.23C406.64 257.28 397.23 249.32 385.26 250.17L361 251.93Z" fill="url(#paint15_linear_2204_1148)"/>
<g opacity="0.5">
<path d="M371.81 350.07C368.91 348.57 372.81 319.34 376.18 304.37C377.5 298.53 379.25 292.5 383.4 288.18C386.805 284.88 391.096 282.643 395.75 281.74C400.043 280.858 404.417 280.429 408.8 280.46L412.94 347C412.94 347 384.26 356.55 371.81 350.07Z" fill="black"/>
</g>
<path d="M361 251.93C358.226 252.463 355.617 253.642 353.383 255.37C351.148 257.099 349.353 259.329 348.14 261.88C344.81 268.79 330.24 297.56 330.24 297.56L307.97 296.08L303.52 306.24L334 314.43C340.3 315.64 345.8 311.8 348.9 306.12L361.7 282.7L361 251.93Z" fill="url(#paint16_linear_2204_1148)"/>
<path d="M363.18 251.93C363.18 251.93 362.62 246.84 363.35 245.93C364.08 245.02 386.18 245.2 386.18 245.2L387.35 251.04L384.89 255.4L363.89 257.23L363.18 251.93Z" fill="url(#paint17_linear_2204_1148)"/>
<path d="M332.84 302.58C331.485 301.388 330.652 299.711 330.52 297.91C331.307 299.46 332.08 301.017 332.84 302.58Z" fill="#263238"/>
<path d="M364.75 274.75C363.815 277.444 362.716 280.079 361.46 282.64C360.355 285.272 359.096 287.836 357.69 290.32C358.625 287.626 359.724 284.991 360.98 282.43C362.08 279.796 363.339 277.231 364.75 274.75Z" fill="#263238"/>
<path d="M387.16 250.15C387.16 250.15 387.29 250.37 387.29 250.85C387.288 251.205 387.173 251.55 386.963 251.835C386.753 252.121 386.458 252.333 386.12 252.44C383.81 252.58 380.12 252.75 375.89 252.9C372.33 253.03 369.13 253.12 366.76 253.15C365.817 253.159 364.885 252.958 364.03 252.56C363.43 252.24 363.2 251.94 363.22 251.92C363.24 251.9 363.52 252.13 364.11 252.37C364.96 252.683 365.865 252.822 366.77 252.78C369.07 252.65 372.31 252.51 375.87 252.38C380.07 252.23 383.8 252.14 386.12 252.12C386.411 252.035 386.669 251.865 386.861 251.631C387.054 251.398 387.172 251.112 387.2 250.81C387.17 250.4 387.12 250.15 387.16 250.15Z" fill="#263238"/>
<path d="M350.38 258.34C350.51 258.4 346.13 267.11 340.6 277.79C335.07 288.47 330.49 297.08 330.36 297C330.23 296.92 334.61 288.22 340.14 277.54C345.67 266.86 350.25 258.27 350.38 258.34Z" fill="#263238"/>
<path d="M358.76 264.74C358.76 264.74 358.95 264.68 359.27 264.82C359.504 264.916 359.715 265.061 359.887 265.245C360.06 265.43 360.19 265.65 360.27 265.89C360.368 266.257 360.352 266.646 360.224 267.003C360.095 267.361 359.86 267.67 359.55 267.89C359.179 268.15 358.732 268.277 358.28 268.25C357.84 268.25 357.41 268.17 356.99 268.14C356.622 268.102 356.251 268.15 355.904 268.278C355.557 268.406 355.245 268.612 354.99 268.88C354.775 269.101 354.607 269.363 354.493 269.649C354.38 269.936 354.324 270.242 354.33 270.55C354.381 271.144 354.558 271.72 354.85 272.24C354.85 272.3 354.1 271.83 353.96 270.57C353.931 270.208 353.976 269.844 354.093 269.5C354.21 269.156 354.396 268.839 354.64 268.57C354.942 268.236 355.318 267.978 355.739 267.816C356.159 267.655 356.612 267.594 357.06 267.64C357.96 267.73 358.77 267.91 359.31 267.52C359.553 267.355 359.743 267.122 359.855 266.85C359.967 266.578 359.996 266.279 359.94 265.99C359.843 265.58 359.592 265.222 359.24 264.99C358.92 264.82 358.75 264.78 358.76 264.74Z" fill="#FAFAFA"/>
<path d="M388.28 265.06C388.28 265.06 388.48 265.01 388.8 265.14C389.024 265.245 389.225 265.395 389.388 265.581C389.552 265.767 389.675 265.984 389.75 266.22C389.85 266.586 389.835 266.974 389.708 267.331C389.581 267.689 389.348 267.999 389.04 268.22C388.664 268.468 388.22 268.594 387.77 268.58C387.32 268.58 386.9 268.49 386.48 268.46C386.111 268.424 385.739 268.473 385.393 268.603C385.046 268.733 384.734 268.941 384.48 269.21C384.265 269.431 384.097 269.693 383.983 269.979C383.87 270.266 383.815 270.572 383.82 270.88C383.865 271.475 384.043 272.053 384.34 272.57C384.34 272.62 383.59 272.15 383.45 270.9C383.421 270.539 383.466 270.176 383.581 269.832C383.696 269.488 383.879 269.171 384.12 268.9C384.423 268.564 384.8 268.303 385.223 268.14C385.645 267.976 386.099 267.915 386.55 267.96C387.45 268.05 388.25 268.23 388.8 267.84C389.043 267.677 389.232 267.445 389.344 267.175C389.456 266.905 389.486 266.607 389.43 266.32C389.327 265.913 389.078 265.557 388.73 265.32C388.45 265.15 388.27 265.1 388.28 265.06Z" fill="#FAFAFA"/>
<path d="M387.92 286.41C387.92 286.41 387.92 286.62 387.72 286.9C387.567 287.094 387.375 287.254 387.156 287.37C386.937 287.485 386.697 287.553 386.45 287.57C386.067 287.581 385.689 287.473 385.369 287.262C385.049 287.051 384.801 286.747 384.66 286.39C384.515 285.962 384.515 285.498 384.66 285.07C384.77 284.64 384.95 284.24 385.08 283.85C385.206 283.495 385.25 283.117 385.208 282.742C385.166 282.368 385.041 282.009 384.84 281.69C384.497 281.179 383.971 280.821 383.37 280.69C382.782 280.595 382.181 280.633 381.61 280.8C381.853 280.577 382.147 280.417 382.466 280.335C382.785 280.253 383.12 280.252 383.44 280.33C383.803 280.384 384.15 280.513 384.46 280.71C384.77 280.906 385.036 281.165 385.24 281.47C385.495 281.843 385.658 282.272 385.715 282.72C385.773 283.169 385.723 283.625 385.57 284.05C385.27 284.9 384.9 285.64 385.15 286.26C385.248 286.539 385.427 286.783 385.664 286.961C385.9 287.139 386.184 287.243 386.48 287.26C386.898 287.258 387.301 287.101 387.61 286.82C387.8 286.56 387.89 286.4 387.92 286.41Z" fill="#FAFAFA"/>
<path d="M375 316.7C375 316.7 375 316.91 374.8 317.18C374.645 317.375 374.451 317.535 374.231 317.651C374.01 317.766 373.768 317.834 373.52 317.85C373.138 317.862 372.761 317.755 372.441 317.546C372.121 317.337 371.873 317.035 371.73 316.68C371.59 316.248 371.59 315.782 371.73 315.35C371.84 314.92 372.02 314.53 372.15 314.13C372.281 313.778 372.328 313.4 372.286 313.027C372.244 312.653 372.115 312.295 371.91 311.98C371.745 311.725 371.531 311.506 371.28 311.334C371.029 311.163 370.747 311.042 370.45 310.98C369.863 310.882 369.262 310.916 368.69 311.08C368.63 311.08 369.26 310.45 370.52 310.62C370.881 310.675 371.228 310.804 371.537 310.998C371.847 311.193 372.113 311.449 372.32 311.75C372.572 312.125 372.733 312.553 372.79 313.001C372.848 313.449 372.8 313.904 372.65 314.33C372.34 315.19 371.97 315.92 372.22 316.54C372.316 316.821 372.494 317.066 372.731 317.245C372.968 317.423 373.254 317.526 373.55 317.54C373.972 317.543 374.379 317.386 374.69 317.1C374.85 316.84 374.94 316.68 375 316.7Z" fill="#FAFAFA"/>
<path d="M401.51 272.4C401.51 272.4 401.71 272.4 402.03 272.48C402.264 272.578 402.475 272.725 402.648 272.911C402.82 273.098 402.951 273.319 403.03 273.56C403.13 273.926 403.115 274.314 402.988 274.671C402.861 275.029 402.628 275.339 402.32 275.56C401.945 275.809 401.5 275.932 401.05 275.91C400.6 275.91 400.17 275.83 399.76 275.8C399.392 275.764 399.021 275.812 398.675 275.94C398.328 276.068 398.016 276.273 397.76 276.54C397.544 276.763 397.375 277.026 397.262 277.314C397.148 277.602 397.093 277.91 397.1 278.22C397.142 278.813 397.32 279.388 397.62 279.9C397.62 279.96 396.87 279.49 396.73 278.24C396.701 277.879 396.745 277.515 396.86 277.171C396.975 276.828 397.159 276.511 397.4 276.24C397.703 275.904 398.08 275.643 398.503 275.48C398.925 275.316 399.38 275.255 399.83 275.3C400.73 275.39 401.53 275.57 402.07 275.18C402.314 275.018 402.506 274.787 402.619 274.517C402.733 274.246 402.765 273.948 402.71 273.66C402.607 273.252 402.358 272.897 402.01 272.66C401.68 272.49 401.5 272.44 401.51 272.4Z" fill="#FAFAFA"/>
<path d="M370.68 299.23C370.68 299.23 370.53 299.09 370.48 298.74C370.449 298.495 370.471 298.246 370.543 298.01C370.616 297.774 370.737 297.556 370.9 297.37C371.162 297.089 371.504 296.896 371.88 296.817C372.256 296.738 372.647 296.778 373 296.93C373.423 297.112 373.775 297.428 374 297.83C374.23 298.22 374.38 298.62 374.57 299C374.732 299.339 374.97 299.637 375.264 299.871C375.559 300.105 375.903 300.269 376.27 300.35C376.87 300.467 377.492 300.341 378 300C378.483 299.653 378.883 299.202 379.17 298.68C379.22 298.68 379.17 299.53 378.17 300.31C377.875 300.526 377.54 300.679 377.184 300.76C376.827 300.841 376.459 300.848 376.1 300.78C375.656 300.695 375.238 300.507 374.88 300.231C374.522 299.955 374.234 299.598 374.04 299.19C373.65 298.37 373.39 297.59 372.77 297.33C372.504 297.207 372.207 297.165 371.917 297.209C371.627 297.254 371.357 297.383 371.14 297.58C370.846 297.881 370.671 298.28 370.65 298.7C370.66 299 370.72 299.21 370.68 299.23Z" fill="#FAFAFA"/>
<path d="M372.13 279.16C372.13 279.16 372.33 279.1 372.64 279.24C372.875 279.334 373.086 279.479 373.259 279.664C373.432 279.849 373.562 280.069 373.64 280.31C373.74 280.676 373.725 281.064 373.598 281.421C373.471 281.779 373.238 282.089 372.93 282.31C372.552 282.562 372.104 282.688 371.65 282.67C371.21 282.67 370.78 282.58 370.37 282.55C370.002 282.517 369.631 282.568 369.285 282.698C368.939 282.827 368.626 283.033 368.37 283.3C368.156 283.521 367.987 283.783 367.874 284.069C367.76 284.356 367.705 284.662 367.71 284.97C367.761 285.565 367.942 286.142 368.24 286.66C368.24 286.71 367.49 286.25 367.35 284.99C367.316 284.628 367.359 284.264 367.474 283.919C367.589 283.575 367.775 283.258 368.02 282.99C368.321 282.654 368.697 282.394 369.118 282.233C369.539 282.071 369.992 282.012 370.44 282.06C371.35 282.15 372.15 282.33 372.69 281.94C372.936 281.777 373.127 281.544 373.239 281.271C373.351 280.999 373.379 280.699 373.32 280.41C373.221 280.003 372.975 279.647 372.63 279.41C372.3 279.24 372.12 279.2 372.13 279.16Z" fill="#FAFAFA"/>
<path d="M371.53 326.65C371.53 326.65 371.73 326.65 372.04 326.73C372.273 326.83 372.483 326.977 372.655 327.163C372.828 327.349 372.959 327.57 373.04 327.81C373.14 328.176 373.125 328.564 372.998 328.921C372.871 329.279 372.638 329.589 372.33 329.81C371.95 330.058 371.503 330.184 371.05 330.17C370.61 330.17 370.18 330.08 369.76 330.05C369.391 330.015 369.02 330.064 368.673 330.194C368.326 330.324 368.014 330.531 367.76 330.8C367.544 331.02 367.374 331.282 367.261 331.568C367.148 331.855 367.093 332.162 367.1 332.47C367.153 333.061 367.33 333.633 367.62 334.15C367.62 334.21 366.88 333.74 366.73 332.49C366.7 332.128 366.745 331.764 366.862 331.419C366.979 331.075 367.165 330.759 367.41 330.49C367.711 330.154 368.086 329.893 368.507 329.73C368.928 329.566 369.381 329.505 369.83 329.55C370.73 329.64 371.54 329.82 372.08 329.43C372.325 329.269 372.515 329.037 372.627 328.767C372.74 328.496 372.768 328.197 372.71 327.91C372.614 327.502 372.367 327.145 372.02 326.91C371.7 326.74 371.52 326.69 371.53 326.65Z" fill="#FAFAFA"/>
<path d="M343.24 301.34C343.24 301.34 343.44 301.28 343.76 301.42C343.986 301.522 344.188 301.671 344.352 301.857C344.516 302.044 344.638 302.263 344.71 302.5C344.814 302.866 344.802 303.255 344.675 303.614C344.547 303.972 344.312 304.282 344 304.5C343.63 304.76 343.182 304.887 342.73 304.86C342.28 304.86 341.86 304.78 341.44 304.75C341.072 304.714 340.701 304.762 340.355 304.89C340.008 305.018 339.696 305.223 339.44 305.49C339.224 305.713 339.055 305.976 338.941 306.264C338.828 306.552 338.773 306.86 338.78 307.17C338.827 307.762 339.004 308.336 339.3 308.85C339.3 308.91 338.55 308.44 338.41 307.18C338.379 306.818 338.423 306.453 338.54 306.109C338.657 305.765 338.845 305.448 339.09 305.18C339.39 304.843 339.766 304.582 340.187 304.419C340.607 304.255 341.061 304.194 341.51 304.24C342.41 304.33 343.22 304.51 343.76 304.12C344.004 303.956 344.195 303.723 344.307 303.451C344.419 303.178 344.448 302.879 344.39 302.59C344.293 302.18 344.043 301.822 343.69 301.59C343.41 301.43 343.24 301.38 343.24 301.34Z" fill="#FAFAFA"/>
<path d="M350.79 287.51C350.79 287.51 350.79 287.71 350.66 288.02C350.537 288.235 350.37 288.422 350.17 288.568C349.97 288.715 349.742 288.818 349.5 288.87C349.124 288.939 348.737 288.89 348.389 288.731C348.042 288.572 347.753 288.31 347.56 287.98C347.342 287.584 347.258 287.128 347.32 286.68C347.32 286.23 347.48 285.82 347.55 285.4C347.622 285.032 347.609 284.653 347.512 284.29C347.415 283.928 347.236 283.593 346.99 283.31C346.788 283.076 346.542 282.884 346.266 282.745C345.989 282.606 345.688 282.523 345.38 282.5C344.787 282.5 344.201 282.627 343.66 282.87C343.6 282.87 344.13 282.16 345.4 282.14C345.774 282.132 346.146 282.204 346.491 282.351C346.836 282.497 347.145 282.715 347.4 282.99C347.706 283.322 347.93 283.721 348.053 284.156C348.176 284.59 348.196 285.047 348.11 285.49C347.94 286.38 347.69 287.16 348.02 287.74C348.162 287.999 348.377 288.21 348.639 288.347C348.9 288.484 349.196 288.541 349.49 288.51C349.902 288.441 350.276 288.224 350.54 287.9C350.69 287.67 350.75 287.5 350.79 287.51Z" fill="#FAFAFA"/>
<path d="M372.4 262.24C372.4 262.24 372.4 262.44 372.28 262.74C372.157 262.957 371.991 263.145 371.791 263.293C371.591 263.441 371.363 263.546 371.12 263.6C370.742 263.669 370.352 263.619 370.003 263.458C369.654 263.297 369.363 263.032 369.17 262.7C368.951 262.304 368.867 261.848 368.93 261.4C368.93 260.96 369.09 260.54 369.16 260.13C369.235 259.763 369.224 259.383 369.129 259.021C369.034 258.659 368.856 258.323 368.61 258.04C368.2 257.57 367.622 257.28 367 257.23C366.403 257.223 365.812 257.349 365.27 257.6C365.477 257.343 365.743 257.141 366.047 257.012C366.351 256.882 366.681 256.83 367.01 256.86C367.377 256.86 367.74 256.937 368.076 257.085C368.411 257.233 368.713 257.449 368.96 257.72C369.268 258.051 369.493 258.45 369.618 258.884C369.743 259.319 369.765 259.776 369.68 260.22C369.5 261.1 369.25 261.89 369.59 262.46C369.728 262.72 369.941 262.932 370.202 263.069C370.462 263.207 370.758 263.263 371.05 263.23C371.465 263.168 371.843 262.954 372.11 262.63C372.3 262.39 372.36 262.22 372.4 262.24Z" fill="#FAFAFA"/>
<path d="M401.38 260.52C401.38 260.52 401.38 260.72 401.25 261.03C401.127 261.245 400.96 261.432 400.76 261.578C400.56 261.725 400.332 261.828 400.09 261.88C399.714 261.95 399.326 261.903 398.979 261.743C398.631 261.584 398.342 261.321 398.15 260.99C397.931 260.594 397.847 260.138 397.91 259.69C397.91 259.24 398.07 258.83 398.14 258.41C398.212 258.042 398.199 257.663 398.102 257.3C398.005 256.938 397.826 256.603 397.58 256.32C397.175 255.849 396.599 255.558 395.98 255.51C395.383 255.51 394.794 255.636 394.25 255.88C394.19 255.88 394.73 255.17 395.99 255.15C396.356 255.149 396.719 255.224 397.054 255.37C397.39 255.516 397.692 255.731 397.94 256C398.248 256.331 398.473 256.73 398.596 257.165C398.72 257.599 398.738 258.057 398.65 258.5C398.48 259.39 398.23 260.17 398.57 260.75C398.709 261.009 398.923 261.22 399.183 261.358C399.443 261.495 399.738 261.551 400.03 261.52C400.445 261.458 400.82 261.24 401.08 260.91C401.28 260.68 401.34 260.51 401.38 260.52Z" fill="#FAFAFA"/>
<path d="M325.14 305C325.14 305 325.14 305.2 325.01 305.51C324.888 305.724 324.723 305.91 324.525 306.056C324.326 306.203 324.1 306.306 323.86 306.36C323.483 306.431 323.093 306.384 322.744 306.224C322.395 306.065 322.103 305.802 321.91 305.47C321.691 305.074 321.607 304.618 321.67 304.17C321.67 303.72 321.83 303.31 321.9 302.89C321.974 302.522 321.962 302.142 321.865 301.779C321.768 301.417 321.588 301.082 321.34 300.8C320.935 300.329 320.359 300.038 319.74 299.99C319.143 299.99 318.554 300.116 318.01 300.36C317.95 300.36 318.49 299.65 319.75 299.63C320.116 299.628 320.479 299.702 320.815 299.848C321.151 299.995 321.452 300.21 321.7 300.48C322.008 300.811 322.233 301.21 322.356 301.645C322.48 302.079 322.498 302.537 322.41 302.98C322.24 303.87 321.99 304.65 322.33 305.23C322.47 305.488 322.684 305.699 322.943 305.836C323.203 305.973 323.498 306.03 323.79 306C324.207 305.935 324.584 305.718 324.85 305.39C325 305.11 325.1 304.94 325.14 305Z" fill="#FAFAFA"/>
<path d="M371.58 378.92L370.79 466.86H375.79L376.17 380.67C376.17 380.67 376.42 376.73 379.42 376.47C382.42 376.21 427.42 378.47 427.42 378.47L440.68 466.86H446.44L433.44 378.48C433.44 378.48 395.65 365.7 376.87 369.64C376.87 369.64 372.36 368.81 372.11 372.27C371.86 375.73 371.58 378.92 371.58 378.92Z" fill="#E0E0E0"/>
<path d="M372.46 368.76C372.46 368.76 380.28 307.76 383.09 297.42C384.431 292.743 387.541 288.772 391.76 286.35C394.148 284.905 396.9 284.176 399.69 284.25L441.2 285.16C442.096 285.179 442.977 285.389 443.785 285.778C444.593 286.166 445.308 286.723 445.882 287.411C446.457 288.099 446.877 288.902 447.114 289.766C447.352 290.63 447.402 291.535 447.26 292.42L433.5 378.48C418.23 378.48 382.5 378.48 382.5 378.48C382.5 378.48 333.61 373.15 326.1 372.82C321.41 372.61 321.1 374.42 320.66 376.38C316.26 372.82 318.89 365.49 324.54 365.84L372.46 368.76Z" fill="#455A64"/>
<path d="M447 289.34C446.884 289.353 446.766 289.353 446.65 289.34H445.6L441.6 289.39L426.81 289.47H416.59H407.92C406.92 289.47 405.92 289.47 404.92 289.53C402.807 289.749 400.8 290.565 399.134 291.883C397.467 293.2 396.21 294.965 395.51 296.97C395.178 298.037 394.94 299.131 394.8 300.24C394.62 301.37 394.43 302.51 394.24 303.65C393.867 305.943 393.49 308.277 393.11 310.65C390 329.44 387.18 346.45 385.11 358.8C384.11 364.94 383.22 369.91 382.64 373.39C382.34 375.08 382.1 376.39 381.94 377.39C381.86 377.82 381.79 378.16 381.74 378.39C381.73 378.507 381.703 378.621 381.66 378.73C381.647 378.614 381.647 378.496 381.66 378.38C381.66 378.12 381.74 377.78 381.8 377.38C381.95 376.44 382.15 375.11 382.41 373.38C382.96 369.89 383.74 364.91 384.71 358.76C386.71 346.41 389.48 329.39 392.53 310.58C392.917 308.233 393.297 305.9 393.67 303.58C393.86 302.43 394.05 301.3 394.23 300.17C394.379 299.032 394.623 297.908 394.96 296.81C395.694 294.713 397.012 292.87 398.759 291.497C400.506 290.124 402.609 289.278 404.82 289.06C405.88 288.98 406.89 289.01 407.89 289.01H416.56H426.78L441.57 289.09L445.57 289.14H446.62L447 289.34Z" fill="#263238"/>
<path d="M320.57 378.92L318.29 466.86H323.29L324.58 380.81C324.58 380.81 324.64 375.68 328.58 376.11C331.58 376.44 377.02 381.72 377.02 381.72L392.31 466.86H398.07L382.5 378.48L326.81 371.48C325.651 371.311 324.468 371.488 323.41 371.99C322.593 372.402 321.905 373.03 321.42 373.805C320.935 374.581 320.672 375.475 320.66 376.39C320.4 379.84 320.57 378.92 320.57 378.92Z" fill="#EBEBEB"/>
<path d="M434.22 285C434.22 285 406.22 376.17 372.46 368.76L373.02 364.46C373.02 364.46 399.08 368.79 429.75 284.91L434.22 285Z" fill="url(#paint18_linear_2204_1148)"/>
<path d="M374.87 367.73C375.004 377.223 376.865 386.613 380.36 395.44C381.36 398 382.7 400.7 385.18 401.9C387.66 403.1 390.54 402.47 393.18 401.75C399.719 399.946 406.097 397.605 412.25 394.75C414.5 393.7 416.87 392.44 418.02 390.24C419.4 387.61 418.67 384.42 417.88 381.56C415.36 372.38 412.53 363.287 409.39 354.28C408.74 352.41 405.73 345.17 405.73 345.17" fill="url(#paint19_linear_2204_1148)"/>
<path d="M409.09 356C409.118 356.162 409.118 356.328 409.09 356.49C409.09 356.81 409.09 357.28 409 357.88C408.833 359.588 408.515 361.278 408.05 362.93C407.361 365.403 406.313 367.761 404.94 369.93C403.248 372.585 401.012 374.852 398.38 376.58C395.751 378.328 392.725 379.388 389.58 379.66C387.014 379.856 384.438 379.474 382.04 378.54C380.429 377.915 378.938 377.019 377.63 375.89C377.276 375.578 376.942 375.244 376.63 374.89C376.515 374.776 376.414 374.648 376.33 374.51C376.33 374.51 376.82 374.97 377.75 375.72C379.084 376.765 380.572 377.598 382.16 378.19C384.516 379.052 387.03 379.393 389.53 379.19C392.587 378.91 395.527 377.88 398.09 376.19C400.66 374.504 402.85 372.3 404.52 369.72C405.887 367.609 406.951 365.317 407.68 362.91C408.171 361.273 408.542 359.602 408.79 357.91C409 356.61 409.05 356 409.09 356Z" fill="#263238"/>
<path d="M395.81 381.3C395.643 379.852 395.643 378.389 395.81 376.94C395.823 375.48 396.008 374.027 396.36 372.61C396.531 374.058 396.531 375.522 396.36 376.97C396.35 378.43 396.165 379.884 395.81 381.3Z" fill="#263238"/>
<path d="M93.05 401C100.33 403.54 109.83 401.27 116.05 396.72C122.27 392.17 126.76 385.65 130.74 379.04C132.43 376.22 134.09 373.28 134.62 370.04C135.15 366.8 134.37 363.14 131.85 361.04C127.94 357.74 121.94 359.41 117.49 361.95C110.555 365.99 104.707 371.655 100.449 378.458C96.1917 385.261 93.6523 392.997 93.05 401Z" fill="url(#paint20_linear_2204_1148)"/>
<path d="M100.87 418.43C105.24 424.2 112.75 426.77 119.99 427.1C127.23 427.43 134.37 425.44 141.13 422.84C143.58 421.9 146.26 420.61 147.13 418.13C147.397 417.168 147.419 416.155 147.196 415.183C146.972 414.21 146.51 413.309 145.85 412.56C144.514 411.074 142.841 409.932 140.97 409.23C134.193 406.53 126.718 406.126 119.69 408.08C112.69 409.89 106.58 413.95 100.9 418.43" fill="url(#paint21_linear_2204_1148)"/>
<path d="M92.94 369.8C98.94 369.92 103.53 364.64 106.26 359.26C110.054 351.744 111.313 343.201 109.85 334.91C109.3 331.83 108.14 328.51 105.38 327.03C102.62 325.55 98.93 326.51 96.58 328.66C94.23 330.81 93 333.86 92 336.9C88.76 347.37 89.46 359.4 92.93 369.8" fill="url(#paint22_linear_2204_1148)"/>
<path d="M73.14 403.14C83.42 385.65 85.14 364.25 79.06 344.89C78.06 341.75 76.22 338.15 72.93 337.94C69.29 337.71 67.01 341.77 66.01 345.27C62.48 357.57 63.23 370.62 64.01 383.39C64.49 391.25 67.19 397.98 73.14 403.14Z" fill="url(#paint23_linear_2204_1148)"/>
<path d="M62.45 410.34C60.5359 404.346 57.3016 398.859 52.9853 394.281C48.669 389.703 43.3807 386.153 37.51 383.89C34.78 382.89 31.31 382.28 29.27 384.36C27.23 386.44 27.89 389.84 29.17 392.36C31.24 396.5 34.6 399.82 37.95 403C40.95 405.9 44.15 408.81 48.01 410.49C51.87 412.17 58.93 412.6 62.45 410.31" fill="url(#paint24_linear_2204_1148)"/>
<path d="M126.18 365.4L126 365.56L125.44 365.99L123.29 367.6L121.73 368.75C121.16 369.18 120.58 369.69 119.93 370.21C118.66 371.27 117.16 372.42 115.64 373.86L113.22 376.06C112.38 376.83 111.58 377.7 110.7 378.56C108.93 380.26 107.22 382.25 105.38 384.3C101.502 388.851 97.9595 393.677 94.7801 398.74C91.6733 403.855 88.9363 409.185 86.5901 414.69C85.5901 417.26 84.5901 419.69 83.8401 422.02C83.4601 423.18 83.0401 424.3 82.7301 425.39L81.8401 428.54C81.2301 430.54 80.8401 432.4 80.5001 434.01C80.3201 434.82 80.1301 435.57 79.9901 436.26L79.6601 438.18C79.4601 439.3 79.3001 440.18 79.1801 440.82C79.1301 441.1 79.0801 441.33 79.0501 441.51C79.0383 441.59 79.0148 441.667 78.9801 441.74C78.9757 441.66 78.9757 441.58 78.9801 441.5C78.9801 441.32 79.0101 441.09 79.0701 440.81C79.1601 440.16 79.2901 439.27 79.4501 438.15C79.5401 437.56 79.6401 436.92 79.7501 436.22C79.8601 435.52 80.0501 434.77 80.2101 433.95C80.5701 432.33 80.9001 430.46 81.4901 428.45C81.7601 427.45 82.0501 426.38 82.3501 425.28C82.6501 424.18 83.0601 423.06 83.4401 421.89C84.1601 419.53 85.1601 417.1 86.1601 414.52C90.7441 403.393 97.1071 393.085 105 384C106.86 381.95 108.59 380 110.38 378.28C111.26 377.42 112.08 376.55 112.92 375.79L115.38 373.6C116.91 372.17 118.38 371.04 119.72 370C120.38 369.48 120.97 369 121.55 368.57L123.14 367.44L125.35 365.9L125.93 365.51C126.1 365.43 126.17 365.39 126.18 365.4Z" fill="#263238"/>
<path d="M139.79 413.89C139.55 413.871 139.312 413.831 139.08 413.77C138.62 413.69 137.96 413.51 137.08 413.37C127.717 411.506 118.028 412.136 108.984 415.195C99.9406 418.254 91.8594 423.635 85.5499 430.8C83.887 432.669 82.3502 434.647 80.9499 436.72C80.4299 437.45 80.0899 438.04 79.8299 438.43C79.7116 438.638 79.5708 438.833 79.4099 439.01C79.504 438.792 79.6143 438.581 79.7399 438.38C79.9799 437.98 80.2999 437.38 80.7899 436.62C82.1354 434.509 83.6398 432.503 85.2899 430.62C90.7272 424.287 97.5735 419.318 105.279 416.11C112.985 412.902 121.335 411.546 129.66 412.15C132.17 412.318 134.664 412.676 137.12 413.22C137.99 413.4 138.65 413.6 139.12 413.72C139.348 413.754 139.573 413.811 139.79 413.89Z" fill="#263238"/>
<path d="M101.83 334C101.83 334 101.83 334.09 101.83 334.27C101.83 334.45 101.73 334.73 101.66 335.06C101.5 335.78 101.27 336.79 100.99 338.06C100.4 340.67 99.49 344.44 98.36 349.06C96.09 358.37 92.8 371.19 89.36 385.4C87.66 392.52 86.12 399.31 84.79 405.5C83.46 411.69 82.37 417.29 81.55 422.01C81.1 424.36 80.77 426.5 80.45 428.38C80.13 430.26 79.88 431.87 79.69 433.2C79.5 434.53 79.33 435.52 79.21 436.25C79.16 436.57 79.11 436.83 79.08 437.04C79.067 437.132 79.0435 437.223 79.01 437.31C79.0051 437.217 79.0051 437.123 79.01 437.03C79.01 436.83 79.01 436.56 79.09 436.23C79.19 435.5 79.32 434.47 79.48 433.17C79.64 431.87 79.87 430.17 80.16 428.34C80.45 426.51 80.77 424.34 81.16 421.95C81.94 417.22 83.02 411.61 84.3 405.41C85.58 399.21 87.14 392.41 88.84 385.29C92.27 371.08 95.62 358.29 97.96 348.98C99.13 344.36 100.08 340.61 100.74 337.98C101.07 336.71 101.32 335.71 101.51 334.98L101.72 334.21C101.749 334.136 101.786 334.066 101.83 334Z" fill="#263238"/>
<path d="M78.2201 436C78.194 435.932 78.1739 435.861 78.1601 435.79L78.0101 435.16C77.8901 434.56 77.7201 433.75 77.5101 432.72C77.0701 430.6 76.5101 427.53 75.8401 423.72C74.5201 416.08 73.0001 405.51 72.0001 393.75C71.5301 387.87 71.2701 382.26 71.1601 377.15C71.0501 372.04 71.1601 367.43 71.2801 363.57C71.2801 361.64 71.4501 359.9 71.5301 358.37C71.6101 356.84 71.7201 355.52 71.8201 354.44C71.9201 353.36 71.9901 352.57 72.0501 351.96C72.0501 351.7 72.0501 351.49 72.1201 351.32C72.1106 351.247 72.1106 351.173 72.1201 351.1C72.1306 351.173 72.1306 351.247 72.1201 351.32C72.1201 351.5 72.1201 351.71 72.1201 351.97C72.1201 352.58 72.0401 353.41 71.9801 354.45C71.9201 355.49 71.8301 356.85 71.7801 358.38C71.7301 359.91 71.6101 361.65 71.5901 363.58C71.4701 367.44 71.4601 372.04 71.5901 377.14C71.7201 382.24 72.0001 387.84 72.4701 393.71C73.4701 405.45 74.9301 416.01 76.1701 423.63C76.7801 427.44 77.3101 430.52 77.6801 432.63C77.8601 433.63 78.0001 434.48 78.1001 435.08C78.1001 435.33 78.1701 435.54 78.2001 435.72C78.2318 435.81 78.2387 435.906 78.2201 436Z" fill="#263238"/>
<path d="M79.0001 438.18C78.898 437.987 78.8111 437.786 78.7401 437.58C78.5601 437.13 78.3401 436.58 78.0601 435.82C77.9101 435.43 77.7501 435.01 77.5801 434.54C77.4101 434.07 77.1501 433.54 76.9201 433.07L76.1601 431.37C75.9001 430.76 75.5501 430.16 75.2301 429.5C74.9101 428.84 74.5401 428.17 74.2301 427.5C73.9201 426.83 73.4101 426.1 72.9801 425.35C72.1501 423.85 71.0801 422.35 70.0501 420.71C67.6613 417.268 65.0771 413.966 62.3101 410.82C59.5048 407.706 56.5408 404.739 53.4301 401.93C51.9501 400.68 50.6001 399.44 49.2301 398.39L47.2901 396.84L45.4401 395.48C44.2701 394.59 43.1801 393.85 42.2101 393.21C41.2401 392.57 40.4201 391.99 39.7201 391.57L38.1301 390.57C37.9332 390.469 37.7515 390.341 37.5901 390.19C37.7908 390.275 37.9848 390.375 38.1701 390.49L39.8201 391.42C40.5301 391.82 41.3901 392.35 42.3601 392.99C43.3301 393.63 44.4601 394.34 45.6401 395.21L47.5101 396.55L49.5101 398.09C50.8901 399.09 52.2601 400.36 53.7501 401.6C56.9135 404.4 59.9182 407.375 62.7501 410.51C65.5367 413.681 68.125 417.02 70.5001 420.51C71.5001 422.16 72.5901 423.68 73.4001 425.2L74.6401 427.38C74.9901 428.09 75.3401 428.78 75.6401 429.44C75.9401 430.1 76.3001 430.72 76.5501 431.33C76.8001 431.94 77.0501 432.51 77.2801 433.05L77.9001 434.55C78.0601 435.023 78.2101 435.453 78.3501 435.84L78.9401 437.64C78.9775 437.818 78.9976 437.998 79.0001 438.18Z" fill="#263238"/>
<path d="M122.36 385.69C122.36 385.76 121.12 385.76 119.12 385.87C113.903 386.149 108.747 387.128 103.79 388.78C101.89 389.41 100.73 389.87 100.7 389.78C100.94 389.606 101.202 389.464 101.48 389.36C101.98 389.12 102.74 388.8 103.68 388.44C106.145 387.518 108.684 386.809 111.27 386.32C113.852 385.823 116.471 385.552 119.1 385.51C120.1 385.51 120.93 385.51 121.49 385.56C121.785 385.558 122.078 385.602 122.36 385.69Z" fill="#263238"/>
<path d="M130.12 423.56C128.992 421.259 127.57 419.114 125.89 417.18C124.101 415.364 122.085 413.787 119.89 412.49C120.629 412.68 121.332 412.991 121.97 413.41C125.196 415.268 127.785 418.056 129.4 421.41C129.75 422.085 129.992 422.81 130.12 423.56Z" fill="#263238"/>
<path d="M103.68 348.21C103.77 348.32 101.88 350.21 99.8199 352.73C97.7599 355.25 96.2799 357.5 96.1599 357.42C97.0081 355.605 98.1127 353.921 99.4399 352.42C100.642 350.819 102.07 349.4 103.68 348.21Z" fill="#263238"/>
<path d="M97.47 337.49C98.2462 340.157 98.7126 342.905 98.86 345.68C98.3933 344.367 98.0779 343.004 97.92 341.62C97.6063 340.266 97.4553 338.879 97.47 337.49Z" fill="#263238"/>
<path d="M78.24 371.14C77.3874 373.317 76.385 375.432 75.24 377.47C74.2369 379.584 73.0875 381.626 71.8 383.58C72.6549 381.404 73.6573 379.289 74.8 377.25C75.8032 375.136 76.9526 373.094 78.24 371.14Z" fill="#263238"/>
<path d="M66.79 359.72C67.7787 361.165 68.6323 362.698 69.34 364.3C70.1915 365.829 70.9011 367.432 71.46 369.09C70.4714 367.645 69.6178 366.112 68.91 364.51C68.0606 362.98 67.3511 361.377 66.79 359.72Z" fill="#263238"/>
<path d="M50 398.79C50 398.93 47.93 398.53 45.38 398.36C42.83 398.19 40.76 398.28 40.75 398.14C42.2786 397.775 43.8603 397.687 45.42 397.88C46.9887 397.908 48.5397 398.216 50 398.79Z" fill="#263238"/>
<path d="M61.46 433.34L67.18 463.43C67.3636 464.394 67.8775 465.263 68.6331 465.889C69.3886 466.515 70.3387 466.859 71.32 466.86H88.23C89.229 466.859 90.1954 466.504 90.9571 465.858C91.7189 465.211 92.2266 464.315 92.39 463.33L97.39 433.33L61.46 433.34Z" fill="#263238"/>
<path d="M63.32 443.12H95.65L97.36 433.34H61.46L63.32 443.12Z" fill="#455A64"/>
<path d="M63.3201 443.12L64.0001 446.69H95.1501L95.6501 443.12H63.3201Z" fill="#FAFAFA"/>
<defs>
<linearGradient id="paint0_linear_2204_1148" x1="47.9199" y1="54.6113" x2="317.89" y2="54.6114" gradientUnits="userSpaceOnUse">
<stop stop-color="#6D53FF"/>
<stop offset="1" stop-color="#8A49F7"/>
</linearGradient>
<linearGradient id="paint1_linear_2204_1148" x1="197.03" y1="239.537" x2="336.99" y2="239.537" gradientUnits="userSpaceOnUse">
<stop stop-color="#6D53FF"/>
<stop offset="1" stop-color="#8A49F7"/>
</linearGradient>
<linearGradient id="paint2_linear_2204_1148" x1="251.5" y1="297.525" x2="280" y2="297.525" gradientUnits="userSpaceOnUse">
<stop stop-color="#6D53FF"/>
<stop offset="1" stop-color="#8A49F7"/>
</linearGradient>
<linearGradient id="paint3_linear_2204_1148" x1="205.16" y1="235.75" x2="234.94" y2="235.75" gradientUnits="userSpaceOnUse">
<stop stop-color="#6D53FF"/>
<stop offset="1" stop-color="#8A49F7"/>
</linearGradient>
<linearGradient id="paint4_linear_2204_1148" x1="216.45" y1="218.92" x2="223.13" y2="218.92" gradientUnits="userSpaceOnUse">
<stop stop-color="#6D53FF"/>
<stop offset="1" stop-color="#8A49F7"/>
</linearGradient>
<linearGradient id="paint5_linear_2204_1148" x1="217.29" y1="212.784" x2="222.29" y2="212.784" gradientUnits="userSpaceOnUse">
<stop stop-color="#6D53FF"/>
<stop offset="1" stop-color="#8A49F7"/>
</linearGradient>
<linearGradient id="paint6_linear_2204_1148" x1="237.52" y1="212.061" x2="240.16" y2="212.061" gradientUnits="userSpaceOnUse">
<stop stop-color="#6D53FF"/>
<stop offset="1" stop-color="#8A49F7"/>
</linearGradient>
<linearGradient id="paint7_linear_2204_1148" x1="237.17" y1="238.041" x2="239.84" y2="238.041" gradientUnits="userSpaceOnUse">
<stop stop-color="#6D53FF"/>
<stop offset="1" stop-color="#8A49F7"/>
</linearGradient>
<linearGradient id="paint8_linear_2204_1148" x1="237.17" y1="246.641" x2="239.84" y2="246.641" gradientUnits="userSpaceOnUse">
<stop stop-color="#6D53FF"/>
<stop offset="1" stop-color="#8A49F7"/>
</linearGradient>
<linearGradient id="paint9_linear_2204_1148" x1="237.17" y1="255.241" x2="239.84" y2="255.241" gradientUnits="userSpaceOnUse">
<stop stop-color="#6D53FF"/>
<stop offset="1" stop-color="#8A49F7"/>
</linearGradient>
<linearGradient id="paint10_linear_2204_1148" x1="237.17" y1="263.831" x2="239.84" y2="263.831" gradientUnits="userSpaceOnUse">
<stop stop-color="#6D53FF"/>
<stop offset="1" stop-color="#8A49F7"/>
</linearGradient>
<linearGradient id="paint11_linear_2204_1148" x1="237.52" y1="220.671" x2="240.16" y2="220.671" gradientUnits="userSpaceOnUse">
<stop stop-color="#6D53FF"/>
<stop offset="1" stop-color="#8A49F7"/>
</linearGradient>
<linearGradient id="paint12_linear_2204_1148" x1="237.52" y1="229.391" x2="240.16" y2="229.391" gradientUnits="userSpaceOnUse">
<stop stop-color="#6D53FF"/>
<stop offset="1" stop-color="#8A49F7"/>
</linearGradient>
<linearGradient id="paint13_linear_2204_1148" x1="333.992" y1="450.539" x2="370.4" y2="450.539" gradientUnits="userSpaceOnUse">
<stop stop-color="#6D53FF"/>
<stop offset="1" stop-color="#8A49F7"/>
</linearGradient>
<linearGradient id="paint14_linear_2204_1148" x1="291.99" y1="455.462" x2="328.34" y2="455.462" gradientUnits="userSpaceOnUse">
<stop stop-color="#6D53FF"/>
<stop offset="1" stop-color="#8A49F7"/>
</linearGradient>
<linearGradient id="paint15_linear_2204_1148" x1="357.942" y1="301.451" x2="414.69" y2="301.451" gradientUnits="userSpaceOnUse">
<stop stop-color="#6D53FF"/>
<stop offset="1" stop-color="#8A49F7"/>
</linearGradient>
<linearGradient id="paint16_linear_2204_1148" x1="303.52" y1="283.089" x2="361.7" y2="283.089" gradientUnits="userSpaceOnUse">
<stop stop-color="#6D53FF"/>
<stop offset="1" stop-color="#8A49F7"/>
</linearGradient>
<linearGradient id="paint17_linear_2204_1148" x1="362.975" y1="251.169" x2="387.35" y2="251.169" gradientUnits="userSpaceOnUse">
<stop stop-color="#6D53FF"/>
<stop offset="1" stop-color="#8A49F7"/>
</linearGradient>
<linearGradient id="paint18_linear_2204_1148" x1="372.46" y1="326.777" x2="434.22" y2="326.777" gradientUnits="userSpaceOnUse">
<stop stop-color="#6D53FF"/>
<stop offset="1" stop-color="#8A49F7"/>
</linearGradient>
<linearGradient id="paint19_linear_2204_1148" x1="374.87" y1="373.687" x2="418.795" y2="373.687" gradientUnits="userSpaceOnUse">
<stop stop-color="#6D53FF"/>
<stop offset="1" stop-color="#8A49F7"/>
</linearGradient>
<linearGradient id="paint20_linear_2204_1148" x1="93.05" y1="380.492" x2="134.777" y2="380.492" gradientUnits="userSpaceOnUse">
<stop stop-color="#6D53FF"/>
<stop offset="1" stop-color="#8A49F7"/>
</linearGradient>
<linearGradient id="paint21_linear_2204_1148" x1="100.87" y1="416.933" x2="147.348" y2="416.933" gradientUnits="userSpaceOnUse">
<stop stop-color="#6D53FF"/>
<stop offset="1" stop-color="#8A49F7"/>
</linearGradient>
<linearGradient id="paint22_linear_2204_1148" x1="89.9119" y1="347.919" x2="110.443" y2="347.919" gradientUnits="userSpaceOnUse">
<stop stop-color="#6D53FF"/>
<stop offset="1" stop-color="#8A49F7"/>
</linearGradient>
<linearGradient id="paint23_linear_2204_1148" x1="63.3579" y1="370.325" x2="82.5707" y2="370.325" gradientUnits="userSpaceOnUse">
<stop stop-color="#6D53FF"/>
<stop offset="1" stop-color="#8A49F7"/>
</linearGradient>
<linearGradient id="paint24_linear_2204_1148" x1="27.9663" y1="397.336" x2="62.45" y2="397.336" gradientUnits="userSpaceOnUse">
<stop stop-color="#6D53FF"/>
<stop offset="1" stop-color="#8A49F7"/>
</linearGradient>
</defs>
</svg>
