<svg width="461" height="319" viewBox="0 0 461 319" fill="none" xmlns="http://www.w3.org/2000/svg">
<path opacity="0.15" d="M460.922 315.007C460.922 317.212 357.741 319 230.461 319C158.645 319 94.5015 318.431 52.2354 317.538C42.4998 317.332 33.9273 317.11 26.6877 316.873C21.9196 316.718 17.7304 316.555 14.1684 316.387C5.00504 315.958 0 315.493 0 315.007C0 314.389 8.12271 313.802 22.6208 313.281C28.5585 313.066 35.5633 312.863 43.5185 312.673C85.3767 311.669 153.515 311.015 230.46 311.015C298.143 311.015 359.011 311.52 401.174 312.326C438.298 313.035 460.921 313.976 460.921 315.008L460.922 315.007Z" fill="#040C2B"/>
<path d="M304.591 21.7922L289.495 50.0839C288.922 51.1554 287.591 51.5611 286.519 50.989L261.502 37.6385C260.43 37.0664 260.024 35.7346 260.597 34.6631L278.472 1.1646C279.045 0.0930355 280.376 -0.312658 281.448 0.259504L301.127 10.7613L301.189 10.9586L304.59 21.7933L304.591 21.7922Z" fill="#E3E9F7"/>
<path opacity="0.1" d="M304.591 21.7923L299.023 18.8213C298.151 18.3561 297.82 17.2713 298.286 16.3992L301.189 10.9587L304.59 21.7934L304.591 21.7923Z" fill="black"/>
<path d="M280.133 27.3174L280.607 26.4289C281.017 25.6605 281.538 25.0795 282.169 24.687C282.801 24.2935 283.724 24.0102 284.938 23.8349C286.098 23.6827 286.913 23.4909 287.382 23.2572C287.85 23.0246 288.208 22.6751 288.456 22.211C288.734 21.6906 288.753 21.1923 288.515 20.715C288.276 20.2376 287.813 19.8154 287.124 19.4483C285.923 18.8078 284.345 18.4693 282.39 18.4341L282.485 15.1069C284.803 15.0584 286.963 15.5688 288.965 16.6371C290.614 17.5168 291.713 18.6126 292.262 19.9234C292.812 21.2353 292.734 22.5505 292.029 23.8712C291.56 24.7521 290.953 25.4058 290.212 25.8325C289.47 26.2591 288.325 26.5744 286.777 26.7762C285.706 26.9349 284.989 27.1069 284.627 27.2943C284.264 27.4817 283.955 27.8157 283.699 28.2953L283.315 29.0152L280.133 27.3174ZM277.558 31.219C277.916 30.5465 278.368 30.1342 278.912 29.982C279.455 29.8299 280.071 29.9379 280.759 30.305C281.424 30.66 281.844 31.1098 282.02 31.6566C282.197 32.2034 282.11 32.8042 281.759 33.4613C281.422 34.0941 280.972 34.4932 280.41 34.6618C279.848 34.8294 279.238 34.7379 278.582 34.3884C277.909 34.0301 277.484 33.5737 277.306 33.0214C277.128 32.4691 277.213 31.8683 277.558 31.2201V31.219Z" fill="url(#paint0_linear_809_13537)"/>
<path d="M98.9443 172.044L81.0981 199.428C80.4223 200.466 79.0333 200.759 77.9959 200.082L53.781 184.301C52.7436 183.625 52.4504 182.236 53.1273 181.198L74.2587 148.775C74.9344 147.737 76.3235 147.444 77.3609 148.121L96.4098 160.536L96.455 160.741L98.9454 172.044H98.9443Z" fill="#E3E9F7"/>
<path opacity="0.1" d="M98.9443 172.044L93.5545 168.531C92.7101 167.981 92.472 166.85 93.0221 166.006L96.4539 160.739L98.9443 172.042V172.044Z" fill="black"/>
<path d="M79.5625 184.829L76.3335 182.724L76.5198 175.66L70.1312 178.682L67.1028 176.709L76.0083 172.715L76.0755 163.559L79.1943 165.592L78.9407 172.262L84.8861 169.301L87.9321 171.286L79.4357 175.17L79.5603 184.829H79.5625Z" fill="url(#paint1_linear_809_13537)"/>
<path d="M409.16 85.3233L420.867 115.841C421.311 116.997 420.733 118.294 419.578 118.737L392.592 129.089C391.436 129.532 390.139 128.954 389.696 127.799L375.834 91.6645C375.391 90.5081 375.969 89.2116 377.124 88.7684L398.352 80.6248L398.545 80.7085L409.161 85.3233H409.16Z" fill="#E3E9F7"/>
<path opacity="0.1" d="M409.16 85.3233L403.154 87.6273C402.212 87.9878 401.157 87.5182 400.796 86.5767L398.544 80.7085L409.16 85.3233Z" fill="black"/>
<path d="M406.423 111.615L404.138 112.491L400.944 110.728L399.749 114.175L397.606 114.997L399.373 110.244L395.163 108.032L397.37 107.185L400.355 108.883L401.399 105.64L403.554 104.813L401.901 109.365L406.421 111.614L406.423 111.615Z" fill="url(#paint2_linear_809_13537)"/>
<path d="M405.439 91.1098L384.58 99.1124C384.331 99.2083 384.051 99.0837 383.955 98.8345C383.859 98.5854 383.983 98.3054 384.233 98.2095L405.092 90.2069C405.341 90.111 405.621 90.2356 405.717 90.4847C405.813 90.7339 405.688 91.0139 405.439 91.1098Z" fill="url(#paint3_linear_809_13537)"/>
<path d="M406.34 93.3644L385.481 101.367C385.231 101.463 384.951 101.338 384.856 101.089C384.76 100.84 384.884 100.56 385.133 100.464L405.992 92.4616C406.242 92.3656 406.522 92.4902 406.618 92.7394C406.713 92.9885 406.589 93.2685 406.34 93.3644Z" fill="url(#paint4_linear_809_13537)"/>
<path d="M407.24 95.6201L386.381 103.623C386.132 103.719 385.852 103.594 385.756 103.345C385.66 103.096 385.785 102.816 386.034 102.72L406.893 94.7172C407.142 94.6213 407.422 94.7458 407.518 94.995C407.614 95.2441 407.49 95.5242 407.24 95.6201Z" fill="url(#paint5_linear_809_13537)"/>
<path d="M408.141 97.8745L387.282 105.877C387.033 105.973 386.753 105.848 386.657 105.599C386.561 105.35 386.686 105.07 386.935 104.974L407.794 96.9716C408.043 96.8757 408.323 97.0002 408.419 97.2494C408.515 97.4985 408.39 97.7785 408.141 97.8745Z" fill="url(#paint6_linear_809_13537)"/>
<path d="M408.872 100.204L388.013 108.206C387.764 108.302 387.484 108.178 387.388 107.929C387.292 107.679 387.416 107.399 387.666 107.303L408.525 99.3009C408.774 99.205 409.054 99.3296 409.15 99.5787C409.246 99.8279 409.121 100.108 408.872 100.204Z" fill="url(#paint7_linear_809_13537)"/>
<path d="M103.759 252.137L116.926 282.053C117.424 283.187 116.91 284.51 115.777 285.009L89.3218 296.652C88.1885 297.15 86.8655 296.636 86.3661 295.503L70.7767 260.08C70.2784 258.946 70.7921 257.623 71.9254 257.124L92.736 247.965L92.9333 248.039L103.759 252.136V252.137Z" fill="#E3E9F7"/>
<path opacity="0.1" d="M103.759 252.137L97.8711 254.729C96.9484 255.134 95.8713 254.715 95.4656 253.794L92.9333 248.041L103.759 252.138V252.137Z" fill="black"/>
<path d="M102.295 278.53L100.055 279.515L96.7798 277.908L95.7523 281.409L93.6522 282.334L95.1878 277.501L90.8762 275.496L93.0403 274.543L96.1029 276.096L96.9892 272.806L99.1026 271.875L97.6716 276.502L102.295 278.531V278.53Z" fill="url(#paint8_linear_809_13537)"/>
<path d="M100.322 258.096L79.8727 267.096C79.6279 267.204 79.3424 267.092 79.2355 266.848C79.1274 266.603 79.2388 266.317 79.4835 266.21L99.9325 257.211C100.177 257.103 100.463 257.215 100.57 257.459C100.678 257.704 100.566 257.99 100.322 258.096Z" fill="url(#paint9_linear_809_13537)"/>
<path d="M101.33 260.304L80.8814 269.304C80.6367 269.412 80.3511 269.3 80.2442 269.056C80.1362 268.811 80.2475 268.525 80.4922 268.418L100.941 259.419C101.186 259.311 101.472 259.423 101.578 259.667C101.686 259.912 101.575 260.198 101.33 260.304Z" fill="url(#paint10_linear_809_13537)"/>
<path d="M102.339 262.514L81.8901 271.513C81.6454 271.621 81.3599 271.51 81.2529 271.265C81.1449 271.02 81.2562 270.735 81.501 270.628L101.95 261.628C102.195 261.52 102.48 261.632 102.587 261.876C102.695 262.121 102.584 262.407 102.339 262.514Z" fill="url(#paint11_linear_809_13537)"/>
<path d="M103.348 264.723L82.8989 273.722C82.6541 273.83 82.3686 273.719 82.2617 273.474C82.1536 273.23 82.265 272.944 82.5097 272.837L102.959 263.838C103.203 263.73 103.489 263.841 103.596 264.086C103.704 264.331 103.593 264.616 103.348 264.723Z" fill="url(#paint12_linear_809_13537)"/>
<path d="M104.189 267.014L83.74 276.013C83.4953 276.121 83.2098 276.01 83.1028 275.765C82.9948 275.52 83.1061 275.235 83.3509 275.128L103.8 266.129C104.045 266.021 104.33 266.132 104.437 266.377C104.545 266.621 104.434 266.907 104.189 267.014Z" fill="url(#paint13_linear_809_13537)"/>
<path d="M195.151 36.1704L208.317 66.0871C208.815 67.2204 208.302 68.5433 207.168 69.0427L180.713 80.6855C179.58 81.1838 178.257 80.67 177.758 79.5367L162.168 44.1134C161.67 42.9801 162.184 41.6572 163.317 41.1578L184.127 31.9988L184.325 32.0726L195.151 36.1693V36.1704Z" fill="#E3E9F7"/>
<path opacity="0.1" d="M195.151 36.1702L189.263 38.7621C188.34 39.1677 187.263 38.7488 186.857 37.8272L184.325 32.0747L195.151 36.1713V36.1702Z" fill="black"/>
<path d="M193.687 62.5637L191.447 63.5493L188.171 61.9419L187.144 65.4432L185.044 66.3682L186.579 61.5351L182.268 59.5298L184.432 58.5773L187.494 60.1295L188.381 56.8399L190.494 55.9094L189.063 60.5363L193.687 62.5648V62.5637Z" fill="url(#paint14_linear_809_13537)"/>
<path d="M191.713 42.1302L171.264 51.1293C171.019 51.2373 170.734 51.126 170.627 50.8813C170.519 50.6365 170.63 50.351 170.875 50.2441L191.324 41.2449C191.569 41.1369 191.854 41.2482 191.961 41.493C192.069 41.7377 191.958 42.0232 191.713 42.1302Z" fill="url(#paint15_linear_809_13537)"/>
<path d="M192.722 44.3382L172.273 53.3373C172.028 53.4453 171.743 53.334 171.636 53.0893C171.528 52.8445 171.639 52.559 171.884 52.4521L192.333 43.4529C192.577 43.3449 192.863 43.4562 192.97 43.701C193.078 43.9457 192.967 44.2312 192.722 44.3382Z" fill="url(#paint16_linear_809_13537)"/>
<path d="M193.731 46.5476L173.282 55.5468C173.037 55.6548 172.751 55.5435 172.644 55.2987C172.536 55.054 172.648 54.7685 172.892 54.6615L193.341 45.6624C193.586 45.5543 193.872 45.6657 193.979 45.9104C194.087 46.1552 193.975 46.4407 193.731 46.5476Z" fill="url(#paint17_linear_809_13537)"/>
<path d="M194.739 48.7569L174.29 57.756C174.046 57.8641 173.76 57.7527 173.653 57.508C173.545 57.2632 173.656 56.9777 173.901 56.8708L194.35 47.8716C194.595 47.7636 194.88 47.8749 194.987 48.1197C195.095 48.3644 194.984 48.6499 194.739 48.7569Z" fill="url(#paint18_linear_809_13537)"/>
<path d="M195.58 51.0476L175.131 60.0468C174.887 60.1548 174.601 60.0435 174.494 59.7987C174.386 59.554 174.498 59.2685 174.742 59.1615L195.191 50.1624C195.436 50.0543 195.722 50.1657 195.828 50.4104C195.936 50.6552 195.825 50.9407 195.58 51.0476Z" fill="url(#paint19_linear_809_13537)"/>
<path d="M332.718 119.666H128.205V268.069H332.718V119.666Z" fill="#E3E9F7"/>
<path d="M332.716 101.036H128.281V119.707H332.716V101.036Z" fill="url(#paint20_linear_809_13537)"/>
<path d="M137.737 112.488C139.472 112.488 140.879 111.151 140.879 109.501C140.879 107.851 139.472 106.513 137.737 106.513C136.001 106.513 134.595 107.851 134.595 109.501C134.595 111.151 136.001 112.488 137.737 112.488Z" fill="#E3E9F7"/>
<path d="M146.9 112.488C148.635 112.488 150.042 111.151 150.042 109.501C150.042 107.851 148.635 106.513 146.9 106.513C145.165 106.513 143.758 107.851 143.758 109.501C143.758 111.151 145.165 112.488 146.9 112.488Z" fill="#E3E9F7"/>
<path d="M156.064 112.488C157.799 112.488 159.205 111.151 159.205 109.501C159.205 107.851 157.799 106.513 156.064 106.513C154.328 106.513 152.922 107.851 152.922 109.501C152.922 111.151 154.328 112.488 156.064 112.488Z" fill="#E3E9F7"/>
<path d="M326.564 127.479H134.359V260.257H326.564V127.479Z" fill="url(#paint21_linear_809_13537)"/>
<path d="M260.278 160.127V218.506C260.278 220.717 258.485 222.51 256.274 222.51H204.651C202.44 222.51 200.647 220.717 200.647 218.506V149.382C200.647 147.171 202.44 145.378 204.651 145.378H245.261L245.528 145.642L260.278 160.128V160.127Z" fill="#FAFAFA"/>
<path opacity="0.15" d="M260.278 160.127H248.788C246.988 160.127 245.529 158.667 245.529 156.867V145.641L260.278 160.127Z" fill="black"/>
<path d="M244.78 193.807C244.327 193.807 243.93 193.515 243.786 193.086C243.408 191.97 242.172 190.869 240.268 189.983C237.666 188.771 234.183 188.103 230.461 188.103C226.739 188.103 223.255 188.77 220.654 189.983C218.75 190.869 217.514 191.97 217.136 193.086C216.99 193.515 216.593 193.807 216.141 193.807C215.427 193.807 214.92 193.108 215.145 192.43C215.705 190.745 217.299 189.236 219.77 188.085C222.642 186.747 226.439 186.01 230.46 186.01C234.48 186.01 238.277 186.747 241.15 188.085C243.621 189.236 245.215 190.745 245.775 192.43C246 193.108 245.493 193.807 244.778 193.807H244.78Z" fill="url(#paint22_linear_809_13537)"/>
<path d="M222.769 182.765C225.167 182.765 227.112 180.821 227.112 178.423C227.112 176.024 225.167 174.08 222.769 174.08C220.371 174.08 218.427 176.024 218.427 178.423C218.427 180.821 220.371 182.765 222.769 182.765Z" fill="url(#paint23_linear_809_13537)"/>
<path d="M238.154 182.765C240.552 182.765 242.496 180.821 242.496 178.423C242.496 176.024 240.552 174.08 238.154 174.08C235.755 174.08 233.811 176.024 233.811 178.423C233.811 180.821 235.755 182.765 238.154 182.765Z" fill="url(#paint24_linear_809_13537)"/>
<path d="M213.748 242.257H211.746L208.514 236.635H208.469C208.533 237.629 208.566 238.336 208.566 238.76V242.257H207.158V234.826H209.146L212.374 240.391H212.409C212.358 239.426 212.333 238.743 212.333 238.343V234.826H213.751V242.257H213.748Z" fill="#FAFAFA"/>
<path d="M222.363 238.531C222.363 239.762 222.057 240.707 221.448 241.368C220.838 242.029 219.964 242.359 218.825 242.359C217.686 242.359 216.812 242.028 216.202 241.368C215.593 240.708 215.287 239.758 215.287 238.522C215.287 237.285 215.593 236.341 216.205 235.688C216.816 235.036 217.693 234.71 218.835 234.71C219.977 234.71 220.85 235.039 221.455 235.696C222.061 236.353 222.363 237.299 222.363 238.533V238.531ZM216.94 238.531C216.94 239.362 217.098 239.987 217.413 240.407C217.728 240.827 218.199 241.037 218.826 241.037C220.083 241.037 220.711 240.202 220.711 238.531C220.711 236.861 220.086 236.021 218.836 236.021C218.209 236.021 217.737 236.232 217.418 236.654C217.1 237.076 216.941 237.701 216.941 238.531H216.94Z" fill="#FAFAFA"/>
<path d="M232.772 238.47C232.772 239.693 232.424 240.629 231.728 241.28C231.031 241.93 230.026 242.255 228.712 242.255H226.607V234.825H228.94C230.153 234.825 231.095 235.145 231.765 235.785C232.437 236.426 232.772 237.32 232.772 238.468V238.47ZM231.136 238.51C231.136 236.914 230.431 236.117 229.021 236.117H228.182V240.956H228.858C230.376 240.956 231.135 240.141 231.135 238.51H231.136Z" fill="#FAFAFA"/>
<path d="M238.861 242.256L238.322 240.488H235.613L235.074 242.256H233.376L235.999 234.795H237.925L240.557 242.256H238.86H238.861ZM237.946 239.166C237.447 237.563 237.167 236.657 237.104 236.448C237.042 236.237 236.996 236.072 236.97 235.949C236.859 236.383 236.538 237.455 236.01 239.166H237.946Z" fill="#FAFAFA"/>
<path d="M244.36 242.257H242.784V236.137H240.767V234.826H246.378V236.137H244.361V242.257H244.36Z" fill="#FAFAFA"/>
<path d="M252.07 242.256L251.531 240.488H248.822L248.283 242.256H246.585L249.208 234.795H251.134L253.767 242.256H252.069H252.07ZM251.155 239.166C250.657 237.563 250.377 236.657 250.314 236.448C250.251 236.237 250.206 236.072 250.179 235.949C250.068 236.383 249.747 237.455 249.219 239.166H251.156H251.155Z" fill="#FAFAFA"/>
<path d="M366.963 185.513H360.753C356.077 185.513 352.285 189.304 352.285 193.98C352.285 198.657 356.077 202.448 360.753 202.448H366.963C371.64 202.448 375.431 198.657 375.431 193.98C375.431 189.304 371.64 185.513 366.963 185.513Z" fill="url(#paint25_linear_809_13537)"/>
<path d="M361.173 201.083H366.545C366.545 201.083 366.064 205.408 361.173 207.556C361.173 207.556 363.745 203.768 361.173 201.083Z" fill="url(#paint26_linear_809_13537)"/>
<path d="M362.535 195.664V195.152C362.535 194.708 362.63 194.323 362.819 193.994C363.009 193.667 363.355 193.317 363.859 192.948C364.344 192.602 364.664 192.319 364.819 192.102C364.973 191.885 365.052 191.643 365.052 191.375C365.052 191.075 364.94 190.845 364.719 190.689C364.497 190.532 364.187 190.453 363.791 190.453C363.097 190.453 362.308 190.679 361.42 191.132L360.665 189.614C361.695 189.036 362.787 188.748 363.943 188.748C364.894 188.748 365.65 188.976 366.213 189.433C366.774 189.891 367.055 190.5 367.055 191.262C367.055 191.77 366.939 192.209 366.709 192.579C366.477 192.948 366.038 193.363 365.392 193.825C364.949 194.154 364.668 194.403 364.55 194.574C364.432 194.745 364.374 194.969 364.374 195.246V195.662H362.537L362.535 195.664ZM362.313 198.034C362.313 197.646 362.417 197.353 362.625 197.155C362.834 196.956 363.136 196.857 363.533 196.857C363.929 196.857 364.213 196.958 364.423 197.162C364.634 197.365 364.739 197.656 364.739 198.036C364.739 198.415 364.633 198.688 364.42 198.899C364.207 199.109 363.912 199.214 363.533 199.214C363.153 199.214 362.845 199.112 362.632 198.905C362.419 198.7 362.313 198.41 362.313 198.036V198.034Z" fill="#ACBCF8"/>
<path opacity="0.67" d="M343.947 308.69L346.851 309.82L346.004 313.917L341.042 312.363L343.947 308.69Z" fill="#050505"/>
<path d="M303.465 299.612C303.465 299.612 295.719 298.693 294.024 302.862C294.024 302.862 293.903 313.246 298.744 313.953C298.744 313.953 302.858 314.376 305.522 312.54L321.012 310.774L331.541 310.067L303.465 299.612Z" fill="#040C2B"/>
<path d="M349.998 304.592C349.998 304.592 354.063 311.131 351.657 313.729C351.285 314.132 351.804 314.62 352.588 314.618L368.938 314.587C368.938 314.587 378.257 316.283 380.071 309.148C380.071 309.148 381.16 301.588 369.301 300.317C357.441 299.046 369.179 299.894 369.179 299.894C369.179 299.894 355.382 300.883 349.997 304.591L349.998 304.592Z" fill="#040C2B"/>
<path d="M356.473 304.91L356.428 305.328L355.504 313.952L338.258 312.433L343.935 305.005L344.008 304.909C356.473 305.191 356.473 304.909 356.473 304.909V304.91Z" fill="#DE995F"/>
<path opacity="0.38" d="M356.473 304.91L356.427 305.328L347.335 305.58L343.934 305.005L344.006 304.909C356.472 305.191 356.472 304.909 356.472 304.909L356.473 304.91Z" fill="#050505"/>
<path d="M382.935 290.026L362.854 293.927L336.504 299.046L315.575 294.174L282.526 286.481C281.016 275.133 304.796 281.668 304.796 281.668L320.279 283.405H320.281L329.364 284.423L349.937 287.249L356.473 284.662L364.218 281.598C385.095 279.796 382.935 290.026 382.935 290.026Z" fill="#081956"/>
<path opacity="0.3" d="M362.853 293.927L336.503 299.047L315.575 294.176L309.88 290.781L320.279 283.405H320.281L329.364 284.423L349.938 287.249L356.473 284.663L362.853 293.927Z" fill="black"/>
<path d="M307.096 302.932L335.536 295.515C335.536 295.515 355.869 287.956 359.378 288.38C359.378 288.38 384.551 275.452 382.856 291.276C382.856 291.276 385.761 303.709 340.861 305.617L307.096 302.932Z" fill="#081956"/>
<path opacity="0.13" d="M326.641 297.81L329.787 296.892C332.169 298.479 336.643 299.8 339.59 301.131C342.924 302.637 346.972 304.027 350.845 304.945L343.22 305.863L326.641 297.81Z" fill="black"/>
<path d="M348.666 305.158C348.666 305.158 340.376 311.763 345.943 313.953C345.943 313.953 313.771 310.342 288.036 295.965C286.086 294.876 284.702 293.485 284.052 291.956C281.695 286.412 278.438 273.803 303.827 284.566C303.827 284.566 323.55 291.266 330.049 297.031C331.293 298.134 332.77 299.142 334.485 300.005C338.553 302.055 345.45 305.254 348.665 305.158H348.666Z" fill="#081956"/>
<path d="M329 231.837L344.006 231.864L348.847 240.976C348.847 240.976 339.407 255.246 325.853 242.531C326.456 240.482 328.457 237.479 329.06 235.431C330.028 233.312 329.906 233.453 328.999 231.837H329Z" fill="#CC8B5B"/>
<path d="M367.936 246.745L364.581 273.615L312.905 273.121C312.905 273.121 316.452 259.438 315.745 257.216C315.702 257.081 315.643 256.988 315.567 256.943L301.286 256.449C301.286 256.449 301.395 254.489 301.862 251.903C302.651 247.538 304.46 241.391 308.487 239.883C309.151 239.635 311.089 238.859 311.089 238.859C311.089 238.859 328.698 234.232 329.061 235.432C329.061 235.432 328.093 249.49 347.215 237.834C347.215 237.834 369.355 243.329 367.936 246.745Z" fill="url(#paint27_linear_809_13537)"/>
<path d="M357.441 274.957L358.499 283.86L370.43 280.24C373.134 279.419 374.987 277.871 375.32 276.102C375.616 274.528 375.428 272.287 374.02 269.164L371.358 257.366C371.358 257.366 372.629 249.207 366.456 244.616C366.456 244.616 364.217 258.144 360.223 260.405L359.377 271.708L357.441 274.958V274.957Z" fill="url(#paint28_linear_809_13537)"/>
<path opacity="0.1" d="M323.982 242.038L315.745 257.216C315.702 257.081 315.643 256.988 315.567 256.943L301.286 256.449C301.286 256.449 301.395 254.489 301.862 251.903L316.357 238.364C316.357 238.364 322.53 241.967 323.982 242.038Z" fill="black"/>
<path d="M326.664 233.011C326.311 235.373 325.892 236.098 324.643 239.848L322.707 243.521L317.261 239.848L318.713 238.364L317.987 231.652L319.825 227.156C320.478 225.559 322.099 224.539 323.815 224.725C325.739 224.932 327.619 226.622 326.663 233.011H326.664Z" fill="#DE995F"/>
<path opacity="0.13" d="M312.057 255.813L315.837 258.264L314.66 265.809L324.643 243.38L321.074 242.418L312.057 255.813Z" fill="black"/>
<path d="M317.019 238.364C317.019 238.364 323.191 241.966 324.643 242.037L313.025 263.442C313.025 263.442 305.557 272.692 297.889 265.735C293.167 261.45 294.688 255.738 301.596 252.623C301.693 252.578 301.792 252.535 301.891 252.491L317.019 238.363V238.364Z" fill="url(#paint29_linear_809_13537)"/>
<path opacity="0.13" d="M328.939 235.221C328.939 235.221 336.122 245.588 345.541 234.752L342.615 230.487L330.695 231.841L328.939 235.22V235.221Z" fill="black"/>
<path d="M325.854 217.171C325.854 217.171 339.651 209.611 345.217 216.252C345.217 216.252 356.714 227.908 338.803 238.364C338.803 238.364 327.184 243.521 325.854 217.171Z" fill="#DE995F"/>
<path d="M327.35 228.188L323.754 222.171C322.928 220.791 322.555 219.331 322.661 217.871C322.995 213.296 325.788 204.51 342.917 208.34C342.917 208.34 357.923 214.91 349.574 223.317L346.79 229.392C346.79 229.392 347.153 218.443 342.917 217.877C342.917 217.877 333.236 219.996 326.942 219.855C326.942 219.855 326.76 227.378 327.349 228.187L327.35 228.188Z" fill="black"/>
<path d="M330.695 226.92C332.499 226.92 333.962 226.066 333.962 225.012C333.962 223.959 332.499 223.105 330.695 223.105C328.89 223.105 327.427 223.959 327.427 225.012C327.427 226.066 328.89 226.92 330.695 226.92Z" stroke="black" stroke-width="2.06" stroke-miterlimit="10"/>
<path d="M340.619 226.637C342.423 226.637 343.886 225.783 343.886 224.73C343.886 223.677 342.423 222.823 340.619 222.823C338.814 222.823 337.351 223.677 337.351 224.73C337.351 225.783 338.814 226.637 340.619 226.637Z" stroke="black" stroke-width="2.06" stroke-miterlimit="10"/>
<path d="M333.927 224.73C333.927 224.73 335.415 225.719 337.351 224.73" stroke="black" stroke-width="2.06" stroke-miterlimit="10"/>
<path d="M327.427 225.012L325.793 223.917" stroke="black" stroke-width="2.06" stroke-miterlimit="10"/>
<path d="M343.886 224.73L348.001 224.235" stroke="black" stroke-width="2.06" stroke-miterlimit="10"/>
<path opacity="0.13" d="M358.469 274.639C358.469 274.639 362.1 271.814 366.456 271.53C366.456 271.53 365.488 270.894 362.826 271.53C362.826 271.53 365.247 270.046 368.029 270.612C368.029 270.612 362.221 268.423 358.469 274.639Z" fill="black"/>
<path d="M310.455 265.899L358.952 265.295C359.652 265.286 360.224 265.852 360.224 266.552V286.722C360.224 287.411 359.67 287.971 358.982 287.979L311.453 288.508C310.777 288.516 310.216 287.986 310.184 287.312L309.216 267.215C309.182 266.504 309.744 265.907 310.455 265.898V265.899Z" fill="#829CF8"/>
<path opacity="0.13" d="M311.392 287.355C311.392 287.355 303.286 282.297 288.519 280.785C288.519 280.785 295.901 280.29 312.119 285.872L311.392 287.356V287.355Z" fill="black"/>
<path opacity="0.13" d="M360.285 287.991C360.285 287.991 374.936 280.492 380.771 284.506C380.771 284.506 377.712 280.079 358.469 287.567L360.285 287.99V287.991Z" fill="black"/>
<path opacity="0.13" d="M360.164 260.37C360.164 260.37 368.272 254.294 368.031 251.186C368.031 251.186 365.852 253.941 365.247 254.436C365.247 254.436 368.272 250.692 367.063 249.208C367.063 249.208 365.374 253.911 364.1 253.997L360.165 260.371L360.164 260.37Z" fill="black"/>
<path opacity="0.13" d="M360.103 260.334C360.103 260.334 366.154 248.466 364.944 247.83C364.944 247.83 364.701 250.162 360.103 260.334Z" fill="black"/>
<defs>
<linearGradient id="paint0_linear_809_13537" x1="277.216" y1="24.8601" x2="292.623" y2="24.8601" gradientUnits="userSpaceOnUse">
<stop stop-color="#6D53FF"/>
<stop offset="1" stop-color="#8A49F7"/>
</linearGradient>
<linearGradient id="paint1_linear_809_13537" x1="67.1028" y1="174.125" x2="87.9322" y2="174.125" gradientUnits="userSpaceOnUse">
<stop stop-color="#6D53FF"/>
<stop offset="1" stop-color="#8A49F7"/>
</linearGradient>
<linearGradient id="paint2_linear_809_13537" x1="395.163" y1="109.872" x2="406.423" y2="109.872" gradientUnits="userSpaceOnUse">
<stop stop-color="#6D53FF"/>
<stop offset="1" stop-color="#8A49F7"/>
</linearGradient>
<linearGradient id="paint3_linear_809_13537" x1="383.922" y1="94.6307" x2="405.749" y2="94.6307" gradientUnits="userSpaceOnUse">
<stop stop-color="#6D53FF"/>
<stop offset="1" stop-color="#8A49F7"/>
</linearGradient>
<linearGradient id="paint4_linear_809_13537" x1="384.823" y1="96.8853" x2="406.65" y2="96.8853" gradientUnits="userSpaceOnUse">
<stop stop-color="#6D53FF"/>
<stop offset="1" stop-color="#8A49F7"/>
</linearGradient>
<linearGradient id="paint5_linear_809_13537" x1="385.724" y1="99.141" x2="407.551" y2="99.141" gradientUnits="userSpaceOnUse">
<stop stop-color="#6D53FF"/>
<stop offset="1" stop-color="#8A49F7"/>
</linearGradient>
<linearGradient id="paint6_linear_809_13537" x1="386.625" y1="101.395" x2="408.451" y2="101.395" gradientUnits="userSpaceOnUse">
<stop stop-color="#6D53FF"/>
<stop offset="1" stop-color="#8A49F7"/>
</linearGradient>
<linearGradient id="paint7_linear_809_13537" x1="387.355" y1="103.725" x2="409.182" y2="103.725" gradientUnits="userSpaceOnUse">
<stop stop-color="#6D53FF"/>
<stop offset="1" stop-color="#8A49F7"/>
</linearGradient>
<linearGradient id="paint8_linear_809_13537" x1="90.8762" y1="277.071" x2="102.295" y2="277.071" gradientUnits="userSpaceOnUse">
<stop stop-color="#6D53FF"/>
<stop offset="1" stop-color="#8A49F7"/>
</linearGradient>
<linearGradient id="paint9_linear_809_13537" x1="79.1942" y1="262.121" x2="100.611" y2="262.121" gradientUnits="userSpaceOnUse">
<stop stop-color="#6D53FF"/>
<stop offset="1" stop-color="#8A49F7"/>
</linearGradient>
<linearGradient id="paint10_linear_809_13537" x1="80.2029" y1="264.329" x2="101.62" y2="264.329" gradientUnits="userSpaceOnUse">
<stop stop-color="#6D53FF"/>
<stop offset="1" stop-color="#8A49F7"/>
</linearGradient>
<linearGradient id="paint11_linear_809_13537" x1="81.2116" y1="266.538" x2="102.628" y2="266.538" gradientUnits="userSpaceOnUse">
<stop stop-color="#6D53FF"/>
<stop offset="1" stop-color="#8A49F7"/>
</linearGradient>
<linearGradient id="paint12_linear_809_13537" x1="82.2204" y1="268.748" x2="103.637" y2="268.748" gradientUnits="userSpaceOnUse">
<stop stop-color="#6D53FF"/>
<stop offset="1" stop-color="#8A49F7"/>
</linearGradient>
<linearGradient id="paint13_linear_809_13537" x1="83.0615" y1="271.039" x2="104.478" y2="271.039" gradientUnits="userSpaceOnUse">
<stop stop-color="#6D53FF"/>
<stop offset="1" stop-color="#8A49F7"/>
</linearGradient>
<linearGradient id="paint14_linear_809_13537" x1="182.268" y1="61.1051" x2="193.687" y2="61.1051" gradientUnits="userSpaceOnUse">
<stop stop-color="#6D53FF"/>
<stop offset="1" stop-color="#8A49F7"/>
</linearGradient>
<linearGradient id="paint15_linear_809_13537" x1="170.586" y1="46.155" x2="192.002" y2="46.155" gradientUnits="userSpaceOnUse">
<stop stop-color="#6D53FF"/>
<stop offset="1" stop-color="#8A49F7"/>
</linearGradient>
<linearGradient id="paint16_linear_809_13537" x1="171.594" y1="48.363" x2="193.011" y2="48.363" gradientUnits="userSpaceOnUse">
<stop stop-color="#6D53FF"/>
<stop offset="1" stop-color="#8A49F7"/>
</linearGradient>
<linearGradient id="paint17_linear_809_13537" x1="172.603" y1="50.5724" x2="194.02" y2="50.5724" gradientUnits="userSpaceOnUse">
<stop stop-color="#6D53FF"/>
<stop offset="1" stop-color="#8A49F7"/>
</linearGradient>
<linearGradient id="paint18_linear_809_13537" x1="173.612" y1="52.7817" x2="195.029" y2="52.7817" gradientUnits="userSpaceOnUse">
<stop stop-color="#6D53FF"/>
<stop offset="1" stop-color="#8A49F7"/>
</linearGradient>
<linearGradient id="paint19_linear_809_13537" x1="174.453" y1="55.0724" x2="195.87" y2="55.0724" gradientUnits="userSpaceOnUse">
<stop stop-color="#6D53FF"/>
<stop offset="1" stop-color="#8A49F7"/>
</linearGradient>
<linearGradient id="paint20_linear_809_13537" x1="128.281" y1="110.311" x2="332.716" y2="110.311" gradientUnits="userSpaceOnUse">
<stop stop-color="#6D53FF"/>
<stop offset="1" stop-color="#8A49F7"/>
</linearGradient>
<linearGradient id="paint21_linear_809_13537" x1="326.564" y1="193.868" x2="134.359" y2="193.868" gradientUnits="userSpaceOnUse">
<stop stop-color="#C757FF"/>
<stop offset="1" stop-color="#6D53FF"/>
</linearGradient>
<linearGradient id="paint22_linear_809_13537" x1="245.829" y1="189.909" x2="215.091" y2="189.909" gradientUnits="userSpaceOnUse">
<stop stop-color="#C757FF"/>
<stop offset="1" stop-color="#6D53FF"/>
</linearGradient>
<linearGradient id="paint23_linear_809_13537" x1="227.112" y1="178.423" x2="218.427" y2="178.423" gradientUnits="userSpaceOnUse">
<stop stop-color="#C757FF"/>
<stop offset="1" stop-color="#6D53FF"/>
</linearGradient>
<linearGradient id="paint24_linear_809_13537" x1="242.496" y1="178.423" x2="233.811" y2="178.423" gradientUnits="userSpaceOnUse">
<stop stop-color="#C757FF"/>
<stop offset="1" stop-color="#6D53FF"/>
</linearGradient>
<linearGradient id="paint25_linear_809_13537" x1="352.285" y1="193.926" x2="375.431" y2="193.926" gradientUnits="userSpaceOnUse">
<stop stop-color="#6D53FF"/>
<stop offset="1" stop-color="#8A49F7"/>
</linearGradient>
<linearGradient id="paint26_linear_809_13537" x1="361.173" y1="204.299" x2="366.545" y2="204.299" gradientUnits="userSpaceOnUse">
<stop stop-color="#6D53FF"/>
<stop offset="1" stop-color="#8A49F7"/>
</linearGradient>
<linearGradient id="paint27_linear_809_13537" x1="301.286" y1="254.3" x2="368.001" y2="254.3" gradientUnits="userSpaceOnUse">
<stop stop-color="#6D53FF"/>
<stop offset="1" stop-color="#8A49F7"/>
</linearGradient>
<linearGradient id="paint28_linear_809_13537" x1="357.441" y1="264.111" x2="375.44" y2="264.111" gradientUnits="userSpaceOnUse">
<stop stop-color="#6D53FF"/>
<stop offset="1" stop-color="#8A49F7"/>
</linearGradient>
<linearGradient id="paint29_linear_809_13537" x1="295.162" y1="253.248" x2="324.643" y2="253.248" gradientUnits="userSpaceOnUse">
<stop stop-color="#6D53FF"/>
<stop offset="1" stop-color="#8A49F7"/>
</linearGradient>
</defs>
</svg>
