<svg width="79" height="83" viewBox="0 0 79 83" fill="none" xmlns="https://www.w3.org/2000/svg">
<path d="M8.32315 26.0242L26.0397 8.29935H60.3081V5.52639C60.3081 2.47354 57.8357 0 54.7843 0H5.55799C2.50656 0 0.0341797 2.47354 0.0341797 5.52639V69.1677C0.0341797 72.2206 2.50656 74.6942 5.55799 74.6942H8.32965V26.0176L8.32315 26.0242Z" fill="#B7B7B7"/>
<path d="M63.0798 8.29919H26.0462L8.32971 26.024V77.4669C8.32971 80.5198 10.8021 82.9933 13.8535 82.9933H63.0798C66.1312 82.9933 68.6036 80.5198 68.6036 77.4669V13.8256C68.6036 10.7727 66.1312 8.29919 63.0798 8.29919Z" fill="url(#paint0_linear_829_8681)"/>
<path opacity="0.35" d="M63.0797 8.61816H33.177C33.177 11.5734 35.5713 13.9753 38.5316 13.9753H63.0862C63.1838 13.9753 63.2619 14.0534 63.2619 14.1511V27.8857C63.2619 30.8409 65.6562 33.2428 68.6166 33.2428V14.1576C68.6166 11.1047 66.1442 8.63119 63.0927 8.63119L63.0797 8.61816Z" fill="white"/>
<path d="M20.5159 26.024C23.5674 26.024 26.0398 23.5505 26.0398 20.4976V8.29919L8.32324 26.024H20.5159Z" fill="#EEEFF3"/>
<path d="M67.0876 82.9934C73.631 82.9934 78.9355 77.6864 78.9355 71.1399C78.9355 64.5935 73.631 59.2865 67.0876 59.2865C60.5442 59.2865 55.2397 64.5935 55.2397 71.1399C55.2397 77.6864 60.5442 82.9934 67.0876 82.9934Z" fill="#FEC200"/>
<path opacity="0.1" d="M69.7617 78.9773C63.2164 78.9773 57.9138 73.6722 57.9138 67.1238C57.9138 65.5551 58.2261 64.0645 58.7791 62.6975C56.593 64.8456 55.2397 67.8333 55.2397 71.1466C55.2397 77.6949 60.5424 83 67.0876 83C72.0649 83 76.32 79.9276 78.0767 75.5729C75.9361 77.6819 73.0083 78.9838 69.7682 78.9838L69.7617 78.9773Z" fill="black"/>
<path d="M26.2999 32.0127H15.1873V43.1306H26.2999V32.0127Z" fill="#009AFF"/>
<path opacity="0.1" d="M22.2726 40.4552C19.8392 40.4552 17.8678 38.4829 17.8678 36.0484V32.0192H15.1873V43.137H26.2999V40.4552H22.2726Z" fill="black"/>
<path d="M26.2999 49.1191H15.1873V60.237H26.2999V49.1191Z" fill="#FF4823"/>
<path d="M26.2999 66.2255H15.1873V77.3434H26.2999V66.2255Z" fill="#009AFF"/>
<path d="M61.7394 35.8857H33.8341C33.0923 35.8857 32.4938 35.2869 32.4938 34.5448C32.4938 33.8027 33.0923 33.2039 33.8341 33.2039H61.7394C62.4811 33.2039 63.0797 33.8027 63.0797 34.5448C63.0797 35.2869 62.4811 35.8857 61.7394 35.8857Z" fill="#FAFAFA"/>
<path d="M52.6046 41.9393H33.8341C33.0923 41.9393 32.4938 41.3404 32.4938 40.5984C32.4938 39.8563 33.0923 39.2574 33.8341 39.2574H52.6046C53.3463 39.2574 53.9449 39.8563 53.9449 40.5984C53.9449 41.3404 53.3463 41.9393 52.6046 41.9393Z" fill="#FAFAFA"/>
<path d="M61.7394 52.9921H33.8341C33.0923 52.9921 32.4938 52.3933 32.4938 51.6512C32.4938 50.9091 33.0923 50.3103 33.8341 50.3103H61.7394C62.4811 50.3103 63.0797 50.9091 63.0797 51.6512C63.0797 52.3933 62.4811 52.9921 61.7394 52.9921Z" fill="#FAFAFA"/>
<path d="M52.6046 59.0456H33.8341C33.0923 59.0456 32.4938 58.4468 32.4938 57.7047C32.4938 56.9627 33.0923 56.3638 33.8341 56.3638H52.6046C53.3463 56.3638 53.9449 56.9627 53.9449 57.7047C53.9449 58.4468 53.3463 59.0456 52.6046 59.0456Z" fill="#FAFAFA"/>
<path d="M50.7373 70.0985H33.8341C33.0923 70.0985 32.4938 69.4997 32.4938 68.7576C32.4938 68.0156 33.0923 67.4167 33.8341 67.4167H50.7373C51.479 67.4167 52.0776 68.0156 52.0776 68.7576C52.0776 69.4997 51.479 70.0985 50.7373 70.0985Z" fill="#FAFAFA"/>
<path d="M43.2161 76.152H33.8341C33.0923 76.152 32.4938 75.5531 32.4938 74.8111C32.4938 74.069 33.0923 73.4702 33.8341 73.4702H43.2161C43.9578 73.4702 44.5564 74.069 44.5564 74.8111C44.5564 75.5531 43.9578 76.152 43.2161 76.152Z" fill="#FAFAFA"/>
<path opacity="0.1" d="M26.0396 5.62404C25.3305 5.62404 24.6473 5.90395 24.1463 6.40516L6.4298 24.13C5.92881 24.6312 5.64905 25.3147 5.64905 26.0242V74.7007H8.32312V26.0242L26.0396 8.29936H60.3081V5.62404H26.0396Z" fill="black"/>
<path opacity="0.1" d="M22.2726 57.5616C19.8392 57.5616 17.8678 55.5893 17.8678 53.1548V49.1256H15.1873V60.2434H26.2999V57.5616H22.2726Z" fill="black"/>
<path opacity="0.1" d="M22.2726 74.668C19.8392 74.668 17.8678 72.6957 17.8678 70.2612V66.232H15.1873V77.3498H26.2999V74.668H22.2726Z" fill="black"/>
<path opacity="0.35" d="M78.7271 68.9398C77.8488 64.188 74.0296 60.3671 69.2801 59.4883C68.5449 59.3516 67.8227 59.2865 67.12 59.2865C63.6847 59.2735 63.5741 64.5916 67.0094 64.6437C67.0354 64.6437 67.0614 64.6437 67.0875 64.6437C70.6724 64.6437 73.5872 67.5599 73.5872 71.1465C73.5872 71.3613 73.6002 71.5696 73.6262 71.7779C74.0036 75 78.8833 74.6029 78.9419 71.3613C78.9549 70.5737 78.8898 69.7665 78.7402 68.9463L78.7271 68.9398Z" fill="white"/>
<path d="M64.6153 76.4842C64.2575 76.4842 63.9191 76.341 63.6719 76.0937L60.6205 73.0408C60.1 72.52 60.1 71.6673 60.6205 71.1466C61.141 70.6258 61.9868 70.6258 62.5138 71.1466L64.6218 73.2556L71.6746 66.1995C72.1951 65.6788 73.0409 65.6788 73.5679 66.1995C74.0884 66.7203 74.0884 67.5665 73.5679 68.0937L65.5717 76.0937C65.318 76.3475 64.9797 76.4842 64.6283 76.4842H64.6153Z" fill="white"/>
<defs>
<linearGradient id="paint0_linear_829_8681" x1="8.32971" y1="45.4053" x2="68.6036" y2="45.4053" gradientUnits="userSpaceOnUse">
<stop stop-color="#6D53FF"/>
<stop offset="1" stop-color="#8A49F7"/>
</linearGradient>
</defs>
</svg>
