<svg width="25" height="24" viewBox="0 0 25 24" fill="none" xmlns="http://www.w3.org/2000/svg">
<path opacity="0.5" d="M14.8382 4.84395L17.6902 7.69595M7.53418 7H4.53418C3.98189 7 3.53418 7.44772 3.53418 8V18C3.53418 18.5523 3.98189 19 4.53418 19H15.5342C16.0865 19 16.5342 18.5523 16.5342 18V13.5M18.9432 3.59095C19.1305 3.77817 19.2791 4.00047 19.3805 4.24515C19.4819 4.48983 19.5341 4.75209 19.5341 5.01695C19.5341 5.2818 19.4819 5.54406 19.3805 5.78874C19.2791 6.03342 19.1305 6.25573 18.9432 6.44295L12.0992 13.287L8.53418 14L9.24718 10.435L16.0912 3.59095C16.2784 3.4036 16.5007 3.25498 16.7454 3.15359C16.9901 3.05219 17.2523 3 17.5172 3C17.782 3 18.0443 3.05219 18.289 3.15359C18.5337 3.25498 18.756 3.4036 18.9432 3.59095Z" stroke="#B7B7B7" stroke-width="2" stroke-linecap="round" stroke-linejoin="round"/>
</svg>
