<svg width="90" height="82" viewBox="0 0 90 82" fill="none" xmlns="http://www.w3.org/2000/svg">
<path d="M44.5133 66.6314C43.7177 66.6314 43.0756 65.9893 43.0756 65.1936V42.2946C43.0756 41.4989 43.7177 40.8568 44.5133 40.8568C45.3089 40.8568 45.951 41.4989 45.951 42.2946V65.1936C45.951 65.9893 45.3089 66.6314 44.5133 66.6314Z" fill="#009AFF"/>
<path d="M10.901 41.2337C10.1054 41.2337 9.46326 40.5916 9.46326 39.7959V22.5082C9.46326 21.7126 10.1054 21.0705 10.901 21.0705H21.5514C22.347 21.0705 22.9891 21.7126 22.9891 22.5082C22.9891 23.3039 22.347 23.946 21.5514 23.946H12.3317V39.7959C12.3317 40.5916 11.6897 41.2337 10.894 41.2337H10.901Z" fill="#009AFF"/>
<path d="M78.1674 41.2337C77.3717 41.2337 76.7296 40.5916 76.7296 39.7959V23.946H67.517C66.7213 23.946 66.0792 23.3039 66.0792 22.5082C66.0792 21.7126 66.7213 21.0705 67.517 21.0705H78.1674C78.963 21.0705 79.6051 21.7126 79.6051 22.5082V39.7959C79.6051 40.5916 78.963 41.2337 78.1674 41.2337Z" fill="#009AFF"/>
<path d="M18.1315 39.796H3.16786C1.43699 39.796 0.0411377 41.1988 0.0411377 42.9227V69.5488C0.0411377 71.2796 1.44397 72.6755 3.16786 72.6755H24.8944C26.6253 72.6755 28.0211 71.2727 28.0211 69.5488V49.6857L18.1315 39.796Z" fill="#D9D9DE"/>
<path opacity="0.35" d="M3.16789 39.796H16.7147C16.7147 42.9646 14.1463 45.5399 10.9707 45.5399H5.79909V57.998C5.79909 61.1666 3.2307 63.7419 0.0551167 63.7419C0.0481374 63.7419 0.041159 63.7419 0.0341797 63.7419V42.9297C0.0341797 41.1988 1.43703 39.8029 3.16091 39.8029L3.16789 39.796Z" fill="white"/>
<path opacity="0.1" d="M0.292724 69.8069H2.14921C14.8446 69.8069 25.139 59.5124 25.139 46.8101L18.1248 39.7959L28.0145 49.6856V69.5486C28.0145 71.2795 26.6116 72.6754 24.8878 72.6754H3.16122C1.5141 72.6754 0.174068 71.3982 0.0554199 69.779C0.132192 69.779 0.208966 69.7999 0.285738 69.7999L0.292724 69.8069Z" fill="black"/>
<path d="M18.1315 46.559C18.1315 48.2898 19.5343 49.6857 21.2582 49.6857H28.0142L18.1245 39.796V46.552L18.1315 46.559Z" fill="#C3B8C3"/>
<path d="M6.29467 57.998H21.7608C22.5564 57.998 23.1985 57.3559 23.1985 56.5603C23.1985 55.7646 22.5564 55.1225 21.7608 55.1225H6.29467C5.49903 55.1225 4.85693 55.7646 4.85693 56.5603C4.85693 57.3559 5.49903 57.998 6.29467 57.998Z" fill="#5D5B68"/>
<path d="M6.29467 63.3093H21.7608C22.5564 63.3093 23.1985 62.6672 23.1985 61.8716C23.1985 61.076 22.5564 60.4339 21.7608 60.4339H6.29467C5.49903 60.4339 4.85693 61.076 4.85693 61.8716C4.85693 62.6672 5.49903 63.3093 6.29467 63.3093Z" fill="#5D5B68"/>
<path d="M6.29467 68.6205H21.7608C22.5564 68.6205 23.1985 67.9784 23.1985 67.1827C23.1985 66.3871 22.5564 65.745 21.7608 65.745H6.29467C5.49903 65.745 4.85693 66.3871 4.85693 67.1827C4.85693 67.9784 5.49903 68.6205 6.29467 68.6205Z" fill="#5D5B68"/>
<path d="M13.6507 47.571C13.6507 49.602 12.0036 51.2491 9.97265 51.2491C7.94167 51.2491 6.29456 49.602 6.29456 47.571C6.29456 45.5401 7.94167 43.8929 9.97265 43.8929C12.0036 43.8929 13.6507 45.5401 13.6507 47.571Z" fill="url(#paint0_linear_829_8740)"/>
<path opacity="0.1" d="M8.13716 49.4135C10.1681 49.4135 11.8153 47.7665 11.8153 45.7355C11.8153 45.1981 11.6896 44.6886 11.4872 44.2279C12.7644 44.8072 13.6578 46.0845 13.6578 47.578C13.6578 49.609 12.0107 51.2561 9.97969 51.2561C8.48612 51.2561 7.20892 50.3628 6.62964 49.0855C7.09027 49.2949 7.59975 49.4135 8.13716 49.4135Z" fill="black"/>
<path d="M36.0962 62.2623H52.9303C54.6542 62.2623 56.057 63.6651 56.057 65.389V78.524C56.057 80.2479 54.6542 81.6507 52.9303 81.6507H36.0962C34.3723 81.6507 32.9695 80.2479 32.9695 78.524V65.389C32.9695 63.6651 34.3723 62.2623 36.0962 62.2623Z" fill="#FEC200"/>
<path opacity="0.1" d="M55.8057 78.7823H52.1067C43.1244 78.7823 35.845 71.5029 35.845 62.5206C35.845 62.4438 35.8659 62.367 35.8659 62.2902C34.2467 62.4089 32.9695 63.7489 32.9695 65.396V78.5311C32.9695 80.2619 34.3723 81.6578 36.0962 81.6578H52.9303C54.5774 81.6578 55.9174 80.3806 56.0361 78.7614C55.9593 78.7614 55.8825 78.7823 55.8057 78.7823Z" fill="black"/>
<path d="M70.9299 39.796H85.8936C87.6244 39.796 89.0203 41.1988 89.0203 42.9227V69.5487C89.0203 71.2796 87.6174 72.6754 85.8936 72.6754H64.167C62.4361 72.6754 61.0403 71.2726 61.0403 69.5487V49.6856L70.9299 39.796Z" fill="#D9D9DE"/>
<path opacity="0.35" d="M85.9005 39.796H72.3536C72.3536 42.9646 74.922 45.54 78.0976 45.54H83.2692V57.998C83.2692 61.1666 85.8376 63.742 89.0132 63.742C89.0202 63.742 89.0272 63.742 89.0342 63.742V42.9297C89.0342 41.1989 87.6313 39.803 85.9074 39.803L85.9005 39.796Z" fill="white"/>
<path opacity="0.1" d="M88.769 69.8069H86.9125C74.2102 69.8069 63.9158 59.5125 63.9158 46.8101L70.9299 39.796L61.0403 49.6856V69.5487C61.0403 71.2796 62.4431 72.6754 64.167 72.6754H85.8936C87.5407 72.6754 88.8807 71.3982 88.9994 69.779C88.9226 69.779 88.8458 69.8 88.769 69.8V69.8069Z" fill="black"/>
<path d="M70.9299 46.559C70.9299 48.2898 69.5271 49.6857 67.8032 49.6857H61.0472L70.9369 39.796V46.552L70.9299 46.559Z" fill="#C3B8C3"/>
<path d="M82.7739 57.998H67.3077C66.5121 57.998 65.87 57.3559 65.87 56.5603C65.87 55.7646 66.5121 55.1225 67.3077 55.1225H82.7739C83.5695 55.1225 84.2116 55.7646 84.2116 56.5603C84.2116 57.3559 83.5695 57.998 82.7739 57.998Z" fill="#5D5B68"/>
<path d="M82.7739 63.3093H67.3077C66.5121 63.3093 65.87 62.6672 65.87 61.8716C65.87 61.076 66.5121 60.4339 67.3077 60.4339H82.7739C83.5695 60.4339 84.2116 61.076 84.2116 61.8716C84.2116 62.6672 83.5695 63.3093 82.7739 63.3093Z" fill="#5D5B68"/>
<path d="M82.7739 68.6205H67.3077C66.5121 68.6205 65.87 67.9784 65.87 67.1827C65.87 66.3871 66.5121 65.745 67.3077 65.745H82.7739C83.5695 65.745 84.2116 66.3871 84.2116 67.1827C84.2116 67.9784 83.5695 68.6205 82.7739 68.6205Z" fill="#5D5B68"/>
<path d="M75.4106 47.571C75.4106 49.602 77.0578 51.2491 79.0887 51.2491C81.1197 51.2491 82.7668 49.602 82.7668 47.571C82.7668 45.5401 81.1197 43.8929 79.0887 43.8929C77.0578 43.8929 75.4106 45.5401 75.4106 47.571Z" fill="url(#paint1_linear_829_8740)"/>
<path opacity="0.1" d="M80.9313 49.4135C78.9003 49.4135 77.2532 47.7665 77.2532 45.7355C77.2532 45.1981 77.3788 44.6886 77.5812 44.2279C76.304 44.8072 75.4106 46.0845 75.4106 47.578C75.4106 49.609 77.0578 51.2561 79.0887 51.2561C80.5823 51.2561 81.8595 50.3628 82.4388 49.0855C81.9781 49.2949 81.4687 49.4135 80.9313 49.4135Z" fill="black"/>
<path d="M50.7737 70.8468H38.2528C37.4572 70.8468 36.8151 70.2047 36.8151 69.409C36.8151 68.6134 37.4572 67.9713 38.2528 67.9713H50.7737C51.5693 67.9713 52.2114 68.6134 52.2114 69.409C52.2114 70.2047 51.5693 70.8468 50.7737 70.8468Z" fill="#F6F0F5"/>
<path d="M46.5512 75.9417H38.2528C37.4572 75.9417 36.8151 75.2996 36.8151 74.504C36.8151 73.7083 37.4572 73.0662 38.2528 73.0662H46.5512C47.3468 73.0662 47.9889 73.7083 47.9889 74.504C47.9889 75.2996 47.3468 75.9417 46.5512 75.9417Z" fill="#F6F0F5"/>
<path d="M66.2398 18.8441L61.2775 18.1741C60.9076 16.8759 60.3981 15.6336 59.756 14.482L62.785 10.5038C63.2177 9.93153 63.1689 9.1289 62.6594 8.61942L58.8627 4.82268C58.3532 4.31319 57.5506 4.25736 56.9782 4.69705L53 7.72607C51.8415 7.08397 50.6061 6.57449 49.308 6.20458L48.638 1.24231C48.5403 0.530426 47.9331 0 47.2142 0H41.8402C41.1213 0 40.5141 0.530426 40.4164 1.24231L39.7464 6.20458C38.4482 6.57449 37.2059 7.08397 36.0543 7.72607L32.0761 4.69705C31.5038 4.26434 30.7012 4.31319 30.1917 4.82268L26.395 8.61942C25.8855 9.1289 25.8296 9.93153 26.2693 10.5038L29.2984 14.482C28.6563 15.6406 28.1468 16.8759 27.7769 18.1741L22.8146 18.8441C22.1027 18.9418 21.5723 19.549 21.5723 20.2679V25.6419C21.5723 26.3608 22.1027 26.968 22.8146 27.0657L27.7769 27.7357C28.1468 29.0339 28.6563 30.2762 29.2984 31.4278L26.2693 35.406C25.8366 35.9783 25.8855 36.7809 26.395 37.2904L30.1917 41.0871C30.7012 41.5966 31.5038 41.6524 32.0761 41.2127L36.0543 38.1837C37.2129 38.8258 38.4482 39.3353 39.7464 39.7052L40.4164 44.6675C40.5141 45.3794 41.1213 45.9098 41.8402 45.9098H47.2142C47.9331 45.9098 48.5403 45.3794 48.638 44.6675L49.308 39.7052C50.6061 39.3353 51.8485 38.8258 53 38.1837L56.9782 41.2127C57.5506 41.6454 58.3532 41.5966 58.8627 41.0871L62.6594 37.2904C63.1689 36.7809 63.2247 35.9783 62.785 35.406L59.756 31.4278C60.3981 30.2692 60.9076 29.0339 61.2775 27.7357L66.2398 27.0657C66.9517 26.968 67.4821 26.3608 67.4821 25.6419V20.2679C67.4821 19.549 66.9517 18.9418 66.2398 18.8441ZM44.5202 32.6352C39.1741 32.6352 34.8399 28.301 34.8399 22.9549C34.8399 17.6088 39.1741 13.2746 44.5202 13.2746C49.8663 13.2746 54.2005 17.6088 54.2005 22.9549C54.2005 28.301 49.8663 32.6352 44.5202 32.6352Z" fill="url(#paint2_linear_829_8740)"/>
<path opacity="0.1" d="M62.4011 34.9105C59.2465 36.1738 55.8126 36.8927 52.2113 36.8927C40.186 36.8927 29.9962 29.1386 26.3042 18.3766L22.7936 18.8511C22.0817 18.9489 21.5513 19.5561 21.5513 20.2749V25.649C21.5513 26.3679 22.0817 26.975 22.7936 27.0728L27.7559 27.7428C28.1258 29.0409 28.6353 30.2832 29.2774 31.4348L26.2483 35.413C25.8156 35.9853 25.8645 36.7879 26.374 37.2974L30.1707 41.0942C30.6802 41.6036 31.4828 41.6595 32.0551 41.2198L36.0333 38.1908C37.1919 38.8329 38.4272 39.3424 39.7254 39.7123L40.3954 44.6745C40.4931 45.3864 41.1003 45.9169 41.8192 45.9169H47.1932C47.9121 45.9169 48.5193 45.3864 48.617 44.6745L49.287 39.7123C50.5851 39.3424 51.8275 38.8329 52.979 38.1908L56.9573 41.2198C57.5296 41.6525 58.3322 41.6036 58.8417 41.0942L62.6384 37.2974C63.1479 36.7879 63.2037 35.9853 62.764 35.413L62.3871 34.9175L62.4011 34.9105Z" fill="black"/>
<defs>
<linearGradient id="paint0_linear_829_8740" x1="13.6507" y1="47.571" x2="6.29456" y2="47.571" gradientUnits="userSpaceOnUse">
<stop stop-color="#C757FF"/>
<stop offset="1" stop-color="#6D53FF"/>
</linearGradient>
<linearGradient id="paint1_linear_829_8740" x1="82.7668" y1="47.571" x2="75.4106" y2="47.571" gradientUnits="userSpaceOnUse">
<stop stop-color="#C757FF"/>
<stop offset="1" stop-color="#6D53FF"/>
</linearGradient>
<linearGradient id="paint2_linear_829_8740" x1="67.4821" y1="22.9549" x2="21.5723" y2="22.9549" gradientUnits="userSpaceOnUse">
<stop stop-color="#C757FF"/>
<stop offset="1" stop-color="#6D53FF"/>
</linearGradient>
</defs>
</svg>
