<svg width="113" height="71" viewBox="0 0 113 71" fill="none" xmlns="http://www.w3.org/2000/svg">
<path d="M96.131 5.40311L91.5009 4.72998L89.4318 0.531988C89.0846 -0.177329 88.0717 -0.177329 87.7245 0.531988L85.6554 4.72998L81.0253 5.40311C80.244 5.51892 79.9329 6.47432 80.4972 7.03164L83.8468 10.3032L83.0582 14.921C82.928 15.7027 83.7382 16.2962 84.44 15.9271L88.5854 13.7484L92.7308 15.9271C93.4325 16.2962 94.25 15.7027 94.1126 14.921L93.324 10.3032L96.6736 7.03164C97.2379 6.48156 96.9268 5.51892 96.1455 5.40311H96.131Z" fill="#FEC200"/>
<path opacity="0.35" d="M96.1311 5.40311L91.501 4.72998L89.432 0.531988C89.0847 -0.177329 88.0719 -0.177329 87.7246 0.531988L85.6555 4.72998L83.8541 4.99055C84.7729 9.07998 88.4191 12.1344 92.7816 12.1344C93.0637 12.1344 93.3458 12.1199 93.628 12.091L93.3169 10.2959L96.6665 7.0244C97.2308 6.47432 96.9197 5.51168 96.1384 5.39587L96.1311 5.40311Z" fill="white"/>
<path d="M100.507 48.9119C99.6235 48.4895 98.7095 48.1438 97.7724 47.8443H84.8219C83.8848 48.1515 82.9708 48.4895 82.0951 48.9119C75.0669 52.3377 70.2047 59.5273 70.2047 67.8767H112.405C112.405 59.5273 107.543 52.3377 100.515 48.9119H100.507Z" fill="url(#paint0_linear_829_8773)"/>
<path d="M96.3744 47.4142V43.6735C94.8305 44.7642 93.1176 45.4248 91.3049 45.4248C89.4921 45.4248 87.7639 44.7642 86.22 43.6735V47.4142C85.0985 47.7061 84.0155 48.0978 82.9708 48.551C83.7773 49.442 84.315 50.5481 84.5915 51.7233H98.1872C98.4944 50.5789 99.0628 49.5112 99.8847 48.6586C98.7556 48.1593 97.588 47.7368 96.3821 47.4219L96.3744 47.4142Z" fill="#E5D3B3"/>
<path d="M79.9444 27.5277C79.9444 27.5277 83.4009 27.835 86.266 22.2969C86.266 22.2969 89.6994 26.1067 95.5064 26.0453C101.321 25.9838 102.558 30.4158 102.558 30.4158C102.558 30.4158 106.344 21.9666 100.169 16.6205C91.2971 8.92399 85.905 18.0569 85.905 18.0569C85.905 18.0569 76.3496 18.5485 79.9444 27.5201V27.5277Z" fill="#5D5B68"/>
<path opacity="0.15" d="M100.177 16.6205C92.2266 9.73046 87.0802 16.3286 86.0894 17.788C88.5396 16.1365 92.3879 15.2302 97.3038 19.4932C100.184 21.9896 100.891 25.1619 100.829 27.8349C102.181 29.0409 102.565 30.4235 102.565 30.4235C102.565 30.4235 106.352 21.9742 100.177 16.6281V16.6205Z" fill="black"/>
<path d="M104.317 29.7397C103.864 29.6091 103.38 29.7013 102.919 29.9701C102.934 30.2236 102.926 29.9548 102.888 29.5784C102.704 30.1161 102.565 30.4233 102.565 30.4233C102.565 30.4233 101.329 25.9913 95.5142 26.0528C89.6996 26.1142 86.2738 22.3044 86.2738 22.3044C83.4087 27.8348 79.9599 27.5352 79.9522 27.5352C79.8216 28.4493 79.7141 29.4171 79.6833 29.9701C79.2301 29.7013 78.7386 29.6091 78.2854 29.7397C77.0641 30.0854 76.511 31.9212 77.0564 33.8414C77.6017 35.7541 79.0381 37.0214 80.2594 36.6758C80.4591 36.6143 80.6358 36.5068 80.8048 36.3762C82.6867 41.1693 86.6732 45.44 91.3049 45.44C95.9366 45.44 99.9155 41.1693 101.805 36.3762C101.966 36.5068 102.143 36.622 102.35 36.6758C103.572 37.0214 105.008 35.7541 105.553 33.8414C106.099 31.9288 105.553 30.093 104.324 29.7397H104.317Z" fill="#CEBDA1"/>
<path d="M104.317 29.7397C103.864 29.6091 103.38 29.7013 102.919 29.9701C102.934 30.2236 102.926 29.9548 102.888 29.5784C102.704 30.1161 102.565 30.4233 102.565 30.4233C102.565 30.4233 101.329 25.9913 95.5142 26.0528C89.6996 26.1142 86.2738 22.3044 86.2738 22.3044C83.4087 27.8348 79.9599 27.5352 79.9522 27.5352C79.8216 28.4493 79.7141 29.4171 79.6833 29.9701C79.2301 29.7013 78.7386 29.6091 78.2854 29.7397C77.0641 30.0854 76.511 31.9212 77.0564 33.8414C77.6017 35.7541 79.0381 37.0214 80.2594 36.6758C80.4591 36.6143 80.6358 36.5068 80.8048 36.3762C82.6867 41.1693 86.6732 45.44 91.3049 45.44C95.9366 45.44 99.9155 41.1693 101.805 36.3762C101.966 36.5068 102.143 36.622 102.35 36.6758C103.572 37.0214 105.008 35.7541 105.553 33.8414C106.099 31.9288 105.553 30.093 104.324 29.7397H104.317Z" fill="#E5D3B3"/>
<path opacity="0.1" d="M86.2198 43.8963C88.0787 45.6936 90.3139 46.8612 92.7335 46.8612C94.0085 46.8612 95.2298 46.5309 96.3743 45.9625V43.6735C94.8304 44.7642 93.1175 45.4248 91.3048 45.4248C89.492 45.4248 87.7638 44.7642 86.2198 43.6735V43.9039V43.8963Z" fill="black"/>
<path d="M95.1531 55.7792L102.074 49.7725C101.559 49.4653 101.044 49.1734 100.507 48.9122C99.1933 48.2824 97.8107 47.7831 96.3744 47.4144L91.2971 51.4854L95.1531 55.7792Z" fill="#E1D9E1"/>
<path d="M91.3048 51.4854L86.2276 47.4144C84.7912 47.7831 83.4086 48.2824 82.1028 48.9122C81.5652 49.1734 81.0428 49.4653 80.5282 49.7725L87.4489 55.7715L91.3048 51.4777V51.4854Z" fill="#E1D9E1"/>
<path d="M87.3798 67.8768L90.0144 57.5841L88.4321 54.6806L91.3048 51.4853L94.1776 54.6806L92.5953 57.5841L95.4911 67.8768H87.3798Z" fill="#FF4823"/>
<path d="M91.2972 39.5024C90.1988 39.5024 89.1004 39.08 88.2555 38.2427C87.6948 37.682 87.6948 36.7756 88.2555 36.2149C88.8162 35.6542 89.7226 35.6542 90.2833 36.2149C90.8441 36.7756 91.7504 36.7679 92.3035 36.2149C92.8642 35.6542 93.7706 35.6542 94.3313 36.2149C94.892 36.7756 94.892 37.682 94.3313 38.2427C93.494 39.08 92.3956 39.4948 91.2896 39.4948L91.2972 39.5024Z" fill="white"/>
<path d="M87.4028 33.2809C88.2046 33.2809 88.8545 32.631 88.8545 31.8292C88.8545 31.0274 88.2046 30.3775 87.4028 30.3775C86.601 30.3775 85.951 31.0274 85.951 31.8292C85.951 32.631 86.601 33.2809 87.4028 33.2809Z" fill="#534E62"/>
<path d="M95.1915 33.2809C95.9933 33.2809 96.6432 32.631 96.6432 31.8292C96.6432 31.0274 95.9933 30.3775 95.1915 30.3775C94.3897 30.3775 93.7397 31.0274 93.7397 31.8292C93.7397 32.631 94.3897 33.2809 95.1915 33.2809Z" fill="#534E62"/>
<path opacity="0.1" d="M96.8122 66.2022C87.7408 66.2022 80.244 59.5734 78.8383 50.9014C73.6075 54.7343 70.2047 60.8945 70.2047 67.8767H112.405C112.405 64.9732 111.806 62.2234 110.746 59.7116C107.405 63.6751 102.404 66.1945 96.8122 66.1945V66.2022Z" fill="black"/>
<path d="M43.7157 48.9119C42.8324 48.4895 41.9183 48.1438 40.9812 47.8443H28.0308C27.0937 48.1515 26.1796 48.4895 25.304 48.9119C18.2757 52.3377 13.4136 59.5273 13.4136 67.8767H55.6138C55.6138 59.5273 50.7516 52.3377 43.7234 48.9119H43.7157Z" fill="url(#paint1_linear_829_8773)"/>
<path d="M39.5834 47.4142V43.6735C38.0395 44.7642 36.3266 45.4248 34.5139 45.4248C32.7011 45.4248 30.9728 44.7642 29.4289 43.6735V47.4142C28.3075 47.7061 27.2244 48.0978 26.1798 48.551C26.9863 49.442 27.524 50.5481 27.8005 51.7233H41.3962C41.7034 50.5789 42.2718 49.5112 43.0937 48.6586C41.9646 48.1593 40.797 47.7368 39.5911 47.4219L39.5834 47.4142Z" fill="#E5D3B3"/>
<path d="M23.1534 27.5277C23.1534 27.5277 26.6099 27.835 29.475 22.2969C29.475 22.2969 32.9084 26.1067 38.7154 26.0453C44.53 25.9838 45.7667 30.4158 45.7667 30.4158C45.7667 30.4158 49.5535 21.9666 43.3778 16.6205C34.5061 8.92399 29.1139 18.0569 29.1139 18.0569C29.1139 18.0569 19.5586 18.5485 23.1534 27.5201V27.5277Z" fill="#5D5B68"/>
<path opacity="0.15" d="M43.3854 16.6205C35.4355 9.73046 30.2891 16.3286 29.2982 17.788C31.7485 16.1365 35.5968 15.2302 40.5127 19.4932C43.3931 21.9896 44.0998 25.1619 44.0383 27.8349C45.3902 29.0409 45.7743 30.4235 45.7743 30.4235C45.7743 30.4235 49.5611 21.9742 43.3854 16.6281V16.6205Z" fill="black"/>
<path d="M47.5258 29.7397C47.0726 29.6091 46.5887 29.7013 46.1278 29.9701C46.1432 30.2236 46.1355 29.9548 46.0971 29.5784C45.9127 30.1161 45.7745 30.4233 45.7745 30.4233C45.7745 30.4233 44.5378 25.9913 38.7232 26.0528C32.9085 26.1142 29.4827 22.3044 29.4827 22.3044C26.6177 27.8348 23.1688 27.5352 23.1612 27.5352C23.0306 28.4493 22.923 29.4171 22.8923 29.9701C22.4391 29.7013 21.9475 29.6091 21.4944 29.7397C20.2731 30.0854 19.72 31.9212 20.2654 33.8414C20.8107 35.7541 22.2471 37.0214 23.4684 36.6758C23.6681 36.6143 23.8448 36.5068 24.0138 36.3762C25.8957 41.1693 29.8822 45.44 34.5139 45.44C39.1456 45.44 43.1245 41.1693 45.014 36.3762C45.1753 36.5068 45.352 36.622 45.5594 36.6758C46.7807 37.0214 48.2171 35.7541 48.7624 33.8414C49.3078 31.9288 48.7624 30.093 47.5334 29.7397H47.5258Z" fill="#CEBDA1"/>
<path d="M47.5258 29.7397C47.0726 29.6091 46.5887 29.7013 46.1278 29.9701C46.1432 30.2236 46.1355 29.9548 46.0971 29.5784C45.9127 30.1161 45.7745 30.4233 45.7745 30.4233C45.7745 30.4233 44.5378 25.9913 38.7232 26.0528C32.9085 26.1142 29.4827 22.3044 29.4827 22.3044C26.6177 27.8348 23.1688 27.5352 23.1612 27.5352C23.0306 28.4493 22.923 29.4171 22.8923 29.9701C22.4391 29.7013 21.9475 29.6091 21.4944 29.7397C20.2731 30.0854 19.72 31.9212 20.2654 33.8414C20.8107 35.7541 22.2471 37.0214 23.4684 36.6758C23.6681 36.6143 23.8448 36.5068 24.0138 36.3762C25.8957 41.1693 29.8822 45.44 34.5139 45.44C39.1456 45.44 43.1245 41.1693 45.014 36.3762C45.1753 36.5068 45.352 36.622 45.5594 36.6758C46.7807 37.0214 48.2171 35.7541 48.7624 33.8414C49.3078 31.9288 48.7624 30.093 47.5334 29.7397H47.5258Z" fill="#E5D3B3"/>
<path opacity="0.1" d="M29.4288 43.8963C31.2877 45.6936 33.5229 46.8612 35.9424 46.8612C37.2175 46.8612 38.4388 46.5309 39.5833 45.9625V43.6735C38.0394 44.7642 36.3265 45.4248 34.5138 45.4248C32.701 45.4248 30.9727 44.7642 29.4288 43.6735V43.9039V43.8963Z" fill="black"/>
<path d="M38.362 55.7792L45.2828 49.7725C44.7681 49.4653 44.2535 49.1734 43.7158 48.9122C42.4023 48.2824 41.0197 47.7831 39.5833 47.4144L34.5061 51.4854L38.362 55.7792Z" fill="#E1D9E1"/>
<path d="M34.5137 51.4854L29.4365 47.4144C28.0001 47.7831 26.6175 48.2824 25.3117 48.9122C24.774 49.1734 24.2517 49.4653 23.7371 49.7725L30.6578 55.7715L34.5137 51.4777V51.4854Z" fill="#E1D9E1"/>
<path d="M30.5887 67.8768L33.2234 57.5841L31.6411 54.6806L34.5138 51.4853L37.3866 54.6806L35.8042 57.5841L38.7 67.8768H30.5887Z" fill="#FF4823"/>
<path d="M34.5062 39.5024C33.4078 39.5024 32.3094 39.08 31.4645 38.2427C30.9038 37.682 30.9038 36.7756 31.4645 36.2149C32.0252 35.6542 32.9316 35.6542 33.4923 36.2149C34.053 36.7756 34.9594 36.7679 35.5125 36.2149C36.0732 35.6542 36.9796 35.6542 37.5403 36.2149C38.101 36.7756 38.101 37.682 37.5403 38.2427C36.703 39.08 35.6046 39.4948 34.4985 39.4948L34.5062 39.5024Z" fill="white"/>
<path d="M30.6116 33.2809C31.4134 33.2809 32.0634 32.631 32.0634 31.8292C32.0634 31.0274 31.4134 30.3775 30.6116 30.3775C29.8099 30.3775 29.1599 31.0274 29.1599 31.8292C29.1599 32.631 29.8099 33.2809 30.6116 33.2809Z" fill="#534E62"/>
<path d="M38.4005 33.2809C39.2022 33.2809 39.8522 32.631 39.8522 31.8292C39.8522 31.0274 39.2022 30.3775 38.4005 30.3775C37.5987 30.3775 36.9487 31.0274 36.9487 31.8292C36.9487 32.631 37.5987 33.2809 38.4005 33.2809Z" fill="#534E62"/>
<path opacity="0.1" d="M40.0211 66.2022C30.9496 66.2022 23.4528 59.5734 22.0472 50.9014C16.8163 54.7343 13.4136 60.8945 13.4136 67.8767H55.6138C55.6138 64.9732 55.0147 62.2234 53.9547 59.7116C50.6134 63.6751 45.6129 66.1945 40.0211 66.1945V66.2022Z" fill="black"/>
<path d="M69.5991 44.8907C70.3522 45.0895 71.0971 45.313 71.8254 45.5697C71.0971 45.3047 70.3605 45.0812 69.5991 44.8907Z" fill="black"/>
<path d="M55.6207 45.5783C56.349 45.3134 57.0856 45.0898 57.8387 44.8994C57.0856 45.0898 56.3407 45.3217 55.6207 45.5783Z" fill="black"/>
<path d="M74.1343 46.5466C72.6447 50.8687 68.548 53.9737 63.7231 53.9737C58.8982 53.9737 54.8099 50.8687 53.3119 46.5466C45.9462 50.1318 40.691 57.3685 39.9544 65.9133C39.8551 67.0228 40.7075 67.9916 41.8248 67.9916H85.6132C86.7305 67.9916 87.5746 67.0228 87.4836 65.9133C86.747 57.3685 81.4917 50.1236 74.1261 46.5466H74.1343Z" fill="url(#paint2_linear_829_8773)"/>
<path opacity="0.15" d="M87.02 62.875H63.4582C54.3877 62.875 49.9517 53.4277 53.1463 46.6382C45.8717 50.2482 40.6909 57.4351 39.9626 65.922C39.8633 67.0315 40.7157 68.0003 41.833 68.0003H85.6214C86.7386 68.0003 87.5828 67.0315 87.4917 65.922C87.4007 64.887 87.2435 63.8686 87.0283 62.875H87.02Z" fill="black"/>
<path d="M69.4583 40.6102C67.7203 41.8521 65.7837 42.6056 63.723 42.6056C61.6623 42.6056 59.7174 41.8521 57.9877 40.6102V44.8495C56.3574 45.2552 54.7932 45.8265 53.3201 46.5468C54.8098 50.8689 58.9064 53.9739 63.7313 53.9739C68.5562 53.9739 72.6446 50.8689 74.1425 46.5468C72.6611 45.8265 71.097 45.2552 69.4749 44.8495V40.6102H69.4583Z" fill="#E5D3B3"/>
<path d="M50.8869 22.3611C50.8869 22.3611 54.7932 22.7088 58.0374 16.4492C58.0374 16.4492 61.9189 20.7548 68.49 20.6885C75.0612 20.6223 76.4598 25.6316 76.4598 25.6316C76.4598 25.6316 80.7385 16.0766 73.7536 10.024C63.7231 1.32187 57.6236 11.6552 57.6236 11.6552C57.6236 11.6552 46.8234 12.2099 50.8869 22.3611Z" fill="#5D5B68"/>
<path d="M78.4377 24.8536C77.9246 24.7046 77.3784 24.8122 76.857 25.1186C76.8735 25.4001 76.8653 25.102 76.8239 24.6715C76.617 25.2759 76.4515 25.632 76.4515 25.632C76.4515 25.632 75.0528 20.6226 68.4817 20.6889C61.9105 20.7551 58.0291 16.4496 58.0291 16.4496C54.7931 22.7009 50.8869 22.3614 50.8786 22.3614C50.7296 23.3964 50.6137 24.4893 50.5724 25.1186C50.0592 24.8205 49.5048 24.7046 48.9916 24.8536C47.6095 25.2511 46.9888 27.3211 47.6013 29.4904C48.222 31.6514 49.8441 33.0921 51.2262 32.6947C51.4579 32.6285 51.6565 32.5043 51.8386 32.3552C53.9655 37.7786 58.476 42.6057 63.7064 42.6057C68.9368 42.6057 73.4473 37.7786 75.5742 32.3552C75.7563 32.5043 75.9549 32.6285 76.1866 32.6947C77.5687 33.0921 79.1908 31.6514 79.8115 29.4904C80.4322 27.3293 79.8115 25.2511 78.4212 24.8536H78.4377Z" fill="#E5D3B3"/>
<path opacity="0.1" d="M69.4584 43.3342V40.6102C67.7204 41.8521 65.7838 42.6056 63.7231 42.6056C61.6623 42.6056 59.7175 41.8521 57.9878 40.6102V40.8751C60.1065 42.9534 62.6637 44.3113 65.4362 44.3113C66.8431 44.3113 68.2004 43.9552 69.4666 43.3342H69.4584Z" fill="black"/>
<path d="M63.7232 35.9901C62.399 35.9901 61.1576 35.4767 60.2307 34.5411C59.5686 33.8787 59.5686 32.794 60.2307 32.1317C60.8928 31.4693 61.9769 31.4693 62.639 32.1317C63.21 32.7113 64.2197 32.7113 64.8073 32.1317C65.4694 31.4693 66.5536 31.4693 67.2156 32.1317C67.8777 32.8023 67.8777 33.8787 67.2156 34.5411C66.2804 35.4767 65.039 35.9901 63.7232 35.9901Z" fill="#F6F0F5"/>
<path d="M61.4389 27.2215C61.4389 28.1654 60.6775 28.9272 59.734 28.9272C58.7906 28.9272 58.0292 28.1654 58.0292 27.2215C58.0292 26.2776 58.7906 25.5159 59.734 25.5159C60.6775 25.5159 61.4389 26.2776 61.4389 27.2215Z" fill="#5D5B68"/>
<path d="M69.4168 27.2215C69.4168 28.1654 68.6554 28.9272 67.7119 28.9272C66.7685 28.9272 66.0071 28.1654 66.0071 27.2215C66.0071 26.2776 66.7685 25.5159 67.7119 25.5159C68.6554 25.5159 69.4168 26.2776 69.4168 27.2215Z" fill="#5D5B68"/>
<path opacity="0.15" d="M73.7534 10.0242C64.5587 2.05069 58.6745 10.0491 57.7559 11.4484C60.5366 9.61851 64.8401 8.6746 70.3354 13.4438C73.4886 16.1762 74.3327 19.6123 74.3244 22.5765C75.9796 23.9758 76.4514 25.6401 76.4514 25.6401C76.4514 25.6401 80.7301 16.0851 73.7451 10.0325L73.7534 10.0242Z" fill="black"/>
<path opacity="0.15" d="M74.1343 46.5468C73.3646 48.7658 71.8997 50.6619 70.0128 51.9784C70.3604 52.2434 70.7411 52.4835 71.1466 52.6822C75.3839 54.7439 78.5288 58.4864 79.9275 62.8664H87.02C85.4393 55.6629 80.5978 49.6932 74.1343 46.5385V46.5468Z" fill="white"/>
<path d="M15.9562 59.5472L11.3261 58.874L9.25702 54.676C8.90976 53.9667 7.89693 53.9667 7.54967 54.676L5.48059 58.874L0.850481 59.5472C0.0691509 59.663 -0.241937 60.6184 0.322357 61.1757L3.67195 64.4472L2.88339 69.065C2.75316 69.8467 3.56344 70.4402 4.26519 70.0711L8.41057 67.8925L12.556 70.0711C13.2577 70.4402 14.0752 69.8467 13.9378 69.065L13.1492 64.4472L16.4988 61.1757C17.0631 60.6256 16.752 59.663 15.9707 59.5472H15.9562Z" fill="#FEC200"/>
<path opacity="0.35" d="M15.9561 59.5471L11.326 58.874L9.25691 54.676C8.90965 53.9667 7.89681 53.9667 7.54956 54.676L5.48048 58.874L3.67908 59.1346C4.59786 63.224 8.24407 66.2784 12.6065 66.2784C12.8886 66.2784 13.1708 66.2639 13.4529 66.235L13.1419 64.44L16.4914 61.1684C17.0557 60.6184 16.7447 59.6557 15.9633 59.5399L15.9561 59.5471Z" fill="white"/>
<defs>
<linearGradient id="paint0_linear_829_8773" x1="70.2047" y1="57.7959" x2="112.405" y2="57.7959" gradientUnits="userSpaceOnUse">
<stop stop-color="#6D53FF"/>
<stop offset="1" stop-color="#8A49F7"/>
</linearGradient>
<linearGradient id="paint1_linear_829_8773" x1="13.4136" y1="57.7959" x2="55.6138" y2="57.7959" gradientUnits="userSpaceOnUse">
<stop stop-color="#6D53FF"/>
<stop offset="1" stop-color="#8A49F7"/>
</linearGradient>
<linearGradient id="paint2_linear_829_8773" x1="87.4903" y1="57.2691" x2="39.9465" y2="57.2691" gradientUnits="userSpaceOnUse">
<stop stop-color="#C757FF"/>
<stop offset="1" stop-color="#6D53FF"/>
</linearGradient>
</defs>
</svg>
