<svg width="25" height="24" viewBox="0 0 25 24" fill="currentColor" xmlns="http://www.w3.org/2000/svg">
<path opacity="0.5" d="M5.53418 7H19.5342M10.5342 10V18M14.5342 10V18M10.5342 3H14.5342C14.7994 3 15.0537 3.10536 15.2413 3.29289C15.4288 3.48043 15.5342 3.73478 15.5342 4V7H9.53418V4C9.53418 3.73478 9.63954 3.48043 9.82707 3.29289C10.0146 3.10536 10.269 3 10.5342 3ZM6.53418 7H18.5342V20C18.5342 20.2652 18.4288 20.5196 18.2413 20.7071C18.0538 20.8946 17.7994 21 17.5342 21H7.53418C7.26896 21 7.01461 20.8946 6.82707 20.7071C6.63954 20.5196 6.53418 20.2652 6.53418 20V7Z" stroke="#B7B7B7" stroke-width="2" stroke-linecap="round" stroke-linejoin="round"/>
</svg>
