<svg width="22" height="21" viewBox="0 0 22 16" fill="none" xmlns="https://www.w3.org/2000/svg">
<path d="M0.539307 1.9229V14.2561L6.70591 8.0895L0.539307 1.9229Z" fill="#B7B7B7"/>
<path d="M1.24219 15.8645C1.36233 15.9101 1.49263 15.9351 1.62876 15.9351H20.3711C20.507 15.9351 20.6374 15.9101 20.7575 15.8646L14.1381 9.24525L13.1187 10.2647C11.9485 11.435 10.0512 11.435 8.88092 10.2647L7.86145 9.24525L1.24219 15.8645Z" fill="#B7B7B7"/>
<path d="M21.461 14.2563V1.92276L15.2942 8.08949L21.461 14.2563Z" fill="#B7B7B7"/>
<path d="M20.7575 0.314415L13.5725 7.49938L13.5602 7.51148L13.5481 7.52384L11.963 9.10895C11.431 9.64088 10.5686 9.64088 10.0367 9.10895L8.45158 7.52385L8.43946 7.51148L8.42709 7.49936L1.24219 0.314455C1.36233 0.268859 1.49263 0.243896 1.62876 0.243896H20.3711C20.507 0.243896 20.6374 0.268846 20.7575 0.314415Z" fill="#B7B7B7"/>
<path fill-rule="evenodd" clip-rule="evenodd" d="M8.42731 7.49936L8.43968 7.51148L8.4518 7.52385L10.0369 9.10895C10.5688 9.64088 11.4312 9.64088 11.9632 9.10895L13.5483 7.52384L13.5604 7.51148L13.5727 7.49941L20.7577 0.314415C20.6376 0.268846 20.5073 0.243896 20.3713 0.243896H1.62897C1.49284 0.243896 1.36254 0.268859 1.2424 0.314455L8.42731 7.49936ZM21.4609 1.92276V14.2563L15.2941 8.08949L21.4609 1.92276ZM19.8264 5.8688L17.6057 8.08949L19.8264 10.3102V5.8688ZM20.7577 15.8646C20.6376 15.9101 20.5073 15.9351 20.3713 15.9351H1.62897C1.49284 15.9351 1.36254 15.9101 1.2424 15.8645L7.86167 9.24525L8.88113 10.2647C10.0514 11.435 11.9487 11.435 13.1189 10.2647L14.1383 9.24525L20.7577 15.8646ZM16.8822 14.3006L14.1356 11.554C12.3659 13.1846 9.63419 13.1846 7.86445 11.554L5.11786 14.3006H16.8822ZM0.539307 14.2561V1.92289L6.7059 8.08949L0.539307 14.2561ZM2.17381 10.3101L4.39437 8.08949L2.17381 5.86893V10.3101ZM5.11786 1.8784L9.57707 6.3376L9.5955 6.35565L9.61356 6.37409L11 7.76056L12.3865 6.37408L12.4046 6.35564L12.423 6.33758L16.8822 1.8784H5.11786Z" fill="#B7B7B7"/>
</svg>
