<svg width="22" height="21" viewBox="0 0 20 20" fill="none" xmlns="http://www.w3.org/2000/svg">
<path d="M17.2427 9.89561C17.2427 9.45974 17.1555 9.02388 17.1555 8.58801L18.6403 7.73962C19.167 7.43865 19.3472 6.76597 19.0415 6.242L17.7006 3.94333C17.3988 3.42593 16.7364 3.24845 16.2163 3.54562L14.7147 4.4037C14.0173 3.79348 13.2327 3.35762 12.4482 3.0961V1.39801C12.4482 0.79522 11.9595 0.306549 11.3567 0.306549H8.65795C8.05516 0.306549 7.56649 0.79522 7.56649 1.39801V3.0961C6.69476 3.35762 5.9102 3.88066 5.29999 4.4037L3.79837 3.54562C3.27829 3.24845 2.61588 3.42593 2.31406 3.94333L0.973168 6.242C0.66752 6.76597 0.847755 7.43865 1.37444 7.73962L2.85913 8.58801C2.77197 9.02388 2.77197 9.45974 2.77197 9.89561C2.77197 10.3315 2.85913 10.7673 2.85913 11.2032L1.33499 12.1286C0.826123 12.4375 0.658691 13.0973 0.958653 13.6115L2.31406 15.9351C2.61588 16.4525 3.27829 16.63 3.79837 16.3327L5.29999 15.4747C5.99737 16.085 6.78193 16.5208 7.56649 16.7823V18.5676C7.56649 19.1704 8.05515 19.659 8.65795 19.659H11.2696C11.8724 19.659 12.361 19.1704 12.361 18.5676V16.7823C13.2327 16.5208 14.0173 15.9977 14.6275 15.4747L16.1436 16.341C16.6578 16.6349 17.3128 16.4648 17.6192 15.9577L19.018 13.6424C19.3351 13.1175 19.1578 12.4345 18.6254 12.1303L17.1555 11.2904C17.2427 10.8545 17.2427 10.4187 17.2427 9.89561ZM10.0073 13.121C8.26388 13.121 6.78193 11.6391 6.78193 9.89561C6.78193 8.15214 8.26388 6.6702 10.0073 6.6702C11.7508 6.6702 13.2327 8.15214 13.2327 9.89561C13.2327 11.7263 11.838 13.121 10.0073 13.121Z" fill="#B7B7B7"/>
</svg>
