<svg width="90" height="90" viewBox="0 0 90 90" fill="none" xmlns="http://www.w3.org/2000/svg">
<path d="M14.6201 50.2547C14.6201 50.2547 14.6201 50.2616 14.6201 50.2686C14.7104 50.2269 14.8008 50.1782 14.8911 50.1365C14.8008 50.1782 14.7035 50.206 14.6201 50.2547Z" fill="black"/>
<path d="M37.0417 50.1364C36.326 49.7957 35.5965 49.4829 34.8461 49.2118C35.5965 49.4829 36.326 49.8027 37.0417 50.1364Z" fill="black"/>
<path d="M14.8914 50.1364C15.607 49.7957 16.3366 49.4829 17.0869 49.2118C16.3366 49.4829 15.607 49.8027 14.8914 50.1364Z" fill="black"/>
<path d="M51.8758 70.5035C50.7641 61.5572 45.1153 54.0428 37.3126 50.2682C35.8049 55.1063 31.2956 58.6167 25.9665 58.6167C20.6373 58.6167 16.128 55.1063 14.6203 50.2682C6.82455 54.0428 1.16883 61.5572 0.0571385 70.5035C-0.158251 72.2205 1.16883 73.7498 2.90584 73.7498H49.034C50.7641 73.7498 52.0912 72.2205 51.8827 70.5035H51.8758Z" fill="url(#paint0_linear_829_8643)"/>
<path d="M37.0417 50.1365C37.1321 50.1782 37.2224 50.2199 37.3127 50.2686C37.3127 50.2686 37.3127 50.2616 37.3127 50.2547C37.2224 50.213 37.1321 50.1782 37.0417 50.1365Z" fill="black"/>
<path d="M36.6109 21.3094C35.5687 20.656 34.3389 19.6828 33.4981 18.362C33.0674 17.6808 32.3378 17.2429 31.5388 17.1247C29.6142 16.8397 25.8066 16.9439 19.9633 19.9261C15.5096 22.1991 12.5497 21.3024 10.7015 19.8357C8.48511 18.077 7.74862 14.9976 8.79777 12.363C10.111 9.07507 13.8907 5.19623 24.5838 6.89931C25.2994 7.01053 26.0081 6.63516 26.286 5.96783C26.8488 4.63318 28.3079 2.97877 31.8584 5.95393C35.7354 9.20019 37.1876 12.3561 37.6739 13.7394C37.8337 14.2051 38.1881 14.5736 38.6328 14.7612C39.8 15.2617 41.8358 16.3322 40.9326 17.4027C40.3211 18.1187 39.8765 18.4871 39.5846 18.6748C39.3345 18.8347 39.2164 19.1336 39.272 19.4186C39.272 19.4325 39.272 19.4395 39.272 19.4534C39.5707 20.9827 37.9102 22.1227 36.59 21.2955L36.6109 21.3094Z" fill="#5D5B68"/>
<path opacity="0.1" d="M39.7654 18.5704C39.6681 18.5287 39.5708 18.5009 39.4805 18.4453C38.4383 17.7919 37.2085 16.8187 36.3678 15.4979C35.937 14.8167 35.2075 14.3788 34.4084 14.2606C32.4838 13.9756 28.6763 14.0799 22.833 17.062C18.3793 19.3351 15.4194 18.4383 13.5712 16.9716C11.3548 15.2129 10.6183 12.1335 11.6674 9.49895C11.8342 9.08882 12.0357 8.66479 12.2858 8.24771C10.4168 9.39468 9.37457 10.9379 8.79788 12.3698C7.74872 14.9974 8.47827 18.0838 10.7016 19.8425C12.5498 21.3092 15.5097 22.199 19.9634 19.9329C25.8067 16.9577 29.6073 16.8534 31.5389 17.1315C32.3379 17.2497 33.0605 17.6876 33.4982 18.3688C34.332 19.6896 35.5688 20.6628 36.611 21.3162C37.9311 22.1434 39.5917 21.0034 39.2929 19.4741C39.2929 19.4602 39.2929 19.4532 39.2929 19.4393C39.2304 19.1474 39.3555 18.8485 39.6056 18.6955C39.6542 18.6608 39.7168 18.6191 39.7723 18.5774L39.7654 18.5704Z" fill="black"/>
<path d="M41.9678 25.2297C41.405 25.0698 40.8144 25.188 40.2517 25.5147C40.2725 25.8275 40.3003 26.1333 40.3003 26.4461C40.3003 24.3955 39.8626 22.4491 39.0844 20.6835C38.6189 21.4899 37.535 21.8861 36.6109 21.3091C35.5687 20.6557 34.3389 19.6825 33.4981 18.3618C33.0674 17.6805 32.3378 17.2426 31.5388 17.1244C29.6142 16.8394 25.8066 16.9437 19.9633 19.9258C16.8714 21.5038 14.516 21.5385 12.7304 20.9338C12.1328 22.3588 11.7785 23.902 11.6743 25.5216C11.1115 25.1949 10.5209 25.0767 9.9581 25.2366C8.45037 25.6676 7.77641 27.9198 8.45037 30.2763C9.12433 32.6328 10.8891 34.1899 12.3899 33.7589C12.6401 33.6894 12.8554 33.5504 13.0569 33.3905C15.3706 39.2852 20.269 44.5335 25.9595 44.5335C31.65 44.5335 36.5483 39.2783 38.862 33.3905C39.0635 33.5504 39.2789 33.6894 39.5291 33.7589C41.0368 34.1899 42.8016 32.6259 43.4686 30.2763C44.1426 27.9198 43.4686 25.6676 41.9609 25.2366L41.9678 25.2297Z" fill="#E5D3B3"/>
<path d="M41.9678 25.2297C41.405 25.0698 40.8144 25.188 40.2517 25.5147C40.2725 25.8275 40.3003 26.1333 40.3003 26.4461C40.3003 24.3955 39.8626 22.4491 39.0844 20.6835C38.6189 21.4899 37.535 21.8861 36.6109 21.3091C35.5687 20.6557 34.3389 19.6825 33.4981 18.3618C33.0674 17.6805 32.3378 17.2426 31.5388 17.1244C29.6142 16.8394 25.8066 16.9437 19.9633 19.9258C16.8714 21.5038 14.516 21.5385 12.7304 20.9338C12.1328 22.3588 11.7785 23.902 11.6743 25.5216C11.1115 25.1949 10.5209 25.0767 9.9581 25.2366C8.45037 25.6676 7.77641 27.9198 8.45037 30.2763C9.12433 32.6328 10.8891 34.1899 12.3899 33.7589C12.6401 33.6894 12.8554 33.5504 13.0569 33.3905C15.3706 39.2852 20.269 44.5335 25.9595 44.5335C31.65 44.5335 36.5483 39.2783 38.862 33.3905C39.0635 33.5504 39.2789 33.6894 39.5291 33.7589C41.0368 34.1899 42.8016 32.6259 43.4686 30.2763C44.1426 27.9198 43.4686 25.6676 41.9609 25.2366L41.9678 25.2297Z" fill="#E5D3B3"/>
<path d="M32.1988 42.3647C30.3159 43.7063 28.2037 44.5265 25.9664 44.5265C23.7291 44.5265 21.6169 43.7063 19.734 42.3647V48.4054C17.9484 48.8503 16.2391 49.4689 14.6133 50.2544C16.1141 55.0995 20.6303 58.6168 25.9595 58.6168C31.2886 58.6168 35.8118 55.0995 37.3057 50.2544C35.6868 49.4689 33.9706 48.8503 32.1849 48.4054V42.3647H32.1988Z" fill="#E5D3B3"/>
<path opacity="0.1" d="M32.1988 44.6864V42.3577C30.3159 43.6993 28.2037 44.5196 25.9664 44.5196C23.7291 44.5196 21.6169 43.6993 19.734 42.3577V42.6358C21.9504 44.6586 24.5768 45.9515 27.3977 45.9515C29.0792 45.9515 30.698 45.4788 32.1919 44.6794L32.1988 44.6864Z" fill="black"/>
<path d="M25.9664 36.908C24.7019 36.908 23.4304 36.4284 22.4646 35.4621C21.9088 34.906 21.9088 33.9954 22.4646 33.4393C23.0205 32.8832 23.9307 32.8832 24.4865 33.4393C25.2994 34.2526 26.6196 34.2526 27.4394 33.4393C27.9953 32.8832 28.9055 32.8832 29.4613 33.4393C30.0172 33.9954 30.0172 34.906 29.4613 35.4621C28.4955 36.4284 27.231 36.908 25.9595 36.908H25.9664Z" fill="#F6F0F5"/>
<path d="M23.0622 27.8018C23.0622 28.5942 22.423 29.2338 21.6309 29.2338C20.8388 29.2338 20.1996 28.5942 20.1996 27.8018C20.1996 27.0093 20.8388 26.3698 21.6309 26.3698C22.423 26.3698 23.0622 27.0093 23.0622 27.8018Z" fill="#3C3846"/>
<path d="M30.309 29.2338C31.0995 29.2338 31.7403 28.5926 31.7403 27.8018C31.7403 27.0109 31.0995 26.3698 30.309 26.3698C29.5185 26.3698 28.8777 27.0109 28.8777 27.8018C28.8777 28.5926 29.5185 29.2338 30.309 29.2338Z" fill="#3C3846"/>
<path d="M88.0196 21.3302L83.5728 20.6837L81.5857 16.652C81.2521 15.9708 80.2794 15.9708 79.9459 16.652L77.9588 20.6837L73.512 21.3302C72.7616 21.4414 72.4628 22.359 73.0048 22.8943L76.2217 26.0363L75.4644 30.4712C75.3393 31.2219 76.1175 31.7919 76.7915 31.4374L80.7727 29.3451L84.754 31.4374C85.4279 31.7919 86.2131 31.2219 86.081 30.4712L85.3237 26.0363L88.5407 22.8943C89.0826 22.366 88.7838 21.4414 88.0335 21.3302H88.0196Z" fill="#FEC200"/>
<path opacity="0.35" d="M88.0195 21.3302L83.5727 20.6837L81.5856 16.6519C81.2521 15.9707 80.2794 15.9707 79.9458 16.6519L77.9587 20.6837L76.2286 20.9339C77.111 24.8614 80.6129 27.7949 84.8025 27.7949C85.0735 27.7949 85.3445 27.781 85.6155 27.7532L85.3167 26.0292L88.5337 22.8873C89.0756 22.359 88.7768 21.4344 88.0264 21.3232L88.0195 21.3302Z" fill="white"/>
<path d="M77.0556 5.18915L72.6088 4.54268L70.6217 0.510921C70.2882 -0.170307 69.3154 -0.170307 68.9819 0.510921L66.9948 4.54268L62.548 5.18915C61.7976 5.30037 61.4989 6.21795 62.0408 6.7532L65.2578 9.89519L64.5004 14.3301C64.3754 15.0809 65.1535 15.6509 65.8275 15.2964L69.8087 13.204L73.79 15.2964C74.4639 15.6509 75.2491 15.0809 75.1171 14.3301L74.3597 9.89519L77.5767 6.7532C78.1186 6.2249 77.8199 5.30037 77.0695 5.18915H77.0556Z" fill="#FEC200"/>
<path opacity="0.35" d="M77.0556 5.18915L72.6089 4.54268L70.6217 0.510921C70.2882 -0.170307 69.3155 -0.170307 68.982 0.510921L66.9948 4.54268L65.2648 4.79293C66.1472 8.72042 69.649 11.6539 73.8387 11.6539C74.1097 11.6539 74.3806 11.64 74.6516 11.6122L74.3528 9.88824L77.5698 6.74625C78.1117 6.21795 77.813 5.29342 77.0626 5.1822L77.0556 5.18915Z" fill="white"/>
<path d="M66.4737 21.3302L62.0269 20.6837L60.0398 16.652C59.7062 15.9708 58.7335 15.9708 58.4 16.652L56.4129 20.6837L51.9661 21.3302C51.2157 21.4414 50.9169 22.359 51.4589 22.8943L54.6758 26.0363L53.9185 30.4712C53.7934 31.2219 54.5716 31.7919 55.2456 31.4374L59.2268 29.3451L63.2081 31.4374C63.882 31.7919 64.6672 31.2219 64.5351 30.4712L63.7778 26.0363L66.9948 22.8943C67.5367 22.366 67.2379 21.4414 66.4876 21.3302H66.4737Z" fill="#FEC200"/>
<path opacity="0.35" d="M66.4737 21.3302L62.027 20.6837L60.0398 16.6519C59.7063 15.9707 58.7336 15.9707 58.4001 16.6519L56.4129 20.6837L54.6829 20.9339C55.5653 24.8614 59.0671 27.7949 63.2568 27.7949C63.5277 27.7949 63.7987 27.781 64.0697 27.7532L63.7709 26.0292L66.9879 22.8873C67.5298 22.359 67.2311 21.4344 66.4807 21.3232L66.4737 21.3302Z" fill="white"/>
<path opacity="0.1" d="M37.3126 50.2682C35.8049 55.1063 31.2956 58.6167 25.9665 58.6167C20.6373 58.6167 16.128 55.1063 14.6203 50.2682C12.4872 51.297 10.5279 52.6178 8.76306 54.161C13.2585 63.5174 22.7981 69.996 33.8734 69.996C40.0641 69.996 45.7615 67.9524 50.3889 64.5393C48.0127 58.2761 43.3019 53.1669 37.3126 50.2682Z" fill="url(#paint1_linear_829_8643)"/>
<path d="M55.0788 73.7569C65.3974 73.7569 73.7622 65.3881 73.7622 55.0648C73.7622 44.7414 65.3974 36.3727 55.0788 36.3727C44.7603 36.3727 36.3955 44.7414 36.3955 55.0648C36.3955 65.3881 44.7603 73.7569 55.0788 73.7569Z" fill="#C4C3C9"/>
<path d="M55.0789 68.0289C51.6187 68.0289 48.367 66.6803 45.9144 64.2334C43.4687 61.7866 42.1207 58.5334 42.1207 55.0716C42.1207 51.6099 43.4687 48.3567 45.9144 45.9028C48.3601 43.456 51.6187 42.1074 55.0789 42.1074C58.539 42.1074 61.7907 43.456 64.2434 45.9028C69.2946 50.9564 69.2946 59.1798 64.2434 64.2334C61.7976 66.6803 58.5459 68.0289 55.0789 68.0289Z" fill="url(#paint2_linear_829_8643)"/>
<path opacity="0.1" d="M60.95 62.1552C57.4898 62.1552 54.2382 60.8067 51.7855 58.3598C49.3398 55.9129 47.9918 52.6597 47.9918 49.198C47.9918 47.1682 48.4643 45.2218 49.3398 43.4562C48.0891 44.0749 46.9288 44.8882 45.9144 45.9031C43.4687 48.3499 42.1207 51.6031 42.1207 55.0718C42.1207 58.5405 43.4687 61.7868 45.9144 64.2337C48.3601 66.6805 51.6187 68.0291 55.0789 68.0291C58.539 68.0291 61.7907 66.6805 64.2434 64.2337C65.2717 63.2049 66.0776 62.044 66.6821 60.8136C64.9173 61.6825 62.9719 62.1622 60.95 62.1622V62.1552Z" fill="url(#paint3_linear_829_8643)"/>
<path d="M74.5261 70.4111L70.4139 74.5252C69.3882 75.5513 69.3882 77.215 70.4139 78.2412L79.3507 87.1822C80.3763 88.2083 82.0393 88.2083 83.0649 87.1821L87.1771 83.068C88.2028 82.0419 88.2028 80.3782 87.1771 79.352L78.2403 70.4111C77.2147 69.3849 75.5517 69.3849 74.5261 70.4111Z" fill="#534E62"/>
<path d="M80.2041 72.3768L72.3777 80.2069L76.0968 83.9278L83.9233 76.0977L80.2041 72.3768Z" fill="#C4C3C9"/>
<path d="M68.294 68.2863C67.6617 68.9188 66.9808 69.4749 66.286 70.0032L70.6077 74.3269L74.3249 70.608L70.0032 66.2843C69.4821 66.9794 68.9193 67.6606 68.2871 68.2932L68.294 68.2863Z" fill="#534E62"/>
<path d="M52.4109 60.619C52.0288 60.619 51.6675 60.4661 51.3965 60.202L48.5061 57.3102C47.9503 56.7471 47.9503 55.8435 48.5061 55.2874C49.062 54.7313 49.9722 54.7313 50.528 55.2874L52.404 57.1642L59.623 49.9418C60.1789 49.3788 61.0891 49.3788 61.6449 49.9418C62.2007 50.5049 62.2007 51.4085 61.6449 51.9647L53.4184 60.195C53.1474 60.4661 52.7861 60.6121 52.404 60.6121L52.4109 60.619Z" fill="#F6F0F5"/>
<path opacity="0.5" d="M68.2941 41.8505C64.6394 38.1941 59.8452 36.3728 55.058 36.3867C51.4311 36.3937 51.3616 42.0451 54.9885 42.1077C55.0233 42.1077 55.0511 42.1077 55.0858 42.1077C62.2284 42.1077 68.0439 47.919 68.0439 55.0719C68.0439 55.0997 68.0439 55.1275 68.0439 55.1553C68.0995 58.7839 73.7553 58.7143 73.7622 55.0858C73.7691 50.2963 71.9557 45.5069 68.301 41.8505H68.2941Z" fill="white"/>
<path opacity="0.1" d="M82.3569 84.1631L73.4217 75.2237C72.3934 74.1949 72.3934 72.5335 73.4217 71.5047L70.4062 74.5216C69.3779 75.5504 69.3779 77.2118 70.4062 78.2406L79.3415 87.18C80.3698 88.2087 82.0304 88.2087 83.0587 87.18L86.0741 84.1631C85.0458 85.1919 83.3852 85.1919 82.3569 84.1631Z" fill="black"/>
<path opacity="0.1" d="M70.0033 66.2773C69.4822 66.9724 68.9194 67.6536 68.2872 68.2862C67.6549 68.9188 66.974 69.4749 66.2792 70.0032L68.3219 72.0469C69.0098 71.5047 69.6768 70.9416 70.3091 70.309C70.9344 69.6834 71.5041 69.0091 72.0461 68.321L70.0033 66.2773Z" fill="black"/>
<defs>
<linearGradient id="paint0_linear_829_8643" x1="51.9043" y1="62.009" x2="0.0341797" y2="62.009" gradientUnits="userSpaceOnUse">
<stop stop-color="#C757FF"/>
<stop offset="1" stop-color="#6D53FF"/>
</linearGradient>
<linearGradient id="paint1_linear_829_8643" x1="50.3889" y1="60.1321" x2="8.76306" y2="60.1321" gradientUnits="userSpaceOnUse">
<stop stop-color="#C757FF"/>
<stop offset="1" stop-color="#6D53FF"/>
</linearGradient>
<linearGradient id="paint2_linear_829_8643" x1="42.1207" y1="54.9845" x2="68.0318" y2="54.9845" gradientUnits="userSpaceOnUse">
<stop stop-color="#6D53FF"/>
<stop offset="1" stop-color="#8A49F7"/>
</linearGradient>
<linearGradient id="paint3_linear_829_8643" x1="42.1207" y1="55.6634" x2="66.6821" y2="55.6634" gradientUnits="userSpaceOnUse">
<stop stop-color="#6D53FF"/>
<stop offset="1" stop-color="#8A49F7"/>
</linearGradient>
</defs>
</svg>
