<svg width="423" height="459" viewBox="0 0 423 459" fill="none" xmlns="http://www.w3.org/2000/svg">
<g clip-path="url(#clip0_481_4407)">
<path d="M393.894 388.532C393.894 392.181 390.908 395.167 387.259 395.167H28.4679C24.8182 395.167 21.8334 392.181 21.8334 388.532L18.8486 182.142C18.8486 178.493 23.1441 171.368 31.0157 171.904L381.665 162.822C386.244 162.702 390.671 164.466 393.913 167.701C397.155 170.937 398.929 175.36 398.822 179.938L393.894 388.531V388.532Z" fill="url(#paint0_linear_481_4407)"/>
<path d="M387.343 382.166C387.343 385.622 384.519 388.45 381.066 388.45H37.1207C33.6681 388.45 30.8437 385.622 30.8437 382.166L28.0266 194.804C28.3591 183.529 38.2343 179.477 44.22 179.716L380.295 170.691C383.513 170.604 386.624 171.844 388.901 174.12C391.178 176.395 392.423 179.508 392.342 182.728L387.343 382.166Z" fill="#2926B6"/>
<path opacity="0.32" d="M34.5594 292.829C34.2358 292.829 33.9725 292.569 33.9666 292.244L33.743 277.049C33.7386 276.722 33.9989 276.453 34.327 276.447C34.6433 276.429 34.9228 276.703 34.9286 277.032L35.1522 292.226C35.1567 292.553 34.8963 292.823 34.5682 292.829H34.5594Z" fill="white"/>
<path opacity="0.32" d="M34.0137 255.592C33.69 255.592 33.4267 255.333 33.4208 255.007L32.5676 196.811C32.5853 192.899 33.7901 189.774 36.1496 187.511C40.4363 183.4 47.1369 183.606 47.4209 183.618L154.736 180.735C155.059 180.705 155.334 180.983 155.343 181.312C155.352 181.639 155.095 181.911 154.767 181.92L47.4164 184.803C47.1119 184.791 40.8953 184.6 36.969 188.368C34.8507 190.4 33.768 193.239 33.7518 196.805L34.605 254.99C34.6095 255.317 34.3491 255.586 34.021 255.592H34.0122H34.0137Z" fill="white"/>
<path opacity="0.12" d="M45.9954 371.772C46.3558 356.286 46.2219 219.157 45.3334 207.313C44.4464 195.47 62.8728 193.249 91.1626 191.915C119.452 190.581 358.153 185.305 364.299 184.808C378.114 183.687 380.973 204.355 379.591 249.226C378.552 282.938 376.831 338.472 376.04 364.011C375.804 371.615 369.595 377.649 361.994 377.67C304.552 377.827 84.3987 378.459 69.7426 378.896C52.877 379.398 45.8497 377.913 45.9939 371.772H45.9954Z" fill="url(#paint1_linear_481_4407)"/>
<path d="M413.941 412.3H9.05875C4.07629 412.3 0 408.22 0 403.232C0 398.245 4.07629 394.165 9.05875 394.165H413.943C418.925 394.165 423.001 398.245 423.001 403.232C423.001 408.22 418.925 412.3 413.943 412.3H413.941Z" fill="#3115BE"/>
<path d="M206.209 113.789L82.9292 215.807C85.3226 216.959 88.0352 217.553 90.8979 217.404L324.472 205.221C328.488 205.012 332.105 203.368 334.841 200.805L243.164 114.839C233.211 105.506 216.785 105.039 206.211 113.789H206.209Z" fill="url(#paint2_linear_481_4407)"/>
<path d="M319.769 390.008H94.9168C85.8389 390.008 78.4792 382.641 78.4792 373.554V226.998C78.4792 218.267 85.2932 211.056 94.0018 210.57L327.53 197.542C337.308 196.997 345.39 205.075 344.858 214.864L336.181 374.449C335.706 383.175 328.5 390.008 319.769 390.008Z" fill="url(#paint3_linear_481_4407)"/>
<path d="M212.592 301.574L335.503 199.11C333.105 197.966 330.391 197.381 327.53 197.542L94.0017 210.57C89.9857 210.794 86.3758 212.451 83.6484 215.025L175.636 300.659C185.623 309.955 202.051 310.363 212.592 301.575V301.574Z" fill="#634BD8"/>
<mask id="mask0_481_4407" style="mask-type:luminance" maskUnits="userSpaceOnUse" x="83" y="70" width="262" height="241">
<path d="M90.7919 221.674C123.18 251.825 161.457 294.775 190.062 309.584C193.767 311.503 198.219 311.28 201.702 308.98C229.608 290.546 289.911 236.352 344.881 189.973V70.8213H83.6484L90.7933 221.674H90.7919Z" fill="white"/>
</mask>
<g mask="url(#mask0_481_4407)">
<path d="M110.041 74.9546C148.643 77.7907 235.783 78.951 313.249 82.5571C316.887 82.7265 320.272 88.936 320.366 92.5127L328.173 389.852C328.279 393.879 325.057 397.232 320.957 397.355C287.426 398.37 149.344 402.053 100.308 395.622C97.3234 395.231 95.1212 392.692 95.186 389.735L101.906 81.5941C101.997 77.4078 105.791 74.641 110.039 74.9532L110.041 74.9546Z" fill="#3115BE"/>
<path d="M119.192 88.0392C152.675 89.5647 235.925 90.8797 304.771 93.3991C310.478 93.6082 310.101 104.34 310.183 107.697L316.934 383.412C317.027 387.192 314.099 390.342 310.378 390.461C279.938 391.442 154.59 395.018 110.083 389.024C107.374 388.659 105.376 386.278 105.438 383.502L111.803 94.2782C111.89 90.3496 115.329 87.8625 119.192 88.0377V88.0392Z" fill="#9581FF"/>
<path d="M264.016 176.276C264.016 182.493 263.064 188.153 261.16 193.261C259.252 198.38 256.552 202.373 253.051 205.241C249.539 208.12 245.448 209.516 240.773 209.422C237.644 209.36 234.868 208.528 232.447 206.923C230.02 205.316 228.271 203.227 227.203 200.656L226.177 200.631C221.548 206.198 215.627 208.92 208.392 208.775C200.674 208.621 194.551 206.128 190.054 201.279C185.539 196.411 183.275 189.83 183.275 181.546C183.275 172.1 186.248 164.605 192.174 159.086C198.067 153.595 205.716 151.075 215.087 151.504C218.796 151.673 222.869 152.223 227.3 153.149C231.713 154.071 235.335 155.098 238.174 156.228L236.713 188.227C236.713 194.304 238.321 197.381 241.532 197.464C244.229 197.531 246.372 195.552 247.968 191.528C249.56 187.51 250.356 182.223 250.356 175.663C250.356 168.669 248.952 162.431 246.142 156.939C243.324 151.433 239.348 147.135 234.2 144.041C229.03 140.934 223.094 139.204 216.382 138.86C207.63 138.411 199.972 139.861 193.429 143.229C186.846 146.617 181.774 151.743 178.231 158.604C174.677 165.49 172.896 173.55 172.896 182.77C172.896 195.183 176.198 204.778 182.775 211.523C189.314 218.23 198.723 221.655 210.931 221.829C215.518 221.894 220.537 221.448 225.985 220.494C231.404 219.545 236.713 218.129 241.912 216.248V228.807C232.85 232.69 222.707 234.597 211.452 234.503C194.859 234.363 181.751 229.772 172.256 220.675C162.679 211.501 157.862 198.827 157.862 182.709C157.862 171.527 160.324 161.474 165.234 152.577C170.123 143.72 177.049 136.962 185.973 132.298C194.828 127.673 204.934 125.698 216.254 126.343C225.707 126.882 234.084 129.33 241.407 133.666C248.681 137.975 254.261 143.819 258.174 151.199C262.072 158.554 264.017 166.906 264.017 176.274L264.016 176.276ZM198.636 182.301C198.636 191.684 202.401 196.471 209.89 196.661C213.79 196.76 216.748 195.436 218.773 192.69C220.795 189.949 222.02 185.441 222.448 179.162L223.285 164.611C221.096 164.039 218.622 163.698 215.862 163.586C210.452 163.368 206.225 164.926 203.195 168.267C200.156 171.617 198.633 176.298 198.633 182.301H198.636Z" fill="white"/>
</g>
<path d="M240.259 57.1849C253.328 44.1031 253.328 22.8935 240.259 9.81172C227.19 -3.27002 206.002 -3.27002 192.933 9.81171C179.864 22.8934 179.864 44.1031 192.933 57.1849C206.002 70.2666 227.19 70.2666 240.259 57.1849Z" fill="#91B3FA"/>
<path d="M189.919 20.3516C189.873 20.3516 189.826 20.3413 189.782 20.3192C189.632 20.2426 189.572 20.06 189.647 19.9084C194.813 9.66272 205.14 3.29858 216.596 3.29858C218.425 3.29858 220.255 3.4635 222.039 3.78893C222.206 3.81838 222.316 3.97741 222.285 4.1438C222.254 4.31019 222.095 4.42063 221.93 4.38971C220.183 4.07165 218.388 3.90967 216.598 3.90967C205.372 3.90967 195.254 10.1457 190.193 20.1837C190.14 20.2897 190.031 20.3516 189.92 20.3516H189.919Z" fill="#BDD0FB"/>
<path d="M217.301 61.6124C232.424 61.6124 244.683 49.3409 244.683 34.2033C244.683 19.0657 232.424 6.79419 217.301 6.79419C202.178 6.79419 189.919 19.0657 189.919 34.2033C189.919 49.3409 202.178 61.6124 217.301 61.6124Z" fill="url(#paint4_linear_481_4407)"/>
<path d="M204.844 28.5415C205.8 25.813 208.189 23.8531 211.011 23.8192C214.737 23.7751 217.798 27.0955 217.798 31.2392C217.798 27.097 220.893 23.7 224.762 23.6543C227.766 23.6175 230.361 25.6083 231.414 28.4591C235.448 38.7489 217.798 47.7783 217.798 47.7783C217.798 47.7783 201.246 38.2144 204.844 28.5415Z" fill="url(#paint5_linear_481_4407)"/>
<path d="M350.914 62.4396C361.188 52.156 361.188 35.4831 350.914 25.1995C340.641 14.916 323.984 14.916 313.711 25.1995C303.437 35.4831 303.437 52.1561 313.711 62.4396C323.984 72.7232 340.641 72.7232 350.914 62.4396Z" fill="#91B3FA"/>
<path d="M311.341 33.4862C311.304 33.4862 311.268 33.4774 311.234 33.4597C311.116 33.3993 311.067 33.255 311.128 33.1372C315.189 25.0841 323.307 20.0806 332.312 20.0806C333.75 20.0806 335.188 20.2101 336.59 20.4664C336.721 20.4899 336.806 20.6151 336.783 20.7461C336.759 20.8772 336.634 20.9641 336.503 20.939C335.129 20.6887 333.719 20.5621 332.311 20.5621C323.488 20.5621 315.534 25.464 311.554 33.3551C311.512 33.4391 311.428 33.4877 311.34 33.4877L311.341 33.4862Z" fill="#BDD0FB"/>
<path d="M348.086 59.6108C356.492 51.1967 356.492 37.5548 348.086 29.1407C339.68 20.7266 326.052 20.7266 317.646 29.1407C309.24 37.5548 309.24 51.1967 317.646 59.6108C326.052 68.0249 339.68 68.0249 348.086 59.6108Z" fill="url(#paint6_linear_481_4407)"/>
<path d="M338.559 35.5711C338.559 38.7959 335.947 42.2754 332.726 42.2754C329.504 42.2754 326.893 38.7944 326.893 35.5711C326.893 32.3478 329.504 30.0596 332.726 30.0596C335.947 30.0596 338.559 32.3464 338.559 35.5711Z" fill="url(#paint7_linear_481_4407)"/>
<path d="M325.488 54.6901H339.725C341.224 54.6901 342.551 53.7212 343.007 52.2914L343.773 49.8942C344.334 48.139 343.422 46.2395 341.693 45.6063C335.899 43.4859 329.907 43.7583 323.77 45.8021C322.05 46.3749 321.097 48.2155 321.571 49.9663L322.161 52.1427C322.568 53.6461 323.93 54.6887 325.487 54.6887L325.488 54.6901Z" fill="url(#paint8_linear_481_4407)"/>
<path d="M79.8554 141.531C92.4188 128.956 92.4188 108.566 79.8554 95.9907C67.2921 83.415 46.9229 83.415 34.3595 95.9907C21.7962 108.566 21.7962 128.956 34.3595 141.531C46.9229 154.107 67.2921 154.107 79.8554 141.531Z" fill="#91B3FA"/>
<path d="M31.4613 106.123C31.4172 106.123 31.3716 106.113 31.3289 106.092C31.1848 106.019 31.1259 105.842 31.1995 105.698C36.1657 95.848 46.0939 89.7297 57.1077 89.7297C58.8641 89.7297 60.625 89.8888 62.3402 90.2009C62.4991 90.2304 62.605 90.3835 62.577 90.5426C62.5476 90.7016 62.3946 90.8091 62.2358 90.7782C60.5558 90.4719 58.8303 90.3173 57.1091 90.3173C46.3175 90.3173 36.5909 96.3118 31.7246 105.961C31.6731 106.064 31.5702 106.123 31.4628 106.123H31.4613Z" fill="#BDD0FB"/>
<path d="M76.3977 138.072C86.6775 127.783 86.6775 111.099 76.3977 100.809C66.1179 90.5196 49.4511 90.5196 39.1713 100.809C28.8915 111.099 28.8915 127.783 39.1713 138.072C49.4511 148.362 66.1179 148.362 76.3977 138.072Z" fill="url(#paint9_linear_481_4407)"/>
<path d="M51.3396 109.856H47.5222C46.9194 109.856 46.4307 110.345 46.4307 110.948V128.386C46.4307 128.989 46.9194 129.478 47.5222 129.478H51.3396C51.9424 129.478 52.4311 128.989 52.4311 128.386V110.948C52.4311 110.345 51.9424 109.856 51.3396 109.856Z" fill="url(#paint10_linear_481_4407)"/>
<path d="M65.975 109.856H62.0326V105.162C62.0326 103.648 61.2338 102.648 59.7215 102.648H59.6244C58.1107 102.648 56.8853 103.761 56.8853 105.276L55.579 109.95C54.9759 109.95 54.0315 110.382 54.0315 110.985V128.898C54.0315 129.502 55.4334 130.281 56.0365 130.281H65.975C68.2389 130.281 70.0336 128.153 70.0336 125.888V113.995C70.0336 111.73 68.2389 109.857 65.975 109.857V109.856Z" fill="url(#paint11_linear_481_4407)"/>
<path d="M122.379 52.4603C132.01 42.8197 132.01 27.1891 122.379 17.5484C112.748 7.90778 97.1328 7.90779 87.5016 17.5484C77.8704 27.1891 77.8704 42.8197 87.5016 52.4603C97.1328 62.101 112.748 62.101 122.379 52.4603Z" fill="#91B3FA"/>
<path d="M85.2799 25.3165C85.2461 25.3165 85.2108 25.3092 85.1784 25.293C85.0681 25.237 85.0225 25.1016 85.0784 24.9911C88.8854 17.4402 96.4952 12.7502 104.939 12.7502C106.287 12.7502 107.636 12.8725 108.949 13.111C109.071 13.1331 109.152 13.2509 109.13 13.3731C109.108 13.4953 108.99 13.5778 108.868 13.5542C107.581 13.3201 106.259 13.2008 104.938 13.2008C96.6659 13.2008 89.2091 17.7965 85.4785 25.1943C85.4388 25.2724 85.3593 25.318 85.277 25.318L85.2799 25.3165Z" fill="#BDD0FB"/>
<path d="M105.46 55.7252C116.605 55.7252 125.64 46.6814 125.64 35.5254C125.64 24.3694 116.605 15.3257 105.46 15.3257C94.3146 15.3257 85.2798 24.3694 85.2798 35.5254C85.2798 46.6814 94.3146 55.7252 105.46 55.7252Z" fill="url(#paint12_linear_481_4407)"/>
<path d="M98.7151 27.3485V43.7728C98.7151 44.8271 99.6065 45.4853 100.377 45.0009L114.118 36.3676C114.976 35.8287 114.976 34.3032 114.118 33.8172L100.377 26.0189C99.6065 25.5815 98.7151 26.2942 98.7151 27.3485Z" fill="url(#paint13_linear_481_4407)"/>
<path d="M383.889 142.527C395.274 131.131 395.274 112.653 383.889 101.256C372.503 89.8589 354.043 89.8589 342.658 101.256C331.272 112.653 331.272 131.131 342.658 142.527C354.043 153.924 372.503 153.924 383.889 142.527Z" fill="#91B3FA"/>
<path d="M340.03 110.437C339.99 110.437 339.949 110.429 339.911 110.409C339.78 110.343 339.727 110.183 339.793 110.052C344.294 101.125 353.29 95.5813 363.272 95.5813C364.864 95.5813 366.46 95.7256 368.014 96.0083C368.158 96.0348 368.253 96.1732 368.227 96.3175C368.2 96.4619 368.062 96.559 367.918 96.5311C366.395 96.2528 364.832 96.1129 363.272 96.1129C353.493 96.1129 344.678 101.545 340.268 110.29C340.221 110.383 340.128 110.436 340.03 110.436V110.437Z" fill="#BDD0FB"/>
<path d="M363.886 146.385C377.061 146.385 387.742 135.694 387.742 122.506C387.742 109.318 377.061 98.6265 363.886 98.6265C350.711 98.6265 340.03 109.318 340.03 122.506C340.03 135.694 350.711 146.385 363.886 146.385Z" fill="url(#paint14_linear_481_4407)"/>
<path d="M354.224 117.076C354.224 120.857 358.622 129.849 361.728 135.732C363.022 138.182 366.431 138.347 367.73 136.016C370.862 130.399 375.326 121.718 375.326 117.902C375.326 112.012 370.567 107.073 364.726 106.871C358.914 106.671 354.224 111.24 354.224 117.076ZM359.075 117.265C359.075 114.126 361.601 111.673 364.726 111.786C367.859 111.901 370.405 114.552 370.405 117.707C370.405 120.863 367.859 123.314 364.726 123.185C361.601 123.055 359.075 120.405 359.075 117.264V117.265Z" fill="url(#paint15_linear_481_4407)"/>
</g>
<defs>
<linearGradient id="paint0_linear_481_4407" x1="398.826" y1="278.991" x2="18.8486" y2="278.991" gradientUnits="userSpaceOnUse">
<stop stop-color="#C757FF"/>
<stop offset="1" stop-color="#6D53FF"/>
</linearGradient>
<linearGradient id="paint1_linear_481_4407" x1="45.3027" y1="281.249" x2="379.904" y2="281.249" gradientUnits="userSpaceOnUse">
<stop stop-color="#6D53FF"/>
<stop offset="1" stop-color="#8A49F7"/>
</linearGradient>
<linearGradient id="paint2_linear_481_4407" x1="225.761" y1="96.6887" x2="182.887" y2="379.686" gradientUnits="userSpaceOnUse">
<stop stop-color="#E1473D"/>
<stop offset="1" stop-color="#E9605A"/>
</linearGradient>
<linearGradient id="paint3_linear_481_4407" x1="344.883" y1="293.761" x2="78.4792" y2="293.761" gradientUnits="userSpaceOnUse">
<stop stop-color="#C757FF"/>
<stop offset="1" stop-color="#6D53FF"/>
</linearGradient>
<linearGradient id="paint4_linear_481_4407" x1="189.919" y1="34.0265" x2="244.683" y2="34.0265" gradientUnits="userSpaceOnUse">
<stop stop-color="#6D53FF"/>
<stop offset="1" stop-color="#8A49F7"/>
</linearGradient>
<linearGradient id="paint5_linear_481_4407" x1="204.332" y1="35.7155" x2="232.013" y2="35.7155" gradientUnits="userSpaceOnUse">
<stop stop-color="#DAE3FE"/>
<stop offset="1" stop-color="#E9EFFD"/>
</linearGradient>
<linearGradient id="paint6_linear_481_4407" x1="317.548" y1="59.5125" x2="348.018" y2="29.0723" gradientUnits="userSpaceOnUse">
<stop stop-color="#6D53FF"/>
<stop offset="1" stop-color="#8A49F7"/>
</linearGradient>
<linearGradient id="paint7_linear_481_4407" x1="326.895" y1="36.1675" x2="338.559" y2="36.1675" gradientUnits="userSpaceOnUse">
<stop stop-color="#DAE3FE"/>
<stop offset="1" stop-color="#E9EFFD"/>
</linearGradient>
<linearGradient id="paint8_linear_481_4407" x1="321.452" y1="49.4142" x2="343.94" y2="49.4142" gradientUnits="userSpaceOnUse">
<stop stop-color="#DAE3FE"/>
<stop offset="1" stop-color="#E9EFFD"/>
</linearGradient>
<linearGradient id="paint9_linear_481_4407" x1="39.0512" y1="137.952" x2="76.3142" y2="100.726" gradientUnits="userSpaceOnUse">
<stop stop-color="#6D53FF"/>
<stop offset="1" stop-color="#8A49F7"/>
</linearGradient>
<linearGradient id="paint10_linear_481_4407" x1="46.4307" y1="119.667" x2="52.4311" y2="119.667" gradientUnits="userSpaceOnUse">
<stop stop-color="#DAE3FE"/>
<stop offset="1" stop-color="#E9EFFD"/>
</linearGradient>
<linearGradient id="paint11_linear_481_4407" x1="54.0315" y1="116.464" x2="70.0336" y2="116.464" gradientUnits="userSpaceOnUse">
<stop stop-color="#DAE3FE"/>
<stop offset="1" stop-color="#E9EFFD"/>
</linearGradient>
<linearGradient id="paint12_linear_481_4407" x1="85.2798" y1="35.3951" x2="125.64" y2="35.3951" gradientUnits="userSpaceOnUse">
<stop stop-color="#6D53FF"/>
<stop offset="1" stop-color="#8A49F7"/>
</linearGradient>
<linearGradient id="paint13_linear_481_4407" x1="98.7151" y1="35.5253" x2="114.761" y2="35.5253" gradientUnits="userSpaceOnUse">
<stop stop-color="#DAE3FE"/>
<stop offset="1" stop-color="#E9EFFD"/>
</linearGradient>
<linearGradient id="paint14_linear_481_4407" x1="340.03" y1="122.352" x2="387.742" y2="122.352" gradientUnits="userSpaceOnUse">
<stop stop-color="#6D53FF"/>
<stop offset="1" stop-color="#8A49F7"/>
</linearGradient>
<linearGradient id="paint15_linear_481_4407" x1="354.224" y1="122.268" x2="375.326" y2="122.268" gradientUnits="userSpaceOnUse">
<stop stop-color="#DAE3FE"/>
<stop offset="1" stop-color="#E9EFFD"/>
</linearGradient>
<clipPath id="clip0_481_4407">
<rect width="423" height="459" fill="white"/>
</clipPath>
</defs>
</svg>
