<svg width="89" height="88" viewBox="0 0 89 88" fill="none" xmlns="http://www.w3.org/2000/svg">
<path d="M5.71893 17.0623V76.7082C5.71893 79.8449 8.26158 82.3887 11.3968 82.3887H82.3913C85.5266 82.3887 88.0692 79.8449 88.0692 76.7082V17.0623H5.71204H5.71893Z" fill="#EEEFF3"/>
<path d="M17.0748 25.59H76.7066C78.2708 25.59 79.5455 26.8654 79.5455 28.4303V71.0345C79.5455 72.5994 78.2708 73.8748 76.7066 73.8748H17.0748C15.5106 73.8748 14.2358 72.5994 14.2358 71.0345V28.4303C14.2358 26.8654 15.5106 25.59 17.0748 25.59Z" fill="url(#paint0_linear_829_8709)"/>
<path opacity="0.25" d="M76.7135 25.59H25.0542C24.8819 27.0446 24.7786 28.5199 24.7786 30.0228C24.7786 50.4356 41.3162 66.9809 61.7194 66.9809C68.1897 66.9809 74.2673 65.3126 79.5593 62.3896V28.4372C79.5593 26.8654 78.2846 25.5969 76.7204 25.5969L76.7135 25.59Z" fill="white"/>
<path d="M88.0763 5.68739C88.0763 2.55067 85.5336 0.00683594 82.3984 0.00683594H11.4039C8.26861 0.00683594 5.72595 2.55067 5.72595 5.68739V17.0692H88.0832V5.68739H88.0763Z" fill="#8066ED"/>
<path d="M88.0763 5.68739C88.0763 2.55067 85.5336 0.00683594 82.3984 0.00683594H11.4039C8.26861 0.00683594 5.72595 2.55067 5.72595 5.68739V17.0692H88.0832V5.68739H88.0763Z" fill="url(#paint1_linear_829_8709)"/>
<path opacity="0.25" d="M82.3914 0H24.1929V2.84718C24.1929 5.9839 26.7355 8.52773 29.8708 8.52773H88.0693V5.68058C88.0693 2.54386 85.5267 0 82.3914 0Z" fill="white"/>
<path d="M19.9206 8.53477C19.9206 10.1066 18.6458 11.375 17.0816 11.375C15.5175 11.375 14.2427 10.0997 14.2427 8.53477C14.2427 6.96985 15.5175 5.69449 17.0816 5.69449C18.6458 5.69449 19.9206 6.96985 19.9206 8.53477Z" fill="#EEEFF3"/>
<path d="M31.373 8.53477C31.373 10.1066 30.0982 11.375 28.534 11.375C26.9698 11.375 25.6951 10.0997 25.6951 8.53477C25.6951 6.96985 26.9698 5.69449 28.534 5.69449C30.0982 5.69449 31.373 6.96985 31.373 8.53477Z" fill="#EEEFF3"/>
<path d="M42.8252 8.53477C42.8252 10.1066 41.5505 11.375 39.9863 11.375C38.4221 11.375 37.1473 10.0997 37.1473 8.53477C37.1473 6.96985 38.4221 5.69449 39.9863 5.69449C41.5505 5.69449 42.8252 6.96985 42.8252 8.53477Z" fill="#EEEFF3"/>
<path d="M10.2875 65.8228L3.78273 72.3306C2.67333 73.4406 2.67333 75.2399 3.78273 76.3498L9.46064 82.0303C10.57 83.1403 12.3685 83.1403 13.4779 82.0303L19.9827 75.5225L10.2875 65.8228Z" fill="#FEC200"/>
<path opacity="0.1" d="M12.2996 79.1833L6.62168 73.5027C5.51228 72.3928 5.51228 70.5935 6.62168 69.4836L3.78273 72.3239C2.67333 73.4338 2.67333 75.2331 3.78273 76.343L9.46064 82.0236C10.57 83.1335 12.3685 83.1335 13.4779 82.0236L16.3168 79.1833C15.2074 80.2932 13.409 80.2932 12.2996 79.1833Z" fill="black"/>
<path d="M13.1333 82.3681L17.9912 77.5079L31.0352 81.8304C33.0404 82.8024 33.4883 85.4703 31.9104 87.049C30.9319 88.028 29.4435 88.2761 28.1963 87.6764L13.1333 82.3681Z" fill="#5D5B68"/>
<path d="M1.4192 77.6942C-0.427495 79.5417 -0.427495 82.5406 1.4192 84.3881C3.2659 86.2357 6.26334 86.2357 8.11004 84.3881L9.96362 82.5337L3.27279 75.8397L1.4192 77.6942Z" fill="#5D5B68"/>
<path d="M19.4315 41.7011L44.1001 66.3812C33.7917 66.7259 25.0887 71.2 19.9828 75.5294L10.2876 65.8297C14.608 60.7144 19.0939 52.0144 19.4315 41.7011Z" fill="#5D5B68"/>
<path opacity="0.1" d="M42.2603 64.5405C38.6358 60.9143 33.075 59.9905 28.5065 62.3275C28.4514 62.3551 28.4032 62.3827 28.348 62.4103C23.7933 64.7611 18.2325 63.8304 14.608 60.2042L14.3255 59.9216C13.0576 62.2103 11.6657 64.2096 10.2876 65.8365L19.9828 75.5362C25.0956 71.2138 33.7985 66.7327 44.1001 66.388L42.2603 64.5474V64.5405Z" fill="white"/>
<path d="M18.5631 37.5236C17.6466 38.4405 17.6466 39.9227 18.5631 40.8327L44.9612 67.2431C45.8777 68.16 47.3592 68.16 48.2687 67.2431C49.1852 66.3262 49.1852 64.8441 48.2687 63.9341L21.8706 37.5236C20.9541 36.6067 19.4726 36.6067 18.5631 37.5236Z" fill="#EEEFF3"/>
<path d="M29.5331 45.1893L40.6064 56.2678C42.7839 53.1586 42.4945 48.85 39.7175 46.0717C36.9406 43.2935 32.6339 43.0039 29.5262 45.1824L29.5331 45.1893Z" fill="#FEC200"/>
<path d="M28.2239 77.8528L24.3927 76.4533C23.9586 76.2948 23.4693 76.5154 23.3108 76.9566L22.5529 79.0178L28.0309 80.8309L28.7269 78.9351C28.8854 78.5008 28.6649 78.0113 28.2239 77.8528Z" fill="#3C3846"/>
<path d="M72.4481 31.2776H48.889C48.105 31.2776 47.4695 31.9135 47.4695 32.6978V39.9364C47.4695 40.7207 48.105 41.3565 48.889 41.3565H72.4481C73.2321 41.3565 73.8676 40.7207 73.8676 39.9364V32.6978C73.8676 31.9135 73.2321 31.2776 72.4481 31.2776Z" fill="#FEC200"/>
<path d="M73.8675 49.4155H47.4694C46.6839 49.4155 46.0499 48.7813 46.0499 47.9954C46.0499 47.2095 46.6839 46.5752 47.4694 46.5752H73.8675C74.6531 46.5752 75.287 47.2095 75.287 47.9954C75.287 48.7813 74.6531 49.4155 73.8675 49.4155Z" fill="white"/>
<path d="M73.8676 56.0543H61.678C60.8925 56.0543 60.2585 55.4201 60.2585 54.6342C60.2585 53.8483 60.8925 53.214 61.678 53.214H73.8676C74.6531 53.214 75.2871 53.8483 75.2871 54.6342C75.2871 55.4201 74.6531 56.0543 73.8676 56.0543Z" fill="white"/>
<path opacity="0.1" d="M18.3426 10.1065C16.7716 10.1065 15.5037 8.83113 15.5037 7.26621C15.5037 6.81122 15.6208 6.3838 15.8138 5.99774C14.8835 6.46653 14.2427 7.41787 14.2427 8.52779C14.2427 10.0996 15.5175 11.3681 17.0816 11.3681C18.191 11.3681 19.1419 10.7269 19.6105 9.79626C19.2246 9.98929 18.8043 10.1065 18.3426 10.1065Z" fill="black"/>
<path opacity="0.1" d="M29.795 10.1065C28.2239 10.1065 26.9561 8.83113 26.9561 7.26621C26.9561 6.81122 27.0732 6.3838 27.2661 5.99774C26.3359 6.46653 25.6951 7.41787 25.6951 8.52779C25.6951 10.0996 26.9698 11.3681 28.534 11.3681C29.6434 11.3681 30.5943 10.7269 31.0629 9.79626C30.677 9.98929 30.2567 10.1065 29.795 10.1065Z" fill="black"/>
<path opacity="0.1" d="M41.2473 10.1065C39.6762 10.1065 38.4083 8.83113 38.4083 7.26621C38.4083 6.81122 38.5255 6.3838 38.7184 5.99774C37.7882 6.46653 37.1473 7.41787 37.1473 8.52779C37.1473 10.0996 38.4221 11.3681 39.9863 11.3681C41.0957 11.3681 42.0466 10.7269 42.5152 9.79626C42.1293 9.98929 41.709 10.1065 41.2473 10.1065Z" fill="black"/>
<path opacity="0.35" d="M42.1224 17.0623C38.4427 17.0623 38.2774 22.6877 41.957 22.7429C41.9914 22.7429 42.019 22.7429 42.0534 22.7429H79.5524C81.1235 22.7429 82.3914 24.0182 82.3914 25.5832V42.356C82.3914 43.9002 83.6524 45.1618 85.1959 45.1618H85.2717C86.8221 45.1618 88.0762 43.9071 88.0762 42.356V17.0554H42.1292L42.1224 17.0623Z" fill="white"/>
<path opacity="0.1" d="M48.2757 63.9341L21.8776 37.5236C20.9611 36.6067 19.4796 36.6067 18.5701 37.5236L48.2826 67.25C49.1991 66.3331 49.1991 64.8509 48.2826 63.941L48.2757 63.9341Z" fill="black"/>
<path opacity="0.1" d="M32.3307 43.9625C31.3453 44.19 30.3944 44.5829 29.5331 45.1827L40.6064 56.2612C41.2059 55.3994 41.6055 54.4481 41.826 53.4622L32.3238 43.9556L32.3307 43.9625Z" fill="black"/>
<defs>
<linearGradient id="paint0_linear_829_8709" x1="79.5455" y1="49.7323" x2="14.2358" y2="49.7323" gradientUnits="userSpaceOnUse">
<stop stop-color="#C757FF"/>
<stop offset="1" stop-color="#6D53FF"/>
</linearGradient>
<linearGradient id="paint1_linear_829_8709" x1="5.72595" y1="8.48298" x2="88.0832" y2="8.48298" gradientUnits="userSpaceOnUse">
<stop stop-color="#6D53FF"/>
<stop offset="1" stop-color="#8A49F7"/>
</linearGradient>
</defs>
</svg>
