<svg width="550" height="407" viewBox="0 0 550 407" fill="none" xmlns="http://www.w3.org/2000/svg">
<path d="M524.913 269.71L522.264 318.905L517.334 385.325L509.947 385.848L500.975 325.528L488.565 274.486L524.913 269.71Z" fill="url(#paint0_linear_481_5026)"/>
<path d="M510.208 388.961L518.478 392.383L522.189 388.107L517.915 384.395L509.93 384.964L510.208 388.961Z" fill="#F682C9"/>
<path d="M468.309 266.028L466.689 295.551L471.497 383.338L478.89 383.71L489.976 326.132L499.75 262.989L468.309 266.028Z" fill="url(#paint1_linear_481_5026)"/>
<path d="M478.693 385.093L470.499 388.695L466.701 386.226L470.899 382.426L478.896 382.827L478.693 385.093Z" fill="#F682C9"/>
<path d="M508.472 175.353L485.319 173.831C485.319 173.831 472.549 175.731 465.104 206.556C460.963 223.705 460.591 250.475 461.073 270.849C461.735 273.731 465.423 286.32 478.71 283.613C501.527 278.959 513.594 274.747 523.676 276.188C532.27 277.687 531.068 265.987 529.762 257.069L525.226 229.497L508.472 175.347V175.353Z" fill="#6F53FF"/>
<path d="M502.839 146.834C496.974 145.794 490.946 144.894 485.179 146.282C483.913 146.584 482.566 147.09 481.921 148.217C481.672 148.653 481.55 149.152 481.439 149.64C480.197 155.159 478.669 163.327 482.467 168.207C483.193 169.137 484.146 169.863 485.156 170.438C486.509 171.211 487.996 171.71 489.523 171.949C489.268 173.32 488.884 174.667 488.385 175.969C489.796 177.921 496.01 177.903 497.078 175.934C497.078 174.267 497.073 172.599 497.067 170.932C497.81 170.595 498.524 170.194 499.192 169.712C501.771 167.853 503.408 165.134 504.303 162.125C505.272 158.848 506.701 155.717 507.578 152.382C507.897 151.168 508.13 149.785 507.456 148.728C506.736 147.601 505.272 147.27 503.954 147.032C503.583 146.968 503.211 146.898 502.839 146.834Z" fill="#B97262"/>
<path d="M483.629 150.75C486.422 148.786 490.702 147.81 493.408 147.898C501.596 148.153 504.837 154.027 505.58 161.521C507.712 158.57 511.782 154.799 511.887 151.104C511.974 148.083 511.388 143.994 509.593 141.461C507.915 139.09 503.821 137.923 501.364 136.61C499.047 135.372 496.73 134.135 494.413 132.903C493.931 132.648 493.437 132.386 492.891 132.311C492.253 132.224 491.608 132.415 490.992 132.601C485.702 134.205 480.412 135.808 475.121 137.411C474.105 137.719 472.949 138.155 472.612 139.16C472.409 139.77 472.572 140.438 472.734 141.066C473.454 143.819 474.738 146.608 475.144 149.408C475.539 151.029 476.858 159.365 479.709 158.279C480.499 156.856 480.557 155.136 481.161 153.62C481.602 152.499 482.496 151.54 483.629 150.744V150.75Z" fill="#3B455A"/>
<path d="M485.319 173.837L476.904 176.782L447.13 210.675L445.725 221.498L461.613 245.456L465.254 236.283L458.21 218.384L467.92 210.93L480.022 180.367L485.319 173.837Z" fill="#C4B8FF"/>
<path d="M503.664 177.532L518.803 159.749L513.158 113.494L519.994 110.142L531.405 156.839L528.995 168.69L512.241 193.938L503.664 177.532Z" fill="#C4B8FF"/>
<path d="M518.53 110.862L518.356 106.61L513.199 100.341L509.97 103.467L512.403 109.131L511.097 111.17L513.158 113.494L518.53 110.862Z" fill="#B97262"/>
<path d="M106.598 166.703L114.241 161.358L113.155 156.484L105.408 159.156L101.668 161.596V164.298L106.598 166.703Z" fill="#EFBFA5"/>
<path d="M33.9896 372.846C33.1999 371.974 32.2823 371.504 31.2428 371.667C30.244 371.823 29.3438 372.503 28.9315 373.409C28.6528 374.025 28.5889 374.717 28.5366 375.39C28.2463 378.876 28.2753 387.16 32.9211 388.351C34.8723 388.851 36.4868 385.731 37.0094 383.983C37.7934 381.339 36.6319 375.756 33.9955 372.852L33.9896 372.846Z" fill="#F682C9"/>
<path d="M35.639 320.235L35.3951 341.51C35.6797 350.956 34.2046 360.46 34.4834 369.906C34.5472 372.079 35.1164 374.368 34.5647 376.523C34.0304 378.632 32.3173 379.004 30.5635 377.935C28.2115 376.506 28.589 373.171 28.1999 370.731C27.1256 364.039 25.8596 357.381 24.7388 350.7C24.1871 347.424 25.3253 342.834 25.0756 339.517L21.6377 321.688L35.6332 320.235H35.639Z" fill="#EFBFA5"/>
<path d="M11.3472 285.867L20.5981 326.992L22.5668 365.828L37.2417 365.497L41.2313 256.866L12.7816 257.383L11.3472 285.867Z" fill="#6F53FF"/>
<path d="M54.9775 370.342C54.1529 369.517 53.2179 369.099 52.19 369.326C51.2028 369.541 50.3375 370.273 49.96 371.202C49.7045 371.835 49.6755 372.533 49.6523 373.206C49.5129 376.715 49.8962 385 54.571 385.918C56.5397 386.301 58.0844 384.82 58.5316 383.036C59.1994 380.346 57.7302 373.09 54.9775 370.342Z" fill="#F682C9"/>
<path d="M47.2421 323.222L48.4848 344.461C48.5894 350.364 49.3733 356.219 49.9831 362.081C50.5522 367.525 49.6695 373.201 52.5093 378.15C53.4036 379.701 55.2038 380.735 56.464 378.853C57.4338 377.401 56.8589 374.972 57.0447 373.323C57.8055 366.589 58.7521 359.879 59.5593 353.152C59.9542 349.852 58.6069 345.321 58.694 341.998L61.284 324.029L47.2305 323.227L47.2421 323.222Z" fill="#EFBFA5"/>
<path d="M65.8139 283.351L67.0102 323.274L60.7441 363.644L45.8195 364.091L46.4757 320.398L38.5778 284.17L35.9297 260.45L59.6117 257.656L65.8139 283.351Z" fill="url(#paint2_linear_481_5026)"/>
<path d="M47.0796 175.957L21.5625 175.347L6.76562 202.872L12.0212 228.655L12.962 259.509L49.3619 260.003L61.3365 258.057L58.1541 225.094L59.8208 184.869L47.0796 175.957Z" fill="#9972FF"/>
<path d="M20.7145 177.247L0 208.809L3.11269 226.389L35.192 248.622L41.2316 243.341L19.7853 216.217L20.6158 199.079L20.7145 177.247Z" fill="#C4B8FF"/>
<path d="M45.5288 193.775L70.0471 202.623L84.2342 199.125L108.752 166.947L100.216 163.229L74.4664 185.345L51.156 178.362L45.5288 193.775Z" fill="#C4B8FF"/>
<path d="M29.106 175.812L37.0271 187.001L40.7437 186.699L46.9459 175.347L29.106 175.812Z" fill="#7DB5DB"/>
<path d="M35.3777 244.683L35.2441 248.988L42.84 251.753L47.2187 248.436V243.422L42.991 243.19L42.8575 242.086L41.4753 241.197L35.3777 244.683Z" fill="#EFBFA5"/>
<path d="M38.4555 153.341C40.1105 151.883 42.0037 151.615 44.1117 151.598C45.1106 151.592 45.4416 151.848 45.9585 151.761C46.1907 151.72 46.4579 151.609 46.8354 151.371C47.5903 150.901 48.2639 149.669 48.6182 148.664C50.5752 149.901 51.998 152.138 52.3929 155.542C52.8168 159.243 52.811 163.153 51.545 166.854C50.2791 170.56 47.5671 174.04 44.0595 175.417C43.8562 175.498 43.653 175.568 43.4497 175.632C41.9456 176.125 40.517 176.224 39.193 176.009L34.7679 173.9C34.5472 173.715 34.3323 173.517 34.1291 173.308C32.6772 167.005 34.251 157.047 38.4613 153.335L38.4555 153.341Z" fill="#EFBFA5"/>
<path d="M1.67823 230.462C2.01505 232.431 3.02551 234.209 4.41926 235.655C5.31938 236.591 6.3763 237.381 7.51453 237.991C10.4123 239.542 13.7748 240.03 17.0617 240.024C19.6924 240.024 22.3637 239.722 24.9305 240.285C27.5031 240.849 30.0467 242.522 30.6971 245.072C31.0572 246.478 30.941 248.25 32.1547 249.04C32.7239 249.412 33.444 249.441 34.1292 249.464C36.2082 249.522 38.5776 249.464 39.9713 247.925C42.1374 245.531 40.8714 240.739 43.7925 239.379C44.6462 238.978 45.6392 239.042 46.5684 238.885C50.5231 238.217 52.4569 233.738 52.0795 229.631C51.9982 228.777 51.8239 227.94 51.5452 227.162C49.9133 222.601 46.1212 219.214 43.2524 215.31C37.6542 207.688 33.8679 197.504 37.3116 188.482C37.6368 187.634 37.9968 186.78 38.2233 185.903C38.3453 185.421 38.4324 184.933 38.4382 184.433C38.4905 181.743 36.487 179.524 35.1919 177.165C35.07 176.945 34.9596 176.712 34.8493 176.468C34.588 175.876 34.3673 175.208 34.1873 174.499C34.1582 174.394 34.135 174.284 34.1118 174.174C30.1396 170.212 28.5484 162.851 31.1617 157.349C31.3127 157.036 31.4695 156.728 31.6321 156.431C31.4637 156.728 31.3069 157.036 31.1617 157.349C28.5484 162.851 30.1396 170.212 34.1118 174.174C32.66 167.87 34.2337 157.913 38.444 154.201C40.0991 152.742 41.9922 152.475 44.1003 152.458C45.0991 152.452 45.4301 152.708 45.947 152.62C46.1793 152.58 46.4464 152.469 46.8239 152.231C47.5788 151.761 48.2525 150.529 48.6067 149.524C50.5638 150.761 51.9865 152.998 52.3814 156.402C52.8054 160.103 52.7996 164.013 51.5336 167.713C50.2676 171.42 47.5556 174.9 44.048 176.277C43.8448 176.358 43.6415 176.428 43.4383 176.492C43.6125 176.805 43.8331 177.125 44.1177 177.439C46.0399 179.553 49.1294 180.047 51.9633 180.413C52.3059 180.459 52.666 180.5 52.9912 180.372C53.5255 180.163 53.7984 179.547 53.7984 178.978C53.7984 178.409 53.5951 177.857 53.4384 177.311C51.7891 171.571 54.7101 165.018 55.198 159.226C55.6858 153.451 54.4895 147.165 49.8611 143.261C49.0771 143.476 48.3105 143.773 47.5846 144.139C47.5091 144.04 47.4395 143.947 47.3582 143.854C40.6508 135.796 31.1791 142.686 26.0861 148.839C21.8875 153.91 18.3857 159.731 16.7829 166.168C15.2788 172.187 14.7794 181.035 15.4124 187.187C15.7841 190.777 17.201 194.303 17.956 197.824C18.4206 200.014 18.6296 202.199 18.165 204.4C17.1952 208.978 13.5715 212.336 10.0407 215.514C9.72129 216.339 9.39608 217.175 9.08249 218.024C8.76309 218.872 8.4495 219.731 8.1359 220.609C7.93265 221.172 7.7352 221.742 7.54937 222.323C7.74101 221.742 7.93265 221.166 8.1359 220.609C8.4495 219.737 8.7689 218.872 9.08249 218.024C9.40189 217.175 9.72129 216.339 10.0407 215.514C9.55288 215.955 9.06507 216.391 8.58306 216.827C4.64574 220.411 0.772295 225.21 1.66661 230.462H1.67823ZM36.9457 150.709C37.4684 150.361 38.0027 150.053 38.5485 149.78C38.0027 150.053 37.4684 150.366 36.9457 150.709Z" fill="#2F3849"/>
<path d="M507.131 7.43018H399.528V91.4526H507.131V7.43018Z" fill="url(#paint3_linear_481_5026)"/>
<path d="M394.557 52.0645L395.068 122.865L498.089 122.121C505.882 122.063 512.148 115.266 512.09 106.935L511.69 51.2222L453.385 88.1704L394.557 52.0645Z" fill="#5D46D1"/>
<path d="M498.647 23.0635H418.994V24.7773H498.647V23.0635Z" fill="#F7F7F7"/>
<path d="M498.647 36.437H408.007V38.2147H498.647V36.437Z" fill="#F7F7F7"/>
<path d="M498.647 49.8452H408.007V51.6229H498.647V49.8452Z" fill="#F7F7F7"/>
<path d="M107.138 103.78L92.3009 134.716L92.2603 90.9473L237.866 0L107.138 103.78Z" fill="#305399"/>
<path opacity="0.13" d="M92.2949 91.2786L179.752 45.8892L106.72 104.652L92.4111 134.228L92.2949 91.2786Z" fill="#F682C9"/>
<path d="M92.3008 134.716L106.691 104.257L237.54 0.453125L92.3008 134.716Z" fill="#F22293"/>
<path d="M237.54 0.453139L237.866 0L236.17 1.31294L237.54 0.453139Z" fill="#707F78"/>
<path d="M237.541 0.453125L236.17 1.31293L106.726 104.065L106.575 104.152L148.295 141.641L237.541 0.453125Z" fill="#6F53FF"/>
<path d="M237.866 0L56.4526 59.1172L92.0512 91.1041L236.17 1.31294L237.866 0Z" fill="#6F53FF"/>
<path d="M165.472 380.497L164.892 385.034L173.376 389.008L178.492 386.783L174.543 381.665L166.053 375.96L165.472 380.497Z" fill="#F682C9"/>
<path d="M165.188 378.975L171.733 321.118L163.858 256.343L165.629 242.563L200.798 241.227L202.07 263.657L196.164 321.206L173.951 381.932L165.188 378.975Z" fill="url(#paint4_linear_481_5026)"/>
<path d="M204.102 177.212L221.797 182.028L242.256 218.303L232.563 227.278L218.922 211.122L204.102 177.212Z" fill="#C5006B"/>
<path d="M226.611 247.71L226.704 306.101L214.956 381.264L206.5 381.177L201.849 311.672L190.972 242.098L226.611 247.71Z" fill="url(#paint5_linear_481_5026)"/>
<path d="M206.512 384.75L215.612 387.678L220.228 384.883L215.699 380.265L206.558 380.172L206.512 384.75Z" fill="#F682C9"/>
<path d="M160.217 267.573C160.298 265.04 160.437 262.931 160.461 262.176C160.641 255.39 161.245 248.617 162.098 241.878C162.859 235.836 163.817 220.847 164.851 214.846C165.705 209.891 168.678 197.522 170.827 192.927C176.169 181.494 174.52 180.442 197.981 177.044C208.266 175.557 210.694 181.965 219.102 189.337C219.933 190.063 219.886 194.391 220.078 195.541C220.415 197.563 220.781 199.573 221.193 201.583C221.518 203.158 221.878 204.732 222.285 206.295C222.285 206.295 229.341 238.421 234.01 245.247C238.679 252.067 248.319 261.607 232.192 267.433C229.335 268.357 226.46 269.234 223.481 269.705C223.481 269.705 210.293 268.241 203.51 268.287C197.261 268.334 190.989 268.967 184.845 270.025C180.74 270.71 176.547 271.709 172.871 273.626C169.363 275.456 166.837 278.152 163.277 280.052C162.94 280.232 162.569 280.418 162.185 280.365C160.141 280.081 160.048 272.9 160.217 267.579V267.573Z" fill="#C5006B"/>
<path d="M197.998 180.262C196.814 180.849 194.02 181.058 191.105 179.914C190.519 179.681 190.124 179.118 190.13 178.484C190.153 176.713 190.298 174.947 190.554 173.192C188.37 172.425 185.844 171.269 185.461 168.986C185.339 168.266 185.461 167.528 185.588 166.813C186.099 163.839 186.616 160.864 187.127 157.89C187.307 156.862 187.493 155.804 188.051 154.921C189.032 153.376 190.937 152.696 192.743 152.383C197.348 151.581 202.365 152.58 205.931 155.595C206.884 156.397 207.743 157.361 208.161 158.535C208.806 160.342 208.324 162.334 207.836 164.187C207.389 165.901 206.936 167.615 206.489 169.323C205.972 171.292 205.223 173.529 203.329 174.273C202.325 174.668 201.134 174.551 200.223 175.132C198.614 176.155 198.829 178.548 197.993 180.262H197.998Z" fill="#B97262"/>
<path d="M224.572 151.459C225.025 150.715 225.513 150.001 226.059 149.327C227.238 147.869 228.696 146.625 229.642 145.004C230.595 143.389 230.926 141.199 229.787 139.712C229.05 138.753 227.859 138.271 226.698 137.929C222.877 136.801 218.748 136.726 214.886 137.708C211.21 138.643 207.917 140.194 204.212 138.812C200.734 137.51 198.219 138.039 194.584 139.34C190.646 140.746 185.368 141.077 181.802 143.058C180.315 143.889 179.125 145.179 178.202 146.608C174.996 151.563 174.978 158.389 178.161 163.357C178.875 164.472 179.729 165.489 180.623 166.465C182.481 168.481 184.7 170.967 187.255 171.711C187.313 169.427 185.234 162.218 186.988 160.347C189.77 157.373 196.07 158.413 199.52 159.145C203.289 159.941 206.645 162.613 210.38 163.182C213.068 163.595 216.5 162.276 218.783 160.882C221.605 159.168 222.917 154.16 224.567 151.453L224.572 151.459Z" fill="#3B455A"/>
<path d="M178.492 181.43L163.858 194.263L147.522 228.597L168.149 253.142L171.698 239.414L178.492 181.43Z" fill="#C5006B"/>
<path d="M278.813 194.28L97.8584 207.909L192.586 257.522L278.813 194.28Z" fill="#9972FF"/>
<path d="M92.1846 212.069L100.959 328.642L270.589 315.867C283.418 314.903 292.982 302.999 291.949 289.277L285.044 197.54L193.138 264.947L92.1846 212.063V212.069Z" fill="url(#paint6_linear_481_5026)"/>
<path d="M246.344 196.726C246.228 198.283 246.222 199.863 246.344 201.467C246.716 206.405 248.22 210.994 250.583 214.985L278.813 194.28L246.344 196.726Z" fill="#292949"/>
<path d="M279.782 230.229C282.43 230.032 284.98 229.503 287.39 228.696L285.044 197.545L254.329 220.069C260.566 226.947 269.8 230.979 279.777 230.229H279.782Z" fill="#292949"/>
<path d="M306.882 216.743C319.06 204.56 319.06 184.807 306.882 172.624C294.703 160.441 274.958 160.441 262.78 172.624C250.601 184.807 250.601 204.56 262.78 216.743C274.958 228.926 294.703 228.926 306.882 216.743Z" fill="#ED222B"/>
<path d="M291.322 211.738L284.016 212.174L282.587 188.122L278.023 188.396L277.587 181.093L289.452 180.384L291.322 211.738Z" fill="white"/>
<path d="M394.476 377.343C395.266 376.477 396.183 376.001 397.217 376.169C398.216 376.326 399.11 377 399.522 377.906C399.801 378.522 399.859 379.208 399.917 379.882C399.83 378.842 400.55 391.53 395.544 392.813C393.599 393.313 391.984 391.93 391.468 390.182C390.684 387.544 391.845 380.248 394.476 377.349V377.343Z" fill="#F682C9"/>
<path d="M392.833 324.849L393.076 346.071C392.792 355.499 394.267 364.98 393.982 374.403C393.918 376.57 393.355 378.859 393.901 381.009C394.435 383.112 396.143 383.484 397.896 382.42C400.243 380.997 399.865 377.663 400.254 375.234C401.329 368.559 402.589 361.913 403.71 355.244C404.261 351.973 403.123 347.395 403.373 344.084L406.799 326.295L392.833 324.843V324.849Z" fill="#EFBFA5"/>
<path d="M417.072 290.555L407.838 331.593L405.875 370.342L391.235 370.011L387.251 261.624L415.637 262.135L417.072 290.555Z" fill="#6F53FF"/>
<path d="M373.535 376.576C374.354 375.756 375.295 375.338 376.317 375.559C377.304 375.774 378.169 376.506 378.541 377.435C378.796 378.069 378.825 378.76 378.849 379.434C378.808 378.353 378.79 391.163 373.941 392.116C371.979 392.499 370.434 391.018 369.992 389.24C369.325 386.556 370.794 379.318 373.541 376.576H373.535Z" fill="#F682C9"/>
<path d="M381.253 327.828L380.01 349.016C379.911 354.906 379.121 360.745 378.517 366.595C377.954 372.027 378.831 377.685 375.991 382.629C375.103 384.18 373.302 385.209 372.042 383.326C371.073 381.874 371.647 379.457 371.462 377.807C370.701 371.092 369.76 364.393 368.953 357.678C368.558 354.389 369.905 349.864 369.818 346.547L367.234 328.619L381.253 327.817V327.828Z" fill="#EFBFA5"/>
<path d="M362.722 288.045L361.531 327.881L367.78 368.158L382.676 368.605L382.019 325.011L389.9 288.859L392.542 265.197L368.912 262.408L362.722 288.045Z" fill="#6F53FF"/>
<path d="M381.421 180.89L406.88 180.28L421.642 207.747L416.393 233.471L415.458 264.256L379.145 264.75L367.193 262.809L370.364 229.916L368.546 185.979L381.421 180.89Z" fill="url(#paint7_linear_481_5026)"/>
<path d="M407.722 182.173L428.39 213.667L425.283 231.211L393.274 253.392L387.251 248.122L408.651 221.062L407.821 203.959L407.722 182.173Z" fill="#C4B8FF"/>
<path d="M380.143 197.534L366.885 224.054L352.582 226.895L316.955 211.337L323.104 204.36L355.596 210.309L368.546 185.979L380.143 197.534Z" fill="#C4B8FF"/>
<path d="M383.012 159.551C386.851 148.386 401.584 152.574 404.621 162.514C406.602 168.998 401.596 177.41 394.882 179.275C394.853 179.53 394.83 179.768 394.83 179.972C394.83 181.012 394.697 182.04 394.546 183.08C394.488 183.469 388.611 182.336 387.954 182.208C387.728 182.162 387.467 182.098 387.345 181.906C387.107 181.534 387.496 180.448 387.536 180.041C387.589 179.559 387.635 179.071 387.687 178.589C384.377 176.974 382.287 173.529 381.7 170.02C381.114 166.494 381.863 162.915 383.012 159.557V159.551Z" fill="#EFBFA5"/>
<path d="M392.623 149.461C393.413 150.262 393.721 151.384 393.953 152.458C394.087 153.097 394.209 153.765 394.069 154.399C393.523 156.932 391.009 156.798 389.069 157.617C386.671 158.622 384.609 160.481 383.268 162.613C381.166 165.959 382.112 170.259 382.966 173.948C383.268 175.249 383.872 177.178 382.861 178.339C381.839 179.519 379.47 179.333 378.245 178.729C377.124 178.177 376.2 177.149 374.975 176.945C373.674 176.724 371.915 177.3 371.305 176.103C371.136 175.772 371.119 175.365 370.91 175.057C370.19 174.029 368.401 175.231 367.385 174.505C366.764 174.058 366.764 173.105 366.978 172.356C367.193 171.606 367.542 170.839 367.397 170.073C367.269 169.416 366.798 168.893 366.502 168.295C365.922 167.11 366.125 165.57 366.984 164.571C368.587 162.712 371.694 163.066 373.413 161.318C374.307 160.406 374.656 159.093 374.987 157.855C375.318 156.612 375.718 155.305 376.677 154.463C377.861 153.423 379.569 153.597 380.73 152.365C381.415 151.639 381.874 150.698 382.641 150.065C383.657 149.234 385.637 148.595 386.897 148.171C388.895 147.497 391.137 147.927 392.629 149.443L392.623 149.461Z" fill="#2F3849"/>
<path d="M401.944 167.278C402.014 170.95 400.19 174.923 401.88 178.159C403.588 181.424 407.844 182.011 411.474 182.179C412.072 182.208 419.726 182.871 419.761 182.725C420.336 180.163 420.928 177.555 422.264 175.307C423.6 173.058 425.835 171.199 428.396 171.037C427.659 170.909 427.287 170.003 427.368 169.242C427.456 168.481 427.85 167.789 428.077 167.057C428.64 165.256 428.094 163.153 426.735 161.887C424.029 159.36 419.116 160.411 416.793 157.512C415.353 155.711 415.527 153.103 414.772 150.907C413.315 146.66 408.669 145.771 405.196 143.854C401.532 141.833 398.077 140.723 393.849 141.426C388.605 142.303 384.702 147.642 386.729 152.667C389.325 159.116 399.697 158.558 401.636 165.105C401.845 165.808 401.933 166.529 401.95 167.266L401.944 167.278Z" fill="#2F3849"/>
<path d="M399.348 180.745L391.45 191.91L387.734 191.608L381.549 180.28L399.348 180.745Z" fill="#3B455A"/>
<path d="M359.289 264.761C358.668 264.761 358.093 264.523 357.675 264.093L339.684 245.648L328.511 259.957C328.116 260.468 327.547 260.747 326.92 260.747C325.944 260.747 324.945 260.038 324.597 259.103L298.104 187.757C297.785 186.897 297.97 186.049 298.603 185.462C298.987 184.968 299.55 184.684 300.16 184.684C300.439 184.684 300.723 184.742 301.008 184.852L371.641 213.109C372.507 213.458 373.093 214.172 373.204 215.026C373.314 215.869 372.936 216.7 372.193 217.251L357.872 227.883L375.823 246.293C376.705 247.199 376.705 248.698 375.823 249.564L360.939 264.087C360.503 264.512 359.899 264.756 359.284 264.756L359.289 264.761ZM339.446 239.827C340.091 239.827 340.723 240.083 341.136 240.501L359.353 259.178L370.921 247.891L352.745 229.248C352.268 228.76 352.03 228.133 352.083 227.482C352.141 226.785 352.518 226.123 353.128 225.669L366.258 215.921L304.283 191.126L327.524 253.723L337.785 240.582C338.162 240.1 338.766 239.821 339.446 239.821V239.827Z" fill="white"/>
<path d="M376.456 245.689L367.768 236.777L359.202 227.993L365.161 223.566L372.722 217.954C373.721 217.211 374.226 216.078 374.075 214.916C373.924 213.742 373.14 212.766 371.973 212.302L347.96 202.693L310.015 187.513L304.852 185.45L301.333 184.044C300.95 183.888 300.555 183.812 300.166 183.812C299.306 183.812 298.517 184.195 297.965 184.869C297.117 185.688 296.856 186.891 297.291 188.059L298.244 190.632L306.292 212.313L320.52 250.638L322.164 255.065L323.778 259.405C324.254 260.689 325.573 261.618 326.92 261.618C327.826 261.618 328.633 261.217 329.196 260.491L334.882 253.206L339.754 246.967L346.49 253.874L354.615 262.205L357.048 264.697C357.634 265.301 358.43 265.633 359.289 265.633C360.149 265.633 360.956 265.301 361.554 264.715L368.877 257.563L376.433 250.191C377.681 248.971 377.687 246.955 376.456 245.689ZM375.219 248.948C370.259 253.787 365.3 258.632 360.341 263.471C360.056 263.745 359.673 263.89 359.295 263.89C358.918 263.89 358.569 263.756 358.302 263.483C357.489 262.652 356.682 261.822 355.869 260.985C350.451 255.431 345.033 249.877 339.62 244.318C335.689 249.349 331.763 254.38 327.832 259.411C327.582 259.73 327.257 259.864 326.926 259.864C326.293 259.864 325.636 259.376 325.416 258.789C324.33 255.867 323.244 252.945 322.158 250.023C317.413 237.248 312.669 224.473 307.93 211.697C304.928 203.611 301.925 195.53 298.923 187.443C298.697 186.839 298.888 186.351 299.254 186.043C299.463 185.747 299.777 185.543 300.166 185.543C300.328 185.543 300.503 185.578 300.688 185.654C303.58 186.81 306.478 187.972 309.37 189.128C322.018 194.188 334.667 199.248 347.315 204.308C355.317 207.509 363.326 210.71 371.328 213.917C372.518 214.393 372.733 215.77 371.682 216.554C366.641 220.296 361.601 224.037 356.56 227.778C356.984 228.214 357.408 228.644 357.826 229.079C363.622 235.023 369.412 240.96 375.207 246.903C375.741 247.455 375.782 248.39 375.219 248.942V248.948Z" fill="white"/>
<path d="M353.366 228.644C352.663 227.923 352.901 226.93 353.645 226.378C358.441 222.817 363.232 219.256 368.029 215.7C365.979 214.881 363.935 214.062 361.885 213.243C349.237 208.183 336.589 203.123 323.94 198.063C316.89 195.239 309.835 192.422 302.779 189.598C303.499 191.544 304.225 193.491 304.945 195.437C309.689 208.212 314.434 220.987 319.173 233.762C321.861 241.006 324.556 248.251 327.245 255.495C330.985 250.708 334.725 245.915 338.464 241.128C338.697 240.832 339.063 240.704 339.44 240.704C339.841 240.704 340.247 240.855 340.509 241.117C341.322 241.947 342.129 242.778 342.942 243.609C348.406 249.209 353.871 254.815 359.33 260.416C363.604 256.244 367.872 252.079 372.147 247.908C371.676 247.426 371.206 246.943 370.735 246.461C364.94 240.518 359.15 234.581 353.354 228.638L353.366 228.644ZM359.371 257.952L355.753 254.24L344.196 242.389L343.825 242.011L341.763 239.897C341.182 239.298 340.34 238.955 339.452 238.955C338.505 238.955 337.651 239.356 337.106 240.053L331.496 247.24L327.802 251.969L325.009 244.445L320.816 233.158L306.588 194.832L305.787 192.677L323.302 199.683L342.274 207.271L361.246 214.858L364.394 216.118L364.493 216.159L359.928 219.546L352.611 224.978C351.798 225.582 351.293 226.471 351.217 227.418C351.147 228.324 351.467 229.19 352.123 229.864L360.811 238.775L369.498 247.687L369.69 247.885L359.371 257.958V257.952Z" fill="white"/>
<path d="M300.311 187.06L326.804 258.406L339.498 242.139L359.313 262.455L366.752 255.193L374.191 247.931L354.382 227.615L370.945 215.317L300.311 187.06Z" fill="url(#paint8_linear_481_5026)"/>
<path d="M380.19 250.894L380.329 255.193L372.745 257.952L368.378 254.641V249.639L372.594 249.407L372.728 248.303L374.104 247.414L380.19 250.894Z" fill="#EFBFA5"/>
<path d="M150.489 206.207L154.775 200.479L163.48 198.789L168.167 203.465L159.868 212.11L150.489 206.207Z" fill="#B97262"/>
<path d="M219.758 197.928L224.044 192.2L232.749 190.51L237.436 195.186L229.137 203.831L219.758 197.928Z" fill="#B97262"/>
<defs>
<linearGradient id="paint0_linear_481_5026" x1="524.913" y1="327.779" x2="488.565" y2="327.779" gradientUnits="userSpaceOnUse">
<stop stop-color="#C757FF"/>
<stop offset="1" stop-color="#6D53FF"/>
</linearGradient>
<linearGradient id="paint1_linear_481_5026" x1="499.75" y1="323.35" x2="466.689" y2="323.35" gradientUnits="userSpaceOnUse">
<stop stop-color="#C757FF"/>
<stop offset="1" stop-color="#6D53FF"/>
</linearGradient>
<linearGradient id="paint2_linear_481_5026" x1="67.0102" y1="310.873" x2="35.9297" y2="310.873" gradientUnits="userSpaceOnUse">
<stop stop-color="#C757FF"/>
<stop offset="1" stop-color="#6D53FF"/>
</linearGradient>
<linearGradient id="paint3_linear_481_5026" x1="507.131" y1="49.4413" x2="399.528" y2="49.4413" gradientUnits="userSpaceOnUse">
<stop stop-color="#C757FF"/>
<stop offset="1" stop-color="#6D53FF"/>
</linearGradient>
<linearGradient id="paint4_linear_481_5026" x1="202.07" y1="311.579" x2="163.858" y2="311.579" gradientUnits="userSpaceOnUse">
<stop stop-color="#C757FF"/>
<stop offset="1" stop-color="#6D53FF"/>
</linearGradient>
<linearGradient id="paint5_linear_481_5026" x1="226.704" y1="311.681" x2="190.972" y2="311.681" gradientUnits="userSpaceOnUse">
<stop stop-color="#C757FF"/>
<stop offset="1" stop-color="#6D53FF"/>
</linearGradient>
<linearGradient id="paint6_linear_481_5026" x1="92.1846" y1="262.668" x2="292.025" y2="262.668" gradientUnits="userSpaceOnUse">
<stop stop-color="#6D53FF"/>
<stop offset="1" stop-color="#8A49F7"/>
</linearGradient>
<linearGradient id="paint7_linear_481_5026" x1="421.642" y1="222.515" x2="367.193" y2="222.515" gradientUnits="userSpaceOnUse">
<stop stop-color="#C757FF"/>
<stop offset="1" stop-color="#6D53FF"/>
</linearGradient>
<linearGradient id="paint8_linear_481_5026" x1="300.311" y1="224.514" x2="374.191" y2="224.514" gradientUnits="userSpaceOnUse">
<stop stop-color="#6D53FF"/>
<stop offset="1" stop-color="#8A49F7"/>
</linearGradient>
</defs>
</svg>
