<svg width="935" height="472" viewBox="0 0 935 472" fill="none" xmlns="http://www.w3.org/2000/svg">
<g clip-path="url(#clip0_530_4207)">
<path d="M189.396 364.232C189.084 364.232 188.751 364.107 188.502 363.879C187.961 363.38 187.919 362.529 188.398 361.989L251.848 291.826C252.347 291.286 253.2 291.244 253.741 291.722C254.282 292.22 254.323 293.071 253.845 293.611L190.394 363.775C190.124 364.066 189.77 364.211 189.396 364.211V364.232Z" fill="#133FB9"/>
<path d="M423.255 382.65C398.154 366.599 339.84 357.94 324.637 332.338C321.226 326.607 318.377 320.294 318.336 313.629C318.294 306.963 321.642 299.945 327.757 297.308C332.748 295.148 339.049 295.979 343.125 292.386C346.557 289.396 347.139 284.101 345.725 279.782C344.29 275.463 341.212 271.913 338.113 268.569C330.46 260.326 321.934 252.207 318.481 241.513C315.029 230.819 319.126 216.679 329.94 213.564C336.283 211.758 343.957 213.834 349.011 209.598C353.732 205.632 353.357 198.053 350.571 192.571C347.763 187.089 343.125 182.749 339.944 177.475C334.869 169.066 333.892 158.289 337.386 149.111C340.879 139.912 348.761 132.499 358.141 129.571L423.276 382.629L423.255 382.65Z" fill="#4875F1"/>
<path d="M423.255 382.65C437.501 356.507 484.398 320.834 485.354 291.099C485.562 284.454 485.021 277.54 481.86 271.684C478.678 265.828 472.356 261.281 465.722 261.925C460.315 262.444 455.199 266.202 449.875 265.019C445.424 264.043 442.347 259.682 441.515 255.218C440.683 250.753 441.66 246.144 442.762 241.741C445.487 230.84 449.043 219.627 446.901 208.58C444.759 197.554 434.34 187.131 423.38 189.622C416.954 191.076 411.235 196.62 404.767 195.333C398.715 194.128 395.388 187.317 395.18 181.171C394.992 175.025 396.968 168.982 397.218 162.836C397.592 153.014 393.245 143.11 385.759 136.756C378.272 130.381 367.79 127.682 358.141 129.633L423.276 382.692L423.255 382.65Z" fill="#133FB9"/>
<path d="M363.235 171.266C362.986 171.266 362.736 171.204 362.507 171.059L338.633 155.61C338.009 155.215 337.843 154.385 338.238 153.762C338.633 153.139 339.465 152.973 340.089 153.367L363.963 168.816C364.587 169.211 364.754 170.041 364.358 170.664C364.109 171.059 363.672 171.266 363.235 171.266Z" fill="#133FB9"/>
<path d="M374.819 169.335C374.653 169.335 374.466 169.294 374.299 169.231C373.613 168.941 373.301 168.172 373.592 167.487L383.2 144.625C383.492 143.94 384.282 143.629 384.947 143.919C385.634 144.21 385.946 144.978 385.654 145.663L376.046 168.525C375.838 169.044 375.339 169.356 374.819 169.356V169.335Z" fill="#4875F1"/>
<path d="M379.624 254.367C379.416 254.367 379.229 254.325 379.042 254.221L329.545 229.968C328.88 229.636 328.609 228.847 328.942 228.182C329.275 227.518 330.065 227.248 330.731 227.58L380.227 251.833C380.892 252.165 381.163 252.955 380.83 253.619C380.601 254.097 380.123 254.367 379.624 254.367Z" fill="#133FB9"/>
<path d="M400.441 248.345C400.15 248.345 399.858 248.262 399.63 248.075C399.047 247.618 398.943 246.787 399.38 246.206L432.281 203.701C432.738 203.119 433.57 203.015 434.152 203.452C434.735 203.908 434.839 204.739 434.402 205.32L401.501 247.825C401.231 248.158 400.836 248.345 400.441 248.345Z" fill="#4875F1"/>
<path d="M415.914 336.366C415.582 336.366 415.249 336.241 414.978 335.992C414.438 335.473 414.438 334.621 414.958 334.102L468.488 278.972C469.008 278.432 469.861 278.432 470.381 278.931C470.922 279.45 470.922 280.301 470.402 280.82L416.871 335.95C416.601 336.22 416.268 336.366 415.914 336.366Z" fill="#4875F1"/>
<path d="M403.436 338.94C403.291 338.94 403.145 338.92 402.979 338.857L326.218 311.593C325.511 311.344 325.157 310.576 325.407 309.891C325.657 309.205 326.426 308.811 327.112 309.081L403.873 336.345C404.58 336.594 404.934 337.362 404.684 338.047C404.497 338.587 403.977 338.94 403.415 338.94H403.436Z" fill="#133FB9"/>
<path d="M820.265 421.064C837.484 410.059 877.497 404.1 887.937 386.533C890.266 382.608 892.242 378.268 892.263 373.7C892.304 369.132 889.996 364.315 885.795 362.487C882.364 361.013 878.059 361.574 875.251 359.123C872.901 357.068 872.485 353.434 873.463 350.465C874.44 347.495 876.561 345.066 878.683 342.782C883.944 337.134 889.788 331.548 892.159 324.218C894.53 316.888 891.722 307.17 884.298 305.052C879.951 303.807 874.669 305.239 871.217 302.332C867.972 299.612 868.222 294.421 870.156 290.642C872.09 286.863 875.272 283.914 877.456 280.28C880.949 274.508 881.615 267.116 879.203 260.803C876.811 254.491 871.404 249.403 864.957 247.389L820.265 421.043V421.064Z" fill="#133FB9"/>
<path d="M820.264 421.064C810.49 403.124 778.317 378.642 777.652 358.231C777.506 353.663 777.881 348.928 780.043 344.9C782.227 340.892 786.574 337.757 791.128 338.193C794.851 338.546 798.345 341.121 802.005 340.311C805.062 339.646 807.162 336.656 807.745 333.583C808.327 330.51 807.641 327.354 806.892 324.343C805.02 316.868 802.587 309.164 804.064 301.585C805.54 294.027 812.674 286.863 820.202 288.566C824.611 289.562 828.541 293.362 832.971 292.49C837.13 291.68 839.418 286.987 839.543 282.772C839.668 278.557 838.316 274.404 838.149 270.189C837.879 263.44 840.874 256.65 846.011 252.29C851.147 247.908 858.343 246.06 864.977 247.389L820.285 421.044L820.264 421.064Z" fill="#4875F1"/>
<path d="M861.442 276.418C861.691 276.418 861.941 276.356 862.17 276.211L878.558 265.6C879.181 265.206 879.348 264.375 878.953 263.752C878.558 263.129 877.726 262.963 877.102 263.358L860.714 273.968C860.09 274.363 859.924 275.193 860.319 275.816C860.568 276.211 861.005 276.418 861.442 276.418Z" fill="#4875F1"/>
<path d="M853.476 275.089C853.643 275.089 853.83 275.048 853.996 274.985C854.683 274.695 854.994 273.926 854.703 273.241L848.111 257.564C847.82 256.879 847.029 256.567 846.364 256.858C845.678 257.148 845.366 257.917 845.657 258.602L852.249 274.279C852.457 274.798 852.956 275.11 853.476 275.11V275.089Z" fill="#133FB9"/>
<path d="M850.19 333.438C850.378 333.438 850.586 333.397 850.773 333.293L884.734 316.639C885.399 316.307 885.67 315.518 885.337 314.854C885.004 314.189 884.214 313.919 883.548 314.252L849.587 330.905C848.922 331.237 848.651 332.026 848.984 332.691C849.213 333.168 849.691 333.438 850.19 333.438Z" fill="#4875F1"/>
<path d="M835.903 329.306C836.194 329.306 836.485 329.223 836.714 329.036C837.296 328.579 837.4 327.748 836.964 327.167L814.378 297.993C813.921 297.411 813.089 297.307 812.507 297.744C811.924 298.2 811.82 299.031 812.257 299.612L834.842 328.787C835.113 329.119 835.508 329.306 835.903 329.306Z" fill="#133FB9"/>
<path d="M825.276 389.71C825.609 389.71 825.942 389.585 826.212 389.336C826.753 388.817 826.753 387.966 826.233 387.446L789.485 349.613C788.965 349.073 788.113 349.074 787.593 349.572C787.052 350.091 787.052 350.942 787.572 351.461L824.32 389.295C824.59 389.564 824.923 389.71 825.276 389.71Z" fill="#133FB9"/>
<path d="M833.844 391.475C833.99 391.475 834.135 391.454 834.302 391.392L886.98 372.683C887.687 372.434 888.041 371.665 887.791 370.98C887.541 370.295 886.772 369.921 886.086 370.17L833.407 388.879C832.7 389.128 832.347 389.897 832.596 390.582C832.784 391.122 833.303 391.475 833.865 391.475H833.844Z" fill="#4875F1"/>
<path d="M594.204 371.396C619.306 355.345 677.62 346.686 692.822 321.083C696.233 315.352 699.082 309.04 699.144 302.374C699.186 295.709 695.838 288.69 689.723 286.053C684.732 283.894 678.431 284.724 674.355 281.132C670.923 278.142 670.341 272.847 671.755 268.528C673.19 264.209 676.268 260.658 679.367 257.315C687.02 249.072 695.547 240.953 698.999 230.259C702.451 219.565 698.354 205.424 687.54 202.33C681.197 200.524 673.523 202.6 668.469 198.364C663.748 194.398 664.123 186.819 666.909 181.337C669.717 175.856 674.355 171.516 677.537 166.242C682.611 157.832 683.588 147.055 680.095 137.856C676.601 128.658 668.719 121.245 659.339 118.317L594.204 371.375V371.396Z" fill="#4875F1"/>
<path d="M594.204 371.396C579.958 345.253 533.061 309.579 532.105 279.845C531.897 273.2 532.437 266.285 535.599 260.43C538.78 254.574 545.103 250.027 551.737 250.67C557.144 251.189 562.26 254.948 567.584 253.764C572.034 252.788 575.112 248.428 575.944 243.963C576.776 239.499 575.799 234.889 574.696 230.487C571.972 219.586 568.416 208.373 570.558 197.326C572.7 186.3 583.119 175.876 594.079 178.368C600.505 179.821 606.224 185.366 612.692 184.078C618.744 182.874 622.071 176.063 622.279 169.917C622.466 163.77 620.491 157.728 620.241 151.582C619.867 141.76 624.213 131.855 631.7 125.501C639.187 119.127 649.669 116.427 659.318 118.379L594.183 371.437L594.204 371.396Z" fill="#133FB9"/>
<path d="M654.203 160.012C653.766 160.012 653.329 159.804 653.08 159.41C652.684 158.787 652.851 157.956 653.475 157.562L677.349 142.113C677.973 141.718 678.805 141.884 679.2 142.507C679.595 143.13 679.429 143.961 678.805 144.355L654.93 159.804C654.702 159.95 654.452 160.012 654.203 160.012Z" fill="#133FB9"/>
<path d="M642.619 158.081C642.099 158.081 641.6 157.769 641.392 157.271L631.784 134.409C631.493 133.724 631.825 132.935 632.491 132.665C633.177 132.374 633.967 132.706 634.238 133.371L643.846 156.233C644.137 156.918 643.804 157.707 643.139 157.977C642.972 158.039 642.785 158.081 642.619 158.081Z" fill="#4875F1"/>
<path d="M637.814 243.091C637.315 243.091 636.837 242.821 636.608 242.344C636.275 241.679 636.546 240.869 637.211 240.558L686.708 216.305C687.373 215.993 688.163 216.263 688.496 216.907C688.829 217.571 688.558 218.381 687.893 218.693L638.397 242.946C638.21 243.029 638.002 243.091 637.814 243.091Z" fill="#133FB9"/>
<path d="M617.017 237.09C616.622 237.09 616.227 236.903 615.957 236.571L583.056 194.066C582.599 193.485 582.703 192.633 583.306 192.197C583.888 191.74 584.741 191.844 585.178 192.446L618.078 234.951C618.536 235.533 618.432 236.384 617.829 236.82C617.579 237.007 617.288 237.09 617.017 237.09Z" fill="#4875F1"/>
<path d="M601.524 325.111C601.171 325.111 600.817 324.966 600.568 324.696L547.037 269.566C546.517 269.026 546.538 268.196 547.058 267.677C547.578 267.157 548.43 267.178 548.95 267.718L602.481 322.848C603.001 323.388 602.98 324.219 602.46 324.738C602.19 324.987 601.857 325.111 601.524 325.111Z" fill="#4875F1"/>
<path d="M614.002 327.686C613.462 327.686 612.942 327.354 612.734 326.793C612.484 326.087 612.859 325.34 613.545 325.09L690.306 297.826C690.992 297.577 691.761 297.951 692.011 298.636C692.26 299.342 691.886 300.09 691.2 300.339L614.439 327.603C614.294 327.665 614.148 327.686 613.982 327.686H614.002Z" fill="#133FB9"/>
<path d="M587.279 137.026C584.118 133.662 581.165 129.924 579.397 125.813C578.274 123.217 577.317 120.04 577.005 117.216C576.631 113.956 577.504 112.69 579.023 110.135C581.601 105.879 587.736 103.719 591.896 106.46C594.786 108.37 596.034 111.942 596.845 115.306C597.76 119.085 603.604 146.577 594.225 143.172C593.123 142.777 592.249 141.968 591.417 141.158C590.045 139.829 588.651 138.458 587.279 137.005V137.026Z" fill="#133FB9"/>
<path d="M402.562 400.134C385.321 396.853 372.864 409.789 372.053 410.599C371.304 407.941 363.776 383.543 339.381 374.905C323.971 369.423 310.391 373.327 305.711 374.905C308.81 366.578 307.167 357.296 301.469 350.673C295.334 343.55 285.414 340.643 276.201 343.363C265.782 327.271 246.628 318.944 227.807 322.287C209.235 325.63 194.324 339.688 189.894 358.065C184.279 349.676 174.172 345.44 164.626 347.537C156.1 349.364 149.278 355.864 146.679 364.377C135.053 352.271 117.418 347.724 101.446 352.832C87.2002 357.296 76.3235 368.758 72.3306 382.982C60.8924 373.95 45.482 370.544 31.1738 375.05C9.75321 381.778 -3.74386 404.474 0.935402 427.46H428.911C426.312 413.527 415.705 402.605 402.562 400.155V400.134Z" fill="#4875F1"/>
<path d="M897.15 388.215C872.381 383.501 854.496 402.086 853.31 403.248C852.229 399.448 841.415 364.377 806.393 351.96C784.245 344.069 764.737 349.696 758.02 351.96C762.47 339.999 760.1 326.689 751.947 317.158C743.15 306.921 728.904 302.748 715.657 306.651C700.683 283.54 673.19 271.58 646.154 276.397C619.472 281.194 598.051 301.398 591.708 327.769C583.639 315.726 569.102 309.642 555.418 312.632C543.169 315.269 533.374 324.592 529.651 336.822C512.951 319.422 487.642 312.902 464.682 320.252C444.239 326.669 428.6 343.135 422.86 363.567C406.43 350.61 384.303 345.71 363.735 352.167C332.956 361.844 313.594 394.444 320.29 427.439H935C931.277 407.422 916.033 391.745 897.15 388.215Z" fill="#4875F1"/>
<path d="M248.874 383.086C258.17 379.245 268.444 378.809 278.01 381.529C279.3 360.889 288.741 341.723 304.692 329.742C326.217 313.566 357.121 312.217 382.992 326.253C381.682 316.619 386.444 307.15 394.867 302.52C403.664 297.702 414.686 299.093 422.131 306.008C423.712 302.416 433.694 280.8 457.777 273.2C479.614 266.327 504.341 273.719 520.687 292.033C532.77 283.499 548.596 282.149 561.927 288.545C575.237 294.92 584.076 308.022 584.991 322.744C610.009 312.258 638.105 315.269 656.989 331.112C671.775 343.53 679.782 362.924 679.553 383.398C696.399 390.748 707.213 408.274 706.381 427.419H221.318C220.466 407.983 231.592 390.188 248.874 383.045V383.086Z" fill="#133FB9"/>
<path d="M255.841 427.46H508.25C511.536 414.067 506.316 400.425 495.689 393.739C483.627 386.159 470.338 391.081 468.799 391.683C473.353 380.325 470.296 367.305 461.208 359.332C452.557 351.732 439.996 350.091 429.493 355.199C427.85 353.601 409.445 336.408 383.304 341.433C356.933 346.499 346.286 369.672 345.391 371.707C340.338 363.464 330.938 359.103 321.953 360.702C311.347 362.592 303.215 372.455 303.34 384.104C291.299 377.459 276.637 378.29 266.114 386.16C253.865 395.337 249.373 412.51 255.778 427.46H255.841Z" fill="#4875F1"/>
<path d="M389.939 421.688V373.534C389.939 372.226 388.878 371.146 387.547 371.146C386.216 371.146 385.155 372.205 385.155 373.534V421.688C385.155 422.996 386.216 424.075 387.547 424.075C388.878 424.075 389.939 423.016 389.939 421.688Z" fill="#133FB9"/>
<path d="M394.368 408.523L444.134 383.418C445.32 382.816 445.777 381.383 445.195 380.221C444.592 379.037 443.178 378.58 441.992 379.162L392.226 404.266C391.04 404.868 390.583 406.301 391.165 407.464C391.768 408.647 393.203 409.104 394.368 408.523Z" fill="#133FB9"/>
<path d="M371.824 406.073L335.077 376.255C334.057 375.424 332.56 375.59 331.728 376.608C330.896 377.625 331.063 379.12 332.082 379.951L368.83 409.769C369.849 410.599 371.346 410.433 372.178 409.416C373.01 408.398 372.843 406.903 371.824 406.073Z" fill="#133FB9"/>
<path d="M494.629 414.815V318.488C494.629 317.179 493.568 316.1 492.237 316.1C490.906 316.1 489.846 317.159 489.846 318.488V414.815C489.846 416.123 490.906 417.202 492.237 417.202C493.568 417.202 494.629 416.143 494.629 414.815Z" fill="#4875F1"/>
<path d="M495.232 388.007L586.53 359.747C587.778 359.352 588.485 358.023 588.111 356.777C587.715 355.531 586.384 354.825 585.137 355.199L493.839 383.46C492.591 383.854 491.884 385.183 492.258 386.429C492.654 387.675 493.985 388.381 495.232 388.007Z" fill="#4875F1"/>
<path d="M545.622 369.257L553.65 341.163C554.003 339.896 553.275 338.588 552.007 338.214C550.738 337.861 549.428 338.588 549.054 339.854L541.005 367.949C540.652 369.216 541.38 370.524 542.648 370.898C543.917 371.251 545.227 370.524 545.601 369.257" fill="#4875F1"/>
<path d="M485.333 343.53L463.413 321.187C462.498 320.253 460.98 320.232 460.044 321.146C459.108 322.059 459.088 323.575 460.003 324.509L481.922 346.852C482.837 347.787 484.356 347.807 485.291 346.894C486.227 345.98 486.248 344.464 485.333 343.53Z" fill="#4875F1"/>
<path d="M209.589 211.093L206.283 219.585L169.057 208.642L174.859 196.495L209.589 211.093Z" fill="#BED5FC"/>
<path d="M175.441 291.431L187.108 364.876L185.257 391.807H172.301L173.174 365.27L154.894 298.595H151.733C151.733 298.595 150.818 338.069 147.407 391.807H133.972C134.554 365.27 134.076 334.019 130.354 311.178C128.461 299.675 129.293 286.697 130.562 276.875C144.35 279.367 158.117 279.346 171.905 276.771C173.486 281.547 174.692 286.469 175.462 291.452L175.441 291.431Z" fill="#144FF3"/>
<path d="M185.215 391.807L181.576 444.508H170.512L172.279 391.807H185.215Z" fill="#BED5FC"/>
<path d="M164.17 154.239C164.461 156.876 164.253 159.7 165.605 162.005C166.998 164.414 169.909 165.909 170.575 168.629C171.719 173.405 164.981 177.6 166.416 182.313C167.04 184.348 168.994 185.615 170.284 187.317C171.906 189.477 172.176 192.446 171.324 195.021L163.067 191.533H153.335V179.157C153.958 179.468 154.957 179.863 156.225 179.987C157.411 180.112 158.409 179.967 159.054 179.821C159.678 177.496 160.239 174.277 160.156 170.436C160.073 167.383 159.574 164.788 159.054 162.794C158.554 162.67 157.182 162.234 156.08 160.946C155.061 159.784 154.811 158.517 154.749 157.998C154.624 159.181 154.125 161.964 152.004 164.622C149.196 168.089 145.453 168.899 144.392 169.107C144.704 169.792 145.827 172.367 144.953 175.544C144.184 178.243 142.395 179.78 141.751 180.278C142.271 180.797 143.414 182.002 143.997 183.933C144.6 186.009 144.246 187.733 144.059 188.459C143.394 189.498 142.749 190.536 142.125 191.574H136.531C134.763 191.574 133.12 192.509 132.247 194.045L123.283 209.432L120.226 214.623C119.124 214.104 118.126 213.315 117.335 212.401C115.713 210.491 115.048 207.854 115.464 205.403C115.88 202.995 117.335 200.814 117.439 198.364C117.585 195 115.152 191.512 116.503 188.418C117.523 186.175 120.185 185.075 121.308 182.874C123.179 179.24 119.893 174.63 121.37 170.789C122.119 168.878 123.949 167.57 125.779 166.594C127.63 165.639 129.626 164.892 131.186 163.5C133.557 161.424 134.597 158.268 135.803 155.34C136.988 152.433 138.735 149.38 141.709 148.28C145.577 146.826 149.861 149.277 153.958 148.695C156.038 148.405 158.139 147.346 160.135 147.927C162.693 148.654 163.858 151.623 164.149 154.26L164.17 154.239Z" fill="#144FF3"/>
<path d="M133.993 391.807H147.407C146.347 408.273 145.057 426.089 143.497 444.508H131.519C131.519 444.508 133.349 421.044 133.973 391.807H133.993Z" fill="#BED5FC"/>
<path d="M123.324 209.411L133.265 218.568L117.46 244.067L112.884 303.308L106.666 304.866L104.399 241.451L120.226 214.561L123.283 209.39L123.324 209.411Z" fill="#BED5FC"/>
<path d="M160.155 170.415C160.072 167.363 159.573 164.767 159.053 162.774C158.554 162.649 157.181 162.213 156.079 160.926C155.06 159.763 154.81 158.496 154.748 157.977C154.623 159.161 154.124 161.943 152.003 164.601C149.195 168.069 145.452 168.878 144.391 169.086C144.703 169.771 145.826 172.346 144.953 175.523C144.183 178.223 142.395 179.759 141.75 180.257C142.27 180.777 143.414 181.981 143.996 183.912C144.599 185.988 144.246 187.712 144.058 188.439C143.393 189.477 142.748 190.515 142.124 191.553C142.915 193.9 149.674 198.551 152.273 198.551C154.873 198.551 155.455 193.505 153.334 191.553V181.047C156.786 180.631 159.053 179.842 159.053 179.842C159.677 177.517 160.238 174.298 160.155 170.457V170.415Z" fill="#BED5FC"/>
<path d="M136.531 191.532H142.125C145.12 194.564 149.508 195.54 152.128 195.54C154.749 195.54 154.104 193.505 153.355 191.532H163.088L171.344 195.021L174.88 196.495L169.078 208.643L167.04 208.04C167.04 208.04 169.514 215.121 169.577 217.758C169.701 223.198 166.582 245.853 167.455 255.01C168.558 266.534 171.49 275.401 171.906 276.75C158.118 279.325 144.35 279.346 130.562 276.854C130.957 273.76 133.931 265.807 134.326 257.169C135.137 239.893 133.266 218.547 133.266 218.547L123.325 209.39H123.283L132.247 193.983C133.12 192.446 134.763 191.512 136.531 191.512V191.532Z" fill="#4875F1"/>
<path d="M133.266 218.568L138.985 211.093L134.43 240.578L133.266 218.568Z" fill="#144FF3"/>
<path d="M155.227 454.516L143.476 444.508H131.498L131.04 452.689C131.04 452.689 146.222 457.07 150.527 457.278C152.835 457.382 154.332 456.8 155.206 456.219C155.83 455.825 155.83 454.911 155.206 454.516H155.227Z" fill="#E5F7FF"/>
<path d="M194.241 454.516L181.597 444.508H170.533L170.075 452.689C170.075 452.689 185.257 457.07 189.562 457.278C191.87 457.382 193.368 456.8 194.241 456.219C194.865 455.825 194.865 454.911 194.241 454.516Z" fill="#E5F7FF"/>
<path d="M109.578 300.837C105.044 300.567 105.481 308.603 105.71 311.344C106.271 318.176 111.782 319.982 113.509 319.858C115.235 319.733 112.344 310.036 112.822 309.828C113.737 309.434 114.112 314.438 115.38 314.189C117.002 313.877 116.233 307.295 114.923 304.782C113.613 302.27 112.406 301.024 109.557 300.858L109.578 300.837Z" fill="#BED5FC"/>
<path d="M740.842 183.871L795.745 143.483V445.006L590.814 294.234L643.409 255.571L675.291 232.107L740.842 183.871Z" fill="#133FB9"/>
<path d="M795.745 143.483L740.842 183.871V157.624H620.762V211.176H594.371V174.776H419.054V159.804H301.324V167.508H236.355L203.704 143.483H795.745Z" fill="#0070FF"/>
<path d="M795.745 143.483H203.704L466.533 8.01511C487.267 -2.67866 511.891 -2.67866 532.646 7.99434L795.745 143.463V143.483Z" fill="#133FB9"/>
<path d="M493.61 294.234H590.814L795.745 445.006H203.704L408.635 294.234H437.147H493.61Z" fill="#4875F1"/>
<path d="M740.842 157.624V183.87L675.291 232.107V211.176H620.762V157.624H740.842Z" fill="#E5F7FF"/>
<path d="M620.761 211.176H675.29V232.106L643.409 255.57V225.815H594.37V211.176H620.761Z" fill="#E5F7FF"/>
<path d="M594.37 225.815H643.409V255.571L590.814 294.234H493.61V225.815H594.37Z" fill="#4875F1"/>
<path d="M594.371 211.176V225.815H493.611V294.234H437.148V198.447H404.788V174.775H419.055H594.371V211.176Z" fill="#133FB9"/>
<path d="M491.988 194.585H421.259V201.271H491.988V194.585Z" fill="#144FF3"/>
<path d="M577.9 214.602H421.259V221.288H577.9V214.602Z" fill="#144FF3"/>
<path d="M577.9 230.757H421.259V237.443H577.9V230.757Z" fill="#144FF3"/>
<path d="M577.9 246.891H421.259V253.577H577.9V246.891Z" fill="#144FF3"/>
<path d="M577.9 263.046H421.259V269.732H577.9V263.046Z" fill="#144FF3"/>
<path d="M577.9 279.18H421.259V285.866H577.9V279.18Z" fill="#144FF3"/>
<path d="M404.788 198.447H437.147V294.234H408.635L278.427 198.447H317.733H404.788Z" fill="#144FF3"/>
<path d="M419.054 159.804V174.775H404.788V198.447H317.733V167.508H301.324V159.804H419.054Z" fill="#E5F7FF"/>
<path d="M278.427 198.447L408.635 294.234L203.704 445.006V143.483L236.355 167.508L278.427 198.447Z" fill="#133FB9"/>
<path d="M301.323 167.508H317.732V198.447H278.426L236.354 167.508H301.323Z" fill="#E5F7FF"/>
<path d="M399.256 236.862H330.627L339.736 243.548H399.256V236.862Z" fill="#133FB9"/>
<path d="M399.256 269.068H374.425L383.513 275.754H399.256V269.068Z" fill="#133FB9"/>
<path d="M399.256 252.955H352.525L361.614 259.641H399.256V252.955Z" fill="#133FB9"/>
<path d="M312.534 223.531H344.893V216.845H303.425L312.534 223.531Z" fill="#133FB9"/>
<path d="M399.257 285.181H396.324L399.257 287.341V285.181Z" fill="#133FB9"/>
<path d="M582.662 192.571H456.987V294.608H582.662V192.571Z" fill="#E5F7FF"/>
<path d="M694.823 281.142L645.823 242.918L618.935 277.28L667.936 315.504L694.823 281.142Z" fill="#133FB9"/>
<path d="M660.567 295.813C658.3 294.089 656.574 294.235 653.933 295.273C651.312 296.311 647.215 300.111 648.484 301.17C649.711 302.188 651.791 299.592 652.227 300.485C652.29 300.63 651.499 301.274 650.418 302.105C649.711 302.665 649.69 303.745 650.376 304.326L654.64 307.836C655.305 307.42 655.95 306.922 656.615 306.278C658.57 304.347 664.165 298.554 660.567 295.813Z" fill="#BED5FC"/>
<path d="M635.403 468.554L649.42 460.476L659.465 461.099L658.737 469.28C658.737 469.28 643.93 472.395 639.625 471.98C637.316 471.751 635.944 470.962 635.153 470.256C634.613 469.779 634.737 468.886 635.382 468.554H635.403Z" fill="#112B46"/>
<path d="M778.962 463.84L787.801 450.301L796.348 445.338L801.173 453.084C801.173 453.084 788.321 463.404 784.286 464.982C782.123 465.833 780.543 465.729 779.503 465.48C778.796 465.293 778.504 464.442 778.941 463.86L778.962 463.84Z" fill="#112B46"/>
<path d="M747.559 285.659C752.093 285.327 751.74 293.383 751.532 296.124C751.032 302.956 745.542 304.825 743.816 304.721C742.09 304.617 744.877 294.878 744.398 294.671C743.483 294.297 743.151 299.28 741.882 299.052C740.26 298.761 740.967 292.158 742.235 289.646C743.525 287.133 744.71 285.867 747.559 285.659Z" fill="#BED5FC"/>
<path d="M714.014 309.559L700.601 274.508L738.097 266.805L741.778 287.839L754.984 363.692L796.349 445.318L787.801 450.281L737.369 370.711L714.014 309.559Z" fill="#144FF3"/>
<path d="M748.475 222.493L750.7 287.735L743.193 288.026L737.64 227.684L728.593 220.52L722.853 192.654C722.791 192.301 722.708 191.969 722.583 191.637L748.496 222.514L748.475 222.493Z" fill="#144FF3"/>
<path d="M728.593 220.5L738.118 266.805L700.621 274.508L686.375 205.238C686.063 203.784 685.938 202.31 685.938 200.877C685.938 196.745 687.103 192.82 695.588 182.936C697.834 181.4 700.434 180.299 703.241 179.718C704.364 179.49 705.467 179.386 706.569 179.386H706.59C713.973 179.386 720.607 184.328 722.582 191.616C722.686 191.948 722.79 192.281 722.853 192.634L728.593 220.5Z" fill="#4875F1"/>
<path d="M700.6 274.508L714.014 309.559L684.129 357.006L659.485 461.099L649.44 460.476L662.834 350.839L700.6 274.508Z" fill="#144FF3"/>
<path d="M691.387 162.566C687.831 161.819 688.933 168.131 688.933 168.131L687.29 168.65L685.398 162.629L683.11 162.587L681.238 158.766L678.722 159.576C678.722 159.576 669.862 158.829 673.003 155.34C676.143 151.831 690.555 145.083 698.624 152.62C706.714 160.158 703.636 171.682 703.636 171.682C699.664 170.623 696.066 172.429 696.066 172.429L694.881 169.19L692.656 169.419C692.656 169.419 694.964 163.314 691.429 162.566H691.387Z" fill="#BED5FC"/>
<path d="M696.046 172.45C696.046 172.45 699.644 170.644 703.616 171.703L706.549 179.386C705.446 179.386 704.344 179.489 703.221 179.718C700.393 180.299 697.814 181.4 695.568 182.936L693.592 177.683L688.455 180.922C688.455 180.922 675.749 172.243 678.722 159.597L681.239 158.787L683.111 162.608L685.398 162.649L687.291 168.671L688.934 168.152C688.934 168.152 687.832 161.84 691.388 162.587C694.944 163.335 692.615 169.439 692.615 169.439L694.84 169.211L696.025 172.45H696.046Z" fill="#BED5FC"/>
<path d="M661.607 299.197L655.95 294.629L692.344 245.811L700.518 190.349C701.308 184.93 706.777 181.503 712.018 183.165C716.448 184.577 719.047 189.124 718.008 193.651L704.24 252.871L661.628 299.218L661.607 299.197Z" fill="#144FF3"/>
<path d="M309.643 454.516L296.915 444.508H285.914L285.456 452.689C285.456 452.689 300.638 457.07 304.943 457.278C307.251 457.382 308.748 456.8 309.622 456.219C310.246 455.825 310.246 454.911 309.622 454.516H309.643Z" fill="#144FF3"/>
<path d="M357.122 461.161L344.664 451.152H333.393L333.497 459.334C333.497 459.334 348.117 463.715 352.422 463.923C354.73 464.026 356.227 463.445 357.101 462.864C357.725 462.469 357.725 461.555 357.101 461.161H357.122Z" fill="#144FF3"/>
<path d="M465.867 187.317C465.077 185.76 457.237 192.176 456.862 191.803C456.717 191.657 456.821 191.45 457.008 191.2V187.982C454.97 188.833 452.454 190.494 451.372 191.803C449.563 193.983 448.876 195.561 449.812 198.26C451.31 202.538 458.568 199.049 461.001 197.783C467.094 194.627 466.637 188.854 465.867 187.317Z" fill="#BED5FC"/>
<path d="M353.441 158.663C353.441 158.663 354.939 152.454 351.341 152.973C347.722 153.471 349.656 159.722 349.656 159.722L347.452 159.369L346.058 162.525C346.058 162.525 342.565 160.49 338.53 161.32C338.53 161.32 336.201 149.63 344.727 142.612C353.254 135.572 367.23 143.234 370.12 146.91C373.032 150.585 364.152 150.772 364.152 150.772L361.677 149.796L359.576 153.471L357.289 153.388L355.022 159.286L353.441 158.663Z" fill="#BED5FC"/>
<path d="M323.889 336.802C313.096 319.38 296.916 288.275 296.916 258.187L333.872 268.196L355.23 347.682L344.665 451.152H333.393V350.859C333.393 350.859 329.317 345.544 323.869 336.781L323.889 336.802Z" fill="#112B46"/>
<path d="M364.172 150.772C366.335 163.563 353.108 171.453 353.108 171.453L348.179 167.902L346.1 172.533L334.994 169.065L338.53 161.299C342.564 160.489 346.058 162.504 346.058 162.504L347.451 159.347L349.656 159.7C349.656 159.7 347.722 153.45 351.34 152.952C354.938 152.433 353.441 158.641 353.441 158.641L355.021 159.264L357.288 153.367L359.576 153.45L361.676 149.775L364.151 150.751L364.172 150.772Z" fill="#BED5FC"/>
<path d="M346.1 172.533L349.657 173.634V178.783C347.826 176.997 345.518 175.648 342.877 174.942C337.511 173.488 332.083 174.111 327.425 176.312L332.541 168.276L334.995 169.045L346.1 172.512V172.533Z" fill="#112B46"/>
<path d="M317.795 184.93C316.693 186.715 315.82 188.647 315.258 190.765L297.914 254.491L292.465 234.869C292.465 234.869 303.175 204.905 317.795 184.93Z" fill="#4875F1"/>
<path d="M297.914 254.491L315.258 190.765C315.84 188.647 316.693 186.715 317.795 184.93C317.816 184.888 317.837 184.867 317.858 184.847C318.835 183.518 319.833 182.251 320.811 181.005H320.832C322.724 179.033 324.97 177.454 327.403 176.333C332.062 174.132 337.49 173.509 342.855 174.963C345.496 175.669 347.805 177.018 349.635 178.804C352.713 181.732 354.501 185.823 354.501 190.142C354.501 191.512 354.335 192.903 353.94 194.274L333.85 268.216L296.895 258.208L297.893 254.533L297.914 254.491Z" fill="#144FF3"/>
<path d="M296.916 258.187C296.916 288.254 313.075 319.38 323.889 336.802L322.08 351.358L296.916 444.528H285.914L303.508 351.815C303.508 351.815 291.508 290.102 296.895 258.208L296.916 258.187Z" fill="#112B46"/>
<path d="M353.441 158.662C353.441 158.662 354.939 152.454 351.341 152.973C347.722 153.471 349.656 159.721 349.656 159.721L347.452 159.368C347.452 159.368 342.461 162.525 338.53 161.299C338.53 161.299 336.201 149.609 344.727 142.591C353.254 135.551 367.23 143.213 370.12 146.889C373.032 150.564 364.152 150.751 364.152 150.751L361.677 149.775L359.576 153.45L357.289 153.367L355.022 159.265L353.441 158.642V158.662Z" fill="#144FF3"/>
<path d="M408.053 209.307L350.113 179.676C345.829 177.475 340.547 179.094 338.239 183.31C335.66 187.982 337.76 193.837 342.71 195.851L408.739 222.492L422.798 215.619L418.306 205.424L408.053 209.328V209.307Z" fill="#4875F1"/>
<path d="M450.041 193.713L418.326 205.424L422.818 215.62L452.766 200.337L450.041 193.713Z" fill="#BED5FC"/>
<path d="M423.9 216.263L419.491 218.36L413.626 206.109L418.368 204.261L423.9 216.263Z" fill="#112B46"/>
<path d="M691.387 162.566C687.831 161.819 688.933 168.131 688.933 168.131L687.29 168.65L685.398 162.629L683.11 162.587L681.238 158.766L678.722 159.576C678.722 159.576 669.862 158.829 673.003 155.34C676.143 151.831 690.555 145.083 698.624 152.62C706.714 160.158 703.636 171.682 703.636 171.682C699.664 170.623 694.86 169.19 694.86 169.19C694.86 169.19 694.943 163.293 691.387 162.546V162.566Z" fill="#144FF3"/>
<path d="M514.948 208.85H469.299V215.536H514.948V208.85Z" fill="#144FF3"/>
<path d="M570.371 228.867H469.299V235.553H570.371V228.867Z" fill="#144FF3"/>
<path d="M570.371 246.102H469.299V252.788H570.371V246.102Z" fill="#144FF3"/>
<path d="M570.371 263.336H469.299V270.023H570.371V263.336Z" fill="#144FF3"/>
<path d="M570.371 280.571H469.299V287.257H570.371V280.571Z" fill="#144FF3"/>
</g>
<defs>
<clipPath id="clip0_530_4207">
<rect width="935" height="472" fill="white"/>
</clipPath>
</defs>
</svg>
