<svg width="505" height="441" viewBox="0 0 505 441" fill="none" xmlns="http://www.w3.org/2000/svg">
<path fill-rule="evenodd" clip-rule="evenodd" d="M0 106.64V317.596C0 332.285 11.7789 344.319 26.7099 344.319H478.29C492.972 344.319 505 332.202 505 317.596V106.64C505 91.951 492.889 79.9177 478.29 79.9177H26.7099C11.7789 79.9177 0 92.034 0 106.64Z" fill="#6F53FF"/>
<path fill-rule="evenodd" clip-rule="evenodd" d="M21.816 101.993V322.244C21.816 328.136 26.7101 332.783 32.5995 332.783H472.318C478.207 332.783 482.853 328.136 482.853 322.244V101.993C482.853 96.1004 478.207 91.2041 472.318 91.2041H32.5995C26.7101 91.2041 21.816 96.1004 21.816 101.993ZM7.96338 175.769V248.467C7.96338 250.791 9.78828 252.865 12.1109 252.865C14.6823 252.865 16.5072 250.791 16.5072 248.467V175.769C16.5072 173.446 14.6823 171.371 12.1109 171.371C9.78828 171.371 7.96338 173.446 7.96338 175.769Z" fill="#0D0D0D"/>
<path fill-rule="evenodd" clip-rule="evenodd" d="M73.2448 88.8806H297.708C316.206 88.8806 331.385 104.067 331.385 122.574V235.355C331.385 253.612 316.206 268.799 297.708 268.799H73.2448C54.9958 268.799 39.8159 253.612 39.8159 235.355V122.574C39.8159 104.067 54.9958 88.8806 73.2448 88.8806Z" fill="#6F53FF"/>
<path fill-rule="evenodd" clip-rule="evenodd" d="M73.2448 112.283H297.708C308.242 112.283 317.45 107.636 323.671 99.9179L185.476 0L47.5303 100.001C53.6686 107.719 62.959 112.366 73.2448 112.366V112.283Z" fill="#5239D3"/>
<path fill-rule="evenodd" clip-rule="evenodd" d="M73.2448 88.8806H297.708C308.242 88.8806 317.45 93.7769 323.671 101.246L185.476 185.313L47.5303 101.246C53.6686 93.7769 62.959 88.8806 73.2448 88.8806Z" fill="#5239D3"/>
<path fill-rule="evenodd" clip-rule="evenodd" d="M97.1348 31.1206V131.536L185.725 185.313L274.067 131.536V31.1206H97.1348Z" fill="#E5F7FF"/>
<path d="M194.435 91.2042L195.431 86.5569H206.214L200.076 116.101C199.578 117.926 199.578 119.171 199.578 119.669C199.578 120.416 199.578 120.914 200.076 121.246C200.325 121.495 200.573 121.744 201.071 121.744C202.647 121.744 204.389 120.748 206.712 118.922C209.034 116.848 211.108 114.275 212.85 110.955C214.675 107.636 215.422 103.984 215.422 99.918C215.422 96.8474 214.924 93.7768 213.597 90.7063C212.352 87.8847 210.527 85.312 208.205 83.2373C205.882 80.9136 202.813 79.4199 199.495 78.092C195.928 76.8472 192.03 76.2663 187.716 76.2663C183.403 76.2663 179.255 76.7642 175.357 78.092C171.79 79.0879 168.389 80.9136 165.569 82.9883C162.748 85.312 160.426 87.8847 158.352 91.2042C156.776 94.0258 155.532 97.0964 154.536 100.416C153.79 103.735 153.292 107.387 153.292 110.955C153.292 115.603 154.287 119.918 156.112 123.819C157.937 127.636 160.757 131.039 164.324 133.611C167.891 136.433 172.287 138.259 177.43 139.254C182.324 140.499 188.214 140.499 194.601 140.001C199.495 139.503 203.809 138.176 207.458 136.433C211.025 134.856 213.845 132.615 216.417 129.462H225.127C223.551 132.283 221.809 134.856 219.486 137.18C217.163 139.503 214.592 141.578 211.523 143.072C208.454 144.649 204.804 145.894 201.237 146.64C197.421 147.387 193.274 147.885 188.629 147.885C181.91 147.885 175.771 146.889 170.38 145.064C164.988 143.487 160.343 140.914 156.776 137.595C153.209 134.275 150.389 130.126 148.315 125.478C146.49 120.831 145.495 115.686 145.495 110.043C145.495 104.399 146.49 98.7561 148.564 93.8598C150.389 88.7145 153.209 84.3162 156.776 80.4987C160.592 76.9302 164.988 73.7766 170.38 71.7849C175.523 69.7102 181.412 68.7144 187.882 68.7144C193.025 68.7144 197.919 69.4613 202.232 71.038C206.38 72.2829 210.196 74.6065 213.265 77.4281C216.334 80.2497 218.657 83.5693 220.481 87.7187C222.058 91.5361 222.804 95.9345 222.804 100.582C222.804 104.15 222.306 107.802 220.73 111.37C219.486 114.939 217.661 118.092 215.09 120.914C212.767 123.736 209.947 126.059 206.629 127.636C203.311 129.213 199.661 129.96 195.845 129.96C193.523 129.96 192.03 129.711 190.702 128.964C189.458 128.217 188.629 127.138 188.131 125.395C185.808 127.719 182.988 129.213 179.919 129.794C176.85 130.541 173.781 130.292 170.96 129.047C168.14 127.802 165.569 125.976 163.744 123.155C161.919 120.333 161.172 116.765 161.172 112.615C161.172 108.217 162.168 104.15 163.992 99.752C165.817 95.6026 168.389 92.283 171.956 89.4614C175.274 86.8888 179.172 85.644 183.486 85.644C188.38 85.644 191.947 87.4697 194.269 91.2872L194.435 91.2042ZM171.79 112.532C171.79 115.603 172.536 118.175 173.864 120.001C175.44 121.827 177.182 122.574 179.255 122.574C181.827 122.574 184.149 121.578 186.223 119.503C188.297 117.429 189.541 114.856 190.619 111.785C191.615 108.715 192.196 105.644 192.196 102.574C192.196 101.329 191.947 100.001 191.698 98.7561C191.449 97.7603 190.951 96.6814 190.122 95.6856C189.624 94.9387 188.546 94.1088 187.799 93.6109C186.804 93.3619 185.725 93.1129 184.481 93.1129C182.159 93.1129 179.836 93.8598 178.094 95.9345C176.02 97.7603 174.776 100.333 173.449 103.155C172.453 106.225 171.873 109.296 171.873 112.698L171.79 112.532Z" fill="#6F53FF"/>
<path fill-rule="evenodd" clip-rule="evenodd" d="M302.353 359.008H295.385L293.312 367.721H300.279L302.353 359.008Z" fill="#FFD061"/>
<path fill-rule="evenodd" clip-rule="evenodd" d="M295.883 364.9C300.279 367.472 300.528 362.825 302.021 364.153C305.091 367.223 310.482 369.049 314.879 369.796C314.879 370.294 315.376 372.369 314.132 372.369C311.312 372.369 295.385 372.369 293.063 370.543C293.063 370.543 291.238 361.829 295.883 364.9Z" fill="#5425B7"/>
<path fill-rule="evenodd" clip-rule="evenodd" d="M301.523 281.662C308.242 308.634 321.846 331.538 303.846 362.576H293.809C313.054 325.563 280.205 297.596 282.03 286.227C288.169 286.725 295.634 281.082 301.523 281.579V281.662Z" fill="#6F53FF"/>
<path fill-rule="evenodd" clip-rule="evenodd" d="M281.284 249.297C282.03 246.724 288.749 246.475 296.463 248.799C304.178 250.874 309.818 254.691 309.072 257.264C308.325 259.587 301.606 260.085 293.892 257.762C286.178 255.687 280.537 251.87 281.284 249.297Z" fill="#FFD061"/>
<path fill-rule="evenodd" clip-rule="evenodd" d="M279.708 249.795C280.703 246.724 289.247 246.226 298.703 249.048L295.634 260.583C285.846 257.762 278.961 253.114 279.708 249.795Z" fill="#0061A6"/>
<path fill-rule="evenodd" clip-rule="evenodd" d="M282.777 359.505H276.141L274.067 368.219H280.786L282.777 359.505Z" fill="#FFD061"/>
<path fill-rule="evenodd" clip-rule="evenodd" d="M294.39 278.841C301.109 305.812 302.104 331.538 284.104 362.576H274.067C293.062 325.563 280.786 301.165 278.712 294.775C284.85 295.273 288.251 278.343 294.39 278.841Z" fill="#5239D3"/>
<path fill-rule="evenodd" clip-rule="evenodd" d="M276.141 365.398C280.288 367.97 280.786 363.323 282.279 364.651C285.348 367.472 290.74 369.298 295.136 369.796C295.136 370.294 295.634 372.369 294.39 372.369C291.57 372.618 275.643 372.867 273.321 371.124C273.321 371.124 271.496 362.659 276.141 365.481V365.398Z" fill="#5425B7"/>
<path fill-rule="evenodd" clip-rule="evenodd" d="M304.095 290.625C300.528 292.7 282.03 297.596 276.887 297.596C284.104 275.77 265.357 259.587 276.141 249.297C297.459 228.467 303.099 278.094 304.178 290.708L304.095 290.625Z" fill="#ECE8FF"/>
<path fill-rule="evenodd" clip-rule="evenodd" d="M276.639 254.94C278.215 253.115 284.602 255.687 290.491 261.081C296.381 266.476 300.031 272.119 298.206 274.194C296.381 276.268 290.242 273.447 284.104 268.301C278.215 262.907 274.897 257.015 276.639 254.94Z" fill="#FFD061"/>
<path fill-rule="evenodd" clip-rule="evenodd" d="M274.565 253.363C276.887 250.791 284.602 254.11 292.067 260.832L284.104 269.795C276.639 263.073 272.574 255.936 274.565 253.363Z" fill="#6F53FF"/>
<path fill-rule="evenodd" clip-rule="evenodd" d="M282.279 228.467C283.025 229.214 284.353 233.363 284.602 234.608C284.85 236.434 286.178 241.33 283.606 241.579C282.03 241.828 282.86 241.828 283.357 243.405C283.606 244.65 284.353 246.475 284.933 247.803C285.182 249.38 279.044 251.123 277.966 250.127C277.966 248.882 275.892 243.986 275.394 242.658C274.15 239.836 271.827 234.442 272.823 231.869C274.399 229.048 279.21 227.471 282.362 228.55L282.279 228.467Z" fill="#FFD061"/>
<path fill-rule="evenodd" clip-rule="evenodd" d="M282.777 241.828C282.777 241.828 282.777 242.326 283.274 243.405C283.274 243.654 283.274 243.903 283.523 244.401C281.947 244.65 277.883 243.654 278.878 243.156C279.376 242.658 280.122 242.658 280.703 242.409C281.201 242.16 281.947 242.16 282.777 241.911V241.828Z" fill="#CC9922"/>
<path fill-rule="evenodd" clip-rule="evenodd" d="M277.136 234.608C277.634 233.031 279.21 232.035 280.205 231.538C282.279 230.542 284.85 227.72 284.602 225.147C283.855 221.33 280.454 223.571 278.961 225.147C277.717 226.392 277.136 226.724 275.145 226.724C273.569 226.973 272.325 226.973 270.998 228.301C269.422 229.878 268.426 232.948 268.924 235.272C269.422 238.094 269.919 238.841 271.495 241.164C272.242 242.16 274.565 243.737 275.643 243.239C276.141 242.99 272.076 235.77 276.141 237.596C278.712 238.841 276.638 237.098 277.136 234.774V234.608Z" fill="#003D5C"/>
<path fill-rule="evenodd" clip-rule="evenodd" d="M296.961 274.94L311.063 266.725V262.658L294.639 266.974L296.961 274.94Z" fill="#FFD061"/>
<path fill-rule="evenodd" clip-rule="evenodd" d="M310.565 262.907C311.809 262.409 313.136 262.16 314.381 261.662C315.127 262.907 317.948 262.658 319.524 261.413C319.524 264.733 318.279 266.559 314.381 264.733C312.805 265.48 311.56 266.31 309.984 267.057C310.233 265.812 310.233 264.235 310.482 262.907H310.565Z" fill="#FFD061"/>
<path fill-rule="evenodd" clip-rule="evenodd" d="M309.487 244.401C309.736 243.156 310.233 238.259 310.482 236.932C309.238 236.185 309.238 233.363 310.233 231.537C306.915 231.786 305.339 233.363 307.413 237.181L305.09 241.828C306.666 241.579 307.911 244.65 309.487 244.401Z" fill="#FFD061"/>
<path fill-rule="evenodd" clip-rule="evenodd" d="M308.989 257.762L309.736 241.579L306.417 239.504L301.523 251.04L308.989 257.762Z" fill="#FFD061"/>
<path fill-rule="evenodd" clip-rule="evenodd" d="M350.132 232.533H313.883C310.814 232.533 308.491 235.106 308.491 237.927V256.185C308.491 259.255 310.814 261.828 313.883 261.828H350.132C353.201 261.828 355.524 259.255 355.524 256.185V237.927C355.524 235.106 353.201 232.533 350.132 232.533Z" fill="#6F53FF"/>
<path fill-rule="evenodd" clip-rule="evenodd" d="M350.132 232.533H313.883C312.058 232.533 310.565 233.28 309.487 234.608L331.8 248.218L354.363 234.608C353.367 233.363 351.791 232.533 349.966 232.533H350.132Z" fill="#E5F7FF"/>
<path fill-rule="evenodd" clip-rule="evenodd" d="M239.643 315.356H168.223C162.333 315.356 157.688 320.003 157.688 325.895V361.912C157.688 367.555 162.333 372.452 168.223 372.452H239.643C245.283 372.452 250.177 367.555 250.177 361.912V325.895C250.177 320.003 245.283 315.356 239.643 315.356Z" fill="#6F53FF"/>
<path fill-rule="evenodd" clip-rule="evenodd" d="M239.643 315.356H168.223C164.905 315.356 161.836 316.932 160.011 319.173L203.974 345.895L247.938 319.173C245.864 316.849 242.795 315.356 239.726 315.356H239.643Z" fill="#5239D3"/>
<path fill-rule="evenodd" clip-rule="evenodd" d="M308.74 372.369H237.32C231.68 372.369 226.786 377.265 226.786 382.908V418.925C226.786 424.568 231.68 429.465 237.32 429.465H308.74C314.63 429.465 319.275 424.568 319.275 418.925V382.908C319.275 377.265 314.63 372.369 308.74 372.369Z" fill="#6F53FF"/>
<path fill-rule="evenodd" clip-rule="evenodd" d="M308.74 372.369H237.32C234.002 372.369 231.182 373.945 229.108 376.186L273.071 402.908L317.035 376.186C314.961 373.862 312.141 372.369 308.823 372.369H308.74Z" fill="#5239D3"/>
<path fill-rule="evenodd" clip-rule="evenodd" d="M216.251 372.369H144.831C138.942 372.369 134.296 377.265 134.296 382.908V418.925C134.296 424.568 138.942 429.465 144.831 429.465H216.251C221.892 429.465 226.786 424.568 226.786 418.925V382.908C226.786 377.265 221.892 372.369 216.251 372.369Z" fill="#6F53FF"/>
<path fill-rule="evenodd" clip-rule="evenodd" d="M216.251 372.369H144.831C141.513 372.369 138.692 373.945 136.619 376.186L180.582 402.908L224.546 376.186C222.472 373.862 219.403 372.369 216.334 372.369H216.251Z" fill="#5239D3"/>
<path fill-rule="evenodd" clip-rule="evenodd" d="M61.8809 404.734L54.9131 408.303L61.0514 419.838C61.0514 419.838 64.6182 417.514 60.8025 411.124L61.7979 410.626L64.1205 409.381L61.7979 404.734H61.8809Z" fill="#5425B7"/>
<path fill-rule="evenodd" clip-rule="evenodd" d="M54.1665 408.884L55.9914 407.888C55.9914 407.888 57.2357 407.888 57.8163 410.958C58.5629 414.029 62.2127 419.423 62.2127 419.423L60.1389 420.419L54.2495 408.884H54.1665Z" fill="#E6E6E6"/>
<path fill-rule="evenodd" clip-rule="evenodd" d="M111.734 425.066V432.784H124.84C124.84 432.784 124.591 428.635 116.877 428.967L117.126 427.722V425.149H111.734V425.066Z" fill="#5425B7"/>
<path fill-rule="evenodd" clip-rule="evenodd" d="M111.734 433.78V431.456C111.734 431.456 112.232 430.461 115.301 431.207C118.121 432.203 124.84 431.456 124.84 431.456V433.78H111.734Z" fill="#E6E6E6"/>
<path fill-rule="evenodd" clip-rule="evenodd" d="M118.95 427.39H110.241C110.241 427.39 109.494 401.165 107.42 396.518C105.098 392.12 86.3511 365.646 86.3511 365.646H104.102C104.102 365.646 119.033 391.871 119.033 393.697V427.39H118.95Z" fill="#6F53FF"/>
<path fill-rule="evenodd" clip-rule="evenodd" d="M59.5581 403.987L63.7056 410.377C63.7056 410.377 88.3418 403.987 90.9132 399.34C93.4847 394.692 101.448 365.646 101.448 365.646H83.1989C80.3786 378.261 85.7703 387.97 82.2035 393.365C78.6366 398.51 59.5581 403.904 59.5581 403.904V403.987Z" fill="#ECE8FF"/>
<path fill-rule="evenodd" clip-rule="evenodd" d="M106.591 370.792H81.1253C81.1253 370.792 79.3004 329.713 96.0563 331.207C110.655 330.958 106.591 370.792 106.591 370.792Z" fill="#6834D7"/>
<path fill-rule="evenodd" clip-rule="evenodd" d="M116.628 304.484C115.384 304.733 114.057 304.982 112.812 304.982C112.812 317.347 111.568 329.63 95.6416 333.281C97.7154 338.177 99.4573 341.995 101.531 346.891C114.388 335.854 119.282 321.746 116.711 304.484H116.628Z" fill="#6834D7"/>
<path fill-rule="evenodd" clip-rule="evenodd" d="M113.31 305.065C113.31 304.069 112.315 303.82 112.066 302.99C111.817 302.244 111.817 301.414 111.568 300.667C110.573 298.841 111.07 293.198 114.886 297.845C115.881 299.671 115.135 302.492 115.881 304.816C114.886 304.816 114.057 305.065 113.31 305.065Z" fill="#FFD061"/>
<path fill-rule="evenodd" clip-rule="evenodd" d="M104.268 319.173C104.517 319.92 103.771 323.322 103.522 324.318C103.024 325.563 101.697 329.464 99.9548 328.717C98.9594 328.219 99.2083 328.468 98.9594 329.713C98.9594 330.708 98.4617 332.285 98.4617 333.281C97.964 334.526 92.8211 333.281 92.5723 332.285C93.07 331.289 93.8165 327.14 94.1483 325.895C94.3972 323.571 94.8949 318.675 96.7198 317.43C99.0424 316.185 102.858 317.181 104.434 319.256L104.268 319.173Z" fill="#FFD061"/>
<path fill-rule="evenodd" clip-rule="evenodd" d="M99.1255 328.385C99.1255 328.385 99.1255 328.883 98.8767 329.63V330.377C97.6324 330.128 95.3098 327.555 96.0564 327.555C96.5541 327.555 97.0518 327.804 97.6324 327.804C98.1301 328.053 98.6278 328.053 99.2085 328.302L99.1255 328.385Z" fill="#CC9922"/>
<path fill-rule="evenodd" clip-rule="evenodd" d="M98.3787 321.248C99.1252 320.501 100.701 320.252 101.946 320.501C103.77 320.501 106.591 319.505 107.337 317.679C108.333 314.858 105.264 315.107 103.522 315.356C102.277 315.854 101.697 315.605 100.204 315.107C99.2082 314.36 98.1298 314.111 96.8856 314.36C95.0607 314.609 93.3187 316.435 92.4892 318.177C91.7427 320.252 91.7427 320.999 91.7427 323.323C91.9915 324.319 92.7381 326.393 93.8164 326.393C94.3141 326.393 94.3141 320.003 96.3879 322.825C97.6321 324.651 97.1344 322.576 98.4616 321.248H98.3787Z" fill="#003D5C"/>
<path fill-rule="evenodd" clip-rule="evenodd" d="M73.9916 270.874H123.015C126.831 270.874 130.232 274.194 130.232 278.343V302.742C130.232 306.891 126.914 310.211 123.015 310.211H73.9916C69.8441 310.211 66.7749 306.891 66.7749 302.742V278.343C66.7749 274.194 69.8441 270.874 73.9916 270.874Z" fill="#6F53FF"/>
<path fill-rule="evenodd" clip-rule="evenodd" d="M73.9917 270.874H123.015C125.338 270.874 127.412 271.87 128.656 273.696L98.379 291.953L68.3511 273.696C69.5953 271.87 71.6691 270.874 73.9917 270.874Z" fill="#5239D3"/>
<path fill-rule="evenodd" clip-rule="evenodd" d="M79.632 305.065C79.632 304.069 80.6274 303.82 80.8763 302.99C81.1251 302.161 81.1251 301.414 81.374 300.667C82.3694 298.841 81.8717 293.198 77.8071 297.845C77.0605 299.671 77.8071 302.492 77.0605 304.816C77.8071 304.816 78.8855 305.065 79.632 305.065Z" fill="#FFD061"/>
<path fill-rule="evenodd" clip-rule="evenodd" d="M382.234 210.458C384.805 210.458 387.377 212.533 387.874 215.106L391.441 233.114H446.188L442.621 215.106C442.124 212.533 443.617 210.458 446.188 210.458C448.76 210.458 451.082 212.533 451.58 215.106L493.47 422.743C493.968 425.066 492.474 427.141 489.903 427.141C487.332 427.141 485.009 425.066 484.511 422.743L480.696 403.738H425.948L429.764 422.743C430.262 425.066 428.52 427.141 426.197 427.141C423.626 427.141 421.054 425.066 420.557 422.743L378.667 215.106C378.169 212.533 379.911 210.458 382.234 210.458ZM448.262 243.322H393.515L397.911 265.397H452.658L448.262 243.322ZM454.649 275.687H399.902L404.547 297.513H459.294L454.649 275.687ZM461.368 307.804H406.621L411.017 329.879H465.764L461.368 307.804ZM467.755 340.169H413.008L417.405 361.248H472.152L467.755 340.169ZM474.142 371.539H419.395L423.792 393.365H478.539L474.142 371.539Z" fill="#6F53FF"/>
<path fill-rule="evenodd" clip-rule="evenodd" d="M446.686 210.458C444.115 210.458 441.792 212.533 441.295 215.106L437.479 233.114H383.561L387.128 215.106C387.626 212.533 386.133 210.458 383.561 210.458C380.99 210.458 378.667 212.533 378.17 215.106L336.28 422.743C335.782 425.066 337.275 427.141 339.847 427.141C342.418 427.141 344.741 425.066 345.238 422.743L349.054 403.738H402.972L399.405 422.743C398.907 425.066 400.4 427.141 402.972 427.141C405.543 427.141 407.866 425.066 408.363 422.743L450.253 215.106C450.751 212.533 449.258 210.458 446.686 210.458ZM381.405 243.322H435.322L430.926 265.397H377.008L381.405 243.322ZM375.017 275.687H428.935L424.539 297.513H370.372L375.017 275.687ZM368.298 307.804H422.465L417.82 329.879H363.902L368.298 307.804ZM361.911 340.169H415.829L411.681 361.248H357.515L361.911 340.169ZM355.524 371.539H409.691L405.045 393.365H351.128L355.524 371.539Z" fill="#5239D3"/>
<path fill-rule="evenodd" clip-rule="evenodd" d="M417.903 287.057V297.098L400.732 297.347C400.732 297.347 400.981 291.704 411.018 292.202V287.057H417.986H417.903Z" fill="#6F53FF"/>
<path fill-rule="evenodd" clip-rule="evenodd" d="M417.903 298.592V295.77C417.903 295.77 417.156 294.194 413.257 295.521C409.442 296.517 400.649 295.77 400.649 295.77V298.592H417.82H417.903Z" fill="#E6E6E6"/>
<path fill-rule="evenodd" clip-rule="evenodd" d="M387.377 287.057L387.626 297.098L370.123 297.347C370.123 297.347 370.621 291.704 380.409 292.202V287.057H387.377Z" fill="#6F53FF"/>
<path fill-rule="evenodd" clip-rule="evenodd" d="M387.626 298.592V295.77C387.626 295.77 386.63 294.194 382.731 295.521C378.916 296.517 370.123 295.77 370.123 295.77V298.592H387.626Z" fill="#E6E6E6"/>
<path fill-rule="evenodd" clip-rule="evenodd" d="M344.491 150.873C342.915 149.877 343.745 146.723 338.851 144.981C335.782 143.985 338.851 142.657 341.671 143.736C341.671 143.736 337.524 141.412 341.173 141.661C343.496 141.91 346.068 143.736 347.561 145.81C350.381 150.209 346.814 152.781 344.491 150.956V150.873Z" fill="#FFD061"/>
<path fill-rule="evenodd" clip-rule="evenodd" d="M407.865 209.96L388.372 290.874H376.013L382.234 203.487L407.865 209.96Z" fill="#ECE8FF"/>
<path fill-rule="evenodd" clip-rule="evenodd" d="M417.405 201.496L420.474 290.874H405.626L388.372 203.487L417.405 201.496Z" fill="#5239D3"/>
<path fill-rule="evenodd" clip-rule="evenodd" d="M375.017 131.288C372.446 132.532 365.478 140.831 375.764 153.611C380.658 159.753 376.511 177.512 387.294 175.437C396.501 173.612 396.833 163.072 396.004 155.935C395.257 148.964 389.865 135.603 382.649 133.362C381.902 133.113 375.183 131.039 374.934 131.288H375.017Z" fill="#003D5C"/>
<path fill-rule="evenodd" clip-rule="evenodd" d="M392.768 171.371C397.663 168.051 396.086 157.263 386.879 155.686C366.556 158.508 366.307 163.155 351.957 149.794C348.141 147.47 346.316 149.047 344.989 151.62C349.634 169.13 367.883 184.234 392.768 171.371Z" fill="#5239D3"/>
<path fill-rule="evenodd" clip-rule="evenodd" d="M395.091 148.798C384.556 149.794 376.842 159.338 377.92 169.877L381.238 202.243C381.985 208.135 387.128 212.533 393.017 212.035L409.939 210.21C415.829 209.712 420.225 204.317 419.478 198.425L416.16 166.06C415.165 155.52 405.626 147.802 395.091 148.881V148.798Z" fill="#6F53FF"/>
<path fill-rule="evenodd" clip-rule="evenodd" d="M374.768 134.69C372.695 136.765 371.948 142.657 374.52 145.977C377.34 150.126 378.086 145.728 382.234 149.296C384.557 151.122 385.054 159.587 388.123 155.686C391.193 151.786 389.119 146.142 385.552 143.072C383.727 141.246 381.736 138.674 379.414 136.931C378.916 136.433 375.266 134.109 374.768 134.607V134.69Z" fill="#FFD061"/>
<path fill-rule="evenodd" clip-rule="evenodd" d="M419.23 176.516H381.736C378.667 176.516 376.096 178.84 376.096 182.159V200.915C376.096 203.985 378.667 206.558 381.736 206.558H419.23C422.299 206.558 424.87 203.985 424.87 200.915V182.159C424.87 178.84 422.299 176.516 419.23 176.516Z" fill="#6F53FF"/>
<path fill-rule="evenodd" clip-rule="evenodd" d="M419.23 176.516H381.736C379.911 176.516 378.418 177.263 377.34 178.591L400.483 192.45L423.626 178.591C422.631 177.346 421.055 176.516 419.23 176.516Z" fill="#5239D3"/>
<path fill-rule="evenodd" clip-rule="evenodd" d="M414.585 198.425C414.087 198.923 410.188 202.574 412.511 202.823C413.009 202.823 413.506 202.077 414.585 202.077C419.479 202.325 416.409 209.545 418.4 209.048C419.396 208.799 421.718 201.33 420.225 198.259C418.732 195.188 416.078 196.682 414.585 198.508V198.425Z" fill="#FFD061"/>
<path fill-rule="evenodd" clip-rule="evenodd" d="M404.299 150.043C398.409 148.798 391.441 157.512 396.833 165.23C412.759 178.093 416.326 175.022 416.326 194.774C417.073 199.172 419.395 199.421 422.465 198.591C432.004 183.155 430.428 159.504 404.216 150.043H404.299Z" fill="#5239D3"/>
<path fill-rule="evenodd" clip-rule="evenodd" d="M379.911 140.333C392.52 142.408 375.515 151.62 396.584 157.263C408.695 160.582 410.686 153.943 423.543 162.906C438.474 173.446 448.677 144.4 421.967 135.935C411.93 132.864 410.934 143.653 406.289 138.259C391.358 120.25 396.252 144.151 383.395 130.79C375.183 122.325 370.538 138.756 379.828 140.333H379.911Z" fill="#003D5C"/>
<path fill-rule="evenodd" clip-rule="evenodd" d="M76.3141 304.484C77.5583 304.733 78.8855 304.982 80.1298 304.982C80.1298 317.347 81.374 329.63 97.0516 333.281C95.2267 338.177 93.4847 341.995 91.411 346.891C78.5537 335.854 73.6597 321.746 76.2311 304.484H76.3141Z" fill="#6834D7"/>
</svg>
