<?xml version="1.0" encoding="utf-8"?>
<!-- Generator: Adobe Illustrator 27.0.0, SVG Export Plug-In . SVG Version: 6.00 Build 0)  -->
<svg version="1.1" id="Layer_1" xmlns="http://www.w3.org/2000/svg" xmlns:xlink="http://www.w3.org/1999/xlink" x="0px" y="0px"
	 viewBox="0 0 775.43 229.06" style="enable-background:new 0 0 775.43 229.06;" xml:space="preserve">
<style type="text/css">
	.st0{fill:url(#SVGID_1_);}
	.st1{fill:url(#SVGID_00000017488002054779617270000014558615632945975433_);}
	.st2{fill:url(#SVGID_00000026873505639189052820000000555910830297496482_);}
	.st3{fill:url(#SVGID_00000100362164406418789290000015040566224385060009_);}
	.st4{fill:url(#SVGID_00000015345151854291022940000016806706798856095381_);}
	.st5{fill:#FFFFFF;}
</style>
<linearGradient id="SVGID_1_" gradientUnits="userSpaceOnUse" x1="-584.05" y1="-65.4311" x2="-352.4012" y2="-65.4311">
	<stop  offset="0" style="stop-color:#3D2F90"/>
	<stop  offset="0.4884" style="stop-color:#3C7CC0"/>
	<stop  offset="1" style="stop-color:#3D2F90"/>
</linearGradient>
<polygon class="st0" points="-359.63,-66.73 -352.4,87.74 -584.05,-145.52 -510.46,-218.6 "/>
<linearGradient id="SVGID_00000168805731564889815180000004243239312960473273_" gradientUnits="userSpaceOnUse" x1="-969.6529" y1="-378.3586" x2="-366.4494" y2="-378.3586">
	<stop  offset="0" style="stop-color:#3D2F90"/>
	<stop  offset="0.4884" style="stop-color:#3C7CC0"/>
	<stop  offset="1" style="stop-color:#3D2F90"/>
</linearGradient>
<polygon style="fill:url(#SVGID_00000168805731564889815180000004243239312960473273_);" points="-668.05,-281.3 -969.65,-582.08 
	-969.65,-471.54 -891.51,-393.69 -668.05,-174.63 -444.6,-393.69 -366.45,-471.54 -366.45,-582.08 "/>
<linearGradient id="SVGID_00000154411000847424058530000004542952973831393453_" gradientUnits="userSpaceOnUse" x1="-905.3314" y1="-465.1605" x2="-428.2521" y2="-465.1605">
	<stop  offset="0" style="stop-color:#3D2F90"/>
	<stop  offset="0.4884" style="stop-color:#3C7CC0"/>
	<stop  offset="1" style="stop-color:#3D2F90"/>
</linearGradient>
<polygon style="fill:url(#SVGID_00000154411000847424058530000004542952973831393453_);" points="-666.79,-582.08 -905.33,-582.08 
	-666.79,-348.24 -428.25,-582.08 "/>
<linearGradient id="SVGID_00000149376553875783042690000008648725210469216423_" gradientUnits="userSpaceOnUse" x1="-1035.8544" y1="-187.7821" x2="-300.2479" y2="-187.7821">
	<stop  offset="0" style="stop-color:#3C7CC0"/>
	<stop  offset="1" style="stop-color:#3D2F90"/>
</linearGradient>
<path style="fill:url(#SVGID_00000149376553875783042690000008648725210469216423_);" d="M-363.6-338.22
	C-363.6-151.43-499.91,0-668.05,0s-304.45-151.43-304.45-338.22c0-18.27,1.32-36.2,3.83-53.69l-54.24-54.03
	c-8.42,34.32-12.94,70.43-12.94,107.72c0,225.66,164.67,408.59,367.8,408.59s367.8-182.93,367.8-408.59
	c0-37.29-4.52-73.4-12.94-107.72l-54.24,54.03C-364.92-374.42-363.6-356.49-363.6-338.22z"/>
<linearGradient id="SVGID_00000065758518280159419410000006130119591804034229_" gradientUnits="userSpaceOnUse" x1="-972.5056" y1="-195.9537" x2="-363.5967" y2="-195.9537">
	<stop  offset="0" style="stop-color:#3D2F90"/>
	<stop  offset="1" style="stop-color:#3C7CC0"/>
</linearGradient>
<path style="fill:url(#SVGID_00000065758518280159419410000006130119591804034229_);" d="M-668.05-96.8l-275.2-269.79l-25.42-25.32
	c-2.51,17.49-3.83,35.41-3.83,53.69C-972.51-151.43-836.2,0-668.05,0S-363.6-151.43-363.6-338.22c0-18.27-1.32-36.2-3.83-53.69
	l-25.42,25.32L-668.05-96.8z"/>
<g>
	<path class="st5" d="M85.09,158.25c-7.16,0-13.8-1.14-19.9-3.41c-6.11-2.27-11.39-5.5-15.86-9.67c-4.47-4.17-7.94-9.08-10.43-14.72
		c-2.49-5.64-3.73-11.79-3.73-18.45c0-6.74,1.24-12.91,3.73-18.51c2.48-5.6,5.96-10.49,10.43-14.66c4.46-4.17,9.75-7.39,15.86-9.67
		c6.11-2.27,12.74-3.41,19.9-3.41c7.24,0,13.9,1.14,19.97,3.41c6.07,2.27,11.33,5.5,15.8,9.67c4.46,4.17,7.94,9.06,10.43,14.66
		c2.48,5.6,3.73,11.77,3.73,18.51c0,6.66-1.24,12.81-3.73,18.45c-2.49,5.65-5.96,10.55-10.43,14.72c-4.47,4.17-9.73,7.39-15.8,9.67
		C98.99,157.11,92.33,158.25,85.09,158.25z M85.09,134.11c2.78,0,5.37-0.51,7.77-1.52c2.4-1.01,4.51-2.46,6.32-4.36
		c1.81-1.9,3.22-4.21,4.23-6.95c1.01-2.74,1.52-5.83,1.52-9.29c0-3.45-0.51-6.55-1.52-9.29c-1.01-2.74-2.42-5.05-4.23-6.95
		c-1.81-1.9-3.92-3.35-6.32-4.36c-2.4-1.01-4.99-1.52-7.77-1.52s-5.37,0.51-7.77,1.52c-2.4,1.01-4.51,2.46-6.32,4.36
		c-1.81,1.9-3.22,4.21-4.23,6.95c-1.01,2.74-1.52,5.83-1.52,9.29c0,3.46,0.51,6.55,1.52,9.29c1.01,2.74,2.42,5.05,4.23,6.95
		c1.81,1.9,3.92,3.35,6.32,4.36C79.72,133.6,82.31,134.11,85.09,134.11z M114.03,178.59c-4.13,0-7.96-0.4-11.5-1.2
		c-3.54-0.8-6.97-2.13-10.3-3.98c-3.33-1.85-6.8-4.4-10.43-7.65c-3.62-3.24-7.67-7.27-12.13-12.07l30.83-7.58
		c2.02,3.12,3.75,5.52,5.18,7.2c1.43,1.69,2.84,2.87,4.23,3.54c1.39,0.67,2.97,1.01,4.74,1.01c4.38,0,8.47-1.9,12.26-5.69
		l12.89,15.16C133.49,174.84,124.9,178.59,114.03,178.59z"/>
	<path class="st5" d="M173.8,157.49c-5.48,0-10.43-1.12-14.85-3.35c-4.42-2.23-7.9-5.73-10.43-10.49
		c-2.53-4.76-3.79-10.89-3.79-18.39V87.1h28.56v33.24c0,4.89,0.8,8.3,2.4,10.24c1.6,1.94,3.79,2.91,6.57,2.91
		c1.68,0,3.26-0.44,4.74-1.33c1.47-0.89,2.67-2.36,3.6-4.42c0.93-2.06,1.39-4.78,1.39-8.15V87.1h28.56v69.13h-27.17v-19.97
		l5.43,5.43c-2.44,5.39-5.92,9.37-10.43,11.94C183.89,156.2,179.03,157.49,173.8,157.49z"/>
	<path class="st5" d="M271.36,157.49c-8.43,0-15.78-1.56-22.05-4.68c-6.28-3.12-11.14-7.39-14.6-12.83
		c-3.46-5.43-5.18-11.56-5.18-18.39c0-6.99,1.71-13.18,5.12-18.58c3.41-5.39,8.09-9.61,14.03-12.64c5.94-3.03,12.62-4.55,20.03-4.55
		c6.82,0,13.12,1.35,18.89,4.04c5.77,2.7,10.4,6.7,13.9,12.01c3.5,5.31,5.24,11.88,5.24,19.71c0,1.01-0.04,2.13-0.13,3.35
		c-0.09,1.22-0.17,2.34-0.25,3.35h-53.2v-13.78h38.04l-10.74,3.67c0-2.7-0.49-4.99-1.45-6.89c-0.97-1.9-2.3-3.37-3.98-4.42
		c-1.69-1.05-3.71-1.58-6.07-1.58c-2.36,0-4.4,0.53-6.13,1.58c-1.73,1.05-3.05,2.53-3.98,4.42c-0.93,1.9-1.39,4.19-1.39,6.89v4.3
		c0,2.95,0.59,5.48,1.77,7.58c1.18,2.11,2.86,3.69,5.06,4.74c2.19,1.05,4.84,1.58,7.96,1.58c3.2,0,5.83-0.42,7.9-1.26
		c2.06-0.84,4.23-2.1,6.51-3.79l14.91,15.04c-3.37,3.62-7.52,6.38-12.45,8.28C284.19,156.54,278.27,157.49,271.36,157.49z"/>
	<path class="st5" d="M407.21,85.83c5.22,0,9.92,1.07,14.09,3.22c4.17,2.15,7.46,5.5,9.86,10.05c2.4,4.55,3.6,10.45,3.6,17.69v39.43
		H406.2v-34.5c0-4.3-0.72-7.35-2.15-9.16c-1.43-1.81-3.29-2.72-5.56-2.72c-1.69,0-3.2,0.42-4.55,1.26
		c-1.35,0.84-2.42,2.17-3.22,3.98c-0.8,1.81-1.2,4.28-1.2,7.39v33.74h-28.56v-34.5c0-4.3-0.67-7.35-2.02-9.16
		c-1.35-1.81-3.24-2.72-5.69-2.72c-1.69,0-3.2,0.42-4.55,1.26c-1.35,0.84-2.42,2.17-3.22,3.98c-0.8,1.81-1.2,4.28-1.2,7.39v33.74
		h-28.56V87.1h27.17v19.84l-5.56-5.56c2.61-5.22,6.11-9.12,10.49-11.69c4.38-2.57,9.27-3.85,14.66-3.85
		c6.07,0,11.44,1.58,16.11,4.74c4.68,3.16,7.81,8.15,9.42,14.98l-8.72-1.39c2.53-5.73,6.21-10.21,11.06-13.46
		C395.19,87.46,400.81,85.83,407.21,85.83z"/>
	<path class="st5" d="M469.39,157.49c-5.65,0-10.36-0.97-14.15-2.91c-3.79-1.94-6.66-4.53-8.59-7.77
		c-1.94-3.24-2.91-6.84-2.91-10.81c0-4.46,1.14-8.25,3.41-11.37c2.27-3.12,5.75-5.48,10.43-7.08c4.68-1.6,10.59-2.4,17.76-2.4h14.41
		v13.77h-9.86c-3.03,0-5.24,0.49-6.63,1.45c-1.39,0.97-2.09,2.42-2.09,4.36c0,1.6,0.61,2.93,1.83,3.98
		c1.22,1.05,2.89,1.58,4.99,1.58c1.94,0,3.73-0.53,5.37-1.58c1.64-1.05,2.84-2.72,3.6-4.99l3.67,8.47c-1.1,5.14-3.41,8.97-6.95,11.5
		C480.13,156.22,475.37,157.49,469.39,157.49z M488.97,156.22v-12.26l-2.02-3.29v-23.25c0-3.37-1.03-5.94-3.1-7.71
		c-2.07-1.77-5.41-2.65-10.05-2.65c-3.12,0-6.28,0.49-9.48,1.45c-3.2,0.97-5.94,2.3-8.22,3.98l-9.1-18.83
		c4.04-2.53,8.89-4.46,14.53-5.81c5.64-1.35,11.16-2.02,16.55-2.02c11.88,0,21.08,2.65,27.61,7.96c6.53,5.31,9.79,13.73,9.79,25.27
		v37.15H488.97z"/>
	<path class="st5" d="M542.17,81.54c-5.22,0-9.39-1.39-12.51-4.17c-3.12-2.78-4.68-6.23-4.68-10.36c0-4.13,1.56-7.58,4.68-10.36
		c3.12-2.78,7.29-4.17,12.51-4.17c5.22,0,9.39,1.31,12.51,3.92c3.12,2.61,4.68,5.98,4.68,10.11c0,4.38-1.56,7.98-4.68,10.81
		C551.57,80.13,547.4,81.54,542.17,81.54z M527.89,156.22V87.1h28.56v69.13H527.89z"/>
	<path class="st5" d="M569.09,156.22V62.45h28.56v93.77H569.09z"/>
	<path class="st5" d="M648.45,157.49c-8.42,0-15.78-1.56-22.05-4.68c-6.28-3.12-11.14-7.39-14.6-12.83
		c-3.46-5.43-5.18-11.56-5.18-18.39c0-6.99,1.71-13.18,5.12-18.58c3.41-5.39,8.09-9.61,14.03-12.64c5.94-3.03,12.62-4.55,20.03-4.55
		c6.82,0,13.12,1.35,18.89,4.04c5.77,2.7,10.4,6.7,13.9,12.01c3.5,5.31,5.24,11.88,5.24,19.71c0,1.01-0.04,2.13-0.13,3.35
		c-0.09,1.22-0.17,2.34-0.25,3.35h-53.2v-13.78h38.04l-10.74,3.67c0-2.7-0.49-4.99-1.45-6.89c-0.97-1.9-2.3-3.37-3.98-4.42
		c-1.69-1.05-3.71-1.58-6.07-1.58c-2.36,0-4.4,0.53-6.13,1.58c-1.73,1.05-3.06,2.53-3.98,4.42c-0.93,1.9-1.39,4.19-1.39,6.89v4.3
		c0,2.95,0.59,5.48,1.77,7.58c1.18,2.11,2.86,3.69,5.05,4.74c2.19,1.05,4.84,1.58,7.96,1.58c3.2,0,5.83-0.42,7.9-1.26
		c2.06-0.84,4.23-2.1,6.51-3.79l14.91,15.04c-3.37,3.62-7.52,6.38-12.45,8.28S655.36,157.49,648.45,157.49z"/>
	<path class="st5" d="M692.81,156.22V87.1h27.17v20.85l-4.42-5.94c2.1-5.39,5.48-9.43,10.11-12.13c4.63-2.7,10.19-4.04,16.68-4.04
		v25.27c-1.26-0.17-2.38-0.29-3.35-0.38c-0.97-0.08-1.96-0.13-2.97-0.13c-4.3,0-7.82,1.12-10.55,3.35
		c-2.74,2.23-4.11,6.09-4.11,11.56v30.71H692.81z"/>
</g>
</svg>
