<svg width="1920" height="1080" viewBox="0 0 1920 1080" fill="none" xmlns="https://www.w3.org/2000/svg">
<path d="M1920 0H0V1080H1920V0Z" fill="#261B26"/>
<path d="M1920 512.995V0H0V371.005L629.641 620.895L762.502 1080H1190.44L1307.63 675.93L1920 512.995Z" fill="url(#paint0_linear_819_4405)"/>
<path style="mix-blend-mode:darken" d="M0 371.005V1080H762.502L629.641 620.895L0 371.005Z" fill="url(#paint1_linear_819_4405)"/>
<path d="M1920 512.995L1307.63 675.93L1190.44 1080H1920V512.995Z" fill="url(#paint2_linear_819_4405)"/>
<path style="mix-blend-mode:darken" d="M746.848 543.305L1116.69 0H0V462.895L335.365 93.435L746.848 543.305Z" fill="url(#paint3_linear_819_4405)"/>
<path style="mix-blend-mode:darken" d="M1237.75 1080H1249.2L1920 132.435V0H1116.69L746.848 543.305L1237.75 1080Z" fill="url(#paint4_linear_819_4405)"/>
<path style="mix-blend-mode:darken" d="M746.848 543.305L335.365 93.4351L0 462.895V1080H691.64L492.416 917.065L746.848 543.305Z" fill="url(#paint5_linear_819_4405)"/>
<path style="mix-blend-mode:darken" d="M746.849 543.305L492.417 917.065L691.641 1080H1237.75L746.849 543.305Z" fill="url(#paint6_linear_819_4405)"/>
<path style="mix-blend-mode:darken" d="M1920 386.905L1623.21 1080H1920V386.905Z" fill="url(#paint7_linear_819_4405)"/>
<path style="mix-blend-mode:darken" d="M1920 132.436L1249.2 1080H1623.21L1920 386.906V132.436Z" fill="url(#paint8_linear_819_4405)"/>
<mask id="mask0_819_4405" style="mask-type:luminance" maskUnits="userSpaceOnUse" x="0" y="0" width="1920" height="1080">
<path d="M1920 0H0V1080H1920V0Z" fill="white"/>
</mask>
<g mask="url(#mask0_819_4405)">
<path style="mix-blend-mode:screen" d="M1291.84 -257.065C1291.6 -257.34 492.182 919.805 492.65 916.615L1381.94 1643.56C1378.49 1647.46 2195.69 -258.66 2194.92 -257.76C2201.66 -256.2 1243.43 1086.59 1244.32 1089.21C1243.51 1088.77 335.706 94.8754 334.822 94.2254C338.801 91.6654 -377.165 878.615 -376.681 878.08C-376.951 877.215 335.016 92.8304 335.357 92.0504C334.933 93.2754 1249.75 1087.5 1243.3 1086.04C1243.29 1086.04 2195.05 -258.005 2195.05 -258.005L2200.74 -266.04L2196.68 -256.56C2196.84 -256.14 1381.77 1645.02 1381.82 1645.47C1381.67 1646.03 492.488 917.29 492.182 917.52C490.711 917.3 1291.79 -257.325 1291.84 -257.06L1291.84 -257.065Z" fill="url(#paint9_linear_819_4405)"/>
</g>
<mask id="mask1_819_4405" style="mask-type:luminance" maskUnits="userSpaceOnUse" x="0" y="0" width="1920" height="1080">
<path d="M1920 0H0V1080H1920V0Z" fill="white"/>
</mask>
<g mask="url(#mask1_819_4405)">
<path style="mix-blend-mode:screen" d="M-34.5326 357.14C-34.3223 357.125 630.184 619.83 630.422 619.855C630.537 619.795 681.77 796.92 681.909 797.075C714.005 907.77 752.017 1039.83 783.784 1150.67C796.359 1194.6 821.811 1283.64 834.295 1327.66C820.859 1284.6 795.36 1195.17 782.308 1151.35C749.986 1040.73 711.625 908.88 679.636 798.12L628.677 621.335C632.445 623.505 -35.9051 357.37 -34.5326 357.14Z" fill="url(#paint10_linear_819_4405)"/>
<path style="mix-blend-mode:screen" d="M2045.97 479.629C2046.14 479.124 1304.76 679.174 1308.63 676.394L1258.59 849.544C1226.08 961.714 1190.44 1083.87 1157.75 1195.51C1140.7 1252.86 1124.18 1311.67 1106.72 1368.21C1123.18 1310.39 1139.73 1252.61 1156.32 1194.85C1203.64 1029.71 1258.33 841.254 1306.63 675.469L1306.84 674.769C1307.42 674.919 2045.71 478.804 2045.97 479.629Z" fill="url(#paint11_linear_819_4405)"/>
</g>
<path style="mix-blend-mode:darken" d="M1920 93.435V0H1471.77L1411.06 574.545L1920 93.435Z" fill="url(#paint12_linear_819_4405)"/>
<path style="mix-blend-mode:darken" d="M1625.15 790.275L1920 896.455V93.4351L1411.06 574.545L1625.15 790.275Z" fill="url(#paint13_linear_819_4405)"/>
<path style="mix-blend-mode:darken" d="M1307.63 675.93L996.138 1080H1912.68L1625.15 790.275L1307.63 675.93Z" fill="url(#paint14_linear_819_4405)"/>
<path style="mix-blend-mode:darken" d="M1471.77 0H1111.73L1411.06 574.545L1471.77 0Z" fill="url(#paint15_linear_819_4405)"/>
<path style="mix-blend-mode:darken" d="M1912.68 1080H1920V896.454L1625.15 790.274L1912.68 1080Z" fill="url(#paint16_linear_819_4405)"/>
<path style="mix-blend-mode:darken" d="M0 579.53V1080H893.649L629.641 620.895L0 579.53Z" fill="url(#paint17_linear_819_4405)"/>
<path style="mix-blend-mode:darken" d="M272.747 0H0V315.525L615.852 513.71L272.747 0Z" fill="url(#paint18_linear_819_4405)"/>
<path style="mix-blend-mode:darken" d="M963.689 0H887.1L615.852 513.71L963.689 0Z" fill="url(#paint19_linear_819_4405)"/>
<path style="mix-blend-mode:darken" d="M887.099 0H272.747L615.852 513.71L887.099 0Z" fill="url(#paint20_linear_819_4405)"/>
<mask id="mask2_819_4405" style="mask-type:luminance" maskUnits="userSpaceOnUse" x="0" y="0" width="1920" height="1080">
<path d="M1920 0H0V1080H1920V0Z" fill="white"/>
</mask>
<g mask="url(#mask2_819_4405)">
<path style="mix-blend-mode:color-dodge" d="M628.879 621.585L869.562 1445.93L936.496 1156.46L628.879 621.585Z" fill="url(#paint21_linear_819_4405)"/>
<path style="mix-blend-mode:color-dodge" d="M960.051 -138.03L615.411 513.34L1086.85 -165.87L960.051 -138.03Z" fill="url(#paint22_linear_819_4405)"/>
<path style="mix-blend-mode:color-dodge" d="M1641.41 796.495L2045.97 1213.9L2027.19 935.14L1641.41 796.495Z" fill="url(#paint23_linear_819_4405)"/>
<path style="mix-blend-mode:color-dodge" d="M1491.47 -138.03L1488.93 -115.49L1411.3 574.16L2074.45 -53.9501L1726.25 -203.645L1491.47 -138.03Z" fill="url(#paint24_linear_819_4405)"/>
<path style="mix-blend-mode:color-dodge" d="M615.851 615.42L-254.376 561.335L-196.931 357.14H-24.5914L615.851 615.42Z" fill="url(#paint25_linear_819_4405)"/>
</g>
<mask id="mask3_819_4405" style="mask-type:luminance" maskUnits="userSpaceOnUse" x="0" y="0" width="1920" height="1080">
<path d="M1920 0H0V1080H1920V0Z" fill="white"/>
</mask>
<g mask="url(#mask3_819_4405)">
<path style="mix-blend-mode:color-dodge" d="M1308.63 676.394L1148.79 1239.37L996.138 1080L1308.63 676.394Z" fill="url(#paint26_linear_819_4405)"/>
<path style="mix-blend-mode:color-dodge" d="M1625.15 790.275L1789.8 1252.09L2008.52 1088.81L1625.15 790.275Z" fill="url(#paint27_linear_819_4405)"/>
<path style="mix-blend-mode:color-dodge" d="M1779.7 -172.94L1421.2 566.2L1954.68 111.22L1927.76 -192.025L1779.7 -172.94Z" fill="url(#paint28_linear_819_4405)"/>
<path style="mix-blend-mode:color-dodge" d="M629.641 620.895L714.716 1305.11L865.083 1194.84L629.641 620.895Z" fill="url(#paint29_linear_819_4405)"/>
<path style="mix-blend-mode:color-dodge" d="M935.115 -62.6702L615.979 513.065L157.825 -136.89L842.582 -196.265L935.115 -62.6702Z" fill="url(#paint30_linear_819_4405)"/>
</g>
<mask id="mask4_819_4405" style="mask-type:luminance" maskUnits="userSpaceOnUse" x="0" y="0" width="1920" height="1080">
<path d="M1920 0H0V1080H1920V0Z" fill="white"/>
</mask>
<g mask="url(#mask4_819_4405)">
<path style="mix-blend-mode:color-dodge" d="M1059.52 -100.495C1059.06 -100.46 1414.63 576.68 1410.59 573.755C1488.29 500.23 1863.93 144.245 1933.23 79.1199C2034.5 -16.0551 2146.79 -122.725 2247.71 -216.165C2113.33 -87.8601 1965.42 52.2749 1830.09 180.375C1829.42 181.005 1411.48 575.38 1410.86 575.96C1410.62 575.01 1059.15 -99.6501 1059.52 -100.49V-100.495Z" fill="url(#paint31_linear_819_4405)"/>
<path style="mix-blend-mode:color-dodge" d="M2031.58 936.714L1307.51 676.494C1218.58 793.279 981.952 1099.12 894.247 1212.93C894.171 1212.82 756.078 1391.91 756.003 1391.39L893.64 1212.19C980.841 1098.65 1217.02 792.519 1307.49 675.269C1307.71 675.504 2031.64 936.279 2031.58 936.714Z" fill="url(#paint32_linear_819_4405)"/>
<path style="mix-blend-mode:color-dodge" d="M-75.9267 574.395C-75.8791 574.26 630.018 619.835 630.137 619.74C729.481 791.865 853.972 1008.1 952.658 1180.8C979.224 1227.29 1033.04 1321.55 1059.52 1368.18C1032.25 1322.77 978.34 1228.31 951.297 1182.04C851.869 1010.24 727.645 793.97 628.88 621.585C632.529 622.455 -77.1168 575 -75.9267 574.39V574.395Z" fill="url(#paint33_linear_819_4405)"/>
<path style="mix-blend-mode:color-dodge" d="M-140.271 270.305L615.983 513.065L615.411 513.34C691.958 368.105 796.84 169.61 873.648 24.6048C873.735 24.6998 959.905 -138.53 960.051 -138.03L874.282 25.1398C797.788 170.455 693.029 368.99 616.288 514.075L616.082 514.465C615.773 514.225 -140.219 270.76 -140.271 270.3V270.305Z" fill="url(#paint34_linear_819_4405)"/>
<path style="mix-blend-mode:color-dodge" d="M1484.04 -115.49C1483.96 -115.65 1411.57 576.225 1411.3 574.16C1527.64 691.24 1825.78 991.369 1938.09 1104.85C1938.01 1104.95 2113.75 1282.15 2113.34 1282.29L1937.51 1105.77C1826.15 993.879 1525.71 690.835 1410.64 574.75C1410.79 574.515 1483.69 -115.57 1484.03 -115.495L1484.04 -115.49Z" fill="url(#paint35_linear_819_4405)"/>
<path style="mix-blend-mode:color-dodge" d="M237.704 -52.5844L616.197 513.34C683.477 410.82 867.654 141.61 935.056 41.4505C935.132 41.5605 1041.85 -115.969 1041.94 -115.449C988.919 -36.7694 882.454 121.116 829.325 199.595L616.197 514.085L615.848 514.6L615.503 514.08C615.594 513.985 237.287 -52.5344 237.708 -52.5844H237.704Z" fill="url(#paint36_linear_819_4405)"/>
</g>
<path style="mix-blend-mode:color-dodge" d="M1385.04 710.29C1520.28 680.908 1626.87 634.826 1623.12 607.363C1619.36 579.899 1506.68 581.455 1371.44 610.837C1236.2 640.219 1129.61 686.301 1133.37 713.765C1137.12 741.228 1249.8 739.673 1385.04 710.29Z" fill="url(#paint37_radial_819_4405)"/>
<path style="mix-blend-mode:color-dodge" d="M1146.64 971.208C1161.01 950.023 1050.49 801.241 899.781 638.893C749.077 476.546 615.262 362.111 600.896 383.296C586.531 404.481 697.055 553.263 847.76 715.611C998.464 877.958 1132.28 992.393 1146.64 971.208Z" fill="url(#paint38_radial_819_4405)"/>
<path style="mix-blend-mode:color-dodge" d="M758.302 331.599C840.686 186.666 892.901 56.0179 874.927 39.7872C856.954 23.5565 775.598 127.89 693.214 272.822C610.83 417.755 558.615 548.404 576.589 564.634C594.562 580.865 675.918 476.531 758.302 331.599Z" fill="url(#paint39_radial_819_4405)"/>
<path style="mix-blend-mode:color-dodge" d="M1856.86 1016.45C1870.19 994.218 1789.49 889.068 1676.63 781.596C1563.76 674.124 1461.46 605.026 1448.13 627.262C1434.8 649.499 1515.5 754.648 1628.36 862.12C1741.23 969.592 1843.53 1038.69 1856.86 1016.45Z" fill="url(#paint40_radial_819_4405)"/>
<g style="mix-blend-mode:soft-light">
<path d="M1920 0H0V1080H1920V0Z" fill="#47617F"/>
</g>
<path opacity="0.7" d="M1920 0H0V1080H1920V0Z" fill="#0B0B0B"/>
<defs>
<linearGradient id="paint0_linear_819_4405" x1="717.54" y1="-335.875" x2="1797" y2="1125.25" gradientUnits="userSpaceOnUse">
<stop stop-color="#342733"/>
<stop offset="1"/>
</linearGradient>
<linearGradient id="paint1_linear_819_4405" x1="639.514" y1="523.735" x2="-371.058" y2="1020.7" gradientUnits="userSpaceOnUse">
<stop stop-color="#342733"/>
<stop offset="1"/>
</linearGradient>
<linearGradient id="paint2_linear_819_4405" x1="1547.83" y1="530.56" x2="1583.51" y2="1339.03" gradientUnits="userSpaceOnUse">
<stop stop-color="#342733"/>
<stop offset="1"/>
</linearGradient>
<linearGradient id="paint3_linear_819_4405" x1="4.8357" y1="279.645" x2="1166.36" y2="263.79" gradientUnits="userSpaceOnUse">
<stop stop-color="#342733"/>
<stop offset="1"/>
</linearGradient>
<linearGradient id="paint4_linear_819_4405" x1="1560.93" y1="-112.2" x2="780.89" y2="859.155" gradientUnits="userSpaceOnUse">
<stop stop-color="#342733"/>
<stop offset="1"/>
</linearGradient>
<linearGradient id="paint5_linear_819_4405" x1="475.858" y1="154.41" x2="151.186" y2="1124.17" gradientUnits="userSpaceOnUse">
<stop stop-color="#342733"/>
<stop offset="1"/>
</linearGradient>
<linearGradient id="paint6_linear_819_4405" x1="760.233" y1="1160.05" x2="1135.82" y2="795.849" gradientUnits="userSpaceOnUse">
<stop stop-color="#342733"/>
<stop offset="1"/>
</linearGradient>
<linearGradient id="paint7_linear_819_4405" x1="2000.93" y1="764.25" x2="1694.94" y2="738.382" gradientUnits="userSpaceOnUse">
<stop stop-color="#342733"/>
<stop offset="1"/>
</linearGradient>
<linearGradient id="paint8_linear_819_4405" x1="1537.74" y1="569.825" x2="1849.23" y2="722.079" gradientUnits="userSpaceOnUse">
<stop stop-color="#342733"/>
<stop offset="1"/>
</linearGradient>
<linearGradient id="paint9_linear_819_4405" x1="690.509" y1="-170.33" x2="1802.42" y2="1334.73" gradientUnits="userSpaceOnUse">
<stop stop-color="#342733"/>
<stop offset="0.38" stop-color="#AF4262"/>
<stop offset="1"/>
</linearGradient>
<linearGradient id="paint10_linear_819_4405" x1="645.5" y1="650.51" x2="214.071" y2="862.674" gradientUnits="userSpaceOnUse">
<stop stop-color="#342733"/>
<stop offset="0.33" stop-color="#AD3F60"/>
<stop offset="1"/>
</linearGradient>
<linearGradient id="paint11_linear_819_4405" x1="2005.55" y1="397.449" x2="897.338" y2="942.435" gradientUnits="userSpaceOnUse">
<stop stop-color="#342733"/>
<stop offset="0.33" stop-color="#AD3F60"/>
<stop offset="1"/>
</linearGradient>
<linearGradient id="paint12_linear_819_4405" x1="1474.38" y1="55.835" x2="1860.19" y2="349.877" gradientUnits="userSpaceOnUse">
<stop stop-color="#342733"/>
<stop offset="1"/>
</linearGradient>
<linearGradient id="paint13_linear_819_4405" x1="1637.47" y1="249.415" x2="1991.36" y2="920.939" gradientUnits="userSpaceOnUse">
<stop stop-color="#342733"/>
<stop offset="1"/>
</linearGradient>
<linearGradient id="paint14_linear_819_4405" x1="1096.73" y1="774.515" x2="1876.78" y2="1143.2" gradientUnits="userSpaceOnUse">
<stop stop-color="#342733"/>
<stop offset="1"/>
</linearGradient>
<linearGradient id="paint15_linear_819_4405" x1="1522.24" y1="106.68" x2="1134.25" y2="275.768" gradientUnits="userSpaceOnUse">
<stop stop-color="#342733"/>
<stop offset="1"/>
</linearGradient>
<linearGradient id="paint16_linear_819_4405" x1="1625.15" y1="935.139" x2="1920" y2="935.139" gradientUnits="userSpaceOnUse">
<stop stop-color="#342733"/>
<stop offset="1"/>
</linearGradient>
<linearGradient id="paint17_linear_819_4405" x1="524.933" y1="492.915" x2="210.179" y2="1347.38" gradientUnits="userSpaceOnUse">
<stop stop-color="#342733"/>
<stop offset="1"/>
</linearGradient>
<linearGradient id="paint18_linear_819_4405" x1="375.669" y1="-67.905" x2="161.611" y2="578.05" gradientUnits="userSpaceOnUse">
<stop stop-color="#342733"/>
<stop offset="1"/>
</linearGradient>
<linearGradient id="paint19_linear_819_4405" x1="615.852" y1="256.855" x2="963.689" y2="256.855" gradientUnits="userSpaceOnUse">
<stop stop-color="#342733"/>
<stop offset="1"/>
</linearGradient>
<linearGradient id="paint20_linear_819_4405" x1="398.606" y1="10.55" x2="1085.22" y2="312.227" gradientUnits="userSpaceOnUse">
<stop stop-color="#342733"/>
<stop offset="1"/>
</linearGradient>
<linearGradient id="paint21_linear_819_4405" x1="829.63" y1="928.185" x2="681.105" y2="1050.94" gradientUnits="userSpaceOnUse">
<stop stop-color="#AF4262"/>
<stop offset="1"/>
</linearGradient>
<linearGradient id="paint22_linear_819_4405" x1="790.322" y1="128.075" x2="918.331" y2="188.579" gradientUnits="userSpaceOnUse">
<stop stop-color="#AF4262"/>
<stop offset="1"/>
</linearGradient>
<linearGradient id="paint23_linear_819_4405" x1="1626.71" y1="766.755" x2="2138.93" y2="1008.86" gradientUnits="userSpaceOnUse">
<stop stop-color="#AF4262"/>
<stop offset="1"/>
</linearGradient>
<linearGradient id="paint24_linear_819_4405" x1="1396.47" y1="-0.00507034" x2="1926.45" y2="250.494" gradientUnits="userSpaceOnUse">
<stop stop-color="#AF4262"/>
<stop offset="1"/>
</linearGradient>
<linearGradient id="paint25_linear_819_4405" x1="179.297" y1="609.275" x2="202.996" y2="393.015" gradientUnits="userSpaceOnUse">
<stop stop-color="#AF4262"/>
<stop offset="1"/>
</linearGradient>
<linearGradient id="paint26_linear_819_4405" x1="1151.71" y1="877.124" x2="1271.31" y2="996.347" gradientUnits="userSpaceOnUse">
<stop stop-color="#AF4262"/>
<stop offset="1"/>
</linearGradient>
<linearGradient id="paint27_linear_819_4405" x1="1625.15" y1="1021.18" x2="2008.52" y2="1021.18" gradientUnits="userSpaceOnUse">
<stop stop-color="#AF4262"/>
<stop offset="1"/>
</linearGradient>
<linearGradient id="paint28_linear_819_4405" x1="1421.2" y1="187.085" x2="1954.68" y2="187.085" gradientUnits="userSpaceOnUse">
<stop stop-color="#AF4262"/>
<stop offset="1"/>
</linearGradient>
<linearGradient id="paint29_linear_819_4405" x1="629.641" y1="962.999" x2="865.083" y2="962.999" gradientUnits="userSpaceOnUse">
<stop stop-color="#AF4262"/>
<stop offset="1"/>
</linearGradient>
<linearGradient id="paint30_linear_819_4405" x1="157.825" y1="158.4" x2="935.115" y2="158.4" gradientUnits="userSpaceOnUse">
<stop stop-color="#AF4262"/>
<stop offset="1"/>
</linearGradient>
<linearGradient id="paint31_linear_819_4405" x1="2223.76" y1="-16.3251" x2="705.081" y2="229.35" gradientUnits="userSpaceOnUse">
<stop stop-color="#342733"/>
<stop offset="0.24" stop-color="#AD3F60"/>
<stop offset="0.47" stop-color="#240E18"/>
<stop offset="0.69" stop-color="#D9ABC1"/>
<stop offset="1"/>
</linearGradient>
<linearGradient id="paint32_linear_819_4405" x1="1884.65" y1="637.934" x2="677.426" y2="1231.61" gradientUnits="userSpaceOnUse">
<stop stop-color="#342733"/>
<stop offset="0.24" stop-color="#AD3F60"/>
<stop offset="0.47" stop-color="#240E18"/>
<stop offset="0.69" stop-color="#D9ABC1"/>
<stop offset="1"/>
</linearGradient>
<linearGradient id="paint33_linear_819_4405" x1="8.10893" y1="385.165" x2="1290.06" y2="1020.84" gradientUnits="userSpaceOnUse">
<stop stop-color="#342733"/>
<stop offset="0.24" stop-color="#AD3F60"/>
<stop offset="0.47" stop-color="#240E18"/>
<stop offset="0.69" stop-color="#D9ABC1"/>
<stop offset="1"/>
</linearGradient>
<linearGradient id="paint34_linear_819_4405" x1="904.018" y1="-63.2701" x2="-156.719" y2="393.472" gradientUnits="userSpaceOnUse">
<stop stop-color="#342733"/>
<stop offset="0.24" stop-color="#AD3F60"/>
<stop offset="0.47" stop-color="#240E18"/>
<stop offset="0.69" stop-color="#D9ABC1"/>
<stop offset="1"/>
</linearGradient>
<linearGradient id="paint35_linear_819_4405" x1="1353.87" y1="69.4248" x2="2355.1" y2="1149.66" gradientUnits="userSpaceOnUse">
<stop stop-color="#342733"/>
<stop offset="0.24" stop-color="#AD3F60"/>
<stop offset="0.47" stop-color="#240E18"/>
<stop offset="0.69" stop-color="#D9ABC1"/>
<stop offset="1"/>
</linearGradient>
<linearGradient id="paint36_linear_819_4405" x1="258.705" y1="-169.634" x2="1143.71" y2="191.083" gradientUnits="userSpaceOnUse">
<stop/>
<stop offset="0.31" stop-color="#D9ABC1"/>
<stop offset="0.53" stop-color="#240E18"/>
<stop offset="0.76" stop-color="#AD3F60"/>
<stop offset="1" stop-color="#342733"/>
</linearGradient>
<radialGradient id="paint37_radial_819_4405" cx="0" cy="0" r="1" gradientUnits="userSpaceOnUse" gradientTransform="translate(1377.75 657.683) rotate(-12.2575) scale(232.772 46.1584)">
<stop stop-color="#AD3F60"/>
<stop offset="1"/>
</radialGradient>
<radialGradient id="paint38_radial_819_4405" cx="0" cy="0" r="1" gradientUnits="userSpaceOnUse" gradientTransform="translate(868.668 672.787) rotate(47.13) scale(371.395 41.6605)">
<stop stop-color="#AD3F60"/>
<stop offset="1"/>
</radialGradient>
<radialGradient id="paint39_radial_819_4405" cx="0" cy="0" r="1" gradientUnits="userSpaceOnUse" gradientTransform="translate(722.289 296.933) rotate(119.615) scale(280.223 39.5007)">
<stop stop-color="#AD3F60"/>
<stop offset="1"/>
</radialGradient>
<radialGradient id="paint40_radial_819_4405" cx="0" cy="0" r="1" gradientUnits="userSpaceOnUse" gradientTransform="translate(1660.19 810.372) rotate(-136.402) scale(261.944 42.25)">
<stop stop-color="#AD3F60"/>
<stop offset="1"/>
</radialGradient>
</defs>
</svg>
