<svg width="474" height="494" viewBox="0 0 474 494" fill="none" xmlns="http://www.w3.org/2000/svg">
<g clip-path="url(#clip0_481_3939)">
<path d="M314.262 456.522C314.262 457.768 314.77 458.896 315.587 459.714C316.405 460.531 317.539 461.039 318.788 461.039H364.471C366.974 461.039 368.995 459.019 368.995 456.525C368.995 455.268 368.487 454.142 367.669 453.325C366.851 452.507 365.726 451.999 364.468 451.999H318.785C316.29 451.999 314.262 454.019 314.262 456.522Z" fill="#F22293"/>
<path d="M223.178 271.404C222.052 271.404 220.908 271.373 219.774 271.31L219.826 270.38C223.565 270.58 227.289 270.443 230.902 269.977L231.022 270.901C228.45 271.234 225.813 271.401 223.181 271.404H223.178ZM213.242 270.621C209.569 270.042 205.894 269.142 202.318 267.943L202.614 267.059C206.141 268.242 209.767 269.131 213.387 269.702L213.242 270.624V270.621ZM237.481 269.702L237.258 268.796C240.857 267.915 244.373 266.683 247.71 265.133L248.103 265.978C244.713 267.556 241.139 268.81 237.481 269.702ZM196.203 265.561C192.711 264.005 189.401 262.171 186.36 260.11L186.881 259.339C189.876 261.367 193.139 263.176 196.579 264.71L196.2 265.561H196.203ZM253.894 262.866L253.406 262.073C255.365 260.87 257.284 259.528 259.104 258.079C260.166 257.234 261.22 256.328 262.235 255.387L262.869 256.07C261.837 257.028 260.767 257.95 259.686 258.809C257.836 260.28 255.887 261.644 253.894 262.866ZM181.137 256.123C178.241 253.636 175.642 250.881 173.413 247.933L174.157 247.371C176.347 250.266 178.9 252.972 181.746 255.417L181.139 256.123H181.137ZM267.434 251.344L266.729 250.732C269.095 248.007 271.293 244.991 273.267 241.772L274.063 242.26C272.062 245.524 269.83 248.581 267.431 251.344H267.434ZM164.965 247.697C162.02 247.697 159.011 247.417 156.03 246.86L156.201 245.943C159.89 246.63 163.59 246.882 167.221 246.709L167.267 247.639C166.502 247.678 165.733 247.697 164.965 247.697ZM173.805 246.833L173.624 245.919C177.25 245.197 180.766 244.003 184.071 242.376L184.482 243.21C181.106 244.876 177.514 246.094 173.808 246.833H173.805ZM149.654 245.255C146.13 244.129 142.655 242.623 139.326 240.778L139.779 239.963C143.053 241.78 146.471 243.262 149.937 244.368L149.654 245.257V245.255ZM169.798 242.439C169.26 241.492 168.744 240.507 168.261 239.51C167.138 237.186 166.189 234.675 165.445 232.048L166.342 231.793C167.073 234.367 168 236.829 169.101 239.104C169.573 240.081 170.081 241.05 170.608 241.978L169.798 242.439ZM190.15 239.854L189.615 239.091C192.692 236.928 195.396 234.395 197.649 231.56L198.379 232.139C196.071 235.045 193.304 237.641 190.153 239.854H190.15ZM133.768 237.285C130.801 235.199 127.883 232.792 125.097 230.13L125.742 229.458C128.493 232.087 131.372 234.463 134.303 236.522L133.768 237.285ZM277.244 236.519L276.409 236.105C278.048 232.809 279.464 229.351 280.622 225.824L281.506 226.115C280.337 229.683 278.902 233.185 277.244 236.519ZM201.999 226.623L201.176 226.186C201.665 225.264 202.117 224.314 202.518 223.362C203.52 220.991 204.247 218.439 204.681 215.779L205.601 215.93C205.153 218.661 204.407 221.285 203.377 223.724C202.966 224.701 202.502 225.678 201.999 226.623ZM164.07 225.615C163.708 223.159 163.526 220.673 163.526 218.222C163.526 216.921 163.579 215.62 163.68 214.358L164.608 214.432C164.509 215.669 164.457 216.943 164.457 218.222C164.457 220.626 164.638 223.068 164.992 225.481L164.07 225.618V225.615ZM120.536 225.423C118.115 222.734 115.754 219.783 113.517 216.66L114.275 216.117C116.49 219.213 118.831 222.133 121.23 224.8L120.536 225.423ZM283.29 219.794L282.385 219.58C283.246 215.96 283.842 212.272 284.158 208.616L285.085 208.696C284.767 212.395 284.16 216.128 283.29 219.794ZM109.861 211.229C107.912 208.158 106.032 204.887 104.273 201.503L105.099 201.072C106.848 204.434 108.714 207.68 110.646 210.729L109.861 211.229ZM205.126 209.365C205.024 205.496 204.225 201.805 202.817 198.69L203.665 198.305C205.128 201.533 205.955 205.35 206.059 209.344L205.126 209.368V209.365ZM165.601 208.059L164.696 207.845C165.615 203.951 167.053 200.435 168.972 197.402L169.76 197.902C167.896 200.847 166.499 204.266 165.601 208.062V208.059ZM284.429 202.142C284.416 198.396 284.1 194.677 283.491 191.087L284.41 190.931C285.025 194.57 285.346 198.341 285.36 202.137H284.427L284.429 202.142ZM101.383 195.632C100.719 194.2 100.06 192.729 99.4285 191.258C98.5941 189.306 97.7816 187.303 97.0159 185.305L97.8859 184.973C98.649 186.96 99.4559 188.95 100.288 190.893C100.913 192.355 101.567 193.818 102.228 195.24L101.383 195.632ZM199.326 193.398C196.806 190.728 193.548 188.977 189.903 188.335L190.065 187.418C193.908 188.096 197.344 189.943 200.004 192.759L199.326 193.398ZM173.852 193.022L173.237 192.322C176.147 189.762 179.665 188.069 183.415 187.421L183.574 188.34C179.998 188.958 176.635 190.577 173.855 193.022H173.852ZM94.7926 179.157C93.5987 175.653 92.498 172.047 91.5181 168.438L92.4184 168.193C93.3928 171.783 94.4879 175.37 95.6764 178.855L94.7926 179.155V179.157ZM89.9207 162.098C89.0781 158.486 88.3342 154.789 87.7084 151.112L88.6279 150.955C89.251 154.617 89.9921 158.294 90.8292 161.889L89.9207 162.101V162.098ZM86.7231 144.646C86.2263 140.96 85.8365 137.211 85.5621 133.498L86.4925 133.429C86.7643 137.123 87.154 140.856 87.6481 144.522L86.7258 144.646H86.7231ZM85.1915 126.972C85.1449 125.756 85.1092 124.54 85.0845 123.324L86.0177 123.305C86.0424 124.515 86.0781 125.726 86.1247 126.936L85.1915 126.972Z" fill="#C5CDE3"/>
<path d="M299.188 485.786L323.04 472.895L329.479 467.209L355.463 471.12L355.444 491.492C355.661 492.554 354.857 493.531 353.794 493.531H298.17C297.234 493.531 296.476 492.773 296.476 491.838V489.82C296.476 488.042 297.538 486.456 299.188 485.783V485.786Z" fill="#5D46D1"/>
<path d="M329.479 467.212L333.25 445.978L355.477 453.94L355.461 471.123C344.918 475.566 335.388 474.037 329.476 467.212H329.479Z" fill="#FFCFC5"/>
<path d="M321.635 481.027C319.949 477.882 316.829 477.564 316.798 477.561L316.883 476.633C317.032 476.647 320.537 477.004 322.458 480.588L321.637 481.027H321.635Z" fill="white"/>
<path d="M316.43 483.928C314.756 480.799 311.72 480.476 311.594 480.462L311.679 479.534C311.828 479.548 315.333 479.905 317.251 483.486L316.43 483.925V483.928Z" fill="white"/>
<path d="M443.139 468.875L440.408 441.903L437.633 433.774L451.233 411.294L470.034 419.146C471.099 419.354 471.692 420.471 471.283 421.454L449.899 472.8C449.54 473.661 448.549 474.07 447.687 473.711L445.823 472.934C444.179 472.251 443.125 470.659 443.139 468.878V468.875Z" fill="#5D46D1"/>
<path d="M437.633 433.774L419.479 422.129L428.336 397.794L451.233 411.294C451.282 422.735 446.207 430.941 437.633 433.774Z" fill="#FFCFC5"/>
<path d="M442.313 449.455L441.489 449.019C441.558 448.887 443.238 445.789 447.283 445.396L447.374 446.324C443.842 446.667 442.376 449.343 442.313 449.455Z" fill="white"/>
<path d="M442.99 455.375L442.167 454.939C442.236 454.807 443.915 451.709 447.961 451.316L448.052 452.244C444.519 452.587 443.054 455.263 442.99 455.375Z" fill="white"/>
<path d="M420.36 436.653C421.455 437.251 422.687 437.347 423.796 437.023C424.905 436.699 425.896 435.947 426.494 434.852L448.422 394.781C449.624 392.585 448.82 389.841 446.633 388.644C445.532 388.04 444.3 387.947 443.191 388.271C442.082 388.595 441.096 389.341 440.493 390.442L418.565 430.513C417.368 432.701 418.167 435.453 420.363 436.653H420.36Z" fill="#F22293"/>
<path d="M372.557 402.116C355.243 391.303 340.974 381.193 330.14 372.073L330.741 371.359C341.539 380.452 355.773 390.535 373.049 401.326L372.555 402.116H372.557Z" fill="white"/>
<path d="M407.808 210.241L363.113 457.447H319.452L351.92 194.801L407.808 210.241Z" fill="url(#paint0_linear_481_3939)"/>
<path d="M321.612 439.957C321.612 439.957 355.99 451.996 355.474 451.996H320.125L321.612 439.957Z" fill="black"/>
<path d="M330.077 371.475C365.657 399.462 418.562 430.513 418.562 430.513L440.49 390.441L348.944 325.653C348.944 325.653 423.623 250.513 430.252 232.123C440.004 205.054 426.47 188.409 426.47 188.409L370.309 200.85C370.309 200.85 296.643 314.132 298.499 336.384C299.182 344.604 312.522 357.667 330.08 371.475" fill="url(#paint1_linear_481_3939)"/>
<path d="M407.808 424.047L436.535 397.667L418.562 430.513L407.808 424.047Z" fill="black"/>
<path d="M349.192 325.23L348.682 326.009L381.466 347.468L381.976 346.689L349.192 325.23Z" fill="white"/>
<path d="M349.277 325.98L348.615 325.324C348.854 325.085 372.629 301.137 394.282 277.271L394.971 277.897C373.304 301.779 349.513 325.741 349.277 325.98Z" fill="white"/>
<path d="M271.34 109.611C272.514 110.64 273.645 111.674 274.491 112.984C281.144 123.212 300.346 156.733 314.05 157.688C318.036 157.965 323.572 156.414 329.706 153.898C335.289 151.595 341.363 148.488 347.232 145.198C362.38 136.685 376.098 126.977 376.098 126.977L374.182 96.5031C352.521 97.4472 337.91 110.678 319.202 122.556L295.194 95.9487C293.712 94.4146 292.79 92.4907 292.062 90.4955C289.337 83.0252 264.939 104.02 271.34 109.611Z" fill="url(#paint2_linear_481_3939)"/>
<path d="M438.637 201.602C437.201 202.348 435.738 203.056 434.237 203.726C405.524 216.548 366.988 223.62 347.986 212.588C341.594 208.647 345.041 198.462 346.738 193.989C349.963 185.481 334.222 122.145 338.564 113.253C344.89 100.329 376.699 94.0004 376.699 94.0004C376.699 94.0004 411.302 87.3478 429.074 102.983C434.693 107.923 435.486 126.028 435.618 143.938C435.703 154.905 435.533 165.8 436.073 173.551C436.241 175.927 436.474 178.005 436.801 179.709V179.718L436.809 179.726C437.201 181.795 437.731 183.294 438.458 184.068C438.84 184.476 439.194 184.888 439.529 185.289C440.171 186.082 440.731 186.864 441.187 187.627L441.607 188.374L441.634 188.42C441.689 188.514 441.736 188.596 441.774 188.689H441.782C444.829 194.719 442.342 199.62 438.631 201.596L438.637 201.602Z" fill="#5D46D1"/>
<path d="M441.788 188.694H441.78L392.081 188.406L436.803 179.712V179.72L436.812 179.728C437.204 181.798 437.734 183.296 438.461 184.07C438.843 184.479 439.197 184.891 439.532 185.291C440.174 186.085 440.734 186.867 441.189 187.63L441.609 188.376L441.637 188.423L441.785 188.692L441.788 188.694Z" fill="black"/>
<path d="M415.639 127.125C415.639 127.125 426.837 162.216 436.073 173.556C435.535 165.8 435.703 154.905 435.62 143.943L415.639 127.125Z" fill="black"/>
<path d="M387.003 219.405C389.44 218.035 391.888 216.685 394.63 216.122C410.44 212.862 460.265 219.863 471.991 200.454C481.125 185.344 456.683 131.956 447.733 117.967C436.935 101.092 416.102 95.8115 416.102 95.8115C416.102 95.8115 413.256 110.843 414.963 124.214C416.671 137.587 443.152 183.282 443.152 183.282L393.008 188.157C390.475 188.944 387.091 187.341 384.513 186.76C376.74 184.992 380.918 222.819 387 219.402L387.003 219.405Z" fill="url(#paint3_linear_481_3939)"/>
<path d="M351.291 40.22C351.291 40.22 352.985 52.7374 361.276 54.0685C369.568 55.3996 371.226 47.405 371.226 47.405L366.763 38.0327L359.413 38.5267" fill="black"/>
<path d="M400.364 86.6285L396.217 97.019L382.408 99.4176L374.871 101.687L376.26 89.4471L375.865 86.4584L374.805 78.5516L397.257 61.8462C397.241 62.8946 397.246 63.932 397.274 64.9502C397.54 77.0751 400.367 86.6258 400.367 86.6258L400.364 86.6285Z" fill="#FFCFC5"/>
<path d="M397.254 61.8462C397.238 62.8946 397.243 63.932 397.271 64.9502C397.123 64.9858 396.98 65.0105 396.84 65.0325C396.623 65.6747 396.489 66.4075 396.428 67.2143C394.01 78.1345 384.049 85.764 375.865 86.4584L374.805 78.5516L397.257 61.8462H397.254Z" fill="#FC9B88"/>
<path d="M400.367 86.6287C398.355 92.4579 389.552 96.2891 382.411 99.4123C382.411 99.4123 385.479 112.218 387.683 112.023C389.712 111.845 407.731 103.902 406.8 93.8383C403.745 91.9529 402.812 89.4307 400.367 86.6287Z" fill="#00448E"/>
<path d="M382.408 99.4151C382.408 99.4151 378.898 109.542 376.068 110.549C372.845 111.699 369.648 102.662 369.796 97.7575L376.26 89.4446C375.876 92.8477 374.898 95.9077 382.408 99.4151Z" fill="#00448E"/>
<path d="M376.512 83.3736C384.845 83.187 395.459 75.401 397.973 64.0747C398.031 63.2705 398.163 62.5378 398.382 61.8956C400.326 61.6074 402.346 60.2544 403.724 58.1329C405.908 54.7628 405.656 50.69 403.134 49.0763C401.695 48.1432 399.87 48.1898 398.13 49.0626C396.014 37.5249 388.94 29.0693 380.547 29.061C374.945 29.0556 369.933 32.7935 366.568 38.6968C366.162 39.4049 365.775 40.1513 365.424 40.9225C363.384 45.3274 362.196 50.6735 362.207 56.4259C362.171 71.5286 367.757 83.5684 376.515 83.3791L376.512 83.3736Z" fill="#FFCFC5"/>
<path d="M414.165 62.6476C413.056 65.9492 410.226 68.4796 407.02 69.8628C403.589 71.3228 400.647 73.6446 397.051 72.6456L397.384 72.0117C397.137 69.1657 397.79 66.3691 397.982 64.0692C398.029 63.2733 398.16 62.5351 398.383 61.8901C400.323 61.6047 402.346 60.249 403.727 58.133C405.906 54.7518 405.651 50.6846 403.137 49.0681C401.698 48.135 399.868 48.1844 398.141 49.0571C398.141 49.0571 394.255 51.4613 394.773 55.1086L392.086 56.3546L390.072 49.8448C390.072 49.8448 385.159 46.9933 386.929 43.0742C386.929 43.0742 353.363 55.9374 351.368 40.8677C349.373 25.798 365.569 29.1956 365.569 29.1956C365.569 29.1956 363.991 27.1427 362.748 24.4998C360.256 19.2717 359.037 11.7436 373.919 13.4315C391.005 15.3745 397.831 28.0127 400.112 33.8831C402.209 33.0872 405.011 33.5538 406.76 34.8958C409.057 36.6742 409.675 40.2776 408.085 42.7092C409.062 41.1119 411.409 40.7552 413.053 41.6361C414.689 42.5199 415.669 44.3394 415.993 46.1782C416.591 49.5374 415.197 53.1765 412.521 55.2788C415.34 57.3316 415.263 59.3406 414.165 62.6421V62.6476Z" fill="#5D46D1"/>
<path d="M368.907 58.0369L367.172 67.5464L371.841 67.7824L368.907 58.0369Z" fill="#FC9B88"/>
<path d="M316.129 213.054L316.12 213.065L372.544 212.374C375.355 212.344 377.605 210.035 377.575 207.214C377.559 205.878 377.029 204.678 376.186 203.781C375.324 202.878 374.152 202.285 372.821 202.192L342.124 200.161L310.724 198.089L316.126 213.054H316.129Z" fill="white"/>
<path d="M316.12 213.532C315.947 213.532 315.785 213.436 315.706 213.279C315.681 213.23 315.665 213.181 315.659 213.128L310.288 198.248C310.235 198.1 310.26 197.935 310.353 197.809C310.447 197.683 310.59 197.606 310.757 197.625L372.854 201.728C374.254 201.827 375.555 202.444 376.526 203.462C377.49 204.489 378.028 205.817 378.044 207.211C378.061 208.699 377.498 210.104 376.463 211.166C375.426 212.231 374.037 212.824 372.552 212.84L316.128 213.532H316.123H316.12ZM311.405 198.599L316.458 212.593L372.541 211.907C373.776 211.893 374.932 211.399 375.794 210.516C376.655 209.632 377.125 208.46 377.111 207.222C377.097 206.061 376.65 204.953 375.848 204.102C375.041 203.254 373.955 202.741 372.788 202.658L311.405 198.602V198.599Z" fill="black"/>
<path d="M308.402 198.103L313.806 213.065L341.948 212.725L339.804 200.172L308.402 198.103Z" fill="black"/>
<path d="M266.498 213.658L338.353 212.788L328.079 152.715C327.511 149.397 324.615 146.985 321.25 147.026L255.999 147.816C251.792 147.868 248.627 151.664 249.338 155.811L258.025 206.6C258.728 210.716 262.323 213.71 266.498 213.658Z" fill="#6F53FF"/>
<path d="M266.391 214.125C262.008 214.125 258.308 211.01 257.564 206.676L248.877 155.887C248.517 153.777 249.096 151.623 250.466 149.979C251.836 148.335 253.85 147.374 255.991 147.35L321.242 146.559C324.843 146.548 327.925 149.07 328.535 152.635L338.808 212.708C338.83 212.843 338.794 212.98 338.707 213.084C338.619 213.189 338.49 213.249 338.355 213.252L266.501 214.122C266.462 214.122 266.424 214.122 266.388 214.122L266.391 214.125ZM321.338 147.489C321.31 147.489 321.286 147.489 321.258 147.489L256.008 148.28C254.141 148.302 252.382 149.139 251.185 150.574C249.988 152.01 249.483 153.89 249.799 155.731L258.486 206.52C259.156 210.433 262.507 213.208 266.495 213.191L337.804 212.327L327.621 152.792C327.094 149.71 324.459 147.489 321.338 147.489Z" fill="black"/>
<path d="M320.407 147.025C322.219 148.063 323.542 149.863 323.921 152.034L334.315 212.826L338.358 212.78L328.082 152.715C327.516 149.394 324.618 146.982 321.255 147.02L320.41 147.025H320.407Z" fill="black"/>
<path d="M282.659 180.472C282.714 185.025 286.447 188.667 290.99 188.609C293.465 188.579 295.672 187.454 297.152 185.706C296.432 185.89 295.68 185.988 294.904 185.997C289.436 186.063 284.943 181.685 284.877 176.213C284.872 175.683 284.905 175.153 284.979 174.648C283.521 176.158 282.632 178.211 282.659 180.472Z" fill="#C5CDE3"/>
<path d="M352.03 201.083C353.888 201.248 355.189 201.421 355.189 201.421C355.189 201.421 353.753 201.421 352.03 201.083ZM374.336 195.122C374.644 195.16 374.808 195.18 374.808 195.18C374.808 195.18 374.635 195.16 374.336 195.122Z" fill="#FFCFC5"/>
<path d="M387.203 215.25C387.203 215.25 351.749 223.05 346.897 220.105C343.814 218.228 347.778 214.451 350.111 213.71C348.137 213.902 343.46 214.27 341.841 212.865C337.853 209.399 350.265 207.601 350.265 207.601C350.265 207.601 338.896 207.146 338.72 203.158C338.594 200.298 347.146 200.655 351.972 201.078C349.469 200.578 346.375 199.362 346.175 196.398C345.867 191.911 368.915 194.464 373.875 195.07C371.641 194.724 366.247 193.55 367.353 190.234C368.739 186.074 383.737 191.793 383.737 191.793C387.261 191.274 390.73 214.731 387.203 215.253V215.25Z" fill="#FFCFC5"/>
<path d="M374.808 195.18C374.808 195.18 374.635 195.16 374.336 195.122C374.643 195.16 374.808 195.18 374.808 195.18Z" fill="#014EB1"/>
<path d="M126.379 73.5457L23.572 38.5897L105.313 86.9111L46.8227 125.44L0.466797 27.0383L174.478 49.6965L126.379 73.5457Z" fill="#6F53FF"/>
<path d="M126.379 73.5456L119.172 129.897L105.313 86.911L23.5723 38.5896L126.379 73.5456Z" fill="#C5CDE3"/>
<path d="M119.171 130.364C118.971 130.364 118.79 130.235 118.73 130.04L104.926 87.224L23.3334 38.9904C23.1275 38.8697 23.0479 38.6117 23.1467 38.3949C23.2455 38.1781 23.4926 38.0765 23.7204 38.1479L126.527 73.1039C126.736 73.1752 126.868 73.3838 126.84 73.6033L119.635 129.955C119.608 130.172 119.432 130.339 119.215 130.361C119.202 130.361 119.185 130.361 119.171 130.361V130.364ZM27.6865 40.4806L105.552 86.5105C105.648 86.5681 105.722 86.6614 105.758 86.7684L118.977 127.768L125.869 73.8641L27.6865 40.4806Z" fill="black"/>
<path d="M46.8227 125.907C46.7815 125.907 46.7376 125.901 46.6964 125.89C46.5674 125.855 46.4576 125.761 46.4027 125.641L0.0440603 27.2359C-0.0300476 27.0822 -0.0108345 26.9011 0.0879762 26.7638C0.186787 26.6266 0.354216 26.5525 0.52439 26.5772L174.535 49.2353C174.738 49.2628 174.9 49.4192 174.936 49.6223C174.969 49.8254 174.867 50.0257 174.684 50.1163L126.585 73.9628C126.475 74.0177 126.346 74.0259 126.228 73.9875L27.6863 40.4806L105.552 86.5104C105.689 86.5927 105.777 86.7409 105.78 86.9001C105.782 87.0593 105.703 87.2102 105.571 87.3008L47.0807 125.83C47.0038 125.879 46.9132 125.907 46.8254 125.907H46.8227ZM1.25175 27.6119L47.0175 124.757L104.437 86.933L23.3332 38.9903C23.1273 38.8696 23.0477 38.6116 23.1465 38.3948C23.2453 38.178 23.4924 38.0764 23.7202 38.1478L126.343 73.0407L172.897 49.9599L1.25175 27.6119Z" fill="black"/>
<path d="M140.907 15.3966L125.58 101.622L122.901 100.741L108.209 95.8966L108.102 95.5508L105.313 86.9113L48.928 53.5801L34.3452 44.9598L34.9353 42.4568L43.1119 7.3938L44.4102 1.83081L134.166 14.4525L134.284 14.4607L134.347 14.4717L140.907 15.3966Z" fill="black"/>
<path d="M125.58 102.088C125.531 102.088 125.481 102.08 125.435 102.063L108.063 96.3385C107.92 96.2918 107.808 96.1793 107.764 96.0366L107.657 95.6908L104.926 87.2242L34.1062 45.3604C33.9305 45.2561 33.8427 45.0503 33.8893 44.8527L34.4795 42.347L43.9543 1.72376C44.0092 1.48774 44.226 1.33405 44.4731 1.36698L134.319 13.9969C134.319 13.9969 134.404 14.0079 134.413 14.0079L140.973 14.9328C141.096 14.9492 141.211 15.0178 141.283 15.1194C141.357 15.2209 141.387 15.3499 141.365 15.4762L126.038 101.701C126.014 101.833 125.934 101.951 125.819 102.019C125.745 102.063 125.662 102.085 125.58 102.085V102.088ZM108.582 95.5289L125.215 101.012L140.363 15.7918L44.7668 2.34949L34.8775 44.7319L105.552 86.5079C105.648 86.5655 105.722 86.6588 105.758 86.7659L108.582 95.5234V95.5289Z" fill="black"/>
<path d="M137.569 14.9519V14.9601L124.935 84.8337L122.169 100.142L108.102 95.5508L105.313 86.9112L48.9279 53.58L34.3452 44.9597L29.7065 42.2207L30.0441 40.7963L39.6452 0.469482L134.166 14.4524L134.284 14.4607L134.347 14.4716L137.569 14.9519Z" fill="#5243FD"/>
<path d="M122.169 100.609C122.119 100.609 122.072 100.601 122.023 100.587L107.956 95.9954C107.814 95.9487 107.704 95.8362 107.657 95.6962L104.923 87.2269L29.4704 42.6214C29.2948 42.5171 29.2069 42.3113 29.2536 42.1137L29.5885 40.6893L39.1923 0.359708C39.2472 0.12643 39.4723 -0.0354922 39.7138 0.00841887L134.319 13.9969C134.319 13.9969 134.405 14.0078 134.413 14.0078L137.638 14.4909C137.866 14.5238 138.036 14.7214 138.036 14.9519V14.9602L122.627 100.225C122.602 100.356 122.523 100.474 122.407 100.543C122.333 100.587 122.251 100.609 122.169 100.609ZM108.472 95.1803L121.806 99.533L137.029 15.3416L134.133 14.9162L39.9993 0.99093L30.239 41.9929L105.552 86.5106C105.648 86.5682 105.722 86.6615 105.758 86.7685L108.472 95.1803Z" fill="black"/>
<path d="M122.169 100.142L108.102 95.5508L105.313 86.9113L48.9282 53.58L55.9438 49.5978L62.3884 45.9395L76.8175 37.7473L87.2091 52.0376L95.114 62.9111L122.169 100.142Z" fill="#FFD24F"/>
<path d="M122.169 100.609C122.119 100.609 122.073 100.601 122.023 100.587L107.956 95.9954C107.814 95.9487 107.704 95.8362 107.657 95.6962L104.924 87.2269L48.6893 53.9862C48.5466 53.9011 48.4587 53.7474 48.4615 53.58C48.4615 53.4126 48.5521 53.2616 48.6975 53.1793L76.5868 37.3438C76.7927 37.2258 77.0534 37.2835 77.1934 37.4756L122.542 99.8705C122.66 100.035 122.66 100.255 122.542 100.419C122.454 100.543 122.311 100.612 122.166 100.612L122.169 100.609ZM108.472 95.1803L120.947 99.253L76.6884 38.3565L49.8613 53.5882L105.555 86.5106C105.651 86.5682 105.725 86.6615 105.761 86.7685L108.475 95.1803H108.472Z" fill="#F623D2"/>
<path d="M137.577 14.949L85.4548 53.3246C77.7394 59.0056 67.5701 56.294 63.3213 47.8055L39.6396 0.466553L137.575 14.9517L137.577 14.949Z" fill="url(#paint4_linear_481_3939)"/>
<path d="M76.6223 56.7909C75.4722 56.7909 74.314 56.6537 73.1639 56.3765C68.7751 55.3199 65.0367 52.2735 62.9041 48.0114L39.2225 0.67524C39.1456 0.518807 39.1593 0.334929 39.2609 0.194962C39.3624 0.0549955 39.5381 -0.0191045 39.7055 0.00833995L137.641 14.4908C137.827 14.5182 137.978 14.6554 138.025 14.8393C138.072 15.0232 138 15.2153 137.849 15.3278L85.7266 53.7034C82.9599 55.7398 79.8144 56.7936 76.6168 56.7936L76.6223 56.7909ZM40.4576 1.05672L63.7385 47.597C65.7449 51.6094 69.2609 54.4801 73.3807 55.4708C77.4484 56.4506 81.6397 55.5531 85.1776 52.9487L136.389 15.2455L40.4576 1.05672Z" fill="black"/>
<path d="M119.177 129.895L76.3369 105.999L105.31 86.9084L119.177 129.895Z" fill="black"/>
<path d="M119.984 130.88L75.4395 106.032L105.566 86.1838L105.752 86.7684L119.984 130.88ZM77.2318 105.966L118.367 128.912L105.052 87.6357L77.2318 105.966Z" fill="black"/>
<path d="M287.36 92.8804C287.36 92.8804 280.285 74.1551 276.675 73.4498C273.895 72.9064 274.219 81.3126 274.219 81.3126C274.219 81.3126 254.212 63.1334 252.014 65.5842C249.815 68.035 261.593 77.2508 261.593 77.2508C261.593 77.2508 258.609 76.0241 257.83 78.0906C257.072 80.1023 258.9 81.1864 258.9 81.1864C258.9 81.1864 256.894 80.2917 255.725 81.7023C254.542 83.1322 256.455 85.1082 256.455 85.1082C256.455 85.1082 254.237 85.2701 254.533 87.6276C254.942 90.8825 268.886 101.814 270.933 102.994C272.984 104.174 273.502 107.061 273.502 107.061C276.527 110.014 290.382 95.8335 287.36 92.8804Z" fill="#FFCFC5"/>
<path d="M267.911 88.2752C265.438 88.2752 259.175 82.1523 258.458 81.4442L259.114 80.7828C261.744 83.3846 266.457 87.4216 267.947 87.3421C268.071 87.3311 268.101 87.2899 268.117 87.268C268.372 86.9167 268.46 86.516 268.383 86.0412C268.005 83.7139 264.028 80.8624 263.986 80.8322L264.527 80.072C264.703 80.1983 268.861 83.1787 269.303 85.8875C269.421 86.6093 269.276 87.257 268.872 87.8141C268.677 88.0831 268.383 88.2395 268.024 88.2697C267.988 88.2697 267.95 88.2752 267.911 88.2752Z" fill="#FFB29F"/>
<path d="M265.235 91.8733C262.257 91.8733 256.845 85.7998 256.227 85.0945L256.927 84.4797C258.527 86.302 263.07 90.9429 265.213 90.9429C265.254 90.9429 265.293 90.9429 265.331 90.9374C265.62 90.9127 265.817 90.7892 265.971 90.5367C266.657 89.4142 265.233 87.5014 264.626 86.8592L265.304 86.2197C265.414 86.335 267.966 89.0657 266.77 91.0252C266.462 91.5275 265.993 91.8184 265.414 91.8678C265.356 91.8733 265.298 91.876 265.238 91.876L265.235 91.8733Z" fill="#FFB29F"/>
<path d="M264.206 95.3477C261.87 95.3477 257.725 92.5099 257.229 92.1641L257.761 91.3984C259.114 92.3425 262.962 94.711 264.486 94.3899C264.724 94.3377 264.815 94.2252 264.864 94.1456C265.084 93.7806 265.142 93.4156 265.043 93.0341C264.815 92.1449 263.775 91.3682 263.393 91.1459L263.865 90.3418C263.937 90.383 265.575 91.36 265.946 92.8036C266.105 93.4293 266.012 94.0413 265.666 94.6231C265.457 94.9717 265.117 95.2077 264.683 95.301C264.535 95.3339 264.376 95.3477 264.206 95.3477Z" fill="#FFB29F"/>
<path d="M277.545 90.6767C272.824 88.4317 273.716 81.5432 273.755 81.2495L274.677 81.3758C274.669 81.4416 273.843 87.8828 277.943 89.8341L277.542 90.6739L277.545 90.6767Z" fill="#FFB29F"/>
<path d="M250.049 51.0139H188.932C188.67 51.0139 188.457 51.2265 188.457 51.4887V77.2398C188.457 77.502 188.67 77.7146 188.932 77.7146H250.049C250.311 77.7146 250.524 77.502 250.524 77.2398V51.4887C250.524 51.2265 250.311 51.0139 250.049 51.0139Z" fill="#FF4148"/>
<path d="M200.506 67.8235C201.088 68.1803 201.939 68.4795 202.834 68.4795C204.162 68.4795 204.936 67.7769 204.936 66.7642C204.936 65.8228 204.398 65.2877 203.042 64.7662C201.401 64.1844 200.388 63.3336 200.388 61.9175C200.388 60.3504 201.687 59.1868 203.641 59.1868C204.67 59.1868 205.417 59.4255 205.864 59.678L205.507 60.7374C205.178 60.559 204.508 60.2598 203.597 60.2598C202.225 60.2598 201.703 61.0804 201.703 61.7665C201.703 62.7079 202.315 63.169 203.701 63.7069C205.4 64.3628 206.268 65.1834 206.268 66.6599C206.268 68.2105 205.12 69.5525 202.746 69.5525C201.777 69.5525 200.718 69.2699 200.18 68.9103L200.509 67.8208L200.506 67.8235Z" fill="white"/>
<path d="M213.245 64.6893H209.336V68.312H213.692V69.4015H208.038V59.3486H213.467V60.4382H209.336V63.6162H213.245V64.6921V64.6893Z" fill="white"/>
<path d="M215.375 69.4042V59.3513H216.791L220.013 64.4368C220.76 65.6141 221.342 66.6735 221.819 67.7027L221.849 67.6889C221.731 66.3469 221.701 65.1229 221.701 63.5586V59.3513H222.925V69.4042H221.613L218.421 64.3023C217.721 63.1826 217.049 62.0354 216.541 60.9458L216.497 60.9596C216.571 62.2275 216.601 63.4351 216.601 65.1064V69.4015H215.377L215.375 69.4042Z" fill="white"/>
<path d="M225.19 59.4859C225.98 59.3679 226.919 59.2773 227.948 59.2773C229.812 59.2773 231.141 59.711 232.022 60.5316C232.916 61.3521 233.438 62.5158 233.438 64.1405C233.438 65.7652 232.93 67.1237 231.991 68.0486C231.05 68.9899 229.499 69.4949 227.545 69.4949C226.62 69.4949 225.846 69.451 225.19 69.3769V59.4887V59.4859ZM226.488 68.3752C226.815 68.4356 227.292 68.4493 227.8 68.4493C230.575 68.4493 232.082 66.8987 232.082 64.1844C232.098 61.8132 230.754 60.3065 228.012 60.3065C227.339 60.3065 226.834 60.3669 226.491 60.441V68.3752H226.488Z" fill="white"/>
</g>
<defs>
<linearGradient id="paint0_linear_481_3939" x1="407.808" y1="326.124" x2="319.452" y2="326.124" gradientUnits="userSpaceOnUse">
<stop stop-color="#C757FF"/>
<stop offset="1" stop-color="#6D53FF"/>
</linearGradient>
<linearGradient id="paint1_linear_481_3939" x1="298.464" y1="308.68" x2="440.49" y2="308.68" gradientUnits="userSpaceOnUse">
<stop stop-color="#6D53FF"/>
<stop offset="1" stop-color="#8A49F7"/>
</linearGradient>
<linearGradient id="paint2_linear_481_3939" x1="376.098" y1="123.313" x2="270.273" y2="123.313" gradientUnits="userSpaceOnUse">
<stop stop-color="#C757FF"/>
<stop offset="1" stop-color="#6D53FF"/>
</linearGradient>
<linearGradient id="paint3_linear_481_3939" x1="474.001" y1="157.716" x2="380.276" y2="157.716" gradientUnits="userSpaceOnUse">
<stop stop-color="#C757FF"/>
<stop offset="1" stop-color="#6D53FF"/>
</linearGradient>
<linearGradient id="paint4_linear_481_3939" x1="39.6396" y1="28.2127" x2="137.577" y2="28.2127" gradientUnits="userSpaceOnUse">
<stop stop-color="#6D53FF"/>
<stop offset="1" stop-color="#8A49F7"/>
</linearGradient>
<clipPath id="clip0_481_3939">
<rect width="474" height="494" fill="white"/>
</clipPath>
</defs>
</svg>
